<svg xmlns="http://www.w3.org/2000/svg" xmlns:xlink="http://www.w3.org/1999/xlink" viewBox="0 0 836 1360"><image width="750" height="1334" transform="translate(383 245) scale(0.6)" xlink:href="b-image1.JPG"/><polygon points="366 230 366 386 234 335 234 147 366 230" fill="#302d77"/><polygon points="366 415 366 650 234 650 234 368 366 415" fill="#302d77"/><polygon points="366 665 366 906 234 966 234 669 366 665" fill="#302d77"/><path d="M599.25,1001.52,594.8,1289c-.13,7.86.58,17.26,7.4,21.16,2.69,1.53,5.87,1.87,8.94,2.18l44.92,4.48q5.43-135.55,10.87-271.12c.31-7.75,1.75-17.19,9-20,5.8-2.25,12.54,1.49,15.77,6.81s3.8,11.77,4.3,18l14.88,184.59c2.2,27.24,4.6,55.25,16.82,79.7l58-10.41A1690.12,1690.12,0,0,0,776,948.28" fill="none" stroke="#302d77" stroke-miterlimit="10" stroke-width="2"/><path d="M652.12,1317.06l3.11,37.92" fill="none" stroke="#302d77" stroke-miterlimit="10" stroke-width="2"/><path d="M655.4,1354.85a584.69,584.69,0,0,1-96.92,4.37" fill="none" stroke="#302d77" stroke-miterlimit="10" stroke-width="2"/><path d="M558.17,1359.24c-2.61-10.43,1.71-21.75,9.15-29.51s17.61-12.37,27.95-15.31c5.7-1.62,11.8-2.77,17.48-1.11" fill="none" stroke="#302d77" stroke-miterlimit="10" stroke-width="2"/><path d="M557.54,1349.65q48.11-4.32,96.46-4.46" fill="none" stroke="#302d77" stroke-miterlimit="10" stroke-width="2"/><path d="M570.85,1326.55a10.42,10.42,0,0,1,4.54,4.58,21.09,21.09,0,0,1,1.54,17.1" fill="none" stroke="#302d77" stroke-miterlimit="10" stroke-width="2"/><path d="M575.89,1332.86A235.21,235.21,0,0,1,619,1319.47" fill="none" stroke="#302d77" stroke-miterlimit="10" stroke-width="2"/><path d="M580.11,1320.05a16.53,16.53,0,0,1,12.24,13.79" fill="none" stroke="#302d77" stroke-miterlimit="10" stroke-width="2"/><path d="M590.38,1318.78a20.22,20.22,0,0,1,12.27,13.38" fill="none" stroke="#302d77" stroke-miterlimit="10" stroke-width="2"/><path d="M599,1314.45a18.75,18.75,0,0,1,14.84,13.1" fill="none" stroke="#302d77" stroke-miterlimit="10" stroke-width="2"/><path d="M786.08,1305.28l.47,47.13a445.4,445.4,0,0,1-74.45,3.35" fill="none" stroke="#302d77" stroke-miterlimit="10" stroke-width="2"/><path d="M711.06,1356.09c-1-16.45,10.39-31.77,24.81-39.73s31.38-9.84,47.85-10.33" fill="none" stroke="#302d77" stroke-miterlimit="10" stroke-width="2"/><path d="M712.76,1345.27a480.29,480.29,0,0,1,72.4-6.85" fill="none" stroke="#302d77" stroke-miterlimit="10" stroke-width="2"/><path d="M726.14,1324.41c8.47,1.14,15.06,10,13.69,18.46" fill="none" stroke="#302d77" stroke-miterlimit="10" stroke-width="2"/><path d="M737.27,1331c5.21-7.74,13.51-12.75,21.54-17.5" fill="none" stroke="#302d77" stroke-miterlimit="10" stroke-width="2"/><path d="M738.19,1321.21a17.67,17.67,0,0,1,15.31,9.31" fill="none" stroke="#302d77" stroke-miterlimit="10" stroke-width="2"/><path d="M751.19,1314.78a9.4,9.4,0,0,1,9.64,6.93" fill="none" stroke="#302d77" stroke-miterlimit="10" stroke-width="2"/><path d="M671.12,701.14A91.88,91.88,0,0,1,638.67,729c-19.67-21.13-52.75-26.52-70.51-49.27-8.8-11.26-12.71-25.43-18.43-38.52S535.25,615,521.68,610.59c-8,13.8-7.72,31.28-2.53,46.39s14.74,28.28,24.62,40.84a650,650,0,0,0,71.52,77.12c7,6.39,14.63,12.89,24,14.25,23.68,3.45,41.27-26.8,65.19-26" fill="none" stroke="#302d77" stroke-miterlimit="10" stroke-width="2"/><path d="M512.89,625.94a145.91,145.91,0,0,1-76.11-71c-6.21-12.82-11.38-27.57-23.74-34.65l5.79,41.64c-5.41-.23-9.25,6-8.64,11.36s4.22,9.86,7.71,14A840.32,840.32,0,0,0,559,719.46" fill="none" stroke="#302d77" stroke-miterlimit="10" stroke-width="2"/><polygon points="201 317 201 126 0 0 0 245 201 317" fill="#302d77"/><polygon points="201 650 201 358 0 285 0 657 201 650" fill="#302d77"/><polygon points="201 676 201 981 0 1072 0 676 201 676" fill="#302d77"/></svg>