<svg xmlns="http://www.w3.org/2000/svg" xmlns:xlink="http://www.w3.org/1999/xlink" viewBox="0 0 1023 1382"><title>b2ill</title><image width="960" height="1280" transform="translate(323 449) scale(0.73)" xlink:href="b-image2.jpg"/><path d="M263.45,688C458.62,557,819.44,294.47,1023,177" fill="none" stroke="#302d77" stroke-miterlimit="10" stroke-width="2"/><path d="M261.59,685,.21,670.12" fill="none" stroke="#302d77" stroke-miterlimit="10" stroke-width="2"/><path d="M351,351a203.25,203.25,0,0,0,53-41c1-1,1-3,2-4,58-64,60-163,7-232-4-4-7-8-11-13-23-26-51-42-83-53a213.53,213.53,0,0,0-44-8c-14-1-27,0-41,2-27,4-50,14-73,28-2,2-4,4-7,5l-3,3c-1,1-3,1-4,2-21,18-39,38-51,63-7,16-13,32-16,50a186,186,0,0,0-3,47c1,9,3,18,5,28,12,57,50,103,101,127" fill="none" stroke="#302d77" stroke-miterlimit="10" stroke-width="2"/><path d="M203,363c42,15,87.83,13,129-4" fill="none" stroke="#302d77" stroke-miterlimit="10" stroke-width="2"/><path d="M301,223c0-8,1.49-16.78-5.76-20.86s-15.87-4.67-24.18-5.16c-12.06-.72-24.42-1.41-36,2.11S214.51,211.18,212,223l.34-.27c-4.67,17.79,2.62,38.11,17.53,48.88s36.49,11.31,51.92,1.28,23.71-29.95,19.92-48Z" fill="none" stroke="#302d77" stroke-miterlimit="10" stroke-width="2"/><path d="M280,223.17a36.37,36.37,0,0,1-58.37,28.74" fill="none" stroke="#302d77" stroke-miterlimit="10" stroke-width="2"/><path d="M277.45,230.36c-.5,10.2,12.12,18.45,21.25,13.89" fill="none" stroke="#302d77" stroke-miterlimit="10" stroke-width="2"/><path d="M251,280c.7,1.2,1.66,2.95,2.36,4.16a3.16,3.16,0,0,0,1.06,1.25,2.11,2.11,0,0,0,2.38-.45,5.68,5.68,0,0,0,1.31-2.21,7.32,7.32,0,0,1,1.22-2.27" fill="none" stroke="#302d77" stroke-miterlimit="10" stroke-width="2"/><path d="M222.83,220.55c15.34-10,34.55-11.24,52.82-12.22,5.66-.3,12.44-.06,15.45,4.74" fill="none" stroke="#302d77" stroke-miterlimit="10" stroke-width="2"/><path d="M202.09,269.48c.46,30.88.45,62.63.91,93.52" fill="none" stroke="#302d77" stroke-miterlimit="10" stroke-width="2"/><path d="M298,287.83a79.32,79.32,0,0,1-65.67,17.64" fill="none" stroke="#302d77" stroke-miterlimit="10" stroke-width="2"/><path d="M302.76,318.62a45.58,45.58,0,0,1-34,9.08" fill="none" stroke="#302d77" stroke-miterlimit="10" stroke-width="2"/><path d="M211.3,236.26c-5.64-1.38-11.4-2.78-17.17-2.2s-11.65,3.53-14.16,8.76c-1.55,3.23-1.67,6.93-1.73,10.51-.57,33.92-.57,68.17,4.76,101.67-11.88,4.82-24.07,9.31-36,14.12-3.92,1.59-16,9.88-18,13.88" fill="none" stroke="#302d77" stroke-miterlimit="10" stroke-width="2"/><path d="M204,363c-11.12,3.63-23.52,8-34.64,11.66-4.4,1.43-15.44,6.88-19.36,9.34" fill="none" stroke="#302d77" stroke-miterlimit="10" stroke-width="2"/><path d="M303.31,231.9c7.92-5,18.76-3.75,26.49,1.52s12.66,13.92,15.22,22.93,3,18.46,3.41,27.81q1.47,33.1,3,66.2l-.86,1.45,38.1,21.38" fill="none" stroke="#302d77" stroke-miterlimit="10" stroke-width="2"/><path d="M324.54,268.71a406.62,406.62,0,0,0,6.81,89.73l.4.69a290.34,290.34,0,0,1,48.61,26.56" fill="none" stroke="#302d77" stroke-miterlimit="10" stroke-width="2"/><path d="M387.92,372.66l15.95,10.22a19.07,19.07,0,0,1,4.9,4,14.36,14.36,0,0,1,2.66,7.64c.47,5.08-.73,10.72-4.74,13.87a5,5,0,0,1-4.15,1.25,4.34,4.34,0,0,1-2.86-3.16,12.73,12.73,0,0,1-.17-4.44c-1,2.07-4.26,1.76-5.82.09s-2-4.05-2.85-6.18c-2.13-5.46-6.92-9.47-12-12.29" fill="none" stroke="#302d77" stroke-miterlimit="10" stroke-width="2"/><path d="M130.58,381.07c-1.43,3.81-4.91,6.76-5.61,10.77a8.31,8.31,0,0,0,7.1,9.69,4.88,4.88,0,0,0,3-.41,2.69,2.69,0,0,0,1.47-2.47c.74-.6,1.69.43,2.61.67a2.26,2.26,0,0,0,2.3-1.06,8.48,8.48,0,0,0,1-2.51,20.67,20.67,0,0,1,8.49-11.51" fill="none" stroke="#302d77" stroke-miterlimit="10" stroke-width="2"/><path d="M928.49,565.14l16.21,10.37" fill="none" stroke="lime" stroke-miterlimit="10" stroke-width="2"/><path d="M945,575.27a118.63,118.63,0,0,1-8.58,29.55l-.71.42" fill="none" stroke="lime" stroke-miterlimit="10" stroke-width="2"/><path d="M935.91,605.5a136.87,136.87,0,0,0-13.76-12.16l-6.63-5.14" fill="none" stroke="lime" stroke-miterlimit="10" stroke-width="2"/><path d="M928.33,572.71a38.27,38.27,0,0,1-3,6.84,29.21,29.21,0,0,1-3.25,5.33,10.47,10.47,0,0,1-5,3.55,1.85,1.85,0,0,1-1.66-.13,1.94,1.94,0,0,1-.33-1.92,25.24,25.24,0,0,1,2.42-5.93q2.25-4.34,4.62-8.62a20.57,20.57,0,0,1,2.44-3.72c.68-.77,3.22-3.23,4.21-1.66.46.74.23,2.23.15,3A17.51,17.51,0,0,1,928.33,572.71Z" fill="none" stroke="lime" stroke-miterlimit="10" stroke-width="2"/><path d="M431.88,647.21a31.3,31.3,0,0,0,3.8,4.9,10.35,10.35,0,0,0,5.35,3c.57-3.87-1.69-7.54-3.85-10.8a29.38,29.38,0,0,0-4.77-6c-1.14-1-7.46-4.45-6.13-.46C427.39,641.17,429.94,644.33,431.88,647.21Z" fill="none" stroke="lime" stroke-miterlimit="10" stroke-width="2"/><path d="M425.88,636.41l-6.46,6.45c-1.36,1.36-2.78,2.82-3.24,4.68a10.85,10.85,0,0,0,.2,4.46l4.21,22.2c.18,1,.59,2.15,1.57,2.23a2.31,2.31,0,0,0,1.67-.93Q433,666.13,441.27,656" fill="none" stroke="lime" stroke-miterlimit="10" stroke-width="2"/><path d="M178.33,298.25a28.21,28.21,0,0,0,24,3.85" fill="none" stroke="#302d77" stroke-miterlimit="10" stroke-width="2"/><path d="M324.2,297.54a51.2,51.2,0,0,0,25.73-2.38" fill="none" stroke="#302d77" stroke-miterlimit="10" stroke-width="2"/></svg>