<svg xmlns="http://www.w3.org/2000/svg" xmlns:xlink="http://www.w3.org/1999/xlink" viewBox="0 0 1920 1080"><defs><clipPath id="a"><polygon points="820.29 712.34 820.29 827.36 820.29 942.37 865.22 963.74 865.22 827.36 865.22 690.97 820.29 712.34" fill="none"/></clipPath></defs><title>illustration-final</title><circle cx="1491.77" cy="458.57" r="238.38" fill="none" stroke="#2e2d75" stroke-miterlimit="10" stroke-width="2"/><line x1="634" y1="584" x2="1093.52" y2="584.69" fill="none" stroke="#2e2d75" stroke-miterlimit="10" stroke-width="2"/><path d="M1166.13,526.84c8.39,8.92,40.2,25.44,50.48,25.76s41.48-15.44,41.48-15.44V524.72c-7,5.08-41.47,8.09-41.47,8.09s-26.29-28.86-39.09-40.39-26.47,7.57-26.47,7.57-23.86,38.42-35.37,44.46-12,9.85-12,9.85,14.82,18.57,34.17,17.43,23.51,8,23.51,8l27.2-38.59" fill="none" stroke="#2e2d75" stroke-miterlimit="10" stroke-width="2"/><path d="M1189.32,504.35l25.31,4L1244,472l6.88,11.53s-23.55,41.39-26.76,43.35-10.18,3.31-10.18,3.31" fill="none" stroke="#2e2d75" stroke-miterlimit="10" stroke-width="2"/><path d="M1106.1,556.15c-3.64,5.29-5.58,14.77-5.58,14.77-7.92,39.66,61.16,57.3,61.16,57.3l-15.3,48.47,23.1,6.52,21.25-59.35a12.66,12.66,0,0,0-2.32-12.53l-28.28-32.89" fill="none" stroke="#2e2d75" stroke-miterlimit="10" stroke-width="2"/><path d="M1128.37,614.58l-21.67,32.68-48.51,35.82-15.79-13.3,43-39.84s10.45-63.72,20.34-72.78" fill="none" stroke="#2e2d75" stroke-miterlimit="10" stroke-width="2"/><path d="M1147.77,681.1s6.82,4.48,13.85,3.54l12.34,7.81s7.07.1,6.36,3.22-13.24,1-13.24,1-19.38-2.48-20.54-2.48S1141.85,688.4,1147.77,681.1Z" fill="none" stroke="#2e2d75" stroke-miterlimit="10" stroke-width="2"/><path d="M1149.55,677.58l-.9,3.52s7.18,3.82,12.39,3.45l1.21-3.38Z" fill="#302d77" stroke="#2e2d75" stroke-miterlimit="10" stroke-width="2"/><path d="M1039.82,677.92a12.61,12.61,0,0,0,9.37,8.13s4.35,5.2,5.69,6.12,5.78.09,5.6,3.52-18.11-.52-18.11-.52l-10.51-9S1030.78,677.82,1039.82,677.92Z" fill="none" stroke="#2e2d75" stroke-miterlimit="10" stroke-width="2"/><path d="M1040.38,678.34l5.77-5.34,8,7.24-5.71,5.31S1040.48,682.5,1040.38,678.34Z" fill="#302d77" stroke="#2e2d75" stroke-miterlimit="10" stroke-width="2"/><path d="M1185.26,498.91l6-6.71-4.38-3.46s8.35,9.27,12.58,3.7a68.82,68.82,0,0,0,7.34-13l-13.38-10.64s-12.21,11.12-11.17,15l-7.65,6.41Z" fill="#302d77" stroke="#2e2d75" stroke-miterlimit="10" stroke-width="2"/><path d="M1213.3,473.64a8.9,8.9,0,0,1-1.24,2c-1.87,2.36-6.68,6.72-15.18,3.77-9-3.13-19.35,4.27-23.24,7.45a10.78,10.78,0,0,0-2.37,2.71c-3.37,5.49-17.14,25.79-34.12,21.19-19.6-5.3-4.47-32.3,11-42s42-20.46,53.41-13.46C1212.51,462,1215.57,468.22,1213.3,473.64Z" fill="#fff" stroke="#2e2d75" stroke-miterlimit="10" stroke-width="2"/><polyline points="1258.1 528.73 1260.98 522.4 1260.99 514.09" fill="none" stroke="#2e2d75" stroke-miterlimit="10" stroke-width="2"/><polyline points="1258.61 533.68 1264.17 529.67 1265 524.02" fill="none" stroke="#2e2d75" stroke-miterlimit="10" stroke-width="2"/><polyline points="1258.62 531.16 1261.81 526.16 1263.8 520.26" fill="none" stroke="#2e2d75" stroke-miterlimit="10" stroke-width="2"/><polyline points="1258.09 535.42 1262.81 533.68 1264.99 531.17" fill="none" stroke="#2e2d75" stroke-miterlimit="10" stroke-width="2"/><polyline points="1245.84 474.59 1248.46 470.66 1252.07 464.97 1252.64 460.13" fill="none" stroke="#2e2d75" stroke-miterlimit="10" stroke-width="2"/><polyline points="1247.82 476.88 1251.64 471.83 1254.21 462.55" fill="none" stroke="#2e2d75" stroke-miterlimit="10" stroke-width="2"/><polyline points="1248.51 478.88 1253.46 474.13 1254.88 470.38" fill="none" stroke="#2e2d75" stroke-miterlimit="10" stroke-width="2"/><polyline points="1248.7 480.62 1254.23 475.75 1255.88 472.58" fill="none" stroke="#2e2d75" stroke-miterlimit="10" stroke-width="2"/><polyline points="2606.87 642.04 2220.43 642.04 2220.63 470.84 2019.59 470.61 2019.51 534.99 1846.48 534.78 1846.42 589.56 1711.65 589.4 1711.52 697.69 991 696.77" fill="none" stroke="#2e2d75" stroke-miterlimit="10" stroke-width="2"/><path d="M1839.73,497.49a8.74,8.74,0,0,1,9.66,1.94c7.39,7,17.61,19.95,21.86,24.62s-1.9,8.74-7.11,9.74-17.65,1-17.65,1-14.25,16.93-28.68,13.59l0-17.84,35.18-7.72" fill="none" stroke="#2e2d75" stroke-miterlimit="10" stroke-width="2"/><path d="M1856.78,506.41S1855.12,494,1841.9,494c-6.28,0-17.81,15.88-18.46,17.18s-6.1,6.74-4.8,11.64S1815.78,546,1805.75,554c-6.1,4.57-18.06-5.27-18.06-5.27s-5.24,7.42,4.32,27c5.65,11.59,18.84,13.17,28.68,12.53a24.52,24.52,0,0,0,21.71-16.55c2.28-6.77,4.06-16.54,4.08-30.54" fill="none" stroke="#2e2d75" stroke-miterlimit="10" stroke-width="2"/><polyline points="1817.82 532.48 1811.95 533.75 1807.27 540.42 1807.26 546.53" fill="none" stroke="#2e2d75" stroke-miterlimit="10" stroke-width="2"/><polyline points="1813.12 537.71 1810.57 542.17 1810.57 548.1" fill="none" stroke="#2e2d75" stroke-miterlimit="10" stroke-width="2"/><polyline points="1814.09 539.51 1813.11 544.8 1814.08 548.8" fill="none" stroke="#2e2d75" stroke-miterlimit="10" stroke-width="2"/><path d="M1786.26,550.71,1754,537.66a8.15,8.15,0,0,0-8.08,1.12l-38.2,29.74,0,17.67,40-26a3.25,3.25,0,0,1,3.39-.08c7.71,4.49,39.26,22.63,50.48,25.26C1801.66,585.33,1787.88,580.64,1786.26,550.71Z" fill="#302d77" stroke="#2e2d75" stroke-miterlimit="10" stroke-width="2"/><path d="M1701.42,573.21a8.61,8.61,0,0,0-.12,3.46,11.33,11.33,0,0,0,4.38,7.1s-.67,6.77-7.09,5.68l-3.71-6.86Z" fill="none" stroke="#2e2d75" stroke-miterlimit="10" stroke-width="2"/><path d="M1707,572.12l-5.68,4.55s1.56,5.18,4,6.25,6.36-3.52,6.36-3.52Z" fill="none" stroke="#2e2d75" stroke-miterlimit="10" stroke-width="2"/><path d="M1840.06,485.78h-5.52a5.3,5.3,0,0,1-5.29-5.31l0-15.6" fill="none" stroke="#2e2d75" stroke-miterlimit="10" stroke-width="2"/><path d="M1835.63,486.4l2.48,8.91s5.63-3.15,8.53-1.35l1.12-9" fill="none" stroke="#2e2d75" stroke-miterlimit="10" stroke-width="2"/><path d="M1841,464.87l-15.85,0s-1.67-17.11,18.8-17.09,18.87,30.13,13.67,42.41C1857.62,490.17,1841.47,492.72,1841,464.87Z" fill="#302d77" stroke="#2e2d75" stroke-miterlimit="10" stroke-width="2"/><path d="M1840,515.63a10.14,10.14,0,0,0,8.35,8.2" fill="none" stroke="#2e2d75" stroke-miterlimit="10" stroke-width="2"/><path d="M848,296s0,12,10,18" fill="none" stroke="#2d2f75" stroke-miterlimit="10" stroke-width="2"/><g opacity="0.12"><path d="M1312.87,844.93a134.17,134.17,0,0,1,21.85,49.58c.68,3.14,5.5,1.81,4.83-1.33a138.15,138.15,0,0,0-22.36-50.78c-1.84-2.6-6.18-.1-4.32,2.53Z" fill="#2e2d75"/></g><g opacity="0.12"><path d="M1404.41,798.46a70,70,0,0,0,13.15-5.22c2.85-1.49.33-5.8-2.53-4.32a63.25,63.25,0,0,1-11.94,4.72c-3.1.87-1.78,5.7,1.32,4.82Z" fill="#2e2d75"/></g><path d="M316.37,806.82c61.34,8.77,99.11-7.23,99.11-7.23l-9.89-9.14s-2.11-23.77-30.27-39.86-26.74-25.23-26.74-25.23-3.6-4-4.7,0-21.94,33.24-21.94,53.73S316.37,806.82,316.37,806.82Z" fill="none" stroke="#2e2d75" stroke-miterlimit="10" stroke-width="2"/><path d="M346.44,732s-3.29,45.27,12.43,66.84" fill="none" stroke="#2e2d75" stroke-miterlimit="10" stroke-width="2"/><path d="M390.68,794.1s-42.41,8-58.14,4.76" fill="none" stroke="#2e2d75" stroke-miterlimit="10" stroke-width="2"/><path d="M81.21,920.81s-7.81,1.14-5.89,9.44C75.32,930.25,83.17,929.27,81.21,920.81Z" fill="#302d77" stroke="#2e2d75" stroke-miterlimit="10" stroke-width="2"/><path d="M65.69,921.24s-1.87,7.68,6.54,9C72.23,930.25,74.27,922.6,65.69,921.24Z" fill="none" stroke="#2e2d75" stroke-miterlimit="10" stroke-width="2"/><path d="M30,677.5-4,633.61-20.3,582.78c4.06-6.77,11.84-8.46,18.09-9.49a10.36,10.36,0,0,0,8.1-5.91l9,58.17L43,669.65s6.21,8.43,0,17.24" fill="none" stroke="#2e2d75" stroke-miterlimit="10" stroke-width="2"/><path d="M16.27,659.72l-1.41,1.63a12.67,12.67,0,0,1-9,2.12c-9.07-.89-47.4-14.19-47.4-14.19-3.55,9.16-5.32,17.74,0,36.19a102.6,102.6,0,0,1,3.29,35.95c13-8,49-12.72,68.26-16.26s18.85-18.27,18.85-18.27.6-6.91-4.89-15.62" fill="none" stroke="#2e2d75" stroke-miterlimit="10" stroke-width="2"/><path d="M47.27,678.6l11.55-1.1-2.45-10.17a2.46,2.46,0,0,1,2-3L78,661.46" fill="none" stroke="#2e2d75" stroke-miterlimit="10" stroke-width="2"/><path d="M86.34,659.19s-14.16-4.51-20.83,30.28-28.12,45.91-28.12,45.91l-2.79,1.29A24.93,24.93,0,0,0,23,771h0a24.93,24.93,0,0,0,34.52,9.89l3.1-1.8s19-12.47,22.74-43.88,12.92-45.52,12.92-45.52,4.29-7.15,5.39-9.35C104.45,674.85,102.43,663.53,86.34,659.19Z" fill="#302d77" stroke="#2e2d75" stroke-miterlimit="10" stroke-width="2"/><line x1="65.51" y1="689.47" x2="48.91" y2="690.14" fill="none" stroke="#2e2d75" stroke-miterlimit="10" stroke-width="2"/><polyline points="4.3 569.83 2.02 552.66 -2.21 540.68 -12.35 545.53 -14.78 551.3" fill="none" stroke="#2e2d75" stroke-miterlimit="10" stroke-width="2"/><polyline points="990.64 932.58 990.64 1064.04 1059.48 1064.04" fill="none" stroke="#2e2d75" stroke-miterlimit="10" stroke-width="2"/><polyline points="990.64 712.34 791.43 712.34 791.43 942.37 990.64 942.37" fill="none" stroke="#2e2d75" stroke-miterlimit="10" stroke-width="2"/><line x1="990.64" y1="870.41" x2="990.64" y2="696.51" fill="none" stroke="#2e2d75" stroke-miterlimit="10" stroke-width="2"/><polygon points="820.29 712.34 820.29 827.36 820.29 942.37 865.22 963.74 865.22 827.36 865.22 690.97 820.29 712.34" fill="#fff" stroke="#2e2d75" stroke-miterlimit="10" stroke-width="2"/><g clip-path="url(#a)"><line x1="810.81" y1="923.27" x2="881.42" y2="942.36" fill="#302d77" stroke="#2e2d75" stroke-miterlimit="10" stroke-width="13"/><line x1="810.81" y1="899.29" x2="881.42" y2="913.61" fill="#302d77" stroke="#2e2d75" stroke-miterlimit="10" stroke-width="13"/><line x1="810.81" y1="875.31" x2="881.42" y2="884.86" fill="#302d77" stroke="#2e2d75" stroke-miterlimit="10" stroke-width="13"/><line x1="810.81" y1="851.33" x2="881.42" y2="856.11" fill="#302d77" stroke="#2e2d75" stroke-miterlimit="10" stroke-width="13"/><line x1="810.81" y1="827.35" x2="881.42" y2="827.35" fill="#302d77" stroke="#2e2d75" stroke-miterlimit="10" stroke-width="13"/><line x1="810.81" y1="803.37" x2="881.42" y2="798.6" fill="#302d77" stroke="#2e2d75" stroke-miterlimit="10" stroke-width="13"/><line x1="810.81" y1="779.4" x2="881.42" y2="769.85" fill="#302d77" stroke="#2e2d75" stroke-miterlimit="10" stroke-width="13"/><line x1="810.81" y1="755.42" x2="881.42" y2="741.1" fill="#302d77" stroke="#2e2d75" stroke-miterlimit="10" stroke-width="13"/><line x1="810.81" y1="731.44" x2="881.42" y2="712.34" fill="#302d77" stroke="#2e2d75" stroke-miterlimit="10" stroke-width="13"/></g><polyline points="929.31 712.34 929.31 845.97 990.64 845.97" fill="#fff" stroke="#2e2d75" stroke-miterlimit="10" stroke-width="2"/><rect x="853.87" y="777.99" width="141.09" height="9.79" transform="translate(141.52 1707.3) rotate(-90)" fill="#302d77" stroke="#2e2d75" stroke-miterlimit="10" stroke-width="2"/><path d="M764.74,937l-4.26-30.79a35.31,35.31,0,0,1,.15-12.72l3-26.87L762.25,829a32.18,32.18,0,0,0-2.53-12.51l-12.15-36.33V774.1H726.9v6.08l-12.14,36.33A32.18,32.18,0,0,0,712.23,829l-1.39,37.55,3,26.87a35.31,35.31,0,0,1,.15,12.72L709.74,937c-.31,2.26-.47,4.53,1.14,6.14l2.06,2.06a7.31,7.31,0,0,0,5.16,2.14h38.27a7.31,7.31,0,0,0,5.17-2.14l2.05-2.06C765.21,941.48,765,939.21,764.74,937Z" fill="#fff" stroke="#2e2d75" stroke-miterlimit="10" stroke-width="2"/><path d="M745.1,768.81H729.37c-2.14,0-3.87,2.05-3.87,4.57v.72H749v-.72C749,770.86,747.24,768.81,745.1,768.81Z" fill="none" stroke="#2e2d75" stroke-miterlimit="10" stroke-width="2"/><polyline points="725.5 773.7 726.97 775.7 728.43 773.7 729.9 775.7 731.36 773.7 732.83 775.7 734.3 773.7 735.76 775.7 737.22 773.7 738.69 775.7 740.16 773.7 741.62 775.7 743.09 773.7 744.56 775.7 746.03 773.7 747.5 775.7 748.98 773.7" fill="none" stroke="#2e2d75" stroke-miterlimit="10" stroke-width="2"/><polyline points="763.64 865.95 710.84 865.95 712.44 825.34 762.03 825.34" fill="#302d77" stroke="#2e2d75" stroke-miterlimit="10" stroke-width="2"/><line x1="758.94" y1="828.46" x2="732.2" y2="828.46" fill="none" stroke="#fff" stroke-miterlimit="10" stroke-width="2"/><polyline points="-549.59 1096.24 -402.2 948.86 109 948.86 109 1103.92" fill="none" stroke="#2e2d75" stroke-miterlimit="10" stroke-width="2"/><line x1="-74.72" y1="933.13" x2="418" y2="933.13" fill="none" stroke="#2e2d75" stroke-miterlimit="10" stroke-width="2"/><circle cx="204.43" cy="883.58" r="49.55" fill="none" stroke="#2e2d75" stroke-miterlimit="10" stroke-width="2"/><circle cx="367.03" cy="883.58" r="49.55" fill="none" stroke="#2e2d75" stroke-miterlimit="10" stroke-width="2"/><rect x="141.18" y="808.8" width="277.82" height="10.33" fill="#302d77" stroke="#2e2d75" stroke-miterlimit="10" stroke-width="2"/><polygon points="444.4 816.44 416.58 817.44 416.58 810.49 444.4 811.49 444.4 816.44" fill="none" stroke="#2e2d75" stroke-miterlimit="10" stroke-width="2"/><path d="M165.65,819.13v24.25a40.2,40.2,0,0,0,40.21,40.2H360.6a40.2,40.2,0,0,0,40.2-40.2V819.13" fill="none" stroke="#2e2d75" stroke-miterlimit="10" stroke-width="2"/><circle cx="204.43" cy="883.58" r="6.68" fill="none" stroke="#2e2d75" stroke-miterlimit="10" stroke-width="2"/><circle cx="204.43" cy="883.58" r="3.64" fill="#2e2d75"/><line x1="204.43" y1="871.8" x2="204.43" y2="838.95" fill="none" stroke="#2e2d75" stroke-miterlimit="10" stroke-width="2"/><line x1="200.4" y1="872.51" x2="189.16" y2="841.64" fill="none" stroke="#2e2d75" stroke-miterlimit="10" stroke-width="2"/><line x1="192.82" y1="881.54" x2="160.47" y2="875.83" fill="none" stroke="#2e2d75" stroke-miterlimit="10" stroke-width="2"/><line x1="192.82" y1="885.63" x2="160.47" y2="891.33" fill="none" stroke="#2e2d75" stroke-miterlimit="10" stroke-width="2"/><line x1="196.85" y1="892.61" x2="175.74" y2="917.77" fill="none" stroke="#2e2d75" stroke-miterlimit="10" stroke-width="2"/><line x1="200.4" y1="894.65" x2="189.16" y2="925.53" fill="none" stroke="#2e2d75" stroke-miterlimit="10" stroke-width="2"/><line x1="212" y1="892.61" x2="233.12" y2="917.77" fill="none" stroke="#2e2d75" stroke-miterlimit="10" stroke-width="2"/><line x1="216.03" y1="885.63" x2="248.38" y2="891.33" fill="none" stroke="#2e2d75" stroke-miterlimit="10" stroke-width="2"/><line x1="212" y1="874.56" x2="233.12" y2="849.39" fill="none" stroke="#2e2d75" stroke-miterlimit="10" stroke-width="2"/><circle cx="367.03" cy="883.58" r="6.68" fill="none" stroke="#2e2d75" stroke-miterlimit="10" stroke-width="2"/><circle cx="367.03" cy="883.58" r="3.64" fill="#2e2d75"/><line x1="363" y1="872.51" x2="351.76" y2="841.64" fill="none" stroke="#2e2d75" stroke-miterlimit="10" stroke-width="2"/><line x1="356.82" y1="877.69" x2="328.37" y2="861.26" fill="none" stroke="#2e2d75" stroke-miterlimit="10" stroke-width="2"/><line x1="356.82" y1="889.47" x2="328.37" y2="905.9" fill="none" stroke="#2e2d75" stroke-miterlimit="10" stroke-width="2"/><line x1="359.45" y1="892.61" x2="338.34" y2="917.77" fill="none" stroke="#2e2d75" stroke-miterlimit="10" stroke-width="2"/><line x1="367.03" y1="895.36" x2="367.03" y2="928.22" fill="none" stroke="#2e2d75" stroke-miterlimit="10" stroke-width="2"/><line x1="371.06" y1="894.65" x2="382.29" y2="925.53" fill="none" stroke="#2e2d75" stroke-miterlimit="10" stroke-width="2"/><line x1="377.23" y1="889.47" x2="405.68" y2="905.9" fill="none" stroke="#2e2d75" stroke-miterlimit="10" stroke-width="2"/><line x1="374.6" y1="874.56" x2="395.72" y2="849.39" fill="none" stroke="#2e2d75" stroke-miterlimit="10" stroke-width="2"/><line x1="371.06" y1="872.51" x2="382.29" y2="841.64" fill="none" stroke="#2e2d75" stroke-miterlimit="10" stroke-width="2"/><path d="M336.43,805.39c-94.67,13.54-153-11.16-153-11.16l15.27-14.1s3.25-36.68,46.7-61.51,41.27-38.94,41.27-38.94,5.57-6.21,7.26,0S327.83,731,327.83,762.6,336.43,805.39,336.43,805.39Z" fill="#fff" stroke="#2e2d75" stroke-miterlimit="10" stroke-width="2"/><path d="M290,690s5.08,69.85-19.18,103.14" fill="none" stroke="#2e2d75" stroke-miterlimit="10" stroke-width="2"/><path d="M221.74,785.77s65.46,12.41,89.73,7.33" fill="none" stroke="#2e2d75" stroke-miterlimit="10" stroke-width="2"/><rect x="47.08" y="107.17" width="157" height="302.3" fill="none" stroke="#2e2d75" stroke-miterlimit="10" stroke-width="2"/><rect x="61.21" y="121.26" width="128.74" height="86.17" fill="none" stroke="#2e2d75" stroke-miterlimit="10" stroke-width="2"/><rect x="61.21" y="221.45" width="56.58" height="86.17" fill="none" stroke="#2e2d75" stroke-miterlimit="10" stroke-width="2"/><rect x="133.37" y="221.45" width="56.58" height="86.17" fill="none" stroke="#2e2d75" stroke-miterlimit="10" stroke-width="2"/><polygon points="218.89 357.01 32.81 357.01 32.81 336.97 218.89 316.97 218.89 357.01" fill="#302d77" stroke="#2e2d75" stroke-miterlimit="10" stroke-width="2"/><line x1="347.57" y1="409.66" x2="-198.38" y2="409.66" fill="none" stroke="#2e2d75" stroke-miterlimit="10" stroke-width="2"/><line x1="500.6" y1="847" x2="500.6" y2="-21.65" fill="none" stroke="#2e2d75" stroke-miterlimit="10" stroke-width="2"/><circle cx="472.28" cy="575.46" r="28.01" fill="#302d77" stroke="#2e2d75" stroke-miterlimit="10" stroke-width="2"/><path d="M472.28,538.64a37.54,37.54,0,0,0-5.64.43,36.82,36.82,0,0,0,5.64,73.21v4.77H347.81V428.91H472.28Z" fill="none" stroke="#2e2d75" stroke-miterlimit="10" stroke-width="2"/><circle cx="472.28" cy="361.47" r="28.01" fill="#302d77" stroke="#2e2d75" stroke-miterlimit="10" stroke-width="2"/><line x1="465.42" y1="428.91" x2="465.42" y2="539.29" fill="none" stroke="#2e2d75" stroke-miterlimit="10" stroke-width="2"/><path d="M347.81,579.31h48.76a18.82,18.82,0,0,0,18.82-18.81V557a25.32,25.32,0,0,1,25.32-25.33h24.71" fill="none" stroke="#2e2d75" stroke-miterlimit="10" stroke-width="2"/><path d="M347.81,436.64H406.2a8.7,8.7,0,0,1,8.7,8.7h0a26.77,26.77,0,0,0,26.77,26.78h23.75" fill="none" stroke="#2e2d75" stroke-miterlimit="10" stroke-width="2"/><path d="M441.68,366.08,472,357c2.7-.81,5.42.31,6.07,2.48h0c.65,2.18-1,4.6-3.72,5.41l-30.78,9.18S441.5,368.76,441.68,366.08Z" fill="#fff"/><path d="M472.28,428.91V395.23s-32.95-1.52-32.95-33.76l-56.56,12.79a44.87,44.87,0,0,0-35,43.76v10.89" fill="none" stroke="#2e2d75" stroke-miterlimit="10" stroke-width="2"/><path d="M414.18,367.16s4.36-31.15,23.7-33.7,16.2-1,16.2-1a33.57,33.57,0,0,0-14.75,29" fill="none" stroke="#2e2d75" stroke-miterlimit="10" stroke-width="2"/><path d="M354.61,422.48h50.27V376.12l-20.16,4.44a37.83,37.83,0,0,0-11.51,4.51c-.43.26-.85.53-1.27.8a39.15,39.15,0,0,0-17.35,33Z" fill="#302d77" stroke="#2e2d75" stroke-miterlimit="10" stroke-width="2"/><rect x="372.46" y="182.83" width="127.83" height="10.17" fill="none" stroke="#2e2d75" stroke-miterlimit="10" stroke-width="2"/><rect x="297.18" y="173.94" width="75.28" height="27.96" rx="10.29" fill="none" stroke="#2e2d75" stroke-miterlimit="10" stroke-width="2"/><circle cx="312.99" cy="187.92" r="7.33" fill="#302d77" stroke="#2e2d75" stroke-miterlimit="10" stroke-width="2"/><circle cx="333.98" cy="187.92" r="7.33" fill="none" stroke="#2e2d75" stroke-miterlimit="10" stroke-width="2"/><circle cx="354.97" cy="187.92" r="7.33" fill="none" stroke="#2e2d75" stroke-miterlimit="10" stroke-width="2"/><rect x="1356.91" y="845.14" width="245.57" height="5.35" fill="#302d77" stroke="#2e2d75" stroke-miterlimit="10" stroke-width="2"/><rect x="1369.69" y="847.81" width="5.35" height="94.94" fill="none" stroke="#2e2d75" stroke-miterlimit="10" stroke-width="2"/><rect x="1584.35" y="847.81" width="5.35" height="94.94" fill="none" stroke="#2e2d75" stroke-miterlimit="10" stroke-width="2"/><rect x="1478.72" y="832.43" width="1.94" height="12.71" fill="#302d77" stroke="#2e2d75" stroke-miterlimit="10" stroke-width="2"/><circle cx="1512.95" cy="818.57" r="5.75" fill="#302d77" stroke="#2e2d75" stroke-miterlimit="10" stroke-width="2"/><path d="M1492.16,814.62s-44.89-8-96.58,0" fill="none" stroke="#2e2d75" stroke-miterlimit="10" stroke-width="2"/><path d="M653,849.85c0-22.28-27.81-40.35-54.92-40.35-23.78,0-43.76,13.87-48.12,32.37-1.1,4.67-5.35,5.38-8.58,5.38H500.6v5.2h40.77c3.24,0,7.09.76,8.59,5.4,0,0,0,0,0,0v0c4.54,18.41,24.36,32.27,48.1,32.27C625.19,890.19,653,872.13,653,849.85Z" fill="#302d77" stroke="#2e2d75" stroke-miterlimit="10" stroke-width="2"/><path d="M598.48,887c-25.58,0-46.31-16.65-46.31-37.18s20.73-37.18,46.31-37.18,51.16,16.64,51.16,37.18S624.06,887,598.48,887Z" fill="#fff" stroke="#2e2d75" stroke-miterlimit="10" stroke-width="2"/><line x1="627.85" y1="832.48" x2="589.09" y2="832.48" fill="none" stroke="#2e2d75" stroke-miterlimit="10" stroke-width="2"/><line x1="617.74" y1="837.98" x2="578.98" y2="837.98" fill="none" stroke="#2e2d75" stroke-miterlimit="10" stroke-width="2"/><line x1="601.69" y1="846.68" x2="601.69" y2="824.93" fill="none" stroke="#2e2d75" stroke-miterlimit="10" stroke-width="2"/><line x1="610.2" y1="844.76" x2="610.2" y2="823.01" fill="none" stroke="#2e2d75" stroke-miterlimit="10" stroke-width="2"/><line x1="586.14" y1="873.67" x2="586.14" y2="861.9" fill="none" stroke="#2e2d75" stroke-miterlimit="10" stroke-width="2"/><line x1="620.05" y1="865.48" x2="620.05" y2="853.71" fill="none" stroke="#2e2d75" stroke-miterlimit="10" stroke-width="2"/><line x1="630.79" y1="863.95" x2="592.03" y2="863.95" fill="none" stroke="#2e2d75" stroke-miterlimit="10" stroke-width="2"/><line x1="613.39" y1="869.71" x2="574.63" y2="869.71" fill="none" stroke="#2e2d75" stroke-miterlimit="10" stroke-width="2"/><line x1="603.16" y1="858.45" x2="564.4" y2="858.45" fill="none" stroke="#2e2d75" stroke-miterlimit="10" stroke-width="2"/><polygon points="1574.5 3 1574.5 45.79 1679.38 45.79 1868.59 235 1868.59 3 1574.5 3" fill="none" stroke="#2e2d75" stroke-miterlimit="10" stroke-width="2"/><path d="M1843.94,210.13s4.9-70.56-22.86-126.08" fill="none" stroke="#2e2d75" stroke-miterlimit="10" stroke-width="2"/><path d="M1805,51.91s-31,76.7,37.84,115.3C1842.85,167.21,1904.36,105.48,1805,51.91Z" fill="none" stroke="#2e2d75" stroke-miterlimit="10" stroke-width="2"/><path d="M1751.13,117.32a77.46,77.46,0,0,1,1.22-11c2-11.38,7.18-29.77,20.81-46.11" fill="none" stroke="#2e2d75" stroke-miterlimit="10" stroke-width="2"/><path d="M1752.06,108.13s-37.64-68.35,46.7-85.6C1798.76,22.53,1810.26,96.41,1752.06,108.13Z" fill="#302d77" stroke="#2e2d75" stroke-miterlimit="10" stroke-width="2"/><path d="M1752.71,108.71c0-.32,4.29-32.8,18.09-47l-1-1c-14.14,14.59-18.24,46.24-18.41,47.57l.36.6Z" fill="#fff"/><line x1="1734.39" y1="11.77" x2="1734.39" y2="67.04" fill="none" stroke="#2e2d75" stroke-miterlimit="10" stroke-width="2"/><path d="M1330.42,768.11s15.75,34.41,73.33,20.75v10.57s-43.92,17.21-75.83-5.87" fill="none" stroke="#2e2d75" stroke-miterlimit="10" stroke-width="2"/><path d="M1340.43,800.48l1.14,30-46.5-7.21s2.91-61,14.64-61.86,24.21,1.63,25.27,6.68a50.16,50.16,0,0,0,3.92,10.58" fill="none" stroke="#2e2d75" stroke-miterlimit="10" stroke-width="2"/><path d="M1306.8,763l-24.27,17.09A48.91,48.91,0,0,0,1267,798l-10.48,20.58,7.18,3.5,14.56-17.9a47.51,47.51,0,0,1,18.55-13.87l1.69-.7" fill="none" stroke="#2e2d75" stroke-miterlimit="10" stroke-width="2"/><path d="M1320.91,864.25l-8.13,21.8a19.23,19.23,0,0,1-1.28,2.81l-22.27,39.66-12.13-3.29L1292,878.55a18.47,18.47,0,0,0,.86-6.27c-.36-10.17-1.17-41.7,2.18-49l46.5,7.21s12.73,45.48,13,57.49-22.15,41.93-22.15,41.93l-10.38-1.38s13.09-37.81,12.12-43.54-24.46-35.4-24.46-35.4" fill="#302d77" stroke="#2e2d75" stroke-miterlimit="10" stroke-width="2"/><rect x="1410.2" y="787.59" width="3.42" height="11.94" transform="translate(1585.01 -816.8) rotate(66.8)" fill="#302d77" stroke="#2e2d75" stroke-miterlimit="10" stroke-width="2"/><path d="M1439.05,781.39c2.46,5.59-1.85,12.94-7.44,15.39a11.06,11.06,0,0,1-8.89-20.26C1428.31,774.07,1436.6,775.8,1439.05,781.39Z" fill="#fff" stroke="#2e2d75" stroke-miterlimit="10" stroke-width="2"/><circle cx="761.27" cy="238" r="159.97" fill="none" stroke="#2d2f75" stroke-miterlimit="10" stroke-width="2"/><line x1="575.41" y1="408.57" x2="1049.33" y2="408.57" fill="none" stroke="#2d2f75" stroke-miterlimit="10" stroke-width="2"/><polyline points="987.92 582.38 987.92 491.56 1049.05 430.42" fill="none" stroke="#2d2f75" stroke-miterlimit="10" stroke-width="2"/><line x1="635" y1="584" x2="634.85" y2="531.67" fill="none" stroke="#2d2f75" stroke-miterlimit="10" stroke-width="2"/><circle cx="939.15" cy="518.76" r="19.36" fill="none" stroke="#2d2f75" stroke-miterlimit="10" stroke-width="2"/><circle cx="883.83" cy="518.76" r="19.36" fill="none" stroke="#2d2f75" stroke-miterlimit="10" stroke-width="2"/><line x1="972.34" y1="426.55" x2="799.92" y2="426.55" fill="none" stroke="#2d2f75" stroke-miterlimit="10" stroke-width="2"/><line x1="579.56" y1="430.24" x2="623.35" y2="474.04" fill="#2d2f75" stroke="#2d2f75" stroke-miterlimit="10" stroke-width="2"/><rect x="898.58" y="336.19" width="11.06" height="55.32" fill="#fff" stroke="#2d2f75" stroke-miterlimit="10" stroke-width="2"/><polygon points="1041.13 408.49 1041.13 260.59 1007.38 246.76 951.14 322.36 905.03 322.36 905.03 408.11 1041.13 408.49" fill="#2d2f75" stroke="#2d2f75" stroke-miterlimit="10" stroke-width="2"/><circle cx="928.09" cy="345.41" r="7.38" fill="#fff" stroke="#2d2f75" stroke-miterlimit="10" stroke-width="2"/><circle cx="928.09" cy="365.7" r="7.38" fill="#fff" stroke="#2d2f75" stroke-miterlimit="10" stroke-width="2"/><rect x="609.98" y="365.7" width="23.97" height="29.51" fill="#fff" stroke="#2d2f75" stroke-miterlimit="10" stroke-width="2"/><polygon points="633.96 384.14 668.99 384.14 673.6 380.45 668.99 376.76 633.96 376.76 633.96 384.14" fill="#fff" stroke="#2d2f75" stroke-miterlimit="10" stroke-width="2"/><polygon points="583.07 408.57 583.07 351.87 617.36 351.87 639.34 408.57 583.07 408.57" fill="#2d2f75" stroke="#2d2f75" stroke-miterlimit="10" stroke-width="2"/><path d="M1022.11,252.79s11.09-84.41,62.72-87.17S1154,18,1154,18" fill="none" stroke="#2d2f75" stroke-miterlimit="10" stroke-width="2"/><path d="M1014.13,249.52s20-61.77,79.92-64.54S1275,18,1275,18" fill="none" stroke="#2d2f75" stroke-miterlimit="10" stroke-width="2"/><path d="M857.78,379S865,398,865,408l-64,.57L804,386l16-12Z" fill="#2d2f75" stroke="#2d2f75" stroke-linejoin="bevel" stroke-width="2"/><path d="M825,278l-5.54,2.56a8,8,0,0,1-10.66-4.13L801,258l17-7,6,2,2,8-1,3,9,21s-7,23-16,1l3-6" fill="#fff" stroke="#2d2f75" stroke-linejoin="bevel" stroke-width="2"/><path d="M817.5,285.5s1,10,9,9,7-9,7-9S849,288,851,288s37-21-18-42l6-12s51,15,43,47c-2.94,11.76-6.24,21-15.73,28.54-1.77,1.41-4.34,7.2-5.27,9.46-5.89,14.38-4.6,37.21-2,58,0,0-10,18-25,18s-27-5-30-9-7-55-7-55l-8,27H769.08S786,313,789,303,810,287,817.5,285.5Z" fill="#fff" stroke="#2d2f75" stroke-linejoin="bevel" stroke-width="2"/><line x1="825" y1="264" x2="834" y2="286" fill="#fff" stroke="#2d2f75" stroke-linejoin="bevel" stroke-width="2"/><path d="M808,258a61.35,61.35,0,0,1-7,2c-1,0-4,1-5-2s-3-7,2-11,3-7,11-6,15,4,18,7,5,10,6,10-3,10-3,12a10.34,10.34,0,0,0,1,4l-4-6c-2-3-5-14-6-13a5.88,5.88,0,0,0-2,5c0,3-1,6-2,3s-1-4-4-5Z" fill="#2d2f75" stroke="#2d2f75" stroke-linejoin="bevel" stroke-width="2"/><path d="M838,235h-9l-9,7,2,1,8.36-2.79L831,240s-1,3-2,3h-1s-1,0,1,1,5,0,5,0Z" fill="#fff" stroke="#2d2f75" stroke-linejoin="bevel" stroke-width="2"/><path d="M706.19,390.19a66,66,0,0,1,4.71,18.38H648.08s-.48-15.88,3.22-20.72S668,380,668,380l34.79,3.08Z" fill="#2d2f75" stroke="#2d2f75" stroke-linejoin="bevel" stroke-width="2"/><path d="M648.08,335.49,651,313l18-2,26,11a26.89,26.89,0,0,1,3,18c-2,10,10,41,10,41s5,8-6,11-39,3-44,0-8-5-8-5,.15-33-1.92-51.51" fill="#fff" stroke="#2d2f75" stroke-linejoin="bevel" stroke-width="2"/><path d="M667,327l5,27,16,30-10,7-24-34-11-37s-3-28,25-30,40,17,40,17l16,30,28.78,20-9,10L711,348l-13-13" fill="#fff" stroke="#2d2f75" stroke-linejoin="bevel" stroke-width="2"/><path d="M679.29,290.35S688,299,680,301s-12.8-10.65-12.8-10.65S669.57,289.7,679.29,290.35Z" fill="#fff" stroke="#2d2f75" stroke-linejoin="bevel" stroke-width="2"/><path d="M686.75,384.88S694,386,694,387s-4,2-4,2-2-1,1,2,10,8,4,8-6,1-9-1-6.52-8-6.52-8Z" fill="#fff" stroke="#2d2f75" stroke-linejoin="bevel" stroke-width="2"/><line x1="697.17" y1="326.99" x2="699" y2="337" fill="#fff" stroke="#2d2f75" stroke-linejoin="bevel" stroke-width="2"/><path d="M681,284v8s6,8-1,9-14-11-14-12V279l5-10,9-6,7-2,6,1,.56,2.29.44-1" fill="#fff" stroke="#2d2f75" stroke-linejoin="bevel" stroke-width="2"/><path d="M673,283l8.41,1.2a6.66,6.66,0,0,0,7.3-4.58L694,263" fill="#fff" stroke="#2d2f75" stroke-linejoin="bevel" stroke-width="2"/><line x1="667" y1="290" x2="669" y2="282" fill="#fff" stroke="#2d2f75" stroke-linejoin="bevel" stroke-width="2"/><path d="M687,262a39.18,39.18,0,0,1-9,8c-6,4-6,5-7,9s-6,11-6,11l-12.71,5.53S661,271,661,263s7.36-25.21,26-19c24,8,5,24,5,24S696,261,687,262Z" fill="#2d2f75" stroke="#2d2f75" stroke-linejoin="bevel" stroke-width="2"/><rect x="745.38" y="358" width="50.17" height="50.17" fill="#2d2f75" stroke="#2d2f75" stroke-miterlimit="10" stroke-width="2"/><path d="M789.28,366.78s-1.25,10-15,18.81-16.3,17.56-17.56,18.82" fill="none" stroke="#fff" stroke-miterlimit="10"/><path d="M783.64,364.9s-11.29,16.3-21.32,13.8-7.53-13.8-7.53-13.8" fill="none" stroke="#fff" stroke-miterlimit="10"/><path d="M751,380a38,38,0,0,0,8.78,6.27c5,2.51-8.78,15-8.78,15" fill="none" stroke="#fff" stroke-miterlimit="10"/><path d="M764.82,402.53s10-12.55,20.07-10" fill="none" stroke="#fff" stroke-miterlimit="10"/><path d="M1404.51,791s7.65-2.55,8.29,0,1.28,3.19,0,3.19,0,.64-1.27,0,0-2.55-1.28-1.28-1.91,1.92-1.91,2.56.73.53.68,1.22,3.14-.59,2.51.05-.64,2.55-2.56,2.55-2.55.64-3.19,0a3.16,3.16,0,0,0-1.91-.63l-.12-7.55Z" fill="#fff" stroke="#2e2d75" stroke-miterlimit="10" stroke-width="2"/><path d="M1262.63,821.57c.24,2.58.88,2.58.24,3.85s-.63,2.55-1.27,1.28a7.92,7.92,0,0,0-1.28-1.92,2,2,0,0,0-1.27.64c-.64.64-1.28-.64-1.28,1.92s0,2.55-.64,2.55-1.27-.64-1.91-1.28-1.28-3.83-1.28-3.83l2.91-6Z" fill="#fff" stroke="#2e2d75" stroke-miterlimit="10" stroke-width="2"/><rect x="1718.35" y="842.96" width="3.42" height="11.94" transform="translate(3628.05 651.75) rotate(147.83)" fill="#302d77" stroke="#2e2d75" stroke-miterlimit="10" stroke-width="2"/><path d="M1736.32,873.85c-5.14,3.29-13.07.18-16.36-5A11.06,11.06,0,1,1,1738.58,857C1741.88,862.1,1741.46,870.55,1736.32,873.85Z" fill="#fff" stroke="#2e2d75" stroke-miterlimit="10" stroke-width="2"/><path d="M1656.92,811.09c-26.26,8.33-74.83,2.31-74.83,2.31l2.26-10.65c33.2-.35,71.32-14.51,71.32-14.51s9.75-2.9,12.7,5.09" fill="none" stroke="#2e2d75" stroke-miterlimit="10" stroke-width="2"/><path d="M1641.69,792.79s12.36-11.68,21.09-8.42,17,5.44,15.08,22.7-5.47,26-2.23,31.71A24.39,24.39,0,0,1,1679,849s-23,14.45-45.58,5.53c0,0,6.27-20.82,3.36-39" fill="none" stroke="#2e2d75" stroke-miterlimit="10" stroke-width="2"/><path d="M1668.45,786.58s39.28,13.77,47.77,48.19l-6.67,6s-16.18-27.38-32.17-29.69" fill="none" stroke="#2e2d75" stroke-miterlimit="10" stroke-width="2"/><path d="M1651.36,867.6l25.57,39.14a14.91,14.91,0,0,0,5.47,5l37.66,20,10.87-6.66-35-29.86a14.74,14.74,0,0,1-3.75-4.87l-9.3-19.35a6.33,6.33,0,0,1-.63-3.06,52.44,52.44,0,0,0-3.21-19" fill="none" stroke="#2e2d75" stroke-miterlimit="10" stroke-width="2"/><path d="M1635.82,855.33l-19.26,24.26a17.18,17.18,0,0,0-3.72,10.68v39.78l14.74,1.68s4-35.57,5.86-36.45,22.23-21.09,22.23-21.09" fill="none" stroke="#2e2d75" stroke-miterlimit="10" stroke-width="2"/><line x1="1664.27" y1="784.63" x2="1666.08" y2="777.57" fill="#302d77" stroke="#2e2d75" stroke-miterlimit="10" stroke-width="2"/><line x1="1653.83" y1="785" x2="1653.64" y2="777.25" fill="#302d77" stroke="#2e2d75" stroke-miterlimit="10" stroke-width="2"/><path d="M1658.43,777.57l-5.76-.36a4.3,4.3,0,0,1-4-4.71l1.47-14.7" fill="none" stroke="#2d2f75" stroke-miterlimit="10" stroke-width="2"/><path d="M1648.22,754.61s.64,3.19,3.19,4.46a10.59,10.59,0,0,1,3.83,3.19c.64.64,1.91-.64,2.55,1.92s.64,5.74,1.28,6.38,1.91-3.19,2.55-3.19,1.27-4.47,1.27,0,1.92,6.38,2.56,8.29-1.92,1.28.63,1.91,7,.64,8.3,1.28,9.57,7.66,6.38,2.55-4.47-5.1-5.11-7.65-3.82-.64-1.27-4.47,6.38-1.28,3.83-5.74,4.46-.64-2.56-7-8.93-7.66-8.93-7.66-2.55-1.91-5.1-1.27-1.92,1.27-5.74,1.91S1646.94,750.14,1648.22,754.61Z" fill="#302d77" stroke="#2e2d75" stroke-miterlimit="10" stroke-width="2"/><path d="M1717.12,843.92s-3.19-.63-.64,1.28,6.38,1.28,3.83,2.55-1.91,1.92-3.19,1.28-1.91,0-3.19-1.28-2.55-1.27-2.55-2.55-1.41-4.42-1.41-4.42l6.51-5.15,5.11,7s2.55,3.83,2.55,4.46a6.45,6.45,0,0,1-.64,1.92l-3.19-3.83s-1.66-1.58-1.47-1.43S1717.12,843.92,1717.12,843.92Z" fill="#fff" stroke="#2e2d75" stroke-miterlimit="10" stroke-width="2"/><path d="M1584,804.3c-.88-.57-5.34-6.31-6-3.76s0,3.19,0,3.19a11.17,11.17,0,0,1-3.19-.64c-1.91-.64-4.46-4.46-4.46-.64s-1.28,6.38,1.27,7.66,10.73,1.88,10.73,1.88Z" fill="#fff" stroke="#2e2d75" stroke-miterlimit="10" stroke-width="2"/><path d="M1615,932l11.49,1.27s3.19,4.47,1.91,7.66-.64.64-.64.64l-1.74,1.21h-21.55a3,3,0,0,1,1.6-3.77C1608.66,937.71,1614.41,935.16,1615,932Z" fill="#302d77" stroke="#2e2d75" stroke-miterlimit="10" stroke-width="2"/><path d="M1722.86,932l8.3-5.11s3.83,0,5.1,5.11l-8.93,8.29s-6.38,1.91-8.93,1.91-1.28-3.19,0-3.82S1722.86,933.88,1722.86,932Z" fill="#302d77" stroke="#2e2d75" stroke-miterlimit="10" stroke-width="2"/><path d="M1322.21,930.05l9.57,1.28s3.19,5.74,5.74,7,3.19,1.91,2.55,3.19-12.76,0-12.76,0l-6.38-2.56S1317.74,935.16,1322.21,930.05Z" fill="#fff" stroke="#2e2d75" stroke-miterlimit="10" stroke-width="2"/><path d="M1277.6,927.33l9.38,2.3s2.56,6,5,7.59,3,3.52,2.19,4.72-12.69-1.37-12.69-1.37l-6.06-4.5S1272.61,931.93,1277.6,927.33Z" fill="#fff" stroke="#2e2d75" stroke-miterlimit="10" stroke-width="2"/><path d="M1312.64,761l3.19-3.19s8.93,0,12.12,1.91l.72,3.5S1315.83,760.35,1312.64,761Z" fill="#fff" stroke="#2e2d75" stroke-miterlimit="10" stroke-width="2"/><line x1="1325.75" y1="758.85" x2="1327.31" y2="754.61" fill="#fff" stroke="#2e2d75" stroke-miterlimit="10" stroke-width="2"/><line x1="1317.55" y1="757.84" x2="1318.38" y2="753.33" fill="#fff" stroke="#2e2d75" stroke-miterlimit="10" stroke-width="2"/><path d="M1322.85,754l3.76.94a4.45,4.45,0,0,0,5.26-2.8l3.74-10.26" fill="#fff" stroke="#2e2d75" stroke-miterlimit="10" stroke-width="2"/><path d="M1338.16,741.21c-1.92.64-1.28-.64-3.83.64s-3.19,1.27-3.83,2.55S1326,747,1326,747s1.27-.64.63-2.55.64-4.47-1.91-1.92-4.47,1.92-3.19,4.47,1.28,3.19.64,4.47,0,1.91-1.28,1.91,0,1.91-3.19,0-2.55-1.91-3.19-3.83-1.27-1.27-.64-5.1.64-6.38,1.28-8.3,1.91-2.55,5.74-3.19,3.19-.63,6.38-1.27,3.19-1.28,6.38.64,4.47,3.19,5.74,5.74A2.05,2.05,0,0,1,1338.16,741.21Z" fill="#302d77" stroke="#2e2d75" stroke-miterlimit="10" stroke-width="2"/><circle cx="2042.02" cy="737.18" r="170.02" fill="#2f2f77" stroke="#2e2d75" stroke-miterlimit="10" stroke-width="2"/><path d="M852,295s0,10,12,15" fill="#fff" stroke="#2d2f75" stroke-linejoin="bevel" stroke-width="2"/><line x1="797" y1="331" x2="797" y2="320" fill="#fff" stroke="#2d2f75" stroke-linejoin="bevel" stroke-width="2"/><path d="M829,387s-7-40-8-60" fill="#fff" stroke="#2d2f75" stroke-linejoin="bevel" stroke-width="2"/><path d="M948.66,298h0c0,42,39.1,76,87.33,76h274.53a82.44,82.44,0,0,0,31.31-6.08,15.47,15.47,0,0,1,9.79-.57c10.83,2.86,42.36,2.09,42.36,2.09-12.1,0-18.65-8.4-21.84-14.65a10.57,10.57,0,0,1,.88-11.1,57.67,57.67,0,0,0,11-33.64V298c0-42-39.1-76-87.33-76H1036C987.76,222,948.66,256,948.66,298Z" fill="#fff" stroke="#302d77" stroke-miterlimit="10" stroke-width="2"/><text transform="translate(996.51 310)" font-size="48" fill="#302d77" font-family="Raleway-Medium, Raleway" font-weight="500">I<tspan x="12.48" y="0" letter-spacing="0em">n</tspan><tspan x="40.56" y="0" letter-spacing="-0.01em">t</tspan><tspan x="57.12" y="0">o the </tspan><tspan x="183.74" y="0" letter-spacing="-0.01em">P</tspan><tspan x="213.17" y="0">ortals</tspan></text><path d="M788.51,620.5h0c0,81.46,56.85,147.5,127,147.5h224.67a94.23,94.23,0,0,0,45.52-11.8,17.29,17.29,0,0,1,14.24-1.11c15.75,5.55,61.59,4.06,61.59,4.06-17.59,0-27.11-16.3-31.76-28.42a26.42,26.42,0,0,1,1.28-21.55,138.64,138.64,0,0,0,16-65.29V620.5C1247,539,1190.15,473,1120,473H915.49C845.36,473,788.51,539,788.51,620.5Z" fill="#fff" stroke="#302d77" stroke-miterlimit="10" stroke-width="2"/><text transform="translate(850.51 540.48)" font-size="24" fill="#302d77" font-family="Raleway-Medium, Raleway" font-weight="500"><tspan letter-spacing="-0.01em">J</tspan><tspan x="11.47" y="0">ust in case</tspan><tspan x="130.37" y="0" letter-spacing="-0.03em"> </tspan><tspan x="135.79" y="0" letter-spacing="-0.02em">y</tspan><tspan x="148.41" y="0">ou </tspan><tspan x="183.29" y="0" letter-spacing="-0.01em">f</tspan><tspan x="191.23" y="0">ee</tspan><tspan x="219.6" y="0" letter-spacing="-0.03em">l</tspan><tspan x="225.74" y="0" xml:space="preserve"> li</tspan><tspan x="244.2" y="0" letter-spacing="-0.03em">k</tspan><tspan x="256.48" y="0">e</tspan><tspan x="270.67" y="0" letter-spacing="-0.03em"> </tspan><tspan x="276.09" y="0" letter-spacing="-0.02em">y</tspan><tspan x="288.72" y="0">ou </tspan><tspan x="0" y="28.8">h</tspan><tspan x="14.16" y="28.8" letter-spacing="-0.02em">a</tspan><tspan x="27.05" y="28.8" letter-spacing="-0.02em">v</tspan><tspan x="39.55" y="28.8">e some </tspan><tspan x="128.33" y="28.8" letter-spacing="0em">c</tspan><tspan x="141.5" y="28.8">oo</tspan><tspan x="170.25" y="28.8" letter-spacing="-0.03em">l</tspan><tspan x="176.4" y="28.8" xml:space="preserve"> ping pong </tspan><tspan x="0" y="57.6">skills </tspan><tspan x="61.68" y="57.6" letter-spacing="-0.01em">t</tspan><tspan x="69.96" y="57.6">o sh</tspan><tspan x="116.28" y="57.6" letter-spacing="-0.02em">o</tspan><tspan x="130.22" y="57.6" letter-spacing="-0.03em">w</tspan><tspan x="149.25" y="57.6"> </tspan><tspan x="155.33" y="57.6" letter-spacing="-0.01em">o</tspan><tspan x="169.49" y="57.6" letter-spacing="-0.04em">ff</tspan><tspan x="183.02" y="57.6">, do sign up </tspan><tspan x="317.59" y="57.6" letter-spacing="-0.01em">f</tspan><tspan x="325.53" y="57.6">o</tspan><tspan x="339.91" y="57.6" letter-spacing="-0.02em">r</tspan><tspan x="348.07" y="57.6"> </tspan><tspan x="0" y="86.4">The </tspan><tspan x="49.15" y="86.4" letter-spacing="0em">D</tspan><tspan x="66.22" y="86.4" letter-spacing="0em">ai</tspan><tspan x="85.03" y="86.4" letter-spacing="-0.02em">l</tspan><tspan x="91.44" y="86.4" letter-spacing="-0.03em">y</tspan><tspan x="103.87" y="86.4" letter-spacing="-0.03em"> </tspan><tspan x="109.22" y="86.4">T</tspan><tspan x="123.96" y="86.4" letter-spacing="-0.03em">D</tspan><tspan x="140.52" y="86.4" letter-spacing="-0.03em">V</tspan><tspan x="156.02" y="86.4" xml:space="preserve"> Ping </tspan><tspan x="217.77" y="86.4" letter-spacing="-0.01em">P</tspan><tspan x="232.49" y="86.4">ong </tspan><tspan x="0" y="115.2" letter-spacing="-0.01em">t</tspan><tspan x="8.28" y="115.2">ourname</tspan><tspan x="109.61" y="115.2" letter-spacing="0em">n</tspan><tspan x="123.65" y="115.2">ts - 5 poi</tspan><tspan x="220.17" y="115.2" letter-spacing="0em">n</tspan><tspan x="234.21" y="115.2">ts games </tspan><tspan x="0" y="144">and the one</tspan><tspan x="134.21" y="144" letter-spacing="-0.03em"> </tspan><tspan x="139.61" y="144">who loses is </tspan><tspan x="0" y="172.8" letter-spacing="-0.01em">r</tspan><tspan x="8.42" y="172.8">epla</tspan><tspan x="57.72" y="172.8" letter-spacing="0em">c</tspan><tspan x="70.89" y="172.8">ed </tspan><tspan x="106.25" y="172.8" letter-spacing="-0.02em">b</tspan><tspan x="120.77" y="172.8" letter-spacing="-0.03em">y</tspan><tspan x="133.2" y="172.8" xml:space="preserve"> the n</tspan><tspan x="196.29" y="172.8" letter-spacing="-0.02em">e</tspan><tspan x="210" y="172.8">xt pl</tspan><tspan x="258.64" y="172.8" letter-spacing="-0.02em">a</tspan><tspan x="271.53" y="172.8" letter-spacing="-0.02em">y</tspan><tspan x="284.15" y="172.8">e</tspan><tspan x="298.34" y="172.8" letter-spacing="-0.11em">r</tspan><tspan x="304.51" y="172.8">.</tspan></text><polygon points="1036 516 1100 397 1177 367 1303 357 1404.64 207.72 1474.72 188.19 1688 249 1747 427 1814 491 1809 608 1662 672 1366 692 1018 698 1036 516" fill="lime" opacity="0"/><polygon points="1162 857 1220 797 1265 724 1375 714 1545 724 1716 724 1786 825 1786 947 1666 974 1357 964 1207 937 1162 857" fill="red" opacity="0"/></svg>