<svg xmlns="http://www.w3.org/2000/svg" xmlns:xlink="http://www.w3.org/1999/xlink" viewBox="0 0 1920 1080"><defs><clipPath id="a"><circle cx="203.83" cy="150.96" r="102.37" fill="none"/></clipPath><clipPath id="b"><rect x="1303.92" y="531.61" width="104.36" height="53.96" fill="none"/></clipPath></defs><title>illustration-final</title><g clip-path="url(#a)"><path d="M238.84,106.48a5.73,5.73,0,0,1-1.44,3.8,8.09,8.09,0,0,1,1.49,2.07,8.73,8.73,0,0,1,1.54-.13,9.25,9.25,0,0,1,.59,18.49,7.36,7.36,0,1,1-12.5-7.31,8.07,8.07,0,0,1-.63-14.53,5.79,5.79,0,0,1-.52-2.39,5.74,5.74,0,0,1,11.47,0Z" fill="none" stroke="#2e2d75" stroke-miterlimit="10" stroke-width="2"/><rect x="6.35" y="163.1" width="98.09" height="92.78" transform="translate(-154.1 264.88) rotate(-90)" fill="none" stroke="#2e2d75" stroke-miterlimit="10" stroke-width="2"/><rect x="133.84" y="182.18" width="28.66" height="92.78" transform="translate(-80.4 376.74) rotate(-90)" fill="none" stroke="#2e2d75" stroke-miterlimit="10" stroke-width="2"/><polygon points="162.17 207.96 162.17 249.17 153.5 247.65 153.5 209.49 162.17 207.96" fill="#302d77" stroke="#2e2d75" stroke-miterlimit="10" stroke-width="2"/><path d="M67.09,209.49l-8.3,8.66A19.82,19.82,0,0,1,44.5,224.4H9V194.58H44.5a19.82,19.82,0,0,1,14.29,6.25Z" fill="none" stroke="#2e2d75" stroke-miterlimit="10" stroke-width="2"/><path d="M114.11,253.33l-1.76,3a3.75,3.75,0,0,1-3,2.19h-7.54V248.12h7.54a3.75,3.75,0,0,1,3,2.19Z" fill="#302d77" stroke="#2e2d75" stroke-miterlimit="10" stroke-width="2"/><path d="M114.11,238.72l-1.76,3a3.73,3.73,0,0,1-3,2.18h-7.54V233.51h7.54a3.73,3.73,0,0,1,3,2.18Z" fill="#fff" stroke="#2e2d75" stroke-miterlimit="10" stroke-width="2"/><path d="M114.11,224.1l-1.76,3a3.73,3.73,0,0,1-3,2.18h-7.54V218.9h7.54a3.73,3.73,0,0,1,3,2.18Z" fill="#302d77" stroke="#2e2d75" stroke-miterlimit="10" stroke-width="2"/><path d="M114.11,209.49l-1.76,3a3.75,3.75,0,0,1-3,2.19h-7.54V204.28h7.54a3.75,3.75,0,0,1,3,2.19Z" fill="#fff" stroke="#2e2d75" stroke-miterlimit="10" stroke-width="2"/><path d="M114.11,194.88l-1.76,3a3.73,3.73,0,0,1-3,2.18h-7.54V189.67h7.54a3.73,3.73,0,0,1,3,2.19Z" fill="#302d77" stroke="#2e2d75" stroke-miterlimit="10" stroke-width="2"/><path d="M114.11,180.26l-1.76,3a3.73,3.73,0,0,1-3,2.18h-7.54V175.06h7.54a3.73,3.73,0,0,1,3,2.18Z" fill="none" stroke="#2e2d75" stroke-miterlimit="10" stroke-width="2"/><path d="M114.11,165.65l-1.76,3a3.75,3.75,0,0,1-3,2.19h-7.54V160.45h7.54a3.73,3.73,0,0,1,3,2.18Z" fill="#302d77" stroke="#2e2d75" stroke-miterlimit="10" stroke-width="2"/><path d="M214.14,223.14c1.78,4.52,7.63,5.43,7.63,5.43s-5.85.91-7.63,5.43-4.06,10.37-11.37,10.37-8.22-4.36-8.22-4.36V217.13s.91-4.36,8.22-4.36S212.35,218.62,214.14,223.14Z" fill="#302d77" stroke="#2e2d75" stroke-miterlimit="10" stroke-width="2"/><line x1="165.21" y1="233.1" x2="187.4" y2="233.1" fill="#fff" stroke="#2e2d75" stroke-miterlimit="10" stroke-width="2"/><line x1="132.21" y1="233.1" x2="148.17" y2="233.1" fill="#fff" stroke="#2e2d75" stroke-miterlimit="10" stroke-width="2"/><polyline points="101.78 118.15 72.26 118.15 72.26 62.59 229.93 62.59 229.93 118.15 117.8 118.15" fill="#fff" stroke="#2e2d75" stroke-miterlimit="10" stroke-width="2"/><rect x="189.76" y="77.96" width="49.04" height="24.81" transform="translate(123.91 304.65) rotate(-90)" fill="#fff" stroke="#2e2d75" stroke-miterlimit="10" stroke-width="2"/><rect x="161.67" y="77.96" width="49.04" height="24.81" transform="translate(95.82 276.56) rotate(-90)" fill="#fff" stroke="#2e2d75" stroke-miterlimit="10" stroke-width="2"/><rect x="133.58" y="77.96" width="49.04" height="24.81" transform="translate(67.73 248.47) rotate(-90)" fill="#fff" stroke="#2e2d75" stroke-miterlimit="10" stroke-width="2"/><line x1="226.69" y1="101.39" x2="201.88" y2="101.39" fill="#fff" stroke="#2e2d75" stroke-miterlimit="10" stroke-width="2"/><line x1="226.69" y1="79.21" x2="201.88" y2="79.21" fill="#fff" stroke="#2e2d75" stroke-miterlimit="10" stroke-width="2"/><line x1="198.6" y1="101.39" x2="173.78" y2="101.39" fill="#fff" stroke="#2e2d75" stroke-miterlimit="10" stroke-width="2"/><line x1="198.6" y1="79.21" x2="173.78" y2="79.21" fill="#fff" stroke="#2e2d75" stroke-miterlimit="10" stroke-width="2"/><line x1="170.5" y1="101.39" x2="145.69" y2="101.39" fill="#fff" stroke="#2e2d75" stroke-miterlimit="10" stroke-width="2"/><line x1="170.5" y1="79.21" x2="145.69" y2="79.21" fill="#fff" stroke="#2e2d75" stroke-miterlimit="10" stroke-width="2"/><path d="M294.1,183.72a7.19,7.19,0,0,1-1.83,4.8,10,10,0,0,1,1.89,2.61,12.62,12.62,0,0,1,1.95-.16,11.69,11.69,0,0,1,.75,23.36,9.31,9.31,0,0,1-18.05-3.18,9.21,9.21,0,0,1,2.25-6.05,10.2,10.2,0,0,1-.79-18.37,7.24,7.24,0,1,1,13.83-3Z" fill="#302d77" stroke="#2e2d75" stroke-miterlimit="10" stroke-width="2"/><path d="M277.08,73.51a5.73,5.73,0,0,1-1.46,3.83,8,8,0,0,1,1.51,2.09,10.05,10.05,0,0,1,1.56-.13A9.34,9.34,0,0,1,279.28,98a7.43,7.43,0,1,1-12.62-7.38A8.15,8.15,0,0,1,266,75.91a5.79,5.79,0,1,1,11.06-2.4Z" fill="#302d77" stroke="#2e2d75" stroke-miterlimit="10" stroke-width="2"/><polyline points="120.68 196.3 214.28 184.19 214.28 163.44 153.5 157.1 153.5 183.91 144.03 185.47 144.03 140.96 153.5 144.42 153.5 155.08" fill="none" stroke="#2e2d75" stroke-miterlimit="10" stroke-width="2"/><polyline points="158.1 148.77 177.68 148.77 177.68 120.3" fill="none" stroke="#2e2d75" stroke-miterlimit="10" stroke-width="2"/><line x1="110.89" y1="127.54" x2="167.48" y2="127.54" fill="none" stroke="#2e2d75" stroke-miterlimit="10" stroke-width="2"/><line x1="214.28" y1="168.63" x2="249.93" y2="168.63" fill="none" stroke="#2e2d75" stroke-miterlimit="10" stroke-width="2"/><polyline points="189.24 139.18 223.85 134.53 223.85 129.7 180.92 124.17" fill="none" stroke="#2e2d75" stroke-miterlimit="10" stroke-width="2"/><line x1="207.55" y1="139.18" x2="207.55" y2="124.96" fill="none" stroke="#2e2d75" stroke-miterlimit="10" stroke-width="2"/></g><circle cx="203.83" cy="150.96" r="102.37" fill="none" stroke="#2e2d75" stroke-miterlimit="10" stroke-width="2"/><path d="M153.22,160.27c-2-2.11-5.42-7.26.08-13.67a2.75,2.75,0,0,0,.55-2.62l-3.17-9.85a4.06,4.06,0,0,0-1.23-1.86c-4.61-4-26.95-22.93-26.78-33H104s-1.42,13.29,27.87,31.87c1.28.82,2.63,1.64,4,2.48,0,0-56.09.78-85.91-9.27,0,0-12.51,30.17-6.14,46.26,0,0,69.49-5.75,92.05-2.77,0,0-31.9,16.26-31.15,30h15s17.23-19.64,29.56-25.53a4.11,4.11,0,0,0,2.16-2.41l2.3-7A2.67,2.67,0,0,0,153.22,160.27Z" fill="#fff" stroke="#2e2d75" stroke-miterlimit="10" stroke-width="2"/><path d="M42.05,161.48,9.67,158.63V153s24-2.44,33.19-3.13" fill="none" stroke="#2e2d75" stroke-miterlimit="10" stroke-width="2"/><path d="M44.08,143.44,9.21,140.35V134.6s30.95-.77,37.49-.89" fill="none" stroke="#2e2d75" stroke-miterlimit="10" stroke-width="2"/><path d="M3.29,151.24s6.31-1.32,6.31,4.42V156c0,5.74-6.31,4.42-6.31,4.42" fill="#302d77" stroke="#2e2d75" stroke-miterlimit="10" stroke-width="2"/><path d="M3.29,132.92s6.31-1.31,6.31,4.42v.31c0,5.74-6.31,4.42-6.31,4.42" fill="#302d77" stroke="#2e2d75" stroke-miterlimit="10" stroke-width="2"/><polyline points="119.72 99.3 120.39 94.58 122.43 90.23 123.44 88.99" fill="none" stroke="#2e2d75" stroke-miterlimit="10" stroke-width="2"/><polyline points="119.15 95.54 119.72 92.27 120.73 88.99" fill="none" stroke="#2e2d75" stroke-miterlimit="10" stroke-width="2"/><polyline points="117.96 96.28 118.19 93.06 118.53 91.59" fill="none" stroke="#2e2d75" stroke-miterlimit="10" stroke-width="2"/><line x1="116.27" y1="98.59" x2="117" y2="94.14" fill="none" stroke="#2e2d75" stroke-miterlimit="10" stroke-width="2"/><polyline points="115.7 98.29 114.41 97.01 113.73 97.01" fill="none" stroke="#2e2d75" stroke-miterlimit="10" stroke-width="2"/><polyline points="116.66 197.29 117.34 202.01 119.37 206.36 120.39 207.6" fill="none" stroke="#2e2d75" stroke-miterlimit="10" stroke-width="2"/><polyline points="116.09 201.05 116.66 204.31 117.68 207.6" fill="none" stroke="#2e2d75" stroke-miterlimit="10" stroke-width="2"/><polyline points="114.91 200.31 115.13 203.53 115.47 205" fill="none" stroke="#2e2d75" stroke-miterlimit="10" stroke-width="2"/><line x1="113.21" y1="198" x2="113.95" y2="202.44" fill="none" stroke="#2e2d75" stroke-miterlimit="10" stroke-width="2"/><polyline points="112.65 198.3 111.35 199.58 110.67 199.58" fill="none" stroke="#2e2d75" stroke-miterlimit="10" stroke-width="2"/><path d="M155.35,159.73a21.23,21.23,0,0,1,6.06.27c4.22.87,11.8,1.43,12.32-5.48.73-9.61-14.71-11.64-30.69-9.61,0,0-5.28,1-4.87,5.42C138.54,154.42,143.92,160.7,155.35,159.73Z" fill="#302d77" stroke="#2e2d75" stroke-miterlimit="10" stroke-width="2"/><path d="M-16.63,998.72s94-148.6,99.85-364.82" fill="none" stroke="#2e2d75" stroke-miterlimit="10" stroke-width="2"/><path d="M122.8,640.29s-7.15,25.87-34.32,15.91C88.48,656.2,95.06,630.12,122.8,640.29Z" fill="none" stroke="#2e2d75" stroke-miterlimit="10" stroke-width="2"/><path d="M119.76,698.54s-10.94,24.51-36.31,10.6C83.45,709.14,93.86,684.34,119.76,698.54Z" fill="none" stroke="#2e2d75" stroke-miterlimit="10" stroke-width="2"/><path d="M110.1,763S96,785.79,72.71,768.62C72.71,768.62,86.33,745.43,110.1,763Z" fill="#302d77" stroke="#2e2d75" stroke-miterlimit="10" stroke-width="2"/><path d="M69.26,738S44,747,36.61,719C36.61,719,61.77,709.47,69.26,738Z" fill="none" stroke="#2e2d75" stroke-miterlimit="10" stroke-width="2"/><path d="M76.17,677.47s-25.31,8.91-32.66-19.08C43.51,658.39,68.67,648.9,76.17,677.47Z" fill="#302d77" stroke="#2e2d75" stroke-miterlimit="10" stroke-width="2"/><path d="M1949.57,1093.64A811.49,811.49,0,0,1,1908.05,860" fill="none" stroke="#2e2d75" stroke-miterlimit="10" stroke-width="2"/><path d="M1868.47,866.43s7.15,25.87,34.32,15.91C1902.79,882.34,1896.21,856.26,1868.47,866.43Z" fill="none" stroke="#2e2d75" stroke-miterlimit="10" stroke-width="2"/><path d="M1871.51,924.68s10.94,24.51,36.31,10.59C1907.82,935.27,1897.41,910.48,1871.51,924.68Z" fill="none" stroke="#2e2d75" stroke-miterlimit="10" stroke-width="2"/><path d="M1881.17,989.1s14.1,22.83,37.4,5.66C1918.57,994.76,1904.94,971.57,1881.17,989.1Z" fill="#302d77" stroke="#2e2d75" stroke-miterlimit="10" stroke-width="2"/><path d="M1915.1,903.61s25.31,8.91,32.66-19.08C1947.76,884.53,1922.6,875,1915.1,903.61Z" fill="#302d77" stroke="#2e2d75" stroke-miterlimit="10" stroke-width="2"/><rect x="137.66" y="634.66" width="189.49" height="313.34" rx="27.43" fill="none" stroke="#2e2d75" stroke-miterlimit="10" stroke-width="2"/><path d="M375.07,884.63H327.15v10.26h44.43v29.29H382V891.55A6.92,6.92,0,0,0,375.07,884.63Z" fill="#302d77" stroke="#2e2d75" stroke-miterlimit="10" stroke-width="2"/><path d="M253.54,733.17A32.4,32.4,0,1,1,262.26,696" fill="none" stroke="#2e2d75" stroke-miterlimit="10" stroke-width="2"/><path d="M192,723a3,3,0,0,1,5.41,0,3,3,0,0,1-4.73,3.42" fill="none" stroke="#2e2d75" stroke-miterlimit="10" stroke-width="2"/><line x1="153.31" y1="884.63" x2="281.65" y2="884.63" fill="none" stroke="#2e2d75" stroke-miterlimit="10" stroke-width="2"/><line x1="198.08" y1="894.89" x2="326.43" y2="894.89" fill="none" stroke="#2e2d75" stroke-miterlimit="10" stroke-width="2"/><line x1="1325.84" y1="947.07" x2="1559" y2="947.07" fill="none" stroke="#2e2d75" stroke-miterlimit="10" stroke-width="2"/><path d="M1507.72,832.59h17.56a86.19,86.19,0,0,1-172.36,1.8c0-.6,0-1.2,0-1.8s0-1.2,0-1.8a69.86,69.86,0,0,1,137.39-16" fill="none" stroke="#2e2d75" stroke-miterlimit="10" stroke-width="2"/><path d="M1490.31,814.81a69.88,69.88,0,0,1,2.29,17.78" fill="none" stroke="#2e2d75" stroke-miterlimit="10" stroke-width="2"/><polygon points="1475.61 847.66 1395.78 847.66 1382.19 947.07 1489.2 947.07 1475.61 847.66" fill="#302d77" stroke="#2e2d75" stroke-miterlimit="10" stroke-width="2"/><circle cx="1435.7" cy="885.4" r="17.97" fill="#fff" stroke="#2e2d75" stroke-miterlimit="10" stroke-width="2"/><polyline points="1048.03 720.5 1030.7 720.5 1030.7 658.59 1013.37 658.59 1013.37 596.68 996.03 596.68 996.03 534.77 978.7 534.77 978.7 472.86 663.31 472.86 663.31 534.77 645.98 534.77 645.98 596.68 628.65 596.68 628.65 658.59 611.32 658.59 611.32 720.5 593.98 720.5" fill="none" stroke="#2e2d75" stroke-miterlimit="10" stroke-width="2"/><line x1="663.31" y1="534.77" x2="802.29" y2="534.77" fill="none" stroke="#2e2d75" stroke-miterlimit="10" stroke-width="2"/><line x1="942.25" y1="534.77" x2="978.95" y2="534.77" fill="none" stroke="#2e2d75" stroke-miterlimit="10" stroke-width="2"/><line x1="994.37" y1="658.59" x2="1012.72" y2="658.59" fill="none" stroke="#2e2d75" stroke-miterlimit="10" stroke-width="2"/><line x1="627.67" y1="658.59" x2="821.01" y2="658.59" fill="none" stroke="#2e2d75" stroke-miterlimit="10" stroke-width="2"/><line x1="759.49" y1="596.68" x2="1012.13" y2="596.68" fill="none" stroke="#2e2d75" stroke-miterlimit="10" stroke-width="2"/><line x1="565.99" y1="720.5" x2="1030.7" y2="720.5" fill="none" stroke="#2e2d75" stroke-miterlimit="10" stroke-width="2"/><polyline points="663.31 472.86 607.58 472.86 607.58 413.54 551.84 413.54 551.84 354.22 496.11 354.22 496.11 294.89 440.37 294.89 440.37 235.57 260 235.57" fill="none" stroke="#2e2d75" stroke-miterlimit="10" stroke-width="2"/><polyline points="1477.34 720.81 1733.1 720.81 1788.84 720.81 1788.84 661.49 1844.57 661.49 1844.57 602.17 1900.31 602.17 1900.31 542.84 1956.04 542.84 1900.98 542.94 1956.71 542.94 1956.71 483.61 2012.45 483.61 2012.45 424.29 2068.18 424.29 2068.18 364.97 2187.56 364.97" fill="none" stroke="#2e2d75" stroke-miterlimit="10" stroke-width="2"/><path d="M795.33,562.9s-.51,13.67-32.73,15.2H748.67l.84,65.66s-20.31-.11-26,0l-5.7.11,5.93-79.68a15.58,15.58,0,0,1,10-13.37l33.43-12.52,51.25-4.52s7.21,18,8.73,37.91,13.56,125.18,16.71,128.13c0,0-34.24,6-42.89,6L789.88,569.27" fill="#302d77" stroke="#2e2d75" stroke-miterlimit="10" stroke-width="2"/><path d="M814.62,520.31s1.59,9.23,2.84,11.94l-46.27,6.52Z" fill="#fff" stroke="#2e2d75" stroke-miterlimit="10" stroke-width="2"/><path d="M762.4,466.77l-10.58,25.37-14.17-19.88,8.53-21.05A29.87,29.87,0,0,1,769,432.88a112.52,112.52,0,0,1,25.31-1.2A30.13,30.13,0,0,1,819,447.55l13.15,24.71L818,480.65l-4.25-17.91s7.09,34.16,10.09,50.42a4.09,4.09,0,0,1-2.55,4.55c-10.5,4-44.39,17.33-57.79,25.08a3.16,3.16,0,0,1-4.75-2.73V474.69" fill="#fff" stroke="#2e2d75" stroke-miterlimit="10" stroke-width="2"/><path d="M757.67,405.83h0a19.56,19.56,0,0,1,18.17-19.52l1.53-.11a19.57,19.57,0,0,1,20.31,14.47c2.52,9.48,5.24,22.61,12.92,30.77a44.71,44.71,0,0,1,11.59,36.79l-56.38,13.43S756.85,439.51,757.67,405.83Z" fill="#302d77" stroke="#2e2d75" stroke-miterlimit="10" stroke-width="2"/><path d="M721.71,658.59S720.36,647,732,647s11.38,11.6,11.38,11.6Z" fill="#302d77" stroke="#2e2d75" stroke-miterlimit="10" stroke-width="2"/><path d="M814.48,720.5s-1.35-11.61,10.27-11.61,11.38,11.61,11.38,11.61Z" fill="#302d77" stroke="#2e2d75" stroke-miterlimit="10" stroke-width="2"/><line x1="725.14" y1="644.68" x2="725.14" y2="649.06" fill="none" stroke="#2e2d75" stroke-miterlimit="10" stroke-width="2"/><line x1="739.49" y1="644.68" x2="739.49" y2="649.06" fill="none" stroke="#2e2d75" stroke-miterlimit="10" stroke-width="2"/><line x1="815.62" y1="705.08" x2="817.73" y2="710.38" fill="none" stroke="#2e2d75" stroke-miterlimit="10" stroke-width="2"/><line x1="830.32" y1="702.1" x2="830.9" y2="710.38" fill="none" stroke="#2e2d75" stroke-miterlimit="10" stroke-width="2"/><path d="M829.56,473.79l6.31,16.68a4.85,4.85,0,0,1,.18,2.82l-9.86,41.48a47.35,47.35,0,0,1,0,6.26c-.28,1.26-3,7.66-3,7.66" fill="#fff" stroke="#2e2d75" stroke-miterlimit="10" stroke-width="2"/><line x1="820.18" y1="518.14" x2="817.46" y2="532.25" fill="#fff" stroke="#2e2d75" stroke-miterlimit="10" stroke-width="2"/><polyline points="822.47 505.97 823.18 496.39 818.43 485.62" fill="#fff" stroke="#2e2d75" stroke-miterlimit="10" stroke-width="2"/><path d="M710.54,558l6.76-9.59,2.87-6.43,21.2-34.1a5.52,5.52,0,0,0,.42-.8l7.72-18.19-9.44-13.24L733,494.79l-18.35,44-3.39,5-4.15,2.29" fill="#fff" stroke="#2e2d75" stroke-miterlimit="10" stroke-width="2"/><line x1="707.88" y1="556.34" x2="714.67" y2="548.41" fill="#fff" stroke="#2e2d75" stroke-miterlimit="10" stroke-width="2"/><line x1="704" y1="556.38" x2="713.93" y2="546.6" fill="#fff" stroke="#2e2d75" stroke-miterlimit="10" stroke-width="2"/><line x1="704.49" y1="551.73" x2="712.88" y2="544.9" fill="#fff" stroke="#2e2d75" stroke-miterlimit="10" stroke-width="2"/><polyline points="18 984.09 354.98 984.09 354.98 1098" fill="none" stroke="#2e2d75" stroke-miterlimit="10" stroke-width="2"/><polygon points="164.99 984.09 154.02 984.09 172.67 948 183.64 948 164.99 984.09" fill="#302d77" stroke="#2e2d75" stroke-miterlimit="10" stroke-width="2"/><polygon points="299.38 984.09 310.35 984.09 291.7 948 280.73 948 299.38 984.09" fill="#302d77" stroke="#2e2d75" stroke-miterlimit="10" stroke-width="2"/><polygon points="945.65 472.86 870.87 472.86 858.66 363.81 957.86 363.81 945.65 472.86" fill="none" stroke="#2d2f75" stroke-miterlimit="10" stroke-width="2"/><rect x="852.81" y="351.49" width="110.9" height="12.32" fill="#302f77" stroke="#2d2f75" stroke-miterlimit="10" stroke-width="2"/><line x1="942.97" y1="386.6" x2="936.2" y2="455.61" fill="#302f77" stroke="#2d2f75" stroke-miterlimit="10" stroke-width="2"/><path d="M850,158.75s52.7,105.74,52.7,196.33" fill="none" stroke="#2d2f75" stroke-miterlimit="10" stroke-width="2"/><path d="M915.39,357.65s-1.66-83.78,48.32-133.77" fill="none" stroke="#2d2f75" stroke-miterlimit="10" stroke-width="2"/><path d="M922,304.41s-46.65-93.72,82.71-114.87C1004.67,189.54,991.87,280.35,922,304.41Z" fill="none" stroke="#2d2f75" stroke-miterlimit="10" stroke-width="2"/><path d="M839.74,141.05S827.51,255.91,892.42,277.1C892.42,277.1,948.21,200.76,839.74,141.05Z" fill="none" stroke="#2d2f75" stroke-miterlimit="10" stroke-width="2"/><polygon points="1773.27 898.04 1732.23 898.04 1725.53 838.19 1779.97 838.19 1773.27 898.04" fill="none" stroke="#2d2f75" stroke-miterlimit="10" stroke-width="2"/><rect x="1722.32" y="831.43" width="60.86" height="6.76" fill="#302f77" stroke="#2d2f75" stroke-miterlimit="10" stroke-width="2"/><path d="M1788.51,725.65c-2.67,5.35-28.93,52.68-28.93,107.75" fill="none" stroke="#2d2f75" stroke-miterlimit="10" stroke-width="2"/><path d="M1752.64,834.81s-.09-46-27.52-73.41" fill="none" stroke="#2d2f75" stroke-miterlimit="10" stroke-width="2"/><path d="M1748,805.59s25.61-51.43-45.39-63C1702.64,742.55,1709.67,792.39,1748,805.59Z" fill="none" stroke="#2d2f75" stroke-miterlimit="10" stroke-width="2"/><path d="M1794.15,715.94s5.71,63-29.91,74.66C1764.24,790.6,1734.63,748.71,1794.15,715.94Z" fill="none" stroke="#2d2f75" stroke-miterlimit="10" stroke-width="2"/><path d="M964.21,788.47h98.87a88.1,88.1,0,0,1,88.1,88.1h0a88.1,88.1,0,0,1-88.1,88.1H554.77a88.1,88.1,0,0,1-88.1-88.1h0a88.1,88.1,0,0,1,88.1-88.1H964.21Z" fill="#fff" stroke="#2e2d75" stroke-linejoin="round" stroke-width="2"/><polyline points="589.78 964.67 565.1 989.35 550.77 989.29 575.39 964.67" fill="#302d77" stroke="#2e2d75" stroke-linejoin="round" stroke-width="2"/><polyline points="1033.71 964.67 1058.21 989.18 1072.55 989.12 1048.1 964.67" fill="#302d77" stroke="#2e2d75" stroke-linejoin="round" stroke-width="2"/><rect x="506.22" y="-20" width="208.87" height="437.61" fill="#302d77" stroke="#2e2d75" stroke-miterlimit="10" stroke-width="2"/><rect x="497.98" y="417.61" width="225.35" height="19.83" fill="#fff" stroke="#2d2f75" stroke-miterlimit="10" stroke-width="2"/><line x1="678.44" y1="18.37" x2="678.44" y2="222.14" fill="none" stroke="#fff" stroke-miterlimit="10" stroke-width="2"/><polygon points="589.78 761.56 576.41 744.12 576.41 788.47 589.78 788.47 589.78 761.56" fill="none" stroke="#2e2d75" stroke-miterlimit="10" stroke-width="2"/><line x1="1699.72" y1="903.15" x2="1890.97" y2="903.15" fill="#302d77" stroke="#2e2d75" stroke-linejoin="round" stroke-width="2"/><rect x="1234.94" y="735.04" width="10.79" height="380.49" rx="5.39" fill="#302d77" stroke="#2e2d75" stroke-linejoin="round" stroke-width="2"/><rect x="1205.14" y="748.21" width="10.79" height="150.1" rx="5.39" stroke-width="2" fill="#302d77" stroke="#2e2d75" stroke-linejoin="round" transform="translate(2033.79 -387.28) rotate(90)"/><path d="M1135.48,629.11h10.79a0,0,0,0,1,0,0V822.4a5.39,5.39,0,0,1-5.39,5.39h0a5.39,5.39,0,0,1-5.39-5.39V629.11A0,0,0,0,1,1135.48,629.11Z" fill="#302d77" stroke="#2e2d75" stroke-linejoin="round" stroke-width="2"/><polygon points="1146.24 650.26 1039.21 650.26 1039.21 637.89 1028.42 637.89 1028.42 650.26 996.14 650.26 996.14 661.04 1028.42 661.04 1028.42 787.99 1039.21 787.99 1039.21 661.04 1135.48 661.04 1146.24 650.26" fill="#fff" stroke="#2d2f75" stroke-linejoin="bevel" stroke-width="2"/><path d="M1050.56,716.06c0,1.35-2.56,2.35-2.89,3.6s1.35,3.44.7,4.57-3.38.74-4.31,1.67-.52,3.64-1.67,4.3-3.27-1-4.56-.7-2.25,2.89-3.61,2.89-2.35-2.56-3.6-2.89-3.43,1.36-4.56.7-.74-3.37-1.67-4.3-3.65-.53-4.31-1.67,1-3.28.7-4.57-2.89-2.25-2.89-3.6,2.56-2.36,2.89-3.6-1.36-3.44-.7-4.57,3.38-.74,4.31-1.67.52-3.64,1.67-4.31,3.27,1.05,4.56.71,2.25-2.89,3.6-2.89,2.36,2.55,3.61,2.89,3.43-1.36,4.56-.71.74,3.38,1.67,4.31,3.65.52,4.31,1.67-1,3.27-.7,4.57S1050.56,714.7,1050.56,716.06Z" fill="#fff"/><path d="M1050.56,716.06c0,1.35-2.56,2.35-2.89,3.6s1.35,3.44.7,4.57-3.38.74-4.31,1.67-.52,3.64-1.67,4.3-3.27-1-4.56-.7-2.25,2.89-3.61,2.89-2.35-2.56-3.6-2.89-3.43,1.36-4.56.7-.74-3.37-1.67-4.3-3.65-.53-4.31-1.67,1-3.28.7-4.57-2.89-2.25-2.89-3.6,2.56-2.36,2.89-3.6-1.36-3.44-.7-4.57,3.38-.74,4.31-1.67.52-3.64,1.67-4.31,3.27,1.05,4.56.71,2.25-2.89,3.6-2.89,2.36,2.55,3.61,2.89,3.43-1.36,4.56-.71.74,3.38,1.67,4.31,3.65.52,4.31,1.67-1,3.27-.7,4.57S1050.56,714.7,1050.56,716.06Z" fill="none" stroke="#2d2f75" stroke-miterlimit="10" stroke-width="2"/><path d="M1157.21,659.9c0,1.36-2.56,2.36-2.89,3.61s1.36,3.43.7,4.56-3.38.74-4.31,1.67-.52,3.65-1.67,4.31-3.27-1-4.56-.7-2.25,2.89-3.6,2.89-2.36-2.56-3.61-2.89-3.43,1.36-4.56.7-.74-3.38-1.67-4.31-3.65-.52-4.31-1.67,1-3.27.7-4.56-2.89-2.25-2.89-3.61,2.56-2.35,2.89-3.6-1.35-3.43-.7-4.56,3.38-.74,4.31-1.67.52-3.65,1.67-4.31,3.27,1,4.56.7,2.25-2.89,3.61-2.89,2.35,2.56,3.6,2.89,3.43-1.36,4.56-.7.74,3.38,1.67,4.31,3.65.52,4.31,1.67-1,3.27-.7,4.56S1157.21,658.55,1157.21,659.9Z" fill="#fff"/><path d="M1157.21,659.9c0,1.36-2.56,2.36-2.89,3.61s1.36,3.43.7,4.56-3.38.74-4.31,1.67-.52,3.65-1.67,4.31-3.27-1-4.56-.7-2.25,2.89-3.6,2.89-2.36-2.56-3.61-2.89-3.43,1.36-4.56.7-.74-3.38-1.67-4.31-3.65-.52-4.31-1.67,1-3.27.7-4.56-2.89-2.25-2.89-3.61,2.56-2.35,2.89-3.6-1.35-3.43-.7-4.56,3.38-.74,4.31-1.67.52-3.65,1.67-4.31,3.27,1,4.56.7,2.25-2.89,3.61-2.89,2.35,2.56,3.6,2.89,3.43-1.36,4.56-.7.74,3.38,1.67,4.31,3.65.52,4.31,1.67-1,3.27-.7,4.56S1157.21,658.55,1157.21,659.9Z" fill="none" stroke="#2d2f75" stroke-miterlimit="10" stroke-width="2"/><path d="M1912.2,373.85c0,1.06-2,1.84-2.26,2.82s1.06,2.68.55,3.57-2.64.57-3.37,1.3-.41,2.85-1.31,3.37-2.56-.82-3.57-.55-1.75,2.26-2.81,2.26-1.84-2-2.82-2.26-2.69,1.06-3.57.55-.58-2.64-1.31-3.37-2.84-.41-3.36-1.3.82-2.56.55-3.57-2.26-1.76-2.26-2.82,2-1.84,2.26-2.82-1.07-2.68-.55-3.57,2.64-.58,3.36-1.3.41-2.85,1.31-3.37,2.56.82,3.57.55,1.76-2.26,2.82-2.26,1.84,2,2.81,2.26,2.69-1.06,3.57-.55.58,2.64,1.31,3.37,2.85.4,3.37,1.3-.82,2.56-.55,3.57S1912.2,372.79,1912.2,373.85Z" fill="#302d77"/><path d="M1912.2,373.85c0,1.06-2,1.84-2.26,2.82s1.06,2.68.55,3.57-2.64.57-3.37,1.3-.41,2.85-1.31,3.37-2.56-.82-3.57-.55-1.75,2.26-2.81,2.26-1.84-2-2.82-2.26-2.69,1.06-3.57.55-.58-2.64-1.31-3.37-2.84-.41-3.36-1.3.82-2.56.55-3.57-2.26-1.76-2.26-2.82,2-1.84,2.26-2.82-1.07-2.68-.55-3.57,2.64-.58,3.36-1.3.41-2.85,1.31-3.37,2.56.82,3.57.55,1.76-2.26,2.82-2.26,1.84,2,2.81,2.26,2.69-1.06,3.57-.55.58,2.64,1.31,3.37,2.85.4,3.37,1.3-.82,2.56-.55,3.57S1912.2,372.79,1912.2,373.85Z" fill="none" stroke="#2e2d75" stroke-linejoin="round" stroke-width="2"/><polygon points="1618.91 120.58 1618.91 -76 1604.45 -76 1604.45 183.21 1618.91 197.68 1618.91 135.81 1704.8 135.81 1704.8 252.15 1719.27 266.62 1719.27 135.81 1719.27 126.99 1719.27 120.58 1618.91 120.58" fill="#fff" stroke="#2d2f75" stroke-miterlimit="10" stroke-width="2"/><rect x="1786.56" y="-0.55" width="221.16" height="316.02" fill="none" stroke="#2e2d75" stroke-miterlimit="10" stroke-width="2"/><rect x="1780.3" y="315.47" width="233.67" height="13.14" fill="#302d77" stroke="#2e2d75" stroke-linejoin="round" stroke-width="2"/><path d="M1786.56,328.61s106.34,37.49,221.16,0" fill="none" stroke="#2e2d75" stroke-miterlimit="10" stroke-width="2"/><polygon points="1736.43 -0.68 1786.56 55.86 1786.56 74.56 1736.43 18.03 1736.43 -0.68" fill="none" stroke="#2e2d75" stroke-miterlimit="10" stroke-width="2"/><rect x="1893.01" y="345.75" width="12.83" height="28.1" fill="none" stroke="#2e2d75" stroke-miterlimit="10" stroke-width="2"/><rect x="1893.01" y="335.25" width="12.83" height="77.15" transform="translate(2273.25 -1525.6) rotate(90)" fill="none" stroke="#2e2d75" stroke-miterlimit="10" stroke-width="2"/><line x1="1834.38" y1="257.98" x2="1834.38" y2="93.44" fill="#302d77" stroke="#2e2d75" stroke-linejoin="round" stroke-width="2"/><rect x="1388.24" y="387.58" width="100.76" height="13.96" rx="6.98" fill="#302d77" stroke="#2e2d75" stroke-miterlimit="10" stroke-width="2"/><rect x="1388.24" y="297.97" width="100.76" height="13.96" rx="6.98" fill="#302d77" stroke="#2e2d75" stroke-miterlimit="10" stroke-width="2"/><path d="M1482,311.93s-16.41,26.16,0,75.65" fill="none" stroke="#2d2f75" stroke-miterlimit="10" stroke-width="2"/><path d="M1395.54,311.93s16.41,26.16,0,75.65" fill="none" stroke="#2d2f75" stroke-miterlimit="10" stroke-width="2"/><line x1="1471.97" y1="316.12" x2="1432.51" y2="383.69" fill="none" stroke="#2d2f75" stroke-miterlimit="10" stroke-width="2"/><line x1="1459.41" y1="316.12" x2="1432.51" y2="361.87" fill="none" stroke="#2d2f75" stroke-miterlimit="10" stroke-width="2"/><path d="M1395.22,298s43.42-19.21,86.8,0" fill="none" stroke="#2d2f75" stroke-miterlimit="10" stroke-width="2"/><line x1="569" y1="949" x2="569" y2="856" fill="none" stroke="#fff" stroke-linejoin="round" stroke-width="2"/><line x1="1031" y1="945" x2="1031" y2="852" fill="none" stroke="#fff" stroke-linejoin="round" stroke-width="2"/><rect x="1272.91" y="404.63" width="409.49" height="181.74" fill="none" stroke="#2e2d75" stroke-miterlimit="10" stroke-width="2"/><path d="M1367.35,485.89l23.23-21.53a6.27,6.27,0,0,0,.86-8.21h0a83.54,83.54,0,0,0-40.86-30.79h0a6.27,6.27,0,0,0-7.65,3.09L1321,471.82a21.6,21.6,0,0,0,.28,20h0a21.59,21.59,0,0,0,14.34,10.8h0a21.57,21.57,0,0,0,19.32-5.25l4.56-4.23" fill="none" stroke="#2e2d75" stroke-miterlimit="10" stroke-width="2"/><line x1="1373.43" y1="437.55" x2="1338.84" y2="483.45" fill="none" stroke="#2e2d75" stroke-miterlimit="10" stroke-width="2"/><path d="M1378.71,463.41c-10.1-7.61-15.7,2.21-15.7,2.21S1371.1,473.51,1378.71,463.41Z" fill="none" stroke="#2e2d75" stroke-miterlimit="10" stroke-width="2"/><path d="M1347.59,440c10.1,7.61,2.21,15.71,2.21,15.71S1340,450.06,1347.59,440Z" fill="none" stroke="#2e2d75" stroke-miterlimit="10" stroke-width="2"/><polygon points="1568.97 554.16 1543.33 553 1596.21 532.9 1568.97 554.16" fill="none" stroke="#2e2d75" stroke-linejoin="round" stroke-width="2"/><polyline points="1596.21 532.9 1575.43 554.16 1569.77 567.09 1568.97 554.16" fill="none" stroke="#2e2d75" stroke-linejoin="bevel" stroke-width="2"/><polyline points="1602.08 544.08 1607.36 554.16 1575.43 554.16" fill="none" stroke="#2e2d75" stroke-miterlimit="10" stroke-width="2"/><line x1="1596.21" y1="532.9" x2="1599.5" y2="539.17" fill="none" stroke="#2e2d75" stroke-miterlimit="10" stroke-width="2"/><line x1="1569.93" y1="566.74" x2="1579.74" y2="554.16" fill="none" stroke="#2e2d75" stroke-miterlimit="10" stroke-width="2"/><polyline points="1629.78 540.25 1637.83 546.2 1617.5 511.16 1623.06 535.28 1627.28 538.4" fill="none" stroke="#2e2d75" stroke-linejoin="round" stroke-width="2"/><polyline points="1617.5 511.16 1619.46 532.36 1616.77 542.1 1623.06 535.28" fill="none" stroke="#2e2d75" stroke-linejoin="bevel" stroke-width="2"/><polyline points="1617.5 511.16 1601.71 517.95 1619.46 532.36" fill="none" stroke="#2e2d75" stroke-miterlimit="10" stroke-width="2"/><line x1="1616.85" y1="541.84" x2="1617.07" y2="530.41" fill="none" stroke="#2e2d75" stroke-miterlimit="10" stroke-width="2"/><path d="M1359.67,509.43s41.71,24.06,89.37-13.93,96.17-51.61,142.36-51.61" fill="none" stroke="#2e2d75" stroke-miterlimit="10" stroke-width="2"/><g clip-path="url(#b)"><path d="M1323.15,581.19h0a2.9,2.9,0,0,1,2.9,2.9v5.85a0,0,0,0,1,0,0h-5.8a0,0,0,0,1,0,0v-5.85A2.9,2.9,0,0,1,1323.15,581.19Z" transform="translate(737.58 1908.71) rotate(-90)" fill="#fff" stroke="#2e2d75" stroke-miterlimit="10" stroke-width="2"/><path d="M1324.29,572.47h0a2.9,2.9,0,0,1,2.9,2.9v5.85a0,0,0,0,1,0,0h-5.8a0,0,0,0,1,0,0v-5.85A2.9,2.9,0,0,1,1324.29,572.47Z" transform="translate(424.36 1706.71) rotate(-75)" fill="#fff" stroke="#2e2d75" stroke-miterlimit="10" stroke-width="2"/><path d="M1327.66,564.33h0a2.9,2.9,0,0,1,2.9,2.9v5.85a0,0,0,0,1,0,0h-5.8a0,0,0,0,1,0,0v-5.85a2.9,2.9,0,0,1,2.9-2.9Z" transform="translate(171.31 1434.15) rotate(-60)" fill="#fff" stroke="#2e2d75" stroke-miterlimit="10" stroke-width="2"/><path d="M1333,557.35h0a2.9,2.9,0,0,1,2.9,2.9v5.85a0,0,0,0,1,0,0h-5.8a0,0,0,0,1,0,0v-5.85A2.9,2.9,0,0,1,1333,557.35Z" transform="translate(-6.77 1107.11) rotate(-45)" fill="#fff" stroke="#2e2d75" stroke-miterlimit="10" stroke-width="2"/><path d="M1340,552h0a2.9,2.9,0,0,1,2.9,2.9v5.85a0,0,0,0,1,0,0h-5.8a0,0,0,0,1,0,0v-5.85A2.9,2.9,0,0,1,1340,552Z" transform="matrix(0.87, -0.5, 0.5, 0.87, -98.66, 744.54)" fill="#fff" stroke="#2e2d75" stroke-miterlimit="10" stroke-width="2"/><path d="M1348.14,548.62h0a2.9,2.9,0,0,1,2.9,2.9v5.85a0,0,0,0,1,0,0h-5.8a0,0,0,0,1,0,0v-5.85a2.9,2.9,0,0,1,2.9-2.9Z" transform="translate(-97.19 367.77) rotate(-15)" fill="#fff" stroke="#2e2d75" stroke-miterlimit="10" stroke-width="2"/><path d="M1356.86,547.48h0a2.9,2.9,0,0,1,2.9,2.9v5.85a0,0,0,0,1,0,0H1354a0,0,0,0,1,0,0v-5.85A2.9,2.9,0,0,1,1356.86,547.48Z" fill="#fff" stroke="#2e2d75" stroke-miterlimit="10" stroke-width="2"/><path d="M1365.59,548.62h0a2.9,2.9,0,0,1,2.9,2.9v5.85a0,0,0,0,1,0,0h-5.8a0,0,0,0,1,0,0v-5.85A2.9,2.9,0,0,1,1365.59,548.62Z" transform="translate(189.66 -334.6) rotate(15)" fill="#fff" stroke="#2e2d75" stroke-miterlimit="10" stroke-width="2"/><path d="M1373.72,552h0a2.9,2.9,0,0,1,2.9,2.9v5.85a0,0,0,0,1,0,0h-5.8a0,0,0,0,1,0,0v-5.85a2.9,2.9,0,0,1,2.9-2.9Z" transform="translate(462.23 -612.32) rotate(30)" fill="#fff" stroke="#2e2d75" stroke-miterlimit="10" stroke-width="2"/><path d="M1380.71,557.35h0a2.9,2.9,0,0,1,2.9,2.9v5.85a0,0,0,0,1,0,0h-5.8a0,0,0,0,1,0,0v-5.85A2.9,2.9,0,0,1,1380.71,557.35Z" transform="translate(801.6 -811.78) rotate(45)" fill="#fff" stroke="#2e2d75" stroke-miterlimit="10" stroke-width="2"/><path d="M1386.07,564.33h0a2.9,2.9,0,0,1,2.9,2.9v5.85a0,0,0,0,1,0,0h-5.8a0,0,0,0,1,0,0v-5.85A2.9,2.9,0,0,1,1386.07,564.33Z" transform="translate(1185.55 -916.01) rotate(60)" fill="#fff" stroke="#2e2d75" stroke-miterlimit="10" stroke-width="2"/><path d="M1389.43,572.47h0a2.9,2.9,0,0,1,2.9,2.9v5.85a0,0,0,0,1,0,0h-5.8a0,0,0,0,1,0,0v-5.85A2.9,2.9,0,0,1,1389.43,572.47Z" transform="translate(1587.01 -914.55) rotate(75)" fill="#fff" stroke="#2e2d75" stroke-miterlimit="10" stroke-width="2"/><path d="M1390.58,581.19h0a2.9,2.9,0,0,1,2.9,2.9v5.85a0,0,0,0,1,0,0h-5.8a0,0,0,0,1,0,0v-5.85A2.9,2.9,0,0,1,1390.58,581.19Z" transform="translate(1976.15 -805.01) rotate(90)" fill="#fff" stroke="#2e2d75" stroke-miterlimit="10" stroke-width="2"/><circle cx="1356.86" cy="585.57" r="30.91" fill="#fff" stroke="#2e2d75" stroke-miterlimit="10" stroke-width="2"/><circle cx="1356.86" cy="585.57" r="23.93" fill="#302d77" stroke="#2e2d75" stroke-miterlimit="10" stroke-width="2"/><circle cx="1356.86" cy="585.57" r="13.26" fill="#fff" stroke="#2e2d75" stroke-miterlimit="10" stroke-width="2"/></g><line x1="1457.38" y1="554.16" x2="1469.19" y2="571.83" fill="#fff" stroke="#2e2d75" stroke-miterlimit="10" stroke-width="2"/><line x1="1457.38" y1="546.2" x2="1465.44" y2="558.26" fill="#fff" stroke="#2e2d75" stroke-miterlimit="10" stroke-width="2"/><line x1="1475.53" y1="552.56" x2="1483.59" y2="564.62" fill="#fff" stroke="#2e2d75" stroke-miterlimit="10" stroke-width="2"/><polygon points="1343.34 633.48 1343.34 586.73 1272.53 586.73 1272.53 539.97 1201.71 539.97 1201.71 586.73 1201.71 680.23 1343.34 680.23 1414.16 680.23 1414.16 633.48 1343.34 633.48" fill="#302d77" stroke="#2e2d75" stroke-miterlimit="10" stroke-width="2"/><path d="M1466.88,551.58s53.74,13.63,59.36-23.27-43.32-28.07-44.92-16,44.11,0,81.82-15.24,48.93-4,48.93-4" fill="none" stroke="#2d2f75" stroke-linecap="round" stroke-linejoin="round" stroke-width="4"/><polyline points="1474.1 557.99 1470.09 553.18 1470.09 548.37 1472.49 551.58 1473.29 552.38 1475.7 549.17 1472.49 547.57 1476.5 545.96 1479.71 548.37 1479.71 554.78" fill="#fff" stroke="#2d2f75" stroke-linecap="round" stroke-linejoin="round" stroke-width="2"/><path d="M1586.4,663.08l10.43,1.6L1603,634.2a8.69,8.69,0,0,0-.16-3.37c-3.43-13.68-16.64-30.74-21.26-36.41a8.09,8.09,0,0,0-3.95-2.64l-4.28-1.28a7.93,7.93,0,0,0-2.86-.32l-25.3,1.68a38.79,38.79,0,0,0-17.36,5.44h0l-21.52-11.08a8.91,8.91,0,0,1-4.13-3.16L1481.32,554l-8.83,4.82,16.49,39a9,9,0,0,0,3.73,4.24l41.55,29-8-4.81c3.21,10.42,10,42.91,10,42.91,15.24,10.43,48.93,0,48.93,0,4.82-37.7.41-50.13.41-50.13" fill="#fff" stroke="#2d2f75" stroke-miterlimit="10" stroke-width="2"/><path d="M1563.94,809.07h-12s-7.22,6.41-12,7.22a8.54,8.54,0,0,0-6.41,4.81l31.88.4S1567.15,817.09,1563.94,809.07Z" fill="#2c3075" stroke="#2d2f75" stroke-miterlimit="10" stroke-width="2"/><path d="M1632.12,799.44l-10.43,4.81s-.8,8-4,10.43-6.42,4-7.22,6.42c0,0,13.64.8,19.25-1.61s11.23-11.23,11.23-11.23S1638.54,800.24,1632.12,799.44Z" fill="#2c3075" stroke="#2d2f75" stroke-miterlimit="10" stroke-width="2"/><line x1="1559.12" y1="586.07" x2="1559.12" y2="581.26" fill="none" stroke="#2d2f75" stroke-miterlimit="10" stroke-width="2"/><path d="M1534.57,561.21c3.8,23.77,16.16,18.06,16.16,18.06h-6.65l1.41,12.41,15.24-1.6-4-21.66L1547.89,554l-13.32,7.23" fill="#fff" stroke="#2d2f75" stroke-miterlimit="10" stroke-width="2"/><polyline points="1594.42 664.68 1593.62 671.1 1592.82 677.51 1588 677.51 1587.2 667.89 1585.38 667.56" fill="none" stroke="#2d2f75" stroke-miterlimit="10" stroke-width="2"/><line x1="1467.68" y1="553.18" x2="1483.72" y2="542.75" fill="none" stroke="#2d2f75" stroke-linecap="round" stroke-miterlimit="10" stroke-width="4"/><path d="M1592.81,734.47l4,8,35.29,57-10.43,4.81-42.51-48.13-13.64-21.65S1590.41,735.27,1592.81,734.47Z" fill="#fff" stroke="#2d2f75" stroke-miterlimit="10" stroke-width="2"/><path d="M1531.85,561.2h10.43s10.43,28.88,9.63,40.11,49.73,31.28,44.11,3.21-21.63-66.83-48.93-65.78C1526.24,539.54,1531.85,561.2,1531.85,561.2Z" fill="#2c3075" stroke="#2d2f75" stroke-miterlimit="10" stroke-width="2"/><polygon points="1561.53 734.47 1559.93 744.89 1563.94 809.07 1551.9 809.07 1537.47 746.5 1537.47 730.46 1561.53 734.47" fill="#fff" stroke="#2d2f75" stroke-miterlimit="10" stroke-width="2"/><path d="M1535.06,669.49s12,10.43,49.73,0a159.54,159.54,0,0,1,6.42,29.68c1.6,15.24,2.41,21.66,5.62,24.87s8.82,4.81,2.4,8-40.91,8-45.72,7.22-16.85-4.81-18.45-5.62a10.9,10.9,0,0,1-5.61-7.21c-.81-4,.8-9.63,2.4-17.65s3.21-39.31,3.21-39.31" fill="#2c3075" stroke="#2d2f75" stroke-miterlimit="10" stroke-width="2"/><path d="M1576.14,372.3h43a5.89,5.89,0,0,1,3.85,1.42L1656.54,401a11.55,11.55,0,0,1,4,10.18l-7.11,57.33-12.84-2.4-2-48a11.54,11.54,0,0,0-8.17-10.54l-10.63-3.24-37.1.6-7.87,3.13a13.92,13.92,0,0,0-8.78,12.93l3.61,32.67-15.64,2-7-53.44a13.92,13.92,0,0,1,4.79-12.43l20.64-16.15A5.91,5.91,0,0,1,1576.14,372.3Z" fill="#2c3075" stroke="#2d2f75" stroke-miterlimit="10" stroke-width="2"/><path d="M1640.14,468.15l12.84,2.41s2.4,4,6.41,9.62,0,4.82,0,4.82l-21.65-4.82S1632.92,472.16,1640.14,468.15Z" fill="#fff" stroke="#2e2d75" stroke-miterlimit="10" stroke-width="2"/><path d="M1568,456l-13,1.41s-2.71,3.81-7.14,9.1-.37,4.8-.37,4.8l22-3.13S1574.87,460.56,1568,456Z" fill="#fff" stroke="#2e2d75" stroke-miterlimit="10" stroke-width="2"/><path d="M1621.69,330.18l9.3,12.87a6.83,6.83,0,0,1,1.27,3.5l2.27,31.76,11.23,3.21.76-42.9a6.74,6.74,0,0,0-1-3.73l-17.79-28.47a10.37,10.37,0,0,0-3.07-3.15l-2.71-1.81a10.44,10.44,0,0,0-5.8-1.76H1596l-19.24,3.56a10.54,10.54,0,0,0-4.38,1.93l-10.3,7.72a10.59,10.59,0,0,0-1.08.93l-3.69,3.7a10.14,10.14,0,0,0-2.18,3.26l-15.28,36.66-4,37.7,8.83.8,10.42-33.69,16-22.9" fill="#fff" stroke="#2e2d75" stroke-miterlimit="10" stroke-width="2"/><path d="M1618.48,317.35c7.22,12.83.81,54.54.81,54.54h-42.52c-.8,0-4-36.09-10.43-45.72" fill="#fff" stroke="#2e2d75" stroke-miterlimit="10" stroke-width="2"/><polyline points="1595.22 292.48 1596.02 299.7 1590.41 306.92 1581.4 302.41 1580.78 297.3" fill="#fff" stroke="#2e2d75" stroke-miterlimit="10" stroke-width="2"/><path d="M1570.35,278.85l5.38,14.33a6.09,6.09,0,0,0,7,3.82l6.09-1.31,5.62-6.42,1.6-7.22-3.21-8.82-7.21-2.41s-9.63,0-10.43.81S1570.35,278.85,1570.35,278.85Z" fill="#fff" stroke="#2e2d75" stroke-miterlimit="10" stroke-width="2"/><path d="M1563.94,276.44s5.61,4.81,12.83,3.21,3.21-4,6.42-1.61a31.87,31.87,0,0,1,5.61,5.62c1.61-2.41,1.61-6.42,2.41-4a5.57,5.57,0,0,1,0,4s0,4,.8,4.81-.8,0,0,1.61,3.51,3.5,3.36,3.75-.15,5.07,1.46.26,2.4-2.41,2.4-7.22.8-7.22,0-10.43,0-8-3.21-9.63-2.4-4.81-11.23-4.81-17.64,4-18.45,6.42S1561.53,272.43,1563.94,276.44Z" fill="#2c3075" stroke="#2d2f75" stroke-miterlimit="10" stroke-width="2"/><path d="M1537.47,396s-2.41,4.81-6.42,5.61a19.56,19.56,0,0,0-6.42,2.41s14.44-.8,14.44,0,6.42,0,6.42,0,.8.8,0-.8-2.94-5.62-1.47-7.22Z" fill="#fff" stroke="#2e2d75" stroke-miterlimit="10" stroke-width="2"/><path d="M1635.27,378.75s-4,3.57-4,5.18-1.61,4-.8,4.81.8,3.21,2.4,3.21,6.42-3.21,6.42-3.21,4-4,4-3.21v2.41c0,.8.8,4,1.6.8s0-4.81,0-4.81v-2.41Z" fill="#fff" stroke="#2e2d75" stroke-miterlimit="10" stroke-width="2"/><path d="M1592,313.34s8,30.48,6.42,52.14" fill="none" stroke="#2e2d75" stroke-miterlimit="10" stroke-width="2"/><text transform="translate(567.52 391) rotate(-90)" font-size="33.3" fill="#fff" font-family="Poppins-Light, Poppins Light" font-weight="300">the design village</text><circle cx="1274.32" cy="138.36" r="110.43" fill="none" stroke="#2e2d75" stroke-miterlimit="10" stroke-width="2"/><polyline points="1189.33 78.62 1298.7 78.62 1298.7 86.14 1200.02 86.14" fill="none" stroke="#2e2d75" stroke-miterlimit="10" stroke-width="2"/><line x1="1377.76" y1="145.87" x2="1336.37" y2="145.87" fill="none" stroke="#2e2d75" stroke-miterlimit="10" stroke-width="2"/><path d="M1274.68,336.23s-.52-12.21,7.82-12.21,7.45,12.21,7.45,12.21Z" fill="#302d77" stroke="#2e2d75" stroke-miterlimit="10" stroke-width="2"/><path d="M1305.32,336s-.52-12.2,7.82-12.2,7.45,12.2,7.45,12.2Z" fill="#302d77" stroke="#2e2d75" stroke-miterlimit="10" stroke-width="2"/><polyline points="1385 336.23 1174.71 336.23 1174.71 402.99 955.85 402.99" fill="none" stroke="#2e2d75" stroke-miterlimit="10" stroke-width="2"/><polyline points="1239.2 169.06 1240.9 165.72 1240.9 165.27" fill="none" stroke="#2e2d75" stroke-miterlimit="10" stroke-width="2"/><polyline points="1237.86 169.06 1238.26 164.66 1239.76 159.19" fill="none" stroke="#2e2d75" stroke-miterlimit="10" stroke-width="2"/><polyline points="1236.81 169.92 1236.07 165.08 1236.94 158.79" fill="none" stroke="#2e2d75" stroke-miterlimit="10" stroke-width="2"/><polyline points="1236.19 170.78 1233.88 165.46 1233.67 160.76" fill="none" stroke="#2e2d75" stroke-miterlimit="10" stroke-width="2"/><polyline points="1235.35 172.49 1232.64 168.21 1232.73 165.08" fill="none" stroke="#2e2d75" stroke-miterlimit="10" stroke-width="2"/><path d="M1240.66,187.8,1239,169.53c-4.89-3-6.63,5.83-6.63,5.83s-5,24.33-3.53,28.1,5.88,2.95,5.88,2.95l10.9-6.39-.23-8.41L1244,231.42c25,16.3,51.76.86,51.81-4.23s3.28-23.27,4.18-39-3.24-23.77-3.24-23.77c-22.35-16.8-44.25-1.62-44.25-1.62s-7.67,6.07-12.47,18.11" fill="#fff" stroke="#2e2d75" stroke-miterlimit="10" stroke-width="2"/><path d="M1253.87,178l-6.94-13c-4.89-3-6.63,5.84-6.63,5.84s5,31.26,6.52,35,5.87,2.95,5.87,2.95l17.24-16.32-7.8,7.38.85,31.54c25,16.3,51.76.86,51.81-4.23s3.28-23.27,4.18-39-7.24-23.71-7.24-23.71c-22.35-16.8-50.3.6-50.3.6a101.8,101.8,0,0,0-10.78,20.21" fill="#fff" stroke="#2e2d75" stroke-miterlimit="10" stroke-width="2"/><path d="M1278.93,139s-2.33,11.24,2.33,13.6l3.08,1.57-.13,2.62s9.66-.52,12,.58c1.09.51.2-4.13.2-4.13s-11.76-22.17-14.6-18.59S1278.93,139,1278.93,139Z" fill="#fff" stroke="#2e2d75" stroke-miterlimit="10" stroke-width="2"/><path d="M1277.37,124.33s1.19,2.18,9.43,1.82,17.74.78,16.55,13.34-9.16,16.35-15.12,14.22-6.27-13-6.27-13-1.94-5.49-3-2.47S1273.47,130.1,1277.37,124.33Z" fill="#302d77" stroke="#2e2d75" stroke-miterlimit="10" stroke-width="2"/><path d="M1313,230.77s7.57-.18,3.71,29.94c-1.87,11.76-.44,18.86-.44,18.86s-11.21,8.48-23.11,4.08l1.66-22.72-1.8,25.56s-17.26,6.89-26-5.54c0,0-5-34.54-2.69-47.52C1264.35,233.43,1291.69,247.65,1313,230.77Z" fill="#302d77" stroke="#2e2d75" stroke-miterlimit="10" stroke-width="2"/><path d="M1271.24,282.88a13.86,13.86,0,0,0-1.17,5.52c.13,2.67,6.28,40.58,6.28,40.58h11.32s5-28.81,3.13-43.25S1271.24,282.88,1271.24,282.88Z" fill="none" stroke="#2e2d75" stroke-miterlimit="10" stroke-width="2"/><path d="M1295.83,280.38a14,14,0,0,0-.4,5.63c.5,2.63,11.75,42.31,11.75,42.31l11.21-1.56s1.66-33.24-4.21-45.83C1308,267.73,1295.83,280.38,1295.83,280.38Z" fill="none" stroke="#2e2d75" stroke-miterlimit="10" stroke-width="2"/><path d="M1315.94,180.22a125.22,125.22,0,0,0-47.58,2.5" fill="none" stroke="#2e2d75" stroke-miterlimit="10" stroke-width="2"/><polyline points="1245.39 164.65 1247.1 161.32 1247.1 160.86" fill="none" stroke="#2e2d75" stroke-miterlimit="10" stroke-width="2"/><polyline points="1244.05 164.65 1244.45 160.25 1243.48 154.78" fill="none" stroke="#2e2d75" stroke-miterlimit="10" stroke-width="2"/><polyline points="1242.99 165.51 1242.26 160.67 1240.66 154.38" fill="none" stroke="#2e2d75" stroke-miterlimit="10" stroke-width="2"/><polyline points="1242.38 166.37 1240.07 161.05 1237.39 156.36" fill="none" stroke="#2e2d75" stroke-miterlimit="10" stroke-width="2"/><polyline points="1241.54 168.09 1238.83 163.81 1236.44 160.67" fill="none" stroke="#2e2d75" stroke-miterlimit="10" stroke-width="2"/><path d="M1255.13,124.76s.24,12.92,10.77,11.6,12.45,4.59,12.45,4.59,4-12.27-2-14.61S1260.22,128.27,1255.13,124.76Z" fill="#302d77" stroke="#2e2d75" stroke-miterlimit="10" stroke-width="2"/><path d="M1263.66,137s-2.46,14,5.93,14.33c0,0,4.1.45,6.21-.73" fill="none" stroke="#2e2d75" stroke-miterlimit="10" stroke-width="2"/><polyline points="1269.56 151.8 1269.59 151.35 1270.14 156.36 1278.35 156.73" fill="none" stroke="#2e2d75" stroke-miterlimit="10" stroke-width="2"/><line x1="1280.28" y1="151.93" x2="1278.85" y2="156.73" fill="none" stroke="#2e2d75" stroke-miterlimit="10" stroke-width="2"/><path d="M1275.8,124.33s-2.13,4.84-1.48,9" fill="none" stroke="#fff" stroke-miterlimit="10"/><path d="M1244.77,231.91s-1.69,10.46,0,12.88,19.57,3.55,19.57,3.55l-.49-9.85S1250.18,236.09,1244.77,231.91Z" fill="#302d77" stroke="#2e2d75" stroke-miterlimit="10" stroke-width="0.75"/><path d="M670.7,677.41V909.13a3.17,3.17,0,0,1-3.16,3.16h0a3.16,3.16,0,0,1-3.16-3.16V708.39" fill="none" stroke="#2e2d75" stroke-miterlimit="10" stroke-width="2"/><path d="M670.7,877.71h35.14a2.88,2.88,0,0,1,2.87,2.87h0a2.88,2.88,0,0,1-2.87,2.88H670.7" fill="none" stroke="#2e2d75" stroke-miterlimit="10" stroke-width="2"/><polyline points="516.51 539.69 520.47 534.02 519.62 525.99" fill="none" stroke="#2e2d75" stroke-miterlimit="10" stroke-width="2"/><line x1="514.35" y1="539.37" x2="519.01" y2="532.84" fill="none" stroke="#2e2d75" stroke-miterlimit="10" stroke-width="2"/><polyline points="512.02 538.06 512.88 532.29 514.83 529.11" fill="none" stroke="#2e2d75" stroke-miterlimit="10" stroke-width="2"/><polyline points="512.88 538.06 517.93 531.36 518.94 526.97" fill="none" stroke="#2e2d75" stroke-miterlimit="10" stroke-width="2"/><polyline points="344.95 529.69 341.65 523.61 343.4 515.72" fill="none" stroke="#2e2d75" stroke-miterlimit="10" stroke-width="2"/><line x1="347.14" y1="529.6" x2="343.23" y2="522.6" fill="none" stroke="#2e2d75" stroke-miterlimit="10" stroke-width="2"/><polyline points="349.59 528.56 349.39 522.73 347.8 519.36" fill="none" stroke="#2e2d75" stroke-miterlimit="10" stroke-width="2"/><polyline points="348.74 528.47 344.47 521.24 343.96 516.78" fill="none" stroke="#2e2d75" stroke-miterlimit="10" stroke-width="2"/><circle cx="431.66" cy="524.2" r="87.96" fill="none" stroke="#2e2d75" stroke-miterlimit="10" stroke-width="2"/><path d="M402.06,656.43s-3.47,2-3.92,14.66.15,37.78,0,41.91-8.46,54.21-8.46,54.21L408.24,773s16.48-53.13,17.69-76.2v3.89s5.75,54.6,8.38,63.18,2.31,7.48,2.31,7.48l18-3.23V722.06s4.72-35.59,1.5-60.92S402.06,656.43,402.06,656.43Z" fill="none" stroke="#2e2d75" stroke-miterlimit="10" stroke-width="2"/><path d="M414.82,573s-34.37-6.87-37.68-12.44-3-3.3-6-2.72-17.45-22-18.19-30.35a75.42,75.42,0,0,1-9.9,2.3,5.87,5.87,0,0,1-1.64,0c-2.2-.5,12.28,35.44,19,42.42s3.85,6,9.49,10.72,23.29,13.11,27.59,18.56,4.61,8.11,3.62,21.13-7.38,20.3-2.08,24.27,39.93,24.27,52.51,17,19.07-11.24,16-23.16-4.11-32.71,0-38.72,27.94-19.73,29.76-20.55,6.06-5.75,8.72-10.23,10.9-23.4,11.92-29.83l-9.11-5.14s-15.63,23.64-18.28,26.32-4,1-5.07,3.74-28.73,9-36.32,9.37S414.82,573,414.82,573Z" fill="#fff" stroke="#2e2d75" stroke-miterlimit="10" stroke-width="2"/><path d="M449.59,572.21s1.07-10.29-15.43-7.17-20.15,1.38-19.41,5-1.64,8.75-.09,12.94,7.09,16.33,15.38,15.49,18.74-1.94,18-9.78S449.84,574.45,449.59,572.21Z" fill="#fff" stroke="#2e2d75" stroke-miterlimit="10" stroke-width="2"/><path d="M403.83,650l-1.77,6.4,34.56,8S407.31,652.21,403.83,650Z" fill="#302d77" stroke="#2e2d75" stroke-miterlimit="10" stroke-width="2"/><path d="M403.83,774.21s-.34-7.32-4.4-7.55-6,3-7.07,7.06-3.62,4.33-3.62,7.81v1.9l17.63,0V781A17.41,17.41,0,0,0,403.83,774.21Z" fill="#302d77" stroke="#2e2d75" stroke-miterlimit="10" stroke-width="2"/><path d="M450.53,774.21s-.33-7.32-4.4-7.55-6,3-7.07,7.06-3.62,4.33-3.62,7.81v1.9l17.64,0V781A17.52,17.52,0,0,0,450.53,774.21Z" fill="#302d77" stroke="#2e2d75" stroke-miterlimit="10" stroke-width="2"/><path d="M429.55,535.77s20.08-2.86,17,16.81c-1.83,9.51.33,11.87.33,11.87s-27.69,8.13-29.39-1.41S412.16,537.58,429.55,535.77Z" fill="#302d77" stroke="#2e2d75" stroke-miterlimit="10" stroke-width="2"/><polyline points="328 783.45 501.22 783.45 501.22 807" fill="none" stroke="#2e2d75" stroke-miterlimit="10" stroke-width="2"/><polygon points="1.54 226.96 44.33 226.96 44.33 331.83 233.54 521.04 1.54 521.04 1.54 226.96" fill="none" stroke="#2e2d75" stroke-miterlimit="10" stroke-width="2"/><path d="M208.67,496.39s-70.55,4.9-126.07-22.86" fill="none" stroke="#2e2d75" stroke-miterlimit="10" stroke-width="2"/><path d="M50.46,457.46s76.69-31,115.29,37.85C165.75,495.31,104,556.81,50.46,457.46Z" fill="none" stroke="#2e2d75" stroke-miterlimit="10" stroke-width="2"/><path d="M115.86,403.59a75.59,75.59,0,0,0-11,1.22c-11.38,2-29.78,7.18-46.11,20.81" fill="none" stroke="#2e2d75" stroke-miterlimit="10" stroke-width="2"/><a class="navigation"><polygon points="668 460 756 331 821 374 877 441 864 544 855 661 855 728 793 713 687 657 668 460" fill="lime" opacity="0"/></a><path d="M106.67,404.52s-68.34-37.64-85.59,46.69C21.08,451.21,95,462.71,106.67,404.52Z" fill="#302d77" stroke="#2e2d75" stroke-miterlimit="10" stroke-width="2"/><path d="M107.26,405.16c-.32,0-32.81,4.29-47.05,18.1l-1-1.05c14.6-14.14,46.24-18.25,47.57-18.42l.6.37Z" fill="#fff"/><line x1="10.31" y1="386.84" x2="65.59" y2="386.84" fill="none" stroke="#2e2d75" stroke-miterlimit="10" stroke-width="2"/><g class="change" opacity="0"><path d="M1267,270.5h0A110.5,110.5,0,0,1,1156.5,381H961a92.62,92.62,0,0,1-39.62-8.84,17.2,17.2,0,0,0-12.38-.83c-13.72,4.16-53.61,3-53.61,3,15.31,0,23.6-12.21,27.64-21.29a17.3,17.3,0,0,0-1.11-16.14A92.53,92.53,0,0,1,868,288V270.5A110.5,110.5,0,0,1,978.5,160h178A110.5,110.5,0,0,1,1267,270.5Z" fill="#fff" stroke="#302d77" stroke-miterlimit="10" stroke-width="2"/><text transform="translate(937.92 256)" font-size="48" fill="#302d77" font-family="Raleway-Medium, Raleway" font-weight="500">The<tspan x="86.16" y="0" letter-spacing="-0.03em"> </tspan><tspan x="96.86" y="0" letter-spacing="-0.1em">T</tspan><tspan x="121.44" y="0">ale </tspan><tspan x="202.27" y="0" letter-spacing="-0.01em">o</tspan><tspan x="230.59" y="0" letter-spacing="-0.02em">f</tspan><tspan x="246" y="0"> </tspan><tspan x="0" y="57.6">a</tspan><tspan x="26.59" y="57.6" letter-spacing="-0.03em"> </tspan><tspan x="37.1" y="57.6">Village</tspan><tspan x="193.15" y="57.6" letter-spacing="-0.02em">r</tspan></text></g></svg>