<svg xmlns="http://www.w3.org/2000/svg" viewBox="0 0 1920 1080"><title>illustration-final</title><polyline points="926.62 508.13 926.62 523.44 837.76 523.44" fill="none" stroke="#2e2d75" stroke-miterlimit="10" stroke-width="2"/><polyline points="267.29 365.86 267.29 195.91 926.62 195.91 926.62 508.13" fill="none" stroke="#2e2d75" stroke-miterlimit="10" stroke-width="2"/><polyline points="380.48 413.76 380.48 235.34 614.52 235.34 614.52 523.44 380.48 523.44 380.48 425.39" fill="none" stroke="#2e2d75" stroke-miterlimit="10" stroke-width="2"/><polyline points="380.48 426.45 420.32 426.45 420.32 407.3 380.48 407.3 380.48 414.92" fill="none" stroke="#2e2d75" stroke-miterlimit="10" stroke-width="2"/><text transform="translate(461.95 345.75)" font-size="15" fill="#302d77" font-family="AvenirLTStd-Medium, Avenir LT Std" font-weight="500">life<tspan x="0" y="19">th</tspan><tspan x="13.89" y="19" letter-spacing="-0.02em">r</tspan><tspan x="19.17" y="19" letter-spacing="0em">ough</tspan><tspan x="0" y="38">design</tspan></text><path d="M791.86,523.44S805,256,557.1,141.32" fill="none" stroke="#2e2d75" stroke-miterlimit="10" stroke-width="2"/><path d="M824.28,151.36S823.06,181,855,179.69C855,179.69,856.9,150,824.28,151.36Z" fill="none" stroke="#2e2d75" stroke-miterlimit="10" stroke-width="2"/><path d="M806.6,523.44s-1.09-266.38,90.63-431.26" fill="none" stroke="#2e2d75" stroke-miterlimit="10" stroke-width="2"/><path d="M849.89,92.18s-5.64,29.13,26.17,32.61C876.06,124.79,882.35,95.74,849.89,92.18Z" fill="none" stroke="#2e2d75" stroke-miterlimit="10" stroke-width="2"/><path d="M802.19,219.9s2.75,29.54,34.25,24C836.44,243.88,834.34,214.23,802.19,219.9Z" fill="#302d77" stroke="#2e2d75" stroke-miterlimit="10" stroke-width="2"/><path d="M852.91,215.06S874,236,894.58,211.49C894.58,211.49,874,190.08,852.91,215.06Z" fill="none" stroke="#2e2d75" stroke-miterlimit="10" stroke-width="2"/><path d="M874.74,151.3s21,20.9,41.67-3.57C916.41,147.73,895.78,126.32,874.74,151.3Z" fill="#302d77" stroke="#2e2d75" stroke-miterlimit="10" stroke-width="2"/><path d="M29.57,1093.64A811.49,811.49,0,0,1-11.95,860" fill="none" stroke="#2e2d75" stroke-miterlimit="10" stroke-width="2"/><path d="M2,964.18s25.31,8.91,32.66-19.09C34.67,945.09,9.51,935.6,2,964.18Z" fill="none" stroke="#2e2d75" stroke-miterlimit="10" stroke-width="2"/><path d="M-4.9,903.61s25.31,8.91,32.66-19.08C27.76,884.53,2.6,875-4.9,903.61Z" fill="#302d77" stroke="#2e2d75" stroke-miterlimit="10" stroke-width="2"/><path d="M584.93,151.32s19.67-22.21-5.93-41.39C579,109.93,558.79,131.74,584.93,151.32Z" fill="#302d77" stroke="#2e2d75" stroke-miterlimit="10" stroke-width="2"/><path d="M645,190.89s24.7-16.43,4.86-41.53C649.83,149.36,624.72,165.27,645,190.89Z" fill="none" stroke="#2e2d75" stroke-miterlimit="10" stroke-width="2"/><path d="M701.79,247.34s27.52-11.09,13.17-39.69C715,207.65,687.15,218.15,701.79,247.34Z" fill="none" stroke="#2e2d75" stroke-miterlimit="10" stroke-width="2"/><path d="M667.76,223s-23.48-18.14-40.9,8.7C626.86,231.73,650,250.42,667.76,223Z" fill="#302d77" stroke="#2e2d75" stroke-miterlimit="10" stroke-width="2"/><path d="M886.39,511.06s-7.81,1.15-5.89,9.44C880.5,520.5,888.35,519.53,886.39,511.06Z" fill="#302d77" stroke="#2e2d75" stroke-miterlimit="10" stroke-width="2"/><path d="M870.86,511.5s-1.86,7.67,6.55,9C877.41,520.5,879.45,512.86,870.86,511.5Z" fill="none" stroke="#2e2d75" stroke-miterlimit="10" stroke-width="2"/><path d="M1445.47,653.3s-7.82,1.14-5.9,9.44C1439.57,662.74,1447.43,661.76,1445.47,653.3Z" fill="#302d77" stroke="#2e2d75" stroke-miterlimit="10" stroke-width="2"/><path d="M1429.94,653.74s-1.87,7.67,6.54,9C1436.48,662.74,1438.52,655.1,1429.94,653.74Z" fill="none" stroke="#2e2d75" stroke-miterlimit="10" stroke-width="2"/><path d="M1551.12,937.93s-7.81,1.14-5.89,9.44C1545.23,947.37,1553.08,946.39,1551.12,937.93Z" fill="#302d77" stroke="#2e2d75" stroke-miterlimit="10" stroke-width="2"/><path d="M1535.59,938.37s-1.86,7.67,6.54,9C1542.13,947.37,1544.18,939.72,1535.59,938.37Z" fill="none" stroke="#2e2d75" stroke-miterlimit="10" stroke-width="2"/><path d="M497.11,768.12s-7.81,1.14-5.89,9.44C491.22,777.56,499.07,776.59,497.11,768.12Z" fill="#302d77" stroke="#2e2d75" stroke-miterlimit="10" stroke-width="2"/><path d="M481.58,768.56s-1.86,7.67,6.55,9C488.13,777.56,490.17,769.92,481.58,768.56Z" fill="none" stroke="#2e2d75" stroke-miterlimit="10" stroke-width="2"/><path d="M610.46,175.63s-26.14-14-38.91,15.3C571.55,190.93,597.42,205.57,610.46,175.63Z" fill="none" stroke="#2e2d75" stroke-miterlimit="10" stroke-width="2"/><path d="M87.85,174.9C149.55,128.15,235.43,90,348.69,96.25" fill="none" stroke="#2e2d75" stroke-miterlimit="10" stroke-width="2"/><path d="M319.42,92s-6.95-28.84,24.67-33.77C344.09,58.26,351.69,87,319.42,92Z" fill="none" stroke="#2e2d75" stroke-miterlimit="10" stroke-width="2"/><path d="M247.83,98.8s-14.1-26.1,15.2-39C263,59.84,277.74,85.68,247.83,98.8Z" fill="none" stroke="#2e2d75" stroke-miterlimit="10" stroke-width="2"/><path d="M171.17,122s-19.1-22.7,7-41.23C178.16,80.75,197.8,103.07,171.17,122Z" fill="#302d77" stroke="#2e2d75" stroke-miterlimit="10" stroke-width="2"/><path d="M212.63,116.48s29.24-5,32,26.88C244.66,143.36,215.48,149,212.63,116.48Z" fill="none" stroke="#2e2d75" stroke-miterlimit="10" stroke-width="2"/><path d="M285.47,101.52s29.67-.13,27.18,31.77C312.65,133.29,282.93,134.07,285.47,101.52Z" fill="#302d77" stroke="#2e2d75" stroke-miterlimit="10" stroke-width="2"/><line x1="413.73" y1="59.84" x2="798.31" y2="59.84" fill="none" stroke="#2e2d75" stroke-miterlimit="10" stroke-width="2"/><line x1="345.18" y1="141.32" x2="512.1" y2="141.32" fill="none" stroke="#2e2d75" stroke-miterlimit="10" stroke-width="2"/><line x1="266.99" y1="860.69" x2="266.99" y2="392.87" fill="none" stroke="#2e2d75" stroke-miterlimit="10" stroke-width="2"/><rect x="601.67" y="235.34" width="12.85" height="288.1" fill="#302d77" stroke="#2e2d75" stroke-miterlimit="10" stroke-width="2"/><path d="M290.14,406.72s-6.67,5.81-3.22,28c0,0,1.07,11.19.21,15.06" fill="none" stroke="#2e2d75" stroke-miterlimit="10" stroke-width="2"/><line x1="306.75" y1="443.62" x2="303.48" y2="458.58" fill="none" stroke="#2e2d75" stroke-miterlimit="10" stroke-width="2"/><path d="M306.75,460.52l-23.71-14-3.66,8.8s15.28,12.27,30.34,18.08C309.72,473.43,307,464.18,306.75,460.52Z" fill="none" stroke="#2e2d75" stroke-miterlimit="10" stroke-width="2"/><path d="M322.59,511.44c-1.93-14.7-5.76-28.68-12.87-38" fill="none" stroke="#2e2d75" stroke-linejoin="round" stroke-width="2"/><path d="M281.31,456.83s-18.56,30.43-10,75.3c7.29,38.1,3.18,66.9,3.18,66.9l60.16-6.56s-9.86-35.07-10.53-59" fill="none" stroke="#2e2d75" stroke-linejoin="round" stroke-width="2"/><path d="M325.82,594.1,363,760.79h-31.4l-45.7-126.42s-6.53-18.11-7.3-35.34" fill="none" stroke="#2e2d75" stroke-linejoin="round" stroke-width="2"/><line x1="346.7" y1="757.44" x2="310.73" y2="633.12" fill="none" stroke="#2e2d75" stroke-linejoin="round" stroke-width="2"/><path d="M327.44,593.26l39.91,56.81a6,6,0,0,1-1.17,7.77l-22,18.71" fill="none" stroke="#2e2d75" stroke-linejoin="round" stroke-width="2"/><polyline points="309.72 700.19 288.04 716 288.04 674.14 297.63 666.75" fill="none" stroke="#2e2d75" stroke-miterlimit="10" stroke-width="2"/><path d="M282.06,676.55v24.38l-7.18,21.52a5.25,5.25,0,0,1-5,3.6H267v-49.5A19.38,19.38,0,0,1,282.06,676.55Z" fill="none" stroke="#2e2d75" stroke-miterlimit="10" stroke-width="2"/><path d="M336.25,766.35h24.38l21.53,7.18a5.25,5.25,0,0,1,3.59,5v2.91h-49.5A19.38,19.38,0,0,1,336.25,766.35Z" fill="none" stroke="#2e2d75" stroke-miterlimit="10" stroke-width="2"/><polygon points="282.06 678.15 288.04 676.55 288.04 694.36 282.06 697.87 282.06 678.15" fill="#302d77" stroke="#2e2d75" stroke-miterlimit="10" stroke-width="2"/><polygon points="336.58 760.79 337.65 766.35 357.39 766.35 355.97 760.79 336.58 760.79" fill="#302d77" stroke="#2e2d75" stroke-miterlimit="10" stroke-width="2"/><path d="M312.19,507l-29,13.34L276.06,493a15.7,15.7,0,0,1,11.21-19.17h0A15.7,15.7,0,0,1,306.44,485Z" fill="none" stroke="#2e2d75" stroke-linejoin="round" stroke-width="2"/><path d="M309.72,508.09a41,41,0,0,1,1,9.81" fill="none" stroke="#2e2d75" stroke-linejoin="round" stroke-width="2"/><path d="M305.12,523.77S318,515,331.69,507.26c5.51-2,5.87.83,5.87.83s3.67,7.61,2.39,9.81-21.78,23.3-34.83,28.26-20-26.73-20-26.73" fill="none" stroke="#2e2d75" stroke-linejoin="round" stroke-width="2"/><path d="M293.87,430.26l1.87,6.55a7.41,7.41,0,0,0,5.06,5.08l15.55,4.51a3.74,3.74,0,0,0,4.68-2.69l6.56-26.57" fill="none" stroke="#2e2d75" stroke-miterlimit="10" stroke-width="2"/><path d="M290.14,407.67,326.5,418.2l-6,24.51s-.41,3.82-3.94,2.92-9.55-2.39-9.55-2.39L303,457.45,288,448.55s-.75-14.5-.93-16.29S284.58,415.19,290.14,407.67Z" fill="#302d77"/><path d="M334.68,506.54s3.3-8.54,9.37-4.37,7.22,23.4-6.11,18.12" fill="none" stroke="#2e2d75" stroke-linejoin="round" stroke-width="2"/><polygon points="285.72 520.29 309.13 509.13 310.25 514.71 310.25 518.66 327 511 334.22 506.54 340.22 500.58 347.21 505.1 348.91 514.46 345.6 520.75 337.53 521.2 324.18 534.55 306.06 546.34 299.44 546.68 293.87 540.28 287.66 529.95 285.72 520.29" fill="#302d77"/><path d="M321,421c-6,1-9,0-11-1s-2-4-4-2-3,6-3,8,0,3-1,2-1-4-2-6,1-2-1-2-3,0-4,3-1,3-1,5,0,4-2,5-1-1-3,1-2,3-3,0,0-3-1-6,0-4-1-8a24.85,24.85,0,0,1-1-8c0-3,2-8,3-8s6-3,8-3,7,0,8-1,0,0,5,0,6,1,10,2,6,1,7,2l4,4a5.2,5.2,0,0,1,2,4v6l-3.5,3.53Z" fill="#fff" stroke="#2e2d75" stroke-miterlimit="10" stroke-width="2"/><path d="M773.55,415.78h-77.9l-.3-.39a80.15,80.15,0,0,1,26.11-119.1l1.23,1.6A78.55,78.55,0,0,0,681.08,367a77.37,77.37,0,0,0,15.57,46.8H773Z" fill="#2e2d75"/><path d="M759.19,447.09a79.44,79.44,0,0,1-58.14-25l-1.6-1.69h75.64l.64,2H704.15a78.25,78.25,0,0,0,75,20.11l.51,1.94A80.27,80.27,0,0,1,759.19,447.09Z" fill="#2e2d75"/><polygon points="765.57 381.4 747.4 363.24 755.92 354.72 756.79 356.68 750.23 363.24 763.85 376.86 765.57 381.4" fill="#2e2d75"/><line x1="880.19" y1="771.01" x2="930.53" y2="771.01" fill="none" stroke="#2e2d75" stroke-miterlimit="10" stroke-width="2"/><path d="M1257.87,771h61.44a54.75,54.75,0,0,1,54.75,54.75h0a54.75,54.75,0,0,1-54.75,54.75H830.73A54.75,54.75,0,0,1,776,825.76h0A54.75,54.75,0,0,1,830.73,771h23.49" fill="none" stroke="#2e2d75" stroke-miterlimit="10" stroke-width="2"/><line x1="1020.45" y1="771.01" x2="1123" y2="771.01" fill="none" stroke="#2e2d75" stroke-miterlimit="10" stroke-width="2"/><polyline points="852.49 858.69 852.49 880.51 837.15 895.84 828.25 895.81 843.54 880.51 843.54 818.05" fill="none" stroke="#2e2d75" stroke-miterlimit="10" stroke-width="2"/><polyline points="1301.06 858.69 1301.06 880.51 1316.29 895.74 1325.19 895.7 1310 880.51" fill="none" stroke="#2e2d75" stroke-miterlimit="10" stroke-width="2"/><polyline points="369.52 781.42 579.55 781.42 776.99 895.84 908.45 895.84 1510.66 895.84 1510.66 956" fill="none" stroke="#2e2d75" stroke-miterlimit="10" stroke-width="2"/><line x1="593.71" y1="523.44" x2="637.7" y2="523.44" fill="none" stroke="#2e2d75" stroke-miterlimit="10" stroke-width="2"/><line x1="920.96" y1="523.44" x2="954.6" y2="523.44" fill="none" stroke="#2e2d75" stroke-miterlimit="10" stroke-width="2"/><line x1="1618" y1="523" x2="1721.1" y2="523.44" fill="none" stroke="#2e2d75" stroke-miterlimit="10" stroke-width="2"/><polyline points="1458.06 8.97 1458.06 329.39 1668.98 329.39 1668.98 351.55 1694.62 351.55 1694.62 372.53 1719.82 372.53 1719.82 865" fill="none" stroke="#2e2d75" stroke-miterlimit="10" stroke-width="2"/><line x1="1310.82" y1="665.32" x2="1478.74" y2="665.32" fill="none" stroke="#2e2d75" stroke-miterlimit="10" stroke-width="2"/><line x1="1469.91" y1="647.87" x2="1702.53" y2="647.87" fill="none" stroke="#2e2d75" stroke-miterlimit="10" stroke-width="2"/><line x1="368.28" y1="523.44" x2="412.27" y2="523.44" fill="none" stroke="#2e2d75" stroke-miterlimit="10" stroke-width="2"/><path d="M905.21,614.71h29.1a0,0,0,0,1,0,0v14.55a14.55,14.55,0,0,1-14.55,14.55h0a14.55,14.55,0,0,1-14.55-14.55V614.71A0,0,0,0,1,905.21,614.71Z" transform="translate(-132.62 262.63) rotate(-15.17)" fill="none" stroke="#2e2d75" stroke-miterlimit="10" stroke-width="2"/><path d="M899.33,600.3h29.1a0,0,0,0,1,0,0v0a14.55,14.55,0,0,1-14.55,14.55h0a14.55,14.55,0,0,1-14.55-14.55v0A0,0,0,0,1,899.33,600.3Z" transform="translate(1954.9 954.81) rotate(164.83)" fill="#302d77" stroke="#2e2d75" stroke-miterlimit="10" stroke-width="2"/><path d="M905.41,617.11a11.87,11.87,0,0,1,.55-7.52" fill="none" stroke="#fff" stroke-miterlimit="10"/><line x1="903.05" y1="615.48" x2="911.47" y2="613.35" fill="none" stroke="#fff" stroke-miterlimit="10"/><path d="M908.92,612.45a9.66,9.66,0,0,0,0,3.67" fill="none" stroke="#fff" stroke-miterlimit="10"/><path d="M969.3,696.15l3.76,2.87a6.34,6.34,0,0,1,2.31,3.53l7.06,29.05L994,735.83l-2.18-45.42a9.12,9.12,0,0,0-2.24-5.55L964.24,656a10.73,10.73,0,0,0-6.23-3.51l-23.5-4.08-3.64,4a6.23,6.23,0,0,1-6.26,6.2h0a6.22,6.22,0,0,1-6.2-6.25l-3.84-4.4-19.05.93a10,10,0,0,0-5.24,1.79l-32.88,22.9a8.81,8.81,0,0,0-2.44,12c4.71,7.32,14.9,17.4,35.7,18.9,0,0-1-2.55,6-6.22s8-.53,8-.53a3.86,3.86,0,0,1-1.57,3.8" fill="none" stroke="#2e2d75" stroke-miterlimit="10" stroke-width="2"/><path d="M990,747.54c11.57,6.17,51.79,30.27,38.42,61,0,0-52.66,26.32-96.85-39.38-41.42-61.6-79.23-71.89-80.2-58a8.08,8.08,0,0,0,1.14,4.56l.46.81" fill="#fff" stroke="#2e2d75" stroke-miterlimit="10" stroke-width="2"/><path d="M968.38,680.75s1.6,21.3,1.15,39.15c-.24,9.41,4.59,16.15,9.23,20.42" fill="none" stroke="#2e2d75" stroke-miterlimit="10" stroke-width="2"/><path d="M898.39,673s0,1.79.25,4.55c.46,4.94,1.75,13,5.37,19.28l-28.69-16.1" fill="none" stroke="#2e2d75" stroke-linejoin="round" stroke-width="2"/><line x1="883.58" y1="684.93" x2="897.86" y2="678.52" fill="none" stroke="#2e2d75" stroke-linejoin="round" stroke-width="2"/><path d="M851.53,709.81s-.33-6.81,17.79-11.2" fill="none" stroke="#2e2d75" stroke-miterlimit="10" stroke-width="2"/><polyline points="899.27 697.56 906.24 705.09 908.95 719.12" fill="none" stroke="#2e2d75" stroke-miterlimit="10" stroke-width="2"/><line x1="904.01" y1="707.37" x2="906.03" y2="721.4" fill="none" stroke="#2e2d75" stroke-miterlimit="10" stroke-width="2"/><line x1="901.47" y1="709.19" x2="903.04" y2="723.75" fill="none" stroke="#2e2d75" stroke-miterlimit="10" stroke-width="2"/><line x1="898.98" y1="709.19" x2="899.55" y2="719.9" fill="none" stroke="#2e2d75" stroke-miterlimit="10" stroke-width="2"/><path d="M895.35,713.07v-4.56c-3.06-1.92-3.49-4.3-3.49-4.3v-2.35" fill="none" stroke="#2e2d75" stroke-miterlimit="10" stroke-width="2"/><polygon points="900.2 697.56 902.82 697.09 904.11 697.92 904.01 699.81 903.04 700.39 900.2 697.56" fill="#302d77" stroke="#2e2d75" stroke-miterlimit="10" stroke-width="2"/><line x1="916.18" y1="643.36" x2="916.18" y2="649.76" fill="none" stroke="#2e2d75" stroke-miterlimit="10" stroke-width="2"/><path d="M930.07,638.86s.75,6.81,4.44,9.55" fill="none" stroke="#2e2d75" stroke-miterlimit="10" stroke-width="2"/><path d="M992.13,735.16v8.55a3.55,3.55,0,0,1-2,3.2l-3.31,1.58-3.42,6.64" fill="none" stroke="#2e2d75" stroke-miterlimit="10" stroke-width="2"/><line x1="985.92" y1="744.99" x2="980.24" y2="755.13" fill="none" stroke="#2e2d75" stroke-miterlimit="10" stroke-width="2"/><line x1="983.83" y1="743.75" x2="977" y2="754.48" fill="none" stroke="#2e2d75" stroke-miterlimit="10" stroke-width="2"/><line x1="982" y1="742.36" x2="977" y2="749.21" fill="none" stroke="#2e2d75" stroke-miterlimit="10" stroke-width="2"/><path d="M983.38,732.42,982,739.26s-3.8,1-4.51,3.66" fill="none" stroke="#2e2d75" stroke-miterlimit="10" stroke-width="2"/><path d="M1022.81,810.63s-16,34.28-25,45.8l-19.09-4.78,5.07-40.52" fill="none" stroke="#2e2d75" stroke-miterlimit="10" stroke-width="2"/><path d="M854.12,706.59s-5.8,41.82,3.33,79.2l17.87,3.48S887,749,886.79,740.32" fill="none" stroke="#2e2d75" stroke-miterlimit="10" stroke-width="2"/><path d="M883.47,758.73s26.11,10.45,49.51,12.53" fill="none" stroke="#2e2d75" stroke-miterlimit="10" stroke-width="2"/><path d="M860.65,786.41l.49,5.25-3,12.14a4.5,4.5,0,0,0,5.41,5.46l1.45-.35a8,8,0,0,0,6.12-6.81l1.22-9.63v-3.78" fill="none" stroke="#2e2d75" stroke-miterlimit="10" stroke-width="2"/><path d="M982.14,852.34l-.36,5.26-4.89,11.51a4.5,4.5,0,0,0,4.47,6.25l1.49-.11A8,8,0,0,0,990,869.5l2.74-9.31.79-4.85" fill="none" stroke="#2e2d75" stroke-miterlimit="10" stroke-width="2"/><polygon points="854.9 706.99 858.2 706.03 867.53 708.34 876.13 712.3 889.16 721.4 903.04 734.74 914.97 747.6 924.38 759.68 931.7 770.2 926.79 770.2 907.65 767.14 883.47 759.68 875.81 789.27 857.21 784.78 853.58 766.66 852.3 724.52 854.9 706.99" fill="#302d77"/><polygon points="983.83 811.78 979.5 851.13 997.23 855.75 1006.19 844.51 1021.62 811.78 1007.59 813.42 992.82 813.42 983.83 811.78" fill="#302d77"/><path d="M1745.86,537.29V615s17.53,73.37,61.06,134.56a9.4,9.4,0,0,0,3.34,2.89l9,4.59a9.31,9.31,0,0,0,9.91-.89l15.39-11.75a9.24,9.24,0,0,0,3.5-5.67c2.24-11.94,8.91-52,4.9-86.53a17.64,17.64,0,0,0-6.92-12c-10.25-7.74-33.81-23.3-70.21-34.73,0,0-10-22.46-5.4-47.83s71.53-35.35,81.1-27.45,31.15,24.12,31.15,24.12,12.85-21.21,0-29.11S1829,486,1829,486l-2.19-.71a10.19,10.19,0,0,0-9.78,2c-9.83,8.45-35.57,29.11-64.66,40.45A10.26,10.26,0,0,0,1745.86,537.29Z" fill="none" stroke="#2e2d75" stroke-miterlimit="10" stroke-width="2"/><path d="M1773.7,621.43s25.42,81.57,49.49,128.07" fill="none" stroke="#2e2d75" stroke-miterlimit="10" stroke-width="2"/><path d="M1720.68,708.93A39.32,39.32,0,0,1,1760,669.66a4.86,4.86,0,0,1,.54,0l1,1.91c-.51,0-1,0-1.54,0a37.39,37.39,0,1,0,31,58.3l1,1.86c-7.32,10.84-18.94,16.51-32,16.51A39.32,39.32,0,0,1,1720.68,708.93Z" fill="#2e2d75"/><path d="M1735.85,708.93a24.13,24.13,0,0,1,24.1-24.11c3.25,0,4.85,0,7.82,1.3l.83,2.33A22.22,22.22,0,1,0,1781.34,715l1.27,2.19C1779.68,727.51,1770.69,733,1760,733A24.13,24.13,0,0,1,1735.85,708.93Z" fill="#2e2d75"/><path d="M1771.93,492.39a23.11,23.11,0,1,1,10-12.39" fill="none" stroke="#2e2d75" stroke-miterlimit="10" stroke-width="2"/><path d="M1783.9,502.49A38.3,38.3,0,1,1,1794,490.24" fill="none" stroke="#2e2d75" stroke-miterlimit="10" stroke-width="2"/><path d="M1789.54,503.48l-32.7-27a5.34,5.34,0,0,1-.73-7.52h0a5.35,5.35,0,0,1,7.52-.73l34.15,28.16" fill="none" stroke="#2e2d75" stroke-miterlimit="10" stroke-width="2"/><path d="M1893.09,533.73c0-2,.09-4.22.27-6.59l0-.3.2-.23c.29-.35,7.28-8.61,18.6-9.84l.89-.1.14.89c.07.43,2,9.25-1.46,23.12l-2.18,1a70.13,70.13,0,0,0,1.89-23c-9.06,1.35-15.11,7.59-16.24,8.84-1.77,23.82,6.73,27.94,9.1,28.62.32-.66.63-1.32.93-2l1.72.77c-.41.89-.83,1.79-1.28,2.69l-.29.57-.63,0C1904.25,558.19,1893.09,557,1893.09,533.73Z" fill="#2e2d75"/><path d="M1950,677.5l-34-43.89-16.34-50.83c4.06-6.77,11.84-8.46,18.09-9.49a10.36,10.36,0,0,0,8.1-5.91l9,58.17,28.18,44.1s6.21,8.43,0,17.24" fill="none" stroke="#2e2d75" stroke-miterlimit="10" stroke-width="2"/><path d="M1936.27,659.72l-1.41,1.63a12.67,12.67,0,0,1-9,2.12c-9.07-.89-47.4-14.19-47.4-14.19-3.55,9.16-5.32,17.74,0,36.19a102.6,102.6,0,0,1,3.29,35.95c13-8,49-12.72,68.26-16.26s18.85-18.27,18.85-18.27.6-6.91-4.89-15.62" fill="none" stroke="#2e2d75" stroke-miterlimit="10" stroke-width="2"/><polyline points="1881.89 705.3 1876.77 705.3 1875.14 666.6" fill="none" stroke="#2e2d75" stroke-miterlimit="10" stroke-width="2"/><path d="M1876.77,705.3s-21.76,5.31-21.06-7.62c.57-10.6,2.62-62.55,3.34-81,.16-4.08.26-6.53.26-6.53" fill="none" stroke="#2e2d75" stroke-miterlimit="10" stroke-width="2"/><path d="M1859.17,613.51l-70.39-12.89s-1.79-30.9,0-36.71L1869.57,592s5.11,1.21,5.57,9.58,2.38,50.36,2.38,50.36" fill="none" stroke="#2e2d75" stroke-miterlimit="10" stroke-width="2"/><path d="M1785.19,578l1,18.34-8.88,2.94a3.19,3.19,0,0,1-3.63-2.79c-.44-3.21-1.61-39.88-1.61-39.88s3.2-5.53,5.24,0S1785.19,578,1785.19,578Z" fill="#302d77" stroke="#2e2d75" stroke-miterlimit="10" stroke-width="2"/><polyline points="1924.3 569.83 1922.02 552.66 1917.79 540.68 1907.65 545.53 1905.22 551.3" fill="none" stroke="#2e2d75" stroke-miterlimit="10" stroke-width="2"/><polyline points="1914.76 546.14 1910.34 547.92 1907.88 553.23" fill="none" stroke="#2e2d75" stroke-miterlimit="10" stroke-width="2"/><polyline points="1914.76 549.78 1912.66 550.99 1911.58 554.63" fill="none" stroke="#2e2d75" stroke-miterlimit="10" stroke-width="2"/><line x1="1913.79" y1="574.05" x2="1914.76" y2="556.29" fill="none" stroke="#2e2d75" stroke-miterlimit="10" stroke-width="2"/><path d="M1858.12,640.14s-4.91-5.37-10.52,0,.76,96.77.76,96.77,6.3,4.52,7.33-5.3,0-36.5,0-36.5Z" fill="#302d77" stroke="#2e2d75" stroke-miterlimit="10" stroke-width="2"/><path d="M1912.64,523.55s-14.19,5-18.49,10.55v-6.25l4.17-4.3,6.9-4.3,6.1-1h1.32Z" fill="#302d77"/><path d="M1720.68,769.33V718.2a90,90,0,0,0,9.3,22.22c6.33,10.32,8,20.85-2.54,19,0,0,13.94,20.5,5.92,21.35s-12.68-6.55-12.68-6.55Z" fill="#302d77" stroke="#2e2d75" stroke-miterlimit="10" stroke-width="2"/><path d="M1720.68,530.71V479.59a89.83,89.83,0,0,0,9.3,22.21c6.33,10.32,8,20.86-2.54,19,0,0,13.94,20.51,5.92,21.35s-12.68-6.55-12.68-6.55Z" fill="#302d77" stroke="#2e2d75" stroke-miterlimit="10" stroke-width="2"/><path d="M634.71,921H552.37s-77.79-18.58-142.66-64.73a9.88,9.88,0,0,1-3.06-3.55l-4.87-9.5a9.87,9.87,0,0,1,.94-10.51l12.46-16.31a9.86,9.86,0,0,1,6-3.72c12.65-2.37,55.08-9.45,91.73-5.19a18.7,18.7,0,0,1,12.76,7.33c8.21,10.88,24.71,35.85,36.82,74.44,0,0,23.81,10.58,50.71,5.73s37.48-75.84,29.1-86-25.57-33-25.57-33,22.48-13.62,30.86,0,41.45,56.84,41.45,56.84l.75,2.32a10.82,10.82,0,0,1-2.09,10.37c-9,10.42-30.86,37.71-42.89,68.55A10.86,10.86,0,0,1,634.71,921Z" fill="#fff" stroke="#2e2d75" stroke-miterlimit="10" stroke-width="2"/><path d="M545.51,891.52S459,864.57,409.73,839.05" fill="none" stroke="#2e2d75" stroke-miterlimit="10" stroke-width="2"/><path d="M452.74,947.74a41.69,41.69,0,0,0,41.64-41.64,5.42,5.42,0,0,0,0-.57l-2-1.06c0,.54,0,1.08,0,1.63a39.64,39.64,0,1,1-61.8-32.87l-2-1.07c-11.5,7.77-17.51,20.08-17.51,33.94A41.69,41.69,0,0,0,452.74,947.74Z" fill="#2e2d75"/><path d="M452.74,931.66A25.59,25.59,0,0,0,478.3,906.1c0-3.45,0-5.14-1.37-8.29l-2.48-.87a23.32,23.32,0,0,1,1.85,9.16,23.56,23.56,0,1,1-30-22.67L444,882.08c-10.93,3.1-16.8,12.64-16.8,24A25.59,25.59,0,0,0,452.74,931.66Z" fill="#2e2d75"/><path d="M682.32,893.4a24.54,24.54,0,1,0,13.13-10.56" fill="none" stroke="#2e2d75" stroke-miterlimit="10" stroke-width="2"/><path d="M671.61,880.71a40.52,40.52,0,1,0,13-10.68" fill="none" stroke="#2e2d75" stroke-miterlimit="10" stroke-width="2"/><path d="M670.55,874.73l28.59,34.67a5.65,5.65,0,0,0,8,.77h0a5.65,5.65,0,0,0,.77-8L678,866" fill="none" stroke="#2e2d75" stroke-miterlimit="10" stroke-width="2"/><path d="M638.49,765c2.14,0,4.47-.09,7-.29l.32,0,.25-.21c.37-.31,9.12-7.72,10.43-19.71l.1-1-.94-.15c-.46-.07-9.8-2.08-24.51,1.54L630,747.48a73.86,73.86,0,0,1,24.35-2c-1.44,9.6-8.05,16-9.37,17.21-25.26,1.88-29.62-7.13-30.34-9.65A131.19,131.19,0,0,1,630,747.48l1.11-2.32a148.54,148.54,0,0,0-18.06,6.43l-.6.3,0,.68C612.56,753.12,613.83,765,638.49,765Z" fill="#2e2d75"/><path d="M525.67,802s5.7,5.21,0,11.16-102.6-.8-102.6-.8-4.79-6.69,5.63-7.78,38.69,0,38.69,0Z" fill="#302d77" stroke="#2e2d75" stroke-miterlimit="10" stroke-width="2"/><path d="M649.28,744.22s-5.25,15-11.18,19.61h6.62l4.56-4.42,4.56-7.32,1.1-6.46v-1.41Z" fill="#302d77"/><polygon points="1371.9 664.22 1321.3 664.22 1321.3 654.74 1371.9 657.34 1371.9 664.22" fill="#302d77" stroke="#2e2d75" stroke-miterlimit="10" stroke-width="2"/><polygon points="1366.48 656.91 1326.71 654.74 1326.71 645.25 1366.48 646.55 1366.48 656.91" fill="none" stroke="#2e2d75" stroke-miterlimit="10" stroke-width="2"/><polygon points="1361.49 646.12 1331.7 645.25 1331.7 639.24 1361.49 635.77 1361.49 646.12" fill="#302d77" stroke="#2e2d75" stroke-miterlimit="10" stroke-width="2"/><polygon points="1357.04 635.77 1336.15 638.37 1336.15 628.02 1357.04 629.75 1357.04 635.77" fill="none" stroke="#2e2d75" stroke-miterlimit="10" stroke-width="2"/><line x1="1366.49" y1="651.96" x2="1350.44" y2="650.68" fill="none" stroke="#2e2d75" stroke-miterlimit="10" stroke-width="2"/><line x1="1336.15" y1="635.24" x2="1344.52" y2="634.36" fill="none" stroke="#2e2d75" stroke-miterlimit="10" stroke-width="2"/><line x1="941.48" y1="565.62" x2="1423.9" y2="565.62" fill="none" stroke="#2e2d75" stroke-miterlimit="10" stroke-width="2"/><path d="M1078.19,445.69h51.18s5.39,14.84,30.72,24.23l-25.33,29.87-38.58-18.86-36.84,26.22-36.65-16Z" fill="none" stroke="#2e2d75" stroke-miterlimit="10" stroke-width="2"/><line x1="1112.57" y1="469.76" x2="1096.18" y2="480.93" fill="none" stroke="#2e2d75" stroke-miterlimit="10" stroke-width="2"/><path d="M1161.68,360.77l-5,17.46c-1.33,4.64-5.65,7.47-9.65,6.32h0c-4-1.14-6.16-5.83-4.83-10.47l4.91-17-6.71-.65s-15.09,35.74-31.57,26.92L1079.58,442l52.45-1.39s5.11-1.63,3.72-6.73l22-43.16a46,46,0,0,0,3.63-9.72l4.34-17.45Z" fill="#302d77" stroke="#2e2d75" stroke-miterlimit="10" stroke-width="2"/><path d="M1157.93,472.46l24.78,10.86s15.8,4.55,7.9,17.24-29.73,47.34-29.73,47.34-2.71,5,2.32,8.14,19.64,6.22,19.64,6.22,3.83,3.36-1.44,3.36h-38.55s-10.78.47-1.68-11.26,23-48.13,23-48.13" fill="none" stroke="#2e2d75" stroke-miterlimit="10" stroke-width="2"/><line x1="1138.25" y1="495.68" x2="1170.48" y2="507.69" fill="none" stroke="#2e2d75" stroke-miterlimit="10" stroke-width="2"/><line x1="1134.39" y1="563.67" x2="1185.87" y2="563.67" fill="none" stroke="#2e2d75" stroke-miterlimit="10" stroke-width="2"/><line x1="1166.19" y1="557.49" x2="1160.88" y2="563.67" fill="none" stroke="#2e2d75" stroke-miterlimit="10" stroke-width="2"/><polyline points="921.85 556.65 951.21 563.67 974.65 563.67" fill="none" stroke="#2e2d75" stroke-miterlimit="10" stroke-width="2"/><line x1="961.79" y1="554.89" x2="947.4" y2="562.76" fill="none" stroke="#2e2d75" stroke-miterlimit="10" stroke-width="2"/><path d="M1054.78,505.16l-27.07,16.92a7.61,7.61,0,0,1-2.22.94L963.9,538.24s-7.14,2-6.16,7.38,5.17,13.92,6.16,15,6.15,3.09,6.15,3.09-.24,2-6.4,2-10.34-1.15-11.82-5S941,537.5,941,537.5s-4.92-12.56,4.19-13.54,19.69-.25,22.65-2,50.71-21.42,50.71-21.42l9.82-6.92" fill="none" stroke="#2e2d75" stroke-miterlimit="10" stroke-width="2"/><line x1="1129.26" y1="440.76" x2="1126.12" y2="445.69" fill="#302d77" stroke="#2e2d75" stroke-miterlimit="10" stroke-width="2"/><line x1="1082.72" y1="440.76" x2="1079.58" y2="445.69" fill="#302d77" stroke="#2e2d75" stroke-miterlimit="10" stroke-width="2"/><line x1="1140.09" y1="357.07" x2="1072.46" y2="342.96" fill="none" stroke="#2e2d75" stroke-miterlimit="10" stroke-width="2"/><path d="M1108.82,383.31s.33-2.53-4.87-5.75c-4.16-2.58-35.41-20.39-47.7-27.39a8.52,8.52,0,0,1-4.24-8.45h0a15.89,15.89,0,0,1,11.62-13.38L1130,310.46s7-8.27,7.5-8.27h9.2l3.84,3.84" fill="none" stroke="#2e2d75" stroke-miterlimit="10" stroke-width="2"/><polyline points="1075.02 343.5 1134.64 318.09 1140.09 320.59 1144.22 320" fill="none" stroke="#2e2d75" stroke-miterlimit="10" stroke-width="2"/><circle cx="1142.02" cy="311.18" r="6.28" fill="#302d77" stroke="#2e2d75" stroke-miterlimit="10" stroke-width="2"/><line x1="1145.34" y1="306.72" x2="1151.13" y2="309.83" fill="none" stroke="#2e2d75" stroke-miterlimit="10" stroke-width="2"/><line x1="1147.24" y1="312.35" x2="1151.13" y2="313" fill="none" stroke="#2e2d75" stroke-miterlimit="10" stroke-width="2"/><polyline points="1156.03 395.39 1249.49 435.87 1259.7 442.23 1271.06 447.24" fill="none" stroke="#2e2d75" stroke-miterlimit="10" stroke-width="2"/><polyline points="1166.35 365.42 1207.2 403.1 1252.75 430.21 1264.66 430.21 1271.96 432.7" fill="none" stroke="#2e2d75" stroke-miterlimit="10" stroke-width="2"/><line x1="1261.19" y1="439.4" x2="1272.83" y2="444.44" fill="none" stroke="#2e2d75" stroke-miterlimit="10" stroke-width="2"/><line x1="1262.39" y1="436.84" x2="1275.38" y2="442.4" fill="none" stroke="#2e2d75" stroke-miterlimit="10" stroke-width="2"/><line x1="1263.46" y1="433.84" x2="1274.9" y2="438.1" fill="none" stroke="#2e2d75" stroke-miterlimit="10" stroke-width="2"/><line x1="1160.83" y1="361.63" x2="1160.83" y2="351.78" fill="none" stroke="#2e2d75" stroke-miterlimit="10" stroke-width="2"/><path d="M1178.67,333.81l-5,15.61a5.9,5.9,0,0,1-7.17,3.9l-8.19-2.25" fill="none" stroke="#2e2d75" stroke-miterlimit="10" stroke-width="2"/><polyline points="1155.5 345.67 1149.02 357.56 1147.69 357.56" fill="none" stroke="#2e2d75" stroke-miterlimit="10" stroke-width="2"/><path d="M1153.05,345s5.39,4.68,7.22-.72c.64-1.89,1.33-3.88,1.94-5.66a7.78,7.78,0,0,1,8.17-5.19l9.53,1s4.68.3,3.66-4.89-14-8.54-18.52-7.43-10,3.77-10.38,10S1150.6,342.32,1153.05,345Z" fill="#302d77" stroke="#2e2d75" stroke-miterlimit="10" stroke-width="2"/><line x1="419.33" y1="607.25" x2="550.79" y2="607.25" fill="none" stroke="#2e2d75" stroke-miterlimit="10" stroke-width="2"/><line x1="448.09" y1="629.03" x2="579.55" y2="629.03" fill="none" stroke="#2e2d75" stroke-miterlimit="10" stroke-width="2"/><line x1="476.13" y1="580.14" x2="476.13" y2="644.74" fill="none" stroke="#2e2d75" stroke-miterlimit="10" stroke-width="2"/><line x1="497.5" y1="598.01" x2="497.5" y2="651.84" fill="none" stroke="#2e2d75" stroke-miterlimit="10" stroke-width="2"/><line x1="520.98" y1="580.14" x2="520.98" y2="617.82" fill="none" stroke="#2e2d75" stroke-miterlimit="10" stroke-width="2"/><line x1="107.97" y1="903.2" x2="32.07" y2="903.2" fill="none" stroke="#2e2d75" stroke-miterlimit="10" stroke-width="2"/><path d="M336,889.24,178.32,847.47A56,56,0,0,0,108,901.61h0A56,56,0,0,0,177.55,956l158.23-39.53C349.85,912.9,350,893,336,889.24Z" fill="#302d77" stroke="#2e2d75" stroke-miterlimit="10" stroke-width="2"/><circle cx="1191.63" cy="91.8" r="183.65" fill="none" stroke="#2e2d75" stroke-miterlimit="10" stroke-width="2"/><line x1="1663.04" y1="328.88" x2="1465.23" y2="328.88" fill="none" stroke="#2e2d75" stroke-miterlimit="10" stroke-width="2"/><rect x="1496.77" y="89.78" width="57.79" height="239.09" fill="none" stroke="#2e2d75" stroke-miterlimit="10" stroke-width="2"/><polygon points="1567.22 174.1 1484.11 174.1 1487.19 191.57 1564.14 191.57 1567.22 174.1" fill="#302d77" stroke="#2e2d75" stroke-miterlimit="10" stroke-width="2"/><path d="M1475.73,304l-6.09,3.55c-2.83,1.65-4.41,3.84-4.41,6.12v15.2h21v-15.2c0-2.28-1.58-4.47-4.41-6.12Z" fill="#302d77" stroke="#2e2d75" stroke-miterlimit="10" stroke-width="2"/><path d="M1505.2,304l-6.09,3.55c-2.83,1.65-4.41,3.84-4.41,6.12v15.2h21v-15.2c0-2.28-1.58-4.47-4.41-6.12Z" fill="#fff" stroke="#2e2d75" stroke-miterlimit="10" stroke-width="2"/><path d="M1534.67,304l-6.09,3.55c-2.83,1.65-4.41,3.84-4.41,6.12v15.2h21v-15.2c0-2.28-1.58-4.47-4.41-6.12Z" fill="#302d77" stroke="#2e2d75" stroke-miterlimit="10" stroke-width="2"/><path d="M1564.14,304l-6.1,3.55c-2.82,1.65-4.4,3.84-4.4,6.12v15.2h21v-15.2c0-2.28-1.58-4.47-4.41-6.12Z" fill="#fff" stroke="#2e2d75" stroke-miterlimit="10" stroke-width="2"/><path d="M1593.61,304l-6.1,3.55c-2.82,1.65-4.4,3.84-4.4,6.12v15.2h21v-15.2c0-2.28-1.58-4.47-4.41-6.12Z" fill="#302d77" stroke="#2e2d75" stroke-miterlimit="10" stroke-width="2"/><path d="M1623.08,304l-6.1,3.55c-2.82,1.65-4.4,3.84-4.4,6.12v15.2h21v-15.2c0-2.28-1.58-4.47-4.41-6.12Z" fill="none" stroke="#2e2d75" stroke-miterlimit="10" stroke-width="2"/><path d="M1652.55,304l-6.1,3.55c-2.83,1.65-4.4,3.84-4.4,6.12v15.2h21v-15.2c0-2.28-1.57-4.47-4.4-6.12Z" fill="#302d77" stroke="#2e2d75" stroke-miterlimit="10" stroke-width="2"/><path d="M1536.62,50.29c-9.12-3.6-10.95-15.39-10.95-15.39s-1.84,11.79-11,15.39-20.91,8.19-20.91,22.94,8.79,16.55,8.79,16.55h46.15s8.79-1.81,8.79-16.55S1545.73,53.9,1536.62,50.29Z" fill="#302d77" stroke="#2e2d75" stroke-miterlimit="10" stroke-width="2"/><line x1="1516.53" y1="167.96" x2="1516.53" y2="104.21" fill="#fff" stroke="#2e2d75" stroke-miterlimit="10" stroke-width="2"/><line x1="1516.53" y1="247.52" x2="1516.53" y2="202.33" fill="#fff" stroke="#2e2d75" stroke-miterlimit="10" stroke-width="2"/><polyline points="1370.41 1096.24 1517.8 948.86 2029 948.86 2029 1103.92" fill="none" stroke="#2e2d75" stroke-miterlimit="10" stroke-width="2"/><line x1="1845.28" y1="933.13" x2="2338" y2="933.13" fill="none" stroke="#2e2d75" stroke-miterlimit="10" stroke-width="2"/><path d="M1645.37,925.71h-42.43a19.87,19.87,0,0,0-19.87,19.87h51.74c28.22,0,33.21-27.86,33.21-27.86" fill="none" stroke="#2e2d75" stroke-miterlimit="10" stroke-width="2"/><path d="M1761.46,925.71a39.31,39.31,0,0,1,11.87-52.53" fill="none" stroke="#2e2d75" stroke-miterlimit="10" stroke-width="2"/><line x1="1634.81" y1="925.71" x2="1656.05" y2="886.07" fill="none" stroke="#2e2d75" stroke-miterlimit="10" stroke-width="2"/><path d="M1646.12,904.62l-8.76-13.84a29.05,29.05,0,0,0-24.55-13.52h-18.44a3,3,0,0,1-3-3V863.63a7,7,0,0,1,5.79-6.89l17.79-3.12a5.83,5.83,0,0,0,4.55-4c1.72-5.5,7.13-15.87,23.35-15.87a37.6,37.6,0,0,1,20.74,5.68A29.23,29.23,0,0,1,1674,851.66c2.43,5.13,9.45,15.33,26.72,14.8,16.84-.52,33.33-3.94,41-5.74a66.93,66.93,0,0,0,7.08-2.11c10.25-3.66,47.94-15.14,73.14,3.3,39.65,29,18.55,69.4,18.55,69.4s-6,14.27-35.5,14.27c-29.1,0-24.94-8.16-38.69-9.93,0,0,5.11-9.46,20.78-7.54s32.3,8,40.62-6.4" fill="none" stroke="#2e2d75" stroke-miterlimit="10" stroke-width="2"/><path d="M1662.42,848.89l15.35,19s-18.31,9.07-29.47-7.85" fill="none" stroke="#2e2d75" stroke-miterlimit="10" stroke-width="2"/><circle cx="1626.67" cy="851.06" r="3.43" fill="#302d77"/><line x1="1591.39" y1="870.33" x2="1603.24" y2="870.33" fill="none" stroke="#2e2d75" stroke-miterlimit="10" stroke-width="2"/><path d="M1664,928.46s8.1,17.12,23.37,17.12h0a19.87,19.87,0,0,1,19.86-19.87h54.44" fill="none" stroke="#2e2d75" stroke-miterlimit="10" stroke-width="2"/><line x1="1687.32" y1="945.58" x2="1805.01" y2="945.58" fill="none" stroke="#2e2d75" stroke-miterlimit="10" stroke-width="2"/><line x1="1600.2" y1="945.58" x2="1600.2" y2="934.23" fill="none" stroke="#2e2d75" stroke-miterlimit="10" stroke-width="2"/><line x1="1703.56" y1="945.58" x2="1703.56" y2="934.23" fill="none" stroke="#2e2d75" stroke-miterlimit="10" stroke-width="2"/><path d="M1598.7,856.47s-.69,7.49-7.31,9A8.37,8.37,0,0,1,1598.7,856.47Z" fill="#302d77"/><path d="M1786.31,928s2.16,9.32-3.13,14.72l-8.87-5.31-6.94-2,4.1-5.41S1781.29,927.34,1786.31,928Z" fill="#302d77"/><path d="M1235.26,263.46c-.07-.13-6.67-11.36-6.67-11.36l-53.39,4.35-2.45.2a49.15,49.15,0,0,0-5.07,17.25s35.56,4.63,65.21-3.1Z" fill="#302d77" stroke="#2e2d75" stroke-miterlimit="10" stroke-width="0.5"/><path d="M1176.5,243.46s2,5-1.3,13" fill="none" stroke="#2e2d75" stroke-miterlimit="10" stroke-width="2"/><path d="M1225.14,236.88a38.78,38.78,0,0,0,.72,15.22" fill="none" stroke="#2e2d75" stroke-miterlimit="10" stroke-width="2"/><path d="M1167,209.2c3.33,8.13,4.6,34.26,4.6,34.26l56.92-7s-2.85-21-1.22-29" fill="none" stroke="#2e2d75" stroke-miterlimit="10" stroke-width="2"/><path d="M1223.23,198.31l9.4,21.24s1.6-30.55,11.09-26.41c4.49,2.25.8,22,.8,22" fill="none" stroke="#2e2d75" stroke-linejoin="bevel" stroke-width="2"/><path d="M1201.62,171.7c8.87-.2,16.88-.26,20.7-.28a8.49,8.49,0,0,1,6,2.4l16.25,19.93" fill="none" stroke="#2e2d75" stroke-miterlimit="10" stroke-width="2"/><path d="M1152.47,199.41l10.89-22.59a8.48,8.48,0,0,1,5.4-3.22,202.35,202.35,0,0,1,20.25-1.52" fill="none" stroke="#2e2d75" stroke-miterlimit="10" stroke-width="2"/><path d="M1152.84,221.91s-4.47-23.34,1.82-24.39c9.17-1.54,9.06,25.71,9.06,25.71l5.58-23.82" fill="none" stroke="#2e2d75" stroke-miterlimit="10" stroke-width="2"/><path d="M1201.3,170.81l2.11,9.32a5.26,5.26,0,0,1-5,5.48l-3.43.11a5.26,5.26,0,0,1-5.49-5l.23-9.45" fill="none" stroke="#2e2d75" stroke-miterlimit="10" stroke-width="2"/><line x1="1190" y1="172" x2="1189.7" y2="163.39" fill="none" stroke="#2e2d75" stroke-miterlimit="10" stroke-width="2"/><polyline points="1156.56 198.31 1152.13 224.59 1153.75 263.76 1149.54 268.13 1148.84 270.44" fill="none" stroke="#2e2d75" stroke-miterlimit="10" stroke-width="2"/><polyline points="1163.71 223.23 1163.71 225.4 1161.35 264.57 1162.54 268.78 1163.71 272.18" fill="none" stroke="#2e2d75" stroke-miterlimit="10" stroke-width="2"/><polyline points="1239.87 193.47 1245.19 219.38 1243.57 258.56 1247.78 262.93 1248.49 265.24" fill="none" stroke="#2e2d75" stroke-miterlimit="10" stroke-width="2"/><polyline points="1235.69 264.22 1234.12 270.8 1235.69 264.22 1236.08 260.69 1232.81 221.01 1232.81 217.06" fill="none" stroke="#2e2d75" stroke-miterlimit="10" stroke-width="2"/><path d="M1183,140s-2-1,6,4,11,3,12,7-1,9,1,11,3,6,3,6v3.42l18-.42s-10-27-13-36-24-20-34-10-10,15-7,21,5,9,6,14,0,12,0,12h14v-7l-12-20c1-4,5-5,5-6Z" fill="#302d77" stroke="#2e2d75" stroke-miterlimit="10" stroke-width="2"/><path d="M1177.11,144l6.14,15.25a6.62,6.62,0,0,0,8.94,3.7l5.46-2.19" fill="#fff" stroke="#2e2d75" stroke-miterlimit="10" stroke-width="2"/><line x1="926.62" y1="195.91" x2="926.62" y2="8.97" fill="none" stroke="#2e2d75" stroke-miterlimit="10" stroke-width="2"/><path d="M1360.23,565.62s24.92-111.35,16.41-215.6" fill="none" stroke="#2e2d75" stroke-miterlimit="10" stroke-width="2"/><path d="M1366.23,268.15s-51,13-29.91,53.71-5.12,77.35-5.12,77.35-37,53.37,0,87.68S1456.72,502.5,1436.91,436s-27.8-73.75-20.08-109.29S1397.38,258.21,1366.23,268.15Z" fill="none" stroke="#2e2d75" stroke-miterlimit="10" stroke-width="2"/><line x1="2267.57" y1="409.66" x2="1721.62" y2="409.66" fill="none" stroke="#2e2d75" stroke-miterlimit="10" stroke-width="2"/><rect x="1854.01" y="264.54" width="8.24" height="144.94" fill="none" stroke="#2e2d75" stroke-miterlimit="10" stroke-width="2"/><path d="M1858.12,233.31h-17.56c8.09,47.31,17.56,39.57,17.56,39.57s9.48,7.74,17.57-39.57Z" fill="#302d77" stroke="#2e2d75" stroke-miterlimit="10" stroke-width="2"/><path d="M1858.12,221.65s-21.59-.4-33.16,11.17h66.33C1879.72,221.25,1858.13,221.65,1858.12,221.65Z" fill="none" stroke="#2e2d75" stroke-miterlimit="10" stroke-width="2"/><path d="M1205.52,639.65l3.47-19.54,19.78-2.71,4.48,6.61v11l3.74,15.25s-5.35-1.84-14.37,9.82-15.09-14.53-15.09-14.53Z" fill="#fff" stroke="#2e2d75" stroke-miterlimit="10" stroke-width="2"/><path d="M1243.55,654.1s-9.14-8-13.34-1a14.82,14.82,0,0,0-1.73,5.52c-1.89,13.22-4.68,35.09-8.39,53.34-.7,3.43-1.43,6.73-2.19,9.82-4.81,19.56-19.56,81.44-19.56,100.36h58.36V771.45s14.11-3.85,14.11-24.05S1260.22,668.21,1243.55,654.1Z" fill="#2e2d75" stroke="#2e2d75" stroke-miterlimit="10" stroke-width="2"/><path d="M1220.09,711.93l-50.31-21.46V667.59l44,22s7.41-33.38,17.74-38.08" fill="none" stroke="#2e2d75" stroke-miterlimit="10" stroke-width="2"/><path d="M1217.8,718.81,1168.58,751a43.21,43.21,0,0,0-14,35.55l7.65,90.67h37.32s-7.17-64.13-17.14-91.64c0,0,15.76-6.59,22.52-11.1" fill="none" stroke="#2e2d75" stroke-miterlimit="10" stroke-width="2"/><line x1="1172.52" y1="706.56" x2="1191.26" y2="736.16" fill="none" stroke="#2e2d75" stroke-miterlimit="10" stroke-width="2"/><line x1="1176.71" y1="714.55" x2="1170.79" y2="749.54" fill="none" stroke="#2e2d75" stroke-miterlimit="10" stroke-width="2"/><path d="M1169.24,675.23s-7.08-5.65-12.19,5.63-16.11,42.84-17.56,71.42h27.67" fill="none" stroke="#2e2d75" stroke-miterlimit="10" stroke-width="2"/><path d="M1169.24,670.1s-10.92-7.84-14.23,5.08c0,0-.83,8.24-.45,12" fill="none" stroke="#2e2d75" stroke-miterlimit="10" stroke-width="2"/><path d="M1156,771.23h-33s-.68-4,11.77-7.39,15.12-11.56,15.12-11.56" fill="none" stroke="#2e2d75" stroke-miterlimit="10" stroke-width="2"/><path d="M1187.07,877.6s2.63,11.56,2.7,18.27h-35.89s.2-3.58,10.53-5.45,11.43-12.82,11.43-12.82Z" fill="#fff" stroke="#2e2d75" stroke-miterlimit="10" stroke-width="2"/><path d="M1241.39,652.51s-7.9-4.57-5.77-16,4.36-21.58-7.72-25.83-19.68,6.71-19.68,6.71-5.59,8.38-5.7,15.2-.78,20.46-9.72,23.59-20,7.24-19.09,13.35" fill="none" stroke="#2e2d75" stroke-miterlimit="10" stroke-width="2"/><path d="M1236.25,646l-11.76-12.48s8.42-4.72,3.71-9.44-8.29,5.53-8.29,5.53L1209,623.44v13.69s-.07,8.69,4.58,9.3,10.51-1.55,10.51-1.55v14.46" fill="none" stroke="#2e2d75" stroke-miterlimit="10" stroke-width="2"/><path d="M1235.22,644.28l-10-10.75,4.48-4.54-.58-4.55-3.9-1.85-4.16,3.32-1.77,3.33-10.77-6.43.45,17.44,2.49,6,5.63.83,6.65-1.79-.06,5.57v9l-3.2,6.47-3.39,9.34-2.18,7.81-1.47,5.31-39.41-19.46.64-4.15,7.55-5.19,10.36-4.25,3.52-.8,3.2-5.51,3-11.47.1-8.23,4.16-10.37,4.16-5.12,5.25-3.39s9.21-3.52,16.38,1.6,3.91,18.11,3.91,18.11l-1.35,9.19Z" fill="#2e2d75"/><path d="M1246,801.49h0a11.23,11.23,0,0,1-11.23,11.23h-17" fill="none" stroke="#2e2d75" stroke-miterlimit="10" stroke-width="2"/><polyline points="-442.66 720.81 -186.9 720.81 -131.16 720.81 -131.16 661.49 -75.43 661.49 -75.43 602.17 -19.69 602.17 -19.69 542.84 36.04 542.84 -19.02 542.94 36.71 542.94 36.71 483.61 92.45 483.61 92.45 424.29 148.18 424.29 148.18 364.97 267.56 364.97" fill="none" stroke="#2e2d75" stroke-miterlimit="10" stroke-width="2"/><path d="M517.34,394.43,513,405.92a3.33,3.33,0,0,0-.13,1.95l6.8,28.6a31.9,31.9,0,0,0,0,4.31c.19.87,2.07,5.28,2.07,5.28l1.58-1.85,1.38-4.14-1.05-2.48,1.05-9.24-3-18.34,5-9.23Z" fill="#fff" stroke="#2e2d75" stroke-miterlimit="10" stroke-width="2"/><path d="M539.86,459.37s1.43,5.91,23.63,7h9.61l4.67,46.12s8.75-.93,12.68-.85,1.11.16,1.11.16l-1.27-55a10.73,10.73,0,0,0-6.93-9.22l-23-8.63L525,435.78a100.56,100.56,0,0,0-6,26.14c-1,13.69-2.45,87.8-4.62,89.83,0,0,9.89,2.75,15.86,2.75l14.48-94.25" fill="#302d77" stroke="#2e2d75" stroke-miterlimit="10" stroke-width="2"/><path d="M527.64,426.5s-1.1,6.36-2,8.23l31.89,4.49Z" fill="#fff" stroke="#2e2d75" stroke-miterlimit="10" stroke-width="2"/><path d="M566.05,395.26l2.76,13.1,11.72-9.65-5.71-19.85a20.6,20.6,0,0,0-15.75-12.64,77.84,77.84,0,0,0-17.45-.82,20.75,20.75,0,0,0-17,10.94l-9.07,17,11.21,7.41,1.48-14s-3.2,40.66-4.93,50.5c0,0,37.59-1.73,42.74,3.45l.1-45.71" fill="#fff" stroke="#2e2d75" stroke-miterlimit="10" stroke-width="2"/><path d="M566.9,347.58h0a13.5,13.5,0,0,0-12.53-13.46l-1.06-.07a13.48,13.48,0,0,0-14,10c-1.74,6.54.31,16.66-5,22.29-5.71,6.07-4.18,10.55-1.5,13.43a13,13,0,0,0,8.89,4l16.74.53c7.29.55,12.2-5.72,10.86-12.91A150.29,150.29,0,0,1,566.9,347.58Z" fill="#302d77" stroke="#2e2d75" stroke-miterlimit="10" stroke-width="2"/><path d="M591.69,521.82s.92-8-7.09-8-7.84,8-7.84,8Z" fill="#302d77" stroke="#2e2d75" stroke-miterlimit="10" stroke-width="2"/><path d="M527.74,564.5s.92-8-7.09-8-7.84,8-7.84,8Z" fill="#302d77" stroke="#2e2d75" stroke-miterlimit="10" stroke-width="2"/><line x1="589.32" y1="512.23" x2="589.32" y2="515.25" fill="none" stroke="#2e2d75" stroke-miterlimit="10" stroke-width="2"/><line x1="579.43" y1="512.23" x2="579.43" y2="515.25" fill="none" stroke="#2e2d75" stroke-miterlimit="10" stroke-width="2"/><line x1="526.95" y1="553.87" x2="525.49" y2="557.52" fill="none" stroke="#2e2d75" stroke-miterlimit="10" stroke-width="2"/><line x1="516.82" y1="551.81" x2="516.41" y2="557.52" fill="none" stroke="#2e2d75" stroke-miterlimit="10" stroke-width="2"/><path d="M569.55,407.75l1.33,6.12,11.72,28.27,1.08,3.24a.28.28,0,0,0,.54,0c.3-1,.91-2.32,1.82-1.86,1.38.69,2.07.69,3.45,1.38.62.3,3.45,1.37,3.45.69s-.84-3.52-2.07-4.14-3.45-1.38-3.45-2.07-7.58-27.57-7.58-27.57l-2.36-10.59Z" fill="#fff" stroke="#2e2d75" stroke-miterlimit="10" stroke-width="2"/><rect x="-133.44" y="-0.55" width="221.16" height="316.02" fill="none" stroke="#2e2d75" stroke-miterlimit="10" stroke-width="2"/><rect x="-139.7" y="315.47" width="233.67" height="13.14" fill="#302d77" stroke="#2e2d75" stroke-linejoin="round" stroke-width="2"/><path d="M-133.44,328.61s106.34,37.49,221.16,0" fill="none" stroke="#2e2d75" stroke-miterlimit="10" stroke-width="2"/><polygon points="137.84 -0.68 87.72 55.86 87.72 74.56 137.84 18.03 137.84 -0.68" fill="none" stroke="#2e2d75" stroke-miterlimit="10" stroke-width="2"/><rect x="-26.99" y="335.25" width="12.83" height="77.15" transform="translate(353.25 394.4) rotate(90)" fill="none" stroke="#2e2d75" stroke-miterlimit="10" stroke-width="2"/><line x1="42.41" y1="101.02" x2="42.41" y2="34.64" fill="#302d77" stroke="#2e2d75" stroke-linejoin="round" stroke-width="2"/><line x1="988" y1="1099" x2="988" y2="987" fill="none" stroke="#2d2f75" stroke-miterlimit="10" stroke-width="2"/><path d="M1583.51,404.77s64.08,12.31,85.16,63.73l-9,10.85s-31.39-38.72-56.72-38.63" fill="#fff" stroke="#2e2d75" stroke-miterlimit="10" stroke-width="2"/><path d="M1569.91,544.11l40.1,47.34a23.33,23.33,0,0,0,8.56,7.83l65,31.35,17-10.44-60.9-46.81a23.09,23.09,0,0,1-5.88-7.63l-14.57-30.32a10.09,10.09,0,0,1-1-4.8c.2-4.53-.31-3.2-5.3-17.63" fill="none" stroke="#2e2d75" stroke-miterlimit="10" stroke-width="2"/><path d="M1549,526l-33.62,22.9a27,27,0,0,0-5.84,16.75l-20,62.35,23.1,2.63s26.32-55.76,29.2-57.13,34.83-19.06,34.83-19.06" fill="none" stroke="#2e2d75" stroke-miterlimit="10" stroke-width="2"/><line x1="1572.52" y1="402.03" x2="1571.82" y2="390.63" fill="#302d77" stroke="#2e2d75" stroke-miterlimit="10" stroke-width="2"/><line x1="1557.15" y1="407.63" x2="1553.11" y2="396.18" fill="#302d77" stroke="#2e2d75" stroke-miterlimit="10" stroke-width="2"/><path d="M1560.4,394.34l-8.76,2.25a6.74,6.74,0,0,1-8.25-5.1l-4.92-22.63" fill="none" stroke="#2d2f75" stroke-miterlimit="10" stroke-width="2"/><path d="M1672.18,482.48s-5.09-.26-.69,2.12,10.18.51,6.52,3.08-2.53,3.4-4.65,2.71-3,.44-5.24-1.24-4.25-1.4-4.55-3.37-3.2-6.53-3.2-6.53l8.91-9.49,9.53,9.71s4.84,5.35,5,6.34a10.3,10.3,0,0,1-.55,3.11l-5.83-5.2s-2.94-2.06-2.6-1.87S1672.18,482.48,1672.18,482.48Z" fill="#fff" stroke="#2e2d75" stroke-miterlimit="10" stroke-width="2"/><path d="M1460.31,483c-1.61-.26-11.68-5.62-11-1.56s2,4.57,2,4.57a17.73,17.73,0,0,1-5,1.13c-3.15.31-9.25-3.54-6.8,1.94s2.26,9.95,6.72,10.14S1462.9,495,1462.9,495Z" fill="#fff" stroke="#2e2d75" stroke-miterlimit="10" stroke-width="2"/><path d="M1493,631l18,2s5,7,3,12-1,1-1,1l-2.74,1.91h-33.78A4.72,4.72,0,0,1,1479,642C1483,640,1492,636,1493,631Z" fill="#302d77" stroke="#2e2d75" stroke-miterlimit="10" stroke-width="2"/><path d="M1688,631l13-8s6,0,8,8l-14,13s-10,3-14,3-2-5,0-6S1688,634,1688,631Z" fill="#302d77" stroke="#2e2d75" stroke-miterlimit="10" stroke-width="2"/><path d="M1546.36,370.51s-6,4.06-10.72-3.88-.54-11.39-.54-11.39a22.46,22.46,0,0,1,8.56-2.78c5.06-.59,7.89,1.64,10.74.72s1.29-2.52,7-1.21,7.28-.26,9.46,3.24,2.5,4.44,4.35,10.15,1.21,7,1.8,12-3.19,3.14-2.29,9.15.47,7.91-2.15,6.31-3.29,2.82-4.53-1l-4.63-14.27c-1.23-3.81-.52-14.55-4.68-7.94s.23,10.43-2.93,10.41-2.52-1.29-4.09-2.88S1550.16,369.27,1546.36,370.51Z" fill="#302d77" stroke="#2e2d75" stroke-miterlimit="10" stroke-width="2"/><path d="M1544,425s8-23,30.21-22.34c14.61.43,27.54,4.53,28.62,31.72s-2.49,41.59,3.84,49.68,11.6,25,11.6,25-32.35,27.71-69.4,19.08c0,0,.93-43.73-7.76-71.2" fill="#fff" stroke="#2e2d75" stroke-miterlimit="10" stroke-width="2"/><path d="M1569,446.06c-25.74,38.95-105.6,51.19-105.6,51.19l-3.58-16.69c56.21-14.93,92.77-66.39,92.77-66.39s12.1-10.38,21.43-.84" fill="#fff" stroke="#2e2d75" stroke-miterlimit="10" stroke-width="2"/><polyline points="61.44 796.45 134.74 796.45 134.74 766.55 169.98 766.55 169.98 737.29 204.48 737.29 204.48 709.39" fill="none" stroke="#2e2d75" stroke-miterlimit="10" stroke-width="2"/><polyline points="110.8 796.45 110.8 645.44 28.35 645.44 28.35 772.93" fill="none" stroke="#2e2d75" stroke-miterlimit="10" stroke-width="2"/><circle cx="102.32" cy="720.95" r="3.22" fill="#302d77"/><path d="M612.51,302.5h0c0,61,56.85,110.5,127,110.5H964.16a119.8,119.8,0,0,0,45.52-8.84,22.53,22.53,0,0,1,14.24-.83c15.75,4.16,61.59,3,61.59,3-17.59,0-27.11-12.21-31.76-21.29a15.38,15.38,0,0,1,1.28-16.14A83.9,83.9,0,0,0,1071,320V302.5c0-61-56.85-110.5-127-110.5H739.49C669.36,192,612.51,241.47,612.51,302.5Z" fill="#fff" stroke="#302d77" stroke-miterlimit="10" stroke-width="2"/><text transform="translate(682.51 288)" font-size="48" fill="#302d77" font-family="Raleway-Medium, Raleway" font-weight="500">Pipe, <tspan x="121.49" y="0" letter-spacing="-0.01em">P</tspan><tspan x="150.91" y="0">ortals </tspan><tspan x="0" y="57.6">and Pitthu</tspan></text><polygon points="1567.22 947.74 1538 898 1555 822 1648 781 1728 801 1817 834 1878 865 1866 921 1846 956 1567.22 947.74" fill="red" opacity="0"/><path d="M1113.51,726.5h0c0,61,56.85,110.5,127,110.5h224.67a119.8,119.8,0,0,0,45.52-8.84,22.53,22.53,0,0,1,14.24-.83c15.75,4.16,61.59,3,61.59,3-17.59,0-27.11-12.21-31.76-21.29a15.38,15.38,0,0,1,1.28-16.14A83.9,83.9,0,0,0,1572,744V726.5c0-61-56.85-110.5-127-110.5H1240.49C1170.36,616,1113.51,665.47,1113.51,726.5Z" fill="#fff" stroke="#302d77" stroke-miterlimit="10" stroke-width="2"/><text transform="translate(1175.51 678.48)" font-size="24" fill="#302d77" font-family="Raleway-Medium, Raleway" font-weight="500"><tspan letter-spacing="-0.01em">A</tspan><tspan x="16.06" y="0">s</tspan><tspan x="27.77" y="0" letter-spacing="-0.03em"> </tspan><tspan x="33.17" y="0" letter-spacing="-0.02em">w</tspan><tspan x="52.44" y="0">e put in maximum </tspan><tspan x="260.49" y="0" letter-spacing="-0.01em">e</tspan><tspan x="274.53" y="0" letter-spacing="-0.01em">ff</tspan><tspan x="288.67" y="0">ort </tspan><tspan x="326.28" y="0" letter-spacing="-0.01em">t</tspan><tspan x="334.56" y="0">o </tspan><tspan x="0" y="28.8">ma</tspan><tspan x="35.47" y="28.8" letter-spacing="-0.03em">k</tspan><tspan x="47.76" y="28.8">e ou</tspan><tspan x="96.81" y="28.8" letter-spacing="-0.02em">r</tspan><tspan x="104.97" y="28.8" xml:space="preserve"> campus </tspan><tspan x="0" y="57.6">p</tspan><tspan x="14.95" y="57.6" letter-spacing="0em">e</tspan><tspan x="29.02" y="57.6">ts-friend</tspan><tspan x="125.23" y="57.6" letter-spacing="-0.02em">l</tspan><tspan x="131.64" y="57.6" letter-spacing="-0.07em">y</tspan><tspan x="143.01" y="57.6">, </tspan><tspan x="154.15" y="57.6" font-family="Raleway-MediumItalic, Raleway" font-style="italic">Sheru </tspan><tspan x="223.08" y="57.6">outside </tspan><tspan font-family="Raleway-MediumItalic, Raleway" font-style="italic"><tspan x="0" y="86.4">Kishan Bhai</tspan><tspan x="128.61" y="86.4" letter-spacing="0em">y</tspan><tspan x="140.52" y="86.4" letter-spacing="-0.05em">a</tspan><tspan x="153.79" y="86.4" letter-spacing="-0.06em">’</tspan><tspan x="157.03" y="86.4">s</tspan><tspan x="168.43" y="86.4" xml:space="preserve" font-family="Raleway-Medium, Raleway" font-style="normal"> shop n</tspan><tspan x="249.93" y="86.4" font-family="Raleway-Medium, Raleway" font-style="normal" letter-spacing="-0.01em">e</tspan><tspan x="263.78" y="86.4" font-family="Raleway-Medium, Raleway" font-style="normal" letter-spacing="-0.02em">v</tspan><tspan x="276.28" y="86.4" font-family="Raleway-Medium, Raleway" font-style="normal">e</tspan><tspan x="290.47" y="86.4" font-family="Raleway-Medium, Raleway" font-style="normal" letter-spacing="-0.02em">r</tspan><tspan x="298.63" y="86.4" font-family="Raleway-Medium, Raleway" font-style="normal"> </tspan></tspan><tspan x="0" y="115.2">minds some </tspan><tspan x="143.25" y="115.2" letter-spacing="0em">c</tspan><tspan x="156.43" y="115.2">ompa</tspan><tspan x="221.23" y="115.2" letter-spacing="-0.01em">n</tspan><tspan x="235.15" y="115.2" letter-spacing="-0.07em">y</tspan><tspan x="246.53" y="115.2" letter-spacing="0em">.</tspan></text><path d="M792,704,776,857l127,50,193,11,225-37,74-17,68-109,126-73,132.62-34.13L1721,530l-12-86-91-94-134-4-60-71s-21-72-29-83-94-75-94-75L1163,75,932,272s47,115,48,119,6,149,6,149L874,599Z" fill="lime" opacity="0"/></svg>