<svg xmlns="http://www.w3.org/2000/svg" viewBox="0 0 1920 1080"><title>illustration-final</title><polyline points="686.87 642.04 300.43 642.04 300.63 470.84 99.59 470.61 99.51 534.99 -73.52 534.78 -73.58 589.56 -208.35 589.4 -208.48 697.69 -929 696.77" fill="none" stroke="#2e2d75" stroke-miterlimit="10" stroke-width="2"/><path d="M54.46,460.29S81.64,470.58,118,470.63c19.35,0,22.93-14,21.08-24.06s-85.85-13.33-93.77-3.12-21,52.4-21.44,71.92l14.53,3.49S59.11,474.63,64.8,463.5" fill="none" stroke="#2e2d75" stroke-miterlimit="10" stroke-width="2"/><path d="M74.58,465.88l-13.27,4.68S82.54,512.44,83,512.75s-14.73,7.69-14.73,7.69L50.07,494.05" fill="none" stroke="#2e2d75" stroke-linejoin="bevel" stroke-width="2"/><path d="M23.84,520.39s7.58,3.23,13.05,1.48c0,0,4.29,4,3.31,9.84-.39,2.16-1,2.16-1,2.16l-28.46,0S1,532.3,4.93,529.41,20.75,523.93,23.84,520.39Z" fill="none" stroke="#2e2d75" stroke-linejoin="bevel" stroke-width="2"/><path d="M72.76,521.42S80,520.3,83,516.24c0,0,5.9,1.14,6.46,6.62a5.92,5.92,0,0,1-2.27,3.87c-1.13.94-10,7.18-10,7.18s-12.19.54-13.89-.5,2-3.21,3.88-4.34S73.67,525.14,72.76,521.42Z" fill="none" stroke="#2e2d75" stroke-linejoin="bevel" stroke-width="2"/><line x1="27.2" y1="516.18" x2="25.97" y2="520.39" fill="none" stroke="#2e2d75" stroke-linejoin="bevel" stroke-width="2"/><line x1="35.93" y1="518.86" x2="35.74" y2="521.22" fill="none" stroke="#2e2d75" stroke-linejoin="bevel" stroke-width="2"/><line x1="72.95" y1="518.34" x2="74.65" y2="520.45" fill="none" stroke="#2e2d75" stroke-linejoin="bevel" stroke-width="2"/><line x1="80.39" y1="514.99" x2="83.01" y2="516.63" fill="none" stroke="#2e2d75" stroke-linejoin="bevel" stroke-width="2"/><path d="M92.07,414.35s3.56,13.11,2.88,22.88" fill="none" stroke="#2e2d75" stroke-linejoin="bevel" stroke-width="2"/><path d="M101,369.13l4.19-5.69,21.09,0v5.69l-9.89,2.34a21.4,21.4,0,0,0-19.41,0c-10.21,5.28-25.17,40.36-25.17,40.36L33,431.31v13.75L76.51,431a10.12,10.12,0,0,0,4.83-3.3l26.81-33.28" fill="none" stroke="#2e2d75" stroke-miterlimit="10" stroke-width="2"/><path d="M137.37,444.45s-3.77-14.83-3.76-25.83,3.18-33.35-7.35-49.46" fill="none" stroke="#2e2d75" stroke-linejoin="bevel" stroke-width="2"/><line x1="109.9" y1="362.79" x2="109.25" y2="357.27" fill="none" stroke="#2e2d75" stroke-linejoin="bevel" stroke-width="2"/><path d="M99.87,337.91,102.69,355a3.24,3.24,0,0,0,3.63,2.69l9-1.18" fill="none" stroke="#2e2d75" stroke-linejoin="bevel" stroke-width="2"/><path d="M106.19,335.64s-7.06,4.72-10.92.71,1.58-7.45,2-7.45-.23-6.55,3.32-6.49,8-5.34,13.08,0,11.89-3.37,12.63,5.94,3.71,10.16,2.5,15.75,1.77,8.3,0,10.16-4.49-.15-4.49-2,.26-3.28-2.2-5.3.35-5.3-3.23-6.3-4.72-3.16-5,.28,1.71,7.3-.58,4.29-1-2.58-2.42-5S108.32,334.5,106.19,335.64Z" fill="#302d77" stroke="#2e2d75" stroke-miterlimit="10" stroke-width="2"/><line x1="124.72" y1="353.57" x2="124.71" y2="362.81" fill="none" stroke="#2e2d75" stroke-linejoin="bevel" stroke-width="2"/><path d="M27.65,440c-.06,1.55-2,6.43-2,6.43h3.71v-2.12" fill="none" stroke="#2e2d75" stroke-miterlimit="10" stroke-width="2"/><polyline points="33.02 443.23 31.16 447.89 27.64 449.43 22.28 447.88 26.07 437.14 33.03 433.35" fill="none" stroke="#2e2d75" stroke-miterlimit="10" stroke-width="2"/><circle cx="1082" cy="649" r="245" fill="none" stroke="#2d2f75" stroke-miterlimit="10" stroke-width="2"/><polyline points="219.4 882.44 555.44 882.44 552.79 747.03 779.12 747.03 779 945.5 1399 945.5" fill="none" stroke="#2e2d75" stroke-miterlimit="10" stroke-width="2"/><path d="M1684.53,293.63l16-2-4.37-60.14a11.71,11.71,0,0,0-12.15-11h0a11.71,11.71,0,0,0-11,13.84Z" fill="#2d2f75" stroke="#2d2f75" stroke-miterlimit="10" stroke-width="2"/><path d="M1724.61,292.79l16.09,1,7.86-65a11.7,11.7,0,0,0-9.85-13.11h0a11.71,11.71,0,0,0-13.46,11.5Z" fill="#2d2f75" stroke="#2d2f75" stroke-miterlimit="10" stroke-width="2"/><path d="M1723.07,306.51s.93-10,8.93-10,9.31,10,9.31,10Z" fill="none" stroke="#2d2f75" stroke-miterlimit="10" stroke-width="2"/><path d="M1684.07,306.51s.93-10,8.93-10,9.31,10,9.31,10Z" fill="none" stroke="#2d2f75" stroke-miterlimit="10" stroke-width="2"/><path d="M1721,152.51l-7-2s-1,6-8,5-7-5-7-5l-3.24-.55" fill="none" stroke="#2d2f75" stroke-miterlimit="10" stroke-width="2"/><path d="M1693.56,217.16s8.44,6.35,16.44,11.35,16.59-6.67,16.59-6.67" fill="none" stroke="#2d2f75" stroke-miterlimit="10" stroke-width="2"/><path d="M1734.47,197s4.83,17.65,8.18,20.11" fill="none" stroke="#2d2f75" stroke-miterlimit="10" stroke-width="2"/><path d="M1712,146.51s13,0,20,8,14,34,14,34l-6,3" fill="none" stroke="#2d2f75" stroke-miterlimit="10" stroke-width="2"/><path d="M1745,189.51l4,15,10,28s8,3,9,6h-11c-2,0-5.84-5.14-5.84-5.14" fill="#fff" stroke="#2d2f75" stroke-miterlimit="10" stroke-width="2"/><path d="M1736,180.51a171.89,171.89,0,0,0,9,24c6,13,6.51,35,6.51,35,.52-14-8.82-29.77-14.51-38-9-13-17-52-17-52" fill="none" stroke="#2d2f75" stroke-miterlimit="10" stroke-width="2"/><path d="M1686,197.51s-16,19-17,31,0,8,0,8a15.27,15.27,0,0,1,6.5-12.87,17.87,17.87,0,0,1,8.64-3.18c2.8-.31,8.13-1.66,14.86-7,14-11-4-65-4-65s-8,7-18-7a90.75,90.75,0,0,1-6-9l-8,18s7,12,17,14C1680,164.51,1690.22,190,1686,197.51Z" fill="none" stroke="#2d2f75" stroke-linejoin="bevel" stroke-width="2"/><line x1="1700" y1="152.51" x2="1701.42" y2="141.19" fill="none" stroke="#2d2f75" stroke-miterlimit="10" stroke-width="2"/><line x1="1712" y1="153.51" x2="1711.48" y2="143.99" fill="none" stroke="#2d2f75" stroke-miterlimit="10" stroke-width="2"/><path d="M1700,119.51l-2.75,13.34a7.6,7.6,0,0,0,5.23,8.66h0a7.6,7.6,0,0,0,9.21-4.27l.31-.73" fill="none" stroke="#2d2f75" stroke-miterlimit="10" stroke-width="2"/><path d="M1704,118.51a45.83,45.83,0,0,0,7,11c5,6-2,32-2,33s-2,9,6,8,15-8,16-12,1-44-21-47c-12-1-14,12-14,12s-1,5,1,9l3-13A10,10,0,0,0,1704,118.51Z" fill="#2d2f75" stroke="#2d2f75" stroke-miterlimit="10" stroke-width="2"/><path d="M1696.78,239c8.6-.06,18,.94,26.49-.21,5.52-.74,6.76-5.56,6.07-10.43-.24-1.7-2.4-2.14-3.67-1.49l-8,4.09,3,3.92,5.79-5c2.12-1.83-.71-5.58-3-3.92-3.76,2.68-7.22,4.59-11.83,3a43.44,43.44,0,0,1-7.91-3.6c-3.24-1.92-9.52-9.94-14.09-6.85-4.09,2.75-.45,7.31,2.6,8.72,3.58,1.66,7.06,2,10.27,4.52a22.52,22.52,0,0,0,8.42,4.15l.67-4.91c-4.62.52-11.26,1.87-15.77.38l1.75,1.75a17.17,17.17,0,0,0,.88-2.47l-3.67,1.5a80.91,80.91,0,0,0,11.52,4.3c3.18.9,4.22-3.64,1.33-4.83s-5.93-2.3-9-3.3-4.37,3.82-1.32,4.82,6,2.09,9,3.31l1.33-4.83a70.61,70.61,0,0,1-10.33-3.79,2.55,2.55,0,0,0-3.67,1.49c-.89,2.64-2.07,5.27.86,6.88,1.76,1,4.45.47,6.38.47a101.15,101.15,0,0,0,10.72-.68c2.65-.3,3.56-4.09.66-4.91-5.18-1.47-8.82-5.31-14-7.07-1.24-.42-2.63-1.37-3.69-.36s.82,1.83,1.94,2.71a40.24,40.24,0,0,0,6.11,4.14c2.21,1.17,4.62,1.79,6.78,3.08a7.85,7.85,0,0,0,3.8,1.58c4.38.28,9.32-2.48,12.74-4.93l-3-3.92-5.79,5c-2.24,1.94.62,5.15,3,3.92l8-4.08-3.68-1.5c.87,6.11-9.18,4.19-13.17,4.22l-14.57.09c-3.22,0-3.22,5,0,5Z" fill="#2d2f75"/><rect x="1492" y="54.51" width="11" height="185" fill="none" stroke="#2d2f75" stroke-miterlimit="10" stroke-width="2"/><line x1="1372" y1="239.51" x2="2027" y2="240" fill="none" stroke="#2d2f75" stroke-miterlimit="10" stroke-width="2"/><polyline points="1356 321 1503 239.51 1503 295.51 1492 306.51 1492 358.51 1481 373.51 1481 430.51 1470 447.51 1470 503.51" fill="none" stroke="#2d2f75" stroke-miterlimit="10" stroke-width="2"/><line x1="1481" y1="373.51" x2="1725" y2="373.51" fill="none" stroke="#2d2f75" stroke-miterlimit="10" stroke-width="2"/><line x1="1934" y1="306.51" x2="1886" y2="306.51" fill="none" stroke="#2d2f75" stroke-miterlimit="10" stroke-width="2"/><line x1="1920" y1="373.51" x2="1944" y2="373.51" fill="none" stroke="#2d2f75" stroke-miterlimit="10" stroke-width="2"/><line x1="1503" y1="295.51" x2="1538" y2="295.51" fill="none" stroke="#2d2f75" stroke-miterlimit="10" stroke-width="2"/><line x1="1492" y1="306.51" x2="1566" y2="306.51" fill="none" stroke="#2d2f75" stroke-miterlimit="10" stroke-width="2"/><line x1="1686" y1="358.51" x2="1825" y2="358.51" fill="none" stroke="#2d2f75" stroke-miterlimit="10" stroke-width="2"/><line x1="1640" y1="306.51" x2="1779" y2="306.51" fill="none" stroke="#2d2f75" stroke-miterlimit="10" stroke-width="2"/><rect x="1503" y="54.51" width="420" height="9" fill="none" stroke="#2d2f75" stroke-miterlimit="10" stroke-width="2"/><line x1="1470" y1="447.51" x2="1614" y2="447.51" fill="none" stroke="#2d2f75" stroke-miterlimit="10" stroke-width="2"/><line x1="1503" y1="503.51" x2="1714" y2="503.51" fill="none" stroke="#2d2f75" stroke-miterlimit="10" stroke-width="2"/><polygon points="1857.38 173.88 1869.27 177.72 1831.33 144.38 1847.47 170.67 1853.7 172.68 1857.38 173.88" fill="#fff" stroke="#2d2f75" stroke-linejoin="round" stroke-width="2"/><polyline points="1831.33 144.38 1815.36 158.67 1842.07 168.65" fill="#fff" stroke="#2d2f75" stroke-miterlimit="10" stroke-width="2"/><polygon points="1831.33 144.38 1842.07 168.65 1842.76 181.23 1847.47 170.67 1831.33 144.38" fill="#fff" stroke="#2d2f75" stroke-linejoin="bevel" stroke-width="2"/><line x1="1842.74" y1="180.89" x2="1838.46" y2="167.3" fill="#fff" stroke="#2d2f75" stroke-miterlimit="10" stroke-width="2"/><polygon points="1552.55 117.92 1543.37 112.07 1586.84 119.06 1560.2 122.81 1555.4 119.74 1552.55 117.92" fill="#fff" stroke="#2d2f75" stroke-linejoin="round" stroke-width="2"/><polyline points="1586.84 119.06 1586.1 137.73 1564.56 125.32" fill="#fff" stroke="#2d2f75" stroke-miterlimit="10" stroke-width="2"/><polygon points="1586.84 119.06 1564.56 125.32 1555.72 131.84 1560.2 122.81 1586.84 119.06" fill="#fff" stroke="#2d2f75" stroke-linejoin="bevel" stroke-width="2"/><line x1="1555.96" y1="131.66" x2="1567.47" y2="126.99" fill="#fff" stroke="#2d2f75" stroke-miterlimit="10" stroke-width="2"/><polygon points="1412.47 130.03 1402.81 138.33 1451.98 123.02 1420.52 123.11 1415.47 127.45 1412.47 130.03" fill="#fff" stroke="#2d2f75" stroke-linejoin="round" stroke-width="2"/><polyline points="1451.98 123.02 1448.03 101.53 1425.15 119.47" fill="#fff" stroke="#2d2f75" stroke-miterlimit="10" stroke-width="2"/><polygon points="1451.98 123.02 1425.15 119.47 1413.84 113.39 1420.52 123.11 1451.98 123.02" fill="#fff" stroke="#2d2f75" stroke-linejoin="bevel" stroke-width="2"/><line x1="1414.14" y1="113.55" x2="1428.24" y2="117.05" fill="#fff" stroke="#2d2f75" stroke-miterlimit="10" stroke-width="2"/><polygon points="1907.94 457.24 1924.76 454.88 1866.12 490.62 1893.92 459.2 1902.72 457.97 1907.94 457.24" fill="#fff" stroke="#2d2f75" stroke-linejoin="round" stroke-width="2"/><polyline points="1866.12 490.62 1848.09 467.73 1886.2 460.63" fill="#fff" stroke="#2d2f75" stroke-miterlimit="10" stroke-width="2"/><polygon points="1866.12 490.62 1886.2 460.63 1890.08 443.94 1893.92 459.2 1866.12 490.62" fill="#fff" stroke="#2d2f75" stroke-linejoin="bevel" stroke-width="2"/><line x1="1889.97" y1="444.4" x2="1881.05" y2="461.59" fill="#fff" stroke="#2d2f75" stroke-miterlimit="10" stroke-width="2"/><line x1="1470" y1="682.51" x2="1693" y2="682.51" fill="none" stroke="#2d2f75" stroke-miterlimit="10" stroke-width="2"/><path d="M1567.5,549l18.64,47.1a5,5,0,0,1,.36,1.88v69h18l9.88-75.08a5.08,5.08,0,0,0-.09-1.82l-15.38-66.31a7.2,7.2,0,0,0-1.63-3.16l-6.15-6.92a7.37,7.37,0,0,0-1.43-1.24c-21.82-14.25-47.2-5.47-47.2-5.47s-4.5,26.5-3.5,45.5c.88,16.73.21,31.91,0,35.3a7.81,7.81,0,0,1-.21,1.37L1521,658.51l18,5,24.76-65.37a6.48,6.48,0,0,0,.35-1.29l6.89-40.34" fill="#2d2f75" stroke="#2d2f75" stroke-miterlimit="10" stroke-width="2"/><path d="M1590,669.51h11s8,7,11,8,7,2,7,3v2h-33S1586,669.51,1590,669.51Z" fill="#2d2f75" stroke="#2d2f75" stroke-miterlimit="10" stroke-width="2"/><path d="M1526,433.51l-6,46s9,48,10,50,9,0,9,0l-.46-39.25" fill="#fff" stroke="#2d2f75" stroke-miterlimit="10" stroke-width="2"/><path d="M1522,661.51l14,4,4,9s10,4,10,6-16,1-16,1l-13-8S1517,666.51,1522,661.51Z" fill="#2d2f75" stroke="#2d2f75" stroke-miterlimit="10" stroke-width="2"/><path d="M1572,437.51l1-6,31.6-30.64a6.88,6.88,0,0,0,1.87-3.25l.78-3.11a6.85,6.85,0,0,0-1-5.54L1579,349.51l-12,4,18,37-27,19-23-1s-15,19-7,49,14,38,15,49c0,0,39-12,54,13,1.15,1.92-16-80-21-91" fill="#fff" stroke="#2d2f75" stroke-miterlimit="10" stroke-width="2"/><path d="M1558,407.51l-5-6h-18c-2,0,0,7,0,7h23.9Z" fill="none" stroke="#2d2f75" stroke-linejoin="round" stroke-width="2"/><polyline points="1544 346.51 1550.19 343.15 1590 321.51 1561 350.51 1550 343.51" fill="#fff" stroke="#2d2f75" stroke-miterlimit="10" stroke-width="2"/><path d="M1569,350.51s-14,2-14-1a12.13,12.13,0,0,1,1-5s2-4,4-4,6-4,6-3a22.69,22.69,0,0,1-1,4s-1,1,1,1h6c1,0,3,3,3,3l1,3Z" fill="#fff" stroke="#2d2f75" stroke-miterlimit="10" stroke-width="2"/><path d="M1532,530.51s0,5,2,7l3,3c1,1,2-11,2-11Z" fill="#fff" stroke="#2d2f75" stroke-miterlimit="10" stroke-width="2"/><line x1="1552" y1="401.51" x2="1549" y2="393.51" fill="#fff" stroke="#2d2f75" stroke-miterlimit="10" stroke-width="2"/><path d="M1550,360.51l5.44,21a8.41,8.41,0,0,1-3.73,9.27l-7.71,4.74-6-8-2-11,7-7Z" fill="#fff" stroke="#2d2f75" stroke-miterlimit="10" stroke-width="2"/><path d="M1552,356.51c-1.34,10.69-5,10-7,15s-3,4-3,11,5,7,5,11-5.46,4-9,4-8-4-8-4-10-11-10-12v-13c0-4,9-14,14-16S1553,348.51,1552,356.51Z" fill="#2d2f75" stroke="#2d2f75" stroke-miterlimit="10" stroke-width="2"/><line x1="1536.96" y1="401.51" x2="1537" y2="395.51" fill="#2d2f75" stroke="#2d2f75" stroke-miterlimit="10" stroke-width="2"/><polygon points="1625 96.51 1672 96.51 1663 97.51 1663 107.51 1625 96.51" fill="none" stroke="#2d2f75" stroke-linejoin="bevel" stroke-width="2"/><path d="M1663,150.51l-9-42c0-1,1-2,1.87-3.06s-1.87-2.94-2.87-3.94-4-1-5-2,2-1,4-1,11,1,14,2,0,1,0,4-4,4-4,4l8,26.17Z" fill="#fff" stroke="#2d2f75" stroke-linejoin="bevel" stroke-width="2"/><polyline points="1399.03 1098 1399.03 945.88 1496.03 945.88 1497.03 945.88 1497.03 848.88 1594.03 848.88 1595.03 848.88 1595.03 751.88 1692.03 751.88 1693.03 751.88 1693.03 654.88 1790.03 654.88 1791.03 654.88 1791.03 557.88 1794.03 557.88 1938 558 1937.53 1042.38 1533.53 1042.38" fill="none" stroke="#2d2f75" stroke-miterlimit="10" stroke-width="2"/><line x1="1693.03" y1="749.39" x2="1693.03" y2="823.38" fill="none" stroke="#2d2f75" stroke-miterlimit="10" stroke-width="2"/><path d="M1874,793.54c0,11-17.1,53.75-17.1,53.75,4.88,6.11,0,0,9.77,13.44s51.31,2.44,51.31,2.44a188.58,188.58,0,0,1,13.43-48.86c11-25.66,6.25-61.73-4.88-68.41-12.22-7.33-24.43-2.45-31.76,2.44s-34.21,20.77-34.21,20.77l-3.66,29.32s23.21-6.11,29.32-6.11,11-8.55,11-8.55" fill="none" stroke="#2d2f75" stroke-miterlimit="10" stroke-width="2"/><path d="M1918,863.17s-2.45,34.21-44,34.21-67.19-63.53-67.19-63.53l-23.21,44h-28.1l27-59.8a27.09,27.09,0,0,1,24.69-15.94h0a27.07,27.07,0,0,1,18.39,7.2l42.3,41.67S1902.08,862,1918,863.17Z" fill="#2d2f75" stroke="#2d2f75" stroke-miterlimit="10" stroke-width="2"/><path d="M1734.75,897.38s-1.25-7.33,3.63-8.56,22-9.77,22-9.77h19.55s6.1,2.45,4.88,8.55,0,9.78,0,9.78Z" fill="none" stroke="#2d2f75" stroke-miterlimit="10" stroke-width="2"/><line x1="1776.25" y1="710.47" x2="1790.91" y2="755.67" fill="none" stroke="#2d2f75" stroke-miterlimit="10" stroke-width="2"/><path d="M1779.92,711.69l4.17-1.39a3.27,3.27,0,0,1,4.15,2.12l10,32.26" fill="none" stroke="#2d2f75" stroke-miterlimit="10" stroke-width="2"/><path d="M1860.27,771.27l-36.38,8.83L1797,756.89s6.11-11,3.66-13.44-3.66-1.22-4.88,2.45-8.55-4.89-13.44-13.44-2.44,3.66-2.44,3.66,0,14.66,7.33,24.44l27.09,37.25a7.44,7.44,0,0,0,6,3.06h3.7a7.39,7.39,0,0,0,2.09-.3l30.74-4.59Z" fill="#fff" stroke="#2d2f75" stroke-miterlimit="10" stroke-width="2"/><line x1="1901.56" y1="744.68" x2="1899.63" y2="734.9" fill="#2d2f75" stroke="#2d2f75" stroke-miterlimit="10" stroke-width="2"/><path d="M1886.2,709.25l4.14,19.07a8.73,8.73,0,0,0,10.86,6.56l13.09-3.64" fill="none" stroke="#2d2f75" stroke-miterlimit="10" stroke-width="2"/><path d="M1902.08,709.25s-6.11,0-9.78,1.22-9.77,0-9.77,0l-2.44-1.22s-2.45-4.89-1.22-7.33-2.45-4.89,1.22-4.89,4.88-1.22,6.11-2.44,0-2.44,3.66-2.44,11-1.22,12.22-1.22,3.59,1,7.33,0c5.1-1.34,13,5.31,8.55,11,0,0-2.45-2.44,0,2.44s3.66,7.33,3.66,9.78,1.22,7.33,0,8.55-2.44,2.44-2.44,3.66,1.22,4.89-1.22,0-1.22,0-3.67-7.33-1.22-7.33-3.66-8.55a58.14,58.14,0,0,0-6.11-2.44s3.66,6.11,2.44,8.55,6.11,6.11,0,2.44-4.88-3.66-6.11-6.11A2.67,2.67,0,0,1,1902.08,709.25Z" fill="#2d2f75" stroke="#2d2f75" stroke-miterlimit="10" stroke-width="2"/><line x1="1917.96" y1="723.91" x2="1919.18" y2="742.23" fill="#2d2f75" stroke="#2d2f75" stroke-miterlimit="10" stroke-width="2"/><rect x="1615" y="893.71" width="102.61" height="3.66" fill="#2d2f75" stroke="#2d2f75" stroke-miterlimit="10" stroke-width="2"/><path d="M1725.87,844.85h-71.24a2.2,2.2,0,0,0-2.15,1.71l-10.6,47.15h75.73l10.4-46.19A2.19,2.19,0,0,0,1725.87,844.85Z" fill="none" stroke="#2d2f75" stroke-miterlimit="10" stroke-width="2"/><line x1="1712.73" y1="849.73" x2="1655.31" y2="870.5" fill="none" stroke="#2d2f75" stroke-miterlimit="10" stroke-width="2"/><line x1="1716.39" y1="857.06" x2="1683.41" y2="885.16" fill="none" stroke="#2d2f75" stroke-miterlimit="10" stroke-width="2"/><path d="M211.36,53.52h531.9c95,0,95,255.85,0,255.85H211.36C123.89,309.37,123.89,53.52,211.36,53.52Z" fill="none" stroke="#2e2d75" stroke-miterlimit="10" stroke-width="2"/><rect x="330.92" y="617.98" width="134.8" height="18.67" rx="5.78" fill="#302d77" stroke="#2e2d75" stroke-miterlimit="10" stroke-width="2"/><rect x="330.92" y="498.11" width="134.8" height="18.67" rx="5.78" fill="#302d77" stroke="#2e2d75" stroke-miterlimit="10" stroke-width="2"/><path d="M340.68,618c22-66.2,0-101.2,0-101.2H456.37s-22,35,0,101.2" fill="#fff" stroke="#2d2f75" stroke-miterlimit="10" stroke-width="2"/><line x1="442.93" y1="522.4" x2="390.14" y2="612.78" fill="none" stroke="#2d2f75" stroke-miterlimit="10" stroke-width="2"/><line x1="426.13" y1="522.4" x2="390.14" y2="583.59" fill="none" stroke="#2d2f75" stroke-miterlimit="10" stroke-width="2"/><path d="M340.25,498.11s58.09-25.7,116.12,0" fill="none" stroke="#2d2f75" stroke-miterlimit="10" stroke-width="2"/><line x1="323.29" y1="15.88" x2="323.29" y2="328.12" fill="#fff" stroke="#2d2f75" stroke-miterlimit="10" stroke-width="2"/><line x1="398.19" y1="15.88" x2="398.19" y2="328.12" fill="#fff" stroke="#2d2f75" stroke-miterlimit="10" stroke-width="2"/><line x1="398.53" y1="69.64" x2="330.87" y2="69.64" fill="none" stroke="#2e2d75" stroke-miterlimit="10" stroke-width="2"/><line x1="398.53" y1="125.9" x2="332.04" y2="126.03" fill="none" stroke="#2e2d75" stroke-miterlimit="10" stroke-width="2"/><line x1="398.53" y1="182.29" x2="331.2" y2="182.41" fill="none" stroke="#2e2d75" stroke-miterlimit="10" stroke-width="2"/><line x1="398.53" y1="238.68" x2="332.04" y2="238.8" fill="none" stroke="#2e2d75" stroke-miterlimit="10" stroke-width="2"/><line x1="398.53" y1="295.07" x2="332.04" y2="295.19" fill="none" stroke="#2e2d75" stroke-miterlimit="10" stroke-width="2"/><polyline points="261.85 330.41 686.87 330.41 686.87 747" fill="none" stroke="#2e2d75" stroke-miterlimit="10" stroke-width="2"/><path d="M539.49,487.85l4.14,23.35,23.67,3.25,5.34-7.9V493.44l4.48-18.23s-6.4,2.19-17.18-11.75-18.05,17.38-18.05,17.38Z" fill="#fff" stroke="#2e2d75" stroke-miterlimit="10" stroke-width="2"/><path d="M585,470.57s-10.94,9.57-16,1.23a17.63,17.63,0,0,1-2.06-6.6c-2.26-15.82-5.61-42-10-63.78-.83-4.1-1.7-8.05-2.61-11.75-5.76-23.38-23.39-97.38-23.39-120h69.77v60.58s16.87,4.6,16.87,28.75S604.9,453.7,585,470.57Z" fill="#2e2d75" stroke="#2e2d75" stroke-miterlimit="10" stroke-width="2"/><path d="M556.91,401.42l-60.15,25.66v27.35l52.57-26.29s8.86,39.92,21.22,45.54" fill="none" stroke="#2e2d75" stroke-miterlimit="10" stroke-width="2"/><path d="M554.17,393.18l-58.86-38.47a51.65,51.65,0,0,1-16.73-42.51l9.15-108.42h44.62s-8.57,76.68-20.49,109.58c0,0,18.85,7.88,26.93,13.27Z" fill="#fff" stroke="#2e2d75" stroke-miterlimit="10" stroke-width="2"/><line x1="500.03" y1="407.84" x2="522.44" y2="372.44" fill="none" stroke="#2e2d75" stroke-miterlimit="10" stroke-width="2"/><line x1="505.05" y1="398.28" x2="497.97" y2="356.45" fill="none" stroke="#2e2d75" stroke-miterlimit="10" stroke-width="2"/><path d="M493.62,353.17H460.54c1.73,34.18,14.87,71.92,21,85.4s14.57,6.73,14.57,6.73" fill="none" stroke="#2e2d75" stroke-miterlimit="10" stroke-width="2"/><path d="M496.1,451.43s-13.05,9.38-17-6.07c0,0-1-9.85-.54-14.35" fill="none" stroke="#2e2d75" stroke-miterlimit="10" stroke-width="2"/><path d="M480.27,330.51H440.82s-.82,4.82,14.07,8.83S473,353.17,473,353.17l19-.86S481.69,341,480.27,330.51Z" fill="#2e2d75" stroke="#2e2d75" stroke-miterlimit="10" stroke-width="2"/><path d="M517.43,203.32s3.15-13.82,3.23-21.84H477.74s.25,4.27,12.59,6.51S504,203.32,504,203.32Z" fill="#2e2d75" stroke="#2e2d75" stroke-miterlimit="10" stroke-width="2"/><path d="M582.38,472.46s-9.44,5.47-6.9,19.11,5.21,25.8-9.23,30.88-23.53-8-23.53-8-6.68-10-6.81-18.18S535,471.78,524.28,468s-23.85-8.66-22.82-16" fill="none" stroke="#2e2d75" stroke-miterlimit="10" stroke-width="2"/><path d="M576.24,480.29l-14.07,14.92s10.08,5.65,4.43,11.29-9.91-6.61-9.91-6.61l-13.06,7.33V490.86s-.08-10.39,5.48-11.12,12.58,1.85,12.58,1.85V464.3" fill="none" stroke="#2e2d75" stroke-miterlimit="10" stroke-width="2"/><path d="M575,482.31l-11.93,12.85,5.35,5.44-.69,5.43-4.66,2.22-5-4-2.11-4L543.1,508l.53-20.85,3-7.12,6.74-1,8,2.14-.08-6.66V463.79l-3.83-7.73-4-11.17-2.6-9.33L549,429.21l-47.14,23.26.77,5,9,6.2L524,468.73l4.21.95,3.83,6.58L535.63,490l.12,9.85,5,12.4,5,6.12,6.27,4s11,4.21,19.59-1.91,4.68-21.65,4.68-21.65l-1.62-11Z" fill="#2e2d75"/><path d="M587.9,294.33h0a13.43,13.43,0,0,0-13.43-13.43h-20.3" fill="none" stroke="#fff" stroke-miterlimit="10" stroke-width="2"/><polyline points="698.65 201.65 698.65 260.56 643.1 260.56" fill="#fff" stroke="#2d2f75" stroke-miterlimit="10" stroke-width="2"/><polyline points="689.81 220.16 689.81 251.72 661.62 251.72" fill="#fff" stroke="#2d2f75" stroke-miterlimit="10" stroke-width="2"/><path d="M713,798.92c-9.23,35.89-26.12,82.82-55.29,111.48" fill="none" stroke="#2d2f75" stroke-miterlimit="10" stroke-width="2"/><path d="M722.77,749A416.92,416.92,0,0,1,713,798.92" fill="none" stroke="#2d2f75" stroke-miterlimit="10" stroke-width="2"/><path d="M712.67,800S638.4,818.7,629.23,937C629.23,937,748.41,910.65,712.67,800Z" fill="none" stroke="#2d2f75" stroke-miterlimit="10" stroke-width="2"/><path d="M1094.09,322.81l59.48,30.79c6.84,3.31,9.12,12.52,5,20.4h0a18.36,18.36,0,0,1-4.89,6,18.71,18.71,0,0,1-21.81.66L1081,347.34Z" fill="none" stroke="#2d2f75" stroke-miterlimit="10" stroke-width="2"/><path d="M1054.91,321.31,994,356.05a15.8,15.8,0,0,0-6.21,21.73h0a17,17,0,0,0,11.41,8.06,21.27,21.27,0,0,0,16.74-3.65l53.07-37.5Z" fill="none" stroke="#2d2f75" stroke-miterlimit="10" stroke-width="2"/><path d="M1028.86,376.07a92.59,92.59,0,0,0,20.92,0c11.76-1.31,13.07-3.93,26.14-7.85s32.68,6.54,32.68,6.54S1089,438.81,1137.36,482s-37.91,62.74-37.91,62.74v-18.3s40.52-10.46,17-27.45-24.83-24.84-47-22.22S1028.86,465,1028.86,465s-47.06-24.83-49.67-77.12L987,381a2,2,0,0,1,3.27,1.08c2.17,10.48,11.32,42.18,43.84,54.11C1034.09,436.2,1040,399,1028.86,376.07Z" fill="#2c3075" stroke="#2d2f75" stroke-miterlimit="10" stroke-width="2"/><path d="M1001.9,352.25s27-33.7,53.11-32.39,45.1-.48,81,24.83" fill="none" stroke="#2d2f75" stroke-miterlimit="10" stroke-width="2"/><path d="M1072,376.07s-6.54,34-3.92,62.74" fill="none" stroke="#2d2f75" stroke-miterlimit="10" stroke-width="2"/><path d="M1078.54,471.49S1074.61,461,1064.16,461s-14.38,9.15-14.38,9.15" fill="none" stroke="#2d2f75" stroke-miterlimit="10" stroke-width="2"/><path d="M1076.27,467.52s-1.66,15.74-.35,22.27" fill="none" stroke="#2d2f75" stroke-miterlimit="10" stroke-width="2"/><path d="M1056.63,466.21A57.67,57.67,0,0,1,1055,491.1" fill="none" stroke="#2d2f75" stroke-miterlimit="10" stroke-width="2"/><path d="M1064.16,488.48l-13,3.61a11.39,11.39,0,0,0-8,13.59l6.65,25.94" fill="none" stroke="#2d2f75" stroke-miterlimit="10" stroke-width="2"/><path d="M1107.29,374.76a54.68,54.68,0,0,1,4.31-7.42" fill="#2c3075" stroke="#2d2f75" stroke-miterlimit="10" stroke-width="2"/><path d="M1072,508.09l-2.61-7.84-1.31,3.92s1.31,10.46,1.31,11.76-2.62,3.93-10.46,9.16-14.38,9.15-14.38,10.45-2.62,3.92,6.54,5.23,7.84,2.62,14.37,3.92,9.15,2.62,15.69-1.3,10.46-9.15,11.76-10.46,2.62-1.31,2.62-6.54-6.54-14.38-7.84-17a101.8,101.8,0,0,1-5.23-11.77c-1.31-3.92-2.62-5.22-2.62-7.84s0-2.61-1.3-5.23a3.71,3.71,0,0,0-6.54,0c-1.31,2.62,0,10.46,1.31,14.38S1078.54,505.48,1072,508.09Z" fill="#2c3075" stroke="#2d2f75" stroke-miterlimit="10" stroke-width="2"/><path d="M1098.14,543.39l-10.45,1.3s-9.15-3.92-10.46-6.53,5.23-1.31,5.23-1.31l7.84,1.31s3.92-3.92,0-5.23-2.61-2.62-2.61-2.62h10.45Z" fill="#fff" stroke="#2d2f75" stroke-linecap="round" stroke-linejoin="round" stroke-width="2"/><path d="M979.19,386.52V374.76s0-9.15,2.61-10.46,5.23-3.92,5.23-2.61-2.61,5.23-2.61,7.84,0,3.92,1.31,6.54,1.3,2.61,1.3,3.92S979.19,386.52,979.19,386.52Z" fill="none" stroke="#2d2f75" stroke-miterlimit="10" stroke-width="2"/><path d="M1082.29,336.8s-12.41,7.4-18.43-2.25,6.7-16.55,6.7-16.55Z" fill="#2c3075" stroke="#2d2f75" stroke-miterlimit="10" stroke-width="2"/><path d="M1080,318s12.38,7.43,6.72,17.3-17.75,1.91-17.75,1.91Z" fill="#2c3075" stroke="#2d2f75" stroke-miterlimit="10" stroke-width="2"/><polyline points="835 320.51 1356 320.51 1356 439" fill="none" stroke="#2d2f75" stroke-miterlimit="10" stroke-width="2"/><path d="M961,833l-2,23,4,72s5,5,14,0l6-63,7-29Z" fill="#fff" stroke="#2d2f75" stroke-miterlimit="10" stroke-width="2"/><path d="M1009,833l7,28,30,61s12-1,16-7l-21-54-4-41Z" fill="#fff" stroke="#2d2f75" stroke-miterlimit="10" stroke-width="2"/><path d="M987,666s-41,19-77-24l-9,21s23,42,96,33c0,0,7-1,10,3" fill="none" stroke="#2d2f75" stroke-miterlimit="10" stroke-width="2"/><path d="M946,667l5.58-7.67a10.84,10.84,0,0,1,6.58-4.25c7.46-1.55,22.88-4.32,28.84-2.08,7.89,3,34.25,25.36,40.74,88.31a40,40,0,0,0,.91,5.56C1034,768,1041,771,1041,771s-24,17-46,10-24-8-31-6a13.58,13.58,0,0,0-9,8s7-23-5-53-12-23-10-38" fill="none" stroke="#2d2f75" stroke-miterlimit="10" stroke-width="2"/><path d="M936.67,690.36S920,722,888,685l-12,11s18.56,46.06,71.78,28.53" fill="none" stroke="#2d2f75" stroke-miterlimit="10" stroke-width="2"/><path d="M957,779s-2,28-7,50c0,0,36,14,61,6s25-12,30-11a51,51,0,0,0,9,1,358.56,358.56,0,0,0-11.1-52.64s-23.11,18.15-52.5,5.89C964,769,957,779,957,779Z" fill="#2c3075" stroke="#2d2f75" stroke-miterlimit="10" stroke-width="2"/><path d="M963,928s-10,10-13,10-5,3-5,7h36s2-13-4-17C977,928,971,933,963,928Z" fill="#2c3075" stroke="#2d2f75" stroke-miterlimit="10" stroke-width="2"/><path d="M1046,922s-1,10-5,15-5,1-5,8l21-1,10-16s2-9-5-13A15.28,15.28,0,0,1,1046,922Z" fill="#2c3075" stroke="#2d2f75" stroke-miterlimit="10" stroke-width="2"/><line x1="961.48" y1="654.42" x2="960" y2="645" fill="#2c3075" stroke="#2d2f75" stroke-miterlimit="10" stroke-width="2"/><line x1="978" y1="652" x2="975" y2="642" fill="#2c3075" stroke="#2d2f75" stroke-miterlimit="10" stroke-width="2"/><path d="M943,617l8,21.78a10.07,10.07,0,0,0,11.57,6.39L968,644" fill="none" stroke="#2d2f75" stroke-miterlimit="10" stroke-width="2"/><path d="M948,614s0,8,17,7c5,2-3,5,10,15s2,20,5,24,5,6,12,7,21,0,20-11-18-22-15-35c1.64-7.09-5-23-10-27-12.12-9.7-15-6-28-5s-19,4-19,9-6,9-4,12,1,7,4,13,10,14,10,14l-6-19S947,619,948,614Z" fill="#2c3075" stroke="#2d2f75" stroke-miterlimit="10" stroke-width="2"/><polygon points="861 681 896 681 878 641 861 681" fill="#2c3075" stroke="#2d2f75" stroke-miterlimit="10" stroke-width="2"/><path d="M886.32,686.54S886,674,884,675s-1,6-3,7-14-1-14-1-3-1,2,4a94,94,0,0,0,9,8Z" fill="#fff" stroke="#2d2f75" stroke-miterlimit="10" stroke-width="2"/><path d="M903,658.3l-9-1.3s-4-6-3-7,3,1,5,2,7-7,3-8-6,4-8,4-1-3,1-5,4-5,7-4,7.43,5,9.71,6Z" fill="#fff" stroke="#2d2f75" stroke-miterlimit="10" stroke-width="2"/><line x1="887" y1="652" x2="915" y2="631" fill="#fff" stroke="#2d2f75" stroke-linecap="round" stroke-linejoin="round" stroke-width="4"/><polyline points="1296 617 1301 611 1301 605 1298 609 1297 610 1294 606 1298 604 1293 602 1289 605 1289 613" fill="#fff" stroke="#2d2f75" stroke-linecap="round" stroke-linejoin="round" stroke-width="2"/><path d="M1147,693s-5.5,31.5.5,78.5c0,0,42,13,61,0,0,0,7-55,11-68" fill="none" stroke="#2d2f75" stroke-miterlimit="10" stroke-width="2"/><path d="M1211,708l61.8-36.13a11.09,11.09,0,0,0,4.64-5.28L1298,618l-11-6-26,36.25a11.14,11.14,0,0,1-5.14,3.94L1219,666l-7.91-4.75a10,10,0,0,0-4.52-1.41l-40.75-2.72a10.05,10.05,0,0,0-3.57.41l-5.33,1.6a10,10,0,0,0-4.92,3.28c-5.77,7.07-22.24,28.34-26.51,45.39a10.8,10.8,0,0,0-.2,4.2l7.71,54,13-2" fill="none" stroke="#2d2f75" stroke-miterlimit="10" stroke-width="2"/><polyline points="1171.98 657.53 1176 652 1198 653 1202.23 659.55" fill="none" stroke="#2d2f75" stroke-miterlimit="10" stroke-width="2"/><path d="M1176.3,821.89l-14.94,38.2a7.4,7.4,0,0,1-.95,1.69L1115,922l-17-8,36.37-64.88a7,7,0,0,0,.83-2.39L1147,771s41,15,62,0l12.75,84.33a8.16,8.16,0,0,1-.19,3.3L1203,928h-21l6.82-73a8.1,8.1,0,0,0-.57-3.8L1169,804" fill="#2c3075" stroke="#2d2f75" stroke-miterlimit="10" stroke-width="2"/><path d="M1184,930h15s9,8,15,9a10.67,10.67,0,0,1,8,6l-39.75.5S1180,940,1184,930Z" fill="none" stroke="#2d2f75" stroke-miterlimit="10" stroke-width="2"/><path d="M1099,918l13,6s1,10,5,13,8,5,9,8c0,0-17,1-24-2s-14-14-14-14S1091,919,1099,918Z" fill="none" stroke="#2d2f75" stroke-miterlimit="10" stroke-width="2"/><line x1="1180" y1="652" x2="1180" y2="646" fill="none" stroke="#2d2f75" stroke-miterlimit="10" stroke-width="2"/><path d="M1197.43,653l1.33-9.42h-8.3s15.41,7.11,20.15-22.52" fill="none" stroke="#2d2f75" stroke-miterlimit="10" stroke-width="2"/><path d="M1215.35,619.82s-7.11,3.56-11.85,2.37-5.93,8.3-5.93,8.3h-2.37s2.37-8.3,0-7.11-4.74,5.92-4.74,11.85,4.74,9.48,0,10.67-3.55,3.55-5.92,2.37-7.11,1.18-9.48-4.74-5.93-21.34-1.19-27.26,9.48-14.23,23.7-11.85S1218.91,610.34,1215.35,619.82Z" fill="#2c3075" stroke="#2d2f75" stroke-miterlimit="10" stroke-width="2"/><polyline points="1136 766 1137 774 1138 782 1144 782 1145 770 1147.26 769.59" fill="none" stroke="#2d2f75" stroke-miterlimit="10" stroke-width="2"/><line x1="1304" y1="611" x2="1284" y2="598" fill="none" stroke="#2d2f75" stroke-linecap="round" stroke-miterlimit="10" stroke-width="4"/><path d="M1154,568s48,5,69,42c0,0,33-21,82,2" fill="none" stroke="#2d2f75" stroke-linecap="round" stroke-linejoin="round" stroke-width="4"/><path d="M1065.7,553l.07.71a6.28,6.28,0,0,1-1.62,4.74c-1.21,1.46-1.88,2.53-1.86,3.76,0,1.39.91,2.31,2.63,2.31a4.89,4.89,0,0,0,2.74-.89l.68,1.71a7.13,7.13,0,0,1-3.89,1.15c-3.13,0-4.58-1.87-4.61-3.94,0-1.86,1-3.21,2.28-4.78a5.35,5.35,0,0,0,1.49-4l0-.71Zm.55-3.83a1.61,1.61,0,0,1-1.61,1.74,1.7,1.7,0,1,1,1.61-1.74Z" fill="#2c3075"/><path d="M1084.25,558.75l.62.63a7.78,7.78,0,0,1,2.18,5.82c0,2.35.2,3.9,1.18,5.07s2.69,1.49,4.34.14a6,6,0,0,0,1.93-3l2,1.1a8.87,8.87,0,0,1-2.81,4.16c-3,2.51-5.87,1.82-7.53-.14-1.48-1.76-1.57-3.86-1.58-6.37a6.67,6.67,0,0,0-1.74-5l-.6-.65Zm-2.5-4.09a2,2,0,1,1-2.87-.31A2,2,0,0,1,1081.75,554.66Z" fill="#2c3075"/><polygon points="1227.47 318.86 1162.59 318.86 1152 224.25 1238.06 224.25 1227.47 318.86" fill="none" stroke="#2d2f75" stroke-miterlimit="10" stroke-width="2"/><rect x="1146.92" y="213.56" width="96.22" height="10.69" fill="#302f77" stroke="#2d2f75" stroke-miterlimit="10" stroke-width="2"/><line x1="1225.15" y1="244.03" x2="1219.27" y2="303.9" fill="#302f77" stroke="#2d2f75" stroke-miterlimit="10" stroke-width="2"/><path d="M1144.51,46.35s45.72,91.74,45.72,170.33" fill="none" stroke="#2d2f75" stroke-miterlimit="10" stroke-width="2"/><path d="M1201.21,218.91s-1.44-72.68,41.93-116" fill="none" stroke="#2d2f75" stroke-miterlimit="10" stroke-width="2"/><path d="M1206.91,172.72s-40.47-81.31,71.76-99.65C1278.67,73.07,1267.56,151.85,1206.91,172.72Z" fill="none" stroke="#2d2f75" stroke-miterlimit="10" stroke-width="2"/><path d="M1135.58,31s-10.6,99.65,45.71,118C1181.29,149,1229.69,82.8,1135.58,31Z" fill="none" stroke="#2d2f75" stroke-miterlimit="10" stroke-width="2"/><line x1="779" y1="945" x2="779" y2="971" fill="none" stroke="#2d2f75" stroke-miterlimit="10" stroke-width="2"/><path d="M222,874.69S198.84,941,127.14,941s-80.41-37-92.44-57.91" fill="none" stroke="#2e2d75" stroke-miterlimit="10" stroke-width="2"/><circle cx="122.02" cy="737.18" r="170.02" fill="#2f2f77" stroke="#2e2d75" stroke-miterlimit="10" stroke-width="2"/><circle cx="122.02" cy="737.18" r="65.55" fill="#fff" stroke="#2e2d75" stroke-miterlimit="10" stroke-width="2"/><path d="M112.82,681.59a56.92,56.92,0,0,1,9.2-.74A56.3,56.3,0,0,1,140.6,684" fill="none" stroke="#2e2d75" stroke-miterlimit="10" stroke-width="2"/><path d="M70.46,714.45a56.55,56.55,0,0,1,22.88-25.77" fill="none" stroke="#2e2d75" stroke-miterlimit="10" stroke-width="2"/><path d="M117.39,793.32a56,56,0,0,1-30.49-12.1" fill="none" stroke="#2e2d75" stroke-miterlimit="10" stroke-width="2"/><path d="M171.71,763.74a56.56,56.56,0,0,1-22.16,22.6" fill="none" stroke="#2e2d75" stroke-miterlimit="10" stroke-width="2"/><path d="M129.13,693.71A43.87,43.87,0,0,1,151,704" fill="none" stroke="#2e2d75" stroke-miterlimit="10" stroke-width="2"/><path d="M85.55,712.48a43.91,43.91,0,0,1,5.72-6.82" fill="none" stroke="#2e2d75" stroke-miterlimit="10" stroke-width="2"/><path d="M78.31,742.6a44.19,44.19,0,0,1-.33-5.42,45.17,45.17,0,0,1,.51-6.73" fill="none" stroke="#2e2d75" stroke-miterlimit="10" stroke-width="2"/><path d="M152.78,768.7a43.94,43.94,0,0,1-21.57,11.56" fill="none" stroke="#2e2d75" stroke-miterlimit="10" stroke-width="2"/><path d="M15.18,770.94a113.5,113.5,0,0,1-.26-69.09" fill="none" stroke="#fff" stroke-miterlimit="10" stroke-width="2"/><path d="M232.37,709.24a113.34,113.34,0,0,1-2.91,63.39" fill="none" stroke="#fff" stroke-miterlimit="10" stroke-width="2"/><path d="M75.12,661.51a88,88,0,0,1,46.53-13.84" fill="none" stroke="#fff" stroke-miterlimit="10" stroke-width="2"/><path d="M35.1,747.83A88.83,88.83,0,0,1,34.51,730" fill="none" stroke="#fff" stroke-miterlimit="10" stroke-width="2"/><path d="M210.71,742a88.05,88.05,0,0,1-16.78,46.09" fill="none" stroke="#fff" stroke-miterlimit="10" stroke-width="2"/><path d="M105.94,876.94a143.48,143.48,0,0,1-22.8-4,141.17,141.17,0,0,1-43.07-19.39" fill="none" stroke="#fff" stroke-miterlimit="10" stroke-width="2"/><path d="M229.54,824.11a141.83,141.83,0,0,1-71.85,48" fill="none" stroke="#fff" stroke-miterlimit="10" stroke-width="2"/><path d="M165.73,603A140.6,140.6,0,0,1,232,651.71" fill="none" stroke="#fff" stroke-miterlimit="10" stroke-width="2"/><path d="M15.19,640.31a141.89,141.89,0,0,1,68.1-40.76" fill="none" stroke="#fff" stroke-miterlimit="10" stroke-width="2"/><path d="M74.06,837.21A110,110,0,0,1,27.5,798.27" fill="none" stroke="#fff" stroke-miterlimit="10" stroke-width="2"/><circle cx="122.02" cy="737.18" r="32.78" fill="none" stroke="#2e2d75" stroke-miterlimit="10" stroke-width="2"/><circle cx="122.02" cy="737.18" r="28.68" fill="#2d2f75" stroke="#2e2d75" stroke-miterlimit="10" stroke-width="2"/><path d="M157.87,890.81s33.8-57.35,15.36-103.44l14.34-6.15s34.74,38.6-4.43,138.27a25.86,25.86,0,0,1-13.88,14.3c-15.16,6.51-45.89,15.71-82.07,4.56C79.52,936,73.92,930,70.44,922.8c-38.55-80.13-1.81-134.41-1.81-134.41l13.45,8.19c-18.44,46.09,11.26,96.28,11.26,96.28" fill="#fff" stroke="#2e2d75" stroke-miterlimit="10" stroke-width="2"/><path d="M110.35,890.81,106.66,900s14.75,13.32,30.73,0l-3.69-9.22" fill="#fff" stroke="#2e2d75" stroke-miterlimit="10" stroke-width="2"/><path d="M173.23,787.37l-4.09-8.2c-2-4.1-2-7.17,1-5.12s1.36,3.29,3.75,3.18,3.42-.11,4.45-4.2,2-14.34,2-14.34,3-3.08,3.56,0a41.78,41.78,0,0,1,.54,8.19c0,3.07,1,4.88,1,7.17,0,3.07,2,7.17,2,7.17Z" fill="#fff" stroke="#2e2d75" stroke-miterlimit="10" stroke-width="2"/><path d="M68.86,788.07s-1.12-5.83-2.15-9.92S64.16,773,64.93,770s3.83-4.09,3.83-1,2,8.26,2.53,9.76-.48,3.55,3.62,3.55,6.14-1,6.14,1-1.37,2.05-1.19,4.1a8.9,8.9,0,0,1-.85,4.09l-1,2Z" fill="#fff" stroke="#2e2d75" stroke-miterlimit="10" stroke-width="2"/><path d="M107.88,898.92a32.7,32.7,0,0,1,14-2.6c3.72.13,7.81.13,9.35-.39,3.07-1,7.17,2.05,10.24-3.07a84.82,84.82,0,0,0,5.25-12,32.58,32.58,0,0,0,2-11.64c-.06-5.89-.61-14-3.18-15.3-4.1-2.05-7.17-10.24-20.48-9.22s-18.44,0-24.59,1c-7.14,1.19-11.26,9.22-9.21,18.43s9.21,37.9,16.38,34.83Z" fill="#fff" stroke="#2e2d75" stroke-miterlimit="10" stroke-width="2"/><path d="M100.51,902.08a23.69,23.69,0,0,1-6.14-7.17" fill="#fff" stroke="#2e2d75" stroke-miterlimit="10" stroke-width="2"/><path d="M157.87,892.86s-2.05,4.1-4.1,5.12" fill="#fff" stroke="#2e2d75" stroke-miterlimit="10" stroke-width="2"/><path d="M1247.51,623.5h0c0,64.34,56.85,116.5,127,116.5h224.67a114.41,114.41,0,0,0,45.52-9.32,21.49,21.49,0,0,1,14.24-.88c15.75,4.39,61.59,3.21,61.59,3.21-17.59,0-27.11-12.88-31.76-22.45a17,17,0,0,1,1.28-17A91.66,91.66,0,0,0,1706,642V623.5c0-64.34-56.85-116.5-127-116.5H1374.49C1304.36,507,1247.51,559.16,1247.51,623.5Z" fill="#fff" stroke="#302d77" stroke-miterlimit="10" stroke-width="2"/><text transform="translate(1309.51 573.48)" font-size="24" fill="#302d77" font-family="Raleway-Medium, Raleway" font-weight="500"><tspan letter-spacing="-0.01em">J</tspan><tspan x="11.47" y="0">ust</tspan><tspan x="46.06" y="0" letter-spacing="-0.03em"> </tspan><tspan x="51.46" y="0">when</tspan><tspan x="113.66" y="0" letter-spacing="-0.03em"> </tspan><tspan x="119.06" y="0" letter-spacing="-0.02em">w</tspan><tspan x="138.34" y="0">e begin </tspan><tspan x="228.45" y="0" letter-spacing="-0.01em">t</tspan><tspan x="236.73" y="0">o think </tspan><tspan x="0" y="28.8">th</tspan><tspan x="22.61" y="28.8" letter-spacing="0em">a</tspan><tspan x="35.81" y="28.8">t</tspan><tspan x="44.26" y="28.8" letter-spacing="-0.03em"> </tspan><tspan x="49.66" y="28.8" letter-spacing="-0.02em">w</tspan><tspan x="68.93" y="28.8">e h</tspan><tspan x="103.34" y="28.8" letter-spacing="-0.02em">a</tspan><tspan x="116.23" y="28.8" letter-spacing="-0.02em">v</tspan><tspan x="128.73" y="28.8">e seen al</tspan><tspan x="229.46" y="28.8" letter-spacing="-0.03em">l</tspan><tspan x="235.6" y="28.8"> </tspan><tspan x="241.68" y="28.8" letter-spacing="-0.01em">o</tspan><tspan x="255.84" y="28.8" letter-spacing="-0.02em">f</tspan><tspan x="263.54" y="28.8" xml:space="preserve"> the </tspan><tspan x="0" y="57.6">campus,</tspan><tspan x="94.92" y="57.6" letter-spacing="-0.03em"> </tspan><tspan x="100.32" y="57.6" letter-spacing="-0.02em">w</tspan><tspan x="119.59" y="57.6">e dis</tspan><tspan x="172.17" y="57.6" letter-spacing="0em">c</tspan><tspan x="185.35" y="57.6" letter-spacing="-0.02em">ov</tspan><tspan x="211.8" y="57.6">e</tspan><tspan x="225.98" y="57.6" letter-spacing="-0.02em">r</tspan><tspan x="234.14" y="57.6" xml:space="preserve"> a n</tspan><tspan x="273.74" y="57.6" letter-spacing="-0.01em">e</tspan><tspan x="287.59" y="57.6" letter-spacing="-0.03em">w</tspan><tspan x="306.62" y="57.6"> </tspan><tspan x="0" y="86.4" letter-spacing="0em">c</tspan><tspan x="13.18" y="86.4">orne</tspan><tspan x="64.61" y="86.4" letter-spacing="-0.02em">r</tspan><tspan x="72.77" y="86.4" xml:space="preserve"> some</tspan><tspan x="141.29" y="86.4" letter-spacing="-0.01em">h</tspan><tspan x="155.18" y="86.4" letter-spacing="-0.02em">w</tspan><tspan x="174.45" y="86.4">e</tspan><tspan x="188.64" y="86.4" letter-spacing="-0.01em">r</tspan><tspan x="197.06" y="86.4">e. Do </tspan><tspan x="259.8" y="86.4" letter-spacing="-0.01em">t</tspan><tspan x="268.08" y="86.4">el</tspan><tspan x="289.12" y="86.4" letter-spacing="-0.03em">l</tspan><tspan x="295.27" y="86.4" xml:space="preserve"> i</tspan><tspan x="306.86" y="86.4" letter-spacing="-0.02em">f</tspan><tspan x="314.56" y="86.4"> </tspan><tspan x="0" y="115.2" letter-spacing="-0.02em">y</tspan><tspan x="12.62" y="115.2">ou find some on</tspan><tspan x="192.48" y="115.2" letter-spacing="-0.03em"> </tspan><tspan x="197.9" y="115.2" letter-spacing="-0.02em">y</tspan><tspan x="210.53" y="115.2">ou</tspan><tspan x="239.33" y="115.2" letter-spacing="-0.02em">r</tspan><tspan x="247.49" y="115.2"> </tspan><tspan x="253.56" y="115.2" letter-spacing="-0.02em">o</tspan><tspan x="267.5" y="115.2">wn. </tspan></text><path d="M1090.51,168.5h0c0,88.64,56.85,160.5,127,160.5h224.67a88.3,88.3,0,0,0,45.52-12.84,16,16,0,0,1,14.24-1.21c15.75,6,61.59,4.42,61.59,4.42-17.59,0-27.11-17.74-31.76-30.93A31,31,0,0,1,1533,265,161.68,161.68,0,0,0,1549,194V168.5C1549,79.86,1492.15,8,1422,8H1217.49C1147.36,8,1090.51,79.86,1090.51,168.5Z" fill="#fff" stroke="#302d77" stroke-miterlimit="10" stroke-width="2"/><text transform="translate(1152.51 74.48)" font-size="24" fill="#302d77" font-family="Raleway-Medium, Raleway" font-weight="500"><tspan letter-spacing="-0.01em">S</tspan><tspan x="14.38" y="0" letter-spacing="-0.01em">t</tspan><tspan x="22.66" y="0">e</tspan><tspan x="36.84" y="0" letter-spacing="-0.02em">p</tspan><tspan x="51.38" y="0" letter-spacing="-0.02em">w</tspan><tspan x="70.66" y="0">el</tspan><tspan x="91.7" y="0" letter-spacing="-0.03em">l</tspan><tspan x="97.85" y="0" xml:space="preserve"> is p</tspan><tspan x="142.17" y="0" letter-spacing="-0.01em">r</tspan><tspan x="150.6" y="0">obab</tspan><tspan x="208.17" y="0" letter-spacing="-0.02em">l</tspan><tspan x="214.58" y="0" letter-spacing="-0.03em">y</tspan><tspan x="227.01" y="0" xml:space="preserve"> the spa</tspan><tspan x="315.91" y="0" letter-spacing="0em">c</tspan><tspan x="329.08" y="0">e </tspan><tspan x="0" y="28.8">whe</tspan><tspan x="48.05" y="28.8" letter-spacing="-0.01em">r</tspan><tspan x="56.47" y="28.8">e </tspan><tspan x="76.73" y="28.8" letter-spacing="-0.01em">e</tspan><tspan x="90.58" y="28.8" letter-spacing="-0.02em">v</tspan><tspan x="103.08" y="28.8">er</tspan><tspan x="125.97" y="28.8" letter-spacing="-0.02em">y</tspan><tspan x="138.6" y="28.8">one </tspan><tspan x="187.39" y="28.8" letter-spacing="0em">c</tspan><tspan x="200.57" y="28.8">omes </tspan><tspan x="0" y="57.6" letter-spacing="-0.01em">t</tspan><tspan x="8.28" y="57.6">og</tspan><tspan x="37.63" y="57.6" letter-spacing="0em">e</tspan><tspan x="51.7" y="57.6">the</tspan><tspan x="88.49" y="57.6" letter-spacing="-0.02em">r</tspan><tspan x="96.65" y="57.6" xml:space="preserve"> f</tspan><tspan x="110.95" y="57.6" letter-spacing="-0.01em">r</tspan><tspan x="119.37" y="57.6">om time-</tspan><tspan x="222.48" y="57.6" letter-spacing="-0.01em">t</tspan><tspan x="230.76" y="57.6">o -time, </tspan><tspan x="0" y="86.4">ir</tspan><tspan x="14.23" y="86.4" letter-spacing="-0.01em">r</tspan><tspan x="22.66" y="86.4">especti</tspan><tspan x="104.95" y="86.4" letter-spacing="-0.02em">v</tspan><tspan x="117.45" y="86.4">e </tspan><tspan x="137.71" y="86.4" letter-spacing="-0.01em">o</tspan><tspan x="151.87" y="86.4" letter-spacing="-0.02em">f</tspan><tspan x="159.57" y="86.4" xml:space="preserve"> the </tspan><tspan x="208.51" y="86.4" letter-spacing="-0.01em">r</tspan><tspan x="216.93" y="86.4">oles th</tspan><tspan x="292.75" y="86.4" letter-spacing="-0.02em">e</tspan><tspan x="306.57" y="86.4" letter-spacing="-0.03em">y</tspan><tspan x="319" y="86.4"> </tspan><tspan x="0" y="115.2">pl</tspan><tspan x="21.82" y="115.2" letter-spacing="-0.02em">a</tspan><tspan x="34.7" y="115.2" letter-spacing="-0.07em">y</tspan><tspan x="46.08" y="115.2">, simp</tspan><tspan x="111.57" y="115.2" letter-spacing="-0.02em">l</tspan><tspan x="117.98" y="115.2" letter-spacing="-0.03em">y</tspan><tspan x="130.41" y="115.2" xml:space="preserve"> as</tspan><tspan x="161.49" y="115.2" letter-spacing="-0.03em"> </tspan><tspan x="166.92" y="115.2">villagers. </tspan><tspan x="272.9" y="115.2" letter-spacing="-0.01em">I</tspan><tspan x="278.97" y="115.2" letter-spacing="-0.02em">f</tspan><tspan x="286.68" y="115.2" letter-spacing="-0.03em"> </tspan><tspan x="292.1" y="115.2" letter-spacing="-0.02em">y</tspan><tspan x="304.72" y="115.2">ou </tspan><tspan x="0" y="144" letter-spacing="-0.01em">f</tspan><tspan x="7.94" y="144">ee</tspan><tspan x="36.31" y="144" letter-spacing="-0.03em">l</tspan><tspan x="42.46" y="144" xml:space="preserve"> li</tspan><tspan x="60.91" y="144" letter-spacing="-0.03em">k</tspan><tspan x="73.2" y="144">e</tspan><tspan x="87.38" y="144" letter-spacing="-0.03em"> </tspan><tspan x="92.81" y="144" letter-spacing="-0.02em">y</tspan><tspan x="105.43" y="144">ou h</tspan><tspan x="154.46" y="144" letter-spacing="-0.02em">a</tspan><tspan x="167.35" y="144" letter-spacing="-0.02em">v</tspan><tspan x="179.85" y="144">e a s</tspan><tspan x="231.19" y="144" letter-spacing="-0.01em">t</tspan><tspan x="239.47" y="144">or</tspan><tspan x="262.56" y="144" letter-spacing="-0.03em">y</tspan><tspan x="274.99" y="144"> </tspan><tspan x="281.06" y="144" letter-spacing="-0.01em">t</tspan><tspan x="289.34" y="144">o </tspan><tspan x="309.79" y="144" letter-spacing="-0.01em">t</tspan><tspan x="318.07" y="144">el</tspan><tspan x="339.11" y="144" letter-spacing="-0.03em">l</tspan><tspan x="345.26" y="144"> </tspan><tspan x="0" y="172.8">o</tspan><tspan x="14.38" y="172.8" letter-spacing="-0.02em">r</tspan><tspan x="22.54" y="172.8" xml:space="preserve"> hea</tspan><tspan x="70.25" y="172.8" letter-spacing="-0.02em">r</tspan><tspan x="78.41" y="172.8"> </tspan><tspan x="84.48" y="172.8" letter-spacing="-0.01em">o</tspan><tspan x="98.66" y="172.8">ther</tspan><tspan x="144.17" y="172.8" letter-spacing="-0.06em">s</tspan><tspan x="154.37" y="172.8" letter-spacing="-0.1em">’</tspan><tspan x="156.77" y="172.8">,</tspan><tspan x="161.83" y="172.8" letter-spacing="-0.03em"> </tspan><tspan x="167.25" y="172.8" letter-spacing="-0.02em">y</tspan><tspan x="179.88" y="172.8">ou kn</tspan><tspan x="241.85" y="172.8" letter-spacing="-0.02em">o</tspan><tspan x="255.79" y="172.8" letter-spacing="-0.03em">w</tspan><tspan x="274.82" y="172.8"> </tspan><tspan x="0" y="201.6">whe</tspan><tspan x="48.05" y="201.6" letter-spacing="-0.01em">r</tspan><tspan x="56.47" y="201.6">e </tspan><tspan x="76.73" y="201.6" letter-spacing="-0.01em">t</tspan><tspan x="85.01" y="201.6">o find us.</tspan></text><path d="M291.51,381.5h0c0,61,56.85,110.5,127,110.5H763.16a119.8,119.8,0,0,0,45.52-8.84,22.53,22.53,0,0,1,14.24-.83c15.75,4.16,61.59,3,61.59,3-17.59,0-27.11-12.21-31.76-21.29A15.38,15.38,0,0,1,854,447.94,83.9,83.9,0,0,0,870,399V381.5c0-61-56.85-110.5-127-110.5H418.49C348.36,271,291.51,320.47,291.51,381.5Z" fill="#fff" stroke="#302d77" stroke-miterlimit="10" stroke-width="2"/><text transform="translate(361.51 367)" font-size="48" fill="#302d77" font-family="Raleway-Medium, Raleway" font-weight="500">Designers-thin<tspan x="329.56" y="0" letter-spacing="-0.03em">k</tspan><tspan x="354.14" y="0">ers</tspan><tspan x="0" y="57.6">-ma</tspan><tspan x="91.25" y="57.6" letter-spacing="-0.03em">k</tspan><tspan x="115.82" y="57.6">ers-doers</tspan></text><polygon points="763 612 837 510 909 384 1012 280 1121 307 1327 423 1372 820 1187 971 899 969 763 612" fill="lime" opacity="0"/><polygon points="1732 479 1439 448 1452 361 1519 18 1789 32 1829 197 1897 408 1732 479" fill="red" opacity="0"/><polygon points="1902 574 1831 589 1789 675 1705 712 1718 757 1655 846 1602 888 1815 898 1889.97 898 1910 676 1902 574" fill="red" opacity="0"/></svg>