<svg xmlns="http://www.w3.org/2000/svg" viewBox="0 0 1920 1080"><title>illustration-final</title><path d="M318.85,75.31S201.53,131.05,292.6,195.79c0,0-159,8.1-154.8,79.92s-4.58,89.41-4.58,89.41S59.41,395.87,59.41,492.54" fill="none" stroke="#2e2d75" stroke-linejoin="bevel" stroke-width="2"/><path d="M171.28,210.69s2.37,57.76,152.64,70.06c0,0-36,58-10.55,116,0,0-48.33,84.36,65,150.27,0,0-19.33,86.12-10.54,112.49,0,0-308.1,54-308.1,201.46s-.35,143-.35,143" fill="none" stroke="#2e2d75" stroke-linejoin="bevel" stroke-width="2"/><path d="M356.55,146.08S370.08,233,494.2,254.23c0,0-67.47,188.67,150.47,313.23,0,0-210,110.5-214.42,233.53-2.64,73.82-2.92,81.79-2.92,81.79s-86.72,52.66-86.72,86.06" fill="none" stroke="#2e2d75" stroke-linejoin="bevel" stroke-width="2"/><path d="M1920.48,864.83c-33.23-68.1-79.21-186.87-88.13-336.06" fill="none" stroke="#2e2d75" stroke-miterlimit="10" stroke-width="2"/><path d="M1788.85,537.25s8.83,28.32,38.49,16.34C1827.34,553.59,1819.13,525,1788.85,537.25Z" fill="none" stroke="#2e2d75" stroke-miterlimit="10" stroke-width="2"/><path d="M1794.3,601.51s13,26.68,40.5,10.4C1834.8,611.91,1822.41,584.89,1794.3,601.51Z" fill="none" stroke="#2e2d75" stroke-miterlimit="10" stroke-width="2"/><path d="M1807.28,672.34s16.4,24.72,41.52,4.91C1848.8,677.25,1832.92,652.12,1807.28,672.34Z" fill="#302d77" stroke="#2e2d75" stroke-miterlimit="10" stroke-width="2"/><path d="M1851.51,643.33s28.29,8.94,35.4-22.25C1886.91,621.08,1858.77,611.5,1851.51,643.33Z" fill="none" stroke="#2e2d75" stroke-miterlimit="10" stroke-width="2"/><path d="M1841.71,576.66s28.29,8.94,35.4-22.26C1877.11,554.4,1849,544.82,1841.71,576.66Z" fill="#302d77" stroke="#2e2d75" stroke-miterlimit="10" stroke-width="2"/><polyline points="1569 395.49 1398.75 395.49 1398.75 457.4 1381.41 457.4 1381.41 519.31 1364.08 519.31 1364.08 581.21 1346.75 581.21 1346.75 643.12 1329.42 643.12" fill="none" stroke="#2e2d75" stroke-miterlimit="10" stroke-width="2"/><polyline points="1783.47 643.12 1766.13 643.12 1766.13 581.21 1748.8 581.21 1748.8 519.31 1731.47 519.31 1731.47 457.4 1714.14 457.4 1714.14 395.49 1608 395.49" fill="none" stroke="#2e2d75" stroke-miterlimit="10" stroke-width="2"/><line x1="1398.75" y1="457.4" x2="1497" y2="457" fill="none" stroke="#2e2d75" stroke-miterlimit="10" stroke-width="2"/><line x1="1677.68" y1="457.4" x2="1714.38" y2="457.4" fill="none" stroke="#2e2d75" stroke-miterlimit="10" stroke-width="2"/><line x1="1363.11" y1="581.21" x2="1630" y2="581.21" fill="none" stroke="#2e2d75" stroke-miterlimit="10" stroke-width="2"/><line x1="1529.92" y1="519.31" x2="1747.57" y2="519.31" fill="none" stroke="#2e2d75" stroke-miterlimit="10" stroke-width="2"/><path d="M1398.75,395.49H1343V336.17h-55.73V276.84h-55.74V217.52H1175.8V158.2H992.43c-.31-.32,0-140.2,0-140.2" fill="none" stroke="#2e2d75" stroke-miterlimit="10" stroke-width="2"/><polyline points="1714.71 395.49 1770.45 395.49 1770.45 336.17 1826.19 336.17 1826.19 276.84 1881.92 276.84 1881.92 217.52 1937.66 217.52" fill="none" stroke="#2e2d75" stroke-miterlimit="10" stroke-width="2"/><path d="M1341.22,247.79s-2.49,10.59-2.93,11.38,14.38,57.95,14.38,57.95l-1,8.87h-7.32l-24.13-60.27a6.39,6.39,0,0,1-.42-1.71L1311,231.4S1330,247.07,1341.22,247.79Z" fill="#302d77" stroke="#2e2d75" stroke-miterlimit="10" stroke-width="2"/><polyline points="1339.87 164.93 1352.86 154.41 1320.55 101.41" fill="none" stroke="#2e2d75" stroke-miterlimit="10" stroke-width="2"/><path d="M1313.35,220.39l-27.8-2.54c-3.14.33-6.29,1.9-6,5.23l.9,42.62s-4.63,6.3-11.49,1.26l-10.36-48.39,14.74-14.3,20.65,3.1,16.77,9.09Z" fill="#302d77" stroke="#2e2d75" stroke-miterlimit="10" stroke-width="2"/><polygon points="1350.66 156.19 1364.82 182.76 1357.74 187.68 1338.85 166.35 1350.66 156.19" fill="#302d77" stroke="#2e2d75" stroke-miterlimit="10" stroke-width="2"/><path d="M1363.4,243.41l-41.62-138.83a20.24,20.24,0,0,0-13-13.46h0c-6.11-2.06-13.54-2.09-18.81,1.63l-2.22,1.73c-4.84,4.67-7.58,10.13-7.93,16.29l-3.7,64.46a14.72,14.72,0,0,1-9.72,13l-2.69,1a13.61,13.61,0,0,0-9,12.8V219.1s31.06-5,41.93,1.29C1318.8,233.21,1332.53,258.51,1363.4,243.41Z" fill="#fff" stroke="#2e2d75" stroke-miterlimit="10" stroke-width="2"/><path d="M1309.07,116.94,1301,177.47l-30-23.06,15.42-47a14.52,14.52,0,0,1,10.3-8.27" fill="#fff" stroke="#2e2d75" stroke-miterlimit="10" stroke-width="2"/><path d="M1283.7,275.26s2.37-4.28-1.4-9.56c0,0-8.15,4.78-13.38,1.26,0,0-16.05,1.86-16.56,7.85v1.63h30.82Z" fill="#fff" stroke="#2e2d75" stroke-miterlimit="10" stroke-width="2"/><path d="M1353.17,316s-3.28,8.65-10.76,7.36c0,0-5.85,5-6.79,5.39s-6.43,1.14-9.08,3.39a2.27,2.27,0,0,0,0,3.77H1346l14-8.8S1363.34,320.83,1353.17,316Z" fill="#fff" stroke="#2e2d75" stroke-miterlimit="10" stroke-width="2"/><polygon points="1278.12 159.92 1249.26 167.5 1251.82 174.93 1293.95 172.06 1278.12 159.92" fill="#302d77" stroke="#2e2d75" stroke-miterlimit="10" stroke-width="2"/><polygon points="1291.54 91.81 1290.12 86.11 1298.45 82.05 1301.65 86.93 1299.1 89.77 1291.54 91.81" fill="#302d77" stroke="#2e2d75" stroke-miterlimit="10" stroke-width="2"/><path d="M1274.52,67.7l9.71-4,8.37,12.13,1.35,8.44-2.86,1.12a6.5,6.5,0,0,1-8-2.8l-8.57-14.87" fill="#302d77" stroke="#2e2d75" stroke-miterlimit="10" stroke-width="2"/><path d="M1271.6,68.87l10-4.53S1295.24,83,1296.67,92.9c0,0,13.5,5.93,22.23-1.09s1.64-22.42,1.64-22.42-13.26-32.56-43-17.75C1271.06,54.47,1268.22,63,1271.6,68.87Z" fill="#fff" stroke="#2e2d75" stroke-miterlimit="10" stroke-width="2"/><polyline points="1249.26 167.5 1242.66 166.24 1238.65 166.24" fill="#fff" stroke="#2e2d75" stroke-miterlimit="10" stroke-width="2"/><line x1="1243.96" y1="168.9" x2="1232.88" y2="169.72" fill="#fff" stroke="#2e2d75" stroke-miterlimit="10" stroke-width="2"/><line x1="1244.92" y1="171.93" x2="1232.03" y2="173.72" fill="#fff" stroke="#2e2d75" stroke-miterlimit="10" stroke-width="2"/><line x1="1245.79" y1="174.72" x2="1235.86" y2="177.3" fill="#fff" stroke="#2e2d75" stroke-miterlimit="10" stroke-width="2"/><polyline points="1251.82 174.93 1245.79 177.47 1238.65 179.19" fill="#fff" stroke="#2e2d75" stroke-miterlimit="10" stroke-width="2"/><polyline points="1359.07 188.81 1361.42 195.11 1363.51 198.53" fill="#fff" stroke="#2e2d75" stroke-miterlimit="10" stroke-width="2"/><line x1="1363.02" y1="192.62" x2="1369.48" y2="201.65" fill="#fff" stroke="#2e2d75" stroke-miterlimit="10" stroke-width="2"/><line x1="1365.12" y1="190.21" x2="1373.34" y2="200.29" fill="#fff" stroke="#2e2d75" stroke-miterlimit="10" stroke-width="2"/><line x1="1367.05" y1="188.02" x2="1374.41" y2="195.16" fill="#fff" stroke="#2e2d75" stroke-miterlimit="10" stroke-width="2"/><polyline points="1364.09 182.76 1369.39 186.59 1374.57 191.8" fill="#fff" stroke="#2e2d75" stroke-miterlimit="10" stroke-width="2"/><polygon points="1684.58 11.68 1739.64 11.68 1748.63 91.98 1675.59 91.98 1684.58 11.68" fill="none" stroke="#2d2f75" stroke-miterlimit="10" stroke-width="2"/><rect x="1671.28" y="91.98" width="81.66" height="9.07" transform="translate(3424.22 193.03) rotate(180)" fill="#302f77" stroke="#2d2f75" stroke-miterlimit="10" stroke-width="2"/><line x1="1686.55" y1="75.19" x2="1691.54" y2="24.38" fill="#302f77" stroke="#2d2f75" stroke-miterlimit="10" stroke-width="2"/><path d="M1755,243s-38.81-77.86-38.81-144.56" fill="none" stroke="#2d2f75" stroke-miterlimit="10" stroke-width="2"/><path d="M1706.86,96.52s1.23,61.68-35.58,98.49" fill="none" stroke="#2d2f75" stroke-miterlimit="10" stroke-width="2"/><path d="M1702,135.71s34.35,69-60.91,84.59C1641.12,220.3,1650.55,153.43,1702,135.71Z" fill="none" stroke="#2d2f75" stroke-miterlimit="10" stroke-width="2"/><path d="M1762.56,256s9-84.57-38.79-100.17C1723.77,155.83,1682.7,212,1762.56,256Z" fill="none" stroke="#2d2f75" stroke-miterlimit="10" stroke-width="2"/><line x1="1881.92" y1="276.84" x2="1881.92" y2="396.42" fill="none" stroke="#2d2f75" stroke-miterlimit="10" stroke-width="2"/><path d="M1397.06,643.12C1360,643,1324,643,1287,643c-3,30,0,60-1.07,90" fill="none" stroke="#2e2d75" stroke-miterlimit="10" stroke-width="2"/><path d="M1808.53,643.12c-130.53-.12-260.53-.12-391.3,0" fill="none" stroke="#2e2d75" stroke-miterlimit="10" stroke-width="2"/><rect x="3" y="54.51" width="11" height="185" fill="none" stroke="#2d2f75" stroke-miterlimit="10" stroke-width="2"/><line x1="-548" y1="239.51" x2="107" y2="240" fill="none" stroke="#2d2f75" stroke-miterlimit="10" stroke-width="2"/><polyline points="18 558 18 431 25 430.51 25 373.51 14 358.51 14 306.51 3 295.51 3 239.51" fill="none" stroke="#2d2f75" stroke-miterlimit="10" stroke-width="2"/><line x1="14" y1="306.51" x2="-34" y2="306.51" fill="none" stroke="#2d2f75" stroke-miterlimit="10" stroke-width="2"/><line y1="373.51" x2="24" y2="373.51" fill="none" stroke="#2d2f75" stroke-miterlimit="10" stroke-width="2"/><rect x="-417" y="54.51" width="420" height="9" fill="none" stroke="#2d2f75" stroke-miterlimit="10" stroke-width="2"/><polygon points="-12.06 457.24 4.76 454.88 -53.88 490.62 -26.08 459.2 -17.28 457.97 -12.06 457.24" fill="#fff" stroke="#2d2f75" stroke-linejoin="round" stroke-width="2"/><polyline points="-520.97 1098 -520.97 945.88 -423.97 945.88 -422.97 945.88 -422.97 848.88 -325.97 848.88 -324.97 848.88 -324.97 751.88 -227.97 751.88 -226.97 751.88 -226.97 654.88 -129.97 654.88 -128.97 654.88 -128.97 557.88 -125.97 557.88 18 558 17.53 1042.38 -386.47 1042.38" fill="none" stroke="#2d2f75" stroke-miterlimit="10" stroke-width="2"/><path d="M-46,793.54c0,11-17.1,53.75-17.1,53.75,4.88,6.11,0,0,9.77,13.44S-2,863.17-2,863.17a188.58,188.58,0,0,1,13.43-48.86c11-25.66,6.25-61.73-4.88-68.41-12.22-7.33-24.43-2.45-31.76,2.44s-34.21,20.77-34.21,20.77l-3.66,29.32s23.21-6.11,29.32-6.11,11-8.55,11-8.55" fill="none" stroke="#2d2f75" stroke-miterlimit="10" stroke-width="2"/><path d="M-17.92,709.25s-6.11,0-9.78,1.22-9.77,0-9.77,0l-2.44-1.22s-2.45-4.89-1.22-7.33S-43.58,697-39.91,697s4.88-1.22,6.11-2.44,0-2.44,3.66-2.44,11-1.22,12.22-1.22,3.59,1,7.33,0c5.1-1.34,13,5.31,8.55,11,0,0-2.45-2.44,0,2.44s3.66,7.33,3.66,9.78,1.22,7.33,0,8.55-2.44,2.44-2.44,3.66,1.22,4.89-1.22,0-1.22,0-3.67-7.33-1.22-7.33-3.66-8.55A58.14,58.14,0,0,0-15.48,708s3.66,6.11,2.44,8.55,6.11,6.11,0,2.44-4.88-3.66-6.11-6.11A2.67,2.67,0,0,1-17.92,709.25Z" fill="#2d2f75" stroke="#2d2f75" stroke-miterlimit="10" stroke-width="2"/><line x1="-2.04" y1="723.91" x2="-0.82" y2="742.23" fill="#2d2f75" stroke="#2d2f75" stroke-miterlimit="10" stroke-width="2"/><polyline points="743 48 743 531.64 1101 531.64 1101 158" fill="none" stroke="#2d2f75" stroke-miterlimit="10" stroke-width="2"/><line x1="743" y1="191.24" x2="1100.86" y2="191.24" fill="none" stroke="#2d2f75" stroke-miterlimit="10" stroke-width="2"/><line x1="800.66" y1="182.25" x2="800.66" y2="85.87" fill="none" stroke="#2d2f75" stroke-miterlimit="10" stroke-width="2"/><line x1="863.48" y1="158.15" x2="863.48" y2="61.77" fill="none" stroke="#2d2f75" stroke-miterlimit="10" stroke-width="2"/><path d="M971.51,191.24s-17.67,181.2,64.09,283.61" fill="none" stroke="#2d2f75" stroke-miterlimit="10" stroke-width="2"/><path d="M904.89,191.24s2.48,163.13-60.34,219.92" fill="none" stroke="#2d2f75" stroke-miterlimit="10" stroke-width="2"/><path d="M902.21,246.79s-49.92,55.08-80.9,57.66" fill="none" stroke="#2d2f75" stroke-miterlimit="10" stroke-width="2"/><path d="M979.58,341.08s-22.3,110.53-60.16,127.74" fill="none" stroke="#2d2f75" stroke-miterlimit="10" stroke-width="2"/><path d="M879.54,268.4s-36.71-25-81.46,39.49C798.08,307.89,854.29,345.94,879.54,268.4Z" fill="none" stroke="#2d2f75" stroke-miterlimit="10" stroke-width="2"/><path d="M881.36,350.41s-51.44.51-57.47,78C823.89,428.38,911.28,425.63,881.36,350.41Z" fill="#302d77" stroke="#2e2d75" stroke-linejoin="round" stroke-width="2"/><path d="M961.4,405s-53.17,9.66-54.89,88.83C906.51,493.78,988.74,477.05,961.4,405Z" fill="none" stroke="#2d2f75" stroke-miterlimit="10" stroke-width="2"/><path d="M999.53,411.16s50.7,6.89,54.14,75.73C1053.67,486.89,986.7,492.06,999.53,411.16Z" fill="#302d77" stroke="#2e2d75" stroke-linejoin="round" stroke-width="2"/><path d="M1035,472.89c-24.84-23.12-36.31-61.35-36.42-61.73l1.72-.86c.11.38,11.38,38.53,35.87,61.33Z" fill="#fff"/><path d="M844.26,409.22l-1.15-1.28c24.51-22,37.46-58.39,37.58-58.74l1.72.86C882.29,350.41,869.09,387,844.26,409.22Z" fill="#fff"/><path d="M908.83,778.55,926,853s-22.8,21.41-40,20.26-12.35.29-19.79-1.44S845,865.6,845,865.6v-91S899.33,777.81,908.83,778.55Z" fill="#302d77" stroke="#2e2d75" stroke-linejoin="round" stroke-width="2"/><path d="M1725.22,778.22s3.72,10.5-13.82,11.48-49.27,1-49.27,1l2.64-7.62Z" fill="#302d77" stroke="#2e2d75" stroke-miterlimit="10" stroke-width="2"/><path d="M1721,788.68l19.68,151.18h-6.39l-25.55-150S1716.16,784.81,1721,788.68Z" fill="#fff" stroke="#2e2d75" stroke-miterlimit="10" stroke-width="2"/><path d="M1661.83,788.68l-19.68,151.18h6.39l25.55-150S1666.62,784.81,1661.83,788.68Z" fill="#fff" stroke="#2e2d75" stroke-miterlimit="10" stroke-width="2"/><path d="M1687.51,788.68,1689,939.86h6.39l4.38-150S1692.3,784.81,1687.51,788.68Z" fill="#fff" stroke="#2e2d75" stroke-miterlimit="10" stroke-width="2"/><polygon points="1738.3 922.83 1644.37 922.83 1645.02 918.67 1737.43 918.67 1738.3 922.83" fill="#302d77" stroke="#2e2d75" stroke-miterlimit="10" stroke-width="2"/><path d="M1679.11,781.57l8.09-.66,1.29-6.68Z" fill="none"/><path d="M1719.57,778.68l-32.44,2.59-8.74,45.26a10.82,10.82,0,0,0,.19,4.93l18.78,68.36,15.61-5.05L1704.09,834a7.26,7.26,0,0,1,.15-2.86C1706,824.22,1713.94,793.58,1719.57,778.68Z" fill="#fff" stroke="#2e2d75" stroke-miterlimit="10" stroke-width="2"/><path d="M1611.39,804.63l-1.26,3.56a14.75,14.75,0,0,0,1.4,12.75l33.61,53.7,15.13-5-20.06-52.34a6,6,0,0,1,1.89-6.82L1678.61,782l-47.39,3.8L1616,798.12A14.76,14.76,0,0,0,1611.39,804.63Z" fill="#fff" stroke="#2e2d75" stroke-miterlimit="10" stroke-width="2"/><path d="M1623.85,786.34l7.37-.59.09-.08Z" fill="#fff" stroke="#2e2d75" stroke-miterlimit="10" stroke-width="2"/><path d="M1729.57,777.87c-2.82.15-6.18.35-9.92.6l-.08.21Z" fill="#fff" stroke="#2e2d75" stroke-miterlimit="10" stroke-width="2"/><path d="M1687.13,781.27l.07-.36-8.09.66-.5.38" fill="#fff" stroke="#2e2d75" stroke-miterlimit="10" stroke-width="2"/><path d="M1442.41,788.68l19.67,151.18h-6.39l-25.55-150S1437.61,784.81,1442.41,788.68Z" fill="#fff" stroke="#2e2d75" stroke-miterlimit="10" stroke-width="2"/><path d="M1383.28,788.68l-19.67,151.18H1370l25.55-150S1388.08,784.81,1383.28,788.68Z" fill="#fff" stroke="#2e2d75" stroke-miterlimit="10" stroke-width="2"/><path d="M1409,788.68l1.5,151.18h6.39l4.37-150S1413.75,784.81,1409,788.68Z" fill="#fff" stroke="#2e2d75" stroke-miterlimit="10" stroke-width="2"/><polygon points="1459.76 922.83 1365.82 922.83 1366.47 918.67 1458.89 918.67 1459.76 922.83" fill="#302d77" stroke="#2e2d75" stroke-miterlimit="10" stroke-width="2"/><path d="M822.25,818.43l19.68,121.43h-6.39L810,819.36S817.46,815.32,822.25,818.43Z" fill="#fff" stroke="#2e2d75" stroke-miterlimit="10" stroke-width="2"/><path d="M763.13,818.43,743.45,939.86h6.39l25.56-120.5S767.92,815.32,763.13,818.43Z" fill="#fff" stroke="#2e2d75" stroke-miterlimit="10" stroke-width="2"/><path d="M788.81,818.43l1.49,121.43h6.39l4.38-120.5S793.6,815.32,788.81,818.43Z" fill="#fff" stroke="#2e2d75" stroke-miterlimit="10" stroke-width="2"/><polygon points="839.6 926.18 745.67 926.18 746.32 922.84 838.73 922.84 839.6 926.18" fill="#302d77" stroke="#2e2d75" stroke-miterlimit="10" stroke-width="2"/><polygon points="772.68 794.04 1939 794.04 1215.78 728.21 772.68 794.04" fill="#fff" stroke="#2e2d75" stroke-miterlimit="10" stroke-width="2"/><rect x="772.68" y="794.04" width="1166.32" height="9.94" fill="#302d77" stroke="#2e2d75" stroke-miterlimit="10" stroke-width="2"/><line x1="716" y1="939.86" x2="1806.36" y2="939.86" fill="none" stroke="#2e2d75" stroke-miterlimit="10" stroke-width="2"/><rect x="753.71" y="810" width="77.63" height="10.06" rx="3.13" fill="#302d77" stroke="#2e2d75" stroke-linejoin="round" stroke-width="2"/><polygon points="865.94 647.13 868.27 658.95 865.94 662.85 858.74 662.85 857.86 649.36 865.94 647.13" fill="#302d77" stroke="#2e2d75" stroke-linejoin="round" stroke-width="2"/><path d="M885.37,649.85V630.91h-7.68s-6.71,14.52-13.18,17.71-5.75,14.66-5.75,14.66S845.21,621,874.87,620.64s10.5,29.21,10.5,29.21" fill="#302d77" stroke="#2e2d75" stroke-linejoin="round" stroke-width="2"/><path d="M885.37,649.85s-1.61,3.2,2.55,9.81,4.1,8.93,4.1,8.93l-14.33-6.11v-5.64A9.72,9.72,0,0,0,885.37,649.85Z" fill="#302d77" stroke="#2e2d75" stroke-linejoin="round" stroke-width="2"/><path d="M1392,668.08l11.59,11.75,10.37-11,26.19,11s12.31,29.91,13.81,42a275.41,275.41,0,0,1,1.48,28.14l-15.18-1.38s-4-31.86-6.52-38.43c0,0-2.76,21.25-.45,37.79l-55.82-5.08s-.31-31.51-3.71-40.19c0,0-11.31,23.83-13.3,27.27s4.93,11.82,4.93,11.82l-18.49-1.68L1342.5,732s10.43-40.69,22.53-55.08A117.75,117.75,0,0,1,1392,668.08Z" fill="none" stroke="#2e2d75" stroke-miterlimit="10" stroke-width="2"/><path d="M1403.94,684.06s3.4,16.18,1.88,25-.9,11.84,0,19.16a89.16,89.16,0,0,1,.77,12" fill="none" stroke="#2e2d75" stroke-miterlimit="10" stroke-width="2"/><line x1="1413.93" y1="668.84" x2="1411.76" y2="660.52" fill="none" stroke="#2e2d75" stroke-miterlimit="10" stroke-width="2"/><line x1="1391.97" y1="668.08" x2="1395.44" y2="657.28" fill="none" stroke="#2e2d75" stroke-miterlimit="10" stroke-width="2"/><path d="M1401.12,659.21l10.78.89a5.08,5.08,0,0,0,5.48-4.73l1.1-16.57" fill="none" stroke="#2e2d75" stroke-miterlimit="10" stroke-width="2"/><path d="M1411.76,635.67s3.16,4.73,6.72,6.29-.7,7.5-.7,7.5l7.38-2.83s.93-6.23,0-9.65.63-7.48-2.52-10.54-3.17-7.68-6.86-5.73-3-1.82-9-2.58-11-6.37-13.12-1.39-.62,7.4-1.73,9.76-3.41-.45-2.24,7.5,3.92,12.32,2.24,13.87-1.57,4.11-2.56,6.26.8,4.3,2.56,6.39,1.72.26,1.73-3.24,1.64-3.79,1.74-7.72,3.51-11.95,3.51-11.95.55.49,2.17-1.94,3.36-2.15,6.23-1.67A10.61,10.61,0,0,1,1411.76,635.67Z" fill="#302d77" stroke="#2e2d75" stroke-linejoin="round" stroke-width="2"/><path d="M1673.18,695.51S1670.29,706,1683.43,706s12.49-13.7,12.49-13.7l11.06-2.21a8.8,8.8,0,0,0,6.29-5l16.51-36.3-8.41-41.55,8.72-4,16.2,43.39a9,9,0,0,1,.55,3.33l0,2.25a9,9,0,0,1-.58,3l-19.67,48.25s-7.94,28.68-3,46.55c0,0-4.43,12.93-17.35,11.12s-12.56-2.45-17.35.18-7.95,4.6-12.14,4.93a62.45,62.45,0,0,1-8.46,0l-5.6.14s2.48-24.53.61-35.89a2.59,2.59,0,0,0-4.46-1.35l-25,27.12a6.86,6.86,0,0,1-3.32,1.83L1606,763.73,1587.26,762l31.33-15.69a7.76,7.76,0,0,0,2.78-2.34L1648,707.72a12.13,12.13,0,0,1,5.11-4Z" fill="#302d77" stroke="#2e2d75" stroke-linejoin="round" stroke-width="2"/><path d="M1718.3,757.66s1.24,8.47,2,12.5l.7,4-56.18-5.11v-2.74s15.26,1.37,22.15-4,15.71-1.77,15.71-1.77S1714.13,763,1718.3,757.66Z" fill="none" stroke="#2e2d75" stroke-miterlimit="10" stroke-width="2"/><polyline points="1728.77 603.3 1728.77 596.59 1724.17 592.61 1724.17 597.96" fill="none" stroke="#2e2d75" stroke-linejoin="round" stroke-width="2"/><polyline points="1722.81 593.89 1721.04 592.61 1721.92 597.96" fill="none" stroke="#2e2d75" stroke-linejoin="round" stroke-width="2"/><line x1="1719.69" y1="594.32" x2="1715.91" y2="586.37" fill="none" stroke="#2e2d75" stroke-linejoin="round" stroke-width="2"/><line x1="1718.55" y1="596.3" x2="1712.03" y2="587.08" fill="none" stroke="#2e2d75" stroke-linejoin="round" stroke-width="2"/><polyline points="1721.92 604.9 1718.56 599.99 1714.02 596.3" fill="none" stroke="#2e2d75" stroke-linejoin="round" stroke-width="2"/><path d="M1695.92,693s-6-2.78-7.06-8.48" fill="none" stroke="#2e2d75" stroke-linejoin="round" stroke-width="2"/><path d="M1673.18,696.47s5.57,1.81,4.09-9.71" fill="none" stroke="#2e2d75" stroke-linejoin="round" stroke-width="2"/><path d="M1670.66,695.51c-1,0-1.85-1.26-3.61-2.48s-1.54-1.66-2-4.24a36.59,36.59,0,0,0-1-5.67c-1-4.33-.21-5.78-2.89-14s0-5.85,0-5.85a19.46,19.46,0,0,1,3.92-7.54c2.88-3.2,14.29-3.86,18.21-.56s6.88,9.73,19.52,15.52,9.2,20.93,9.2,20.93l-11,4.91-8.59-6.9s6.94-4.3-2-8.12-18.89-14-18.89-14l-4,1.59,3.72,12.9a7.11,7.11,0,0,0,8.7,4.88h0c3.09-.84,7.07-3.68,7.07-6.89v-.63" fill="none" stroke="#2e2d75" stroke-linejoin="round" stroke-width="2"/><path d="M1090,676c-9.86,6.51-21,45-21,45h-12s0-1,6-34c3.94-21.65,12.61-40.29,18.11-50.55a22,22,0,0,1,15.57-11.26l2.51-.44,8.75-1.58h23.12l12.33,1.88c2.88.44,9.61,1,12.61,3,0,0,14,7,15,28s-2,30-2,30l-6.2,10.62" fill="none" stroke="#2e2d75" stroke-linejoin="round" stroke-width="2"/><path d="M1161,663s1,35,3.39,49.37c0,0-23.26,22-53,9.21-15.33-7.2-26-1.6-26-1.6s8.58-26,3.58-53" fill="none" stroke="#2e2d75" stroke-linejoin="round" stroke-width="2"/><path d="M1134.51,608.72c0,1.34,4,10.39-2.67,9.41s-6.77,1.78-14.9,0-5.47-.72-8.12-1.79-.39-1.89-2.45-6.89-1.33,1.12-3.19-9.77-1.7-24.21,12.68-23.65,17.16,2.78,18.28,10.39S1134.51,608.72,1134.51,608.72Z" fill="#302d77" stroke="#2e2d75" stroke-linejoin="round" stroke-width="2"/><line x1="1112.64" y1="623.09" x2="1112.64" y2="617.98" fill="#302d77" stroke="#2e2d75" stroke-linejoin="round" stroke-width="2"/><line x1="1133.54" y1="623.55" x2="1131.84" y2="618.13" fill="#302d77" stroke="#2e2d75" stroke-linejoin="round" stroke-width="2"/><path d="M1162.59,713.9s3.89,34.57-22.2,37-57-2.52-57-2.52l-40.86,5.6v-16a6.21,6.21,0,0,1,4.37-5.93l38.54-12s9.24-4.93,16.93-1.43S1141.67,735.8,1162.59,713.9Z" fill="#302d77" stroke="#2e2d75" stroke-linejoin="round" stroke-width="2"/><path d="M896.13,687.14l4,7a13.85,13.85,0,0,1-.16,14l-3.83,6.39s-5.94,6.48,0,31.09l6,24.62S868.26,783,845,775c0,0-1.25-46.73,0-70.08" fill="none" stroke="#2e2d75" stroke-linejoin="round" stroke-width="2"/><path d="M849.5,688.84l-9.06,31.82-16-8.52,10.34-38.7a10.3,10.3,0,0,1,8.23-7.49l16.85-2.86a2.58,2.58,0,0,1,2.69,1.31l4.2,7.77h11v-8.23a1.09,1.09,0,0,1,1.53-1l17.66,7.84a10,10,0,0,1,4.75,4.42l13.8,26-13.56,13.33-3.4-4" fill="none" stroke="#2e2d75" stroke-linejoin="round" stroke-width="2"/><path d="M877.69,665.38v-8.54s-7.83,3.33-11.87-8l-3.23,15.52" fill="#fff" stroke="#2e2d75" stroke-miterlimit="10" stroke-width="2"/><path d="M865.94,645.73v1.4a9.71,9.71,0,0,0,9.71,9.71h0a9.72,9.72,0,0,0,9.72-9.71V630.91" fill="none" stroke="#2e2d75" stroke-linejoin="round" stroke-width="2"/><polyline points="912.84 703.77 924.66 723.41 945.36 746.53 950.79 750.87 957.2 759.97" fill="none" stroke="#2e2d75" stroke-linejoin="round" stroke-width="2"/><polyline points="950.57 753.95 952.09 756.67 955.1 762.14" fill="none" stroke="#2e2d75" stroke-linejoin="round" stroke-width="2"/><polyline points="948.6 755.59 950.57 761.12 953.49 766.1" fill="none" stroke="#2e2d75" stroke-linejoin="round" stroke-width="2"/><polyline points="904.12 712.34 915.49 727.17 943.55 755.59 943.55 759.54 947.05 766.1" fill="none" stroke="#2e2d75" stroke-linejoin="round" stroke-width="2"/><polyline points="946.18 757.34 947.06 761.12 950.29 766.1" fill="none" stroke="#2e2d75" stroke-linejoin="round" stroke-width="2"/><polyline points="838.27 719.5 833.83 730.45 841.22 774.97 844.04 779.37 844.96 783.3" fill="none" stroke="#2e2d75" stroke-linejoin="round" stroke-width="2"/><path d="M826.24,713.07l-3.56,13.76a5.64,5.64,0,0,0,.06,2.24l11.08,47.2V785" fill="none" stroke="#2e2d75" stroke-linejoin="round" stroke-width="2"/><line x1="836.84" y1="781.11" x2="836.84" y2="784.51" fill="none" stroke="#2e2d75" stroke-linejoin="round" stroke-width="2"/><line x1="839.39" y1="781.11" x2="839.39" y2="783.39" fill="none" stroke="#2e2d75" stroke-linejoin="round" stroke-width="2"/><line x1="841.22" y1="781.11" x2="842.77" y2="783.62" fill="none" stroke="#2e2d75" stroke-linejoin="round" stroke-width="2"/><path d="M900.22,770.86,901,775l-54.76,7.84V776S878.14,780,900.22,770.86Z" fill="#302d77" stroke="#2e2d75" stroke-linejoin="round" stroke-width="2"/><polyline points="859.63 870.08 863.39 929.85 874.41 929.85 877.75 873.3" fill="none" stroke="#2e2d75" stroke-linejoin="round" stroke-width="2"/><polyline points="917.9 862.09 904.12 922.63 893.07 920.23 898.65 871.1" fill="none" stroke="#2e2d75" stroke-linejoin="round" stroke-width="2"/><path d="M862.31,929.85s.26-4.8,3.19-3.87,3.17,2.41,8.91,3.87S880,938.5,880,938.5s-2.4,1.36-10.12,1.36S859.64,939.58,862.31,929.85Z" fill="#302d77" stroke="#2e2d75" stroke-linejoin="round" stroke-width="2"/><path d="M892.41,920a2.94,2.94,0,0,1,4-.75c2.62,1.4,4.87,2.09,7.11,3.43s3.93,8.26,4.68,9,4.58,3.28,4.58,3.84,2.25,3.55-3.93,3.55-15-8.44-16.83-9.18S888,928.56,892.41,920Z" fill="#302d77" stroke="#2e2d75" stroke-linejoin="round" stroke-width="2"/><polyline points="1048.88 798.06 1049.56 800.02 1055.14 816.15 1079.5 811.18 1079.5 805.99" fill="#302d77" stroke="#2e2d75" stroke-linejoin="round" stroke-width="2"/><path d="M1055.14,816.15s-4.09,8.53-8.27,10-8.61,3.2-7.13,9.1,22.87,1,22.87,1l20.74-8.52s3-6.17-3.85-16.54C1067.77,805.49,1055.14,816.15,1055.14,816.15Z" fill="#fff" stroke="#2e2d75" stroke-miterlimit="10" stroke-width="2"/><path d="M1449,803l-19.32,83.38-18-.92L1421,804S1442.35,805.09,1449,803Z" fill="#302d77" stroke="#2e2d75" stroke-linejoin="round" stroke-width="2"/><path d="M1395,803l2.52,78.41-15.92,4.05L1368,803A206.5,206.5,0,0,0,1395,803Z" fill="#302d77" stroke="#2e2d75" stroke-linejoin="round" stroke-width="2"/><path d="M1413.59,888.6l14,.95s9.53,9.26,9.43,10.69c0,.41,0,1,0,1.59a5.64,5.64,0,0,1-4.49,5.56c-1.9.38-4.94,1.3-7.21-.83-6.7-6.25-11.85-7.66-12.82-9.08S1413.59,888.6,1413.59,888.6Z" fill="#fff" stroke="#2e2d75" stroke-miterlimit="10" stroke-width="2"/><path d="M1384.12,887.41l11.58-3s3.19,4.34,3.19,6.65S1392.06,906,1387,906.23s-2.89-6.45-2.89-6.45S1385.28,892.85,1384.12,887.41Z" fill="#fff" stroke="#2e2d75" stroke-miterlimit="10" stroke-width="2"/><path d="M1700.52,900.79l11-3.33a2.16,2.16,0,0,1,2.37.8l3.89,5.4a2.13,2.13,0,0,1,.41,1.26v2.9a2.15,2.15,0,0,1-1,1.82c-3.7,2.33-16.51,10.29-19.76,10.67-2.79.33-7,1.14-9.09,1.55a2.09,2.09,0,0,1-2.42-1.32c-.31-1,0-2.24,2.33-3.59,4-2.29,9.47-12.22,11-15.11A2.12,2.12,0,0,1,1700.52,900.79Z" fill="#302d77" stroke="#2e2d75" stroke-linejoin="round" stroke-width="2"/><path d="M1648.25,875.77l11-3.79s5.5,2.65,5.5,5.2v3.75l-1.17,2.93s-20.17,9.81-20.69,9.81-5.89,1.46-4.13-2.17S1648.42,881.79,1648.25,875.77Z" fill="#302d77" stroke="#2e2d75" stroke-linejoin="round" stroke-width="2"/><path d="M1089,652.46s38.25-6.58,65.21,0" fill="none" stroke="#2e2d75" stroke-linejoin="round" stroke-width="2"/><rect x="1210" y="799" width="30" height="139.86" fill="#302d77" stroke="#2e2d75" stroke-miterlimit="10" stroke-width="2"/><rect x="1771" y="799" width="30" height="139.86" fill="#302d77" stroke="#2e2d75" stroke-miterlimit="10" stroke-width="2"/><rect x="901" y="804" width="30" height="136" fill="#fff" stroke="#2e2d75" stroke-miterlimit="10" stroke-width="2"/><path d="M1059.66,721s-5.66,4-5.66,5-1.11,2.55-1.55,4.27S1053,734,1054,732s3-3,3-4,10-3,10-3l1.12-4Z" fill="#fff" stroke="#2e2d75" stroke-linejoin="round" stroke-width="2"/><polyline points="1289 766 1334 746 1406 759 1361 786 1298 773" fill="none" stroke="#2d2f75" stroke-miterlimit="10" stroke-width="2"/><line x1="1386" y1="761" x2="1358" y2="777" fill="none" stroke="#2d2f75" stroke-miterlimit="10" stroke-width="2"/><line x1="1372" y1="759" x2="1352" y2="769" fill="none" stroke="#2d2f75" stroke-miterlimit="10" stroke-width="2"/><line x1="1342" y1="754" x2="1311" y2="769" fill="none" stroke="#2d2f75" stroke-miterlimit="10" stroke-width="2"/><polyline points="1204 739 1251 746 1231 778 1177 769 1199 746" fill="none" stroke="#2e2d75" stroke-linejoin="round" stroke-width="2"/><polyline points="1183 756 1181 752 1154 763 1167 789 1194 778 1189.51 771.09" fill="none" stroke="#2e2d75" stroke-linejoin="round" stroke-width="2"/><path d="M311.72,835l52.73-29.39a8.67,8.67,0,0,1,1.84-.75l44.73-12,7.91,12.3-41.2,12.62a8.15,8.15,0,0,0-3.26,1.91l-24.08,23.26v34.27l-2.2,1.83a2.68,2.68,0,0,0,.47,4.43l11.61,6.07a11.52,11.52,0,0,0,7,1.21l45.52-6.51v13.18l-50.4,10.74a11.51,11.51,0,0,1-6.29-.41L310,891.19s-65.91.88-69.42,3.52c0,0-13.18-48.34-7-60.64s6.15-10.54,7-10.54,77.33,7.91,77.33,7.91" fill="#2d2f75" stroke="#2d2f75" stroke-miterlimit="10" stroke-width="2"/><polyline points="350.39 848.74 356.54 852.53 356.54 870.1 350.39 874.66" fill="none" stroke="#2d2f75" stroke-miterlimit="10" stroke-width="2"/><path d="M240.54,894.71s-29.88,2.63-39.55,0-49.21-8.79-49.21-8.79L75.33,908.77l-1.76-24.61,66.79-25.48,44.82-4.4" fill="none" stroke="#2d2f75" stroke-miterlimit="10" stroke-width="2"/><polyline points="200.12 861.31 143.87 833.19 80.6 831.44 80.6 810.35 152.66 805.07 238.94 824.26" fill="none" stroke="#2d2f75" stroke-miterlimit="10" stroke-width="2"/><path d="M391.69,856.92l-18.2-4.72a6.49,6.49,0,0,0-7.65,3.87l-1.39,3.49" fill="none" stroke="#2d2f75" stroke-miterlimit="10" stroke-width="2"/><line x1="366.2" y1="856.04" x2="356.54" y2="855.78" fill="none" stroke="#2d2f75" stroke-miterlimit="10" stroke-width="2"/><line x1="356.54" y1="869.28" x2="363.57" y2="872.74" fill="none" stroke="#2d2f75" stroke-miterlimit="10" stroke-width="2"/><path d="M397,855.16c-5.39,1.35-7,.88-8.79,4.4s-2.63,6.15-5.27,5.27a35.84,35.84,0,0,0-6.15-1.76h-.88s4.39,4.4,3.52,4.4,0,2.63-3.52.87-1.76-1.75-3.52-1.75-4.39-.88-6.15-.88-.88-1.76-1.75,0a20.9,20.9,0,0,0-1.78,6.59c0,1.32-1.74,3.07,0,4.83s7.91,3.52,7.91,3.52-1.76-3.52,1.75,0,3.52,4.39,7,3.51,1.75,1.76,7-.88,4.39,0,7.9-4.39,4.4-4.39,5.28-7.91,2.63-7,2.63-9.67S400.48,854.28,397,855.16Z" fill="#2d2f75" stroke="#2d2f75" stroke-miterlimit="10" stroke-width="2"/><path d="M418.93,805.07s13.18,4.4,11.42,0a8.21,8.21,0,0,0-3.74-4.06,1.13,1.13,0,0,1,.24-2.09c6.8-1.74,20.78-5.48,17.48-6.15-4.31-.88-6.07-2.64-11.34-2.64-4.35,0-13.47,4.18-16.54,5.65a1.13,1.13,0,0,0-.52,1.53l3.88,7.76" fill="#fff" stroke="#2d2f75" stroke-miterlimit="10" stroke-width="2"/><path d="M415.41,884.16a51.61,51.61,0,0,0,3.52-5.27c.88-1.76.88,1.76.88,3.51s7,.88,12.3-.87-8.79,7.9-13.18,9.66L414.54,893v-8.79Z" fill="#fff" stroke="#2d2f75" stroke-miterlimit="10" stroke-width="2"/><path d="M59.51,801.56s5.27-2.64,5.27,1.75a14.64,14.64,0,0,0,2.64,7.91l11.42,3.52s5.28,10.54,0,14.94c0,0-17.57.88-19.33-5.27S59.51,801.56,59.51,801.56Z" fill="#2d2f75" stroke="#2d2f75" stroke-miterlimit="10" stroke-width="2"/><path d="M58.63,893.22s14-4.66,14.84,2.37.2,9.68-14.84,17.14Z" fill="#2d2f75" stroke="#2d2f75" stroke-miterlimit="10" stroke-width="2"/><polyline points="137.8 18 137.8 353.73 65.56 353.69" fill="none" stroke="#2e2d75" stroke-miterlimit="10" stroke-width="2"/><path d="M137.8,210.65s215.13-10,300.56,95.31" fill="none" stroke="#2e2d75" stroke-miterlimit="10" stroke-width="2"/><path d="M137.8,188.92S381,180.8,650,270.08" fill="none" stroke="#2e2d75" stroke-miterlimit="10" stroke-width="2"/><path d="M287.6,224.75c39.61,55.3,71.1,131.64,62.93,231" fill="none" stroke="#2e2d75" stroke-miterlimit="10" stroke-width="2"/><path d="M354.93,430.13s25.5-5.42,29.08,22.47C384,452.6,358.59,458.6,354.93,430.13Z" fill="none" stroke="#2e2d75" stroke-miterlimit="10" stroke-width="2"/><path d="M350.68,367.09s23.26-11.78,33.86,14.27C384.54,381.36,361.49,393.67,350.68,367.09Z" fill="none" stroke="#2e2d75" stroke-miterlimit="10" stroke-width="2"/><path d="M332.12,299.19s20.4-16.24,36.05,7.11C368.17,306.3,348.1,323,332.12,299.19Z" fill="#302d77" stroke="#2e2d75" stroke-miterlimit="10" stroke-width="2"/><path d="M336,335.74s3.7,25.81-24.36,27.51C311.61,363.25,307.33,337.48,336,335.74Z" fill="none" stroke="#2e2d75" stroke-miterlimit="10" stroke-width="2"/><path d="M347.4,400.08s-.59,26.06-28.55,23.13C318.85,423.21,318.86,397.09,347.4,400.08Z" fill="#302d77" stroke="#2e2d75" stroke-miterlimit="10" stroke-width="2"/><path d="M446.84,217.88c57.26,36.73,113.74,95.34,142.9,190.66" fill="none" stroke="#2e2d75" stroke-miterlimit="10" stroke-width="2"/><path d="M584.35,383.12s21.69-14.47,35.33,10.11C619.68,393.23,598.28,408.21,584.35,383.12Z" fill="none" stroke="#2e2d75" stroke-miterlimit="10" stroke-width="2"/><path d="M557.07,326.12s17.26-19.54,36.74.73C593.81,326.85,577,346.81,557.07,326.12Z" fill="none" stroke="#2e2d75" stroke-miterlimit="10" stroke-width="2"/><path d="M514.72,269.91s12.93-22.63,36.12-6.73C550.84,263.18,538.38,286.14,514.72,269.91Z" fill="#302d77" stroke="#2e2d75" stroke-miterlimit="10" stroke-width="2"/><path d="M531.81,302.44s13,22.61-12.45,34.57C519.36,337,505.84,314.65,531.81,302.44Z" fill="none" stroke="#2e2d75" stroke-miterlimit="10" stroke-width="2"/><path d="M566.24,358s9.09,24.43-18,32.05C548.27,390,538.61,365.76,566.24,358Z" fill="#302d77" stroke="#2e2d75" stroke-miterlimit="10" stroke-width="2"/><path d="M399.27,209.88c67.66-7.14,144.42-34.2,213.24-106.32" fill="none" stroke="#2e2d75" stroke-miterlimit="10" stroke-width="2"/><path d="M596.29,123.87s12.89,22.66,36.11,6.81C632.4,130.68,620,107.69,596.29,123.87Z" fill="none" stroke="#2e2d75" stroke-miterlimit="10" stroke-width="2"/><path d="M546.34,162.58s6.66,25.2,33.17,15.82C579.51,178.4,573.4,153,546.34,162.58Z" fill="none" stroke="#2e2d75" stroke-miterlimit="10" stroke-width="2"/><path d="M483.27,193.83s1.42,26,29.27,22.21C512.54,216,511.71,189.93,483.27,193.83Z" fill="#302d77" stroke="#2e2d75" stroke-miterlimit="10" stroke-width="2"/><path d="M513.15,172.42s21.74-14.38,4.37-36.49C517.52,135.93,495.41,149.86,513.15,172.42Z" fill="none" stroke="#2e2d75" stroke-miterlimit="10" stroke-width="2"/><path d="M568.83,138.21s19.08-17.76-1.69-36.71C567.14,101.5,547.62,118.87,568.83,138.21Z" fill="#302d77" stroke="#2e2d75" stroke-miterlimit="10" stroke-width="2"/><path d="M137.8,167.17c231.67-.6,303.27-40.74,372.08-112.86" fill="none" stroke="#2e2d75" stroke-miterlimit="10" stroke-width="2"/><path d="M493.67,74.62s12.89,22.66,36.11,6.81C529.78,81.43,517.37,58.44,493.67,74.62Z" fill="none" stroke="#2e2d75" stroke-miterlimit="10" stroke-width="2"/><path d="M443.72,113.33s6.66,25.2,33.16,15.82C476.88,129.15,470.77,103.75,443.72,113.33Z" fill="none" stroke="#2e2d75" stroke-miterlimit="10" stroke-width="2"/><path d="M380.65,144.58s1.42,26,29.27,22.21C409.92,166.79,409.08,140.68,380.65,144.58Z" fill="#302d77" stroke="#2e2d75" stroke-miterlimit="10" stroke-width="2"/><path d="M410.52,123.17s21.75-14.38,4.37-36.49C414.89,86.68,392.79,100.61,410.52,123.17Z" fill="none" stroke="#2e2d75" stroke-miterlimit="10" stroke-width="2"/><path d="M466.2,89s19.09-17.76-1.68-36.71C464.52,52.25,445,69.62,466.2,89Z" fill="#302d77" stroke="#2e2d75" stroke-miterlimit="10" stroke-width="2"/><path d="M437.65,299.65s12.89-22.66,36.11-6.81C473.76,292.84,461.35,315.83,437.65,299.65Z" fill="none" stroke="#2e2d75" stroke-miterlimit="10" stroke-width="2"/><path d="M558.63,237.5s6.34-25.29,33-16.25C591.59,221.25,585.8,246.73,558.63,237.5Z" fill="none" stroke="#2e2d75" stroke-miterlimit="10" stroke-width="2"/><path d="M586.92,254.23s-8.62,24.6,18.58,31.7C605.5,285.93,614.69,261.48,586.92,254.23Z" fill="#302d77" stroke="#2e2d75" stroke-miterlimit="10" stroke-width="2"/><path d="M628.16,259.18s6.34-25.29,33-16.25C661.12,242.93,655.33,268.41,628.16,259.18Z" fill="none" stroke="#2e2d75" stroke-miterlimit="10" stroke-width="2"/><path d="M390.34,260.93s6.66-25.21,33.17-15.82C423.51,245.11,417.39,270.51,390.34,260.93Z" fill="none" stroke="#2e2d75" stroke-miterlimit="10" stroke-width="2"/><path d="M327.28,232.31s1.41-26,29.27-22.21C356.55,210.1,355.71,236.21,327.28,232.31Z" fill="#302d77" stroke="#2e2d75" stroke-miterlimit="10" stroke-width="2"/><path d="M357.15,251.09s21.74,14.38,4.36,36.48C361.51,287.57,339.41,273.65,357.15,251.09Z" fill="none" stroke="#2e2d75" stroke-miterlimit="10" stroke-width="2"/><path d="M412.82,285.3s19.08,17.77-1.69,36.71C411.13,322,391.62,304.64,412.82,285.3Z" fill="#302d77" stroke="#2e2d75" stroke-miterlimit="10" stroke-width="2"/><path d="M137.32,143.05s215.13,10,300.56-95.31" fill="none" stroke="#2e2d75" stroke-miterlimit="10" stroke-width="2"/><path d="M287.12,129A342.76,342.76,0,0,0,336,31.65" fill="none" stroke="#2e2d75" stroke-miterlimit="10" stroke-width="2"/><path d="M331.64,54.51S352,70.75,367.69,47.4C367.69,47.4,347.62,30.67,331.64,54.51Z" fill="#302d77" stroke="#2e2d75" stroke-miterlimit="10" stroke-width="2"/><path d="M140.36,390.26s-.69-9.85-1.45-18.77l32.37,8.42v9.25a29.92,29.92,0,0,1-6.45,18.56h0A29.94,29.94,0,0,1,139.44,419L71.52,415V397.7Z" fill="#fff" stroke="#2e2d75" stroke-miterlimit="10" stroke-width="2"/><path d="M412.34,68.4s19.09-17.76-1.69-36.71C410.65,31.69,391.14,49.06,412.34,68.4Z" fill="#302d77" stroke="#2e2d75" stroke-miterlimit="10" stroke-width="2"/><path d="M174.43,394.92V296.31s-37.11-7.29-37.11,30.15.48,27.27.48,27.27l-4.49,31a3.22,3.22,0,0,0,2.44,3.59l36.19,8.57A2,2,0,0,0,174.43,394.92Z" fill="#2f2f77" stroke="#2e2d75" stroke-miterlimit="10" stroke-width="2"/><path d="M71.52,415V397.7S64.6,394.54,58,396.26v36.27s6.11.58,7.83-5S68.74,416.85,71.52,415Z" fill="#2f2f77" stroke="#2e2d75" stroke-miterlimit="10" stroke-width="2"/><path d="M244.42,331.61c19,22.29,62.6,56.47,62.6,56.47l-9.24,10.1S255.45,375.51,223.9,345" fill="none" stroke="#2e2d75" stroke-miterlimit="10" stroke-width="2"/><path d="M231.34,351.87c-11.79-2.35-56.18-2-56.18-2l-.73-43V296.31s26.13-10.61,54.35-7.54c10,.52,79.67-14.36,79.67-14.36l5.24,13.16L255.45,306" fill="none" stroke="#2e2d75" stroke-miterlimit="10" stroke-width="2"/><path d="M249.51,337.27s10.82-12.65,5.69-34.42" fill="none" stroke="#2e2d75" stroke-miterlimit="10" stroke-width="2"/><path d="M256.28,309.09l4.86,1.56s1.58,9.83-.85,18.2l-7.68,3.38" fill="none" stroke="#2e2d75" stroke-miterlimit="10" stroke-width="2"/><line x1="260.77" y1="327.54" x2="267.53" y2="326.71" fill="none" stroke="#2e2d75" stroke-miterlimit="10" stroke-width="2"/><path d="M266.1,320.88l1.59,6.8a5.65,5.65,0,0,0,6.47,4.28l18.44-3.18" fill="none" stroke="#2e2d75" stroke-miterlimit="10" stroke-width="2"/><path d="M298.32,331.1c-3.52-.64-5.61.16-7.69-5.28s-11.28-3.13-11.28-3.13l-2-1.81s8.17-2.22,7.05-5-9.16-1.31-11,1.09-8.32,1.85-9.24,1.09.28-7.5-.08-8.62.7-2.56,3.46-3.2,6.76-2.12,8.52-2.58,5.77-3.54,5.77-3.54,9-4.46,13,.67,6.09,9.93,6.25,12.5a59.54,59.54,0,0,1,0,7.56c-.16,2.85-1.45,4.85,0,6.66s3,1.8,2.08,2.92S298.32,331.1,298.32,331.1Z" fill="#302d77" stroke="#2e2d75" stroke-miterlimit="10" stroke-width="2"/><line x1="261.65" y1="315.14" x2="264.15" y2="313.59" fill="#302d77" stroke="#2e2d75" stroke-miterlimit="10" stroke-width="2"/><path d="M304.82,390.48s6.26-.16,6.56.55,6.13,7.21,4.09,6-3.54-2.32-4.37-1.23-1.32,1.26-1.37,2.4-.41,1.63,3,1.66,5.35-1.53,5,0-3.36,2.77-3.36,2.77l-1.91.27s-4.28,2.05-6.51-.27-6.61-6.13-6.61-6.13Z" fill="#fff" stroke="#2e2d75" stroke-miterlimit="10" stroke-width="2"/><path d="M355.9,654.77s5.68-2.62,6.24-2.09,8.49,4.18,6.12,3.87-4.16-.73-4.49.6-.72,1.68-.31,2.75.27,1.65,3.42.33,4.3-3.53,4.59-2-2,3.87-2,3.87l-1.65,1s-3.12,3.58-6.08,2.33-8.5-3-8.5-3Z" fill="#fff" stroke="#2e2d75" stroke-miterlimit="10" stroke-width="2"/><path d="M312.89,285.56s6.72.31,6.82,0,4.18-3.8,4.05-5.16-.9-1.66-3.24.52-4.64,1.48-4.51-.52.89-3.78,6.22-3.4,3.81-2,.76-2.59-4-1.5-6-.85-7.3,3.94-7.3,3.94Z" fill="#fff" stroke="#2e2d75" stroke-miterlimit="10" stroke-width="2"/><path d="M367.49,551.91s6.57,1.48,6.72,1.19,4.78-3,4.89-4.38-.59-1.79-3.28-.06-4.83.66-4.35-1.29,1.53-3.57,6.72-2.26,4.1-1.32,1.2-2.42-3.7-2.17-5.77-1.88-7.88,2.6-7.88,2.6Z" fill="#fff" stroke="#2e2d75" stroke-miterlimit="10" stroke-width="2"/><path d="M237.58,312s-23.69-3.92-47,0" fill="#fff" stroke="#2e2d75" stroke-miterlimit="10" stroke-width="2"/><polyline points="188.35 605.54 132.07 597.45 77.96 575.37 77.96 561.08 133.16 568.95 209.92 571.47 209.92 639.44 129.54 642.56 77.96 626.99 77.96 611.3 132.94 616.06 181.1 604.5" fill="#2f2f77" stroke="#2e2d75" stroke-miterlimit="10" stroke-width="2"/><path d="M75.51,573V561.08a8.65,8.65,0,0,0-6.36-3.82l-3.44,3a14,14,0,0,0-4.68,9c-.55,4.94-1.27,12-1.27,15.47a6.59,6.59,0,0,0,7.88-4.91A9.43,9.43,0,0,1,75.51,573Z" fill="#fff" stroke="#2e2d75" stroke-miterlimit="10" stroke-width="2"/><path d="M75.51,625.05V613.12a8.62,8.62,0,0,0-6.36-3.82l-3.44,3a14.07,14.07,0,0,0-4.68,9c-.55,4.94-1.27,12-1.27,15.47a6.59,6.59,0,0,0,7.88-4.91A9.44,9.44,0,0,1,75.51,625.05Z" fill="#fff" stroke="#2e2d75" stroke-miterlimit="10" stroke-width="2"/><path d="M303.38,611.63l-15.63-6.09s10.42-5.4,13.35-8.27,3-10.38,4.08-13.49,8.25-7.57,10.09-9.49,43-19.57,52.26-19.84l-2.88-13s-44.35,7.66-76.9,23.3-61.59,4-64.79,3.62-17.87-4.34-17.55,12.29,3.51,26.85,3.19,33.87-3.52,13.72-3.19,20.11,3.19,8.29,13.41,5.1,32.82-7.66,52-3.51,81.62,27.45,81.62,27.45l4.26-12.45S310.08,632.45,307.21,627,306.57,617.37,303.38,611.63Z" fill="#fff" stroke="#2e2d75" stroke-miterlimit="10" stroke-width="2"/><line x1="303.38" y1="611.63" x2="312.58" y2="610.74" fill="#fff" stroke="#2e2d75" stroke-miterlimit="10" stroke-width="2"/><path d="M310.34,603.9l2.06,7.78a4.6,4.6,0,0,0,4.94,3.38l16.22-1.8" fill="#fff" stroke="#2e2d75" stroke-miterlimit="10" stroke-width="2"/><path d="M331.75,609.49s-.47,6.07,1.81,7,4.32,1.68,6.48.12,3-.6,3.12-3.84-.9-1.13,0-5c.79-3.43-1.38-4.93-1.51-5.51-.76-3.38-2-5.21-1.21-6.66,1-1.91-4.85-3.61-6.89-4.45s-2.87-1.94-5.92-2.42-7.92,2.42-9.11,2.74a15.76,15.76,0,0,0-4.07,2.25c-1.2.84-2.52.72-2.64,1.68s-5.09,6.48.76,4.68,6.93-3.48,8.61-2.16,4,.72,2,2.4-3.85,2.52-3.36,3,.72.6,3.48,0,2.64-.14,5,.59S331.74,606.8,331.75,609.49Z" fill="#302d77" stroke="#2e2d75" stroke-miterlimit="10" stroke-width="2"/><line x1="309.74" y1="598.87" x2="301.1" y2="597.27" fill="#fff" stroke="#2e2d75" stroke-miterlimit="10" stroke-width="2"/><line x1="644" y1="1098" x2="644" y2="567" fill="#2d2f75" stroke="#2d2f75" stroke-miterlimit="10" stroke-width="2"/><path d="M1519.23,323.69c5-2.38,10.41-4.75,10.41-4.75,10.24-6.14,7.85-13,7.85-13s-14.39-32.54,4.67-35.44,26.11,7,24.87,24-1.66,20.72-21.55,11.18" fill="none" stroke="#2e2d75" stroke-miterlimit="10" stroke-width="2"/><path d="M1415.76,413.51l7.87-6.63a70.35,70.35,0,0,0,10.36-7.05c4.24-3.52,33.14-36,51.11-52.95" fill="none" stroke="#2e2d75" stroke-miterlimit="10" stroke-width="2"/><path d="M1550.45,308s.89,13,9.53,18.86" fill="none" stroke="#2e2d75" stroke-miterlimit="10" stroke-width="2"/><polyline points="1431.19 421.48 1435.24 410.19 1441.04 403.15 1495.58 367.63" fill="none" stroke="#2e2d75" stroke-miterlimit="10" stroke-width="2"/><line x1="1426.05" y1="409.34" x2="1416.85" y2="417.17" fill="none" stroke="#2e2d75" stroke-miterlimit="10" stroke-width="2"/><line x1="1428.39" y1="411.27" x2="1419.09" y2="421.99" fill="none" stroke="#2e2d75" stroke-miterlimit="10" stroke-width="2"/><line x1="1431.19" y1="412.46" x2="1424.39" y2="424.59" fill="none" stroke="#2e2d75" stroke-miterlimit="10" stroke-width="2"/><path d="M1569,359.26l.64,55.62-18.91-.76-55.53-2.9h-.32l9.12-49.1-8.46,5.5-10.48-20.74,0,0c3.15-3,6.74-6.26,9-8a136.16,136.16,0,0,1,25.14-15.22s21.28,14.81,40.75,3.2l1.09.53c.69.47-1.91-.91-1.09-.53,9.25,4.3,16.58,13.26,23.63,25.28l9.43,18.09-17.7,11.14-6-11.14" fill="#302d77" stroke="#2e2d75" stroke-linejoin="round" stroke-width="2"/><polyline points="1593.04 370.26 1600.35 384.36 1625.72 420.33 1631.08 421.69 1637.42 427.75" fill="none" stroke="#2e2d75" stroke-miterlimit="10" stroke-width="2"/><polyline points="1575.34 381.4 1582.31 390.37 1615.23 424.59 1621.81 435.12 1630.59 442.33" fill="none" stroke="#2e2d75" stroke-miterlimit="10" stroke-width="2"/><line x1="1634.57" y1="441.53" x2="1625.46" y2="432.34" fill="none" stroke="#2e2d75" stroke-miterlimit="10" stroke-width="2"/><line x1="1638.09" y1="439.05" x2="1627.54" y2="428.82" fill="none" stroke="#2e2d75" stroke-miterlimit="10" stroke-width="2"/><line x1="1638.09" y1="433.93" x2="1630.02" y2="427.13" fill="none" stroke="#2e2d75" stroke-miterlimit="10" stroke-width="2"/><path d="M1540.78,441.53l-5.91,61L1513.26,561l-17.68-1.35,8.54-61.66-8.54-49.49s-4-26-.66-37.25l74.76,3.66,33.15,10.62a10,10,0,0,1,6.24,11.85L1587.55,507l-18.3.34-2.56-52.1-25.91-7.08" fill="none" stroke="#2e2d75" stroke-miterlimit="10" stroke-width="2"/><path d="M1509.92,567s-9.54-1.47-11.2-6.06-5.12,0-5.12,0a28.43,28.43,0,0,0-2.77,6.06c-.73,2.75,0,4,0,4L1505,579.7h16s6.78-2.79,0-6.09S1510.66,570.15,1509.92,567Z" fill="#302d77" stroke="#2e2d75" stroke-miterlimit="10" stroke-width="2"/><path d="M1583.92,508.68s-7.8,3-11.79,0c0,0-5,3.84-4.35,7.83s3.23,3.55,6.43,3.69,21.89,0,21.89,0,12-.32,3.67-4.24S1588,511.88,1583.92,508.68Z" fill="#302d77" stroke="#2e2d75" stroke-miterlimit="10" stroke-width="2"/><line x1="1511.64" y1="560.97" x2="1509.11" y2="566.88" fill="#302d77" stroke="#2e2d75" stroke-miterlimit="10" stroke-width="2"/><path d="M1545.46,279.72s7.29,2.26,11.81,0,4-1.39,5.73,0,2.78,1.83,4.17,1,2.77-1,3.64-4-2.25-3.41.35-6.74,6.95-4.2,1.56-8.54-1.39-6.6-6.42-4.69-4.52,4-8,4.69-5.56,1.21-8.68.34-5-3.64-6.43-.69.24,2.43-4.13,4.86-5.94,2.61-7.33,5.56-1.21,4-1.91,7.46-.35,5-1.21,7-3,.7-1,3.47,1.91.52,3.65,5,.69,3.13,1.74,4.51,2.43,4.69,2.78,0,1.73-3.29.86-7.12,0-6.59,1.05-7.64,2.08-2.25,3.12-2.08,2.78-.35,1.56,3-1.91,4-1.39,4.52,1.56,2.08,2.26.52a4.88,4.88,0,0,0,.7-3.13,27.62,27.62,0,0,1,.69-4.69Z" fill="#302d77" stroke="#2e2d75" stroke-linejoin="round" stroke-width="2"/><path d="M608.51,564.5h0c0,61,56.85,110.5,127,110.5h344.67a119.8,119.8,0,0,0,45.52-8.84,22.53,22.53,0,0,1,14.24-.83c15.75,4.16,61.59,3,61.59,3-17.59,0-27.11-12.21-31.76-21.29a15.38,15.38,0,0,1,1.28-16.14A83.9,83.9,0,0,0,1187,582V564.5c0-61-56.85-110.5-127-110.5H735.49C665.36,454,608.51,503.47,608.51,564.5Z" fill="#fff" stroke="#302d77" stroke-miterlimit="10" stroke-width="2"/><text transform="translate(678.51 550)" font-size="48" fill="#302d77" font-family="Raleway-Medium, Raleway" font-weight="500">Cr<tspan x="50.16" y="0" letter-spacing="0em">a</tspan><tspan x="76.56" y="0">fting s</tspan><tspan x="214.8" y="0" letter-spacing="-0.01em">t</tspan><tspan x="231.36" y="0">ories </tspan><tspan x="352.51" y="0" letter-spacing="-0.01em">f</tspan><tspan x="368.39" y="0">o</tspan><tspan x="397.15" y="0" letter-spacing="-0.02em">r</tspan><tspan x="413.47" y="0"> </tspan><tspan x="0" y="57.6">the</tspan><tspan x="73.58" y="57.6" letter-spacing="-0.03em"> </tspan><tspan x="84.09" y="57.6">Village</tspan></text><polygon points="705 758 746 704 1236 547 1426 574 1766.13 630.91 1851.52 790.13 1835 894 1079 875 705 758" fill="lime" opacity="0"/></svg>