<svg xmlns="http://www.w3.org/2000/svg" viewBox="0 0 1259.72 365.99"><title>header</title><path d="M228.55,203.53,245.72,278s-22.8,21.41-40,20.26-12.35.28-19.79-1.44-21.29-6.22-21.29-6.22v-91S219.05,202.8,228.55,203.53Z" fill="#303078" stroke="#2d2f75" stroke-linejoin="round" stroke-width="2"/><path d="M1045,203.21s3.72,10.49-13.83,11.48-49.27,1-49.27,1l2.64-7.62Z" fill="#303078" stroke="#2d2f75" stroke-miterlimit="10" stroke-width="2"/><path d="M1040.67,213.67l19.68,151.18H1054l-25.55-150S1035.88,209.8,1040.67,213.67Z" fill="#fff" stroke="#2d2f75" stroke-miterlimit="10" stroke-width="2"/><path d="M981.55,213.67,961.87,364.85h6.39l25.55-150S986.34,209.8,981.55,213.67Z" fill="#fff" stroke="#2d2f75" stroke-miterlimit="10" stroke-width="2"/><path d="M1007.23,213.67l1.49,151.18h6.39l4.38-150S1012,209.8,1007.23,213.67Z" fill="#fff" stroke="#2d2f75" stroke-miterlimit="10" stroke-width="2"/><polygon points="1058.02 347.81 964.09 347.81 964.74 343.65 1057.15 343.65 1058.02 347.81" fill="#303078" stroke="#2d2f75" stroke-miterlimit="10" stroke-width="2"/><path d="M998.83,206.56l8.09-.66,1.29-6.68Z" fill="none"/><path d="M1039.29,203.66l-32.44,2.6-8.74,45.25a10.85,10.85,0,0,0,.19,4.94l18.78,68.36,15.61-5.05L1023.81,259a7.25,7.25,0,0,1,.15-2.86C1025.73,249.21,1033.66,218.57,1039.29,203.66Z" fill="#fff" stroke="#2d2f75" stroke-miterlimit="10" stroke-width="2"/><path d="M931.11,229.62l-1.26,3.56a14.75,14.75,0,0,0,1.4,12.75l33.61,53.7,15.13-5-20.06-52.34a6,6,0,0,1,1.89-6.83l36.51-28.54-47.39,3.8L935.71,223.1A14.84,14.84,0,0,0,931.11,229.62Z" fill="#fff" stroke="#2d2f75" stroke-miterlimit="10" stroke-width="2"/><path d="M943.57,211.33l7.37-.59.09-.08C946.35,211.07,943.57,211.33,943.57,211.33Z" fill="#fff" stroke="#2d2f75" stroke-miterlimit="10" stroke-width="2"/><path d="M1049.29,202.86c-2.82.14-6.18.35-9.92.6l-.08.2Z" fill="#fff" stroke="#2d2f75" stroke-miterlimit="10" stroke-width="2"/><path d="M1006.85,206.26l.07-.36-8.09.66-.5.38" fill="#fff" stroke="#2d2f75" stroke-miterlimit="10" stroke-width="2"/><path d="M762.13,213.67,781.8,364.85h-6.39l-25.55-150S757.34,209.8,762.13,213.67Z" fill="#fff" stroke="#2d2f75" stroke-miterlimit="10" stroke-width="2"/><path d="M703,213.67,683.33,364.85h6.39l25.55-150S707.8,209.8,703,213.67Z" fill="#fff" stroke="#2d2f75" stroke-miterlimit="10" stroke-width="2"/><path d="M728.68,213.67l1.5,151.18h6.39l4.38-150S733.47,209.8,728.68,213.67Z" fill="#fff" stroke="#2d2f75" stroke-miterlimit="10" stroke-width="2"/><polygon points="779.48 347.81 685.54 347.81 686.2 343.65 778.61 343.65 779.48 347.81" fill="#303078" stroke="#2d2f75" stroke-miterlimit="10" stroke-width="2"/><path d="M80,243.42,99.65,364.85H93.26L67.71,244.35S75.18,240.31,80,243.42Z" fill="#fff" stroke="#2d2f75" stroke-miterlimit="10" stroke-width="2"/><path d="M20.85,243.42,1.18,364.85H7.57l25.55-120.5S25.64,240.31,20.85,243.42Z" fill="#fff" stroke="#2d2f75" stroke-miterlimit="10" stroke-width="2"/><path d="M46.53,243.42,48,364.85h6.4l4.37-120.5S51.32,240.31,46.53,243.42Z" fill="#fff" stroke="#2d2f75" stroke-miterlimit="10" stroke-width="2"/><polygon points="97.33 351.17 3.39 351.17 4.04 347.82 96.46 347.82 97.33 351.17" fill="#303078" stroke="#2d2f75" stroke-miterlimit="10" stroke-width="2"/><polygon points="92.4 219.03 1258.72 219.03 535.5 153.19 92.4 219.03" fill="#fff" stroke="#2d2f75" stroke-miterlimit="10" stroke-width="2"/><rect x="92.4" y="219.02" width="1166.32" height="9.94" fill="#303078" stroke="#2d2f75" stroke-miterlimit="10" stroke-width="2"/><line x1="35.72" y1="364.85" x2="1126.08" y2="364.85" fill="none" stroke="#2d2f75" stroke-miterlimit="10" stroke-width="2"/><rect x="11.43" y="234.99" width="77.63" height="10.06" rx="3.13" fill="#303078" stroke="#2d2f75" stroke-linejoin="round" stroke-width="2"/><polygon points="185.67 72.12 187.99 83.94 185.67 87.84 178.47 87.84 177.58 74.35 185.67 72.12" fill="#303078" stroke="#2d2f75" stroke-linejoin="round" stroke-width="2"/><path d="M205.09,74.84V55.9h-7.68s-6.7,14.51-13.18,17.71-5.75,14.66-5.75,14.66-13.55-42.34,16.11-42.64,10.5,29.21,10.5,29.21" fill="#303078" stroke="#2d2f75" stroke-linejoin="round" stroke-width="2"/><path d="M205.09,74.84s-1.61,3.2,2.55,9.81,4.1,8.93,4.1,8.93l-14.33-6.11V81.83A9.71,9.71,0,0,0,205.09,74.84Z" fill="#303078" stroke="#2d2f75" stroke-linejoin="round" stroke-width="2"/><path d="M711.69,93.07l11.59,11.75,10.37-11,26.19,11s12.31,29.91,13.81,42.05A275.29,275.29,0,0,1,775.13,175L760,173.63s-4.05-31.86-6.52-38.43c0,0-2.76,21.25-.45,37.79l-55.82-5.08s-.31-31.52-3.71-40.19c0,0-11.31,23.83-13.3,27.26s4.94,11.83,4.94,11.83l-18.5-1.68L662.22,157s10.43-40.69,22.53-55.08A117.2,117.2,0,0,1,711.69,93.07Z" fill="none" stroke="#2d2f75" stroke-miterlimit="10" stroke-width="2"/><path d="M723.66,109s3.4,16.18,1.88,25-.9,11.84,0,19.15a89.22,89.22,0,0,1,.77,12.05" fill="none" stroke="#2d2f75" stroke-miterlimit="10" stroke-width="2"/><line x1="733.65" y1="93.82" x2="731.48" y2="85.51" fill="none" stroke="#2d2f75" stroke-miterlimit="10" stroke-width="2"/><line x1="711.69" y1="93.07" x2="715.16" y2="82.27" fill="none" stroke="#2d2f75" stroke-miterlimit="10" stroke-width="2"/><path d="M720.84,84.2l10.78.88a5.08,5.08,0,0,0,5.49-4.73l1.09-16.56" fill="none" stroke="#2d2f75" stroke-miterlimit="10" stroke-width="2"/><path d="M731.48,60.65s3.16,4.74,6.72,6.29-.7,7.5-.7,7.5l7.38-2.83s.93-6.22,0-9.65.63-7.47-2.52-10.53-3.16-7.68-6.86-5.73-3-1.82-9-2.59-10.95-6.37-13.12-1.38-.62,7.39-1.73,9.76-3.41-.45-2.24,7.5,3.92,12.31,2.24,13.87-1.57,4.11-2.56,6.26.8,4.3,2.56,6.39,1.73.26,1.73-3.24,1.65-3.79,1.74-7.72,3.51-11.95,3.51-11.95.55.48,2.17-2,3.37-2.14,6.23-1.66A10.69,10.69,0,0,1,731.48,60.65Z" fill="#303078" stroke="#2d2f75" stroke-linejoin="round" stroke-width="2"/><path d="M992.91,120.5S990,131,1003.16,131s12.48-13.69,12.48-13.69l11.07-2.21a8.81,8.81,0,0,0,6.28-5l16.51-36.3-8.41-41.56,8.72-3.95,16.2,43.4a9.22,9.22,0,0,1,.56,3.33l-.06,2.24a8.85,8.85,0,0,1-.58,3l-19.67,48.25s-7.94,28.67-3,46.55c0,0-4.43,12.93-17.35,11.12s-12.56-2.45-17.35.17-8,4.61-12.13,4.94a64.52,64.52,0,0,1-8.47,0l-5.59.14s2.47-24.53.6-35.89a2.59,2.59,0,0,0-4.46-1.35l-25,27.12a6.94,6.94,0,0,1-3.33,1.83l-24.44,5.63L907,187l31.33-15.69a7.76,7.76,0,0,0,2.78-2.34l26.67-36.27a12.13,12.13,0,0,1,5.11-4Z" fill="#303078" stroke="#2d2f75" stroke-linejoin="round" stroke-width="2"/><path d="M1038,182.65s1.24,8.47,2,12.5l.7,4-56.18-5.12v-2.73s15.26,1.37,22.15-4,15.71-1.76,15.71-1.76S1033.85,187.94,1038,182.65Z" fill="none" stroke="#2d2f75" stroke-miterlimit="10" stroke-width="2"/><polyline points="1048.49 28.28 1048.49 21.57 1043.89 17.6 1043.89 22.94" fill="none" stroke="#2d2f75" stroke-linejoin="round" stroke-width="2"/><polyline points="1042.53 18.88 1040.76 17.6 1041.65 22.94" fill="none" stroke="#2d2f75" stroke-linejoin="round" stroke-width="2"/><line x1="1039.41" y1="19.3" x2="1035.63" y2="11.36" fill="none" stroke="#2d2f75" stroke-linejoin="round" stroke-width="2"/><line x1="1038.28" y1="21.29" x2="1031.75" y2="12.07" fill="none" stroke="#2d2f75" stroke-linejoin="round" stroke-width="2"/><polyline points="1041.65 29.89 1038.28 24.98 1033.74 21.29" fill="none" stroke="#2d2f75" stroke-linejoin="round" stroke-width="2"/><path d="M1015.64,118s-6-2.78-7.06-8.48" fill="none" stroke="#2d2f75" stroke-linejoin="round" stroke-width="2"/><path d="M992.91,121.46s5.56,1.81,4.08-9.71" fill="none" stroke="#2d2f75" stroke-linejoin="round" stroke-width="2"/><path d="M990.39,120.5c-1,0-1.86-1.26-3.61-2.48s-1.55-1.67-2-4.24a35.44,35.44,0,0,0-1-5.68c-1-4.33-.21-5.77-2.89-13.94s0-5.85,0-5.85a19.46,19.46,0,0,1,3.92-7.54c2.89-3.2,14.29-3.87,18.21-.57s6.88,9.74,19.53,15.53,9.19,20.93,9.19,20.93l-11,4.9-8.59-6.9s6.94-4.29-2-8.11-18.89-14-18.89-14l-4,1.59,3.72,12.9a7.11,7.11,0,0,0,8.7,4.88h0c3.09-.84,7.08-3.69,7.08-6.89v-.63" fill="none" stroke="#2d2f75" stroke-linejoin="round" stroke-width="2"/><path d="M409.72,101c-9.85,6.5-21,45-21,45h-12s0-1,6-34c3.94-21.65,12.61-40.29,18.11-50.55A22,22,0,0,1,416.4,50.17c1-.16,1.81-.3,2.51-.43l8.75-1.58h23.12L463.11,50c2.88.44,9.61,1,12.61,3,0,0,14,7,15,28s-2,30-2,30l-6.2,10.62" fill="none" stroke="#2d2f75" stroke-linejoin="round" stroke-width="2"/><path d="M480.72,88s1,35,3.4,49.37c0,0-23.27,22-53,9.2-15.33-7.19-26-1.6-26-1.6s8.58-26,3.58-53" fill="none" stroke="#2d2f75" stroke-linejoin="round" stroke-width="2"/><path d="M454.23,33.71c0,1.33,4,10.39-2.67,9.4s-6.77,1.79-14.9,0-5.47-.72-8.12-1.78-.38-1.89-2.45-6.89-1.33,1.12-3.19-9.77S421.2.46,435.58,1,452.74,3.8,453.86,11.4,454.23,33.71,454.23,33.71Z" fill="#303078" stroke="#2d2f75" stroke-linejoin="round" stroke-width="2"/><line x1="432.36" y1="48.08" x2="432.36" y2="42.97" fill="#303078" stroke="#2d2f75" stroke-linejoin="round" stroke-width="2"/><line x1="453.26" y1="48.54" x2="451.56" y2="43.11" fill="#303078" stroke="#2d2f75" stroke-linejoin="round" stroke-width="2"/><path d="M482.31,138.88s3.9,34.58-22.2,37-57-2.51-57-2.51l-40.85,5.6v-16A6.2,6.2,0,0,1,366.6,157l38.54-12s9.24-4.93,16.93-1.42S461.4,160.79,482.31,138.88Z" fill="#303078" stroke="#2d2f75" stroke-linejoin="round" stroke-width="2"/><path d="M215.86,112.12l4,7a13.85,13.85,0,0,1-.16,14l-3.82,6.39s-6,6.47,0,31.09l5.94,24.62S188,208,164.68,200c0,0-1.25-46.74,0-70.08" fill="none" stroke="#2d2f75" stroke-linejoin="round" stroke-width="2"/><path d="M169.22,113.83l-9.06,31.82-16-8.53,10.34-38.69a10.32,10.32,0,0,1,8.23-7.5l16.85-2.85a2.56,2.56,0,0,1,2.69,1.31l4.2,7.77h11V88.93a1.09,1.09,0,0,1,1.53-1l17.66,7.84a9.94,9.94,0,0,1,4.75,4.42l13.8,26-13.56,13.33-3.4-4" fill="none" stroke="#2d2f75" stroke-linejoin="round" stroke-width="2"/><path d="M197.41,90.37V81.83s-7.83,3.33-11.87-8l-3.23,15.53" fill="#fff" stroke="#2d2f75" stroke-miterlimit="10" stroke-width="2"/><path d="M185.67,70.72v1.4a9.71,9.71,0,0,0,9.71,9.71h0a9.71,9.71,0,0,0,9.71-9.71V55.9" fill="none" stroke="#2d2f75" stroke-linejoin="round" stroke-width="2"/><polyline points="232.56 128.76 244.38 148.4 265.08 171.52 270.51 175.85 276.92 184.96" fill="none" stroke="#2d2f75" stroke-linejoin="round" stroke-width="2"/><polyline points="270.29 178.94 271.81 181.66 274.82 187.13" fill="none" stroke="#2d2f75" stroke-linejoin="round" stroke-width="2"/><polyline points="268.32 180.57 270.29 186.11 273.21 191.09" fill="none" stroke="#2d2f75" stroke-linejoin="round" stroke-width="2"/><polyline points="223.84 137.33 235.21 152.16 263.27 180.57 263.27 184.52 266.77 191.09" fill="none" stroke="#2d2f75" stroke-linejoin="round" stroke-width="2"/><polyline points="265.91 182.33 266.78 186.11 270.01 191.09" fill="none" stroke="#2d2f75" stroke-linejoin="round" stroke-width="2"/><polyline points="157.99 144.49 153.55 155.43 160.94 199.96 163.76 204.35 164.69 208.29" fill="none" stroke="#2d2f75" stroke-linejoin="round" stroke-width="2"/><path d="M146,138.06l-3.56,13.75a5.63,5.63,0,0,0,.06,2.24l11.09,47.2v8.69" fill="none" stroke="#2d2f75" stroke-linejoin="round" stroke-width="2"/><line x1="156.56" y1="206.1" x2="156.56" y2="209.49" fill="none" stroke="#2d2f75" stroke-linejoin="round" stroke-width="2"/><line x1="159.12" y1="206.1" x2="159.12" y2="208.38" fill="none" stroke="#2d2f75" stroke-linejoin="round" stroke-width="2"/><line x1="160.94" y1="206.1" x2="162.49" y2="208.61" fill="none" stroke="#2d2f75" stroke-linejoin="round" stroke-width="2"/><path d="M219.94,195.84l.81,4.12L166,207.8v-6.86S197.86,205,219.94,195.84Z" fill="#303078" stroke="#2d2f75" stroke-linejoin="round" stroke-width="2"/><polyline points="179.35 295.06 183.11 354.84 194.13 354.84 197.47 298.29" fill="none" stroke="#2d2f75" stroke-linejoin="round" stroke-width="2"/><polyline points="237.63 287.07 223.84 347.62 212.79 345.21 218.37 296.08" fill="none" stroke="#2d2f75" stroke-linejoin="round" stroke-width="2"/><path d="M182,354.84s.26-4.8,3.19-3.87,3.17,2.41,8.91,3.87,5.61,8.65,5.61,8.65-2.4,1.36-10.12,1.36S179.36,364.57,182,354.84Z" fill="#303078" stroke="#2d2f75" stroke-linejoin="round" stroke-width="2"/><path d="M212.13,344.94a2.94,2.94,0,0,1,4-.75c2.62,1.4,4.87,2.09,7.11,3.43s3.93,8.26,4.68,9,4.58,3.27,4.58,3.83,2.25,3.56-3.93,3.56-15-8.45-16.83-9.18S207.74,353.54,212.13,344.94Z" fill="#303078" stroke="#2d2f75" stroke-linejoin="round" stroke-width="2"/><polyline points="368.6 223.04 369.28 225.01 374.87 241.14 399.22 236.17 399.22 230.98" fill="#303078" stroke="#2d2f75" stroke-linejoin="round" stroke-width="2"/><path d="M374.87,241.14s-4.1,8.52-8.28,10-8.61,3.2-7.13,9.1,22.88,1,22.88,1l20.73-8.52s2.95-6.18-3.85-16.54C387.5,230.48,374.87,241.14,374.87,241.14Z" fill="#fff" stroke="#2d2f75" stroke-miterlimit="10" stroke-width="2"/><path d="M768.72,228,749.4,311.37l-18-.92L740.72,229S762.07,230.08,768.72,228Z" fill="#303078" stroke="#2d2f75" stroke-linejoin="round" stroke-width="2"/><path d="M714.72,228l2.52,78.41-15.92,4.05L687.72,228A206.5,206.5,0,0,0,714.72,228Z" fill="#303078" stroke="#2d2f75" stroke-linejoin="round" stroke-width="2"/><path d="M733.31,313.59l14,1s9.53,9.25,9.43,10.69c0,.41,0,1,0,1.59a5.62,5.62,0,0,1-4.49,5.55c-1.9.39-4.94,1.3-7.21-.82-6.7-6.26-11.85-7.66-12.82-9.08S733.31,313.59,733.31,313.59Z" fill="#fff" stroke="#2d2f75" stroke-miterlimit="10" stroke-width="2"/><path d="M703.84,312.4l11.58-3s3.19,4.34,3.19,6.66-6.83,14.94-11.88,15.14-2.89-6.45-2.89-6.45S705,317.84,703.84,312.4Z" fill="#fff" stroke="#2d2f75" stroke-miterlimit="10" stroke-width="2"/><path d="M1020.24,325.77l11-3.32a2.14,2.14,0,0,1,2.37.8l3.89,5.4a2.13,2.13,0,0,1,.41,1.26v2.9a2.15,2.15,0,0,1-1,1.82c-3.7,2.33-16.51,10.29-19.76,10.67-2.79.33-7,1.14-9.09,1.55a2.1,2.1,0,0,1-2.42-1.33c-.31-.95,0-2.24,2.33-3.58,4-2.29,9.48-12.22,11-15.11A2.17,2.17,0,0,1,1020.24,325.77Z" fill="#303078" stroke="#2d2f75" stroke-linejoin="round" stroke-width="2"/><path d="M968,300.76,979,297s5.5,2.65,5.5,5.2v3.75l-1.17,2.93s-20.17,9.81-20.69,9.81-5.88,1.45-4.13-2.18S968.14,306.78,968,300.76Z" fill="#303078" stroke="#2d2f75" stroke-linejoin="round" stroke-width="2"/><path d="M408.67,77.45s38.25-6.58,65.21,0" fill="none" stroke="#2d2f75" stroke-linejoin="round" stroke-width="2"/><rect x="529.72" y="223.99" width="30" height="139.86" fill="#303078" stroke="#2d2f75" stroke-miterlimit="10" stroke-width="2"/><rect x="1090.72" y="223.99" width="30" height="139.86" fill="#303078" stroke="#2d2f75" stroke-miterlimit="10" stroke-width="2"/><rect x="220.72" y="228.99" width="30" height="136" fill="#fff" stroke="#2d2f75" stroke-miterlimit="10" stroke-width="2"/><path d="M379.38,146s-5.66,4-5.66,5-1.11,2.54-1.55,4.27.55,3.73,1.55,1.73,3-3,3-4,10-3,10-3l1.12-4Z" fill="#fff" stroke="#2d2f75" stroke-linejoin="round" stroke-width="2"/><polyline points="608.72 190.99 653.72 170.99 725.72 183.99 680.72 210.99 617.72 197.99" fill="none" stroke="#2b3176" stroke-miterlimit="10" stroke-width="2"/><line x1="705.72" y1="185.99" x2="677.72" y2="201.99" fill="none" stroke="#2b3176" stroke-miterlimit="10" stroke-width="2"/><line x1="691.72" y1="183.99" x2="671.72" y2="193.99" fill="none" stroke="#2b3176" stroke-miterlimit="10" stroke-width="2"/><line x1="661.72" y1="178.99" x2="630.72" y2="193.99" fill="none" stroke="#2b3176" stroke-miterlimit="10" stroke-width="2"/><polyline points="523.72 163.99 570.72 170.99 550.72 202.99 496.72 193.99 518.72 170.99" fill="none" stroke="#2d2f75" stroke-linejoin="round" stroke-width="2"/><polyline points="502.72 180.99 500.72 176.99 473.72 187.99 486.72 213.99 513.72 202.99 509.23 196.07" fill="none" stroke="#2d2f75" stroke-linejoin="round" stroke-width="2"/></svg>