<svg xmlns="http://www.w3.org/2000/svg" viewBox="0 0 481.91 420.14"><title>tri-03</title><path d="M321.8,392,75.4,145.6,412,55.4ZM81.1,147.1,320.4,386.4,408,59.5Z" fill="#2d2f75"/><text transform="translate(357.62 39.08)" font-size="17.39" fill="#2d2f75" font-family="Raleway-Light, Raleway" font-weight="300" letter-spacing="-0.03em" style="isolation:isolate">L</text><text transform="translate(367.46 39.08)" font-size="17.39" fill="#2d2f75" font-family="Raleway-Light, Raleway" font-weight="300" style="isolation:isolate">earning Goals</text><text transform="translate(0 113.42)" font-size="17.39" fill="#2d2f75" font-family="Raleway-Light, Raleway" font-weight="300" letter-spacing="-0.03em" style="isolation:isolate">L</text><text transform="translate(9.84 113.42)" font-size="17.39" fill="#2d2f75" font-family="Raleway-Light, Raleway" font-weight="300" style="isolation:isolate">earning</text><text transform="translate(69.52 113.42)" font-size="17.39" fill="#2d2f75" font-family="Raleway-Light, Raleway" font-weight="300" style="isolation:isolate"> </text><text transform="translate(73.45 113.42)" font-size="17.39" fill="#2d2f75" font-family="Raleway-Light, Raleway" font-weight="300" letter-spacing="-0.03em" style="isolation:isolate">A</text><text transform="translate(84.93 113.42)" font-size="17.39" fill="#2d2f75" font-family="Raleway-Light, Raleway" font-weight="300" style="isolation:isolate">ctivities</text><text transform="translate(289.54 416.26)" font-size="17.39" fill="#2d2f75" font-family="Raleway-Light, Raleway" font-weight="300" letter-spacing="-0.03em" style="isolation:isolate">L</text><text transform="translate(299.38 416.26)" font-size="17.39" fill="#2d2f75" font-family="Raleway-Light, Raleway" font-weight="300" style="isolation:isolate">earning</text><text transform="translate(359.06 416.26)" font-size="17.39" fill="#2d2f75" font-family="Raleway-Light, Raleway" font-weight="300" style="isolation:isolate"> </text><text transform="translate(362.99 416.26)" font-size="17.39" fill="#2d2f75" font-family="Raleway-Light, Raleway" font-weight="300" letter-spacing="-0.03em" style="isolation:isolate">A</text><text transform="translate(374.61 416.26)" font-size="17.39" fill="#2d2f75" font-family="Raleway-Light, Raleway" font-weight="300" style="isolation:isolate">ssessme</text><text transform="translate(444.12 416.26)" font-size="17.39" fill="#2d2f75" font-family="Raleway-Light, Raleway" font-weight="300" style="isolation:isolate">n</text><text transform="translate(454.04 416.26)" font-size="17.39" fill="#2d2f75" font-family="Raleway-Light, Raleway" font-weight="300" style="isolation:isolate">t</text><path d="M419.5,315l-2.1-2a233.7,233.7,0,0,0,60.3-134c4-38.7-1.9-77.8-7.5-115.6l2.9-.4c5.6,38,11.5,77.3,7.5,116.4A237.33,237.33,0,0,1,419.5,315Z" fill="#2d2f75"/><polygon points="400.4 340.4 412.8 301 415.6 301.8 405 335.6 448 319.2 449 321.9 400.4 340.4" fill="#2d2f75"/><path d="M259.6,392.5a328.94,328.94,0,0,1-41.5-17.6c-35.2-17.9-64.1-40.4-85.7-67-24.2-29.7-39.1-65.1-42-99.8l2.9-.2c2.9,34,17.6,68.9,41.4,98.2,21.4,26.3,49.9,48.6,84.8,66.3a338.09,338.09,0,0,0,41.1,17.5Z" fill="#2d2f75"/><path d="M79,226.8l-2.7-1.1,18.2-44.6.7,5.5a106.84,106.84,0,0,0,12.1,37.3l-2.5,1.4a108.06,108.06,0,0,1-11.7-33.1Z" fill="#2d2f75"/><path d="M92.6,84.3,90.8,82A321,321,0,0,1,323.3,13.1L323,16A316.36,316.36,0,0,0,92.6,84.3Z" fill="#2d2f75"/><polygon points="312.8 26.6 311.2 24.1 332.3 11.2 313.8 2.6 315 0 338.4 10.8 312.8 26.6" fill="#2d2f75"/></svg>