<svg xmlns="http://www.w3.org/2000/svg" viewBox="0 0 1087.56 868.17"><title>header</title><line x1="105.2" y1="425.5" x2="155.54" y2="425.5" fill="none" stroke="#2e2d75" stroke-miterlimit="10" stroke-width="2"/><path d="M482.89,425.5h61.44a54.74,54.74,0,0,1,54.74,54.75h0A54.74,54.74,0,0,1,544.33,535H55.75A54.74,54.74,0,0,1,1,480.25H1A54.75,54.75,0,0,1,55.75,425.5H79.24" fill="none" stroke="#2e2d75" stroke-miterlimit="10" stroke-width="2"/><line x1="245.47" y1="425.5" x2="348.02" y2="425.5" fill="none" stroke="#2e2d75" stroke-miterlimit="10" stroke-width="2"/><polyline points="77.5 513.18 77.5 534.99 62.17 550.33 53.26 550.29 68.56 534.99 68.56 472.54" fill="none" stroke="#2e2d75" stroke-miterlimit="10" stroke-width="2"/><polyline points="526.08 513.18 526.08 534.99 541.3 550.22 550.21 550.19 535.02 534.99" fill="none" stroke="#2e2d75" stroke-miterlimit="10" stroke-width="2"/><path d="M130.22,269.2h29.1a0,0,0,0,1,0,0v14.55a14.55,14.55,0,0,1-14.55,14.55h0a14.55,14.55,0,0,1-14.55-14.55V269.2A0,0,0,0,1,130.22,269.2Z" transform="translate(-69.21 47.78) rotate(-15.17)" fill="none" stroke="#2e2d75" stroke-miterlimit="10" stroke-width="2"/><path d="M124.34,254.79h29.1a0,0,0,0,1,0,0v0a14.55,14.55,0,0,1-14.55,14.55h0a14.55,14.55,0,0,1-14.55-14.55v0a0,0,0,0,1,0,0Z" transform="translate(341.52 478.64) rotate(164.83)" fill="#302d77" stroke="#2e2d75" stroke-miterlimit="10" stroke-width="2"/><path d="M130.43,271.59a11.84,11.84,0,0,1,.55-7.51" fill="none" stroke="#fff" stroke-miterlimit="10"/><line x1="128.06" y1="269.96" x2="136.49" y2="267.83" fill="none" stroke="#fff" stroke-miterlimit="10"/><path d="M133.94,266.93a9.7,9.7,0,0,0,0,3.68" fill="none" stroke="#fff" stroke-miterlimit="10"/><path d="M194.31,350.63l3.77,2.87a6.39,6.39,0,0,1,2.31,3.54l7.05,29L219,390.32l-2.18-45.42a9.1,9.1,0,0,0-2.24-5.55l-25.29-28.87A10.78,10.78,0,0,0,183,307l-23.5-4.09-3.65,4a6.22,6.22,0,0,1-6.25,6.2h0a6.24,6.24,0,0,1-6.21-6.26l-3.84-4.39-19,.93a10,10,0,0,0-5.24,1.78L82.42,328A8.82,8.82,0,0,0,80,340c4.7,7.31,14.9,17.4,35.69,18.89,0,0-1-2.55,6-6.22s8-.52,8-.52a3.84,3.84,0,0,1-1.57,3.8" fill="none" stroke="#2e2d75" stroke-miterlimit="10" stroke-width="2"/><path d="M215,402c11.58,6.17,51.8,30.27,38.42,61,0,0-52.66,26.33-96.84-39.38-41.43-61.6-79.23-71.89-80.21-58a8.25,8.25,0,0,0,1.14,4.56l.46.81" fill="#fff" stroke="#2e2d75" stroke-miterlimit="10" stroke-width="2"/><path d="M193.4,335.24s1.6,21.29,1.14,39.15c-.24,9.4,4.6,16.14,9.23,20.41" fill="none" stroke="#2e2d75" stroke-miterlimit="10" stroke-width="2"/><path d="M123.4,327.5s0,1.8.26,4.55c.46,4.94,1.75,13,5.37,19.29l-28.69-16.1" fill="none" stroke="#2e2d75" stroke-linejoin="round" stroke-width="2"/><line x1="108.6" y1="339.42" x2="122.88" y2="333.01" fill="none" stroke="#2e2d75" stroke-linejoin="round" stroke-width="2"/><path d="M76.55,364.3s-.33-6.81,17.79-11.2" fill="none" stroke="#2e2d75" stroke-miterlimit="10" stroke-width="2"/><polyline points="124.28 352.05 131.26 359.58 133.97 373.6" fill="none" stroke="#2e2d75" stroke-miterlimit="10" stroke-width="2"/><line x1="129.03" y1="361.86" x2="131.05" y2="375.88" fill="none" stroke="#2e2d75" stroke-miterlimit="10" stroke-width="2"/><line x1="126.49" y1="363.67" x2="128.06" y2="378.23" fill="none" stroke="#2e2d75" stroke-miterlimit="10" stroke-width="2"/><line x1="124" y1="363.67" x2="124.57" y2="374.39" fill="none" stroke="#2e2d75" stroke-miterlimit="10" stroke-width="2"/><path d="M120.37,367.55V363c-3.07-1.92-3.49-4.29-3.49-4.29v-2.35" fill="none" stroke="#2e2d75" stroke-miterlimit="10" stroke-width="2"/><polygon points="125.21 352.05 127.84 351.57 129.12 352.41 129.03 354.3 128.06 354.88 125.21 352.05" fill="#302d77" stroke="#2e2d75" stroke-miterlimit="10" stroke-width="2"/><line x1="141.2" y1="297.85" x2="141.2" y2="304.24" fill="none" stroke="#2e2d75" stroke-miterlimit="10" stroke-width="2"/><path d="M155.08,293.34s.76,6.81,4.45,9.55" fill="none" stroke="#2e2d75" stroke-miterlimit="10" stroke-width="2"/><path d="M217.14,389.65v8.55a3.54,3.54,0,0,1-2,3.2L211.81,403l-3.41,6.64" fill="none" stroke="#2e2d75" stroke-miterlimit="10" stroke-width="2"/><line x1="210.94" y1="399.47" x2="205.26" y2="409.61" fill="none" stroke="#2e2d75" stroke-miterlimit="10" stroke-width="2"/><line x1="208.84" y1="398.23" x2="202.02" y2="408.96" fill="none" stroke="#2e2d75" stroke-miterlimit="10" stroke-width="2"/><line x1="207.02" y1="396.84" x2="202.02" y2="403.7" fill="none" stroke="#2e2d75" stroke-miterlimit="10" stroke-width="2"/><path d="M208.4,386.91,207,393.74s-3.8,1.06-4.51,3.67" fill="none" stroke="#2e2d75" stroke-miterlimit="10" stroke-width="2"/><path d="M247.83,465.12s-16.05,34.28-25,45.79l-19.1-4.78,5.07-40.51" fill="none" stroke="#2e2d75" stroke-miterlimit="10" stroke-width="2"/><path d="M79.14,361.07s-5.8,41.82,3.33,79.21l17.87,3.47s11.68-40.3,11.47-48.95" fill="none" stroke="#2e2d75" stroke-miterlimit="10" stroke-width="2"/><path d="M108.48,413.22S134.6,423.66,158,425.75" fill="none" stroke="#2e2d75" stroke-miterlimit="10" stroke-width="2"/><path d="M85.67,440.9l.48,5.25-3,12.14a4.49,4.49,0,0,0,5.41,5.45L90,463.4a8,8,0,0,0,6.12-6.81L97.37,447v-3.78" fill="none" stroke="#2e2d75" stroke-miterlimit="10" stroke-width="2"/><path d="M207.16,506.82l-.36,5.26-4.89,11.51a4.5,4.5,0,0,0,4.46,6.25l1.49-.11A8,8,0,0,0,215,524l2.75-9.31.79-4.85" fill="none" stroke="#2e2d75" stroke-miterlimit="10" stroke-width="2"/><polygon points="79.92 361.48 83.22 360.51 92.54 362.83 101.15 366.79 114.18 375.88 128.06 389.22 139.99 402.09 149.4 414.17 156.72 424.69 151.81 424.69 132.67 421.63 108.48 414.17 100.83 443.75 82.22 439.27 78.6 421.15 77.32 379.01 79.92 361.48" fill="#302d77"/><polygon points="208.84 466.27 204.52 505.61 222.24 510.24 231.21 498.99 246.64 466.27 232.6 467.91 217.83 467.91 208.84 466.27" fill="#302d77"/><path d="M430.53,294.13,434,274.6l19.79-2.72,4.47,6.61v11L462,304.7s-5.36-1.83-14.37,9.83S432.55,300,432.55,300Z" fill="#fff" stroke="#2e2d75" stroke-miterlimit="10" stroke-width="2"/><path d="M468.57,308.58s-9.15-8-13.34-1a14.7,14.7,0,0,0-1.73,5.52c-1.89,13.23-4.69,35.09-8.4,53.34-.69,3.43-1.42,6.73-2.18,9.83-4.81,19.55-19.56,81.44-19.56,100.35h58.35V425.93s14.11-3.84,14.11-24S485.24,322.69,468.57,308.58Z" fill="#fff" stroke="#2e2d75" stroke-miterlimit="10" stroke-width="2"/><path d="M445.1,366.41,394.8,345V322.08l44,22s7.41-33.38,17.74-38.08" fill="none" stroke="#2e2d75" stroke-miterlimit="10" stroke-width="2"/><path d="M442.82,373.3l-49.23,32.17a43.22,43.22,0,0,0-14,35.55l7.65,90.68h37.32s-7.17-64.13-17.14-91.64c0,0,15.76-6.6,22.52-11.1" fill="none" stroke="#2e2d75" stroke-miterlimit="10" stroke-width="2"/><line x1="397.54" y1="361.04" x2="416.27" y2="390.65" fill="none" stroke="#2e2d75" stroke-miterlimit="10" stroke-width="2"/><line x1="401.73" y1="369.04" x2="395.81" y2="404.02" fill="none" stroke="#2e2d75" stroke-miterlimit="10" stroke-width="2"/><path d="M394.25,329.71s-7.07-5.65-12.19,5.63S366,378.18,364.51,406.77h27.67" fill="none" stroke="#2e2d75" stroke-miterlimit="10" stroke-width="2"/><path d="M394.25,324.59s-10.92-7.85-14.22,5.07c0,0-.84,8.24-.46,12" fill="none" stroke="#2e2d75" stroke-miterlimit="10" stroke-width="2"/><path d="M381,425.72H348s-.69-4,11.77-7.39,15.12-11.56,15.12-11.56" fill="none" stroke="#2e2d75" stroke-miterlimit="10" stroke-width="2"/><path d="M412.09,532.09s2.63,11.55,2.7,18.77h-35.9s.21-4.08,10.54-6,11.43-12.82,11.43-12.82Z" fill="#fff" stroke="#2e2d75" stroke-miterlimit="10" stroke-width="2"/><path d="M466.41,307s-7.9-4.57-5.78-16,4.36-21.58-7.71-25.82-19.68,6.7-19.68,6.7-5.59,8.39-5.7,15.21-.78,20.46-9.73,23.59-19.94,7.24-19.08,13.34" fill="none" stroke="#2e2d75" stroke-miterlimit="10" stroke-width="2"/><path d="M461.27,300.46,449.51,288s8.42-4.72,3.7-9.44-8.29,5.53-8.29,5.53L434,277.93v13.68s-.06,8.7,4.59,9.3,10.51-1.55,10.51-1.55v14.46" fill="none" stroke="#2e2d75" stroke-miterlimit="10" stroke-width="2"/><path d="M460.24,298.76l-10-10.75,4.48-4.54-.57-4.54-3.91-1.86-4.16,3.33-1.76,3.33-10.78-6.44.45,17.44,2.5,5.95,5.63.84,6.65-1.8-.06,5.57v9l-3.2,6.46-3.39,9.34L440,337.86l-1.47,5.31-39.42-19.45.64-4.16,7.55-5.18,10.37-4.26,3.52-.8,3.2-5.5,3-11.47.1-8.24,4.16-10.37,4.16-5.11,5.24-3.4s9.22-3.52,16.39,1.6,3.91,18.11,3.91,18.11l-1.35,9.19Z" fill="#2e2d75"/><circle cx="787.86" cy="184.65" r="183.65" fill="none" stroke="#2e2d75" stroke-miterlimit="10" stroke-width="2"/><path d="M831.49,356.3c-.07-.13-6.67-11.36-6.67-11.36l-53.39,4.35-2.45.2a49.25,49.25,0,0,0-5.07,17.26s35.56,4.62,65.21-3.11Z" fill="#302d77" stroke="#2e2d75" stroke-miterlimit="10" stroke-width="0.5"/><path d="M772.73,336.3s1.95,5-1.3,13" fill="none" stroke="#2e2d75" stroke-miterlimit="10" stroke-width="2"/><path d="M821.37,329.72a38.78,38.78,0,0,0,.72,15.22" fill="none" stroke="#2e2d75" stroke-miterlimit="10" stroke-width="2"/><path d="M763.23,302.05c3.33,8.12,4.6,34.25,4.6,34.25l56.92-7s-2.85-21-1.22-28.95" fill="none" stroke="#2e2d75" stroke-miterlimit="10" stroke-width="2"/><path d="M819.46,291.16l9.4,21.23s1.6-30.54,11.09-26.4c4.49,2.24.8,22,.8,22" fill="none" stroke="#2e2d75" stroke-linejoin="bevel" stroke-width="2"/><path d="M797.85,264.54c8.87-.2,16.88-.26,20.7-.28a8.5,8.5,0,0,1,6,2.41l16.25,19.93" fill="none" stroke="#2e2d75" stroke-miterlimit="10" stroke-width="2"/><path d="M748.7,292.26l10.89-22.59a8.5,8.5,0,0,1,5.4-3.23,199.9,199.9,0,0,1,20.25-1.51" fill="none" stroke="#2e2d75" stroke-miterlimit="10" stroke-width="2"/><path d="M749.07,314.75s-4.47-23.34,1.82-24.39c9.17-1.53,9.06,25.71,9.06,25.71l5.58-23.81" fill="none" stroke="#2e2d75" stroke-miterlimit="10" stroke-width="2"/><path d="M797.53,263.65l2.11,9.32a5.27,5.27,0,0,1-5,5.49l-3.43.1a5.26,5.26,0,0,1-5.49-5l.23-9.45" fill="none" stroke="#2e2d75" stroke-miterlimit="10" stroke-width="2"/><line x1="785.93" y1="264.81" x2="785.93" y2="256.23" fill="none" stroke="#2e2d75" stroke-miterlimit="10" stroke-width="2"/><path d="M780.21,233.59V250a6.63,6.63,0,0,0,6.92,6.78H793" fill="none" stroke="#2e2d75" stroke-miterlimit="10" stroke-width="2"/><path d="M801.13,239.49s0,15.28-4.93,16.77l1.47,8.12" fill="none" stroke="#2e2d75" stroke-miterlimit="10" stroke-width="2"/><path d="M777.61,234.29s5.14,1.36,9-1.88c0,0,2.92,7.53,20.8,8.26" fill="none" stroke="#2e2d75" stroke-miterlimit="10" stroke-width="2"/><path d="M773.68,264.81l-.44-31.76a19.7,19.7,0,0,1,19.7-20h0a19.7,19.7,0,0,1,19.58,17.52l3.18,33.78" fill="none" stroke="#2e2d75" stroke-miterlimit="10" stroke-width="2"/><polyline points="752.78 291.16 748.36 317.43 749.98 356.6 745.77 360.97 745.07 363.28" fill="none" stroke="#2e2d75" stroke-miterlimit="10" stroke-width="2"/><polyline points="759.95 316.07 759.95 318.24 757.58 357.41 758.76 361.62 759.95 365.02" fill="none" stroke="#2e2d75" stroke-miterlimit="10" stroke-width="2"/><polyline points="836.1 286.31 841.42 312.23 839.8 351.4 844.01 355.77 844.72 358.08" fill="none" stroke="#2e2d75" stroke-miterlimit="10" stroke-width="2"/><polygon points="785.24 264.26 785.24 257.53 781.85 255.68 779.73 251.93 779.73 233.97 784.39 233.23 786.61 231.48 788.36 233.97 792.67 237.09 798.67 238.94 801.81 239.79 801.38 243.98 800.32 250.54 798.67 254.94 796.88 256.8 798.21 263.65 815.04 263.65 812.18 230.69 808.69 219.94 801.13 214.22 792.51 212.58 782.16 215.81 775.49 224.55 773.64 232.41 774.17 264.93 785.24 264.26" fill="#302d77"/><polyline points="831.92 357.06 830.35 363.64 831.92 357.06 832.3 353.53 829.04 313.86 829.04 309.9" fill="none" stroke="#2e2d75" stroke-miterlimit="10" stroke-width="2"/><path d="M918.7,855.14s-7.82,1.15-5.9,9.44C912.8,864.58,920.66,863.61,918.7,855.14Z" fill="#302d77" stroke="#2e2d75" stroke-miterlimit="10" stroke-width="2"/><path d="M903.17,855.58s-1.87,7.67,6.54,9C909.71,864.58,911.75,856.94,903.17,855.58Z" fill="none" stroke="#2e2d75" stroke-miterlimit="10" stroke-width="2"/><line x1="784.05" y1="867.17" x2="951.97" y2="867.17" fill="none" stroke="#2e2d75" stroke-miterlimit="10" stroke-width="2"/><polygon points="845.13 866.07 794.52 866.07 794.52 856.58 845.13 859.18 845.13 866.07" fill="#302d77" stroke="#2e2d75" stroke-miterlimit="10" stroke-width="2"/><polygon points="839.72 858.75 799.94 856.58 799.94 847.1 839.72 848.4 839.72 858.75" fill="none" stroke="#2e2d75" stroke-miterlimit="10" stroke-width="2"/><polygon points="834.72 847.97 804.93 847.1 804.93 841.08 834.72 837.61 834.72 847.97" fill="#302d77" stroke="#2e2d75" stroke-miterlimit="10" stroke-width="2"/><polygon points="830.27 837.61 809.38 840.22 809.38 829.86 830.27 831.6 830.27 837.61" fill="none" stroke="#2e2d75" stroke-miterlimit="10" stroke-width="2"/><line x1="839.72" y1="853.8" x2="823.67" y2="852.52" fill="none" stroke="#2e2d75" stroke-miterlimit="10" stroke-width="2"/><line x1="809.38" y1="837.08" x2="817.75" y2="836.2" fill="none" stroke="#2e2d75" stroke-miterlimit="10" stroke-width="2"/><line x1="376.71" y1="758.46" x2="859.13" y2="758.46" fill="none" stroke="#2e2d75" stroke-miterlimit="10" stroke-width="2"/><polygon points="596.93 522.84 614.93 525.84 608.38 543.49 603.73 546.37 594.98 544.3 596.06 553 594.93 566.84 587.93 578.84 574.93 579.84 573.93 569.84 578.93 557.84 581.93 550.84 584.89 549.23 590.93 539.84 593.93 529.84 596.93 522.84" fill="#fff"/><ellipse cx="557.43" cy="569.84" rx="13.5" ry="14" fill="#fff"/><ellipse cx="561.43" cy="561.84" rx="13.5" ry="14" fill="#fff"/><path d="M513.42,638.54H564.6s5.39,14.83,30.72,24.23L570,692.64l-38.58-18.86L494.57,700l-36.65-16Z" fill="#fff" stroke="#2e2d75" stroke-miterlimit="10" stroke-width="2"/><line x1="547.8" y1="662.61" x2="531.41" y2="673.78" fill="none" stroke="#2e2d75" stroke-miterlimit="10" stroke-width="2"/><path d="M596.91,553.61l-5,17.47c-1.33,4.64-5.65,7.46-9.65,6.32h0c-4-1.15-6.16-5.84-4.83-10.48l4.91-17-6.71-.65S560.53,585,544.05,576.16l-29.24,58.72,52.45-1.4s5.11-1.62,3.72-6.73l22-43.16a46.17,46.17,0,0,0,3.63-9.71l4.34-17.45Z" fill="#302d77" stroke="#2e2d75" stroke-miterlimit="10" stroke-width="2"/><path d="M573.48,688.53l32.23,12-6.34-1.46s-13.87,36.39-23,48.13,1.68,11.25,1.68,11.25h38.55c5.27,0,1.44-3.35,1.44-3.35s-14.61-3.12-19.64-6.23-2.32-8.14-2.32-8.14,21.83-34.65,29.73-47.34-7.9-17.24-7.9-17.24l-24.78-10.85" fill="#fff" stroke="#2e2d75" stroke-miterlimit="10" stroke-width="2"/><line x1="569.62" y1="756.52" x2="621.1" y2="756.52" fill="none" stroke="#2e2d75" stroke-miterlimit="10" stroke-width="2"/><line x1="601.42" y1="750.34" x2="596.11" y2="756.52" fill="none" stroke="#2e2d75" stroke-miterlimit="10" stroke-width="2"/><polyline points="357.08 749.49 386.44 756.52 409.88 756.52" fill="none" stroke="#2e2d75" stroke-miterlimit="10" stroke-width="2"/><line x1="397.02" y1="747.74" x2="382.63" y2="755.61" fill="none" stroke="#2e2d75" stroke-miterlimit="10" stroke-width="2"/><path d="M490,698l-27.07,16.92a7.92,7.92,0,0,1-2.22,1l-61.59,15.21s-7.14,2-6.16,7.39,5.17,13.92,6.16,15,6.15,3.09,6.15,3.09-.24,1.94-6.4,1.94-10.34-1.15-11.82-5-10.83-23.09-10.83-23.09-4.92-12.55,4.19-13.54,19.69-.24,22.65-2,50.71-21.41,50.71-21.41l9.82-6.93" fill="#fff" stroke="#2e2d75" stroke-miterlimit="10" stroke-width="2"/><line x1="564.49" y1="633.61" x2="561.35" y2="638.54" fill="#302d77" stroke="#2e2d75" stroke-miterlimit="10" stroke-width="2"/><line x1="517.95" y1="633.61" x2="514.81" y2="638.54" fill="#302d77" stroke="#2e2d75" stroke-miterlimit="10" stroke-width="2"/><path d="M575.32,549.92l-67.63-14.11,2.56.53,59.62-25.41,5.45,2.5,4.13-.58,6.29-14L581.9,495h-9.2c-.47,0-7.5,8.27-7.5,8.27l-66.34,17.89a15.87,15.87,0,0,0-11.62,13.38h0a8.53,8.53,0,0,0,4.24,8.45c12.29,7,43.54,24.8,47.7,27.38,5.2,3.23,4.87,5.76,4.87,5.76" fill="#fff" stroke="#2e2d75" stroke-miterlimit="10" stroke-width="2"/><circle cx="577.25" cy="504.03" r="6.28" fill="#302d77" stroke="#2e2d75" stroke-miterlimit="10" stroke-width="2"/><line x1="580.57" y1="499.56" x2="586.36" y2="502.67" fill="none" stroke="#2e2d75" stroke-miterlimit="10" stroke-width="2"/><line x1="582.47" y1="505.19" x2="586.36" y2="505.84" fill="none" stroke="#2e2d75" stroke-miterlimit="10" stroke-width="2"/><polyline points="591.26 588.23 684.72 628.71 694.93 635.07 706.29 640.09" fill="none" stroke="#2e2d75" stroke-miterlimit="10" stroke-width="2"/><polyline points="599.58 556.26 642.43 595.94 687.98 623.05 699.89 623.05 707.19 625.54" fill="none" stroke="#2e2d75" stroke-miterlimit="10" stroke-width="2"/><line x1="696.42" y1="632.24" x2="708.06" y2="637.29" fill="none" stroke="#2e2d75" stroke-miterlimit="10" stroke-width="2"/><line x1="697.62" y1="629.69" x2="710.61" y2="635.25" fill="none" stroke="#2e2d75" stroke-miterlimit="10" stroke-width="2"/><line x1="698.69" y1="626.69" x2="710.13" y2="630.94" fill="none" stroke="#2e2d75" stroke-miterlimit="10" stroke-width="2"/><line x1="596.06" y1="554.47" x2="596.06" y2="544.62" fill="none" stroke="#2e2d75" stroke-miterlimit="10" stroke-width="2"/><path d="M613.9,526.65l-5,15.62a5.88,5.88,0,0,1-7.17,3.89l-8.19-2.25" fill="none" stroke="#2e2d75" stroke-miterlimit="10" stroke-width="2"/><polyline points="590.73 538.52 584.25 550.4 582.92 550.4" fill="none" stroke="#2e2d75" stroke-miterlimit="10" stroke-width="2"/><path d="M588.28,537.81s5.39,4.68,7.22-.71c.64-1.9,1.33-3.88,1.94-5.66a7.8,7.8,0,0,1,8.17-5.2l9.53,1s4.68.31,3.66-4.88-14-8.55-18.52-7.43-10,3.76-10.38,10S585.83,535.16,588.28,537.81Z" fill="#302d77" stroke="#2e2d75" stroke-miterlimit="10" stroke-width="2"/><path d="M1073.25,748.9s1.15,3.23-3.57,3.06c-3,.17-3.77,0-12-.81" fill="none" stroke="#2e2d75" stroke-miterlimit="10" stroke-width="2"/><path d="M952.79,605.75s9.76,29.18-3.45,66.06,23,20.87,23,20.87a68.17,68.17,0,0,1,36.21-4.9c39.64,3.43,40.13-6.36,31.32-29.36a89.79,89.79,0,0,1-4.47-44.86l-.68,5.22,40.18-24.62a12.16,12.16,0,0,0,3.63-3.37l5.77-8.14a12.31,12.31,0,0,0,1.7-10.8l-8.94-28.43a18.9,18.9,0,0,1-17.62,0l3.43,35.73-.41-4.3L1018.34,587H969.89l-39.34-12.15-2.62,4.32,19-31.32c-10-.34-14.37-8.81-14.37-8.81l-23.87,25.12a17.55,17.55,0,0,0-4.45,15.71l.76,3.63a13.27,13.27,0,0,0,6.58,8.87l43.49,24" fill="#302d77" stroke="#2e2d75" stroke-miterlimit="10" stroke-width="2"/><polyline points="989.38 574.74 986.02 586.98 1005.19 586.98 1002.32 574.74" fill="#fff" stroke="#2e2d75" stroke-miterlimit="10" stroke-width="2"/><path d="M1007.43,554.42v10.66a12.06,12.06,0,0,1-12,12h0a12.05,12.05,0,0,1-12-12V551.77" fill="#fff" stroke="#2e2d75" stroke-miterlimit="10" stroke-width="2"/><path d="M1002.05,549.87s-16.55,7-24.59-1.7c0,0-2.41-2.53.92-3.45s8.73-5.74,8.73-5.74,9.3-9.41,18.6.58c0,0,8.16-2.3,6.55,5.85s-2.76,8.05-2.76,8.05S1004.81,557.43,1002.05,549.87Z" fill="#302d77" stroke="#2e2d75" stroke-miterlimit="10" stroke-width="2"/><polyline points="1040.59 796.77 1049.2 752.23 994.54 712.06 937.44 746.34 942.49 796.62" fill="none" stroke="#2e2d75" stroke-miterlimit="10" stroke-width="2"/><path d="M947,689.44,909.34,730.3a20.66,20.66,0,0,0-5.46,14v7.6a20.6,20.6,0,0,0,2.28,9.43l20.7,37.53" fill="none" stroke="#2e2d75" stroke-miterlimit="10" stroke-width="2"/><path d="M1036.24,686.8l38,46.88a20.54,20.54,0,0,1,4.34,9.79l.37,2.41a20.45,20.45,0,0,1-1.84,12.12L1055,798.37" fill="none" stroke="#2e2d75" stroke-miterlimit="10" stroke-width="2"/><path d="M1039.23,796.62l20.28,2.25s-5.64,10.64,5,17.29,8.73,7.32,8.73,7.32.86,4.1-3.57,3.06c-3,.17-3.77,0-12-.8l-27.68-6.48s-1.13-5.19,5.28-11.49C1039.68,803.6,1039.23,796.62,1039.23,796.62Z" fill="#302d77" stroke="#2e2d75" stroke-miterlimit="10" stroke-width="2"/><path d="M944.22,796.62,924,798.87s5.64,10.64-5,17.29-8.73,7.32-8.73,7.32-.86,4.1,3.58,3.06c3,.17,3.77,0,12-.8l27.68-6.48s1.12-5.19-5.28-11.49C943.78,803.6,944.22,796.62,944.22,796.62Z" fill="#302d77" stroke="#2e2d75" stroke-miterlimit="10" stroke-width="2"/><polyline points="933.82 540.88 938.08 530.92 945.89 520.76" fill="none" stroke="#2e2d75" stroke-miterlimit="10" stroke-width="2"/><line x1="941.71" y1="532.36" x2="949.7" y2="521.85" fill="none" stroke="#2e2d75" stroke-miterlimit="10" stroke-width="2"/><line x1="944.07" y1="533.65" x2="953.88" y2="522.75" fill="none" stroke="#2e2d75" stroke-miterlimit="10" stroke-width="2"/><line x1="946.98" y1="536.01" x2="955.21" y2="528.2" fill="none" stroke="#2e2d75" stroke-miterlimit="10" stroke-width="2"/><polyline points="942.8 546 951.09 540.88 955.21 536.01" fill="none" stroke="#2e2d75" stroke-miterlimit="10" stroke-width="2"/><polyline points="1075.94 543.55 1075.44 532.73 1071.71 520.47" fill="none" stroke="#2e2d75" stroke-miterlimit="10" stroke-width="2"/><line x1="1071.54" y1="532.79" x2="1067.76" y2="520.15" fill="none" stroke="#2e2d75" stroke-miterlimit="10" stroke-width="2"/><line x1="1068.88" y1="533.17" x2="1063.53" y2="519.53" fill="none" stroke="#2e2d75" stroke-miterlimit="10" stroke-width="2"/><line x1="1065.33" y1="534.36" x2="1060.36" y2="524.16" fill="none" stroke="#2e2d75" stroke-miterlimit="10" stroke-width="2"/><polyline points="1065.73 545.18 1059.76 537.48 1057.62 531.47" fill="none" stroke="#2e2d75" stroke-miterlimit="10" stroke-width="2"/><path d="M795.46,758.46s24.92-111.34,16.41-215.6" fill="none" stroke="#2e2d75" stroke-miterlimit="10" stroke-width="2"/><path d="M801.46,461s-51,13-29.91,53.7-5.12,77.35-5.12,77.35-37,53.38,0,87.68S892,695.35,872.14,628.82s-27.8-73.76-20.08-109.29S832.61,451.06,801.46,461Z" fill="none" stroke="#2e2d75" stroke-miterlimit="10" stroke-width="2"/></svg>