<svg xmlns="http://www.w3.org/2000/svg" viewBox="0 0 1920 1080"><title>illustration-final</title><polyline points="-211.35 578.4 -76.58 578.56 -76.52 523.78 96.51 523.99 96.59 459.61 297.63 459.84 297.43 631.04 683.87 631.04" fill="none" stroke="#2e2d75" stroke-miterlimit="10" stroke-width="2"/><path d="M51.46,449.29S78.64,459.58,115,459.63c19.35,0,22.93-14,21.08-24.06s-85.85-13.33-93.77-3.12-21,52.4-21.44,71.92l14.53,3.49S56.11,463.63,61.8,452.5" fill="none" stroke="#2e2d75" stroke-miterlimit="10" stroke-width="2"/><path d="M71.58,454.88l-13.27,4.68S79.54,501.44,80,501.75s-14.73,7.69-14.73,7.69L47.07,483.05" fill="none" stroke="#2e2d75" stroke-linejoin="bevel" stroke-width="2"/><path d="M20.84,509.39s7.58,3.23,13.05,1.48c0,0,4.29,4,3.31,9.84-.39,2.16-1,2.16-1,2.16l-28.46,0S-2,521.3,1.93,518.41,17.75,512.93,20.84,509.39Z" fill="none" stroke="#2e2d75" stroke-linejoin="bevel" stroke-width="2"/><path d="M69.76,510.42S77,509.3,80,505.24c0,0,5.9,1.14,6.46,6.62a5.92,5.92,0,0,1-2.27,3.87c-1.13.94-10,7.18-10,7.18s-12.19.54-13.89-.5,2-3.21,3.88-4.34S70.67,514.14,69.76,510.42Z" fill="none" stroke="#2e2d75" stroke-linejoin="bevel" stroke-width="2"/><line x1="24.2" y1="505.18" x2="22.97" y2="509.39" fill="none" stroke="#2e2d75" stroke-linejoin="bevel" stroke-width="2"/><line x1="32.93" y1="507.86" x2="32.74" y2="510.22" fill="none" stroke="#2e2d75" stroke-linejoin="bevel" stroke-width="2"/><line x1="69.95" y1="507.34" x2="71.65" y2="509.45" fill="none" stroke="#2e2d75" stroke-linejoin="bevel" stroke-width="2"/><line x1="77.39" y1="503.99" x2="80.01" y2="505.63" fill="none" stroke="#2e2d75" stroke-linejoin="bevel" stroke-width="2"/><path d="M89.07,403.35s3.56,13.11,2.88,22.88" fill="none" stroke="#2e2d75" stroke-linejoin="bevel" stroke-width="2"/><path d="M98,358.13l4.19-5.69,21.09,0v5.69l-9.89,2.34a21.4,21.4,0,0,0-19.41,0c-10.21,5.28-25.17,40.36-25.17,40.36L30,420.31v13.75L73.51,420a10.12,10.12,0,0,0,4.83-3.3l26.81-33.28" fill="none" stroke="#2e2d75" stroke-miterlimit="10" stroke-width="2"/><path d="M134.37,433.45s-3.77-14.83-3.76-25.83,3.18-33.35-7.35-49.46" fill="none" stroke="#2e2d75" stroke-linejoin="bevel" stroke-width="2"/><line x1="106.9" y1="351.79" x2="106.25" y2="346.27" fill="none" stroke="#2e2d75" stroke-linejoin="bevel" stroke-width="2"/><path d="M96.87,326.91,99.69,344a3.24,3.24,0,0,0,3.63,2.69l9-1.18" fill="none" stroke="#2e2d75" stroke-linejoin="bevel" stroke-width="2"/><path d="M103.19,324.64s-7.06,4.72-10.92.71,1.58-7.45,2-7.45-.23-6.55,3.32-6.49,8-5.34,13.08,0,11.89-3.37,12.63,5.94,3.71,10.16,2.5,15.75,1.77,8.3,0,10.16-4.49-.15-4.49-2,.26-3.28-2.2-5.3.35-5.3-3.23-6.3-4.72-3.16-5,.28,1.71,7.3-.58,4.29-1-2.58-2.42-5S105.32,323.5,103.19,324.64Z" fill="#302d77" stroke="#2e2d75" stroke-miterlimit="10" stroke-width="2"/><line x1="121.72" y1="342.57" x2="121.71" y2="351.81" fill="none" stroke="#2e2d75" stroke-linejoin="bevel" stroke-width="2"/><path d="M24.65,429c-.06,1.55-2,6.43-2,6.43h3.71v-2.12" fill="none" stroke="#2e2d75" stroke-miterlimit="10" stroke-width="2"/><polyline points="30.02 432.23 28.16 436.89 24.64 438.43 19.28 436.88 23.07 426.14 30.03 422.35" fill="none" stroke="#2e2d75" stroke-miterlimit="10" stroke-width="2"/><circle cx="1079" cy="638" r="245" fill="none" stroke="#2d2f75" stroke-miterlimit="10" stroke-width="2"/><polyline points="-145.6 1011.44 552.44 1011.44 549.79 736.03 776.12 736.03 776 934.5 1396 934.5" fill="none" stroke="#2e2d75" stroke-miterlimit="10" stroke-width="2"/><path d="M1681.53,282.63l16-2-4.37-60.14a11.71,11.71,0,0,0-12.15-11h0a11.71,11.71,0,0,0-11,13.84Z" fill="#2d2f75" stroke="#2d2f75" stroke-miterlimit="10" stroke-width="2"/><path d="M1721.61,281.79l16.09,1,7.86-65a11.7,11.7,0,0,0-9.85-13.11h0a11.71,11.71,0,0,0-13.46,11.5Z" fill="#2d2f75" stroke="#2d2f75" stroke-miterlimit="10" stroke-width="2"/><path d="M1720.07,295.51s.93-10,8.93-10,9.31,10,9.31,10Z" fill="none" stroke="#2d2f75" stroke-miterlimit="10" stroke-width="2"/><path d="M1681.07,295.51s.93-10,8.93-10,9.31,10,9.31,10Z" fill="none" stroke="#2d2f75" stroke-miterlimit="10" stroke-width="2"/><path d="M1718,141.51l-7-2s-1,6-8,5-7-5-7-5l-3.24-.55" fill="none" stroke="#2d2f75" stroke-miterlimit="10" stroke-width="2"/><path d="M1690.56,206.16s8.44,6.35,16.44,11.35,16.59-6.67,16.59-6.67" fill="none" stroke="#2d2f75" stroke-miterlimit="10" stroke-width="2"/><path d="M1731.47,186s4.83,17.65,8.18,20.11" fill="none" stroke="#2d2f75" stroke-miterlimit="10" stroke-width="2"/><path d="M1709,135.51s13,0,20,8,14,34,14,34l-6,3" fill="none" stroke="#2d2f75" stroke-miterlimit="10" stroke-width="2"/><path d="M1742,178.51l4,15,10,28s8,3,9,6h-11c-2,0-5.84-5.14-5.84-5.14" fill="#fff" stroke="#2d2f75" stroke-miterlimit="10" stroke-width="2"/><path d="M1733,169.51a171.89,171.89,0,0,0,9,24c6,13,6.51,35,6.51,35,.52-14-8.82-29.77-14.51-38-9-13-17-52-17-52" fill="none" stroke="#2d2f75" stroke-miterlimit="10" stroke-width="2"/><path d="M1683,186.51s-16,19-17,31,0,8,0,8a15.27,15.27,0,0,1,6.5-12.87,17.87,17.87,0,0,1,8.64-3.18c2.8-.31,8.13-1.66,14.86-7,14-11-4-65-4-65s-8,7-18-7a90.75,90.75,0,0,1-6-9l-8,18s7,12,17,14C1677,153.51,1687.22,179,1683,186.51Z" fill="none" stroke="#2d2f75" stroke-linejoin="bevel" stroke-width="2"/><line x1="1697" y1="141.51" x2="1698.42" y2="130.19" fill="none" stroke="#2d2f75" stroke-miterlimit="10" stroke-width="2"/><line x1="1709" y1="142.51" x2="1708.48" y2="132.99" fill="none" stroke="#2d2f75" stroke-miterlimit="10" stroke-width="2"/><path d="M1697,108.51l-2.75,13.34a7.6,7.6,0,0,0,5.23,8.66h0a7.6,7.6,0,0,0,9.21-4.27l.31-.73" fill="none" stroke="#2d2f75" stroke-miterlimit="10" stroke-width="2"/><path d="M1701,107.51a45.83,45.83,0,0,0,7,11c5,6-2,32-2,33s-2,9,6,8,15-8,16-12,1-44-21-47c-12-1-14,12-14,12s-1,5,1,9l3-13A10,10,0,0,0,1701,107.51Z" fill="#2d2f75" stroke="#2d2f75" stroke-miterlimit="10" stroke-width="2"/><path d="M1693.78,228c8.6-.06,18,.94,26.49-.21,5.52-.74,6.76-5.56,6.07-10.43-.24-1.7-2.4-2.14-3.67-1.49l-8,4.09,3,3.92,5.79-5c2.12-1.83-.71-5.58-3-3.92-3.76,2.68-7.22,4.59-11.83,3a43.44,43.44,0,0,1-7.91-3.6c-3.24-1.92-9.52-9.94-14.09-6.85-4.09,2.75-.45,7.31,2.6,8.72,3.58,1.66,7.06,2,10.27,4.52a22.52,22.52,0,0,0,8.42,4.15l.67-4.91c-4.62.52-11.26,1.87-15.77.38l1.75,1.75a17.17,17.17,0,0,0,.88-2.47l-3.67,1.5a80.91,80.91,0,0,0,11.52,4.3c3.18.9,4.22-3.64,1.33-4.83s-5.93-2.3-9-3.3-4.37,3.82-1.32,4.82,6,2.09,9,3.31l1.33-4.83a70.61,70.61,0,0,1-10.33-3.79,2.55,2.55,0,0,0-3.67,1.49c-.89,2.64-2.07,5.27.86,6.88,1.76,1,4.45.47,6.38.47a101.15,101.15,0,0,0,10.72-.68c2.65-.3,3.56-4.09.66-4.91-5.18-1.47-8.82-5.31-14-7.07-1.24-.42-2.63-1.37-3.69-.36s.82,1.83,1.94,2.71a40.24,40.24,0,0,0,6.11,4.14c2.21,1.17,4.62,1.79,6.78,3.08a7.85,7.85,0,0,0,3.8,1.58c4.38.28,9.32-2.48,12.74-4.93l-3-3.92-5.79,5c-2.24,1.94.62,5.15,3,3.92l8-4.08-3.68-1.5c.87,6.11-9.18,4.19-13.17,4.22l-14.57.09c-3.22,0-3.22,5,0,5Z" fill="#2d2f75"/><rect x="1920" y="43.51" width="11" height="185" fill="none" stroke="#2d2f75" stroke-miterlimit="10" stroke-width="2"/><rect x="1489" y="43.51" width="11" height="185" fill="none" stroke="#2d2f75" stroke-miterlimit="10" stroke-width="2"/><line x1="1369" y1="228.51" x2="2024" y2="229" fill="none" stroke="#2d2f75" stroke-miterlimit="10" stroke-width="2"/><polyline points="1353 310 1500 228.51 1500 284.51 1489 295.51 1489 347.51 1478 362.51 1478 419.51 1467 436.51 1467 492.51" fill="none" stroke="#2d2f75" stroke-miterlimit="10" stroke-width="2"/><polyline points="1935 547 1935 420 1942 419.51 1942 362.51 1931 347.51 1931 295.51 1920 284.51 1920 228.51" fill="none" stroke="#2d2f75" stroke-miterlimit="10" stroke-width="2"/><line x1="1478" y1="362.51" x2="1722" y2="362.51" fill="none" stroke="#2d2f75" stroke-miterlimit="10" stroke-width="2"/><line x1="1931" y1="295.51" x2="1883" y2="295.51" fill="none" stroke="#2d2f75" stroke-miterlimit="10" stroke-width="2"/><line x1="1941" y1="362.51" x2="1917" y2="362.51" fill="none" stroke="#2d2f75" stroke-miterlimit="10" stroke-width="2"/><line x1="1500" y1="284.51" x2="1535" y2="284.51" fill="none" stroke="#2d2f75" stroke-miterlimit="10" stroke-width="2"/><line x1="1489" y1="295.51" x2="1563" y2="295.51" fill="none" stroke="#2d2f75" stroke-miterlimit="10" stroke-width="2"/><line x1="1683" y1="347.51" x2="1822" y2="347.51" fill="none" stroke="#2d2f75" stroke-miterlimit="10" stroke-width="2"/><line x1="1637" y1="295.51" x2="1776" y2="295.51" fill="none" stroke="#2d2f75" stroke-miterlimit="10" stroke-width="2"/><rect x="1500" y="43.51" width="420" height="9" fill="none" stroke="#2d2f75" stroke-miterlimit="10" stroke-width="2"/><line x1="1467" y1="436.51" x2="1611" y2="436.51" fill="none" stroke="#2d2f75" stroke-miterlimit="10" stroke-width="2"/><line x1="1500" y1="492.51" x2="1711" y2="492.51" fill="none" stroke="#2d2f75" stroke-miterlimit="10" stroke-width="2"/><polygon points="1854.38 162.88 1866.27 166.72 1828.33 133.38 1844.47 159.67 1850.7 161.68 1854.38 162.88" fill="#fff" stroke="#2d2f75" stroke-linejoin="round" stroke-width="2"/><polyline points="1828.33 133.38 1812.36 147.67 1839.07 157.65" fill="#fff" stroke="#2d2f75" stroke-miterlimit="10" stroke-width="2"/><polygon points="1828.33 133.38 1839.07 157.65 1839.76 170.23 1844.47 159.67 1828.33 133.38" fill="#fff" stroke="#2d2f75" stroke-linejoin="bevel" stroke-width="2"/><line x1="1839.74" y1="169.89" x2="1835.46" y2="156.3" fill="#fff" stroke="#2d2f75" stroke-miterlimit="10" stroke-width="2"/><polygon points="1409.47 119.03 1399.81 127.33 1448.98 112.02 1417.52 112.11 1412.47 116.45 1409.47 119.03" fill="#fff" stroke="#2d2f75" stroke-linejoin="round" stroke-width="2"/><polyline points="1448.98 112.02 1445.03 90.53 1422.15 108.47" fill="#fff" stroke="#2d2f75" stroke-miterlimit="10" stroke-width="2"/><polygon points="1448.98 112.02 1422.15 108.47 1410.84 102.39 1417.52 112.11 1448.98 112.02" fill="#fff" stroke="#2d2f75" stroke-linejoin="bevel" stroke-width="2"/><line x1="1411.14" y1="102.55" x2="1425.24" y2="106.05" fill="#fff" stroke="#2d2f75" stroke-miterlimit="10" stroke-width="2"/><polygon points="1904.94 446.24 1921.76 443.88 1863.12 479.62 1890.92 448.2 1899.72 446.97 1904.94 446.24" fill="#fff" stroke="#2d2f75" stroke-linejoin="round" stroke-width="2"/><polyline points="1863.12 479.62 1845.09 456.73 1883.2 449.63" fill="#fff" stroke="#2d2f75" stroke-miterlimit="10" stroke-width="2"/><polygon points="1863.12 479.62 1883.2 449.63 1887.08 432.94 1890.92 448.2 1863.12 479.62" fill="#fff" stroke="#2d2f75" stroke-linejoin="bevel" stroke-width="2"/><line x1="1886.97" y1="433.4" x2="1878.05" y2="450.59" fill="#fff" stroke="#2d2f75" stroke-miterlimit="10" stroke-width="2"/><line x1="1467" y1="671.51" x2="1690" y2="671.51" fill="none" stroke="#2d2f75" stroke-miterlimit="10" stroke-width="2"/><path d="M1564.5,538l18.64,47.1a5,5,0,0,1,.36,1.88v69h18l9.88-75.08a5.08,5.08,0,0,0-.09-1.82l-15.38-66.31a7.2,7.2,0,0,0-1.63-3.16l-6.15-6.92a7.37,7.37,0,0,0-1.43-1.24c-21.82-14.25-47.2-5.47-47.2-5.47s-4.5,26.5-3.5,45.5c.88,16.73.21,31.91,0,35.3a7.81,7.81,0,0,1-.21,1.37L1518,647.51l18,5,24.76-65.37a6.48,6.48,0,0,0,.35-1.29l6.89-40.34" fill="#2d2f75" stroke="#2d2f75" stroke-miterlimit="10" stroke-width="2"/><path d="M1587,658.51h11s8,7,11,8,7,2,7,3v2h-33S1583,658.51,1587,658.51Z" fill="#2d2f75" stroke="#2d2f75" stroke-miterlimit="10" stroke-width="2"/><path d="M1523,422.51l-6,46s9,48,10,50,9,0,9,0l-.46-39.25" fill="#fff" stroke="#2d2f75" stroke-miterlimit="10" stroke-width="2"/><path d="M1519,650.51l14,4,4,9s10,4,10,6-16,1-16,1l-13-8S1514,655.51,1519,650.51Z" fill="#2d2f75" stroke="#2d2f75" stroke-miterlimit="10" stroke-width="2"/><path d="M1569,426.51l1-6,31.6-30.64a6.88,6.88,0,0,0,1.87-3.25l.78-3.11a6.85,6.85,0,0,0-1-5.54L1576,338.51l-12,4,18,37-27,19-23-1s-15,19-7,49,14,38,15,49c0,0,39-12,54,13,1.15,1.92-16-80-21-91" fill="#fff" stroke="#2d2f75" stroke-miterlimit="10" stroke-width="2"/><path d="M1555,396.51l-5-6h-18c-2,0,0,7,0,7h23.9Z" fill="none" stroke="#2d2f75" stroke-linejoin="round" stroke-width="2"/><polyline points="1541 335.51 1547.19 332.15 1587 310.51 1558 339.51 1547 332.51" fill="#fff" stroke="#2d2f75" stroke-miterlimit="10" stroke-width="2"/><path d="M1566,339.51s-14,2-14-1a12.13,12.13,0,0,1,1-5s2-4,4-4,6-4,6-3a22.69,22.69,0,0,1-1,4s-1,1,1,1h6c1,0,3,3,3,3l1,3Z" fill="#fff" stroke="#2d2f75" stroke-miterlimit="10" stroke-width="2"/><path d="M1529,519.51s0,5,2,7l3,3c1,1,2-11,2-11Z" fill="#fff" stroke="#2d2f75" stroke-miterlimit="10" stroke-width="2"/><line x1="1549" y1="390.51" x2="1546" y2="382.51" fill="#fff" stroke="#2d2f75" stroke-miterlimit="10" stroke-width="2"/><path d="M1547,349.51l5.44,21a8.41,8.41,0,0,1-3.73,9.27l-7.71,4.74-6-8-2-11,7-7Z" fill="#fff" stroke="#2d2f75" stroke-miterlimit="10" stroke-width="2"/><path d="M1549,345.51c-1.34,10.69-5,10-7,15s-3,4-3,11,5,7,5,11-5.46,4-9,4-8-4-8-4-10-11-10-12v-13c0-4,9-14,14-16S1550,337.51,1549,345.51Z" fill="#2d2f75" stroke="#2d2f75" stroke-miterlimit="10" stroke-width="2"/><line x1="1533.96" y1="390.51" x2="1534" y2="384.51" fill="#2d2f75" stroke="#2d2f75" stroke-miterlimit="10" stroke-width="2"/><polygon points="1622 85.51 1669 85.51 1660 86.51 1660 96.51 1622 85.51" fill="none" stroke="#2d2f75" stroke-linejoin="bevel" stroke-width="2"/><path d="M1660,139.51l-9-42c0-1,1-2,1.87-3.06s-1.87-2.94-2.87-3.94-4-1-5-2,2-1,4-1,11,1,14,2,0,1,0,4-4,4-4,4l8,26.17Z" fill="#fff" stroke="#2d2f75" stroke-linejoin="bevel" stroke-width="2"/><polyline points="1396.03 1087 1396.03 934.88 1493.03 934.88 1494.03 934.88 1494.03 837.88 1591.03 837.88 1592.03 837.88 1592.03 740.88 1689.03 740.88 1690.03 740.88 1690.03 643.88 1787.03 643.88 1788.03 643.88 1788.03 546.88 1791.03 546.88 1935 547 1934.53 1031.38 1530.53 1031.38" fill="none" stroke="#2d2f75" stroke-miterlimit="10" stroke-width="2"/><line x1="1690.03" y1="738.39" x2="1690.03" y2="812.38" fill="none" stroke="#2d2f75" stroke-miterlimit="10" stroke-width="2"/><path d="M1871,927.54c0,11-17.1,53.75-17.1,53.75,4.88,6.11,0,0,9.77,13.44s51.31,2.44,51.31,2.44a188.58,188.58,0,0,1,13.43-48.86c11-25.66,6.25-61.73-4.88-68.41-12.22-7.33-24.43-2.45-31.76,2.44s-34.21,20.77-34.21,20.77l-3.66,29.32s23.21-6.11,29.32-6.11,11-8.55,11-8.55" fill="none" stroke="#2d2f75" stroke-miterlimit="10" stroke-width="2"/><path d="M1915,997.17s-2.45,34.21-44,34.21-67.19-63.53-67.19-63.53l-23.21,44h-28.1l27-59.8a27.09,27.09,0,0,1,24.69-15.94h0a27.07,27.07,0,0,1,18.39,7.2l42.3,41.67S1899.08,996,1915,997.17Z" fill="#2d2f75" stroke="#2d2f75" stroke-miterlimit="10" stroke-width="2"/><path d="M1731.75,1031.38s-1.25-7.33,3.63-8.56,22-9.77,22-9.77h19.55s6.1,2.45,4.88,8.55,0,9.78,0,9.78Z" fill="none" stroke="#2d2f75" stroke-miterlimit="10" stroke-width="2"/><line x1="1773.25" y1="844.47" x2="1787.91" y2="889.67" fill="none" stroke="#2d2f75" stroke-miterlimit="10" stroke-width="2"/><path d="M1776.92,845.69l4.17-1.39a3.27,3.27,0,0,1,4.15,2.12l10,32.26" fill="none" stroke="#2d2f75" stroke-miterlimit="10" stroke-width="2"/><path d="M1857.27,905.27l-36.38,8.83L1794,890.89s6.11-11,3.66-13.44-3.66-1.22-4.88,2.45-8.55-4.89-13.44-13.44-2.44,3.66-2.44,3.66,0,14.66,7.33,24.44l27.09,37.25a7.44,7.44,0,0,0,6,3.06h3.7a7.39,7.39,0,0,0,2.09-.3l30.74-4.59Z" fill="#fff" stroke="#2d2f75" stroke-miterlimit="10" stroke-width="2"/><line x1="1898.56" y1="878.68" x2="1896.63" y2="868.9" fill="#2d2f75" stroke="#2d2f75" stroke-miterlimit="10" stroke-width="2"/><path d="M1883.2,843.25l4.14,19.07a8.73,8.73,0,0,0,10.86,6.56l13.09-3.64" fill="none" stroke="#2d2f75" stroke-miterlimit="10" stroke-width="2"/><path d="M1899.08,843.25s-6.11,0-9.78,1.22-9.77,0-9.77,0l-2.44-1.22s-2.45-4.89-1.22-7.33-2.45-4.89,1.22-4.89,4.88-1.22,6.11-2.44,0-2.44,3.66-2.44,11-1.22,12.22-1.22,3.59,1,7.33,0c5.1-1.34,13,5.31,8.55,11,0,0-2.45-2.44,0,2.44s3.66,7.33,3.66,9.78,1.22,7.33,0,8.55-2.44,2.44-2.44,3.66,1.22,4.89-1.22,0-1.22,0-3.67-7.33-1.22-7.33-3.66-8.55a58.14,58.14,0,0,0-6.11-2.44s3.66,6.11,2.44,8.55,6.11,6.11,0,2.44-4.88-3.66-6.11-6.11A2.67,2.67,0,0,1,1899.08,843.25Z" fill="#2d2f75" stroke="#2d2f75" stroke-miterlimit="10" stroke-width="2"/><line x1="1914.96" y1="857.91" x2="1916.18" y2="876.23" fill="#2d2f75" stroke="#2d2f75" stroke-miterlimit="10" stroke-width="2"/><rect x="1612" y="1027.71" width="102.61" height="3.66" fill="#2d2f75" stroke="#2d2f75" stroke-miterlimit="10" stroke-width="2"/><path d="M1722.87,978.85h-71.24a2.2,2.2,0,0,0-2.15,1.71l-10.6,47.15h75.73l10.4-46.19A2.19,2.19,0,0,0,1722.87,978.85Z" fill="none" stroke="#2d2f75" stroke-miterlimit="10" stroke-width="2"/><line x1="1709.73" y1="983.73" x2="1652.31" y2="1004.5" fill="none" stroke="#2d2f75" stroke-miterlimit="10" stroke-width="2"/><line x1="1713.39" y1="991.06" x2="1680.41" y2="1019.16" fill="none" stroke="#2d2f75" stroke-miterlimit="10" stroke-width="2"/><path d="M208.36,42.52h531.9c95,0,95,255.85,0,255.85H208.36C120.89,298.37,120.89,42.52,208.36,42.52Z" fill="none" stroke="#2e2d75" stroke-miterlimit="10" stroke-width="2"/><rect x="327.92" y="606.98" width="134.8" height="18.67" rx="5.78" fill="#302d77" stroke="#2e2d75" stroke-miterlimit="10" stroke-width="2"/><rect x="327.92" y="487.11" width="134.8" height="18.67" rx="5.78" fill="#302d77" stroke="#2e2d75" stroke-miterlimit="10" stroke-width="2"/><path d="M337.68,607c22-66.2,0-101.2,0-101.2H453.37s-22,35,0,101.2" fill="#fff" stroke="#2d2f75" stroke-miterlimit="10" stroke-width="2"/><line x1="439.93" y1="511.4" x2="387.14" y2="601.78" fill="none" stroke="#2d2f75" stroke-miterlimit="10" stroke-width="2"/><line x1="423.13" y1="511.4" x2="387.14" y2="572.59" fill="none" stroke="#2d2f75" stroke-miterlimit="10" stroke-width="2"/><path d="M337.25,487.11s58.09-25.7,116.12,0" fill="none" stroke="#2d2f75" stroke-miterlimit="10" stroke-width="2"/><line x1="320.29" y1="4.88" x2="320.29" y2="317.12" fill="#fff" stroke="#2d2f75" stroke-miterlimit="10" stroke-width="2"/><line x1="395.19" y1="4.88" x2="395.19" y2="317.12" fill="#fff" stroke="#2d2f75" stroke-miterlimit="10" stroke-width="2"/><line x1="395.53" y1="58.64" x2="327.87" y2="58.64" fill="none" stroke="#2e2d75" stroke-miterlimit="10" stroke-width="2"/><line x1="395.53" y1="114.9" x2="329.04" y2="115.03" fill="none" stroke="#2e2d75" stroke-miterlimit="10" stroke-width="2"/><line x1="395.53" y1="171.29" x2="328.2" y2="171.41" fill="none" stroke="#2e2d75" stroke-miterlimit="10" stroke-width="2"/><line x1="395.53" y1="227.68" x2="329.04" y2="227.8" fill="none" stroke="#2e2d75" stroke-miterlimit="10" stroke-width="2"/><line x1="395.53" y1="284.07" x2="329.04" y2="284.19" fill="none" stroke="#2e2d75" stroke-miterlimit="10" stroke-width="2"/><polyline points="258.85 319.41 683.87 319.41 683.87 736" fill="none" stroke="#2e2d75" stroke-miterlimit="10" stroke-width="2"/><path d="M536.49,476.85l4.14,23.35,23.67,3.25,5.34-7.9V482.44l4.48-18.23s-6.4,2.19-17.18-11.75-18.05,17.38-18.05,17.38Z" fill="#fff" stroke="#2e2d75" stroke-miterlimit="10" stroke-width="2"/><path d="M582,459.57s-10.94,9.57-16,1.23a17.63,17.63,0,0,1-2.06-6.6c-2.26-15.82-5.61-42-10-63.78-.83-4.1-1.7-8.05-2.61-11.75-5.76-23.38-23.39-97.38-23.39-120h69.77v60.58s16.87,4.6,16.87,28.75S601.9,442.7,582,459.57Z" fill="#2e2d75" stroke="#2e2d75" stroke-miterlimit="10" stroke-width="2"/><path d="M553.91,390.42l-60.15,25.66v27.35l52.57-26.29s8.86,39.92,21.22,45.54" fill="none" stroke="#2e2d75" stroke-miterlimit="10" stroke-width="2"/><path d="M551.17,382.18l-58.86-38.47a51.65,51.65,0,0,1-16.73-42.51l9.15-108.42h44.62s-8.57,76.68-20.49,109.58c0,0,18.85,7.88,26.93,13.27Z" fill="#fff" stroke="#2e2d75" stroke-miterlimit="10" stroke-width="2"/><line x1="497.03" y1="396.84" x2="519.44" y2="361.44" fill="none" stroke="#2e2d75" stroke-miterlimit="10" stroke-width="2"/><line x1="502.05" y1="387.28" x2="494.97" y2="345.45" fill="none" stroke="#2e2d75" stroke-miterlimit="10" stroke-width="2"/><path d="M490.62,342.17H457.54c1.73,34.18,14.87,71.92,21,85.4s14.57,6.73,14.57,6.73" fill="none" stroke="#2e2d75" stroke-miterlimit="10" stroke-width="2"/><path d="M493.1,440.43s-13.05,9.38-17-6.07c0,0-1-9.85-.54-14.35" fill="none" stroke="#2e2d75" stroke-miterlimit="10" stroke-width="2"/><path d="M477.27,319.51H437.82s-.82,4.82,14.07,8.83S470,342.17,470,342.17l19-.86S478.69,330,477.27,319.51Z" fill="#2e2d75" stroke="#2e2d75" stroke-miterlimit="10" stroke-width="2"/><path d="M514.43,192.32s3.15-13.82,3.23-21.84H474.74s.25,4.27,12.59,6.51S501,192.32,501,192.32Z" fill="#2e2d75" stroke="#2e2d75" stroke-miterlimit="10" stroke-width="2"/><path d="M579.38,461.46s-9.44,5.47-6.9,19.11,5.21,25.8-9.23,30.88-23.53-8-23.53-8-6.68-10-6.81-18.18S532,460.78,521.28,457s-23.85-8.66-22.82-16" fill="none" stroke="#2e2d75" stroke-miterlimit="10" stroke-width="2"/><path d="M573.24,469.29l-14.07,14.92s10.08,5.65,4.43,11.29-9.91-6.61-9.91-6.61l-13.06,7.33V479.86s-.08-10.39,5.48-11.12,12.58,1.85,12.58,1.85V453.3" fill="none" stroke="#2e2d75" stroke-miterlimit="10" stroke-width="2"/><path d="M572,471.31l-11.93,12.85,5.35,5.44-.69,5.43-4.66,2.22-5-4-2.11-4L540.1,497l.53-20.85,3-7.12,6.74-1,8,2.14-.08-6.66V452.79l-3.83-7.73-4-11.17-2.6-9.33L546,418.21l-47.14,23.26.77,5,9,6.2L521,457.73l4.21.95,3.83,6.58L532.63,479l.12,9.85,5,12.4,5,6.12,6.27,4s11,4.21,19.59-1.91,4.68-21.65,4.68-21.65l-1.62-11Z" fill="#2e2d75"/><path d="M584.9,283.33h0a13.43,13.43,0,0,0-13.43-13.43h-20.3" fill="none" stroke="#fff" stroke-miterlimit="10" stroke-width="2"/><polyline points="695.65 190.65 695.65 249.56 640.1 249.56" fill="#fff" stroke="#2d2f75" stroke-miterlimit="10" stroke-width="2"/><polyline points="686.81 209.16 686.81 240.72 658.62 240.72" fill="#fff" stroke="#2d2f75" stroke-miterlimit="10" stroke-width="2"/><path d="M713.29,792.43C703.23,831.56,684.81,882.75,653,914" fill="none" stroke="#2d2f75" stroke-miterlimit="10" stroke-width="2"/><path d="M724,738a452.32,452.32,0,0,1-10.71,54.43" fill="none" stroke="#2d2f75" stroke-miterlimit="10" stroke-width="2"/><path d="M713,793.64S632,814,622,943C622,943,752,914.27,713,793.64Z" fill="none" stroke="#2d2f75" stroke-miterlimit="10" stroke-width="2"/><path d="M1091.09,311.81l59.48,30.79c6.84,3.31,9.12,12.52,5,20.4h0a18.36,18.36,0,0,1-4.89,6,18.71,18.71,0,0,1-21.81.66L1078,336.34Z" fill="none" stroke="#2d2f75" stroke-miterlimit="10" stroke-width="2"/><path d="M1051.91,310.31,991,345.05a15.8,15.8,0,0,0-6.21,21.73h0a17,17,0,0,0,11.41,8.06,21.27,21.27,0,0,0,16.74-3.65l53.07-37.5Z" fill="none" stroke="#2d2f75" stroke-miterlimit="10" stroke-width="2"/><path d="M1025.86,365.07a92.59,92.59,0,0,0,20.92,0c11.76-1.31,13.07-3.93,26.14-7.85s32.68,6.54,32.68,6.54S1086,427.81,1134.36,471s-37.91,62.74-37.91,62.74v-18.3s40.52-10.46,17-27.45-24.83-24.84-47-22.22S1025.86,454,1025.86,454s-47.06-24.83-49.67-77.12L984,370a2,2,0,0,1,3.27,1.08c2.17,10.48,11.32,42.18,43.84,54.11C1031.09,425.2,1037,388,1025.86,365.07Z" fill="#2c3075" stroke="#2d2f75" stroke-miterlimit="10" stroke-width="2"/><path d="M998.9,341.25s27-33.7,53.11-32.39,45.1-.48,81,24.83" fill="none" stroke="#2d2f75" stroke-miterlimit="10" stroke-width="2"/><path d="M1069,365.07s-6.54,34-3.92,62.74" fill="none" stroke="#2d2f75" stroke-miterlimit="10" stroke-width="2"/><path d="M1075.54,460.49S1071.61,450,1061.16,450s-14.38,9.15-14.38,9.15" fill="none" stroke="#2d2f75" stroke-miterlimit="10" stroke-width="2"/><path d="M1073.27,456.52s-1.66,15.74-.35,22.27" fill="none" stroke="#2d2f75" stroke-miterlimit="10" stroke-width="2"/><path d="M1053.63,455.21A57.67,57.67,0,0,1,1052,480.1" fill="none" stroke="#2d2f75" stroke-miterlimit="10" stroke-width="2"/><path d="M1061.16,477.48l-13,3.61a11.39,11.39,0,0,0-8,13.59l6.65,25.94" fill="none" stroke="#2d2f75" stroke-miterlimit="10" stroke-width="2"/><path d="M1104.29,363.76a54.68,54.68,0,0,1,4.31-7.42" fill="#2c3075" stroke="#2d2f75" stroke-miterlimit="10" stroke-width="2"/><path d="M1069,497.09l-2.61-7.84-1.31,3.92s1.31,10.46,1.31,11.76-2.62,3.93-10.46,9.16-14.38,9.15-14.38,10.45-2.62,3.92,6.54,5.23,7.84,2.62,14.37,3.92,9.15,2.62,15.69-1.3,10.46-9.15,11.76-10.46,2.62-1.31,2.62-6.54-6.54-14.38-7.84-17a101.8,101.8,0,0,1-5.23-11.77c-1.31-3.92-2.62-5.22-2.62-7.84s0-2.61-1.3-5.23a3.71,3.71,0,0,0-6.54,0c-1.31,2.62,0,10.46,1.31,14.38S1075.54,494.48,1069,497.09Z" fill="#2c3075" stroke="#2d2f75" stroke-miterlimit="10" stroke-width="2"/><path d="M1095.14,532.39l-10.45,1.3s-9.15-3.92-10.46-6.53,5.23-1.31,5.23-1.31l7.84,1.31s3.92-3.92,0-5.23-2.61-2.62-2.61-2.62h10.45Z" fill="#fff" stroke="#2d2f75" stroke-linecap="round" stroke-linejoin="round" stroke-width="2"/><path d="M976.19,375.52V363.76s0-9.15,2.61-10.46,5.23-3.92,5.23-2.61-2.61,5.23-2.61,7.84,0,3.92,1.31,6.54,1.3,2.61,1.3,3.92S976.19,375.52,976.19,375.52Z" fill="none" stroke="#2d2f75" stroke-miterlimit="10" stroke-width="2"/><path d="M1079.29,325.8s-12.41,7.4-18.43-2.25,6.7-16.55,6.7-16.55Z" fill="#2c3075" stroke="#2d2f75" stroke-miterlimit="10" stroke-width="2"/><path d="M1077,307s12.38,7.43,6.72,17.3-17.75,1.91-17.75,1.91Z" fill="#2c3075" stroke="#2d2f75" stroke-miterlimit="10" stroke-width="2"/><polyline points="832 309.51 1353 309.51 1353 428" fill="none" stroke="#2d2f75" stroke-miterlimit="10" stroke-width="2"/><path d="M958,822l-2,23,4,72s5,5,14,0l6-63,7-29Z" fill="#fff" stroke="#2d2f75" stroke-miterlimit="10" stroke-width="2"/><path d="M1006,822l7,28,30,61s12-1,16-7l-21-54-4-41Z" fill="#fff" stroke="#2d2f75" stroke-miterlimit="10" stroke-width="2"/><path d="M984,655s-41,19-77-24l-9,21s23,42,96,33c0,0,7-1,10,3" fill="none" stroke="#2d2f75" stroke-miterlimit="10" stroke-width="2"/><path d="M943,656l5.58-7.67a10.84,10.84,0,0,1,6.58-4.25c7.46-1.55,22.88-4.32,28.84-2.08,7.89,3,34.25,25.36,40.74,88.31a40,40,0,0,0,.91,5.56C1031,757,1038,760,1038,760s-24,17-46,10-24-8-31-6a13.58,13.58,0,0,0-9,8s7-23-5-53-12-23-10-38" fill="none" stroke="#2d2f75" stroke-miterlimit="10" stroke-width="2"/><path d="M933.67,679.36S917,711,885,674l-12,11s18.56,46.06,71.78,28.53" fill="none" stroke="#2d2f75" stroke-miterlimit="10" stroke-width="2"/><path d="M954,768s-2,28-7,50c0,0,36,14,61,6s25-12,30-11a51,51,0,0,0,9,1,358.56,358.56,0,0,0-11.1-52.64s-23.11,18.15-52.5,5.89C961,758,954,768,954,768Z" fill="#2c3075" stroke="#2d2f75" stroke-miterlimit="10" stroke-width="2"/><path d="M960,917s-10,10-13,10-5,3-5,7h36s2-13-4-17C974,917,968,922,960,917Z" fill="#2c3075" stroke="#2d2f75" stroke-miterlimit="10" stroke-width="2"/><path d="M1043,911s-1,10-5,15-5,1-5,8l21-1,10-16s2-9-5-13A15.28,15.28,0,0,1,1043,911Z" fill="#2c3075" stroke="#2d2f75" stroke-miterlimit="10" stroke-width="2"/><line x1="958.48" y1="643.42" x2="957" y2="634" fill="#2c3075" stroke="#2d2f75" stroke-miterlimit="10" stroke-width="2"/><line x1="975" y1="641" x2="972" y2="631" fill="#2c3075" stroke="#2d2f75" stroke-miterlimit="10" stroke-width="2"/><path d="M940,606l8,21.78a10.07,10.07,0,0,0,11.57,6.39L965,633" fill="none" stroke="#2d2f75" stroke-miterlimit="10" stroke-width="2"/><path d="M945,603s0,8,17,7c5,2-3,5,10,15s2,20,5,24,5,6,12,7,21,0,20-11-18-22-15-35c1.64-7.09-5-23-10-27-12.12-9.7-15-6-28-5s-19,4-19,9-6,9-4,12,1,7,4,13,10,14,10,14l-6-19S944,608,945,603Z" fill="#2c3075" stroke="#2d2f75" stroke-miterlimit="10" stroke-width="2"/><polygon points="858 670 893 670 875 630 858 670" fill="#2c3075" stroke="#2d2f75" stroke-miterlimit="10" stroke-width="2"/><path d="M883.32,675.54S883,663,881,664s-1,6-3,7-14-1-14-1-3-1,2,4a94,94,0,0,0,9,8Z" fill="#fff" stroke="#2d2f75" stroke-miterlimit="10" stroke-width="2"/><path d="M900,647.3l-9-1.3s-4-6-3-7,3,1,5,2,7-7,3-8-6,4-8,4-1-3,1-5,4-5,7-4,7.43,5,9.71,6Z" fill="#fff" stroke="#2d2f75" stroke-miterlimit="10" stroke-width="2"/><line x1="884" y1="641" x2="912" y2="620" fill="#fff" stroke="#2d2f75" stroke-linecap="round" stroke-linejoin="round" stroke-width="4"/><polyline points="1293 606 1298 600 1298 594 1295 598 1294 599 1291 595 1295 593 1290 591 1286 594 1286 602" fill="#fff" stroke="#2d2f75" stroke-linecap="round" stroke-linejoin="round" stroke-width="2"/><path d="M1144,682s-5.5,31.5.5,78.5c0,0,42,13,61,0,0,0,7-55,11-68" fill="none" stroke="#2d2f75" stroke-miterlimit="10" stroke-width="2"/><path d="M1208,697l61.8-36.13a11.09,11.09,0,0,0,4.64-5.28L1295,607l-11-6-26,36.25a11.14,11.14,0,0,1-5.14,3.94L1216,655l-7.91-4.75a10,10,0,0,0-4.52-1.41l-40.75-2.72a10.05,10.05,0,0,0-3.57.41l-5.33,1.6a10,10,0,0,0-4.92,3.28c-5.77,7.07-22.24,28.34-26.51,45.39a10.8,10.8,0,0,0-.2,4.2l7.71,54,13-2" fill="none" stroke="#2d2f75" stroke-miterlimit="10" stroke-width="2"/><polyline points="1168.98 646.53 1173 641 1195 642 1199.23 648.55" fill="none" stroke="#2d2f75" stroke-miterlimit="10" stroke-width="2"/><path d="M1173.3,810.89l-14.94,38.2a7.4,7.4,0,0,1-.95,1.69L1112,911l-17-8,36.37-64.88a7,7,0,0,0,.83-2.39L1144,760s41,15,62,0l12.75,84.33a8.16,8.16,0,0,1-.19,3.3L1200,917h-21l6.82-73a8.1,8.1,0,0,0-.57-3.8L1166,793" fill="#2c3075" stroke="#2d2f75" stroke-miterlimit="10" stroke-width="2"/><path d="M1181,919h15s9,8,15,9a10.67,10.67,0,0,1,8,6l-39.75.5S1177,929,1181,919Z" fill="none" stroke="#2d2f75" stroke-miterlimit="10" stroke-width="2"/><path d="M1096,907l13,6s1,10,5,13,8,5,9,8c0,0-17,1-24-2s-14-14-14-14S1088,908,1096,907Z" fill="none" stroke="#2d2f75" stroke-miterlimit="10" stroke-width="2"/><line x1="1177" y1="641" x2="1177" y2="635" fill="none" stroke="#2d2f75" stroke-miterlimit="10" stroke-width="2"/><path d="M1194.43,642l1.33-9.42h-8.3s15.41,7.11,20.15-22.52" fill="none" stroke="#2d2f75" stroke-miterlimit="10" stroke-width="2"/><path d="M1212.35,608.82s-7.11,3.56-11.85,2.37-5.93,8.3-5.93,8.3h-2.37s2.37-8.3,0-7.11-4.74,5.92-4.74,11.85,4.74,9.48,0,10.67-3.55,3.55-5.92,2.37-7.11,1.18-9.48-4.74-5.93-21.34-1.19-27.26,9.48-14.23,23.7-11.85S1215.91,599.34,1212.35,608.82Z" fill="#2c3075" stroke="#2d2f75" stroke-miterlimit="10" stroke-width="2"/><polyline points="1133 755 1134 763 1135 771 1141 771 1142 759 1144.26 758.59" fill="none" stroke="#2d2f75" stroke-miterlimit="10" stroke-width="2"/><line x1="1301" y1="600" x2="1281" y2="587" fill="none" stroke="#2d2f75" stroke-linecap="round" stroke-miterlimit="10" stroke-width="4"/><path d="M1151,557s48,5,69,42c0,0,33-21,82,2" fill="none" stroke="#2d2f75" stroke-linecap="round" stroke-linejoin="round" stroke-width="4"/><path d="M1062.7,542l.07.71a6.28,6.28,0,0,1-1.62,4.74c-1.21,1.46-1.88,2.53-1.86,3.76,0,1.39.91,2.31,2.63,2.31a4.89,4.89,0,0,0,2.74-.89l.68,1.71a7.13,7.13,0,0,1-3.89,1.15c-3.13,0-4.58-1.87-4.61-3.94,0-1.86,1-3.21,2.28-4.78a5.35,5.35,0,0,0,1.49-4l0-.71Zm.55-3.83a1.61,1.61,0,0,1-1.61,1.74,1.7,1.7,0,1,1,1.61-1.74Z" fill="#2c3075"/><path d="M1081.25,547.75l.62.63a7.78,7.78,0,0,1,2.18,5.82c0,2.35.2,3.9,1.18,5.07s2.69,1.49,4.34.14a6,6,0,0,0,1.93-3l2,1.1a8.87,8.87,0,0,1-2.81,4.16c-3,2.51-5.87,1.82-7.53-.14-1.48-1.76-1.57-3.86-1.58-6.37a6.67,6.67,0,0,0-1.74-5l-.6-.65Zm-2.5-4.09a2,2,0,1,1-2.87-.31A2,2,0,0,1,1078.75,543.66Z" fill="#2c3075"/><polygon points="1224.47 307.86 1159.59 307.86 1149 213.25 1235.06 213.25 1224.47 307.86" fill="none" stroke="#2d2f75" stroke-miterlimit="10" stroke-width="2"/><rect x="1143.92" y="202.56" width="96.22" height="10.69" fill="#302f77" stroke="#2d2f75" stroke-miterlimit="10" stroke-width="2"/><line x1="1222.15" y1="233.03" x2="1216.27" y2="292.9" fill="#302f77" stroke="#2d2f75" stroke-miterlimit="10" stroke-width="2"/><path d="M1141.51,35.35s45.72,91.74,45.72,170.33" fill="none" stroke="#2d2f75" stroke-miterlimit="10" stroke-width="2"/><path d="M1198.21,207.91s-1.44-72.68,41.93-116" fill="none" stroke="#2d2f75" stroke-miterlimit="10" stroke-width="2"/><path d="M1203.91,161.72s-40.47-81.31,71.76-99.65C1275.67,62.07,1264.56,140.85,1203.91,161.72Z" fill="none" stroke="#2d2f75" stroke-miterlimit="10" stroke-width="2"/><path d="M1132.58,20s-10.6,99.65,45.71,118C1178.29,138,1226.69,71.8,1132.58,20Z" fill="none" stroke="#2d2f75" stroke-miterlimit="10" stroke-width="2"/><line x1="776" y1="934" x2="776" y2="960" fill="none" stroke="#2d2f75" stroke-miterlimit="10" stroke-width="2"/><path d="M219,953.69S195.84,1020,124.14,1020s-80.41-37-92.44-57.91" fill="none" stroke="#2e2d75" stroke-miterlimit="10" stroke-width="2"/><circle cx="119.02" cy="816.18" r="170.02" fill="#2f2f77" stroke="#2e2d75" stroke-miterlimit="10" stroke-width="2"/><line x1="174.33" y1="714.78" x2="550" y2="791" fill="#2d2f75" stroke="#2e2d75" stroke-miterlimit="10" stroke-width="4"/><line x1="174.33" y1="938.63" x2="550" y2="860" fill="#2d2f75" stroke="#2e2d75" stroke-miterlimit="10" stroke-width="4"/><circle cx="119.02" cy="816.18" r="65.55" fill="#fff" stroke="#2e2d75" stroke-miterlimit="10" stroke-width="2"/><path d="M109.82,760.59a56.92,56.92,0,0,1,9.2-.74A56.3,56.3,0,0,1,137.6,763" fill="none" stroke="#2e2d75" stroke-miterlimit="10" stroke-width="2"/><path d="M67.46,793.45a56.55,56.55,0,0,1,22.88-25.77" fill="none" stroke="#2e2d75" stroke-miterlimit="10" stroke-width="2"/><path d="M114.39,872.32a56,56,0,0,1-30.49-12.1" fill="none" stroke="#2e2d75" stroke-miterlimit="10" stroke-width="2"/><path d="M168.71,842.74a56.56,56.56,0,0,1-22.16,22.6" fill="none" stroke="#2e2d75" stroke-miterlimit="10" stroke-width="2"/><path d="M126.13,772.71A43.87,43.87,0,0,1,148,783" fill="none" stroke="#2e2d75" stroke-miterlimit="10" stroke-width="2"/><path d="M82.55,791.48a43.91,43.91,0,0,1,5.72-6.82" fill="none" stroke="#2e2d75" stroke-miterlimit="10" stroke-width="2"/><path d="M75.31,821.6a44.19,44.19,0,0,1-.33-5.42,45.17,45.17,0,0,1,.51-6.73" fill="none" stroke="#2e2d75" stroke-miterlimit="10" stroke-width="2"/><path d="M149.78,847.7a43.94,43.94,0,0,1-21.57,11.56" fill="none" stroke="#2e2d75" stroke-miterlimit="10" stroke-width="2"/><path d="M12.18,849.94a113.5,113.5,0,0,1-.26-69.09" fill="none" stroke="#fff" stroke-miterlimit="10" stroke-width="2"/><path d="M229.37,788.24a113.34,113.34,0,0,1-2.91,63.39" fill="none" stroke="#fff" stroke-miterlimit="10" stroke-width="2"/><path d="M72.12,740.51a88,88,0,0,1,46.53-13.84" fill="none" stroke="#fff" stroke-miterlimit="10" stroke-width="2"/><path d="M32.1,826.83A88.83,88.83,0,0,1,31.51,809" fill="none" stroke="#fff" stroke-miterlimit="10" stroke-width="2"/><path d="M207.71,821a88.05,88.05,0,0,1-16.78,46.09" fill="none" stroke="#fff" stroke-miterlimit="10" stroke-width="2"/><path d="M102.94,955.94a143.48,143.48,0,0,1-22.8-4,141.17,141.17,0,0,1-43.07-19.39" fill="none" stroke="#fff" stroke-miterlimit="10" stroke-width="2"/><path d="M226.54,903.11a141.83,141.83,0,0,1-71.85,48" fill="none" stroke="#fff" stroke-miterlimit="10" stroke-width="2"/><path d="M162.73,682A140.6,140.6,0,0,1,229,730.71" fill="none" stroke="#fff" stroke-miterlimit="10" stroke-width="2"/><path d="M12.19,719.31a141.89,141.89,0,0,1,68.1-40.76" fill="none" stroke="#fff" stroke-miterlimit="10" stroke-width="2"/><path d="M71.06,916.21A110,110,0,0,1,24.5,877.27" fill="none" stroke="#fff" stroke-miterlimit="10" stroke-width="2"/><circle cx="119.02" cy="816.18" r="32.78" fill="none" stroke="#2e2d75" stroke-miterlimit="10" stroke-width="2"/><circle cx="119.02" cy="816.18" r="28.68" fill="#2d2f75" stroke="#2e2d75" stroke-miterlimit="10" stroke-width="2"/><path d="M154.87,969.81s33.8-57.35,15.36-103.44l14.34-6.15s34.74,38.6-4.43,138.27a25.86,25.86,0,0,1-13.88,14.3c-15.16,6.51-45.89,15.71-82.07,4.56-7.67-2.36-13.27-8.33-16.75-15.55-38.55-80.13-1.81-134.41-1.81-134.41l13.45,8.19c-18.44,46.09,11.26,96.28,11.26,96.28" fill="#fff" stroke="#2e2d75" stroke-miterlimit="10" stroke-width="2"/><path d="M107.35,969.81,103.66,979s14.75,13.32,30.73,0l-3.69-9.22" fill="#fff" stroke="#2e2d75" stroke-miterlimit="10" stroke-width="2"/><path d="M170.23,866.37l-4.09-8.2c-2-4.1-2-7.17,1-5.12s1.36,3.29,3.75,3.18,3.42-.11,4.45-4.2,2-14.34,2-14.34,3-3.08,3.56,0a41.78,41.78,0,0,1,.54,8.19c0,3.07,1,4.88,1,7.17,0,3.07,2,7.17,2,7.17Z" fill="#fff" stroke="#2e2d75" stroke-miterlimit="10" stroke-width="2"/><path d="M65.86,867.07s-1.12-5.83-2.15-9.92S61.16,852,61.93,849s3.83-4.09,3.83-1,2,8.26,2.53,9.76-.48,3.55,3.62,3.55,6.14-1,6.14,1-1.37,2.05-1.19,4.1a8.9,8.9,0,0,1-.85,4.09l-1,2Z" fill="#fff" stroke="#2e2d75" stroke-miterlimit="10" stroke-width="2"/><path d="M104.88,977.92a32.7,32.7,0,0,1,14-2.6c3.72.13,7.81.13,9.35-.39,3.07-1,7.17,2.05,10.24-3.07a84.82,84.82,0,0,0,5.25-12,32.58,32.58,0,0,0,2-11.64c-.06-5.89-.61-14-3.18-15.3-4.1-2.05-7.17-10.24-20.48-9.22s-18.44,0-24.59,1c-7.14,1.19-11.26,9.22-9.21,18.43s9.21,37.9,16.38,34.83Z" fill="#fff" stroke="#2e2d75" stroke-miterlimit="10" stroke-width="2"/><path d="M97.51,981.08a23.69,23.69,0,0,1-6.14-7.17" fill="#fff" stroke="#2e2d75" stroke-miterlimit="10" stroke-width="2"/><path d="M154.87,971.86s-2.05,4.1-4.1,5.12" fill="#fff" stroke="#2e2d75" stroke-miterlimit="10" stroke-width="2"/></svg>