<svg xmlns="http://www.w3.org/2000/svg" xmlns:xlink="http://www.w3.org/1999/xlink" viewBox="0 0 1920 1080"><defs><clipPath id="a"><polygon points="817.29 701.34 817.29 816.36 817.29 931.37 862.22 952.74 862.22 816.36 862.22 679.97 817.29 701.34" fill="none"/></clipPath></defs><title>illustration-final</title><circle cx="1488.77" cy="447.57" r="238.38" fill="none" stroke="#2e2d75" stroke-miterlimit="10" stroke-width="2"/><line x1="988" y1="685.77" x2="1708.52" y2="686.69" fill="none" stroke="#2e2d75" stroke-miterlimit="10" stroke-width="2"/><line x1="631" y1="573" x2="1090.52" y2="573.69" fill="none" stroke="#2e2d75" stroke-miterlimit="10" stroke-width="2"/><path d="M1163.13,515.84c8.39,8.92,40.2,25.44,50.48,25.76s41.48-15.44,41.48-15.44V513.72c-7,5.08-41.47,8.09-41.47,8.09s-26.29-28.86-39.09-40.39-26.47,7.57-26.47,7.57-23.86,38.42-35.37,44.46-12,9.85-12,9.85,14.82,18.57,34.17,17.43,23.51,8,23.51,8l27.2-38.59" fill="none" stroke="#2e2d75" stroke-miterlimit="10" stroke-width="2"/><path d="M1186.32,493.35l25.31,4L1241,461l6.88,11.53s-23.55,41.39-26.76,43.35-10.18,3.31-10.18,3.31" fill="none" stroke="#2e2d75" stroke-miterlimit="10" stroke-width="2"/><path d="M1103.1,545.15c-3.64,5.29-5.58,14.77-5.58,14.77-7.92,39.66,61.16,57.3,61.16,57.3l-15.3,48.47,23.1,6.52,21.25-59.35a12.66,12.66,0,0,0-2.32-12.53l-28.28-32.89" fill="none" stroke="#2e2d75" stroke-miterlimit="10" stroke-width="2"/><path d="M1125.37,603.58l-21.67,32.68-48.51,35.82-15.79-13.3,43-39.84s10.45-63.72,20.34-72.78" fill="none" stroke="#2e2d75" stroke-miterlimit="10" stroke-width="2"/><path d="M1144.77,670.1s6.82,4.48,13.85,3.54l12.34,7.81s7.07.1,6.36,3.22-13.24,1-13.24,1-19.38-2.48-20.54-2.48S1138.85,677.4,1144.77,670.1Z" fill="none" stroke="#2e2d75" stroke-miterlimit="10" stroke-width="2"/><path d="M1146.55,666.58l-.9,3.52s7.18,3.82,12.39,3.45l1.21-3.38Z" fill="#302d77" stroke="#2e2d75" stroke-miterlimit="10" stroke-width="2"/><path d="M1036.82,666.92a12.61,12.61,0,0,0,9.37,8.13s4.35,5.2,5.69,6.12,5.78.09,5.6,3.52-18.11-.52-18.11-.52l-10.51-9S1027.78,666.82,1036.82,666.92Z" fill="none" stroke="#2e2d75" stroke-miterlimit="10" stroke-width="2"/><path d="M1037.38,667.34l5.77-5.34,8,7.24-5.71,5.31S1037.48,671.5,1037.38,667.34Z" fill="#302d77" stroke="#2e2d75" stroke-miterlimit="10" stroke-width="2"/><path d="M1182.26,487.91l6-6.71-4.38-3.46s8.35,9.27,12.58,3.7a68.82,68.82,0,0,0,7.34-13l-13.38-10.64s-12.21,11.12-11.17,15l-7.65,6.41Z" fill="#302d77" stroke="#2e2d75" stroke-miterlimit="10" stroke-width="2"/><path d="M1210.3,462.64a8.9,8.9,0,0,1-1.24,2c-1.87,2.36-6.68,6.72-15.18,3.77-9-3.13-19.35,4.27-23.24,7.45a10.78,10.78,0,0,0-2.37,2.71c-3.37,5.49-17.14,25.79-34.12,21.19-19.6-5.3-4.47-32.3,11-42s42-20.46,53.41-13.46C1209.51,451,1212.57,457.22,1210.3,462.64Z" fill="#fff" stroke="#2e2d75" stroke-miterlimit="10" stroke-width="2"/><polyline points="1255.1 517.73 1257.98 511.4 1257.99 503.09" fill="none" stroke="#2e2d75" stroke-miterlimit="10" stroke-width="2"/><polyline points="1255.61 522.68 1261.17 518.67 1262 513.02" fill="none" stroke="#2e2d75" stroke-miterlimit="10" stroke-width="2"/><polyline points="1255.62 520.16 1258.81 515.16 1260.8 509.26" fill="none" stroke="#2e2d75" stroke-miterlimit="10" stroke-width="2"/><polyline points="1255.09 524.42 1259.81 522.68 1261.99 520.17" fill="none" stroke="#2e2d75" stroke-miterlimit="10" stroke-width="2"/><polyline points="1242.84 463.59 1245.46 459.66 1249.07 453.97 1249.64 449.13" fill="none" stroke="#2e2d75" stroke-miterlimit="10" stroke-width="2"/><polyline points="1244.82 465.88 1248.64 460.83 1251.21 451.55" fill="none" stroke="#2e2d75" stroke-miterlimit="10" stroke-width="2"/><polyline points="1245.51 467.88 1250.46 463.13 1251.88 459.38" fill="none" stroke="#2e2d75" stroke-miterlimit="10" stroke-width="2"/><polyline points="1245.7 469.62 1251.23 464.75 1252.88 461.58" fill="none" stroke="#2e2d75" stroke-miterlimit="10" stroke-width="2"/><polyline points="1708.65 578.4 1843.42 578.56 1843.48 523.78 2016.51 523.99 2016.59 459.61 2217.63 459.84 2217.43 631.04 2603.87 631.04" fill="none" stroke="#2e2d75" stroke-miterlimit="10" stroke-width="2"/><path d="M1836.73,486.49a8.74,8.74,0,0,1,9.66,1.94c7.39,7,17.61,19.95,21.86,24.62s-1.9,8.74-7.11,9.74-17.65,1-17.65,1-14.25,16.93-28.68,13.59l0-17.84,35.18-7.72" fill="none" stroke="#2e2d75" stroke-miterlimit="10" stroke-width="2"/><path d="M1853.78,495.41S1852.12,483,1838.9,483c-6.28,0-17.81,15.88-18.46,17.18s-6.1,6.74-4.8,11.64S1812.78,535,1802.75,543c-6.1,4.57-18.06-5.27-18.06-5.27s-5.24,7.42,4.32,27c5.65,11.59,18.84,13.17,28.68,12.53a24.52,24.52,0,0,0,21.71-16.55c2.28-6.77,4.06-16.54,4.08-30.54" fill="none" stroke="#2e2d75" stroke-miterlimit="10" stroke-width="2"/><polyline points="1814.82 521.48 1808.95 522.75 1804.27 529.42 1804.26 535.53" fill="none" stroke="#2e2d75" stroke-miterlimit="10" stroke-width="2"/><polyline points="1810.12 526.71 1807.57 531.17 1807.57 537.1" fill="none" stroke="#2e2d75" stroke-miterlimit="10" stroke-width="2"/><polyline points="1811.09 528.51 1810.11 533.8 1811.08 537.8" fill="none" stroke="#2e2d75" stroke-miterlimit="10" stroke-width="2"/><path d="M1783.26,539.71,1751,526.66a8.15,8.15,0,0,0-8.08,1.12l-38.2,29.74,0,17.67,40-26a3.25,3.25,0,0,1,3.39-.08c7.71,4.49,39.26,22.63,50.48,25.26C1798.66,574.33,1784.88,569.64,1783.26,539.71Z" fill="#302d77" stroke="#2e2d75" stroke-miterlimit="10" stroke-width="2"/><path d="M1698.42,562.21a8.61,8.61,0,0,0-.12,3.46,11.33,11.33,0,0,0,4.38,7.1s-.67,6.77-7.09,5.68l-3.71-6.86Z" fill="none" stroke="#2e2d75" stroke-miterlimit="10" stroke-width="2"/><path d="M1704,561.12l-5.68,4.55s1.56,5.18,4,6.25,6.36-3.52,6.36-3.52Z" fill="none" stroke="#2e2d75" stroke-miterlimit="10" stroke-width="2"/><path d="M1837.06,474.78h-5.52a5.3,5.3,0,0,1-5.29-5.31l0-15.6" fill="none" stroke="#2e2d75" stroke-miterlimit="10" stroke-width="2"/><path d="M1832.63,475.4l2.48,8.91s5.63-3.15,8.53-1.35l1.12-9" fill="none" stroke="#2e2d75" stroke-miterlimit="10" stroke-width="2"/><path d="M1838,453.87l-15.85,0s-1.67-17.11,18.8-17.09,18.87,30.13,13.67,42.41C1854.62,479.17,1838.47,481.72,1838,453.87Z" fill="#302d77" stroke="#2e2d75" stroke-miterlimit="10" stroke-width="2"/><path d="M1837,504.63a10.14,10.14,0,0,0,8.35,8.2" fill="none" stroke="#2e2d75" stroke-miterlimit="10" stroke-width="2"/><path d="M845,285s0,12,10,18" fill="none" stroke="#2d2f75" stroke-miterlimit="10" stroke-width="2"/><g opacity="0.12"><path d="M1238.73,939.25a186.14,186.14,0,0,1,30.47,69.17c.68,3.14,5.5,1.81,4.82-1.33a189.6,189.6,0,0,0-31-70.36c-1.85-2.6-6.19-.11-4.31,2.52Z" fill="#2e2d75"/></g><g opacity="0.12"><path d="M1364.89,874.2a95.76,95.76,0,0,0,18-7.16c2.86-1.49.33-5.8-2.52-4.32a89.25,89.25,0,0,1-16.85,6.66c-3.09.87-1.77,5.7,1.33,4.82Z" fill="#2e2d75"/></g><path d="M313.37,795.82c61.34,8.77,99.11-7.23,99.11-7.23l-9.89-9.14s-2.11-23.77-30.27-39.86-26.74-25.23-26.74-25.23-3.6-4-4.7,0-21.94,33.24-21.94,53.73S313.37,795.82,313.37,795.82Z" fill="none" stroke="#2e2d75" stroke-miterlimit="10" stroke-width="2"/><path d="M343.44,721s-3.29,45.27,12.43,66.84" fill="none" stroke="#2e2d75" stroke-miterlimit="10" stroke-width="2"/><path d="M387.68,783.1s-42.41,8-58.14,4.76" fill="none" stroke="#2e2d75" stroke-miterlimit="10" stroke-width="2"/><path d="M78.21,909.81s-7.81,1.14-5.89,9.44C72.32,919.25,80.17,918.27,78.21,909.81Z" fill="#302d77" stroke="#2e2d75" stroke-miterlimit="10" stroke-width="2"/><path d="M62.69,910.24s-1.87,7.68,6.54,9C69.23,919.25,71.27,911.6,62.69,910.24Z" fill="none" stroke="#2e2d75" stroke-miterlimit="10" stroke-width="2"/><path d="M27,666.5-7,622.61-23.3,571.78c4.06-6.77,11.84-8.46,18.09-9.49a10.36,10.36,0,0,0,8.1-5.91l9,58.17L40,658.65s6.21,8.43,0,17.24" fill="none" stroke="#2e2d75" stroke-miterlimit="10" stroke-width="2"/><path d="M13.27,648.72l-1.41,1.63a12.67,12.67,0,0,1-9,2.12c-9.07-.89-47.4-14.19-47.4-14.19-3.55,9.16-5.32,17.74,0,36.19a102.6,102.6,0,0,1,3.29,35.95c13-8,49-12.72,68.26-16.26s18.85-18.27,18.85-18.27.6-6.91-4.89-15.62" fill="none" stroke="#2e2d75" stroke-miterlimit="10" stroke-width="2"/><path d="M44.27,667.6l11.55-1.1-2.45-10.17a2.46,2.46,0,0,1,2-3L75,650.46" fill="none" stroke="#2e2d75" stroke-miterlimit="10" stroke-width="2"/><path d="M83.34,648.19s-14.16-4.51-20.83,30.28-28.12,45.91-28.12,45.91l-2.79,1.29A24.93,24.93,0,0,0,20,760h0a24.93,24.93,0,0,0,34.52,9.89l3.1-1.8s19-12.47,22.74-43.88,12.92-45.52,12.92-45.52,4.29-7.15,5.39-9.35C101.45,663.85,99.43,652.53,83.34,648.19Z" fill="#302d77" stroke="#2e2d75" stroke-miterlimit="10" stroke-width="2"/><line x1="62.51" y1="678.47" x2="45.91" y2="679.14" fill="none" stroke="#2e2d75" stroke-miterlimit="10" stroke-width="2"/><polyline points="1.3 558.83 -0.98 541.66 -5.21 529.68 -15.35 534.53 -17.78 540.3" fill="none" stroke="#2e2d75" stroke-miterlimit="10" stroke-width="2"/><polyline points="987.64 921.58 987.64 1053.04 1056.48 1053.04" fill="none" stroke="#2e2d75" stroke-miterlimit="10" stroke-width="2"/><polyline points="987.64 701.34 788.43 701.34 788.43 931.37 987.64 931.37" fill="none" stroke="#2e2d75" stroke-miterlimit="10" stroke-width="2"/><line x1="987.64" y1="859.41" x2="987.64" y2="685.51" fill="none" stroke="#2e2d75" stroke-miterlimit="10" stroke-width="2"/><polygon points="817.29 701.34 817.29 816.36 817.29 931.37 862.22 952.74 862.22 816.36 862.22 679.97 817.29 701.34" fill="#fff" stroke="#2e2d75" stroke-miterlimit="10" stroke-width="2"/><g clip-path="url(#a)"><line x1="807.81" y1="912.27" x2="878.42" y2="931.36" fill="#302d77" stroke="#2e2d75" stroke-miterlimit="10" stroke-width="13"/><line x1="807.81" y1="888.29" x2="878.42" y2="902.61" fill="#302d77" stroke="#2e2d75" stroke-miterlimit="10" stroke-width="13"/><line x1="807.81" y1="864.31" x2="878.42" y2="873.86" fill="#302d77" stroke="#2e2d75" stroke-miterlimit="10" stroke-width="13"/><line x1="807.81" y1="840.33" x2="878.42" y2="845.11" fill="#302d77" stroke="#2e2d75" stroke-miterlimit="10" stroke-width="13"/><line x1="807.81" y1="816.35" x2="878.42" y2="816.35" fill="#302d77" stroke="#2e2d75" stroke-miterlimit="10" stroke-width="13"/><line x1="807.81" y1="792.37" x2="878.42" y2="787.6" fill="#302d77" stroke="#2e2d75" stroke-miterlimit="10" stroke-width="13"/><line x1="807.81" y1="768.4" x2="878.42" y2="758.85" fill="#302d77" stroke="#2e2d75" stroke-miterlimit="10" stroke-width="13"/><line x1="807.81" y1="744.42" x2="878.42" y2="730.1" fill="#302d77" stroke="#2e2d75" stroke-miterlimit="10" stroke-width="13"/><line x1="807.81" y1="720.44" x2="878.42" y2="701.34" fill="#302d77" stroke="#2e2d75" stroke-miterlimit="10" stroke-width="13"/></g><polyline points="926.31 701.34 926.31 834.97 987.64 834.97" fill="#fff" stroke="#2e2d75" stroke-miterlimit="10" stroke-width="2"/><rect x="850.87" y="766.99" width="141.09" height="9.79" transform="translate(149.52 1693.3) rotate(-90)" fill="#302d77" stroke="#2e2d75" stroke-miterlimit="10" stroke-width="2"/><path d="M977.13,966.55l-30.79,4.26a35.48,35.48,0,0,1-12.71-.15l-26.87-3L869.21,969a32.18,32.18,0,0,0-12.51,2.53l-36.33,12.14h-6.08v20.68h6.08l36.33,12.14a32.18,32.18,0,0,0,12.51,2.53l37.55,1.39,26.87-3a35.26,35.26,0,0,1,12.71-.15l30.79,4.25c2.26.31,4.54.47,6.15-1.14l2.06-2.06a7.31,7.31,0,0,0,2.14-5.16V974.92a7.31,7.31,0,0,0-2.14-5.17l-2.06-2C981.67,966.08,979.39,966.24,977.13,966.55Z" fill="#fff" stroke="#2e2d75" stroke-miterlimit="10" stroke-width="2"/><path d="M809,986.18v15.74c0,2.14,2,3.87,4.57,3.87h.72V982.31h-.72C811,982.31,809,984.05,809,986.18Z" fill="none" stroke="#2e2d75" stroke-miterlimit="10" stroke-width="2"/><polyline points="813.88 1005.79 815.88 1004.32 813.88 1002.86 815.88 1001.39 813.88 999.92 815.88 998.46 813.88 996.99 815.88 995.53 813.88 994.07 815.88 992.6 813.88 991.13 815.88 989.67 813.88 988.2 815.88 986.73 813.88 985.26 815.88 983.79 813.88 982.31" fill="none" stroke="#2e2d75" stroke-miterlimit="10" stroke-width="2"/><polyline points="906.14 967.65 906.14 1020.45 865.52 1018.85 865.52 969.26" fill="#302d77" stroke="#2e2d75" stroke-miterlimit="10" stroke-width="2"/><line x1="868.64" y1="972.35" x2="868.64" y2="999.09" fill="none" stroke="#fff" stroke-miterlimit="10" stroke-width="2"/><line x1="-77.72" y1="922.13" x2="415" y2="922.13" fill="none" stroke="#2e2d75" stroke-miterlimit="10" stroke-width="2"/><circle cx="201.43" cy="872.58" r="49.55" fill="none" stroke="#2e2d75" stroke-miterlimit="10" stroke-width="2"/><circle cx="364.03" cy="872.58" r="49.55" fill="none" stroke="#2e2d75" stroke-miterlimit="10" stroke-width="2"/><rect x="138.18" y="797.8" width="277.82" height="10.33" fill="#302d77" stroke="#2e2d75" stroke-miterlimit="10" stroke-width="2"/><polygon points="441.4 805.44 413.58 806.44 413.58 799.49 441.4 800.49 441.4 805.44" fill="none" stroke="#2e2d75" stroke-miterlimit="10" stroke-width="2"/><path d="M162.65,808.13v24.25a40.2,40.2,0,0,0,40.21,40.2H357.6a40.2,40.2,0,0,0,40.2-40.2V808.13" fill="none" stroke="#2e2d75" stroke-miterlimit="10" stroke-width="2"/><circle cx="201.43" cy="872.58" r="6.68" fill="none" stroke="#2e2d75" stroke-miterlimit="10" stroke-width="2"/><circle cx="201.43" cy="872.58" r="3.64" fill="#2e2d75"/><line x1="201.43" y1="860.8" x2="201.43" y2="827.95" fill="none" stroke="#2e2d75" stroke-miterlimit="10" stroke-width="2"/><line x1="197.4" y1="861.51" x2="186.16" y2="830.64" fill="none" stroke="#2e2d75" stroke-miterlimit="10" stroke-width="2"/><line x1="189.82" y1="870.54" x2="157.47" y2="864.83" fill="none" stroke="#2e2d75" stroke-miterlimit="10" stroke-width="2"/><line x1="189.82" y1="874.63" x2="157.47" y2="880.33" fill="none" stroke="#2e2d75" stroke-miterlimit="10" stroke-width="2"/><line x1="193.85" y1="881.61" x2="172.74" y2="906.77" fill="none" stroke="#2e2d75" stroke-miterlimit="10" stroke-width="2"/><line x1="197.4" y1="883.65" x2="186.16" y2="914.53" fill="none" stroke="#2e2d75" stroke-miterlimit="10" stroke-width="2"/><line x1="209" y1="881.61" x2="230.12" y2="906.77" fill="none" stroke="#2e2d75" stroke-miterlimit="10" stroke-width="2"/><line x1="213.03" y1="874.63" x2="245.38" y2="880.33" fill="none" stroke="#2e2d75" stroke-miterlimit="10" stroke-width="2"/><line x1="209" y1="863.56" x2="230.12" y2="838.39" fill="none" stroke="#2e2d75" stroke-miterlimit="10" stroke-width="2"/><circle cx="364.03" cy="872.58" r="6.68" fill="none" stroke="#2e2d75" stroke-miterlimit="10" stroke-width="2"/><circle cx="364.03" cy="872.58" r="3.64" fill="#2e2d75"/><line x1="360" y1="861.51" x2="348.76" y2="830.64" fill="none" stroke="#2e2d75" stroke-miterlimit="10" stroke-width="2"/><line x1="353.82" y1="866.69" x2="325.37" y2="850.26" fill="none" stroke="#2e2d75" stroke-miterlimit="10" stroke-width="2"/><line x1="353.82" y1="878.47" x2="325.37" y2="894.9" fill="none" stroke="#2e2d75" stroke-miterlimit="10" stroke-width="2"/><line x1="356.45" y1="881.61" x2="335.34" y2="906.77" fill="none" stroke="#2e2d75" stroke-miterlimit="10" stroke-width="2"/><line x1="364.03" y1="884.36" x2="364.03" y2="917.22" fill="none" stroke="#2e2d75" stroke-miterlimit="10" stroke-width="2"/><line x1="368.06" y1="883.65" x2="379.29" y2="914.53" fill="none" stroke="#2e2d75" stroke-miterlimit="10" stroke-width="2"/><line x1="374.23" y1="878.47" x2="402.68" y2="894.9" fill="none" stroke="#2e2d75" stroke-miterlimit="10" stroke-width="2"/><line x1="371.6" y1="863.56" x2="392.72" y2="838.39" fill="none" stroke="#2e2d75" stroke-miterlimit="10" stroke-width="2"/><line x1="368.06" y1="861.51" x2="379.29" y2="830.64" fill="none" stroke="#2e2d75" stroke-miterlimit="10" stroke-width="2"/><path d="M333.43,794.39c-94.67,13.54-153-11.16-153-11.16l15.27-14.1s3.25-36.68,46.7-61.51,41.27-38.94,41.27-38.94,5.57-6.21,7.26,0S324.83,720,324.83,751.6,333.43,794.39,333.43,794.39Z" fill="#fff" stroke="#2e2d75" stroke-miterlimit="10" stroke-width="2"/><path d="M287,679s5.08,69.85-19.18,103.14" fill="none" stroke="#2e2d75" stroke-miterlimit="10" stroke-width="2"/><path d="M218.74,774.77s65.46,12.41,89.73,7.33" fill="none" stroke="#2e2d75" stroke-miterlimit="10" stroke-width="2"/><rect x="44.08" y="96.17" width="157" height="302.3" fill="none" stroke="#2e2d75" stroke-miterlimit="10" stroke-width="2"/><rect x="58.21" y="110.26" width="128.74" height="86.17" fill="none" stroke="#2e2d75" stroke-miterlimit="10" stroke-width="2"/><rect x="58.21" y="210.45" width="56.58" height="86.17" fill="none" stroke="#2e2d75" stroke-miterlimit="10" stroke-width="2"/><rect x="130.37" y="210.45" width="56.58" height="86.17" fill="none" stroke="#2e2d75" stroke-miterlimit="10" stroke-width="2"/><polygon points="215.89 346.01 29.81 346.01 29.81 325.97 215.89 305.97 215.89 346.01" fill="#302d77" stroke="#2e2d75" stroke-miterlimit="10" stroke-width="2"/><line x1="344.57" y1="398.66" x2="-201.38" y2="398.66" fill="none" stroke="#2e2d75" stroke-miterlimit="10" stroke-width="2"/><line x1="497.6" y1="836" x2="497.6" y2="-32.65" fill="none" stroke="#2e2d75" stroke-miterlimit="10" stroke-width="2"/><circle cx="469.28" cy="564.46" r="28.01" fill="#302d77" stroke="#2e2d75" stroke-miterlimit="10" stroke-width="2"/><path d="M469.28,527.64a37.54,37.54,0,0,0-5.64.43,36.82,36.82,0,0,0,5.64,73.21v4.77H344.81V417.91H469.28Z" fill="none" stroke="#2e2d75" stroke-miterlimit="10" stroke-width="2"/><circle cx="469.28" cy="350.47" r="28.01" fill="#302d77" stroke="#2e2d75" stroke-miterlimit="10" stroke-width="2"/><line x1="462.42" y1="417.91" x2="462.42" y2="528.29" fill="none" stroke="#2e2d75" stroke-miterlimit="10" stroke-width="2"/><path d="M344.81,568.31h48.76a18.82,18.82,0,0,0,18.82-18.81V546a25.32,25.32,0,0,1,25.32-25.33h24.71" fill="none" stroke="#2e2d75" stroke-miterlimit="10" stroke-width="2"/><path d="M344.81,425.64H403.2a8.7,8.7,0,0,1,8.7,8.7h0a26.77,26.77,0,0,0,26.77,26.78h23.75" fill="none" stroke="#2e2d75" stroke-miterlimit="10" stroke-width="2"/><path d="M438.68,355.08,469,346c2.7-.81,5.42.31,6.07,2.48h0c.65,2.18-1,4.6-3.72,5.41l-30.78,9.18S438.5,357.76,438.68,355.08Z" fill="#fff"/><path d="M469.28,417.91V384.23s-32.95-1.52-32.95-33.76l-56.56,12.79a44.87,44.87,0,0,0-35,43.76v10.89" fill="none" stroke="#2e2d75" stroke-miterlimit="10" stroke-width="2"/><path d="M411.18,356.16s4.36-31.15,23.7-33.7,16.2-1,16.2-1a33.57,33.57,0,0,0-14.75,29" fill="none" stroke="#2e2d75" stroke-miterlimit="10" stroke-width="2"/><path d="M351.61,411.48h50.27V365.12l-20.16,4.44a37.83,37.83,0,0,0-11.51,4.51c-.43.26-.85.53-1.27.8a39.15,39.15,0,0,0-17.35,33Z" fill="#302d77" stroke="#2e2d75" stroke-miterlimit="10" stroke-width="2"/><rect x="369.46" y="171.83" width="127.83" height="10.17" fill="none" stroke="#2e2d75" stroke-miterlimit="10" stroke-width="2"/><rect x="294.18" y="162.94" width="75.28" height="27.96" rx="10.29" fill="none" stroke="#2e2d75" stroke-miterlimit="10" stroke-width="2"/><circle cx="309.99" cy="176.92" r="7.33" fill="#302d77" stroke="#2e2d75" stroke-miterlimit="10" stroke-width="2"/><circle cx="330.98" cy="176.92" r="7.33" fill="none" stroke="#2e2d75" stroke-miterlimit="10" stroke-width="2"/><circle cx="351.97" cy="176.92" r="7.33" fill="none" stroke="#2e2d75" stroke-miterlimit="10" stroke-width="2"/><rect x="1299.11" y="940.04" width="341.41" height="7.43" fill="#302d77" stroke="#2e2d75" stroke-miterlimit="10" stroke-width="2"/><rect x="1316.87" y="943.75" width="7.43" height="132" fill="none" stroke="#2e2d75" stroke-miterlimit="10" stroke-width="2"/><rect x="1615.32" y="943.75" width="7.43" height="132" fill="none" stroke="#2e2d75" stroke-miterlimit="10" stroke-width="2"/><rect x="1468.46" y="922.37" width="2.7" height="17.67" fill="#302d77" stroke="#2e2d75" stroke-miterlimit="10" stroke-width="2"/><circle cx="1516.06" cy="903.1" r="8" fill="#302d77" stroke="#2e2d75" stroke-miterlimit="10" stroke-width="2"/><path d="M1487.15,897.61s-62.41-11.06-134.27,0" fill="none" stroke="#2e2d75" stroke-miterlimit="10" stroke-width="2"/><path d="M650,838.85c0-22.28-27.81-40.35-54.92-40.35-23.78,0-43.76,13.87-48.12,32.37-1.1,4.67-5.35,5.38-8.58,5.38H497.6v5.2h40.77c3.24,0,7.09.76,8.59,5.4,0,0,0,0,0,0v0c4.54,18.41,24.36,32.27,48.1,32.27C622.19,879.19,650,861.13,650,838.85Z" fill="#302d77" stroke="#2e2d75" stroke-miterlimit="10" stroke-width="2"/><path d="M595.48,876c-25.58,0-46.31-16.65-46.31-37.18s20.73-37.18,46.31-37.18,51.16,16.64,51.16,37.18S621.06,876,595.48,876Z" fill="#fff" stroke="#2e2d75" stroke-miterlimit="10" stroke-width="2"/><line x1="624.85" y1="821.48" x2="586.09" y2="821.48" fill="none" stroke="#2e2d75" stroke-miterlimit="10" stroke-width="2"/><line x1="614.74" y1="826.98" x2="575.98" y2="826.98" fill="none" stroke="#2e2d75" stroke-miterlimit="10" stroke-width="2"/><line x1="598.69" y1="835.68" x2="598.69" y2="813.93" fill="none" stroke="#2e2d75" stroke-miterlimit="10" stroke-width="2"/><line x1="607.2" y1="833.76" x2="607.2" y2="812.01" fill="none" stroke="#2e2d75" stroke-miterlimit="10" stroke-width="2"/><line x1="583.14" y1="862.67" x2="583.14" y2="850.9" fill="none" stroke="#2e2d75" stroke-miterlimit="10" stroke-width="2"/><line x1="617.05" y1="854.48" x2="617.05" y2="842.71" fill="none" stroke="#2e2d75" stroke-miterlimit="10" stroke-width="2"/><line x1="627.79" y1="852.95" x2="589.03" y2="852.95" fill="none" stroke="#2e2d75" stroke-miterlimit="10" stroke-width="2"/><line x1="610.39" y1="858.71" x2="571.63" y2="858.71" fill="none" stroke="#2e2d75" stroke-miterlimit="10" stroke-width="2"/><line x1="600.16" y1="847.45" x2="561.4" y2="847.45" fill="none" stroke="#2e2d75" stroke-miterlimit="10" stroke-width="2"/><polygon points="1571.5 1 1571.5 43.79 1676.38 43.79 1865.59 233 1865.59 1 1571.5 1" fill="none" stroke="#2e2d75" stroke-miterlimit="10" stroke-width="2"/><path d="M1840.94,208.13s4.9-70.56-22.86-126.08" fill="none" stroke="#2e2d75" stroke-miterlimit="10" stroke-width="2"/><path d="M1802,49.91s-31,76.7,37.84,115.3C1839.85,165.21,1901.36,103.48,1802,49.91Z" fill="none" stroke="#2e2d75" stroke-miterlimit="10" stroke-width="2"/><path d="M1748.13,115.32a77.46,77.46,0,0,1,1.22-11c2-11.38,7.18-29.77,20.81-46.11" fill="none" stroke="#2e2d75" stroke-miterlimit="10" stroke-width="2"/><path d="M1749.06,106.13s-37.64-68.35,46.7-85.6C1795.76,20.53,1807.26,94.41,1749.06,106.13Z" fill="#302d77" stroke="#2e2d75" stroke-miterlimit="10" stroke-width="2"/><path d="M1749.71,106.71c0-.32,4.29-32.8,18.09-47l-1-1c-14.14,14.59-18.24,46.24-18.41,47.57l.36.6Z" fill="#fff"/><line x1="1731.39" y1="9.77" x2="1731.39" y2="65.04" fill="none" stroke="#2e2d75" stroke-miterlimit="10" stroke-width="2"/><polyline points="1774.4 1011.44 2472.44 1011.44 2469.79 736.03 2696.12 736.03 2696 934.5 3316 934.5" fill="none" stroke="#2e2d75" stroke-miterlimit="10" stroke-width="2"/><path d="M1262.28,833s21.89,47.84,102,28.84v14.7s-61.06,23.92-105.43-8.16" fill="none" stroke="#2e2d75" stroke-miterlimit="10" stroke-width="2"/><path d="M1276.2,878l1.58,41.74-64.65-10s4-84.78,20.35-86,33.66,2.28,35.14,9.3a69.92,69.92,0,0,0,5.45,14.71" fill="none" stroke="#2e2d75" stroke-miterlimit="10" stroke-width="2"/><path d="M1229.44,825.83l-33.75,23.76a68.14,68.14,0,0,0-21.66,24.9l-14.57,28.61,10,4.87,20.24-24.89a65.94,65.94,0,0,1,25.79-19.28l2.35-1" fill="none" stroke="#2e2d75" stroke-miterlimit="10" stroke-width="2"/><path d="M1249.06,966.61l-11.31,30.31a26.5,26.5,0,0,1-1.78,3.91L1205,1056l-16.87-4.57,20.76-64.9a25.71,25.71,0,0,0,1.2-8.71c-.5-14.14-1.63-58,3-68.11l64.65,10s17.7,63.23,18.09,79.92-30.8,58.3-30.8,58.3l-14.43-1.92s18.2-52.56,16.85-60.53-34-49.22-34-49.22" fill="#302d77" stroke="#2e2d75" stroke-miterlimit="10" stroke-width="2"/><rect x="1373.19" y="860.03" width="4.76" height="16.6" transform="translate(1631.71 -738.09) rotate(66.8)" fill="#302d77" stroke="#2e2d75" stroke-miterlimit="10" stroke-width="2"/><path d="M1413.31,851.41c3.41,7.77-2.57,18-10.35,21.4a15.38,15.38,0,0,1-12.36-28.17C1398.38,841.23,1409.9,843.63,1413.31,851.41Z" fill="#fff" stroke="#2e2d75" stroke-miterlimit="10" stroke-width="2"/><circle cx="758.27" cy="227" r="159.97" fill="none" stroke="#2d2f75" stroke-miterlimit="10" stroke-width="2"/><line x1="572.41" y1="397.57" x2="1046.33" y2="397.57" fill="none" stroke="#2d2f75" stroke-miterlimit="10" stroke-width="2"/><polyline points="984.92 571.38 984.92 480.56 1046.05 419.42" fill="none" stroke="#2d2f75" stroke-miterlimit="10" stroke-width="2"/><line x1="632" y1="573" x2="631.85" y2="520.67" fill="none" stroke="#2d2f75" stroke-miterlimit="10" stroke-width="2"/><circle cx="936.15" cy="507.76" r="19.36" fill="none" stroke="#2d2f75" stroke-miterlimit="10" stroke-width="2"/><circle cx="880.83" cy="507.76" r="19.36" fill="none" stroke="#2d2f75" stroke-miterlimit="10" stroke-width="2"/><line x1="969.34" y1="415.55" x2="796.92" y2="415.55" fill="none" stroke="#2d2f75" stroke-miterlimit="10" stroke-width="2"/><line x1="576.56" y1="419.24" x2="620.35" y2="463.04" fill="#2d2f75" stroke="#2d2f75" stroke-miterlimit="10" stroke-width="2"/><rect x="895.58" y="325.19" width="11.06" height="55.32" fill="#fff" stroke="#2d2f75" stroke-miterlimit="10" stroke-width="2"/><polygon points="1038.13 397.49 1038.13 249.59 1004.38 235.76 948.14 311.36 902.03 311.36 902.03 397.11 1038.13 397.49" fill="#2d2f75" stroke="#2d2f75" stroke-miterlimit="10" stroke-width="2"/><circle cx="925.09" cy="334.41" r="7.38" fill="#fff" stroke="#2d2f75" stroke-miterlimit="10" stroke-width="2"/><circle cx="925.09" cy="354.7" r="7.38" fill="#fff" stroke="#2d2f75" stroke-miterlimit="10" stroke-width="2"/><rect x="606.98" y="354.7" width="23.97" height="29.51" fill="#fff" stroke="#2d2f75" stroke-miterlimit="10" stroke-width="2"/><polygon points="630.96 373.14 665.99 373.14 670.6 369.45 665.99 365.76 630.96 365.76 630.96 373.14" fill="#fff" stroke="#2d2f75" stroke-miterlimit="10" stroke-width="2"/><polygon points="580.07 397.57 580.07 340.87 614.36 340.87 636.34 397.57 580.07 397.57" fill="#2d2f75" stroke="#2d2f75" stroke-miterlimit="10" stroke-width="2"/><path d="M1019.11,241.79s11.09-84.41,62.72-87.17S1151,7,1151,7" fill="none" stroke="#2d2f75" stroke-miterlimit="10" stroke-width="2"/><path d="M1011.13,238.52s20-61.77,79.92-64.54S1272,7,1272,7" fill="none" stroke="#2d2f75" stroke-miterlimit="10" stroke-width="2"/><path d="M854.78,368S862,387,862,397l-64,.57L801,375l16-12Z" fill="#2d2f75" stroke="#2d2f75" stroke-linejoin="bevel" stroke-width="2"/><path d="M822,267l-5.54,2.56a8,8,0,0,1-10.66-4.13L798,247l17-7,6,2,2,8-1,3,9,21s-7,23-16,1l3-6" fill="#fff" stroke="#2d2f75" stroke-linejoin="bevel" stroke-width="2"/><path d="M814.5,274.5s1,10,9,9,7-9,7-9S846,277,848,277s37-21-18-42l6-12s51,15,43,47c-2.94,11.76-6.24,21-15.73,28.54-1.77,1.41-4.34,7.2-5.27,9.46-5.89,14.38-4.6,37.21-2,58,0,0-10,18-25,18s-27-5-30-9-7-55-7-55l-8,27H766.08S783,302,786,292,807,276,814.5,274.5Z" fill="#fff" stroke="#2d2f75" stroke-linejoin="bevel" stroke-width="2"/><line x1="822" y1="253" x2="831" y2="275" fill="#fff" stroke="#2d2f75" stroke-linejoin="bevel" stroke-width="2"/><path d="M805,247a61.35,61.35,0,0,1-7,2c-1,0-4,1-5-2s-3-7,2-11,3-7,11-6,15,4,18,7,5,10,6,10-3,10-3,12a10.34,10.34,0,0,0,1,4l-4-6c-2-3-5-14-6-13a5.88,5.88,0,0,0-2,5c0,3-1,6-2,3s-1-4-4-5Z" fill="#2d2f75" stroke="#2d2f75" stroke-linejoin="bevel" stroke-width="2"/><path d="M835,224h-9l-9,7,2,1,8.36-2.79L828,229s-1,3-2,3h-1s-1,0,1,1,5,0,5,0Z" fill="#fff" stroke="#2d2f75" stroke-linejoin="bevel" stroke-width="2"/><path d="M703.19,379.19a66,66,0,0,1,4.71,18.38H645.08s-.48-15.88,3.22-20.72S665,369,665,369l34.79,3.08Z" fill="#2d2f75" stroke="#2d2f75" stroke-linejoin="bevel" stroke-width="2"/><path d="M645.08,324.49,648,302l18-2,26,11a26.89,26.89,0,0,1,3,18c-2,10,10,41,10,41s5,8-6,11-39,3-44,0-8-5-8-5,.15-33-1.92-51.51" fill="#fff" stroke="#2d2f75" stroke-linejoin="bevel" stroke-width="2"/><path d="M664,316l5,27,16,30-10,7-24-34-11-37s-3-28,25-30,40,17,40,17l16,30,28.78,20-9,10L708,337l-13-13" fill="#fff" stroke="#2d2f75" stroke-linejoin="bevel" stroke-width="2"/><path d="M676.29,279.35S685,288,677,290s-12.8-10.65-12.8-10.65S666.57,278.7,676.29,279.35Z" fill="#fff" stroke="#2d2f75" stroke-linejoin="bevel" stroke-width="2"/><path d="M683.75,373.88S691,375,691,376s-4,2-4,2-2-1,1,2,10,8,4,8-6,1-9-1-6.52-8-6.52-8Z" fill="#fff" stroke="#2d2f75" stroke-linejoin="bevel" stroke-width="2"/><line x1="694.17" y1="315.99" x2="696" y2="326" fill="#fff" stroke="#2d2f75" stroke-linejoin="bevel" stroke-width="2"/><path d="M678,273v8s6,8-1,9-14-11-14-12V268l5-10,9-6,7-2,6,1,.56,2.29.44-1" fill="#fff" stroke="#2d2f75" stroke-linejoin="bevel" stroke-width="2"/><path d="M670,272l8.41,1.2a6.66,6.66,0,0,0,7.3-4.58L691,252" fill="#fff" stroke="#2d2f75" stroke-linejoin="bevel" stroke-width="2"/><line x1="664" y1="279" x2="666" y2="271" fill="#fff" stroke="#2d2f75" stroke-linejoin="bevel" stroke-width="2"/><path d="M684,251a39.18,39.18,0,0,1-9,8c-6,4-6,5-7,9s-6,11-6,11l-12.71,5.53S658,260,658,252s7.36-25.21,26-19c24,8,5,24,5,24S693,250,684,251Z" fill="#2d2f75" stroke="#2d2f75" stroke-linejoin="bevel" stroke-width="2"/><rect x="742.38" y="347" width="50.17" height="50.17" fill="#2d2f75" stroke="#2d2f75" stroke-miterlimit="10" stroke-width="2"/><path d="M786.28,355.78s-1.25,10-15,18.81-16.3,17.56-17.56,18.82" fill="none" stroke="#fff" stroke-miterlimit="10"/><path d="M780.64,353.9s-11.29,16.3-21.32,13.8-7.53-13.8-7.53-13.8" fill="none" stroke="#fff" stroke-miterlimit="10"/><path d="M748,369a38,38,0,0,0,8.78,6.27c5,2.51-8.78,15-8.78,15" fill="none" stroke="#fff" stroke-miterlimit="10"/><path d="M761.82,391.53s10-12.55,20.07-10" fill="none" stroke="#fff" stroke-miterlimit="10"/><path d="M560.29,1019.57C550.23,980.44,531.81,929.25,500,898" fill="none" stroke="#2d2f75" stroke-miterlimit="10" stroke-width="2"/><path d="M571,1074a452.32,452.32,0,0,0-10.71-54.43" fill="none" stroke="#2d2f75" stroke-miterlimit="10" stroke-width="2"/><path d="M560,1018.36S479,998,469,869C469,869,599,897.73,560,1018.36Z" fill="#2e2d75"/><path d="M559.05,1018.33c-.26-.78-27.21-78-52.71-100.58l1.32-1.5c25.9,22.91,52.18,98.23,53.29,101.42Z" fill="#fff"/><path d="M1365.28,864.73s10.65-3.55,11.53,0,1.78,4.43,0,4.43,0,.89-1.77,0,0-3.54-1.77-1.77-2.67,2.66-2.67,3.55,1,.74,1,1.7,4.37-.82,3.48.07-.89,3.55-3.55,3.55-3.55.89-4.43,0a4.37,4.37,0,0,0-2.66-.89l-.17-10.49Z" fill="#fff" stroke="#2e2d75" stroke-miterlimit="10" stroke-width="2"/><path d="M1168,907.27c.35,3.58,1.24,3.58.35,5.36s-.89,3.54-1.78,1.77a10.89,10.89,0,0,0-1.77-2.66,2.72,2.72,0,0,0-1.77.89c-.89.88-1.78-.89-1.78,2.66s0,3.55-.89,3.55-1.77-.89-2.66-1.78-1.77-5.32-1.77-5.32l4-8.38Z" fill="#fff" stroke="#2e2d75" stroke-miterlimit="10" stroke-width="2"/><rect x="1801.63" y="937.01" width="4.76" height="16.6" transform="translate(3834.36 785.02) rotate(147.83)" fill="#302d77" stroke="#2e2d75" stroke-miterlimit="10" stroke-width="2"/><path d="M1826.61,980c-7.15,4.58-18.17.26-22.75-6.89a15.37,15.37,0,1,1,25.89-16.59C1834.33,963.62,1833.76,975.37,1826.61,980Z" fill="#fff" stroke="#2e2d75" stroke-miterlimit="10" stroke-width="2"/><path d="M1716.22,892.69c-36.52,11.6-104,3.23-104,3.23l3.15-14.81c46.16-.49,99.15-20.18,99.15-20.18s13.56-4,17.66,7.07" fill="none" stroke="#2e2d75" stroke-miterlimit="10" stroke-width="2"/><path d="M1695,867.26s17.19-16.25,29.33-11.71,23.57,7.56,21,31.56-7.6,36.17-3.1,44.09,4.72,14.13,4.72,14.13-32,20.1-63.38,7.7c0,0,8.72-28.95,4.68-54.19" fill="none" stroke="#2e2d75" stroke-miterlimit="10" stroke-width="2"/><path d="M1732.24,858.62s54.62,19.14,66.42,67l-9.27,8.35s-22.49-38.06-44.73-41.29" fill="none" stroke="#2e2d75" stroke-miterlimit="10" stroke-width="2"/><path d="M1708.48,971.26l35.56,54.42a20.77,20.77,0,0,0,7.6,6.94l52.36,27.81,15.12-9.26-48.7-41.52a20.69,20.69,0,0,1-5.22-6.77L1752.28,976a8.79,8.79,0,0,1-.88-4.25c.18-4,0-13.6-4.45-26.4" fill="none" stroke="#2e2d75" stroke-miterlimit="10" stroke-width="2"/><path d="M1686.87,954.21l-26.76,33.72a23.89,23.89,0,0,0-5.18,14.86v55.3l20.49,2.34s5.6-49.46,8.15-50.68,30.9-29.32,30.9-29.32" fill="none" stroke="#2e2d75" stroke-miterlimit="10" stroke-width="2"/><line x1="1726.43" y1="855.91" x2="1728.95" y2="846.1" fill="#302d77" stroke="#2e2d75" stroke-miterlimit="10" stroke-width="2"/><line x1="1711.92" y1="856.42" x2="1711.66" y2="845.66" fill="#302d77" stroke="#2e2d75" stroke-miterlimit="10" stroke-width="2"/><path d="M1718.31,846.1l-8-.5a6,6,0,0,1-5.57-6.55l2-20.45" fill="none" stroke="#2d2f75" stroke-miterlimit="10" stroke-width="2"/><path d="M1704.12,814.17s.89,4.43,4.43,6.21a14.72,14.72,0,0,1,5.33,4.43c.88.89,2.66-.88,3.54,2.66s.89,8,1.78,8.87,2.66-4.43,3.55-4.43,1.77-6.21,1.77,0,2.66,8.87,3.55,11.53-2.66,1.77.88,2.66,9.76.89,11.54,1.78,13.3,10.64,8.87,3.54-6.21-7.09-7.1-10.64-5.32-.89-1.77-6.21,8.87-1.77,5.32-8,6.21-.89-3.55-9.76-12.42-10.64-12.42-10.64-3.55-2.66-7.09-1.78-2.67,1.78-8,2.66S1702.34,808,1704.12,814.17Z" fill="#302d77" stroke="#2e2d75" stroke-miterlimit="10" stroke-width="2"/><path d="M1799.91,938.35s-4.43-.89-.88,1.77,8.87,1.78,5.32,3.55-2.66,2.66-4.44,1.78-2.66,0-4.43-1.78-3.55-1.77-3.55-3.55-2-6.14-2-6.14l9.06-7.16,7.09,9.76s3.55,5.32,3.55,6.2a9,9,0,0,1-.89,2.67l-4.43-5.33s-2.31-2.19-2-2S1799.91,938.35,1799.91,938.35Z" fill="#fff" stroke="#2e2d75" stroke-miterlimit="10" stroke-width="2"/><path d="M1614.86,883.26c-1.22-.79-7.43-8.77-8.31-5.23s0,4.44,0,4.44a15.49,15.49,0,0,1-4.44-.89c-2.66-.89-6.21-6.21-6.21-.89s-1.77,8.87,1.78,10.65,14.91,2.61,14.91,2.61Z" fill="#fff" stroke="#2e2d75" stroke-miterlimit="10" stroke-width="2"/><path d="M1658,1060.76l16,1.77s4.44,6.21,2.66,10.64-.89.89-.89.89l-2.42,1.69h-30a4.19,4.19,0,0,1,2.24-5.24C1649.12,1068.74,1657.11,1065.19,1658,1060.76Z" fill="#302d77" stroke="#2e2d75" stroke-miterlimit="10" stroke-width="2"/><path d="M1807.9,1060.76l11.53-7.1s5.32,0,7.09,7.1l-12.41,11.53s-8.87,2.66-12.42,2.66-1.78-4.44,0-5.32S1807.9,1063.42,1807.9,1060.76Z" fill="#302d77" stroke="#2e2d75" stroke-miterlimit="10" stroke-width="2"/><path d="M1188.84,1054.31l13,3.19s3.55,8.41,6.89,10.56,4.13,4.89,3,6.56-17.63-1.9-17.63-1.9l-8.44-6.25S1181.91,1060.7,1188.84,1054.31Z" fill="#fff" stroke="#2e2d75" stroke-miterlimit="10" stroke-width="2"/><path d="M1237.55,823l4.44-4.44s12.42,0,16.85,2.67l1,4.86S1242,822.15,1237.55,823Z" fill="#fff" stroke="#2e2d75" stroke-miterlimit="10" stroke-width="2"/><line x1="1255.79" y1="820.07" x2="1257.96" y2="814.17" fill="#fff" stroke="#2e2d75" stroke-miterlimit="10" stroke-width="2"/><line x1="1244.39" y1="818.66" x2="1245.54" y2="812.4" fill="#fff" stroke="#2e2d75" stroke-miterlimit="10" stroke-width="2"/><path d="M1251.75,813.28l5.23,1.31a6.18,6.18,0,0,0,7.31-3.88l5.2-14.28" fill="#fff" stroke="#2e2d75" stroke-miterlimit="10" stroke-width="2"/><path d="M1273,795.54c-2.66.89-1.77-.88-5.32.89s-4.43,1.77-5.32,3.55-6.21,3.55-6.21,3.55,1.78-.89.89-3.55.89-6.21-2.66-2.66-6.21,2.66-4.44,6.21,1.78,4.43.89,6.2,0,2.67-1.77,2.67,0,2.66-4.44,0-3.55-2.67-4.43-5.33-1.78-1.77-.89-7.09.89-8.87,1.77-11.53,2.66-3.55,8-4.44,4.43-.89,8.87-1.77,4.43-1.78,8.87.88,6.2,4.44,8,8S1273,795.54,1273,795.54Z" fill="#302d77" stroke="#2e2d75" stroke-miterlimit="10" stroke-width="2"/><circle cx="2039.02" cy="816.18" r="170.02" fill="#2f2f77" stroke="#2e2d75" stroke-miterlimit="10" stroke-width="2"/><path d="M849,284s0,10,12,15" fill="#fff" stroke="#2d2f75" stroke-linejoin="bevel" stroke-width="2"/><line x1="794" y1="320" x2="794" y2="309" fill="#fff" stroke="#2d2f75" stroke-linejoin="bevel" stroke-width="2"/><path d="M826,376s-7-40-8-60" fill="#fff" stroke="#2d2f75" stroke-linejoin="bevel" stroke-width="2"/><rect x="629.15" y="1052.27" width="102.94" height="14.26" rx="6.98" fill="#302d77" stroke="#2e2d75" stroke-miterlimit="10" stroke-width="2"/><rect x="629.15" y="960.72" width="102.94" height="14.26" rx="6.98" fill="#302d77" stroke="#2e2d75" stroke-miterlimit="10" stroke-width="2"/><path d="M725,975s-16.77,26.73,0,77.29" fill="none" stroke="#2d2f75" stroke-miterlimit="10" stroke-width="2"/><path d="M636.6,975s16.77,26.73,0,77.29" fill="none" stroke="#2d2f75" stroke-miterlimit="10" stroke-width="2"/><line x1="714.69" y1="979.27" x2="674.38" y2="1048.3" fill="none" stroke="#2d2f75" stroke-miterlimit="10" stroke-width="2"/><line x1="701.87" y1="979.27" x2="674.38" y2="1026" fill="none" stroke="#2d2f75" stroke-miterlimit="10" stroke-width="2"/><path d="M636.28,960.72s44.36-19.62,88.68,0" fill="none" stroke="#2d2f75" stroke-miterlimit="10" stroke-width="2"/></svg>