<svg xmlns="http://www.w3.org/2000/svg" viewBox="0 0 1920 1080"><title>illustration-final</title><polyline points="923.62 497.13 923.62 512.44 834.76 512.44" fill="none" stroke="#2e2d75" stroke-miterlimit="10" stroke-width="2"/><polyline points="264.29 354.86 264.29 184.91 923.62 184.91 923.62 497.13" fill="none" stroke="#2e2d75" stroke-miterlimit="10" stroke-width="2"/><polyline points="377.48 402.76 377.48 224.34 611.52 224.34 611.52 512.44 377.48 512.44 377.48 414.39" fill="none" stroke="#2e2d75" stroke-miterlimit="10" stroke-width="2"/><polyline points="377.48 415.45 417.32 415.45 417.32 396.3 377.48 396.3 377.48 403.92" fill="none" stroke="#2e2d75" stroke-miterlimit="10" stroke-width="2"/><text transform="translate(458.95 334.75)" font-size="15" fill="#302d77" font-family="AvenirLTStd-Medium, Avenir LT Std" font-weight="500">life<tspan x="0" y="19">th</tspan><tspan x="13.89" y="19" letter-spacing="-0.02em">r</tspan><tspan x="19.17" y="19" letter-spacing="0em">ough</tspan><tspan x="0" y="38">design</tspan></text><path d="M788.86,512.44S802,245,554.1,130.32" fill="none" stroke="#2e2d75" stroke-miterlimit="10" stroke-width="2"/><path d="M821.28,140.36S820.06,170,852,168.69C852,168.69,853.9,139,821.28,140.36Z" fill="none" stroke="#2e2d75" stroke-miterlimit="10" stroke-width="2"/><path d="M803.6,512.44s-1.09-266.38,90.63-431.26" fill="none" stroke="#2e2d75" stroke-miterlimit="10" stroke-width="2"/><path d="M846.89,81.18s-5.64,29.13,26.17,32.61C873.06,113.79,879.35,84.74,846.89,81.18Z" fill="none" stroke="#2e2d75" stroke-miterlimit="10" stroke-width="2"/><path d="M799.19,208.9s2.75,29.54,34.25,24C833.44,232.88,831.34,203.23,799.19,208.9Z" fill="#302d77" stroke="#2e2d75" stroke-miterlimit="10" stroke-width="2"/><path d="M849.91,204.06S871,225,891.58,200.49C891.58,200.49,871,179.08,849.91,204.06Z" fill="none" stroke="#2e2d75" stroke-miterlimit="10" stroke-width="2"/><path d="M871.74,140.3s21,20.9,41.67-3.57C913.41,136.73,892.78,115.32,871.74,140.3Z" fill="#302d77" stroke="#2e2d75" stroke-miterlimit="10" stroke-width="2"/><path d="M26.57,1082.64A811.49,811.49,0,0,1-14.95,849" fill="none" stroke="#2e2d75" stroke-miterlimit="10" stroke-width="2"/><path d="M-1,953.18s25.31,8.91,32.66-19.09C31.67,934.09,6.51,924.6-1,953.18Z" fill="none" stroke="#2e2d75" stroke-miterlimit="10" stroke-width="2"/><path d="M-7.9,892.61s25.31,8.91,32.66-19.08C24.76,873.53-.4,864-7.9,892.61Z" fill="#302d77" stroke="#2e2d75" stroke-miterlimit="10" stroke-width="2"/><path d="M581.93,140.32S601.6,118.11,576,98.93C576,98.93,555.79,120.74,581.93,140.32Z" fill="#302d77" stroke="#2e2d75" stroke-miterlimit="10" stroke-width="2"/><path d="M642,179.89s24.7-16.43,4.86-41.53C646.83,138.36,621.72,154.27,642,179.89Z" fill="none" stroke="#2e2d75" stroke-miterlimit="10" stroke-width="2"/><path d="M698.79,236.34s27.52-11.09,13.17-39.69C712,196.65,684.15,207.15,698.79,236.34Z" fill="none" stroke="#2e2d75" stroke-miterlimit="10" stroke-width="2"/><path d="M664.76,212s-23.48-18.14-40.9,8.7C623.86,220.73,647,239.42,664.76,212Z" fill="#302d77" stroke="#2e2d75" stroke-miterlimit="10" stroke-width="2"/><path d="M883.39,500.06s-7.81,1.15-5.89,9.44C877.5,509.5,885.35,508.53,883.39,500.06Z" fill="#302d77" stroke="#2e2d75" stroke-miterlimit="10" stroke-width="2"/><path d="M867.86,500.5s-1.86,7.67,6.55,9C874.41,509.5,876.45,501.86,867.86,500.5Z" fill="none" stroke="#2e2d75" stroke-miterlimit="10" stroke-width="2"/><path d="M1442.47,642.3s-7.82,1.14-5.9,9.44C1436.57,651.74,1444.43,650.76,1442.47,642.3Z" fill="#302d77" stroke="#2e2d75" stroke-miterlimit="10" stroke-width="2"/><path d="M1426.94,642.74s-1.87,7.67,6.54,9C1433.48,651.74,1435.52,644.1,1426.94,642.74Z" fill="none" stroke="#2e2d75" stroke-miterlimit="10" stroke-width="2"/><path d="M1548.12,962.93s-7.81,1.14-5.89,9.44C1542.23,972.37,1550.08,971.39,1548.12,962.93Z" fill="#302d77" stroke="#2e2d75" stroke-miterlimit="10" stroke-width="2"/><path d="M1532.59,963.37s-1.86,7.67,6.54,9C1539.13,972.37,1541.18,964.72,1532.59,963.37Z" fill="none" stroke="#2e2d75" stroke-miterlimit="10" stroke-width="2"/><path d="M494.11,757.12s-7.81,1.14-5.89,9.44C488.22,766.56,496.07,765.59,494.11,757.12Z" fill="#302d77" stroke="#2e2d75" stroke-miterlimit="10" stroke-width="2"/><path d="M478.58,757.56s-1.86,7.67,6.55,9C485.13,766.56,487.17,758.92,478.58,757.56Z" fill="none" stroke="#2e2d75" stroke-miterlimit="10" stroke-width="2"/><path d="M607.46,164.63s-26.14-14-38.91,15.3C568.55,179.93,594.42,194.57,607.46,164.63Z" fill="none" stroke="#2e2d75" stroke-miterlimit="10" stroke-width="2"/><path d="M84.85,163.9C146.55,117.15,232.43,79,345.69,85.25" fill="none" stroke="#2e2d75" stroke-miterlimit="10" stroke-width="2"/><path d="M316.42,81s-6.95-28.84,24.67-33.77C341.09,47.26,348.69,76,316.42,81Z" fill="none" stroke="#2e2d75" stroke-miterlimit="10" stroke-width="2"/><path d="M244.83,87.8s-14.1-26.1,15.2-39C260,48.84,274.74,74.68,244.83,87.8Z" fill="none" stroke="#2e2d75" stroke-miterlimit="10" stroke-width="2"/><path d="M168.17,111s-19.1-22.7,7-41.23C175.16,69.75,194.8,92.07,168.17,111Z" fill="#302d77" stroke="#2e2d75" stroke-miterlimit="10" stroke-width="2"/><path d="M209.63,105.48s29.24-5,32,26.88C241.66,132.36,212.48,138,209.63,105.48Z" fill="none" stroke="#2e2d75" stroke-miterlimit="10" stroke-width="2"/><path d="M282.47,90.52s29.67-.13,27.18,31.77C309.65,122.29,279.93,123.07,282.47,90.52Z" fill="#302d77" stroke="#2e2d75" stroke-miterlimit="10" stroke-width="2"/><line x1="410.73" y1="48.84" x2="795.31" y2="48.84" fill="none" stroke="#2e2d75" stroke-miterlimit="10" stroke-width="2"/><line x1="342.18" y1="130.32" x2="509.1" y2="130.32" fill="none" stroke="#2e2d75" stroke-miterlimit="10" stroke-width="2"/><line x1="263.99" y1="849.69" x2="263.99" y2="381.87" fill="none" stroke="#2e2d75" stroke-miterlimit="10" stroke-width="2"/><rect x="598.67" y="224.34" width="12.85" height="288.1" fill="#302d77" stroke="#2e2d75" stroke-miterlimit="10" stroke-width="2"/><path d="M287.14,395.72s-6.67,5.81-3.22,28c0,0,1.07,11.19.21,15.06" fill="none" stroke="#2e2d75" stroke-miterlimit="10" stroke-width="2"/><line x1="303.75" y1="432.62" x2="300.48" y2="447.58" fill="none" stroke="#2e2d75" stroke-miterlimit="10" stroke-width="2"/><path d="M303.75,449.52l-23.71-14-3.66,8.8s15.28,12.27,30.34,18.08C306.72,462.43,304,453.18,303.75,449.52Z" fill="none" stroke="#2e2d75" stroke-miterlimit="10" stroke-width="2"/><path d="M319.59,500.44c-1.93-14.7-5.76-28.68-12.87-38" fill="none" stroke="#2e2d75" stroke-linejoin="round" stroke-width="2"/><path d="M278.31,445.83s-18.56,30.43-10,75.3c7.29,38.1,3.18,66.9,3.18,66.9l60.16-6.56s-9.86-35.07-10.53-59" fill="none" stroke="#2e2d75" stroke-linejoin="round" stroke-width="2"/><path d="M322.82,583.1,360,749.79h-31.4l-45.7-126.42s-6.53-18.11-7.3-35.34" fill="none" stroke="#2e2d75" stroke-linejoin="round" stroke-width="2"/><line x1="343.7" y1="746.44" x2="307.73" y2="622.12" fill="none" stroke="#2e2d75" stroke-linejoin="round" stroke-width="2"/><path d="M324.44,582.26l39.91,56.81a6,6,0,0,1-1.17,7.77l-22,18.71" fill="none" stroke="#2e2d75" stroke-linejoin="round" stroke-width="2"/><polyline points="306.72 689.19 285.04 705 285.04 663.14 294.63 655.75" fill="none" stroke="#2e2d75" stroke-miterlimit="10" stroke-width="2"/><path d="M279.06,665.55v24.38l-7.18,21.52a5.25,5.25,0,0,1-5,3.6H264v-49.5A19.38,19.38,0,0,1,279.06,665.55Z" fill="none" stroke="#2e2d75" stroke-miterlimit="10" stroke-width="2"/><path d="M333.25,755.35h24.38l21.53,7.18a5.25,5.25,0,0,1,3.59,5v2.91h-49.5A19.38,19.38,0,0,1,333.25,755.35Z" fill="none" stroke="#2e2d75" stroke-miterlimit="10" stroke-width="2"/><polygon points="279.06 667.15 285.04 665.55 285.04 683.36 279.06 686.87 279.06 667.15" fill="#302d77" stroke="#2e2d75" stroke-miterlimit="10" stroke-width="2"/><polygon points="333.58 749.79 334.65 755.35 354.39 755.35 352.97 749.79 333.58 749.79" fill="#302d77" stroke="#2e2d75" stroke-miterlimit="10" stroke-width="2"/><path d="M309.19,496l-29,13.34L273.06,482a15.7,15.7,0,0,1,11.21-19.17h0A15.7,15.7,0,0,1,303.44,474Z" fill="none" stroke="#2e2d75" stroke-linejoin="round" stroke-width="2"/><path d="M306.72,497.09a41,41,0,0,1,1,9.81" fill="none" stroke="#2e2d75" stroke-linejoin="round" stroke-width="2"/><path d="M302.12,512.77S315,504,328.69,496.26c5.51-2,5.87.83,5.87.83s3.67,7.61,2.39,9.81-21.78,23.3-34.83,28.26-20-26.73-20-26.73" fill="none" stroke="#2e2d75" stroke-linejoin="round" stroke-width="2"/><path d="M290.87,419.26l1.87,6.55a7.41,7.41,0,0,0,5.06,5.08l15.55,4.51a3.74,3.74,0,0,0,4.68-2.69l6.56-26.57" fill="none" stroke="#2e2d75" stroke-miterlimit="10" stroke-width="2"/><path d="M287.14,396.67,323.5,407.2l-6,24.51s-.41,3.82-3.94,2.92-9.55-2.39-9.55-2.39L300,446.45,285,437.55s-.75-14.5-.93-16.29S281.58,404.19,287.14,396.67Z" fill="#302d77"/><path d="M331.68,495.54s3.3-8.54,9.37-4.37,7.22,23.4-6.11,18.12" fill="none" stroke="#2e2d75" stroke-linejoin="round" stroke-width="2"/><polygon points="282.72 509.29 306.13 498.13 307.25 503.71 307.25 507.66 324 500 331.22 495.54 337.22 489.58 344.21 494.1 345.91 503.46 342.6 509.75 334.53 510.2 321.18 523.55 303.06 535.34 296.44 535.68 290.87 529.28 284.66 518.95 282.72 509.29" fill="#302d77"/><path d="M318,410c-6,1-9,0-11-1s-2-4-4-2-3,6-3,8,0,3-1,2-1-4-2-6,1-2-1-2-3,0-4,3-1,3-1,5,0,4-2,5-1-1-3,1-2,3-3,0,0-3-1-6,0-4-1-8a24.85,24.85,0,0,1-1-8c0-3,2-8,3-8s6-3,8-3,7,0,8-1,0,0,5,0,6,1,10,2,6,1,7,2l4,4a5.2,5.2,0,0,1,2,4v6l-3.5,3.53Z" fill="#fff" stroke="#2e2d75" stroke-miterlimit="10" stroke-width="2"/><path d="M770.55,404.78h-77.9l-.3-.39a80.15,80.15,0,0,1,26.11-119.1l1.23,1.6A78.55,78.55,0,0,0,678.08,356a77.37,77.37,0,0,0,15.57,46.8H770Z" fill="#2e2d75"/><path d="M756.19,436.09a79.44,79.44,0,0,1-58.14-25l-1.6-1.69h75.64l.64,2H701.15a78.25,78.25,0,0,0,75,20.11l.51,1.94A80.27,80.27,0,0,1,756.19,436.09Z" fill="#2e2d75"/><polygon points="762.57 370.4 744.4 352.24 752.92 343.72 753.79 345.68 747.23 352.24 760.85 365.86 762.57 370.4" fill="#2e2d75"/><line x1="877.19" y1="760.01" x2="927.53" y2="760.01" fill="none" stroke="#2e2d75" stroke-miterlimit="10" stroke-width="2"/><path d="M1254.87,760h61.44a54.75,54.75,0,0,1,54.75,54.75h0a54.75,54.75,0,0,1-54.75,54.75H827.73A54.75,54.75,0,0,1,773,814.76h0A54.75,54.75,0,0,1,827.73,760h23.49" fill="none" stroke="#2e2d75" stroke-miterlimit="10" stroke-width="2"/><line x1="1017.45" y1="760.01" x2="1120" y2="760.01" fill="none" stroke="#2e2d75" stroke-miterlimit="10" stroke-width="2"/><polyline points="849.49 847.69 849.49 869.51 834.15 884.84 825.25 884.81 840.54 869.51 840.54 807.05" fill="none" stroke="#2e2d75" stroke-miterlimit="10" stroke-width="2"/><polyline points="1298.06 847.69 1298.06 869.51 1313.29 884.74 1322.19 884.7 1307 869.51" fill="none" stroke="#2e2d75" stroke-miterlimit="10" stroke-width="2"/><polyline points="366.52 770.42 576.55 770.42 773.99 884.84 905.45 884.84 1507.66 884.84 1507.66 975.58" fill="none" stroke="#2e2d75" stroke-miterlimit="10" stroke-width="2"/><line x1="590.71" y1="512.44" x2="634.7" y2="512.44" fill="none" stroke="#2e2d75" stroke-miterlimit="10" stroke-width="2"/><line x1="917.96" y1="512.44" x2="951.6" y2="512.44" fill="none" stroke="#2e2d75" stroke-miterlimit="10" stroke-width="2"/><line x1="1615" y1="512" x2="1718.1" y2="512.44" fill="none" stroke="#2e2d75" stroke-miterlimit="10" stroke-width="2"/><polyline points="1455.06 -2.03 1455.06 318.39 1665.98 318.39 1665.98 340.55 1691.62 340.55 1691.62 361.53 1716.82 361.53 1716.82 894.19" fill="none" stroke="#2e2d75" stroke-miterlimit="10" stroke-width="2"/><line x1="1307.82" y1="654.32" x2="1475.74" y2="654.32" fill="none" stroke="#2e2d75" stroke-miterlimit="10" stroke-width="2"/><line x1="1466.91" y1="636.87" x2="1699.53" y2="636.87" fill="none" stroke="#2e2d75" stroke-miterlimit="10" stroke-width="2"/><line x1="365.28" y1="512.44" x2="409.27" y2="512.44" fill="none" stroke="#2e2d75" stroke-miterlimit="10" stroke-width="2"/><path d="M902.21,603.71h29.1a0,0,0,0,1,0,0v14.55a14.55,14.55,0,0,1-14.55,14.55h0a14.55,14.55,0,0,1-14.55-14.55V603.71A0,0,0,0,1,902.21,603.71Z" transform="translate(-129.85 261.46) rotate(-15.17)" fill="none" stroke="#2e2d75" stroke-miterlimit="10" stroke-width="2"/><path d="M896.33,589.3h29.1a0,0,0,0,1,0,0v0a14.55,14.55,0,0,1-14.55,14.55h0a14.55,14.55,0,0,1-14.55-14.55v0A0,0,0,0,1,896.33,589.3Z" transform="translate(1946.13 933.98) rotate(164.83)" fill="#302d77" stroke="#2e2d75" stroke-miterlimit="10" stroke-width="2"/><path d="M902.41,606.11a11.87,11.87,0,0,1,.55-7.52" fill="none" stroke="#fff" stroke-miterlimit="10"/><line x1="900.05" y1="604.48" x2="908.47" y2="602.35" fill="none" stroke="#fff" stroke-miterlimit="10"/><path d="M905.92,601.45a9.66,9.66,0,0,0,0,3.67" fill="none" stroke="#fff" stroke-miterlimit="10"/><path d="M966.3,685.15l3.76,2.87a6.34,6.34,0,0,1,2.31,3.53l7.06,29.05L991,724.83l-2.18-45.42a9.12,9.12,0,0,0-2.24-5.55L961.24,645a10.73,10.73,0,0,0-6.23-3.51l-23.5-4.08-3.64,4a6.23,6.23,0,0,1-6.26,6.2h0a6.22,6.22,0,0,1-6.2-6.25l-3.84-4.4-19.05.93a10,10,0,0,0-5.24,1.79l-32.88,22.9a8.81,8.81,0,0,0-2.44,12c4.71,7.32,14.9,17.4,35.7,18.9,0,0-1-2.55,6-6.22s8-.53,8-.53a3.86,3.86,0,0,1-1.57,3.8" fill="none" stroke="#2e2d75" stroke-miterlimit="10" stroke-width="2"/><path d="M987,736.54c11.57,6.17,51.79,30.27,38.42,61,0,0-52.66,26.32-96.85-39.38-41.42-61.6-79.23-71.89-80.2-58a8.08,8.08,0,0,0,1.14,4.56l.46.81" fill="#fff" stroke="#2e2d75" stroke-miterlimit="10" stroke-width="2"/><path d="M965.38,669.75s1.6,21.3,1.15,39.15c-.24,9.41,4.59,16.15,9.23,20.42" fill="none" stroke="#2e2d75" stroke-miterlimit="10" stroke-width="2"/><path d="M895.39,662s0,1.79.25,4.55c.46,4.94,1.75,13,5.37,19.28l-28.69-16.1" fill="none" stroke="#2e2d75" stroke-linejoin="round" stroke-width="2"/><line x1="880.58" y1="673.93" x2="894.86" y2="667.52" fill="none" stroke="#2e2d75" stroke-linejoin="round" stroke-width="2"/><path d="M848.53,698.81s-.33-6.81,17.79-11.2" fill="none" stroke="#2e2d75" stroke-miterlimit="10" stroke-width="2"/><polyline points="896.27 686.56 903.24 694.09 905.95 708.12" fill="none" stroke="#2e2d75" stroke-miterlimit="10" stroke-width="2"/><line x1="901.01" y1="696.37" x2="903.03" y2="710.4" fill="none" stroke="#2e2d75" stroke-miterlimit="10" stroke-width="2"/><line x1="898.47" y1="698.19" x2="900.04" y2="712.75" fill="none" stroke="#2e2d75" stroke-miterlimit="10" stroke-width="2"/><line x1="895.98" y1="698.19" x2="896.55" y2="708.9" fill="none" stroke="#2e2d75" stroke-miterlimit="10" stroke-width="2"/><path d="M892.35,702.07v-4.56c-3.06-1.92-3.49-4.3-3.49-4.3v-2.35" fill="none" stroke="#2e2d75" stroke-miterlimit="10" stroke-width="2"/><polygon points="897.2 686.56 899.82 686.09 901.11 686.92 901.01 688.81 900.04 689.39 897.2 686.56" fill="#302d77" stroke="#2e2d75" stroke-miterlimit="10" stroke-width="2"/><line x1="913.18" y1="632.36" x2="913.18" y2="638.76" fill="none" stroke="#2e2d75" stroke-miterlimit="10" stroke-width="2"/><path d="M927.07,627.86s.75,6.81,4.44,9.55" fill="none" stroke="#2e2d75" stroke-miterlimit="10" stroke-width="2"/><path d="M989.13,724.16v8.55a3.55,3.55,0,0,1-2,3.2l-3.31,1.58-3.42,6.64" fill="none" stroke="#2e2d75" stroke-miterlimit="10" stroke-width="2"/><line x1="982.92" y1="733.99" x2="977.24" y2="744.13" fill="none" stroke="#2e2d75" stroke-miterlimit="10" stroke-width="2"/><line x1="980.83" y1="732.75" x2="974" y2="743.48" fill="none" stroke="#2e2d75" stroke-miterlimit="10" stroke-width="2"/><line x1="979" y1="731.36" x2="974" y2="738.21" fill="none" stroke="#2e2d75" stroke-miterlimit="10" stroke-width="2"/><path d="M980.38,721.42,979,728.26s-3.8,1-4.51,3.66" fill="none" stroke="#2e2d75" stroke-miterlimit="10" stroke-width="2"/><path d="M1019.81,799.63s-16,34.28-25,45.8l-19.09-4.78,5.07-40.52" fill="none" stroke="#2e2d75" stroke-miterlimit="10" stroke-width="2"/><path d="M851.12,695.59s-5.8,41.82,3.33,79.2l17.87,3.48S884,738,883.79,729.32" fill="none" stroke="#2e2d75" stroke-miterlimit="10" stroke-width="2"/><path d="M880.47,747.73s26.11,10.45,49.51,12.53" fill="none" stroke="#2e2d75" stroke-miterlimit="10" stroke-width="2"/><path d="M857.65,775.41l.49,5.25-3,12.14a4.5,4.5,0,0,0,5.41,5.46l1.45-.35a8,8,0,0,0,6.12-6.81l1.22-9.63v-3.78" fill="none" stroke="#2e2d75" stroke-miterlimit="10" stroke-width="2"/><path d="M979.14,841.34l-.36,5.26-4.89,11.51a4.5,4.5,0,0,0,4.47,6.25l1.49-.11A8,8,0,0,0,987,858.5l2.74-9.31.79-4.85" fill="none" stroke="#2e2d75" stroke-miterlimit="10" stroke-width="2"/><polygon points="851.9 695.99 855.2 695.03 864.53 697.34 873.13 701.3 886.16 710.4 900.04 723.74 911.97 736.6 921.38 748.68 928.7 759.2 923.79 759.2 904.65 756.14 880.47 748.68 872.81 778.27 854.21 773.78 850.58 755.66 849.3 713.52 851.9 695.99" fill="#302d77"/><polygon points="980.83 800.78 976.5 840.13 994.23 844.75 1003.19 833.51 1018.62 800.78 1004.59 802.42 989.82 802.42 980.83 800.78" fill="#302d77"/><path d="M1742.86,526.29V604s17.53,73.37,61.06,134.56a9.4,9.4,0,0,0,3.34,2.89l9,4.59a9.31,9.31,0,0,0,9.91-.89l15.39-11.75a9.24,9.24,0,0,0,3.5-5.67c2.24-11.94,8.91-52,4.9-86.53a17.64,17.64,0,0,0-6.92-12c-10.25-7.74-33.81-23.3-70.21-34.73,0,0-10-22.46-5.4-47.83s71.53-35.35,81.1-27.45,31.15,24.12,31.15,24.12,12.85-21.21,0-29.11S1826,475,1826,475l-2.19-.71a10.19,10.19,0,0,0-9.78,2c-9.83,8.45-35.57,29.11-64.66,40.45A10.26,10.26,0,0,0,1742.86,526.29Z" fill="none" stroke="#2e2d75" stroke-miterlimit="10" stroke-width="2"/><path d="M1770.7,610.43s25.42,81.57,49.49,128.07" fill="none" stroke="#2e2d75" stroke-miterlimit="10" stroke-width="2"/><path d="M1717.68,697.93A39.32,39.32,0,0,1,1757,658.66a4.86,4.86,0,0,1,.54,0l1,1.91c-.51,0-1,0-1.54,0a37.39,37.39,0,1,0,31,58.3l1,1.86c-7.32,10.84-18.94,16.51-32,16.51A39.32,39.32,0,0,1,1717.68,697.93Z" fill="#2e2d75"/><path d="M1732.85,697.93a24.13,24.13,0,0,1,24.1-24.11c3.25,0,4.85,0,7.82,1.3l.83,2.33A22.22,22.22,0,1,0,1778.34,704l1.27,2.19C1776.68,716.51,1767.69,722,1757,722A24.13,24.13,0,0,1,1732.85,697.93Z" fill="#2e2d75"/><path d="M1768.93,481.39a23.11,23.11,0,1,1,10-12.39" fill="none" stroke="#2e2d75" stroke-miterlimit="10" stroke-width="2"/><path d="M1780.9,491.49A38.3,38.3,0,1,1,1791,479.24" fill="none" stroke="#2e2d75" stroke-miterlimit="10" stroke-width="2"/><path d="M1786.54,492.48l-32.7-27a5.34,5.34,0,0,1-.73-7.52h0a5.35,5.35,0,0,1,7.52-.73l34.15,28.16" fill="none" stroke="#2e2d75" stroke-miterlimit="10" stroke-width="2"/><path d="M1890.09,522.73c0-2,.09-4.22.27-6.59l0-.3.2-.23c.29-.35,7.28-8.61,18.6-9.84l.89-.1.14.89c.07.43,2,9.25-1.46,23.12l-2.18,1a70.13,70.13,0,0,0,1.89-23c-9.06,1.35-15.11,7.59-16.24,8.84-1.77,23.82,6.73,27.94,9.1,28.62.32-.66.63-1.32.93-2l1.72.77c-.41.89-.83,1.79-1.28,2.69l-.29.57-.63,0C1901.25,547.19,1890.09,546,1890.09,522.73Z" fill="#2e2d75"/><path d="M1947,666.5l-34-43.89-16.34-50.83c4.06-6.77,11.84-8.46,18.09-9.49a10.36,10.36,0,0,0,8.1-5.91l9,58.17,28.18,44.1s6.21,8.43,0,17.24" fill="none" stroke="#2e2d75" stroke-miterlimit="10" stroke-width="2"/><path d="M1933.27,648.72l-1.41,1.63a12.67,12.67,0,0,1-9,2.12c-9.07-.89-47.4-14.19-47.4-14.19-3.55,9.16-5.32,17.74,0,36.19a102.6,102.6,0,0,1,3.29,35.95c13-8,49-12.72,68.26-16.26s18.85-18.27,18.85-18.27.6-6.91-4.89-15.62" fill="none" stroke="#2e2d75" stroke-miterlimit="10" stroke-width="2"/><polyline points="1878.89 694.3 1873.77 694.3 1872.14 655.6" fill="none" stroke="#2e2d75" stroke-miterlimit="10" stroke-width="2"/><path d="M1873.77,694.3s-21.76,5.31-21.06-7.62c.57-10.6,2.62-62.55,3.34-81,.16-4.08.26-6.53.26-6.53" fill="none" stroke="#2e2d75" stroke-miterlimit="10" stroke-width="2"/><path d="M1856.17,602.51l-70.39-12.89s-1.79-30.9,0-36.71L1866.57,581s5.11,1.21,5.57,9.58,2.38,50.36,2.38,50.36" fill="none" stroke="#2e2d75" stroke-miterlimit="10" stroke-width="2"/><path d="M1782.19,567l1,18.34-8.88,2.94a3.19,3.19,0,0,1-3.63-2.79c-.44-3.21-1.61-39.88-1.61-39.88s3.2-5.53,5.24,0S1782.19,567,1782.19,567Z" fill="#302d77" stroke="#2e2d75" stroke-miterlimit="10" stroke-width="2"/><polyline points="1921.3 558.83 1919.02 541.66 1914.79 529.68 1904.65 534.53 1902.22 540.3" fill="none" stroke="#2e2d75" stroke-miterlimit="10" stroke-width="2"/><polyline points="1911.76 535.14 1907.34 536.92 1904.88 542.23" fill="none" stroke="#2e2d75" stroke-miterlimit="10" stroke-width="2"/><polyline points="1911.76 538.78 1909.66 539.99 1908.58 543.63" fill="none" stroke="#2e2d75" stroke-miterlimit="10" stroke-width="2"/><line x1="1910.79" y1="563.05" x2="1911.76" y2="545.29" fill="none" stroke="#2e2d75" stroke-miterlimit="10" stroke-width="2"/><path d="M1855.12,629.14s-4.91-5.37-10.52,0,.76,96.77.76,96.77,6.3,4.52,7.33-5.3,0-36.5,0-36.5Z" fill="#302d77" stroke="#2e2d75" stroke-miterlimit="10" stroke-width="2"/><path d="M1909.64,512.55s-14.19,5-18.49,10.55v-6.25l4.17-4.3,6.9-4.3,6.1-1h1.32Z" fill="#302d77"/><path d="M1717.68,758.33V707.2a90,90,0,0,0,9.3,22.22c6.33,10.32,8,20.85-2.54,19,0,0,13.94,20.5,5.92,21.35s-12.68-6.55-12.68-6.55Z" fill="#302d77" stroke="#2e2d75" stroke-miterlimit="10" stroke-width="2"/><path d="M1717.68,519.71V468.59a89.83,89.83,0,0,0,9.3,22.21c6.33,10.32,8,20.86-2.54,19,0,0,13.94,20.51,5.92,21.35s-12.68-6.55-12.68-6.55Z" fill="#302d77" stroke="#2e2d75" stroke-miterlimit="10" stroke-width="2"/><path d="M658.71,1061H576.37s-77.79-18.58-142.66-64.73a9.88,9.88,0,0,1-3.06-3.55l-4.87-9.5a9.87,9.87,0,0,1,.94-10.51l12.46-16.31a9.86,9.86,0,0,1,6-3.72c12.65-2.37,55.08-9.45,91.73-5.19a18.7,18.7,0,0,1,12.76,7.33c8.21,10.88,24.71,35.85,36.82,74.44,0,0,23.81,10.58,50.71,5.73s37.48-75.84,29.1-86-25.57-33-25.57-33,22.48-13.62,30.86,0,41.45,56.84,41.45,56.84l.75,2.32a10.82,10.82,0,0,1-2.09,10.37c-9,10.42-30.86,37.71-42.89,68.55A10.86,10.86,0,0,1,658.71,1061Z" fill="none" stroke="#2e2d75" stroke-miterlimit="10" stroke-width="2"/><path d="M569.51,1031.52S483,1004.57,433.73,979.05" fill="none" stroke="#2e2d75" stroke-miterlimit="10" stroke-width="2"/><path d="M476.74,1087.74a41.69,41.69,0,0,0,41.64-41.64,5.42,5.42,0,0,0,0-.57l-2-1.06c0,.54,0,1.08,0,1.63a39.64,39.64,0,1,1-61.8-32.87l-2-1.07c-11.5,7.77-17.51,20.08-17.51,33.94A41.69,41.69,0,0,0,476.74,1087.74Z" fill="#2e2d75"/><path d="M476.74,1071.66a25.59,25.59,0,0,0,25.56-25.56c0-3.45,0-5.14-1.37-8.29l-2.48-.87a23.32,23.32,0,0,1,1.85,9.16,23.56,23.56,0,1,1-30-22.67l-2.32-1.35c-10.93,3.1-16.8,12.64-16.8,24A25.59,25.59,0,0,0,476.74,1071.66Z" fill="#2e2d75"/><path d="M706.32,1033.4a24.54,24.54,0,1,0,13.13-10.56" fill="none" stroke="#2e2d75" stroke-miterlimit="10" stroke-width="2"/><path d="M695.61,1020.71a40.52,40.52,0,1,0,13-10.68" fill="none" stroke="#2e2d75" stroke-miterlimit="10" stroke-width="2"/><path d="M694.55,1014.73l28.59,34.67a5.65,5.65,0,0,0,8,.77h0a5.65,5.65,0,0,0,.77-8L702,1006" fill="none" stroke="#2e2d75" stroke-miterlimit="10" stroke-width="2"/><path d="M662.49,905c2.14,0,4.47-.09,7-.29l.32,0,.25-.21c.37-.31,9.12-7.72,10.43-19.71l.1-1-.94-.15c-.46-.07-9.8-2.08-24.51,1.54L654,887.48a73.86,73.86,0,0,1,24.35-2c-1.44,9.6-8.05,16-9.37,17.21-25.26,1.88-29.62-7.13-30.34-9.65A131.19,131.19,0,0,1,654,887.48l1.11-2.32a148.54,148.54,0,0,0-18.06,6.43l-.6.3,0,.68C636.56,893.12,637.83,905,662.49,905Z" fill="#2e2d75"/><path d="M549.67,942s5.7,5.21,0,11.16-102.6-.8-102.6-.8-4.79-6.69,5.63-7.78,38.69,0,38.69,0Z" fill="#302d77" stroke="#2e2d75" stroke-miterlimit="10" stroke-width="2"/><path d="M673.28,884.22s-5.25,15-11.18,19.61h6.62l4.56-4.42,4.56-7.32,1.1-6.46v-1.41Z" fill="#302d77"/><polygon points="1368.9 653.22 1318.3 653.22 1318.3 643.74 1368.9 646.34 1368.9 653.22" fill="#302d77" stroke="#2e2d75" stroke-miterlimit="10" stroke-width="2"/><polygon points="1363.48 645.91 1323.71 643.74 1323.71 634.25 1363.48 635.55 1363.48 645.91" fill="none" stroke="#2e2d75" stroke-miterlimit="10" stroke-width="2"/><polygon points="1358.49 635.12 1328.7 634.25 1328.7 628.24 1358.49 624.77 1358.49 635.12" fill="#302d77" stroke="#2e2d75" stroke-miterlimit="10" stroke-width="2"/><polygon points="1354.04 624.77 1333.15 627.37 1333.15 617.02 1354.04 618.75 1354.04 624.77" fill="none" stroke="#2e2d75" stroke-miterlimit="10" stroke-width="2"/><line x1="1363.49" y1="640.96" x2="1347.44" y2="639.68" fill="none" stroke="#2e2d75" stroke-miterlimit="10" stroke-width="2"/><line x1="1333.15" y1="624.24" x2="1341.52" y2="623.36" fill="none" stroke="#2e2d75" stroke-miterlimit="10" stroke-width="2"/><line x1="938.48" y1="554.62" x2="1420.9" y2="554.62" fill="none" stroke="#2e2d75" stroke-miterlimit="10" stroke-width="2"/><path d="M1075.19,434.69h51.18s5.39,14.84,30.72,24.23l-25.33,29.87-38.58-18.86-36.84,26.22-36.65-16Z" fill="none" stroke="#2e2d75" stroke-miterlimit="10" stroke-width="2"/><line x1="1109.57" y1="458.76" x2="1093.18" y2="469.93" fill="none" stroke="#2e2d75" stroke-miterlimit="10" stroke-width="2"/><path d="M1158.68,349.77l-5,17.46c-1.33,4.64-5.65,7.47-9.65,6.32h0c-4-1.14-6.16-5.83-4.83-10.47l4.91-17-6.71-.65s-15.09,35.74-31.57,26.92L1076.58,431l52.45-1.39s5.11-1.63,3.72-6.73l22-43.16a46,46,0,0,0,3.63-9.72l4.34-17.45Z" fill="#302d77" stroke="#2e2d75" stroke-miterlimit="10" stroke-width="2"/><path d="M1154.93,461.46l24.78,10.86s15.8,4.55,7.9,17.24-29.73,47.34-29.73,47.34-2.71,5,2.32,8.14,19.64,6.22,19.64,6.22,3.83,3.36-1.44,3.36h-38.55s-10.78.47-1.68-11.26,23-48.13,23-48.13" fill="none" stroke="#2e2d75" stroke-miterlimit="10" stroke-width="2"/><line x1="1135.25" y1="484.68" x2="1167.48" y2="496.69" fill="none" stroke="#2e2d75" stroke-miterlimit="10" stroke-width="2"/><line x1="1131.39" y1="552.67" x2="1182.87" y2="552.67" fill="none" stroke="#2e2d75" stroke-miterlimit="10" stroke-width="2"/><line x1="1163.19" y1="546.49" x2="1157.88" y2="552.67" fill="none" stroke="#2e2d75" stroke-miterlimit="10" stroke-width="2"/><polyline points="918.85 545.65 948.21 552.67 971.65 552.67" fill="none" stroke="#2e2d75" stroke-miterlimit="10" stroke-width="2"/><line x1="958.79" y1="543.89" x2="944.4" y2="551.76" fill="none" stroke="#2e2d75" stroke-miterlimit="10" stroke-width="2"/><path d="M1051.78,494.16l-27.07,16.92a7.61,7.61,0,0,1-2.22.94L960.9,527.24s-7.14,2-6.16,7.38,5.17,13.92,6.16,15,6.15,3.09,6.15,3.09-.24,2-6.4,2-10.34-1.15-11.82-5S938,526.5,938,526.5s-4.92-12.56,4.19-13.54,19.69-.25,22.65-2,50.71-21.42,50.71-21.42l9.82-6.92" fill="none" stroke="#2e2d75" stroke-miterlimit="10" stroke-width="2"/><line x1="1126.26" y1="429.76" x2="1123.12" y2="434.69" fill="#302d77" stroke="#2e2d75" stroke-miterlimit="10" stroke-width="2"/><line x1="1079.72" y1="429.76" x2="1076.58" y2="434.69" fill="#302d77" stroke="#2e2d75" stroke-miterlimit="10" stroke-width="2"/><line x1="1137.09" y1="346.07" x2="1069.46" y2="331.96" fill="none" stroke="#2e2d75" stroke-miterlimit="10" stroke-width="2"/><path d="M1105.82,372.31s.33-2.53-4.87-5.75c-4.16-2.58-35.41-20.39-47.7-27.39a8.52,8.52,0,0,1-4.24-8.45h0a15.89,15.89,0,0,1,11.62-13.38L1127,299.46s7-8.27,7.5-8.27h9.2l3.84,3.84" fill="none" stroke="#2e2d75" stroke-miterlimit="10" stroke-width="2"/><polyline points="1072.02 332.5 1131.64 307.09 1137.09 309.59 1141.22 309" fill="none" stroke="#2e2d75" stroke-miterlimit="10" stroke-width="2"/><circle cx="1139.02" cy="300.18" r="6.28" fill="#302d77" stroke="#2e2d75" stroke-miterlimit="10" stroke-width="2"/><line x1="1142.34" y1="295.72" x2="1148.13" y2="298.83" fill="none" stroke="#2e2d75" stroke-miterlimit="10" stroke-width="2"/><line x1="1144.24" y1="301.35" x2="1148.13" y2="302" fill="none" stroke="#2e2d75" stroke-miterlimit="10" stroke-width="2"/><polyline points="1153.03 384.39 1246.49 424.87 1256.7 431.23 1268.06 436.24" fill="none" stroke="#2e2d75" stroke-miterlimit="10" stroke-width="2"/><polyline points="1163.35 354.42 1204.2 392.1 1249.75 419.21 1261.66 419.21 1268.96 421.7" fill="none" stroke="#2e2d75" stroke-miterlimit="10" stroke-width="2"/><line x1="1258.19" y1="428.4" x2="1269.83" y2="433.44" fill="none" stroke="#2e2d75" stroke-miterlimit="10" stroke-width="2"/><line x1="1259.39" y1="425.84" x2="1272.38" y2="431.4" fill="none" stroke="#2e2d75" stroke-miterlimit="10" stroke-width="2"/><line x1="1260.46" y1="422.84" x2="1271.9" y2="427.1" fill="none" stroke="#2e2d75" stroke-miterlimit="10" stroke-width="2"/><line x1="1157.83" y1="350.63" x2="1157.83" y2="340.78" fill="none" stroke="#2e2d75" stroke-miterlimit="10" stroke-width="2"/><path d="M1175.67,322.81l-5,15.61a5.9,5.9,0,0,1-7.17,3.9l-8.19-2.25" fill="none" stroke="#2e2d75" stroke-miterlimit="10" stroke-width="2"/><polyline points="1152.5 334.67 1146.02 346.56 1144.69 346.56" fill="none" stroke="#2e2d75" stroke-miterlimit="10" stroke-width="2"/><path d="M1150.05,334s5.39,4.68,7.22-.72c.64-1.89,1.33-3.88,1.94-5.66a7.78,7.78,0,0,1,8.17-5.19l9.53,1s4.68.3,3.66-4.89-14-8.54-18.52-7.43-10,3.77-10.38,10S1147.6,331.32,1150.05,334Z" fill="#302d77" stroke="#2e2d75" stroke-miterlimit="10" stroke-width="2"/><line x1="416.33" y1="596.25" x2="547.79" y2="596.25" fill="none" stroke="#2e2d75" stroke-miterlimit="10" stroke-width="2"/><line x1="445.09" y1="618.03" x2="576.55" y2="618.03" fill="none" stroke="#2e2d75" stroke-miterlimit="10" stroke-width="2"/><line x1="473.13" y1="569.14" x2="473.13" y2="633.74" fill="none" stroke="#2e2d75" stroke-miterlimit="10" stroke-width="2"/><line x1="494.5" y1="587.01" x2="494.5" y2="640.84" fill="none" stroke="#2e2d75" stroke-miterlimit="10" stroke-width="2"/><line x1="517.98" y1="569.14" x2="517.98" y2="606.82" fill="none" stroke="#2e2d75" stroke-miterlimit="10" stroke-width="2"/><line x1="104.97" y1="892.2" x2="29.07" y2="892.2" fill="none" stroke="#2e2d75" stroke-miterlimit="10" stroke-width="2"/><path d="M333,878.24,175.32,836.47A56,56,0,0,0,105,890.61h0A56,56,0,0,0,174.55,945l158.23-39.53C346.85,901.9,347,882,333,878.24Z" fill="#302d77" stroke="#2e2d75" stroke-miterlimit="10" stroke-width="2"/><circle cx="1188.63" cy="80.8" r="183.65" fill="none" stroke="#2e2d75" stroke-miterlimit="10" stroke-width="2"/><line x1="1660.04" y1="317.88" x2="1462.23" y2="317.88" fill="none" stroke="#2e2d75" stroke-miterlimit="10" stroke-width="2"/><rect x="1493.77" y="78.78" width="57.79" height="239.09" fill="none" stroke="#2e2d75" stroke-miterlimit="10" stroke-width="2"/><polygon points="1564.22 163.1 1481.11 163.1 1484.19 180.57 1561.14 180.57 1564.22 163.1" fill="#302d77" stroke="#2e2d75" stroke-miterlimit="10" stroke-width="2"/><path d="M1472.73,293l-6.09,3.55c-2.83,1.65-4.41,3.84-4.41,6.12v15.2h21v-15.2c0-2.28-1.58-4.47-4.41-6.12Z" fill="#302d77" stroke="#2e2d75" stroke-miterlimit="10" stroke-width="2"/><path d="M1502.2,293l-6.09,3.55c-2.83,1.65-4.41,3.84-4.41,6.12v15.2h21v-15.2c0-2.28-1.58-4.47-4.41-6.12Z" fill="#fff" stroke="#2e2d75" stroke-miterlimit="10" stroke-width="2"/><path d="M1531.67,293l-6.09,3.55c-2.83,1.65-4.41,3.84-4.41,6.12v15.2h21v-15.2c0-2.28-1.58-4.47-4.41-6.12Z" fill="#302d77" stroke="#2e2d75" stroke-miterlimit="10" stroke-width="2"/><path d="M1561.14,293l-6.1,3.55c-2.82,1.65-4.4,3.84-4.4,6.12v15.2h21v-15.2c0-2.28-1.58-4.47-4.41-6.12Z" fill="#fff" stroke="#2e2d75" stroke-miterlimit="10" stroke-width="2"/><path d="M1590.61,293l-6.1,3.55c-2.82,1.65-4.4,3.84-4.4,6.12v15.2h21v-15.2c0-2.28-1.58-4.47-4.41-6.12Z" fill="#302d77" stroke="#2e2d75" stroke-miterlimit="10" stroke-width="2"/><path d="M1620.08,293l-6.1,3.55c-2.82,1.65-4.4,3.84-4.4,6.12v15.2h21v-15.2c0-2.28-1.58-4.47-4.41-6.12Z" fill="none" stroke="#2e2d75" stroke-miterlimit="10" stroke-width="2"/><path d="M1649.55,293l-6.1,3.55c-2.83,1.65-4.4,3.84-4.4,6.12v15.2h21v-15.2c0-2.28-1.57-4.47-4.4-6.12Z" fill="#302d77" stroke="#2e2d75" stroke-miterlimit="10" stroke-width="2"/><path d="M1533.62,39.29c-9.12-3.6-10.95-15.39-10.95-15.39s-1.84,11.79-11,15.39-20.91,8.19-20.91,22.94,8.79,16.55,8.79,16.55h46.15s8.79-1.81,8.79-16.55S1542.73,42.9,1533.62,39.29Z" fill="#302d77" stroke="#2e2d75" stroke-miterlimit="10" stroke-width="2"/><line x1="1513.53" y1="156.96" x2="1513.53" y2="93.21" fill="#fff" stroke="#2e2d75" stroke-miterlimit="10" stroke-width="2"/><line x1="1513.53" y1="236.52" x2="1513.53" y2="191.33" fill="#fff" stroke="#2e2d75" stroke-miterlimit="10" stroke-width="2"/><polyline points="1367.41 1087.11 1478.95 975.58 1865.8 975.58 1865.8 1092.92" fill="none" stroke="#2e2d75" stroke-miterlimit="10" stroke-width="2"/><line x1="1842.28" y1="922.13" x2="2335" y2="922.13" fill="none" stroke="#2e2d75" stroke-miterlimit="10" stroke-width="2"/><path d="M1642.37,955.71h-42.43a19.87,19.87,0,0,0-19.87,19.87h51.74c28.22,0,33.21-27.86,33.21-27.86" fill="none" stroke="#2e2d75" stroke-miterlimit="10" stroke-width="2"/><path d="M1758.46,955.71a39.31,39.31,0,0,1,11.87-52.53" fill="none" stroke="#2e2d75" stroke-miterlimit="10" stroke-width="2"/><line x1="1631.81" y1="955.71" x2="1653.05" y2="916.07" fill="none" stroke="#2e2d75" stroke-miterlimit="10" stroke-width="2"/><path d="M1643.12,934.62l-8.76-13.84a29.05,29.05,0,0,0-24.55-13.52h-18.44a3,3,0,0,1-3-3V893.63a7,7,0,0,1,5.79-6.89l17.79-3.12a5.83,5.83,0,0,0,4.55-4c1.72-5.5,7.13-15.87,23.35-15.87a37.6,37.6,0,0,1,20.74,5.68A29.23,29.23,0,0,1,1671,881.66c2.43,5.13,9.45,15.33,26.72,14.8,16.84-.52,33.33-3.94,41-5.74a66.93,66.93,0,0,0,7.08-2.11c10.25-3.66,47.94-15.14,73.14,3.3,39.65,29,18.55,69.4,18.55,69.4s-6,14.27-35.5,14.27c-29.1,0-24.94-8.16-38.69-9.93,0,0,5.11-9.46,20.78-7.54s32.3,8,40.62-6.4" fill="none" stroke="#2e2d75" stroke-miterlimit="10" stroke-width="2"/><path d="M1659.42,878.89l15.35,19s-18.31,9.07-29.47-7.85" fill="none" stroke="#2e2d75" stroke-miterlimit="10" stroke-width="2"/><circle cx="1623.67" cy="881.06" r="3.43" fill="#302d77"/><line x1="1588.39" y1="900.33" x2="1600.24" y2="900.33" fill="none" stroke="#2e2d75" stroke-miterlimit="10" stroke-width="2"/><path d="M1661,958.46s8.1,17.12,23.37,17.12h0a19.87,19.87,0,0,1,19.86-19.87h54.44" fill="none" stroke="#2e2d75" stroke-miterlimit="10" stroke-width="2"/><line x1="1684.32" y1="975.58" x2="1802.01" y2="975.58" fill="none" stroke="#2e2d75" stroke-miterlimit="10" stroke-width="2"/><line x1="1597.2" y1="975.58" x2="1597.2" y2="964.23" fill="none" stroke="#2e2d75" stroke-miterlimit="10" stroke-width="2"/><line x1="1700.56" y1="975.58" x2="1700.56" y2="964.23" fill="none" stroke="#2e2d75" stroke-miterlimit="10" stroke-width="2"/><path d="M1595.7,886.47s-.69,7.49-7.31,9A8.37,8.37,0,0,1,1595.7,886.47Z" fill="#302d77"/><path d="M1783.31,958s2.16,9.32-3.13,14.72l-8.87-5.31-6.94-2,4.1-5.41S1778.29,957.34,1783.31,958Z" fill="#302d77"/><path d="M1232.26,252.46c-.07-.13-6.67-11.36-6.67-11.36l-53.39,4.35-2.45.2a49.15,49.15,0,0,0-5.07,17.25s35.56,4.63,65.21-3.1Z" fill="#302d77" stroke="#2e2d75" stroke-miterlimit="10" stroke-width="0.5"/><path d="M1173.5,232.46s2,5-1.3,13" fill="none" stroke="#2e2d75" stroke-miterlimit="10" stroke-width="2"/><path d="M1222.14,225.88a38.78,38.78,0,0,0,.72,15.22" fill="none" stroke="#2e2d75" stroke-miterlimit="10" stroke-width="2"/><path d="M1164,198.2c3.33,8.13,4.6,34.26,4.6,34.26l56.92-7s-2.85-21-1.22-29" fill="none" stroke="#2e2d75" stroke-miterlimit="10" stroke-width="2"/><path d="M1220.23,187.31l9.4,21.24s1.6-30.55,11.09-26.41c4.49,2.25.8,22,.8,22" fill="none" stroke="#2e2d75" stroke-linejoin="bevel" stroke-width="2"/><path d="M1198.62,160.7c8.87-.2,16.88-.26,20.7-.28a8.49,8.49,0,0,1,6,2.4l16.25,19.93" fill="none" stroke="#2e2d75" stroke-miterlimit="10" stroke-width="2"/><path d="M1149.47,188.41l10.89-22.59a8.48,8.48,0,0,1,5.4-3.22,202.35,202.35,0,0,1,20.25-1.52" fill="none" stroke="#2e2d75" stroke-miterlimit="10" stroke-width="2"/><path d="M1149.84,210.91s-4.47-23.34,1.82-24.39c9.17-1.54,9.06,25.71,9.06,25.71l5.58-23.82" fill="none" stroke="#2e2d75" stroke-miterlimit="10" stroke-width="2"/><path d="M1198.3,159.81l2.11,9.32a5.26,5.26,0,0,1-5,5.48l-3.43.11a5.26,5.26,0,0,1-5.49-5l.23-9.45" fill="none" stroke="#2e2d75" stroke-miterlimit="10" stroke-width="2"/><line x1="1187" y1="161" x2="1186.7" y2="152.39" fill="none" stroke="#2e2d75" stroke-miterlimit="10" stroke-width="2"/><polyline points="1153.56 187.31 1149.13 213.59 1150.75 252.76 1146.54 257.13 1145.84 259.44" fill="none" stroke="#2e2d75" stroke-miterlimit="10" stroke-width="2"/><polyline points="1160.71 212.23 1160.71 214.4 1158.35 253.57 1159.54 257.78 1160.71 261.18" fill="none" stroke="#2e2d75" stroke-miterlimit="10" stroke-width="2"/><polyline points="1236.87 182.47 1242.19 208.38 1240.57 247.56 1244.78 251.93 1245.49 254.24" fill="none" stroke="#2e2d75" stroke-miterlimit="10" stroke-width="2"/><polyline points="1232.69 253.22 1231.12 259.8 1232.69 253.22 1233.08 249.69 1229.81 210.01 1229.81 206.06" fill="none" stroke="#2e2d75" stroke-miterlimit="10" stroke-width="2"/><path d="M1180,129s-2-1,6,4,11,3,12,7-1,9,1,11,3,6,3,6v3.42l18-.42s-10-27-13-36-24-20-34-10-10,15-7,21,5,9,6,14,0,12,0,12h14v-7l-12-20c1-4,5-5,5-6Z" fill="#302d77" stroke="#2e2d75" stroke-miterlimit="10" stroke-width="2"/><path d="M1174.11,133l6.14,15.25a6.62,6.62,0,0,0,8.94,3.7l5.46-2.19" fill="#fff" stroke="#2e2d75" stroke-miterlimit="10" stroke-width="2"/><line x1="923.62" y1="184.91" x2="923.62" y2="-2.03" fill="none" stroke="#2e2d75" stroke-miterlimit="10" stroke-width="2"/><path d="M1357.23,554.62s24.92-111.35,16.41-215.6" fill="none" stroke="#2e2d75" stroke-miterlimit="10" stroke-width="2"/><path d="M1363.23,257.15s-51,13-29.91,53.71-5.12,77.35-5.12,77.35-37,53.37,0,87.68S1453.72,491.5,1433.91,425s-27.8-73.75-20.08-109.29S1394.38,247.21,1363.23,257.15Z" fill="none" stroke="#2e2d75" stroke-miterlimit="10" stroke-width="2"/><line x1="2264.57" y1="398.66" x2="1718.62" y2="398.66" fill="none" stroke="#2e2d75" stroke-miterlimit="10" stroke-width="2"/><rect x="1851.01" y="253.54" width="8.24" height="144.94" fill="none" stroke="#2e2d75" stroke-miterlimit="10" stroke-width="2"/><path d="M1855.12,222.31h-17.56c8.09,47.31,17.56,39.57,17.56,39.57s9.48,7.74,17.57-39.57Z" fill="#302d77" stroke="#2e2d75" stroke-miterlimit="10" stroke-width="2"/><path d="M1855.12,210.65s-21.59-.4-33.16,11.17h66.33C1876.72,210.25,1855.13,210.65,1855.12,210.65Z" fill="none" stroke="#2e2d75" stroke-miterlimit="10" stroke-width="2"/><path d="M1202.52,628.65l3.47-19.54,19.78-2.71,4.48,6.61v11l3.74,15.25s-5.35-1.84-14.37,9.82-15.09-14.53-15.09-14.53Z" fill="#fff" stroke="#2e2d75" stroke-miterlimit="10" stroke-width="2"/><path d="M1240.55,643.1s-9.14-8-13.34-1a14.82,14.82,0,0,0-1.73,5.52c-1.89,13.22-4.68,35.09-8.39,53.34-.7,3.43-1.43,6.73-2.19,9.82-4.81,19.56-19.56,81.44-19.56,100.36h58.36V760.45s14.11-3.85,14.11-24.05S1257.22,657.21,1240.55,643.1Z" fill="#2e2d75" stroke="#2e2d75" stroke-miterlimit="10" stroke-width="2"/><path d="M1217.09,700.93l-50.31-21.46V656.59l44,22s7.41-33.38,17.74-38.08" fill="none" stroke="#2e2d75" stroke-miterlimit="10" stroke-width="2"/><path d="M1214.8,707.81,1165.58,740a43.21,43.21,0,0,0-14,35.55l7.65,90.67h37.32s-7.17-64.13-17.14-91.64c0,0,15.76-6.59,22.52-11.1" fill="none" stroke="#2e2d75" stroke-miterlimit="10" stroke-width="2"/><line x1="1169.52" y1="695.56" x2="1188.26" y2="725.16" fill="none" stroke="#2e2d75" stroke-miterlimit="10" stroke-width="2"/><line x1="1173.71" y1="703.55" x2="1167.79" y2="738.54" fill="none" stroke="#2e2d75" stroke-miterlimit="10" stroke-width="2"/><path d="M1166.24,664.23s-7.08-5.65-12.19,5.63-16.11,42.84-17.56,71.42h27.67" fill="none" stroke="#2e2d75" stroke-miterlimit="10" stroke-width="2"/><path d="M1166.24,659.1s-10.92-7.84-14.23,5.08c0,0-.83,8.24-.45,12" fill="none" stroke="#2e2d75" stroke-miterlimit="10" stroke-width="2"/><path d="M1153,760.23h-33s-.68-4,11.77-7.39,15.12-11.56,15.12-11.56" fill="none" stroke="#2e2d75" stroke-miterlimit="10" stroke-width="2"/><path d="M1184.07,866.6s2.63,11.56,2.7,18.27h-35.89s.2-3.58,10.53-5.45,11.43-12.82,11.43-12.82Z" fill="#fff" stroke="#2e2d75" stroke-miterlimit="10" stroke-width="2"/><path d="M1238.39,641.51s-7.9-4.57-5.77-16,4.36-21.58-7.72-25.83-19.68,6.71-19.68,6.71-5.59,8.38-5.7,15.2-.78,20.46-9.72,23.59-20,7.24-19.09,13.35" fill="none" stroke="#2e2d75" stroke-miterlimit="10" stroke-width="2"/><path d="M1233.25,635l-11.76-12.48s8.42-4.72,3.71-9.44-8.29,5.53-8.29,5.53L1206,612.44v13.69s-.07,8.69,4.58,9.3,10.51-1.55,10.51-1.55v14.46" fill="none" stroke="#2e2d75" stroke-miterlimit="10" stroke-width="2"/><path d="M1232.22,633.28l-10-10.75,4.48-4.54-.58-4.55-3.9-1.85-4.16,3.32-1.77,3.33-10.77-6.43.45,17.44,2.49,6,5.63.83,6.65-1.79-.06,5.57v9l-3.2,6.47-3.39,9.34-2.18,7.81-1.47,5.31-39.41-19.46.64-4.15,7.55-5.19,10.36-4.25,3.52-.8,3.2-5.51,3-11.47.1-8.23,4.16-10.37,4.16-5.12,5.25-3.39s9.21-3.52,16.38,1.6,3.91,18.11,3.91,18.11l-1.35,9.19Z" fill="#2e2d75"/><path d="M1243,790.49h0a11.23,11.23,0,0,1-11.23,11.23h-17" fill="none" stroke="#2e2d75" stroke-miterlimit="10" stroke-width="2"/><polyline points="-445.66 709.81 -189.9 709.81 -134.16 709.81 -134.16 650.49 -78.43 650.49 -78.43 591.17 -22.69 591.17 -22.69 531.84 33.04 531.84 -22.02 531.94 33.71 531.94 33.71 472.61 89.45 472.61 89.45 413.29 145.18 413.29 145.18 353.97 264.56 353.97" fill="none" stroke="#2e2d75" stroke-miterlimit="10" stroke-width="2"/><path d="M514.34,383.43,510,394.92a3.33,3.33,0,0,0-.13,1.95l6.8,28.6a31.9,31.9,0,0,0,0,4.31c.19.87,2.07,5.28,2.07,5.28l1.58-1.85,1.38-4.14-1.05-2.48,1.05-9.24-3-18.34,5-9.23Z" fill="#fff" stroke="#2e2d75" stroke-miterlimit="10" stroke-width="2"/><path d="M536.86,448.37s1.43,5.91,23.63,7h9.61l4.67,46.12s8.75-.93,12.68-.85,1.11.16,1.11.16l-1.27-55a10.73,10.73,0,0,0-6.93-9.22l-23-8.63L522,424.78a100.56,100.56,0,0,0-6,26.14c-1,13.69-2.45,87.8-4.62,89.83,0,0,9.89,2.75,15.86,2.75l14.48-94.25" fill="#302d77" stroke="#2e2d75" stroke-miterlimit="10" stroke-width="2"/><path d="M524.64,415.5s-1.1,6.36-2,8.23l31.89,4.49Z" fill="#fff" stroke="#2e2d75" stroke-miterlimit="10" stroke-width="2"/><path d="M563.05,384.26l2.76,13.1,11.72-9.65-5.71-19.85a20.6,20.6,0,0,0-15.75-12.64,77.84,77.84,0,0,0-17.45-.82,20.75,20.75,0,0,0-17,10.94l-9.07,17,11.21,7.41,1.48-14s-3.2,40.66-4.93,50.5c0,0,37.59-1.73,42.74,3.45l.1-45.71" fill="#fff" stroke="#2e2d75" stroke-miterlimit="10" stroke-width="2"/><path d="M563.9,336.58h0a13.5,13.5,0,0,0-12.53-13.46l-1.06-.07a13.48,13.48,0,0,0-14,10c-1.74,6.54.31,16.66-5,22.29-5.71,6.07-4.18,10.55-1.5,13.43a13,13,0,0,0,8.89,4l16.74.53c7.29.55,12.2-5.72,10.86-12.91A150.29,150.29,0,0,1,563.9,336.58Z" fill="#302d77" stroke="#2e2d75" stroke-miterlimit="10" stroke-width="2"/><path d="M588.69,510.82s.92-8-7.09-8-7.84,8-7.84,8Z" fill="#302d77" stroke="#2e2d75" stroke-miterlimit="10" stroke-width="2"/><path d="M524.74,553.5s.92-8-7.09-8-7.84,8-7.84,8Z" fill="#302d77" stroke="#2e2d75" stroke-miterlimit="10" stroke-width="2"/><line x1="586.32" y1="501.23" x2="586.32" y2="504.25" fill="none" stroke="#2e2d75" stroke-miterlimit="10" stroke-width="2"/><line x1="576.43" y1="501.23" x2="576.43" y2="504.25" fill="none" stroke="#2e2d75" stroke-miterlimit="10" stroke-width="2"/><line x1="523.95" y1="542.87" x2="522.49" y2="546.52" fill="none" stroke="#2e2d75" stroke-miterlimit="10" stroke-width="2"/><line x1="513.82" y1="540.81" x2="513.41" y2="546.52" fill="none" stroke="#2e2d75" stroke-miterlimit="10" stroke-width="2"/><path d="M566.55,396.75l1.33,6.12,11.72,28.27,1.08,3.24a.28.28,0,0,0,.54,0c.3-1,.91-2.32,1.82-1.86,1.38.69,2.07.69,3.45,1.38.62.3,3.45,1.37,3.45.69s-.84-3.52-2.07-4.14-3.45-1.38-3.45-2.07-7.58-27.57-7.58-27.57l-2.36-10.59Z" fill="#fff" stroke="#2e2d75" stroke-miterlimit="10" stroke-width="2"/><rect x="-136.44" y="-11.55" width="221.16" height="316.02" fill="none" stroke="#2e2d75" stroke-miterlimit="10" stroke-width="2"/><rect x="-142.7" y="304.47" width="233.67" height="13.14" fill="#302d77" stroke="#2e2d75" stroke-linejoin="round" stroke-width="2"/><path d="M-136.44,317.61s106.34,37.49,221.16,0" fill="none" stroke="#2e2d75" stroke-miterlimit="10" stroke-width="2"/><polygon points="134.84 -11.68 84.72 44.86 84.72 63.56 134.84 7.03 134.84 -11.68" fill="none" stroke="#2e2d75" stroke-miterlimit="10" stroke-width="2"/><rect x="-29.99" y="324.25" width="12.83" height="77.15" transform="translate(339.25 386.4) rotate(90)" fill="none" stroke="#2e2d75" stroke-miterlimit="10" stroke-width="2"/><line x1="39.41" y1="90.02" x2="39.41" y2="23.64" fill="#302d77" stroke="#2e2d75" stroke-linejoin="round" stroke-width="2"/><line x1="985" y1="1088" x2="985" y2="976" fill="none" stroke="#2d2f75" stroke-miterlimit="10" stroke-width="2"/><path d="M1580.51,393.77s64.08,12.31,85.16,63.73l-9,10.85s-31.39-38.72-56.72-38.63" fill="#fff" stroke="#2e2d75" stroke-miterlimit="10" stroke-width="2"/><path d="M1566.91,533.11l40.1,47.34a23.33,23.33,0,0,0,8.56,7.83l65,31.35,17-10.44-60.9-46.81a23.09,23.09,0,0,1-5.88-7.63l-14.57-30.32a10.09,10.09,0,0,1-1-4.8c.2-4.53-.31-3.2-5.3-17.63" fill="none" stroke="#2e2d75" stroke-miterlimit="10" stroke-width="2"/><path d="M1546,515l-33.62,22.9a27,27,0,0,0-5.84,16.75l-20,62.35,23.1,2.63s26.32-55.76,29.2-57.13,34.83-19.06,34.83-19.06" fill="none" stroke="#2e2d75" stroke-miterlimit="10" stroke-width="2"/><line x1="1569.52" y1="391.03" x2="1568.82" y2="379.63" fill="#302d77" stroke="#2e2d75" stroke-miterlimit="10" stroke-width="2"/><line x1="1554.15" y1="396.63" x2="1550.11" y2="385.18" fill="#302d77" stroke="#2e2d75" stroke-miterlimit="10" stroke-width="2"/><path d="M1557.4,383.34l-8.76,2.25a6.74,6.74,0,0,1-8.25-5.1l-4.92-22.63" fill="none" stroke="#2d2f75" stroke-miterlimit="10" stroke-width="2"/><path d="M1669.18,471.48s-5.09-.26-.69,2.12,10.18.51,6.52,3.08-2.53,3.4-4.65,2.71-3,.44-5.24-1.24-4.25-1.4-4.55-3.37-3.2-6.53-3.2-6.53l8.91-9.49,9.53,9.71s4.84,5.35,5,6.34a10.3,10.3,0,0,1-.55,3.11l-5.83-5.2s-2.94-2.06-2.6-1.87S1669.18,471.48,1669.18,471.48Z" fill="#fff" stroke="#2e2d75" stroke-miterlimit="10" stroke-width="2"/><path d="M1457.31,472c-1.61-.26-11.68-5.62-11-1.56s2,4.57,2,4.57a17.73,17.73,0,0,1-5,1.13c-3.15.31-9.25-3.54-6.8,1.94s2.26,9.95,6.72,10.14S1459.9,484,1459.9,484Z" fill="#fff" stroke="#2e2d75" stroke-miterlimit="10" stroke-width="2"/><path d="M1490,620l18,2s5,7,3,12-1,1-1,1l-2.74,1.91h-33.78A4.72,4.72,0,0,1,1476,631C1480,629,1489,625,1490,620Z" fill="#302d77" stroke="#2e2d75" stroke-miterlimit="10" stroke-width="2"/><path d="M1685,620l13-8s6,0,8,8l-14,13s-10,3-14,3-2-5,0-6S1685,623,1685,620Z" fill="#302d77" stroke="#2e2d75" stroke-miterlimit="10" stroke-width="2"/><path d="M1543.36,359.51s-6,4.06-10.72-3.88-.54-11.39-.54-11.39a22.46,22.46,0,0,1,8.56-2.78c5.06-.59,7.89,1.64,10.74.72s1.29-2.52,7-1.21,7.28-.26,9.46,3.24,2.5,4.44,4.35,10.15,1.21,7,1.8,12-3.19,3.14-2.29,9.15.47,7.91-2.15,6.31-3.29,2.82-4.53-1l-4.63-14.27c-1.23-3.81-.52-14.55-4.68-7.94s.23,10.43-2.93,10.41-2.52-1.29-4.09-2.88S1547.16,358.27,1543.36,359.51Z" fill="#302d77" stroke="#2e2d75" stroke-miterlimit="10" stroke-width="2"/><path d="M1541,414s8-23,30.21-22.34c14.61.43,27.54,4.53,28.62,31.72s-2.49,41.59,3.84,49.68,11.6,25,11.6,25-32.35,27.71-69.4,19.08c0,0,.93-43.73-7.76-71.2" fill="#fff" stroke="#2e2d75" stroke-miterlimit="10" stroke-width="2"/><path d="M1566,435.06c-25.74,38.95-105.6,51.19-105.6,51.19l-3.58-16.69c56.21-14.93,92.77-66.39,92.77-66.39s12.1-10.38,21.43-.84" fill="#fff" stroke="#2e2d75" stroke-miterlimit="10" stroke-width="2"/><polyline points="58.44 785.45 131.74 785.45 131.74 755.55 166.98 755.55 166.98 726.29 201.48 726.29 201.48 698.39" fill="none" stroke="#2e2d75" stroke-miterlimit="10" stroke-width="2"/><polyline points="107.8 785.45 107.8 634.44 25.35 634.44 25.35 761.93" fill="none" stroke="#2e2d75" stroke-miterlimit="10" stroke-width="2"/><circle cx="99.32" cy="709.95" r="3.22" fill="#302d77"/></svg>