<svg xmlns="http://www.w3.org/2000/svg" viewBox="0 0 1920 1080"><title>illustration-final</title><path d="M310.23,72.22s-133.5,63.42-29.87,137.1c0,0-180.94,9.21-176.15,90.94S99,402,99,402,15,437,15,547" fill="none" stroke="#2e2d75" stroke-linejoin="bevel" stroke-width="2"/><path d="M142.31,226.28S145,292,316,306c0,0-41,66-12,132,0,0-55,96,74,171,0,0-22,98-12,128,0,0-350.6,61.51-350.6,229.25S15,1129,15,1129" fill="none" stroke="#2e2d75" stroke-linejoin="bevel" stroke-width="2"/><path d="M353.13,152.74s15.41,98.89,156.64,123.08c0,0-76.77,214.69,171.23,356.44,0,0-239,125.74-244,265.74-3,84-3.32,93.07-3.32,93.07S335,1051,335,1089" fill="none" stroke="#2e2d75" stroke-linejoin="bevel" stroke-width="2"/><path d="M1957.48,911.83c-33.23-68.1-79.21-186.87-88.13-336.06" fill="none" stroke="#2e2d75" stroke-miterlimit="10" stroke-width="2"/><path d="M1825.85,584.25s8.83,28.32,38.49,16.34C1864.34,600.59,1856.13,572,1825.85,584.25Z" fill="none" stroke="#2e2d75" stroke-miterlimit="10" stroke-width="2"/><path d="M1831.3,648.51s13,26.68,40.5,10.4C1871.8,658.91,1859.41,631.89,1831.3,648.51Z" fill="none" stroke="#2e2d75" stroke-miterlimit="10" stroke-width="2"/><path d="M1844.28,719.34s16.4,24.72,41.52,4.91C1885.8,724.25,1869.92,699.12,1844.28,719.34Z" fill="#302d77" stroke="#2e2d75" stroke-miterlimit="10" stroke-width="2"/><path d="M1888.51,690.33s28.29,8.94,35.4-22.25C1923.91,668.08,1895.77,658.5,1888.51,690.33Z" fill="none" stroke="#2e2d75" stroke-miterlimit="10" stroke-width="2"/><path d="M1878.71,623.66s28.29,8.94,35.4-22.26C1914.11,601.4,1886,591.82,1878.71,623.66Z" fill="#302d77" stroke="#2e2d75" stroke-miterlimit="10" stroke-width="2"/><polyline points="1566 384.49 1395.75 384.49 1395.75 446.4 1378.41 446.4 1378.41 508.31 1361.08 508.31 1361.08 570.21 1343.75 570.21 1343.75 632.12 1326.42 632.12" fill="none" stroke="#2e2d75" stroke-miterlimit="10" stroke-width="2"/><polyline points="1780.47 632.12 1763.13 632.12 1763.13 570.21 1745.8 570.21 1745.8 508.31 1728.47 508.31 1728.47 446.4 1711.14 446.4 1711.14 384.49 1591 384.49" fill="none" stroke="#2e2d75" stroke-miterlimit="10" stroke-width="2"/><line x1="1395.75" y1="446.4" x2="1494" y2="446" fill="none" stroke="#2e2d75" stroke-miterlimit="10" stroke-width="2"/><line x1="1674.68" y1="446.4" x2="1711.38" y2="446.4" fill="none" stroke="#2e2d75" stroke-miterlimit="10" stroke-width="2"/><line x1="1360.11" y1="570.21" x2="1627" y2="570.21" fill="none" stroke="#2e2d75" stroke-miterlimit="10" stroke-width="2"/><line x1="1526.92" y1="508.31" x2="1744.57" y2="508.31" fill="none" stroke="#2e2d75" stroke-miterlimit="10" stroke-width="2"/><path d="M1395.75,384.49H1340V325.17h-55.73V265.84h-55.74V206.52H1172.8V147.2H989.43c-.31-.32,0-140.2,0-140.2" fill="none" stroke="#2e2d75" stroke-miterlimit="10" stroke-width="2"/><polyline points="1711.71 384.49 1767.45 384.49 1767.45 325.17 1823.19 325.17 1823.19 265.84 1878.92 265.84 1878.92 206.52 1934.66 206.52" fill="none" stroke="#2e2d75" stroke-miterlimit="10" stroke-width="2"/><path d="M1338.22,236.79s-2.49,10.59-2.93,11.38,14.38,58,14.38,58l-1,8.87h-7.32l-24.13-60.27a6.39,6.39,0,0,1-.42-1.71L1308,220.4S1327,236.07,1338.22,236.79Z" fill="#302d77" stroke="#2e2d75" stroke-miterlimit="10" stroke-width="2"/><polyline points="1336.87 153.93 1349.86 143.41 1317.55 90.41" fill="none" stroke="#2e2d75" stroke-miterlimit="10" stroke-width="2"/><path d="M1310.35,209.39l-27.8-2.54c-3.14.33-6.29,1.9-6,5.23l.9,42.62s-4.63,6.3-11.49,1.26l-10.36-48.39,14.74-14.3,20.65,3.1,16.77,9.09Z" fill="#302d77" stroke="#2e2d75" stroke-miterlimit="10" stroke-width="2"/><polygon points="1347.66 145.19 1361.82 171.76 1354.74 176.68 1335.85 155.35 1347.66 145.19" fill="#302d77" stroke="#2e2d75" stroke-miterlimit="10" stroke-width="2"/><path d="M1360.4,232.41,1318.78,93.58a20.24,20.24,0,0,0-13-13.46h0c-6.11-2.06-13.54-2.09-18.81,1.63l-2.22,1.73c-4.84,4.67-7.58,10.13-7.93,16.29l-3.7,64.46a14.72,14.72,0,0,1-9.72,13l-2.69,1a13.61,13.61,0,0,0-9,12.8V208.1s31.06-5,41.93,1.29C1315.8,222.21,1329.53,247.51,1360.4,232.41Z" fill="#fff" stroke="#2e2d75" stroke-miterlimit="10" stroke-width="2"/><path d="M1306.07,105.94,1298,166.47l-30-23.06,15.42-47a14.52,14.52,0,0,1,10.3-8.27" fill="#fff" stroke="#2e2d75" stroke-miterlimit="10" stroke-width="2"/><path d="M1280.7,264.26s2.37-4.28-1.4-9.56c0,0-8.15,4.78-13.38,1.26,0,0-16.05,1.86-16.56,7.85v1.63h30.82Z" fill="#fff" stroke="#2e2d75" stroke-miterlimit="10" stroke-width="2"/><path d="M1350.17,305s-3.28,8.65-10.76,7.36c0,0-5.85,5-6.79,5.39s-6.43,1.14-9.08,3.39a2.27,2.27,0,0,0,0,3.77H1343l14-8.8S1360.34,309.83,1350.17,305Z" fill="#fff" stroke="#2e2d75" stroke-miterlimit="10" stroke-width="2"/><polygon points="1275.12 148.92 1246.26 156.5 1248.82 163.93 1290.95 161.06 1275.12 148.92" fill="#302d77" stroke="#2e2d75" stroke-miterlimit="10" stroke-width="2"/><polygon points="1288.54 80.81 1287.12 75.11 1295.45 71.05 1298.65 75.93 1296.1 78.77 1288.54 80.81" fill="#302d77" stroke="#2e2d75" stroke-miterlimit="10" stroke-width="2"/><path d="M1271.52,56.7l9.71-4,8.37,12.13,1.35,8.44-2.86,1.12a6.5,6.5,0,0,1-8-2.8l-8.57-14.87" fill="#302d77" stroke="#2e2d75" stroke-miterlimit="10" stroke-width="2"/><path d="M1268.6,57.87l10-4.53S1292.24,72,1293.67,81.9c0,0,13.5,5.93,22.23-1.09s1.64-22.42,1.64-22.42-13.26-32.56-43-17.75C1268.06,43.47,1265.22,52,1268.6,57.87Z" fill="#fff" stroke="#2e2d75" stroke-miterlimit="10" stroke-width="2"/><polyline points="1246.26 156.5 1239.66 155.24 1235.65 155.24" fill="#fff" stroke="#2e2d75" stroke-miterlimit="10" stroke-width="2"/><line x1="1240.96" y1="157.9" x2="1229.88" y2="158.72" fill="#fff" stroke="#2e2d75" stroke-miterlimit="10" stroke-width="2"/><line x1="1241.92" y1="160.93" x2="1229.03" y2="162.72" fill="#fff" stroke="#2e2d75" stroke-miterlimit="10" stroke-width="2"/><line x1="1242.79" y1="163.72" x2="1232.86" y2="166.3" fill="#fff" stroke="#2e2d75" stroke-miterlimit="10" stroke-width="2"/><polyline points="1248.82 163.93 1242.79 166.47 1235.65 168.19" fill="#fff" stroke="#2e2d75" stroke-miterlimit="10" stroke-width="2"/><polyline points="1356.07 177.81 1358.42 184.11 1360.51 187.53" fill="#fff" stroke="#2e2d75" stroke-miterlimit="10" stroke-width="2"/><line x1="1360.02" y1="181.62" x2="1366.48" y2="190.65" fill="#fff" stroke="#2e2d75" stroke-miterlimit="10" stroke-width="2"/><line x1="1362.12" y1="179.21" x2="1370.34" y2="189.29" fill="#fff" stroke="#2e2d75" stroke-miterlimit="10" stroke-width="2"/><line x1="1364.05" y1="177.02" x2="1371.41" y2="184.16" fill="#fff" stroke="#2e2d75" stroke-miterlimit="10" stroke-width="2"/><polyline points="1361.09 171.76 1366.39 175.59 1371.57 180.8" fill="#fff" stroke="#2e2d75" stroke-miterlimit="10" stroke-width="2"/><polygon points="1681.58 0.68 1736.64 0.68 1745.63 80.98 1672.59 80.98 1681.58 0.68" fill="none" stroke="#2d2f75" stroke-miterlimit="10" stroke-width="2"/><rect x="1668.28" y="80.98" width="81.66" height="9.07" transform="translate(3418.22 171.03) rotate(180)" fill="#302f77" stroke="#2d2f75" stroke-miterlimit="10" stroke-width="2"/><line x1="1683.55" y1="64.19" x2="1688.54" y2="13.38" fill="#302f77" stroke="#2d2f75" stroke-miterlimit="10" stroke-width="2"/><path d="M1752,232s-38.81-77.86-38.81-144.56" fill="none" stroke="#2d2f75" stroke-miterlimit="10" stroke-width="2"/><path d="M1703.86,85.52s1.23,61.68-35.58,98.49" fill="none" stroke="#2d2f75" stroke-miterlimit="10" stroke-width="2"/><path d="M1699,124.71s34.35,69-60.91,84.59C1638.12,209.3,1647.55,142.43,1699,124.71Z" fill="none" stroke="#2d2f75" stroke-miterlimit="10" stroke-width="2"/><path d="M1759.56,245s9-84.57-38.79-100.17C1720.77,144.83,1679.7,201,1759.56,245Z" fill="none" stroke="#2d2f75" stroke-miterlimit="10" stroke-width="2"/><line x1="1878.92" y1="265.84" x2="1878.92" y2="385.42" fill="none" stroke="#2d2f75" stroke-miterlimit="10" stroke-width="2"/><polyline points="1805.53 632.12 1282.93 632.12 1282.93 886" fill="none" stroke="#2e2d75" stroke-miterlimit="10" stroke-width="2"/><rect y="43.51" width="11" height="185" fill="none" stroke="#2d2f75" stroke-miterlimit="10" stroke-width="2"/><line x1="-551" y1="228.51" x2="104" y2="229" fill="none" stroke="#2d2f75" stroke-miterlimit="10" stroke-width="2"/><polyline points="15 547 15 420 22 419.51 22 362.51 11 347.51 11 295.51 0 284.51 0 228.51" fill="none" stroke="#2d2f75" stroke-miterlimit="10" stroke-width="2"/><line x1="11" y1="295.51" x2="-37" y2="295.51" fill="none" stroke="#2d2f75" stroke-miterlimit="10" stroke-width="2"/><line x1="21" y1="362.51" x2="-3" y2="362.51" fill="none" stroke="#2d2f75" stroke-miterlimit="10" stroke-width="2"/><rect x="-420" y="43.51" width="420" height="9" fill="none" stroke="#2d2f75" stroke-miterlimit="10" stroke-width="2"/><polygon points="-15.06 446.24 1.76 443.88 -56.88 479.62 -29.08 448.2 -20.28 446.97 -15.06 446.24" fill="#fff" stroke="#2d2f75" stroke-linejoin="round" stroke-width="2"/><polyline points="-523.97 1087 -523.97 934.88 -426.97 934.88 -425.97 934.88 -425.97 837.88 -328.97 837.88 -327.97 837.88 -327.97 740.88 -230.97 740.88 -229.97 740.88 -229.97 643.88 -132.97 643.88 -131.97 643.88 -131.97 546.88 -128.97 546.88 15 547 14.53 1031.38 -389.47 1031.38" fill="none" stroke="#2d2f75" stroke-miterlimit="10" stroke-width="2"/><path d="M-49,927.54c0,11-17.1,53.75-17.1,53.75,4.88,6.11,0,0,9.77,13.44S-5,997.17-5,997.17A188.58,188.58,0,0,1,8.39,948.31c11-25.66,6.25-61.73-4.88-68.41-12.22-7.33-24.43-2.45-31.76,2.44s-34.21,20.77-34.21,20.77l-3.66,29.32s23.21-6.11,29.32-6.11,11-8.55,11-8.55" fill="none" stroke="#2d2f75" stroke-miterlimit="10" stroke-width="2"/><path d="M-20.92,843.25s-6.11,0-9.78,1.22-9.77,0-9.77,0l-2.44-1.22s-2.45-4.89-1.22-7.33S-46.58,831-42.91,831s4.88-1.22,6.11-2.44,0-2.44,3.66-2.44,11-1.22,12.22-1.22,3.59,1,7.33,0c5.1-1.34,13,5.31,8.55,11,0,0-2.45-2.44,0,2.44s3.66,7.33,3.66,9.78,1.22,7.33,0,8.55-2.44,2.44-2.44,3.66,1.22,4.89-1.22,0-1.22,0-3.67-7.33-1.22-7.33-3.66-8.55A58.14,58.14,0,0,0-18.48,842s3.66,6.11,2.44,8.55,6.11,6.11,0,2.44-4.88-3.66-6.11-6.11A2.67,2.67,0,0,1-20.92,843.25Z" fill="#2d2f75" stroke="#2d2f75" stroke-miterlimit="10" stroke-width="2"/><polyline points="740 37 740 520.64 1098 520.64 1098 147" fill="none" stroke="#2d2f75" stroke-miterlimit="10" stroke-width="2"/><line x1="740" y1="180.24" x2="1097.86" y2="180.24" fill="none" stroke="#2d2f75" stroke-miterlimit="10" stroke-width="2"/><line x1="797.66" y1="171.25" x2="797.66" y2="74.87" fill="none" stroke="#2d2f75" stroke-miterlimit="10" stroke-width="2"/><line x1="860.48" y1="147.15" x2="860.48" y2="50.77" fill="none" stroke="#2d2f75" stroke-miterlimit="10" stroke-width="2"/><path d="M968.51,180.24s-17.67,181.2,64.09,283.61" fill="none" stroke="#2d2f75" stroke-miterlimit="10" stroke-width="2"/><path d="M901.89,180.24s2.48,163.13-60.34,219.92" fill="none" stroke="#2d2f75" stroke-miterlimit="10" stroke-width="2"/><path d="M899.21,235.79s-49.92,55.08-80.9,57.66" fill="none" stroke="#2d2f75" stroke-miterlimit="10" stroke-width="2"/><path d="M976.58,330.08s-22.3,110.53-60.16,127.74" fill="none" stroke="#2d2f75" stroke-miterlimit="10" stroke-width="2"/><path d="M876.54,257.4s-36.71-25-81.46,39.49C795.08,296.89,851.29,334.94,876.54,257.4Z" fill="none" stroke="#2d2f75" stroke-miterlimit="10" stroke-width="2"/><path d="M878.36,339.41s-51.44.51-57.47,78C820.89,417.38,908.28,414.63,878.36,339.41Z" fill="#302d77" stroke="#2e2d75" stroke-linejoin="round" stroke-width="2"/><path d="M958.4,394s-53.17,9.66-54.89,88.83C903.51,482.78,985.74,466.05,958.4,394Z" fill="none" stroke="#2d2f75" stroke-miterlimit="10" stroke-width="2"/><path d="M996.53,400.16s50.7,6.89,54.14,75.73C1050.67,475.89,983.7,481.06,996.53,400.16Z" fill="#302d77" stroke="#2e2d75" stroke-linejoin="round" stroke-width="2"/><path d="M1032,461.89c-24.84-23.12-36.31-61.35-36.42-61.73l1.72-.86c.11.38,11.38,38.53,35.87,61.33Z" fill="#fff"/><path d="M841.26,398.22l-1.15-1.28c24.51-22,37.46-58.39,37.58-58.74l1.72.86C879.29,339.41,866.09,376,841.26,398.22Z" fill="#fff"/><path d="M905.83,927.55,923,1002s-22.8,21.41-40,20.26-12.35.29-19.79-1.44S842,1014.6,842,1014.6v-91S896.33,926.81,905.83,927.55Z" fill="#302d77" stroke="#2e2d75" stroke-linejoin="round" stroke-width="2"/><path d="M1722.22,927.22s3.72,10.5-13.82,11.48-49.27,1-49.27,1l2.64-7.62Z" fill="#302d77" stroke="#2e2d75" stroke-miterlimit="10" stroke-width="2"/><path d="M1718,937.68l19.68,151.18h-6.39l-25.55-150S1713.16,933.81,1718,937.68Z" fill="#fff" stroke="#2e2d75" stroke-miterlimit="10" stroke-width="2"/><path d="M1658.83,937.68l-19.68,151.18h6.39l25.55-150S1663.62,933.81,1658.83,937.68Z" fill="#fff" stroke="#2e2d75" stroke-miterlimit="10" stroke-width="2"/><path d="M1684.51,937.68l1.49,151.18h6.39l4.38-150S1689.3,933.81,1684.51,937.68Z" fill="#fff" stroke="#2e2d75" stroke-miterlimit="10" stroke-width="2"/><polygon points="1735.3 1071.83 1641.37 1071.83 1642.02 1067.67 1734.43 1067.67 1735.3 1071.83" fill="#302d77" stroke="#2e2d75" stroke-miterlimit="10" stroke-width="2"/><path d="M1676.11,930.57l8.09-.66,1.29-6.68Z" fill="none"/><path d="M1716.57,927.68l-32.44,2.59-8.74,45.26a10.82,10.82,0,0,0,.19,4.93l18.78,68.36,15.61-5L1701.09,983a7.26,7.26,0,0,1,.15-2.86C1703,973.22,1710.94,942.58,1716.57,927.68Z" fill="#fff" stroke="#2e2d75" stroke-miterlimit="10" stroke-width="2"/><path d="M1608.39,953.63l-1.26,3.56a14.75,14.75,0,0,0,1.4,12.75l33.61,53.7,15.13-5-20.06-52.34a6,6,0,0,1,1.89-6.82L1675.61,931l-47.39,3.8L1613,947.12A14.76,14.76,0,0,0,1608.39,953.63Z" fill="#fff" stroke="#2e2d75" stroke-miterlimit="10" stroke-width="2"/><path d="M1620.85,935.34l7.37-.59.09-.08Z" fill="#fff" stroke="#2e2d75" stroke-miterlimit="10" stroke-width="2"/><path d="M1726.57,926.87c-2.82.15-6.18.35-9.92.6l-.08.21Z" fill="#fff" stroke="#2e2d75" stroke-miterlimit="10" stroke-width="2"/><path d="M1684.13,930.27l.07-.36-8.09.66-.5.38" fill="#fff" stroke="#2e2d75" stroke-miterlimit="10" stroke-width="2"/><path d="M1439.41,937.68l19.67,151.18h-6.39l-25.55-150S1434.61,933.81,1439.41,937.68Z" fill="#fff" stroke="#2e2d75" stroke-miterlimit="10" stroke-width="2"/><path d="M1380.28,937.68l-19.67,151.18H1367l25.55-150S1385.08,933.81,1380.28,937.68Z" fill="#fff" stroke="#2e2d75" stroke-miterlimit="10" stroke-width="2"/><path d="M1406,937.68l1.5,151.18h6.39l4.37-150S1410.75,933.81,1406,937.68Z" fill="#fff" stroke="#2e2d75" stroke-miterlimit="10" stroke-width="2"/><polygon points="1456.76 1071.83 1362.82 1071.83 1363.47 1067.67 1455.89 1067.67 1456.76 1071.83" fill="#302d77" stroke="#2e2d75" stroke-miterlimit="10" stroke-width="2"/><path d="M819.25,967.43l19.68,121.43h-6.39L807,968.36S814.46,964.32,819.25,967.43Z" fill="#fff" stroke="#2e2d75" stroke-miterlimit="10" stroke-width="2"/><path d="M760.13,967.43l-19.68,121.43h6.39l25.56-120.5S764.92,964.32,760.13,967.43Z" fill="#fff" stroke="#2e2d75" stroke-miterlimit="10" stroke-width="2"/><path d="M785.81,967.43l1.49,121.43h6.39l4.38-120.5S790.6,964.32,785.81,967.43Z" fill="#fff" stroke="#2e2d75" stroke-miterlimit="10" stroke-width="2"/><polygon points="836.6 1075.18 742.67 1075.18 743.32 1071.84 835.73 1071.84 836.6 1075.18" fill="#302d77" stroke="#2e2d75" stroke-miterlimit="10" stroke-width="2"/><polygon points="769.68 943.04 1936 943.04 1212.78 877.21 769.68 943.04" fill="#fff" stroke="#2e2d75" stroke-miterlimit="10" stroke-width="2"/><rect x="769.68" y="943.04" width="1166.32" height="9.94" fill="#302d77" stroke="#2e2d75" stroke-miterlimit="10" stroke-width="2"/><rect x="750.71" y="959" width="77.63" height="10.06" rx="3.13" fill="#302d77" stroke="#2e2d75" stroke-linejoin="round" stroke-width="2"/><polygon points="862.94 796.13 865.27 807.95 862.94 811.85 855.74 811.85 854.86 798.36 862.94 796.13" fill="#302d77" stroke="#2e2d75" stroke-linejoin="round" stroke-width="2"/><path d="M882.37,798.85V779.91h-7.68s-6.71,14.52-13.18,17.71-5.75,14.66-5.75,14.66S842.21,770,871.87,769.64s10.5,29.21,10.5,29.21" fill="#302d77" stroke="#2e2d75" stroke-linejoin="round" stroke-width="2"/><path d="M882.37,798.85s-1.61,3.2,2.55,9.81,4.1,8.93,4.1,8.93l-14.33-6.11v-5.64A9.72,9.72,0,0,0,882.37,798.85Z" fill="#302d77" stroke="#2e2d75" stroke-linejoin="round" stroke-width="2"/><path d="M1389,817.08l11.59,11.75,10.37-11,26.19,11s12.31,29.91,13.81,42a275.41,275.41,0,0,1,1.48,28.14l-15.18-1.38s-4-31.86-6.52-38.43c0,0-2.76,21.25-.45,37.79l-55.82-5.08s-.31-31.51-3.71-40.19c0,0-11.31,23.83-13.3,27.27s4.93,11.82,4.93,11.82l-18.49-1.68L1339.5,881s10.43-40.69,22.53-55.08A117.75,117.75,0,0,1,1389,817.08Z" fill="none" stroke="#2e2d75" stroke-miterlimit="10" stroke-width="2"/><path d="M1400.94,833.06s3.4,16.18,1.88,25-.9,11.84,0,19.16a89.16,89.16,0,0,1,.77,12" fill="none" stroke="#2e2d75" stroke-miterlimit="10" stroke-width="2"/><line x1="1410.93" y1="817.84" x2="1408.76" y2="809.52" fill="none" stroke="#2e2d75" stroke-miterlimit="10" stroke-width="2"/><line x1="1388.97" y1="817.08" x2="1392.44" y2="806.28" fill="none" stroke="#2e2d75" stroke-miterlimit="10" stroke-width="2"/><path d="M1398.12,808.21l10.78.89a5.08,5.08,0,0,0,5.48-4.73l1.1-16.57" fill="none" stroke="#2e2d75" stroke-miterlimit="10" stroke-width="2"/><path d="M1408.76,784.67s3.16,4.73,6.72,6.29-.7,7.5-.7,7.5l7.38-2.83s.93-6.23,0-9.65.63-7.48-2.52-10.54-3.17-7.68-6.86-5.73-3-1.82-9-2.58-11-6.37-13.12-1.39-.62,7.4-1.73,9.76-3.41-.45-2.24,7.5,3.92,12.32,2.24,13.87-1.57,4.11-2.56,6.26.8,4.3,2.56,6.39,1.72.26,1.73-3.24,1.64-3.79,1.74-7.72,3.51-11.95,3.51-11.95.55.49,2.17-1.94,3.36-2.15,6.23-1.67A10.61,10.61,0,0,1,1408.76,784.67Z" fill="#302d77" stroke="#2e2d75" stroke-linejoin="round" stroke-width="2"/><path d="M1670.18,844.51S1667.29,855,1680.43,855s12.49-13.7,12.49-13.7l11.06-2.21a8.8,8.8,0,0,0,6.29-5l16.51-36.3-8.41-41.55,8.72-4,16.2,43.39a9,9,0,0,1,.55,3.33l0,2.25a9,9,0,0,1-.58,3l-19.67,48.25s-7.94,28.68-3,46.55c0,0-4.43,12.93-17.35,11.12s-12.56-2.45-17.35.18-7.95,4.6-12.14,4.93a62.45,62.45,0,0,1-8.46,0l-5.6.14s2.48-24.53.61-35.89a2.59,2.59,0,0,0-4.46-1.35l-25,27.12a6.86,6.86,0,0,1-3.32,1.83L1603,912.73,1584.26,911l31.33-15.69a7.76,7.76,0,0,0,2.78-2.34L1645,856.72a12.13,12.13,0,0,1,5.11-4Z" fill="#302d77" stroke="#2e2d75" stroke-linejoin="round" stroke-width="2"/><path d="M1715.3,906.66s1.24,8.47,2,12.5l.7,4-56.18-5.11v-2.74s15.26,1.37,22.15-4,15.71-1.77,15.71-1.77S1711.13,912,1715.3,906.66Z" fill="none" stroke="#2e2d75" stroke-miterlimit="10" stroke-width="2"/><polyline points="1725.77 752.3 1725.77 745.59 1721.17 741.61 1721.17 746.96" fill="none" stroke="#2e2d75" stroke-linejoin="round" stroke-width="2"/><polyline points="1719.81 742.89 1718.04 741.61 1718.92 746.96" fill="none" stroke="#2e2d75" stroke-linejoin="round" stroke-width="2"/><line x1="1716.69" y1="743.32" x2="1712.91" y2="735.37" fill="none" stroke="#2e2d75" stroke-linejoin="round" stroke-width="2"/><line x1="1715.55" y1="745.3" x2="1709.03" y2="736.08" fill="none" stroke="#2e2d75" stroke-linejoin="round" stroke-width="2"/><polyline points="1718.92 753.9 1715.56 748.99 1711.02 745.3" fill="none" stroke="#2e2d75" stroke-linejoin="round" stroke-width="2"/><path d="M1692.92,842s-6-2.78-7.06-8.48" fill="none" stroke="#2e2d75" stroke-linejoin="round" stroke-width="2"/><path d="M1670.18,845.47s5.57,1.81,4.09-9.71" fill="none" stroke="#2e2d75" stroke-linejoin="round" stroke-width="2"/><path d="M1667.66,844.51c-1,0-1.85-1.26-3.61-2.48s-1.54-1.66-2-4.24a36.59,36.59,0,0,0-1-5.67c-1-4.33-.21-5.78-2.89-14s0-5.85,0-5.85a19.46,19.46,0,0,1,3.92-7.54c2.88-3.2,14.29-3.86,18.21-.56s6.88,9.73,19.52,15.52,9.2,20.93,9.2,20.93l-11,4.91-8.59-6.9s6.94-4.3-2-8.12-18.89-14-18.89-14l-4,1.59,3.72,12.9a7.11,7.11,0,0,0,8.7,4.88h0c3.09-.84,7.07-3.68,7.07-6.89v-.63" fill="none" stroke="#2e2d75" stroke-linejoin="round" stroke-width="2"/><path d="M1087,825c-9.86,6.51-21,45-21,45h-12s0-1,6-34c3.94-21.65,12.61-40.29,18.11-50.55a22,22,0,0,1,15.57-11.26l2.51-.44,8.75-1.58h23.12l12.33,1.88c2.88.44,9.61,1,12.61,3,0,0,14,7,15,28s-2,30-2,30l-6.2,10.62" fill="none" stroke="#2e2d75" stroke-linejoin="round" stroke-width="2"/><path d="M1158,812s1,35,3.39,49.37c0,0-23.26,22-53,9.21-15.33-7.2-26-1.6-26-1.6s8.58-26,3.58-53" fill="none" stroke="#2e2d75" stroke-linejoin="round" stroke-width="2"/><path d="M1131.51,757.72c0,1.34,4,10.39-2.67,9.41s-6.77,1.78-14.9,0-5.47-.72-8.12-1.79-.39-1.89-2.45-6.89-1.33,1.12-3.19-9.77-1.7-24.21,12.68-23.65,17.16,2.78,18.28,10.39S1131.51,757.72,1131.51,757.72Z" fill="#302d77" stroke="#2e2d75" stroke-linejoin="round" stroke-width="2"/><line x1="1109.64" y1="772.09" x2="1109.64" y2="766.98" fill="#302d77" stroke="#2e2d75" stroke-linejoin="round" stroke-width="2"/><line x1="1130.54" y1="772.55" x2="1128.84" y2="767.13" fill="#302d77" stroke="#2e2d75" stroke-linejoin="round" stroke-width="2"/><path d="M1159.59,862.9s3.89,34.57-22.2,37-57-2.52-57-2.52l-40.86,5.6v-16a6.21,6.21,0,0,1,4.37-5.93l38.54-12s9.24-4.93,16.93-1.43S1138.67,884.8,1159.59,862.9Z" fill="#302d77" stroke="#2e2d75" stroke-linejoin="round" stroke-width="2"/><path d="M893.13,836.14l4,7a13.85,13.85,0,0,1-.16,14l-3.83,6.39s-5.94,6.48,0,31.09l6,24.62S865.26,932,842,924c0,0-1.25-46.73,0-70.08" fill="none" stroke="#2e2d75" stroke-linejoin="round" stroke-width="2"/><path d="M846.5,837.84l-9.06,31.82-16-8.52,10.34-38.7a10.3,10.3,0,0,1,8.23-7.49l16.85-2.86a2.58,2.58,0,0,1,2.69,1.31l4.2,7.77h11v-8.23a1.09,1.09,0,0,1,1.53-1l17.66,7.84a10,10,0,0,1,4.75,4.42l13.8,26-13.56,13.33-3.4-4" fill="none" stroke="#2e2d75" stroke-linejoin="round" stroke-width="2"/><path d="M874.69,814.38v-8.54s-7.83,3.33-11.87-8l-3.23,15.52" fill="#fff" stroke="#2e2d75" stroke-miterlimit="10" stroke-width="2"/><path d="M862.94,794.73v1.4a9.71,9.71,0,0,0,9.71,9.71h0a9.72,9.72,0,0,0,9.72-9.71V779.91" fill="none" stroke="#2e2d75" stroke-linejoin="round" stroke-width="2"/><polyline points="909.84 852.77 921.66 872.41 942.36 895.53 947.79 899.87 954.2 908.97" fill="none" stroke="#2e2d75" stroke-linejoin="round" stroke-width="2"/><polyline points="947.57 902.95 949.09 905.67 952.1 911.14" fill="none" stroke="#2e2d75" stroke-linejoin="round" stroke-width="2"/><polyline points="945.6 904.59 947.57 910.12 950.49 915.1" fill="none" stroke="#2e2d75" stroke-linejoin="round" stroke-width="2"/><polyline points="901.12 861.34 912.49 876.17 940.55 904.59 940.55 908.54 944.05 915.1" fill="none" stroke="#2e2d75" stroke-linejoin="round" stroke-width="2"/><polyline points="943.18 906.34 944.06 910.12 947.29 915.1" fill="none" stroke="#2e2d75" stroke-linejoin="round" stroke-width="2"/><polyline points="835.27 868.5 830.83 879.45 838.22 923.97 841.04 928.37 841.96 932.3" fill="none" stroke="#2e2d75" stroke-linejoin="round" stroke-width="2"/><path d="M823.24,862.07l-3.56,13.76a5.64,5.64,0,0,0,.06,2.24l11.08,47.2V934" fill="none" stroke="#2e2d75" stroke-linejoin="round" stroke-width="2"/><line x1="833.84" y1="930.11" x2="833.84" y2="933.51" fill="none" stroke="#2e2d75" stroke-linejoin="round" stroke-width="2"/><line x1="836.39" y1="930.11" x2="836.39" y2="932.39" fill="none" stroke="#2e2d75" stroke-linejoin="round" stroke-width="2"/><line x1="838.22" y1="930.11" x2="839.77" y2="932.62" fill="none" stroke="#2e2d75" stroke-linejoin="round" stroke-width="2"/><path d="M897.22,919.86,898,924l-54.76,7.84V925S875.14,929,897.22,919.86Z" fill="#302d77" stroke="#2e2d75" stroke-linejoin="round" stroke-width="2"/><polyline points="856.63 1019.08 860.39 1078.85 871.41 1078.85 874.75 1022.3" fill="none" stroke="#2e2d75" stroke-linejoin="round" stroke-width="2"/><polyline points="914.9 1011.09 901.12 1071.63 890.07 1069.23 895.65 1020.1" fill="none" stroke="#2e2d75" stroke-linejoin="round" stroke-width="2"/><path d="M859.31,1078.85s.26-4.8,3.19-3.87,3.17,2.41,8.91,3.87,5.61,8.65,5.61,8.65-2.4,1.36-10.12,1.36S856.64,1088.58,859.31,1078.85Z" fill="#302d77" stroke="#2e2d75" stroke-linejoin="round" stroke-width="2"/><path d="M889.41,1069a2.94,2.94,0,0,1,4-.75c2.62,1.4,4.87,2.09,7.11,3.43s3.93,8.26,4.68,9,4.58,3.28,4.58,3.84,2.25,3.55-3.93,3.55-15-8.44-16.83-9.18S885,1077.56,889.41,1069Z" fill="#302d77" stroke="#2e2d75" stroke-linejoin="round" stroke-width="2"/><polyline points="1045.88 947.06 1046.56 949.02 1052.14 965.15 1076.5 960.18 1076.5 954.99" fill="#302d77" stroke="#2e2d75" stroke-linejoin="round" stroke-width="2"/><path d="M1052.14,965.15s-4.09,8.53-8.27,10-8.61,3.2-7.13,9.1,22.87,1,22.87,1l20.74-8.52s3-6.17-3.85-16.54C1064.77,954.49,1052.14,965.15,1052.14,965.15Z" fill="#fff" stroke="#2e2d75" stroke-miterlimit="10" stroke-width="2"/><path d="M1446,952l-19.32,83.38-18-.92L1418,953S1439.35,954.09,1446,952Z" fill="#302d77" stroke="#2e2d75" stroke-linejoin="round" stroke-width="2"/><path d="M1392,952l2.52,78.41-15.92,4L1365,952A206.5,206.5,0,0,0,1392,952Z" fill="#302d77" stroke="#2e2d75" stroke-linejoin="round" stroke-width="2"/><path d="M1410.59,1037.6l14,1s9.53,9.26,9.43,10.69c0,.41,0,1,0,1.59a5.64,5.64,0,0,1-4.49,5.56c-1.9.38-4.94,1.3-7.21-.83-6.7-6.25-11.85-7.66-12.82-9.08S1410.59,1037.6,1410.59,1037.6Z" fill="#fff" stroke="#2e2d75" stroke-miterlimit="10" stroke-width="2"/><path d="M1381.12,1036.41l11.58-3s3.19,4.34,3.19,6.65-6.83,14.94-11.88,15.14-2.89-6.45-2.89-6.45S1382.28,1041.85,1381.12,1036.41Z" fill="#fff" stroke="#2e2d75" stroke-miterlimit="10" stroke-width="2"/><path d="M1697.52,1049.79l11-3.33a2.16,2.16,0,0,1,2.37.8l3.89,5.4a2.13,2.13,0,0,1,.41,1.26v2.9a2.15,2.15,0,0,1-1,1.82c-3.7,2.33-16.51,10.29-19.76,10.67-2.79.33-7,1.14-9.09,1.55a2.09,2.09,0,0,1-2.42-1.32c-.31-1,0-2.24,2.33-3.59,4-2.29,9.47-12.22,11-15.11A2.12,2.12,0,0,1,1697.52,1049.79Z" fill="#302d77" stroke="#2e2d75" stroke-linejoin="round" stroke-width="2"/><path d="M1645.25,1024.77l11-3.79s5.5,2.65,5.5,5.2v3.75l-1.17,2.93s-20.17,9.81-20.69,9.81-5.89,1.46-4.13-2.17S1645.42,1030.79,1645.25,1024.77Z" fill="#302d77" stroke="#2e2d75" stroke-linejoin="round" stroke-width="2"/><path d="M1086,801.46s38.25-6.58,65.21,0" fill="none" stroke="#2e2d75" stroke-linejoin="round" stroke-width="2"/><rect x="1207" y="948" width="30" height="139.86" fill="#302d77" stroke="#2e2d75" stroke-miterlimit="10" stroke-width="2"/><rect x="1768" y="948" width="30" height="139.86" fill="#302d77" stroke="#2e2d75" stroke-miterlimit="10" stroke-width="2"/><rect x="898" y="953" width="30" height="136" fill="#fff" stroke="#2e2d75" stroke-miterlimit="10" stroke-width="2"/><path d="M1056.66,870s-5.66,4-5.66,5-1.11,2.55-1.55,4.27S1050,883,1051,881s3-3,3-4,10-3,10-3l1.12-4Z" fill="#fff" stroke="#2e2d75" stroke-linejoin="round" stroke-width="2"/><polyline points="1286 915 1331 895 1403 908 1358 935 1295 922" fill="none" stroke="#2d2f75" stroke-miterlimit="10" stroke-width="2"/><line x1="1383" y1="910" x2="1355" y2="926" fill="none" stroke="#2d2f75" stroke-miterlimit="10" stroke-width="2"/><line x1="1369" y1="908" x2="1349" y2="918" fill="none" stroke="#2d2f75" stroke-miterlimit="10" stroke-width="2"/><line x1="1339" y1="903" x2="1308" y2="918" fill="none" stroke="#2d2f75" stroke-miterlimit="10" stroke-width="2"/><polyline points="1201 888 1248 895 1228 927 1174 918 1196 895" fill="none" stroke="#2e2d75" stroke-linejoin="round" stroke-width="2"/><polyline points="1180 905 1178 901 1151 912 1164 938 1191 927 1186.51 920.09" fill="none" stroke="#2e2d75" stroke-linejoin="round" stroke-width="2"/><path d="M302.12,936.65l60-33.45a9.26,9.26,0,0,1,2.09-.85l50.9-13.7,9,14L377.23,917a9.09,9.09,0,0,0-3.7,2.18l-27.41,26.47v39l-2.5,2.08a3,3,0,0,0,.54,5l13.2,6.92a13.16,13.16,0,0,0,8,1.37l51.8-7.4v15l-57.35,12.22a13.12,13.12,0,0,1-7.16-.48l-52.49-18.74s-75,1-79,4c0,0-15-55-8-69s7-12,8-12,88,9,88,9" fill="#2d2f75" stroke="#2d2f75" stroke-miterlimit="10" stroke-width="2"/><polyline points="346.12 952.34 353.12 956.65 353.12 976.65 346.12 981.83" fill="none" stroke="#2d2f75" stroke-miterlimit="10" stroke-width="2"/><path d="M221.12,1004.65s-34,3-45,0-56-10-56-10l-87,26-2-28,76-29,51-5" fill="none" stroke="#2d2f75" stroke-miterlimit="10" stroke-width="2"/><polyline points="175.12 966.65 111.12 934.65 39.12 932.65 39.12 908.65 121.12 902.65 219.31 924.48" fill="none" stroke="#2d2f75" stroke-miterlimit="10" stroke-width="2"/><path d="M393.12,961.65l-20.71-5.37a7.38,7.38,0,0,0-8.7,4.4l-1.59,4" fill="none" stroke="#2d2f75" stroke-miterlimit="10" stroke-width="2"/><line x1="364.12" y1="960.65" x2="353.12" y2="960.34" fill="none" stroke="#2d2f75" stroke-miterlimit="10" stroke-width="2"/><line x1="353.12" y1="975.72" x2="361.12" y2="979.65" fill="none" stroke="#2d2f75" stroke-miterlimit="10" stroke-width="2"/><path d="M399.12,959.65c-6.14,1.53-8,1-10,5s-3,7-6,6-6-2-7-2h-1s5,5,4,5,0,3-4,1-2-2-4-2-5-1-7-1-1-2-2,0a23.83,23.83,0,0,0-2,7.5c0,1.5-2,3.5,0,5.5s9,4,9,4-2-4,2,0,4,5,8,4,2,2,8-1,5,0,9-5,5-5,6-9,3-8,3-11S403.12,958.65,399.12,959.65Z" fill="#2d2f75" stroke="#2d2f75" stroke-miterlimit="10" stroke-width="2"/><path d="M424.12,902.65s15,5,13,0a9.24,9.24,0,0,0-4.27-4.62,1.29,1.29,0,0,1,.29-2.39c7.73-2,23.64-6.23,19.89-7-4.91-1-6.91-3-12.91-3-4.95,0-15.33,4.75-18.82,6.43a1.27,1.27,0,0,0-.6,1.73l4.42,8.84" fill="#fff" stroke="#2d2f75" stroke-miterlimit="10" stroke-width="2"/><path d="M420.12,992.65a59.23,59.23,0,0,0,4-6c1-2,1,2,1,4s8,1,14-1-10,9-15,11l-5,2v-10Z" fill="#fff" stroke="#2d2f75" stroke-miterlimit="10" stroke-width="2"/><path d="M15.12,898.65s6-3,6,2a16.7,16.7,0,0,0,3,9l13,4s6,12,0,17c0,0-20,1-22-6S15.12,898.65,15.12,898.65Z" fill="#2d2f75" stroke="#2d2f75" stroke-miterlimit="10" stroke-width="2"/><path d="M14.12,1003s15.89-5.3,16.89,2.7.22,11-16.89,19.51Z" fill="#2d2f75" stroke="#2d2f75" stroke-miterlimit="10" stroke-width="2"/><polyline points="104.21 7 104.21 389.04 22 389" fill="none" stroke="#2e2d75" stroke-miterlimit="10" stroke-width="2"/><path d="M104.21,226.23s244.8-11.33,342,108.45" fill="none" stroke="#2e2d75" stroke-miterlimit="10" stroke-width="2"/><path d="M104.21,201.5S381,192.26,687.09,293.85" fill="none" stroke="#2e2d75" stroke-miterlimit="10" stroke-width="2"/><path d="M274.67,242.27c45.08,62.93,80.92,149.81,71.61,262.86" fill="none" stroke="#2e2d75" stroke-miterlimit="10" stroke-width="2"/><path d="M351.29,476s29-6.18,33.1,25.56C384.39,501.55,355.45,508.38,351.29,476Z" fill="none" stroke="#2e2d75" stroke-miterlimit="10" stroke-width="2"/><path d="M346.45,404.24s26.47-13.39,38.53,16.24C385,420.48,358.76,434.49,346.45,404.24Z" fill="none" stroke="#2e2d75" stroke-miterlimit="10" stroke-width="2"/><path d="M325.34,327s23.21-18.48,41,8.09C366.36,335.07,343.52,354.1,325.34,327Z" fill="#302d77" stroke="#2e2d75" stroke-miterlimit="10" stroke-width="2"/><path d="M329.72,368.57s4.21,29.37-27.73,31.3C302,399.87,297.12,370.55,329.72,368.57Z" fill="none" stroke="#2e2d75" stroke-miterlimit="10" stroke-width="2"/><path d="M342.72,441.79s-.67,29.66-32.49,26.32C310.23,468.11,310.25,438.38,342.72,441.79Z" fill="#302d77" stroke="#2e2d75" stroke-miterlimit="10" stroke-width="2"/><path d="M455.88,234.46c65.16,41.79,129.42,108.48,162.61,217" fill="none" stroke="#2e2d75" stroke-miterlimit="10" stroke-width="2"/><path d="M612.36,422.49S637,406,652.56,434C652.56,434,628.21,451,612.36,422.49Z" fill="none" stroke="#2e2d75" stroke-miterlimit="10" stroke-width="2"/><path d="M581.32,357.63s19.63-22.24,41.8.83C623.12,358.46,604,381.17,581.32,357.63Z" fill="none" stroke="#2e2d75" stroke-miterlimit="10" stroke-width="2"/><path d="M533.12,293.66s14.72-25.76,41.11-7.66C574.23,286,560.05,312.13,533.12,293.66Z" fill="#302d77" stroke="#2e2d75" stroke-miterlimit="10" stroke-width="2"/><path d="M552.58,330.68S567.35,356.4,538.4,370C538.4,370,523,344.57,552.58,330.68Z" fill="none" stroke="#2e2d75" stroke-miterlimit="10" stroke-width="2"/><path d="M591.75,393.89s10.35,27.8-20.45,36.47C571.3,430.36,560.31,402.74,591.75,393.89Z" fill="#302d77" stroke="#2e2d75" stroke-miterlimit="10" stroke-width="2"/><path d="M401.75,225.35c77-8.12,164.34-38.92,242.65-121" fill="none" stroke="#2e2d75" stroke-miterlimit="10" stroke-width="2"/><path d="M626,127.47s14.66,25.79,41.09,7.75C667,135.22,652.92,109.06,626,127.47Z" fill="none" stroke="#2e2d75" stroke-miterlimit="10" stroke-width="2"/><path d="M569.11,171.52s7.58,28.69,37.74,18C606.85,189.53,599.89,160.63,569.11,171.52Z" fill="none" stroke="#2e2d75" stroke-miterlimit="10" stroke-width="2"/><path d="M497.34,207.08s1.61,29.62,33.31,25.28C530.65,232.36,529.69,202.65,497.34,207.08Z" fill="#302d77" stroke="#2e2d75" stroke-miterlimit="10" stroke-width="2"/><path d="M531.33,182.72s24.75-16.37,5-41.52C536.31,141.2,511.15,157,531.33,182.72Z" fill="none" stroke="#2e2d75" stroke-miterlimit="10" stroke-width="2"/><path d="M594.69,143.79s21.72-20.21-1.92-41.77C592.77,102,570.57,121.78,594.69,143.79Z" fill="#302d77" stroke="#2e2d75" stroke-miterlimit="10" stroke-width="2"/><path d="M104.21,176.75c263.63-.68,345.1-46.36,423.41-128.43" fill="none" stroke="#2e2d75" stroke-miterlimit="10" stroke-width="2"/><path d="M509.17,71.43s14.66,25.79,41.09,7.75C550.26,79.18,536.14,53,509.17,71.43Z" fill="none" stroke="#2e2d75" stroke-miterlimit="10" stroke-width="2"/><path d="M452.33,115.48s7.58,28.68,37.74,18C490.07,133.49,483.12,104.58,452.33,115.48Z" fill="none" stroke="#2e2d75" stroke-miterlimit="10" stroke-width="2"/><path d="M380.56,151s1.61,29.62,33.31,25.28C413.87,176.32,412.92,146.6,380.56,151Z" fill="#302d77" stroke="#2e2d75" stroke-miterlimit="10" stroke-width="2"/><path d="M414.56,126.67s24.74-16.36,5-41.51C419.53,85.16,394.37,101,414.56,126.67Z" fill="none" stroke="#2e2d75" stroke-miterlimit="10" stroke-width="2"/><path d="M477.91,87.75S499.63,67.54,476,46C476,46,453.79,65.74,477.91,87.75Z" fill="#302d77" stroke="#2e2d75" stroke-miterlimit="10" stroke-width="2"/><path d="M445.42,327.5s14.67-25.79,41.09-7.75C486.51,319.75,472.39,345.91,445.42,327.5Z" fill="none" stroke="#2e2d75" stroke-miterlimit="10" stroke-width="2"/><path d="M583.09,256.77S590.3,228,620.6,238.29C620.6,238.29,614,267.28,583.09,256.77Z" fill="none" stroke="#2e2d75" stroke-miterlimit="10" stroke-width="2"/><path d="M615.29,275.82s-9.82,28,21.14,36.07C636.43,311.89,646.88,284.07,615.29,275.82Z" fill="#302d77" stroke="#2e2d75" stroke-miterlimit="10" stroke-width="2"/><path d="M662.21,281.45s7.22-28.78,37.51-18.49C699.72,263,693.13,292,662.21,281.45Z" fill="none" stroke="#2e2d75" stroke-miterlimit="10" stroke-width="2"/><path d="M391.59,283.44s7.58-28.68,37.74-18C429.33,265.44,422.37,294.34,391.59,283.44Z" fill="none" stroke="#2e2d75" stroke-miterlimit="10" stroke-width="2"/><path d="M319.82,250.87s1.61-29.62,33.31-25.27C353.13,225.6,352.18,255.31,319.82,250.87Z" fill="#302d77" stroke="#2e2d75" stroke-miterlimit="10" stroke-width="2"/><path d="M353.81,272.24s24.75,16.37,5,41.52C358.78,313.76,333.63,297.91,353.81,272.24Z" fill="none" stroke="#2e2d75" stroke-miterlimit="10" stroke-width="2"/><path d="M417.17,311.18s21.71,20.21-1.93,41.77C415.24,353,393,333.18,417.17,311.18Z" fill="#302d77" stroke="#2e2d75" stroke-miterlimit="10" stroke-width="2"/><path d="M103.67,149.3s244.8,11.33,342-108.46" fill="none" stroke="#2e2d75" stroke-miterlimit="10" stroke-width="2"/><path d="M274.13,133.26A390.08,390.08,0,0,0,329.74,22.53" fill="none" stroke="#2e2d75" stroke-miterlimit="10" stroke-width="2"/><path d="M324.79,48.55s23.21,18.48,41-8.1C365.82,40.45,343,21.42,324.79,48.55Z" fill="#302d77" stroke="#2e2d75" stroke-miterlimit="10" stroke-width="2"/><path d="M107.12,430.61s-.79-11.2-1.65-21.36l36.84,9.58v10.53A34,34,0,0,1,135,450.48h0a34.05,34.05,0,0,1-28.88,12.86l-77.3-4.62V439.08Z" fill="#fff" stroke="#2e2d75" stroke-miterlimit="10" stroke-width="2"/><path d="M416.62,64.35s21.72-20.21-1.92-41.77C414.7,22.58,392.49,42.35,416.62,64.35Z" fill="#302d77" stroke="#2e2d75" stroke-miterlimit="10" stroke-width="2"/><path d="M145.89,435.92V323.71S103.67,315.4,103.67,358s.54,31,.54,31L99.1,424.32a3.66,3.66,0,0,0,2.77,4.08l41.19,9.76A2.31,2.31,0,0,0,145.89,435.92Z" fill="#2f2f77" stroke="#2e2d75" stroke-miterlimit="10" stroke-width="2"/><path d="M28.78,458.72V439.08s-7.87-3.6-15.38-1.65v41.29s7,.65,8.91-5.75S25.62,460.87,28.78,458.72Z" fill="#2f2f77" stroke="#2e2d75" stroke-miterlimit="10" stroke-width="2"/><path d="M225.54,363.88c21.6,25.36,71.23,64.25,71.23,64.25l-10.51,11.5s-48.17-25.81-84.07-60.54" fill="none" stroke="#2e2d75" stroke-miterlimit="10" stroke-width="2"/><path d="M210.66,386.93c-13.43-2.67-63.93-2.3-63.93-2.3l-.84-48.92v-12s29.73-12.09,61.84-8.58c11.39.58,90.67-16.35,90.67-16.35l6,15-66.27,20.92" fill="none" stroke="#2e2d75" stroke-miterlimit="10" stroke-width="2"/><path d="M231.33,370.31s12.31-14.39,6.47-39.17" fill="none" stroke="#2e2d75" stroke-miterlimit="10" stroke-width="2"/><path d="M239,338.24l5.53,1.78s1.8,11.18-1,20.71l-8.74,3.85" fill="none" stroke="#2e2d75" stroke-miterlimit="10" stroke-width="2"/><line x1="244.15" y1="359.24" x2="251.83" y2="358.29" fill="none" stroke="#2e2d75" stroke-miterlimit="10" stroke-width="2"/><path d="M250.21,351.66,252,359.4a6.43,6.43,0,0,0,7.36,4.87l21-3.62" fill="none" stroke="#2e2d75" stroke-miterlimit="10" stroke-width="2"/><path d="M286.87,363.29c-4-.72-6.38.19-8.75-6s-12.83-3.56-12.83-3.56l-2.3-2.06s9.3-2.53,8-5.66-10.42-1.48-12.5,1.25S249,349.36,248,348.49s.32-8.53-.09-9.81.8-2.92,3.93-3.65,7.69-2.4,9.7-2.93,6.56-4,6.56-4,10.21-5.07,14.77.77,6.93,11.3,7.11,14.22a64.89,64.89,0,0,1,0,8.6c-.18,3.25-1.64,5.52,0,7.58s3.47,2.05,2.37,3.33S286.87,363.29,286.87,363.29Z" fill="#302d77" stroke="#2e2d75" stroke-miterlimit="10" stroke-width="2"/><line x1="245.14" y1="345.13" x2="247.99" y2="343.37" fill="#302d77" stroke="#2e2d75" stroke-miterlimit="10" stroke-width="2"/><path d="M294.27,430.87s7.12-.19,7.46.62,7,8.2,4.65,6.8-4-2.64-5-1.39-1.51,1.42-1.56,2.73-.47,1.85,3.42,1.89,6.09-1.75,5.68,0-3.82,3.14-3.82,3.14L303,445s-4.88,2.33-7.41-.31-7.53-7-7.53-7Z" fill="#fff" stroke="#2e2d75" stroke-miterlimit="10" stroke-width="2"/><path d="M352.39,731.62s6.47-3,7.11-2.39,9.66,4.76,7,4.4-4.74-.83-5.11.69-.82,1.91-.35,3.12.31,1.88,3.89.38,4.9-4,5.22-2.25-2.26,4.4-2.26,4.4L366,741.12s-3.55,4.07-6.92,2.65-9.68-3.42-9.68-3.42Z" fill="#fff" stroke="#2e2d75" stroke-miterlimit="10" stroke-width="2"/><path d="M303.45,311.47s7.65.36,7.77,0,4.75-4.32,4.6-5.87-1-1.9-3.69.58-5.27,1.69-5.13-.58,1-4.3,7.08-3.87,4.33-2.29.87-3-4.58-1.7-6.84-1-8.31,4.48-8.31,4.48Z" fill="#fff" stroke="#2e2d75" stroke-miterlimit="10" stroke-width="2"/><path d="M365.59,614.56s7.47,1.68,7.64,1.35,5.44-3.42,5.56-5-.67-2-3.73-.06-5.49.74-4.95-1.48,1.75-4,7.65-2.57,4.66-1.49,1.37-2.75-4.21-2.47-6.57-2.14-9,3-9,3Z" fill="#fff" stroke="#2e2d75" stroke-miterlimit="10" stroke-width="2"/><path d="M217.76,341.56s-27-4.47-53.52,0" fill="#fff" stroke="#2e2d75" stroke-miterlimit="10" stroke-width="2"/><polyline points="161.74 675.59 97.69 666.38 36.11 641.26 36.11 625 98.92 633.95 186.28 636.82 186.28 714.17 94.81 717.72 36.11 700 36.11 682.14 98.68 687.56 153.48 674.41" fill="#2f2f77" stroke="#2e2d75" stroke-miterlimit="10" stroke-width="2"/><path d="M33.33,638.58V625s-2.54-4.1-7.24-4.35l-3.92,3.46a16,16,0,0,0-5.32,10.21c-.63,5.62-1.45,13.63-1.45,17.6a7.51,7.51,0,0,0,9-5.59A10.75,10.75,0,0,1,33.33,638.58Z" fill="#fff" stroke="#2e2d75" stroke-miterlimit="10" stroke-width="2"/><path d="M33.33,697.79V684.21s-2.54-4.1-7.24-4.35l-3.92,3.46a16,16,0,0,0-5.32,10.21c-.63,5.62-1.45,13.63-1.45,17.6a7.51,7.51,0,0,0,9-5.59A10.75,10.75,0,0,1,33.33,697.79Z" fill="#fff" stroke="#2e2d75" stroke-miterlimit="10" stroke-width="2"/><path d="M292.63,682.52l-17.79-6.93s11.86-6.14,15.19-9.41,3.42-11.81,4.65-15.35,9.39-8.62,11.48-10.8,48.93-22.27,59.46-22.57l-3.26-14.83s-50.48,8.71-87.52,26.51-70.09,4.61-73.72,4.12-20.34-4.94-20,14,4,30.55,3.63,38.54-4,15.61-3.64,22.88,3.64,9.44,15.26,5.81,37.35-8.72,59.17-4,92.88,31.23,92.88,31.23l4.84-14.16s-53-21.34-56.3-27.56S296.26,689.06,292.63,682.52Z" fill="#fff" stroke="#2e2d75" stroke-miterlimit="10" stroke-width="2"/><line x1="292.63" y1="682.52" x2="303.1" y2="681.51" fill="#fff" stroke="#2e2d75" stroke-miterlimit="10" stroke-width="2"/><path d="M300.55,673.73l2.35,8.84a5.21,5.21,0,0,0,5.62,3.85l18.45-2" fill="#fff" stroke="#2e2d75" stroke-miterlimit="10" stroke-width="2"/><path d="M324.92,680.09s-.54,6.9,2.05,8,4.92,1.91,7.38.13,3.41-.68,3.55-4.37-1-1.29,0-5.74c.9-3.9-1.57-5.61-1.72-6.27-.86-3.84-2.21-5.93-1.38-7.57,1.11-2.18-5.51-4.11-7.84-5.07s-3.27-2.21-6.74-2.75-9,2.75-10.36,3.12a18.75,18.75,0,0,0-4.63,2.55c-1.37,1-2.87.82-3,1.92s-5.78,7.37.87,5.32,7.88-4,9.79-2.46,4.51.82,2.33,2.74-4.38,2.87-3.83,3.41.82.69,4,0,3-.16,5.74.68S324.91,677,324.92,680.09Z" fill="#302d77" stroke="#2e2d75" stroke-miterlimit="10" stroke-width="2"/><line x1="299.86" y1="668" x2="290.03" y2="666.18" fill="#fff" stroke="#2e2d75" stroke-miterlimit="10" stroke-width="2"/><line x1="681" y1="1087" x2="681" y2="632" fill="#2d2f75" stroke="#2d2f75" stroke-miterlimit="10" stroke-width="2"/><path d="M1516.23,312.69c5-2.38,10.41-4.75,10.41-4.75,10.24-6.14,7.85-13,7.85-13s-14.39-32.54,4.67-35.44,26.11,7,24.87,24-1.66,20.72-21.55,11.18" fill="none" stroke="#2e2d75" stroke-miterlimit="10" stroke-width="2"/><path d="M1412.76,402.51l7.87-6.63a70.35,70.35,0,0,0,10.36-7.05c4.24-3.52,33.14-36,51.11-52.95" fill="none" stroke="#2e2d75" stroke-miterlimit="10" stroke-width="2"/><path d="M1547.45,297s.89,13,9.53,18.86" fill="none" stroke="#2e2d75" stroke-miterlimit="10" stroke-width="2"/><polyline points="1428.19 410.48 1432.24 399.19 1438.04 392.15 1492.58 356.63" fill="none" stroke="#2e2d75" stroke-miterlimit="10" stroke-width="2"/><line x1="1423.05" y1="398.34" x2="1413.85" y2="406.17" fill="none" stroke="#2e2d75" stroke-miterlimit="10" stroke-width="2"/><line x1="1425.39" y1="400.27" x2="1416.09" y2="410.99" fill="none" stroke="#2e2d75" stroke-miterlimit="10" stroke-width="2"/><line x1="1428.19" y1="401.46" x2="1421.39" y2="413.59" fill="none" stroke="#2e2d75" stroke-miterlimit="10" stroke-width="2"/><path d="M1566,348.26l.64,55.62-18.91-.76-55.53-2.9h-.32l9.12-49.1-8.46,5.5-10.48-20.74,0,0c3.15-3,6.74-6.26,9-8a136.16,136.16,0,0,1,25.14-15.22s21.28,14.81,40.75,3.2l1.09.53c.69.47-1.91-.91-1.09-.53,9.25,4.3,16.58,13.26,23.63,25.28l9.43,18.09-17.7,11.14-6-11.14" fill="#302d77" stroke="#2e2d75" stroke-linejoin="round" stroke-width="2"/><polyline points="1590.04 359.26 1597.35 373.36 1622.72 409.33 1628.08 410.69 1634.42 416.75" fill="none" stroke="#2e2d75" stroke-miterlimit="10" stroke-width="2"/><polyline points="1572.34 370.4 1579.31 379.37 1612.23 413.59 1618.81 424.12 1627.59 431.33" fill="none" stroke="#2e2d75" stroke-miterlimit="10" stroke-width="2"/><line x1="1631.57" y1="430.53" x2="1622.46" y2="421.34" fill="none" stroke="#2e2d75" stroke-miterlimit="10" stroke-width="2"/><line x1="1635.09" y1="428.05" x2="1624.54" y2="417.82" fill="none" stroke="#2e2d75" stroke-miterlimit="10" stroke-width="2"/><line x1="1635.09" y1="422.93" x2="1627.02" y2="416.13" fill="none" stroke="#2e2d75" stroke-miterlimit="10" stroke-width="2"/><path d="M1537.78,430.53l-5.91,61L1510.26,550l-17.68-1.35,8.54-61.66-8.54-49.49s-4-26-.66-37.25l74.76,3.66,33.15,10.62a10,10,0,0,1,6.24,11.85L1584.55,496l-18.3.34-2.56-52.1-25.91-7.08" fill="none" stroke="#2e2d75" stroke-miterlimit="10" stroke-width="2"/><path d="M1506.92,556s-9.54-1.47-11.2-6.06-5.12,0-5.12,0a28.43,28.43,0,0,0-2.77,6.06c-.73,2.75,0,4,0,4L1502,568.7h16s6.78-2.79,0-6.09S1507.66,559.15,1506.92,556Z" fill="#302d77" stroke="#2e2d75" stroke-miterlimit="10" stroke-width="2"/><path d="M1580.92,497.68s-7.8,3-11.79,0c0,0-5,3.84-4.35,7.83s3.23,3.55,6.43,3.69,21.89,0,21.89,0,12-.32,3.67-4.24S1585,500.88,1580.92,497.68Z" fill="#302d77" stroke="#2e2d75" stroke-miterlimit="10" stroke-width="2"/><line x1="1508.64" y1="549.97" x2="1506.11" y2="555.88" fill="#302d77" stroke="#2e2d75" stroke-miterlimit="10" stroke-width="2"/><path d="M1542.46,268.72s7.29,2.26,11.81,0,4-1.39,5.73,0,2.78,1.83,4.17,1,2.77-1,3.64-4-2.25-3.41.35-6.74,6.95-4.2,1.56-8.54-1.39-6.6-6.42-4.69-4.52,4-8,4.69-5.56,1.21-8.68.34-5-3.64-6.43-.69.24,2.43-4.13,4.86-5.94,2.61-7.33,5.56-1.21,4-1.91,7.46-.35,5-1.21,7-3,.7-1,3.47,1.91.52,3.65,5,.69,3.13,1.74,4.51,2.43,4.69,2.78,0,1.73-3.29.86-7.12,0-6.59,1.05-7.64,2.08-2.25,3.12-2.08,2.78-.35,1.56,3-1.91,4-1.39,4.52,1.56,2.08,2.26.52a4.88,4.88,0,0,0,.7-3.13,27.62,27.62,0,0,1,.69-4.69Z" fill="#302d77" stroke="#2e2d75" stroke-linejoin="round" stroke-width="2"/></svg>