<?xml version="1.0" encoding="utf-8"?>
<!-- Generator: Adobe Illustrator 23.0.2, SVG Export Plug-In . SVG Version: 6.00 Build 0)  -->
<svg version="1.1" id="Layer_1" xmlns="http://www.w3.org/2000/svg" xmlns:xlink="http://www.w3.org/1999/xlink" x="0px" y="0px"
	 viewBox="0 0 1920 1080" style="enable-background:new 0 0 1920 1080;" xml:space="preserve">
<style type="text/css">
	.st0{fill:#302D77;stroke:#2E2D75;stroke-width:2;stroke-miterlimit:10;}
	.st1{fill:none;stroke:#2D2F75;stroke-width:2;stroke-miterlimit:10;}
	.st2{fill:none;stroke:#2E2D75;stroke-width:2;stroke-miterlimit:10;}
	.st3{fill:#FFFFFF;stroke:#2E2D75;stroke-width:2;stroke-miterlimit:10;}
	.st4{fill:#302F77;stroke:#2D2F75;stroke-width:2;stroke-miterlimit:10;}
	.st5{fill:#FFFFFF;stroke:#2D2F75;stroke-width:2;stroke-miterlimit:10;}
	.st6{fill:#2D2F75;stroke:#2D2F75;stroke-width:2;stroke-miterlimit:10;}
	.st7{fill:none;stroke:#2D2F75;stroke-width:2;stroke-linejoin:bevel;}
	.st8{fill:#2D2F75;}
	.st9{fill:#FFFFFF;stroke:#2D2F75;stroke-width:2;stroke-linejoin:round;}
	.st10{fill:#FFFFFF;stroke:#2D2F75;stroke-width:2;stroke-linejoin:bevel;}
	.st11{fill:none;stroke:#2D2F75;stroke-width:2;stroke-linejoin:round;}
	.st12{fill:#2D2F75;stroke:#2D2F75;stroke-width:2;stroke-linejoin:bevel;}
	.st13{fill:none;stroke:#FFFFFF;stroke-miterlimit:10;}
	.st14{fill:#2E2D75;stroke:#2E2D75;stroke-width:2;stroke-miterlimit:10;}
	.st15{fill:#2E2D75;}
	.st16{fill:none;stroke:#FFFFFF;stroke-width:2;stroke-miterlimit:10;}
	.st17{fill:#302D77;}
	.st18{opacity:0.12;}
	.st19{fill:none;stroke:#2E2D75;stroke-width:2;stroke-linejoin:round;}
	.st20{fill:#FFFFFF;}
	.st21{fill:#302D77;stroke:#2E2D75;stroke-width:2;stroke-linejoin:round;}
	.st22{fill:none;stroke:#2E2D75;stroke-width:2;stroke-linejoin:bevel;}
	.st23{fill:#2F2F77;stroke:#2E2D75;stroke-width:2;stroke-miterlimit:10;}
	.st24{clip-path:url(#SVGID_2_);}
	.st25{fill:none;stroke:#2E2D75;stroke-width:13;stroke-miterlimit:10;}
	.st26{fill:#FFFFFF;stroke:#2E2D75;stroke-width:2;stroke-linejoin:round;}
</style>
<title>index</title>
<path class="st0" d="M321.8,439.7l67.8-0.1c3,0,5.5,2.4,5.5,5.4v0c0,3-2.4,5.5-5.4,5.5l-67.8,0.1c-3,0-5.5-2.4-5.5-5.4v0
	C316.3,442.1,318.8,439.7,321.8,439.7z"/>
<path class="st0" d="M321.7,369.7l67.8-0.1c3,0,5.5,2.4,5.5,5.4v0c0,3-2.4,5.5-5.4,5.5l-67.8,0.1c-3,0-5.5-2.4-5.5-5.4v0
	C316.2,372.2,318.7,369.7,321.7,369.7z"/>
<path class="st1" d="M389.5,380.5c0,0-12.8,20.5,0.1,59.1"/>
<path class="st1" d="M322,380.6c0,0,12.8,20.4,0.1,59.1"/>
<line class="st1" x1="381.6" y1="383.8" x2="350.9" y2="436.6"/>
<line class="st1" x1="371.8" y1="383.8" x2="350.9" y2="419.6"/>
<path class="st1" d="M321.7,369.7c0,0,33.9-15,67.8-0.1"/>
<polyline class="st2" points="372.5,824.9 359.2,824.9 359.2,777.3 345.8,777.3 345.8,729.6 332.5,729.6 332.5,682 319.2,682 
	319.2,634.3 76.5,634.3 76.5,682 63.1,682 63.1,729.6 49.8,729.6 49.8,777.3 36.4,777.3 36.4,824.9 23.1,824.9 "/>
<line class="st2" x1="76.5" y1="682" x2="183.4" y2="682"/>
<line class="st2" x1="291.1" y1="682" x2="319.4" y2="682"/>
<line class="st2" x1="331.2" y1="777.3" x2="345.3" y2="777.3"/>
<line class="st2" x1="49" y1="777.3" x2="197.8" y2="777.3"/>
<line class="st2" x1="150.5" y1="729.6" x2="344.9" y2="729.6"/>
<line class="st2" x1="1.6" y1="824.9" x2="359.2" y2="824.9"/>
<polyline class="st2" points="205.4,824.9 248.3,824.9 248.3,870.5 291.2,870.5 291.2,916.2 334.1,916.2 334.1,961.8 377,961.8 
	377,1002.3 419.4,1002.3 419.4,1080 "/>
<path class="st0" d="M178.1,703.6c0,0-0.4,10.5-25.2,11.7h-10.7l0.6,50.5c0,0-15.6-0.1-20,0l-4.4,0.1l4.6-61.3
	c0.4-4.6,3.4-8.7,7.7-10.3l25.7-9.6l39.4-3.5c3.5,9.4,5.8,19.2,6.7,29.2c1.2,15.3,10.4,96.3,12.9,98.6c0,0-26.4,4.6-33,4.6
	l-8.6-105.1"/>
<path class="st3" d="M192.9,670.8c0,0,1.2,7.1,2.2,9.2l-35.6,5L192.9,670.8z"/>
<path class="st3" d="M152.7,629.7l-8.1,19.5l-10.9-15.3l6.6-16.2c3-7.4,9.7-12.8,17.6-14.1c6.4-1,13-1.4,19.5-0.9
	c8,0.5,15.2,5.1,19,12.2l10.1,19l-10.9,6.5l-3.3-13.8c0,0,5.4,26.3,7.8,38.8c0.3,1.5-0.6,3-2,3.5c-8.1,3.1-34.2,13.3-44.5,19.3
	c-1.2,0.7-2.6,0.3-3.3-0.9c-0.2-0.4-0.3-0.8-0.3-1.2v-50.3"/>
<path class="st0" d="M149.1,582.8L149.1,582.8c0-7.9,6.1-14.4,14-15l1.2-0.1c7.2-0.5,13.8,4.1,15.6,11.1c1.9,7.3,4,17.4,10,23.7
	c7.1,7.6,10.4,18,8.9,28.3l-43.4,10.3C155.4,641.1,148.4,608.7,149.1,582.8z"/>
<path class="st0" d="M121.4,777.3c0,0-1-8.9,7.9-8.9s8.8,8.9,8.8,8.9H121.4z"/>
<path class="st0" d="M192.8,824.9c0,0-1-8.9,7.9-8.9s8.8,8.9,8.8,8.9H192.8z"/>
<line class="st2" x1="124" y1="766.6" x2="124" y2="769.9"/>
<line class="st2" x1="135.1" y1="766.6" x2="135.1" y2="769.9"/>
<line class="st2" x1="193.7" y1="813" x2="195.3" y2="817.1"/>
<line class="st2" x1="205" y1="810.7" x2="205.4" y2="817.1"/>
<path class="st3" d="M204.4,635l4.9,12.8c0.3,0.7,0.3,1.4,0.1,2.2l-7.6,32c0.1,1.6,0.1,3.2,0,4.8c-0.2,1-2.3,5.9-2.3,5.9"/>
<line class="st2" x1="197.2" y1="669.2" x2="195.1" y2="680"/>
<polyline class="st3" points="198.9,659.8 199.5,652.4 195.8,644.2 "/>
<path class="st3" d="M112.8,699.8l5.2-7.4l2.2-4.9l16.3-26.3c0.1-0.2,0.2-0.4,0.3-0.6l5.9-14l-7.3-10.2l-5.4,14.7L116,685.1
	l-2.6,3.8l-3.2,1.8"/>
<line class="st2" x1="110.8" y1="698.6" x2="116" y2="692.5"/>
<line class="st2" x1="107.8" y1="698.6" x2="115.4" y2="691.1"/>
<line class="st2" x1="108.1" y1="695" x2="114.6" y2="689.8"/>
<polygon class="st1" points="293.7,634.3 236.2,634.3 226.8,550.4 303.1,550.4 "/>
<rect x="222.3" y="540.9" class="st4" width="85.3" height="9.5"/>
<line class="st1" x1="291.7" y1="568" x2="286.5" y2="621.1"/>
<path class="st1" d="M220.1,392.6c0,0,40.6,81.4,40.6,151.1"/>
<path class="st5" d="M275.5,504.7c0,0-35.9-72.1,63.6-88.4C339.1,416.3,329.3,486.2,275.5,504.7z"/>
<path class="st1" d="M270.4,545.7c0,0-1.3-64.5,37.2-102.9"/>
<path class="st1" d="M212.2,379c0,0-9.4,88.4,40.5,104.7C252.8,483.7,295.7,424.9,212.2,379z"/>
<path class="st1" d="M1850.7,687.7c0,8.5-13.2,41.4-13.2,41.4c3.8,4.7,0,0,7.5,10.3s39.5,1.9,39.5,1.9c1.7-12.9,5.2-25.6,10.3-37.6
	c8.5-19.7,4.8-47.5-3.8-52.6c-9.4-5.6-18.8-1.9-24.4,1.9s-26.3,16-26.3,16l-2.8,22.6c0,0,17.9-4.7,22.6-4.7s8.5-6.6,8.5-6.6"/>
<path class="st6" d="M1884.6,741.3c0,0-1.9,26.3-33.8,26.3s-51.7-48.9-51.7-48.9l-17.9,33.8h-21.6l20.8-46
	c3.4-7.5,10.8-12.3,19-12.3l0,0c5.2,0,10.3,2,14.2,5.5l32.5,32C1846,731.8,1872.3,740.3,1884.6,741.3z"/>
<path class="st1" d="M1743.6,767.6c0,0-1-5.6,2.8-6.6s16.9-7.5,16.9-7.5h15c0,0,4.7,1.9,3.8,6.6c-0.6,2.5-0.6,5,0,7.5H1743.6z"/>
<line class="st1" x1="1775.5" y1="623.7" x2="1786.8" y2="658.5"/>
<path class="st1" d="M1778.3,624.7l3.2-1.1c1.3-0.4,2.7,0.3,3.2,1.6c0,0,0,0,0,0l7.7,24.8"/>
<path class="st5" d="M1840.2,670.5l-28,6.8l-20.7-17.9c0,0,4.7-8.5,2.8-10.3s-2.8-0.9-3.8,1.9s-6.6-3.8-10.3-10.3s-1.9,2.8-1.9,2.8
	s0,11.3,5.6,18.8l20.9,28.7c1.1,1.5,2.8,2.4,4.6,2.3h2.8c0.5,0,1.1-0.1,1.6-0.2l23.7-3.5L1840.2,670.5z"/>
<line class="st1" x1="1871.9" y1="650.1" x2="1870.4" y2="642.5"/>
<path class="st1" d="M1860.1,622.8l3.2,14.7c0.8,3.6,4.4,5.9,8,5.1c0.1,0,0.2-0.1,0.3-0.1l10.1-2.8"/>
<path class="st6" d="M1872.3,622.8c-2.5,0-5.1,0.3-7.5,0.9c-2.8,0.9-7.5,0-7.5,0l-1.9-0.9c0,0-1.9-3.8-0.9-5.6s-1.9-3.8,0.9-3.8
	c1.8,0.2,3.5-0.5,4.7-1.9c0.9-0.9,0-1.9,2.8-1.9s8.5-0.9,9.4-0.9s2.8,0.8,5.6,0c3.9-1,10,4.1,6.6,8.5c0,0-1.9-1.9,0,1.9
	s2.8,5.6,2.8,7.5s0.9,5.6,0,6.6s-1.9,1.9-1.9,2.8s0.9,3.8-0.9,0s-0.9,0-2.8-5.6s-0.9-5.6-2.8-6.6c-1.5-0.7-3.1-1.3-4.7-1.9
	c0,0,2.8,4.7,1.9,6.6s4.7,4.7,0,1.9s-3.8-2.8-4.7-4.7C1870.9,624.6,1871.2,623.4,1872.3,622.8
	C1872.3,622.8,1872.3,622.8,1872.3,622.8z"/>
<line class="st1" x1="1884.6" y1="634.1" x2="1885.5" y2="648.2"/>
<rect x="1651.4" y="764.8" class="st6" width="79" height="2.8"/>
<path class="st1" d="M1736.7,727.1h-54.8c-0.8,0-1.5,0.6-1.7,1.3l-8.2,36.3h58.3l8-35.5c0.2-0.9-0.4-1.8-1.3-2
	C1737,727.2,1736.9,727.1,1736.7,727.1z"/>
<line class="st1" x1="1726.6" y1="730.9" x2="1682.4" y2="746.9"/>
<line class="st1" x1="1729.4" y1="736.5" x2="1704.1" y2="758.2"/>
<path class="st6" d="M946.7,279.1l13.4-1.7l-3.7-50.3c-0.3-5.3-4.8-9.4-10.2-9.2l0,0c-5.4,0.2-9.6,4.7-9.4,10.1c0,0.5,0.1,1,0.2,1.4
	L946.7,279.1z"/>
<path class="st6" d="M980.2,278.4l13.4,0.9l6.6-54.3c0.7-5.3-2.9-10.2-8.2-11l0,0c-5.3-0.8-10.3,2.9-11.1,8.2
	c-0.1,0.5-0.1,0.9-0.1,1.4L980.2,278.4z"/>
<path class="st1" d="M978.9,289.9c0,0,0.8-8.4,7.5-8.4s7.8,8.4,7.8,8.4H978.9z"/>
<path class="st1" d="M946.3,289.9c0,0,0.8-8.4,7.5-8.4s7.8,8.4,7.8,8.4H946.3z"/>
<path class="st1" d="M977.2,161.2l-5.8-1.7c0,0-0.8,5-6.7,4.2s-5.8-4.2-5.8-4.2l-2.7-0.5"/>
<path class="st1" d="M954.2,215.2c0,0,7,5.3,13.7,9.5s13.9-5.6,13.9-5.6"/>
<path class="st1" d="M988.4,198.3c0,0,4,14.8,6.8,16.8"/>
<path class="st1" d="M969.6,156.2c0,0,10.9,0,16.7,6.7s11.7,28.4,11.7,28.4l-5,2.5"/>
<path class="st5" d="M997.2,192.1l3.3,12.5l8.3,23.4c0,0,6.7,2.5,7.5,5h-9.2c-1.7,0-4.9-4.3-4.9-4.3"/>
<path class="st1" d="M989.7,184.6c2,6.8,4.5,13.5,7.5,20c5,10.9,5.4,29.2,5.4,29.2c0.4-11.7-7.4-24.9-12.1-31.8
	c-7.5-10.9-14.2-43.4-14.2-43.4"/>
<path class="st7" d="M947.9,198.8c0,0-13.4,15.9-14.2,25.9s0,6.7,0,6.7c-0.1-4.3,1.9-8.3,5.4-10.8c2.1-1.5,4.6-2.4,7.2-2.7
	c2.3-0.3,6.8-1.4,12.4-5.8c11.7-9.2-3.3-54.3-3.3-54.3s-6.7,5.9-15-5.9c-1.8-2.4-3.5-4.9-5-7.5l-6.7,15c0,0,5.8,10,14.2,11.7
	C942.9,171.2,951.4,192.5,947.9,198.8z"/>
<line class="st1" x1="959.6" y1="161.2" x2="960.8" y2="151.7"/>
<line class="st1" x1="969.6" y1="162" x2="969.2" y2="154.1"/>
<path class="st1" d="M959.6,133.6l-2.3,11.1c-0.6,3.2,1.3,6.3,4.4,7.2l0,0c3.1,1,6.4-0.6,7.7-3.6l0.3-0.6"/>
<path class="st6" d="M962.9,132.8c1.5,3.3,3.5,6.4,5.8,9.2c4.2,5-1.7,26.7-1.7,27.6s-1.7,7.5,5,6.7s12.5-6.7,13.4-10
	s0.8-36.8-17.5-39.3c-10-0.8-11.7,10-11.7,10c-0.5,2.5-0.2,5.1,0.8,7.5l2.5-10.9C960.8,133.6,961.9,133.3,962.9,132.8z"/>
<path class="st8" d="M956.9,233.9c7.2,0,15,0.8,22.1-0.2c4.5-0.6,6-4.3,5.5-8.6c0-1.4-1.2-2.5-2.6-2.5c-0.4,0-0.8,0.1-1.2,0.3
	l-6.7,3.4l3,3.9l4.8-4.2c2.1-1.8-0.7-5.6-3-3.9c-2.9,2.1-5.9,3.9-9.5,2.5c-3-1-5.8-2.4-8.4-4.2c-2.7-1.9-8-8-11.2-3.7
	c-2.3,3.1,0.5,6.1,3.3,7.3c3.1,1.3,5.8,1.9,8.6,4c2,1.5,4.3,2.6,6.8,3.2l0.7-4.9c-3.7,0.4-9.4,1.5-13.1,0.3l1.8,1.7
	c0.2,0.7,0.6-1.4,0.7-1.8l-3.7,1.4c3.1,1.5,6.4,2.7,9.7,3.6c3.2,0.9,4.2-3.6,1.3-4.8c-2.5-1-5-1.9-7.5-2.8c-3.1-1-4.4,3.8-1.3,4.8
	c2.5,0.8,5,1.7,7.5,2.8l1.3-4.8c-2.9-0.8-5.8-1.9-8.5-3.1c-1.2-0.7-2.8-0.2-3.5,1c-0.1,0.2-0.2,0.3-0.2,0.5
	c-0.8,2.3-1.7,4.6,0.7,6.1c3.3,2.1,11.1,0.4,14.7,0c2.7-0.3,3.6-4.1,0.7-4.9c-4.1-1.2-7-4.3-11-5.7c-0.6-0.2-2.3-1.1-2.9-0.9
	c-2.6,0.6-0.9,2.3,0.2,3.2c1.6,1.3,3.3,2.5,5.1,3.5c2.7,1.5,6.3,3.9,9.3,4.1c3.8,0.3,8-2.1,10.9-4.2l-3-3.9l-4.8,4.2
	c-2.3,1.9,0.6,5.2,3,3.9l6.7-3.4l-3.8-2.1c0.6,5.3-6.8,3.6-10.2,3.7l-12.5,0.1C953.7,228.9,953.7,233.9,956.9,233.9L956.9,233.9z"/>
<rect x="1145.9" y="79.3" class="st1" width="9.2" height="154.6"/>
<rect x="785.8" y="79.3" class="st1" width="9.2" height="154.6"/>
<line class="st1" x1="704" y1="233.9" x2="1232.8" y2="234.3"/>
<polyline class="st1" points="668,304 795,233.9 795,280.7 785.8,289.9 785.8,333.3 776.6,345.8 776.6,393.5 767.4,407.7 
	767.4,454.5 328.2,454.5 "/>
<polyline class="st1" points="1145.9,233.9 1145.9,280.7 1155.1,289.9 1155.1,333.3 1164.3,345.8 1164.3,393.5 1158.4,393.9 
	1158.4,500 1158.4,523 1268,523 "/>
<line class="st1" x1="776.6" y1="345.8" x2="980.5" y2="345.8"/>
<line class="st1" x1="1155.1" y1="289.9" x2="1115" y2="289.9"/>
<line class="st1" x1="1163.5" y1="345.8" x2="1143.4" y2="345.8"/>
<line class="st1" x1="795" y1="280.7" x2="824.3" y2="280.7"/>
<line class="st1" x1="785.8" y1="289.9" x2="847.6" y2="289.9"/>
<line class="st1" x1="947.9" y1="333.3" x2="1064" y2="333.3"/>
<line class="st1" x1="909.5" y1="289.9" x2="1025.6" y2="289.9"/>
<rect x="795" y="79.3" class="st1" width="350.9" height="7.5"/>
<line class="st1" x1="767.4" y1="407.7" x2="887.8" y2="407.7"/>
<line class="st1" x1="795" y1="454.5" x2="971.3" y2="454.5"/>
<polygon class="st9" points="1091.1,179 1101,182.2 1069.3,154.4 1082.8,176.4 1088,178 "/>
<polyline class="st5" points="1069.3,154.4 1056,166.3 1078.3,174.7 "/>
<polygon class="st10" points="1069.3,154.4 1078.3,174.7 1078.9,185.2 1082.8,176.4 "/>
<line class="st1" x1="1078.9" y1="184.9" x2="1075.3" y2="173.5"/>
<polygon class="st9" points="877.3,7 869.7,2.1 906,7.9 883.7,11 879.7,8.5 "/>
<polyline class="st5" points="906,7.9 905.4,23.5 887.4,13.1 "/>
<polygon class="st10" points="906,7.9 887.4,13.1 880,18.6 883.7,11 "/>
<line class="st1" x1="880.2" y1="18.4" x2="889.8" y2="14.5"/>
<polygon class="st9" points="719.4,142.4 711.3,149.3 752.4,136.5 726.1,136.6 721.9,140.3 "/>
<polyline class="st5" points="752.4,136.5 749.1,118.6 730,133.6 "/>
<polygon class="st10" points="752.4,136.5 730,133.6 720.5,128.5 726.1,136.6 "/>
<line class="st1" x1="720.8" y1="128.6" x2="732.5" y2="131.6"/>
<polygon class="st9" points="1133.3,415.8 1147.4,413.8 1098.4,443.7 1121.6,417.4 1129,416.4 "/>
<polyline class="st5" points="1098.4,443.7 1083.3,424.5 1115.2,418.6 "/>
<polygon class="st10" points="1098.4,443.7 1115.2,418.6 1118.4,404.7 1121.6,417.4 "/>
<line class="st1" x1="1118.3" y1="405.1" x2="1110.9" y2="419.4"/>
<line class="st1" x1="767.4" y1="604" x2="953.8" y2="604"/>
<path class="st6" d="M848.9,492.5l15.6,39.4c0.2,0.5,0.3,1,0.3,1.6V591h15l8.3-62.7c0.1-0.5,0-1-0.1-1.5l-12.8-55.4
	c-0.2-1-0.7-1.9-1.4-2.6l-5.1-5.8c-0.4-0.4-0.8-0.7-1.2-1c-18.2-12-39.5-4.6-39.5-4.6s-3.8,22.1-2.9,38c0.7,14,0.2,26.7,0,29.5
	c0,0.4-0.1,0.8-0.2,1.1L810,584l15,4.2l20.7-54.6c0.1-0.3,0.2-0.7,0.3-1.1l5.8-33.7"/>
<path class="st6" d="M867.7,593.1h9.2c0,0,6.7,5.8,9.2,6.7s5.8,1.7,5.8,2.5v1.7h-27.6C864.3,604,864.3,593.1,867.7,593.1z"/>
<path class="st5" d="M814.2,396l-5,38.4c0,0,7.5,40.1,8.4,41.8s7.5,0,7.5,0l-0.4-32.8"/>
<path class="st6" d="M810.9,586.5l11.7,3.3l3.3,7.5c0,0,8.4,3.3,8.4,5s-13.4,0.8-13.4,0.8l-10.9-6.7
	C810.1,596.5,806.7,590.6,810.9,586.5z"/>
<path class="st5" d="M852.7,399.3l0.8-5l26.4-25.6c0.8-0.7,1.3-1.7,1.6-2.7l0.7-2.6c0.4-1.6,0.1-3.3-0.8-4.6l-22.8-33l-10,3.3
	l15,30.9L841,375.9l-19.2-0.8c0,0-12.6,15.9-5.9,40.9s11.7,31.8,12.5,40.9c0,0,32.6-10,45.1,10.9c1,1.6-13.4-66.8-17.5-76"/>
<path class="st11" d="M841,374.2l-4.2-5h-15c-1.7,0,0,5.9,0,5.9h20L841,374.2z"/>
<polyline class="st5" points="829.3,323.3 834.4,320.5 867.7,302.4 843.5,326.6 834.3,320.8 "/>
<path class="st5" d="M850.2,326.6c0,0-11.7,1.7-11.7-0.8c0-1.4,0.3-2.9,0.8-4.2c0,0,1.7-3.3,3.3-3.3s5-3.3,5-2.5
	c-0.2,1.1-0.5,2.3-0.8,3.3c0,0-0.8,0.8,0.8,0.8h5c0.8,0,2.5,2.5,2.5,2.5l0.8,2.5L850.2,326.6z"/>
<path class="st5" d="M819.2,477c0,0,0,4.2,1.7,5.9l2.5,2.5c0.8,0.8,1.7-9.2,1.7-9.2L819.2,477z"/>
<line class="st1" x1="836" y1="369.2" x2="833.4" y2="362.5"/>
<path class="st5" d="M834.3,335l4.5,17.5c0.8,3-0.5,6.1-3.1,7.8l-6.4,4l-5-6.7l-1.7-9.2l5.8-5.9L834.3,335z"/>
<path class="st6" d="M836,331.6c-1.1,8.9-4.2,8.4-5.8,12.5s-2.5,3.3-2.5,9.2s4.2,5.9,4.2,9.2s-4.6,3.3-7.5,3.3s-6.7-3.3-6.7-3.3
	s-8.4-9.2-8.4-10v-10.9c0-3.3,7.5-11.7,11.7-13.4S836.8,324.9,836,331.6z"/>
<line class="st1" x1="823.4" y1="369.2" x2="823.4" y2="364.2"/>
<polygon class="st7" points="896.9,114.4 936.2,114.4 928.7,115.2 928.7,123.6 "/>
<path class="st10" d="M928.7,159.5l-7.5-35.1c0-0.8,0.8-1.7,1.6-2.6s-1.6-2.4-2.4-3.3s-3.3-0.8-4.2-1.7s1.7-0.8,3.3-0.8
	s9.2,0.8,11.7,1.7s0,0.8,0,3.3s-3.3,3.3-3.3,3.3l6.7,21.9L928.7,159.5z"/>
<path class="st1" d="M190.4,168.2c0,0,0,7.3,6.1,11"/>
<circle class="st1" cx="137.4" cy="132.8" r="97.6"/>
<line class="st1" x1="24" y1="236.9" x2="313.3" y2="236.9"/>
<polyline class="st1" points="275.8,343 275.8,287.6 313.1,250.3 "/>
<line class="st1" x1="60.4" y1="344" x2="60.3" y2="312.1"/>
<circle class="st1" cx="246" cy="304.2" r="11.8"/>
<circle class="st1" cx="212.3" cy="304.2" r="11.8"/>
<line class="st1" x1="266.3" y1="247.9" x2="161" y2="247.9"/>
<line class="st1" x1="26.5" y1="250.1" x2="53.3" y2="276.9"/>
<rect x="221.3" y="192.8" class="st5" width="6.8" height="33.8"/>
<polygon class="st6" points="308.3,236.9 308.3,146.6 287.7,138.2 253.3,184.3 225.2,184.3 225.2,236.6 "/>
<circle class="st5" cx="239.3" cy="198.4" r="4.5"/>
<circle class="st5" cx="239.3" cy="210.8" r="4.5"/>
<rect x="45.1" y="210.8" class="st5" width="14.6" height="18"/>
<polygon class="st5" points="59.7,222 81.1,222 83.9,219.8 81.1,217.5 59.7,217.5 "/>
<polygon class="st6" points="28.7,236.9 28.7,202.3 49.6,202.3 63,236.9 "/>
<path class="st1" d="M296.6,141.9c0,0,6.8-51.5,38.3-53.2s42.2-90.1,42.2-90.1"/>
<path class="st1" d="M291.8,139.9c0,0,12.2-37.7,48.8-39.4S451-1.5,451-1.5"/>
<path class="st12" d="M196.4,218.9c0,0,4.4,11.6,4.4,17.7l-39.1,0.4l1.8-13.8l9.8-7.3L196.4,218.9z"/>
<path class="st10" d="M176.3,157.2l-3.3,1.6c-2.4,1.1-5.3,0.1-6.4-2.4c0,0,0-0.1-0.1-0.1l-4.8-11.3l10.4-4.3l3.7,1.2l1.2,4.9
	l-0.6,1.8l5.5,12.8c0,0-4.3,14-9.8,0.6l1.8-3.7"/>
<path class="st10" d="M171.8,161.8c0,0,0.6,6.1,5.5,5.5s4.3-5.5,4.3-5.5s9.5,1.5,10.7,1.5s22.6-12.8-11-25.6l3.7-7.3
	c0,0,31.1,9.1,26.2,28.7c-1.8,7.2-3.8,12.8-9.6,17.4c-1.1,0.9-2.6,4.4-3.2,5.8c-3.6,8.8-2.8,22.7-1.2,35.4c0,0-6.1,11-15.3,11
	s-16.5-3-18.3-5.5s-4.3-33.6-4.3-33.6l-4.9,16.5h-12.1c0,0,10.3-27.5,12.2-33.6S167.2,162.7,171.8,161.8z"/>
<line class="st7" x1="176.3" y1="148.7" x2="181.8" y2="162.1"/>
<path class="st12" d="M166,145c-1.4,0.5-2.8,0.9-4.3,1.2c-0.6,0-2.4,0.6-3.1-1.2s-1.8-4.3,1.2-6.7s1.8-4.3,6.7-3.7s9.2,2.4,11,4.3
	s3.1,6.1,3.7,6.1s-1.8,6.1-1.8,7.3c0,0.8,0.2,1.7,0.6,2.4l-2.4-3.7c-1.2-1.8-3.1-8.6-3.7-7.9c-0.9,0.8-1.3,1.9-1.2,3.1
	c0,1.8-0.6,3.7-1.2,1.8s-0.6-2.4-2.4-3.1H166z"/>
<path class="st10" d="M184.3,131h-5.5l-5.5,4.3l1.2,0.6l5.1-1.7l0.4-0.2c0,0-0.6,1.8-1.2,1.8h-0.6c0,0-0.6,0,0.6,0.6
	c1,0.3,2.1,0.3,3.1,0L184.3,131z"/>
<path class="st12" d="M103.8,225.7c1.5,3.6,2.5,7.4,2.9,11.2H68.3c0,0-0.3-9.7,2-12.6s10.2-4.8,10.2-4.8l21.2,1.9L103.8,225.7z"/>
<path class="st10" d="M68.3,192.3l1.8-13.7l11-1.2l15.9,6.7c1.9,3.3,2.5,7.2,1.8,11c-1.2,6.1,6.1,25,6.1,25s3,4.9-3.7,6.7
	s-23.8,1.8-26.9,0s-4.9-3.1-4.9-3.1S69.6,203.6,68.3,192.3"/>
<path class="st10" d="M79.9,187.1l3.1,16.5l9.8,18.3l-6.1,4.3L72,205.4l-6.7-22.6c0,0-1.8-17.1,15.3-18.3s24.4,10.4,24.4,10.4
	l9.8,18.3l17.6,12.2l-5.5,6.1l-20-11.6l-8-8"/>
<path class="st10" d="M87.4,164.8c0,0,5.3,5.3,0.4,6.5s-7.8-6.5-7.8-6.5S81.5,164.4,87.4,164.8z"/>
<path class="st10" d="M92,222.5c0,0,4.4,0.7,4.4,1.3s-2.5,1.2-2.5,1.2s-1.2-0.6,0.6,1.2s6.1,4.9,2.4,4.9s-3.7,0.6-5.5-0.6
	s-4-4.9-4-4.9L92,222.5z"/>
<line class="st7" x1="98.3" y1="187.1" x2="99.4" y2="193.2"/>
<path class="st10" d="M88.4,160.9v4.9c0,0,3.7,4.9-0.6,5.5s-8.6-6.7-8.6-7.3v-6.1l3.1-6.1l5.5-3.7l4.3-1.2l3.7,0.6l0.3,1.4l0.3-0.6"
	/>
<path class="st10" d="M83.6,160.3l5.1,0.7c2,0.3,3.9-0.9,4.5-2.8l3.2-10.1"/>
<line class="st7" x1="79.9" y1="164.6" x2="81.1" y2="159.7"/>
<path class="st12" d="M92.1,147.5c-1.6,1.9-3.4,3.5-5.5,4.9c-3.7,2.4-3.7,3.1-4.3,5.5s-3.7,6.7-3.7,6.7l-7.8,3.4
	c0,0,5.3-15,5.3-19.9s4.5-15.4,15.9-11.6c14.7,4.9,3,14.6,3,14.6S97.6,146.9,92.1,147.5z"/>
<rect x="127.8" y="206.1" class="st6" width="30.6" height="30.6"/>
<path class="st13" d="M154.5,211.4c0,0-0.8,6.1-9.2,11.5s-9.9,10.7-10.7,11.5"/>
<path class="st13" d="M151.1,210.3c0,0-6.9,9.9-13,8.4s-4.6-8.4-4.6-8.4"/>
<path class="st13" d="M131.2,219.5c1.6,1.5,3.4,2.8,5.4,3.8c3.1,1.5-5.4,9.2-5.4,9.2"/>
<path class="st13" d="M139.6,233.2c0,0,6.1-7.7,12.3-6.1"/>
<path class="st10" d="M192.8,167.6c0,0,0,6.1,7.3,9.1"/>
<line class="st7" x1="159.3" y1="189.6" x2="159.3" y2="182.9"/>
<path class="st10" d="M178.8,223.8c0,0-4.3-24.4-4.9-36.6"/>
<path class="st2" d="M712.1,436.7h-275c-49.1,0-49.1-132.3,0-132.3h275C757.3,304.4,757.3,436.7,712.1,436.7z"/>
<line class="st1" x1="654.2" y1="456.1" x2="654.2" y2="294.7"/>
<line class="st1" x1="615.5" y1="456.1" x2="615.5" y2="294.7"/>
<line class="st2" x1="615.3" y1="428.3" x2="650.3" y2="428.3"/>
<line class="st2" x1="615.3" y1="399.3" x2="649.7" y2="399.2"/>
<line class="st2" x1="615.3" y1="370.1" x2="650.1" y2="370"/>
<line class="st2" x1="615.3" y1="341" x2="649.7" y2="340.9"/>
<line class="st2" x1="615.3" y1="311.8" x2="649.7" y2="311.8"/>
<path class="st3" d="M542.5,212.2l-2.1-12.1l-12.2-1.7l-2.8,4.1v6.8l-2.3,9.4c0,0,3.3-1.1,8.9,6.1s9.3-9,9.3-9L542.5,212.2z"/>
<path class="st14" d="M519,221.1c0,0,5.7-5,8.3-0.6c0.6,1.1,0.9,2.2,1.1,3.4c1.2,8.2,2.9,21.7,5.2,33c0.4,2.1,0.9,4.2,1.3,6.1
	c3,12.1,12.1,50.3,12.1,62h-36.1v-31.3c0,0-8.7-2.4-8.7-14.9S508.6,229.8,519,221.1z"/>
<path class="st2" d="M533.5,256.8l31.1-13.3v-14.1L537.4,243c0,0-4.6-20.6-11-23.5"/>
<path class="st3" d="M534.9,261.1l30.4,19.9c6.2,5.6,9.4,13.7,8.7,22l-4.8,56h-23.1c0,0,4.4-39.6,10.6-56.6c0,0-9.7-4.1-13.9-6.9
	L534.9,261.1z"/>
<line class="st2" x1="562.9" y1="253.5" x2="551.3" y2="271.8"/>
<line class="st2" x1="560.3" y1="258.5" x2="563.9" y2="280.1"/>
<path class="st2" d="M566.2,281.8h17.1c-0.9-17.7-7.7-37.2-10.8-44.1s-7.5-3.5-7.5-3.5"/>
<path class="st2" d="M564.9,231c0,0,6.7-4.9,8.8,3.1c0.3,2.5,0.4,4.9,0.3,7.4"/>
<path class="st14" d="M573.1,293.5h20.4c0,0,0.4-2.5-7.3-4.6s-9.3-7.1-9.3-7.1l-9.8,0.4C567,282.2,572.3,288.1,573.1,293.5z"/>
<path class="st14" d="M553.9,359.2c-0.9,3.7-1.4,7.5-1.7,11.3h22.2c0,0-0.1-2.2-6.5-3.4s-7.1-7.9-7.1-7.9H553.9z"/>
<path class="st2" d="M520.3,220.1c0,0,4.9-2.8,3.6-9.9s-2.7-13.3,4.8-16s12.2,4.1,12.2,4.1s3.5,5.2,3.5,9.4s0.5,12.6,6,14.6
	s12.3,4.5,11.8,8.3"/>
<path class="st2" d="M523.5,216.1l7.3-7.7c0,0-5.2-2.9-2.3-5.8s5.1,3.4,5.1,3.4l6.8-3.8v8.5c0,0,0,5.4-2.8,5.8
	c-2.2,0.1-4.4-0.2-6.5-1v8.9"/>
<path class="st15" d="M524.1,215l6.2-6.6l-2.8-2.8l0.4-2.8l2.4-1.1l2.6,2.1l1.1,2.1l6.7-4l-0.3,10.8l-1.5,3.7l-3.5,0.5l-4.1-1.1v3.4
	v5.5l2,4l2.1,5.8l1.3,4.8l0.9,3.3l24.4-12l-0.4-2.6l-4.7-3.2l-6.4-2.6l-2.2-0.5l-2-3.4l-1.8-7.1l0-5l-2.6-6.4l-2.6-3.2l-3.2-2.1
	c0,0-5.7-2.2-10.1,1s-2.4,11.2-2.4,11.2l0.8,5.7L524.1,215z"/>
<path class="st16" d="M517.4,312.2L517.4,312.2c0,3.8,3.1,6.9,6.9,6.9c0,0,0,0,0,0h10.5"/>
<polyline class="st5" points="460.2,360.1 460.2,329.6 488.9,329.6 "/>
<polyline class="st5" points="464.8,350.5 464.8,334.2 479.3,334.2 "/>
<polyline class="st2" points="63.4,552.5 136.7,552.5 136.7,522.5 172,522.5 172,493.3 206.5,493.3 206.5,465.4 "/>
<polyline class="st2" points="112.8,552.5 112.8,401.4 30.4,401.4 30.4,528.9 "/>
<circle class="st17" cx="104.3" cy="477" r="3.2"/>
<path class="st0" d="M1709.5,537.2c-2.6,0.4-4.4,2.7-4.1,5.3c0,0.3,0.1,0.6,0.2,0.9C1705.6,543.4,1710.8,542.8,1709.5,537.2z"/>
<path class="st2" d="M1699.3,537.5c-0.7,2.5,0.9,5.1,3.4,5.8c0.3,0.1,0.6,0.1,0.9,0.1C1703.6,543.4,1704.9,538.4,1699.3,537.5z"/>
<polyline class="st2" points="1917.8,622.5 1917.8,545.5 1664.1,545.5 1591,618.7 1566.8,642.8 1342,642.8 1342,588 "/>
<path class="st2" d="M1771.3,532.5h-27.8c-7.2,0-13,5.8-13,13h33.9c18.5,0,21.8-18.3,21.8-18.3"/>
<path class="st2" d="M1847.4,532.5c-6.9-11.7-3.5-26.8,7.8-34.5"/>
<line class="st2" x1="1764.4" y1="532.5" x2="1778.3" y2="506.5"/>
<path class="st2" d="M1771.8,518.7l-5.8-9.1c-3.5-5.5-9.6-8.9-16.1-8.9h-12.1c-1.1,0-2-0.9-1.9-2v-7c0-2.2,1.6-4.1,3.8-4.5l11.7-2
	c1.4-0.2,2.6-1.2,3-2.6c1.1-3.6,4.7-10.4,15.3-10.4c4.8-0.1,9.5,1.2,13.6,3.7c3,2,5.3,4.7,6.8,8c1.6,3.4,6.2,10,17.5,9.7
	c9.1-0.4,18.1-1.7,26.9-3.8c1.6-0.4,3.1-0.8,4.6-1.4c6.7-2.4,31.4-9.9,48,2.2c26,19,12.2,45.5,12.2,45.5s-3.9,9.4-23.3,9.4
	c-19.1,0-16.3-5.3-25.4-6.5c0,0,3.4-6.2,13.6-4.9s21.2,5.2,26.6-4.2"/>
<path class="st2" d="M1782.5,482.1l10.1,12.5c0,0-12,5.9-19.3-5.1"/>
<circle class="st17" cx="1759" cy="483.5" r="2.3"/>
<line class="st2" x1="1735.9" y1="496.2" x2="1743.7" y2="496.2"/>
<path class="st2" d="M1783.5,534.3c0,0,5.3,11.2,15.3,11.2l0,0c0-7.2,5.8-13,13-13h35.7"/>
<line class="st2" x1="1798.8" y1="545.5" x2="1876" y2="545.5"/>
<line class="st2" x1="1741.7" y1="545.5" x2="1741.7" y2="538.1"/>
<line class="st2" x1="1809.4" y1="545.5" x2="1809.4" y2="538.1"/>
<path class="st17" d="M1740.7,487.1c0,0-0.4,4.9-4.8,5.9C1735.7,490.1,1737.8,487.5,1740.7,487.1z"/>
<path class="st17" d="M1863.7,534c0,0,1.4,6.1-2.1,9.7l-5.8-3.5l-4.6-1.3l2.7-3.5C1854,535.3,1860.4,533.6,1863.7,534z"/>
<g class="st18">
	<path class="st15" d="M692.7,530.1c-8-11.3-13.6-24.1-16.6-37.6c-0.7-3.1-5.5-1.8-4.8,1.3c3,13.9,8.8,27.1,17.1,38.8
		C690.2,535.3,694.5,532.8,692.7,530.1L692.7,530.1z"/>
</g>
<g class="st18">
	<path class="st15" d="M622.4,565.2c-3.5,1-6.9,2.3-10.2,4c-2.8,1.5-0.3,5.8,2.5,4.3c2.9-1.5,5.8-2.7,8.9-3.5
		C626.8,569.1,625.5,564.3,622.4,565.2L622.4,565.2z"/>
</g>
<rect x="471.8" y="526.2" class="st0" width="186.8" height="4.1"/>
<rect x="644.9" y="456" class="st2" width="4.1" height="72.2"/>
<rect x="481.6" y="456" class="st2" width="4.1" height="72.2"/>
<rect x="564.5" y="530.3" class="st0" width="1.5" height="9.7"/>
<circle class="st0" cx="540" cy="550.5" r="4.4"/>
<path class="st2" d="M555.8,553.5c24.4,3.6,49.1,3.6,73.5,0"/>
<path class="st2" d="M678.8,588.9c0,0-12-26.2-55.8-15.8v-8c0,0,33.4-13.1,57.7,4.5"/>
<path class="st2" d="M671.2,564.2l-0.9-22.8l35.4,5.5c0,0-2.2,46.4-11.1,47.1s-18.4-1.2-19.2-5.1c-0.7-2.8-1.7-5.5-3-8"/>
<path class="st2" d="M696.8,592.8l18.5-13c5-3.5,9.1-8.2,11.9-13.6l8-15.7l-5.5-2.7l-11.1,13.6c-3.8,4.6-8.6,8.3-14.1,10.6l-1.3,0.5
	"/>
<path class="st0" d="M686,515.7l6.2-16.6c0.3-0.7,0.6-1.5,1-2.1l16.9-30.2l9.2,2.5L708,504.9c-0.5,1.5-0.7,3.1-0.7,4.8
	c0.3,7.7,0.9,31.7-1.7,37.3l-35.4-5.5c0,0-9.7-34.6-9.9-43.7s16.8-31.9,16.8-31.9l7.9,1c0,0-10,28.8-9.2,33.1s18.6,26.9,18.6,26.9"
	/>
<rect x="612.3" y="568.2" transform="matrix(0.9191 -0.3939 0.3939 0.9191 -174.4747 289.0634)" class="st0" width="9.1" height="2.6"/>
<path class="st3" d="M596.2,578.8c-1.9-4.3,1.4-9.8,5.7-11.7c4.3-1.9,9.2,0.1,11.1,4.3c1.9,4.3-0.1,9.2-4.3,11.1l0,0
	C604.3,584.3,598,583,596.2,578.8z"/>
<path class="st3" d="M622.5,571.5c0,0-5.8,1.9-6.3,0s-1-2.4,0-2.4s0-0.5,1,0s0,1.9,1,1s1.5-1.5,1.5-1.9s-0.6-0.4-0.5-0.9
	s-2.4,0.4-1.9,0s0.5-1.9,2-1.9s1.9-0.5,2.4,0c0.4,0.3,0.9,0.5,1.5,0.5l0.1,5.7L622.5,571.5z"/>
<path class="st3" d="M730.4,548.2c-0.2-2-0.7-2-0.2-2.9s0.5-2,1-1c0.3,0.5,0.6,1,1,1.5c0.4,0,0.7-0.2,1-0.5c0.5-0.5,1,0.5,1-1.5
	s0-1.9,0.5-1.9s1,0.5,1.5,1c0.5,0.9,0.8,1.9,1,2.9l-2.2,4.6L730.4,548.2z"/>
<rect x="381.1" y="522.8" transform="matrix(0.8465 -0.5324 0.5324 0.8465 -222.0823 284.5624)" class="st0" width="2.6" height="9.1"/>
<path class="st3" d="M370,508.4c3.9-2.5,9.9-0.1,12.5,3.8c2.5,3.9,1.4,9.1-2.5,11.6c-3.9,2.5-9.1,1.4-11.6-2.5
	C365.8,517.4,366.1,510.9,370,508.4z"/>
<path class="st2" d="M430.4,556.2c20-6.3,56.9-1.8,56.9-1.8l-1.7,8.1c-25.3,0.3-54.3,11-54.3,11s-7.4,2.2-9.7-3.9"/>
<path class="st2" d="M442,570.1c0,0-9.4,8.9-16,6.4s-12.9-4.1-11.5-17.3s4.2-19.8,1.7-24.1c-1.4-2.4-2.3-5-2.6-7.7
	c0,0,17.5-11,34.7-4.2c0,0-4.8,15.8-2.6,29.7"/>
<path class="st2" d="M421.6,574.8c0,0-29.9-10.5-36.3-36.7l5.1-4.6c0,0,12.3,20.8,24.5,22.6"/>
<path class="st2" d="M434.7,513.2l-19.5-29.8c-1-1.6-2.5-2.9-4.2-3.8l-28.7-15.2l-8.3,5.1l26.6,22.7c1.2,1,2.2,2.3,2.9,3.7l7.1,14.7
	c0.4,0.7,0.5,1.5,0.5,2.3c-0.1,4.9,0.7,9.8,2.4,14.5"/>
<path class="st2" d="M446.5,522.5l14.6-18.5c1.8-2.3,2.8-5.2,2.8-8.1v-30.3l-11.2-1.3c0,0-3.1,27.1-4.5,27.7s-16.9,16-16.9,16"/>
<line class="st2" x1="424.8" y1="576.3" x2="423.5" y2="581.7"/>
<line class="st2" x1="432.8" y1="576" x2="432.9" y2="581.9"/>
<path class="st1" d="M429.3,581.7l4.4,0.3c1.8,0.1,3.2,1.7,3,3.5c0,0,0,0,0,0.1l-1.1,11.2"/>
<path class="st0" d="M437,599.1c-0.3-1.4-1.2-2.6-2.4-3.4c-1.2-0.6-2.2-1.4-2.9-2.4c-0.5-0.5-1.5,0.5-1.9-1.5s-0.5-4.4-1-4.8
	s-1.5,2.4-1.9,2.4s-1,3.4-1,0s-1.5-4.8-1.9-6.3s1.5-1-0.5-1.5s-5.3-0.5-6.3-1s-7.3-5.8-4.9-1.9s3.4,3.9,3.9,5.8s2.9,0.5,1,3.4
	s-4.9,1-2.9,4.4s-3.4,0.5,1.9,5.3c2.2,2.1,4.4,4,6.8,5.8c1.1,0.8,2.5,1.2,3.9,1c1.9-0.5,1.5-1,4.4-1.5S438,602.5,437,599.1z"/>
<path class="st3" d="M384.6,531.2c0,0,2.4,0.5,0.5-1s-4.9-1-2.9-1.9s1.5-1.5,2.4-1s1.5,0,2.4,1s1.9,1,1.9,1.9
	c0.2,1.2,0.6,2.3,1.1,3.4l-5,3.9l-3.9-5.3c-0.8-1.1-1.4-2.2-2-3.4c0.1-0.5,0.3-1,0.5-1.5l2.4,2.9c0,0,1.3,1.2,1.1,1.1
	S384.6,531.2,384.6,531.2z"/>
<path class="st3" d="M485.9,561.3c0.7,0.4,4.1,4.8,4.5,2.9s0-2.4,0-2.4c0.8,0,1.6,0.2,2.4,0.5c1.5,0.5,3.4,3.4,3.4,0.5s1-4.8-1-5.8
	s-8.2-1.4-8.2-1.4L485.9,561.3z"/>
<path class="st0" d="M462.3,464.2l-8.7-1c0,0-2.4-3.4-1.5-5.8s0.5-0.5,0.5-0.5l1.3-0.9h16.4c0.4,1.1-0.1,2.4-1.2,2.9
	C467.1,459.8,462.8,461.8,462.3,464.2z"/>
<path class="st0" d="M380.3,464.2l-6.3,3.9c0,0-2.9,0-3.9-3.9l6.8-6.3c0,0,4.9-1.5,6.8-1.5s1,2.4,0,2.9S380.3,462.8,380.3,464.2z"/>
<path class="st3" d="M719,467.7l-7.1-1.7c0,0-2-4.6-3.8-5.8s-2.3-2.7-1.7-3.6s9.7,1,9.7,1l4.6,3.4
	C720.7,461.1,722.8,464.2,719,467.7z"/>
<path class="st3" d="M692.3,594.3l-2.4,2.4c0,0-6.8,0-9.2-1.5l-0.5-2.7C680.2,592.6,689.9,594.8,692.3,594.3z"/>
<line class="st2" x1="682.4" y1="595.9" x2="681.2" y2="599.1"/>
<line class="st2" x1="688.6" y1="596.7" x2="688" y2="600.1"/>
<path class="st3" d="M684.6,599.6l-2.9-0.7c-1.7-0.4-3.4,0.5-4,2.1l-2.8,7.8"/>
<path class="st0" d="M672.9,609.3c1.5-0.5,1,0.5,2.9-0.5s2.4-1,2.9-1.9s3.4-1.9,3.4-1.9s-1,0.5-0.5,1.9s-0.5,3.4,1.5,1.5
	s3.4-1.5,2.4-3.4s-1-2.4-0.5-3.4s0-1.5,1-1.5s0-1.5,2.4,0s1.9,1.5,2.4,2.9s1,1,0.5,3.9s-0.5,4.8-1,6.3s-1.5,1.9-4.4,2.4
	s-2.4,0.5-4.9,1s-2.4,1-4.8-0.5s-3.4-2.4-4.4-4.4c-0.5-0.7-0.4-1.7,0.4-2.2C672.5,609.5,672.7,609.4,672.9,609.3z"/>
<line class="st2" x1="1451.9" y1="196.8" x2="1451.9" y2="241.1"/>
<path class="st2" d="M1451.9,529.1v54.1c0,26.6-21.6,48.2-48.2,48.2l0,0c-26.6,0-48.2-21.6-48.2-48.2c0,0,0,0,0,0V153.3
	c0-26.6,21.6-48.2,48.2-48.2l0,0c26.6,0,48.2,21.6,48.2,48.2c0,0,0,0,0,0v20.7"/>
<line class="st2" x1="1451.9" y1="320.2" x2="1451.9" y2="410.4"/>
<polyline class="st2" points="1374.7,172.4 1355.5,172.4 1342,158.9 1342.1,151.1 1355.5,164.5 1410.5,164.5 "/>
<polyline class="st2" points="1374.7,567.1 1355.5,567.1 1342.1,580.5 1342.1,588.3 1355.5,575 "/>
<path class="st2" d="M1581.9,223.1l6.7,24.8l0,0l-15,4c-5.4,1.5-11-1.8-12.4-7.2l-1.4-5.2c-1.5-5.4,1.8-11,7.2-12.4L1581.9,223.1
	L1581.9,223.1z"/>
<path class="st0" d="M1592.9,240.4l-6.7-24.7l0,0l2.6-0.7c5.4-1.5,10.9,1.7,12.4,7.1l1.4,5.2c1.5,5.4-1.7,10.9-7.1,12.4
	L1592.9,240.4L1592.9,240.4z"/>
<path class="st13" d="M1587.3,219c2.2-0.6,4.5-0.4,6.6,0.5"/>
<line class="st13" x1="1588.7" y1="216.9" x2="1590.6" y2="224.3"/>
<path class="st13" d="M1591.4,222.1c-1.1-0.2-2.2-0.2-3.2,0"/>
<path class="st2" d="M1517.7,275.2l-2.5,3.3c-0.8,1-1.9,1.7-3.1,2l-25.6,6.2l-3.7,10.1l40-1.9c1.8-0.1,3.5-0.8,4.9-2l25.4-22.3
	c1.6-1.4,2.7-3.4,3.1-5.5l3.6-20.7l-3.5-3.2c-3,0-5.5-2.5-5.4-5.5c0,0,0,0,0,0l0,0c0-3,2.5-5.5,5.5-5.5c0,0,0,0,0,0l3.9-3.4
	l-0.8-16.8c-0.1-1.7-0.6-3.3-1.6-4.6l-20.2-28.9c-2.4-3.4-7-4.4-10.5-2.1c-6.4,4.1-15.3,13.1-16.6,31.4c0,0,2.2-0.9,5.5,5.3
	s0.5,7,0.5,7c-1.3,0.2-2.6-0.3-3.3-1.4"/>
<path class="st3" d="M1472.5,293.4c-5.4,10.2-26.6,45.6-53.6,33.8c0,0-23.2-46.3,34.7-85.2c54.2-36.4,63.3-69.7,51.1-70.6
	c-1.4-0.1-2.8,0.3-4,1l-0.7,0.4"/>
<path class="st2" d="M1531.3,274.4c0,0-18.7,1.4-34.4,1c-8.3-0.2-14.2,4-18,8.1"/>
<path class="st19" d="M1538.1,212.8c0,0-1.6,0-4,0.2c-4.3,0.4-11.4,1.5-17,4.7l14.2-25.3"/>
<line class="st19" x1="1527.6" y1="199.8" x2="1533.3" y2="212.3"/>
<path class="st2" d="M1505.7,171.6c0,0,6-0.3,9.8,15.6"/>
<polyline class="st2" points="1516.5,213.6 1509.9,219.7 1497.5,222.1 "/>
<line class="st2" x1="1507.9" y1="217.7" x2="1495.5" y2="219.5"/>
<line class="st2" x1="1506.3" y1="215.5" x2="1493.4" y2="216.9"/>
<line class="st2" x1="1506.3" y1="213.3" x2="1496.8" y2="213.8"/>
<path class="st2" d="M1502.8,210.1h4c0.8-1.5,2.2-2.6,3.8-3.1h2.1"/>
<polygon class="st0" points="1516.5,214.4 1516.9,216.7 1516.2,217.8 1514.5,217.7 1514,216.9 "/>
<line class="st2" x1="1564.2" y1="228.4" x2="1558.6" y2="228.4"/>
<path class="st2" d="M1568.2,240.7c0,0-6,0.7-8.4,3.9"/>
<path class="st2" d="M1483.4,295.3h-7.5c-1.2,0-2.3-0.7-2.8-1.8l-1.4-2.9l-5.8-3"/>
<line class="st2" x1="1474.8" y1="289.8" x2="1465.8" y2="284.8"/>
<line class="st2" x1="1475.8" y1="288" x2="1466.4" y2="282"/>
<line class="st2" x1="1477.1" y1="286.4" x2="1471.1" y2="282"/>
<path class="st2" d="M1485.8,287.6l-6-1.2c0,0-0.9-3.4-3.2-4"/>
<path class="st2" d="M1417,322.3c0,0-30.2-14.1-40.3-22l4.2-16.8l35.7,4.5"/>
<path class="st2" d="M1508.6,173.8c0,0-36.8-5.1-69.7,2.9l-3.1,15.7c0,0,35.5,10.3,43.1,10.1"/>
<path class="st2" d="M1462.7,199.7c0,0-9.2,23-11,43.6"/>
<path class="st2" d="M1438.3,179.6l-4.6,0.4l-10.7-2.6c-2.2-0.5-4.3,0.9-4.8,3c-0.1,0.6-0.1,1.2,0,1.8l0.3,1.3c0.7,2.9,3.1,5,6,5.4
	l8.5,1.1h3.3"/>
<path class="st2" d="M1380.3,286.5l-4.6-0.3l-10.1-4.3c-2-0.8-4.4,0.2-5.2,2.2c-0.2,0.5-0.3,1.1-0.3,1.7l0.1,1.3
	c0.2,2.9,2.2,5.4,5.1,6.3l8.2,2.4l4.3,0.7"/>
<polygon class="st17" points="1508.2,174.5 1509,177.4 1507,185.6 1503.5,193.2 1495.5,204.7 1483.8,216.9 1472.5,227.4 
	1461.8,235.7 1452.6,242.1 1452.6,237.8 1455.3,220.9 1461.8,199.7 1435.8,192.9 1439.8,176.6 1455.7,173.4 1492.8,172.2 "/>
<polygon class="st17" points="1416,288 1381.4,284.2 1377.3,299.8 1387.2,307.6 1416,321.2 1414.5,308.9 1414.5,295.9 "/>
<path class="st3" d="M1567.4,483l17.2,3l2.4,17.5l-5.8,3.9h-9.6l-13.4,3.3c0,0,1.6-4.7-8.7-12.6s12.8-13.3,12.8-13.3L1567.4,483z"/>
<path class="st14" d="M1554.7,516.5c0,0,7-8,0.9-11.7c-1.5-0.8-3.2-1.3-4.9-1.5c-11.6-1.7-30.9-4.1-46.9-7.4c-3-0.6-5.9-1.3-8.6-1.9
	c-17.2-4.2-71.7-17.2-88.3-17.2v51.3h44.6c0,0,3.4,12.4,21.2,12.4S1542.3,531.2,1554.7,516.5z"/>
<path class="st2" d="M1503.8,495.9l18.9-44.3h20.1l-19.3,38.7c0,0,29.4,6.5,33.5,15.6"/>
<path class="st2" d="M1497.8,493.8l-28.3-43.3c-7.9-8.7-19.5-13.3-31.3-12.3l-79.8,6.8v32.8c0,0,56.4-6.3,80.6-15.1
	c0,0,5.8,13.9,9.8,19.8"/>
<line class="st2" x1="1508.6" y1="454" x2="1482.5" y2="470.5"/>
<line class="st2" x1="1501.5" y1="457.7" x2="1470.8" y2="452.5"/>
<path class="st2" d="M1536.1,451.1c0,0,5-6.2-5-10.7s-37.7-14.2-62.8-15.5v24.4"/>
<path class="st2" d="M1540.7,451.1c0,0,6.9-9.6-4.5-12.5c-3.5-0.4-7-0.5-10.6-0.4"/>
<path class="st2" d="M1451.7,439.5v-29c0,0,3.6-0.6,6.5,10.4s10.2,13.3,10.2,13.3"/>
<path class="st3" d="M1358.1,466.8c0,0-10.2,2.3-16.1,2.4v-31.6c0,0,3.2,0.2,4.8,9.3s11.3,10.1,11.3,10.1L1358.1,466.8z"/>
<path class="st2" d="M1556.1,514.6c0,0,4-7,14.1-5.1s19,3.8,22.7-6.8s-5.9-17.3-5.9-17.3s-7.4-4.9-13.4-5s-18-0.7-20.8-8.6
	s-6.4-17.5-11.8-16.8"/>
<path class="st2" d="M1561.9,510.1l11-10.4c0,0,4.2,7.4,8.3,3.3s-4.9-7.3-4.9-7.3l5.4-9.6h-12c0,0-7.7-0.1-8.2,4s1.4,9.3,1.4,9.3
	h-12.7"/>
<path class="st15" d="M1563.4,509.2l9.5-8.8l4,3.9l4-0.5l1.6-3.4l-2.9-3.7l-2.9-1.6l5.7-9.5l-15.3,0.4l-5.2,2.2l-0.7,5l1.6,5.9h-4.9
	h-7.9l-5.7-2.8l-8.2-3l-6.9-1.9l-4.7-1.4l17.1-34.7l3.7,0.6l4.6,6.6l3.7,9.1l0.7,3.1l4.8,2.8l10.1,2.6l7.3,0.1l9.1,3.7l4.5,3.7
	l3,4.6c0,0,3.1,8.1-1.4,14.4c-4.5,6.3-15.9,3.4-15.9,3.4l-8.1-1.2L1563.4,509.2z"/>
<path class="st2" d="M1425.1,518.7L1425.1,518.7c-5.5,0-9.9-4.4-9.9-9.9c0,0,0,0,0,0v-14.9"/>
<polygon class="st2" points="1742.8,-1 1742.8,24.8 1806.1,24.8 1920.3,139 1920.3,-1 "/>
<path class="st2" d="M1905.4,124c0,0,3-42.6-13.8-76.1"/>
<path class="st2" d="M1881.9,28.5c0,0-18.7,46.3,22.8,69.6C1904.8,98.1,1941.9,60.8,1881.9,28.5z"/>
<path class="st2" d="M1849.4,68c0.1-2.2,0.3-4.4,0.7-6.6c1.7-10.2,6-19.8,12.6-27.8"/>
<path class="st0" d="M1850,62.4c0,0-22.7-41.2,28.2-51.7C1878.1,10.8,1885.1,55.4,1850,62.4z"/>
<path class="st20" d="M1850.3,62.8c0-0.2,2.6-19.8,10.9-28.4l-0.6-0.6c-8.5,8.8-11,27.9-11.1,28.7l0.2,0.4L1850.3,62.8z"/>
<line class="st2" x1="1839.3" y1="4.3" x2="1839.3" y2="37.7"/>
<line class="st2" x1="629.9" y1="968.3" x2="757.6" y2="968.3"/>
<line class="st2" x1="750.9" y1="955" x2="927.7" y2="955"/>
<polygon class="st0" points="676.4,967.5 637.9,967.5 637.9,960.3 676.4,962.3 "/>
<polygon class="st2" points="672.2,961.9 642,960.3 642,953.1 672.2,954 "/>
<polygon class="st0" points="668.5,953.7 645.8,953.1 645.8,948.5 668.5,945.8 "/>
<polygon class="st2" points="665.1,945.8 649.2,947.8 649.2,940 665.1,941.3 "/>
<line class="st2" x1="672.2" y1="958.2" x2="660" y2="957.2"/>
<line class="st2" x1="649.2" y1="945.5" x2="655.5" y2="944.8"/>
<line class="st2" x1="349.1" y1="892.5" x2="715.9" y2="892.5"/>
<path class="st2" d="M453.1,801.3H492c0,0,4.1,11.3,23.3,18.4l-19.3,22.7l-29.3-14.3l-28,19.9l-27.9-12.2L453.1,801.3z"/>
<line class="st2" x1="479.2" y1="819.6" x2="466.7" y2="828.1"/>
<path class="st0" d="M516.5,736.8l-3.8,13.3c-1,3.5-4.3,5.7-7.3,4.8l0,0c-3-0.9-4.7-4.4-3.7-8l3.7-13l-5.1-0.5
	c0,0-11.5,27.2-24,20.5l-22.2,44.6l39.9-1c0,0,3.9-1.2,2.8-5.1l16.7-32.8c1.2-2.3,2.1-4.8,2.8-7.4l3.3-13.3L516.5,736.8z"/>
<path class="st2" d="M513.7,821.7l18.8,8.3c0,0,12,3.5,6,13.1s-22.6,36-22.6,36c-1.2,2.2-0.4,4.9,1.8,6.2c3.8,2.4,14.9,4.7,14.9,4.7
	s2.9,2.5-1.1,2.5h-29.3c0,0-8.2,0.3-1.2-8.6s17.5-36.6,17.5-36.6"/>
<line class="st2" x1="498.7" y1="839.3" x2="523.2" y2="848.5"/>
<line class="st2" x1="495.8" y1="891" x2="534.9" y2="891"/>
<line class="st2" x1="520" y1="886.3" x2="515.9" y2="891"/>
<polyline class="st2" points="334.2,885.7 356.5,891 374.4,891 "/>
<line class="st2" x1="364.6" y1="884.4" x2="353.6" y2="890.3"/>
<path class="st2" d="M435.3,846.6l-20.6,12.9c-0.5,0.3-1.1,0.6-1.7,0.7l-46.8,11.6c0,0-5.4,1.5-4.7,5.6s3.9,10.6,4.7,11.4
	s4.7,2.3,4.7,2.3s-0.2,1.5-4.9,1.5s-7.9-0.9-9-3.8s-8.2-17.5-8.2-17.5s-3.7-9.5,3.2-10.3s15-0.2,17.2-1.5s38.6-16.3,38.6-16.3
	l7.5-5.3"/>
<line class="st2" x1="491.9" y1="797.6" x2="489.5" y2="801.3"/>
<line class="st2" x1="456.5" y1="797.6" x2="454.1" y2="801.3"/>
<line class="st2" x1="500.1" y1="734" x2="448.7" y2="723.2"/>
<path class="st2" d="M476.4,753.9c0,0,0.3-1.9-3.7-4.4c-3.2-2-26.9-15.5-36.3-20.8c-2.3-1.3-3.5-3.8-3.2-6.4l0,0
	c0.6-4.9,4.1-8.9,8.8-10.2l50.4-13.6c0,0,5.4-6.3,5.7-6.3h7l2.9,2.9"/>
<polyline class="st2" points="450.6,723.7 496,704.3 500.1,706.2 503.3,705.8 "/>
<circle class="st0" cx="501.6" cy="699.1" r="4.8"/>
<line class="st2" x1="504.1" y1="695.7" x2="508.5" y2="698"/>
<line class="st2" x1="505.6" y1="700" x2="508.5" y2="700.5"/>
<polyline class="st2" points="512.2,763.1 583.3,793.9 591.1,798.7 599.7,802.5 "/>
<polyline class="st2" points="520.1,740.3 551.1,769 585.8,789.6 594.8,789.6 600.4,791.5 "/>
<line class="st2" x1="592.2" y1="796.6" x2="601" y2="800.4"/>
<line class="st2" x1="593.1" y1="794.6" x2="603" y2="798.8"/>
<line class="st2" x1="593.9" y1="792.3" x2="602.6" y2="795.6"/>
<line class="st2" x1="515.9" y1="737.4" x2="515.9" y2="729.9"/>
<path class="st2" d="M529.5,716.3l-3.8,11.9c-0.7,2.3-3.1,3.6-5.5,3l-6.2-1.8"/>
<polyline class="st2" points="511.8,725.3 506.9,734.3 505.9,734.3 "/>
<path class="st0" d="M510,724.8c0,0,4.1,3.5,5.5-0.5c0.5-1.4,1-3,1.5-4.3c0.9-2.6,3.5-4.2,6.2-4l7.2,0.8c0,0,3.6,0.2,2.8-3.7
	s-10.7-6.5-14.1-5.7s-7.6,2.9-7.9,7.6S508.1,722.8,510,724.8z"/>
<path class="st2" d="M667.5,892.5c0,0,18.9-84.7,12.5-163.9"/>
<path class="st2" d="M672,666.4c0,0-38.8,9.8-22.7,40.8s-3.9,58.8-3.9,58.8s-28.2,40.6,0,66.7s95.4,11.9,80.4-38.7
	s-21.1-56.1-15.3-83.1S695.7,658.8,672,666.4z"/>
<path class="st3" d="M837.2,770.2c0,0,48.8,9.4,64.8,48.5l-6.8,8.3c0,0-23.9-29.4-43.1-29.4"/>
<path class="st2" d="M826.9,876.2l30.5,36c1.6,2.5,3.9,4.6,6.5,6l49.5,23.8l13-8L880,898.4c-1.9-1.6-3.4-3.6-4.5-5.8l-11.1-23
	c-0.5-1.1-0.8-2.4-0.8-3.7c0.2-3.4-0.2-2.4-4-13.4"/>
<path class="st2" d="M811,862.4l-25.5,17.4c-2.9,3.6-4.5,8.1-4.5,12.7l-15.2,47.4l17.6,2c0,0,20-42.4,22.2-43.4S832,884,832,884"/>
<line class="st2" x1="828.9" y1="768.2" x2="828.3" y2="759.5"/>
<line class="st2" x1="817.2" y1="772.4" x2="814.1" y2="763.7"/>
<path class="st1" d="M819.7,762.3L813,764c-2.7,0.7-5.5-0.9-6.2-3.7c0-0.1,0-0.1,0-0.2l-3.7-17.2"/>
<path class="st3" d="M904.7,829.3c0,0-3.9-0.2-0.5,1.6s7.7,0.4,5,2.3s-1.9,2.6-3.5,2.1s-2.3,0.3-4-1s-3.2-1.1-3.5-2.6s-2.4-5-2.4-5
	l6.8-7.2l7.2,7.4c0,0,3.7,4.1,3.8,4.8c0,0.8-0.2,1.6-0.4,2.4l-4.4-4c0,0-2.2-1.6-2-1.4S904.7,829.3,904.7,829.3z"/>
<path class="st3" d="M743.6,829.7c-1.2-0.2-8.9-4.3-8.3-1.2s1.5,3.5,1.5,3.5c-1.2,0.5-2.5,0.8-3.8,0.8c-2.4,0.2-7-2.7-5.2,1.5
	s1.7,7.6,5.1,7.7s12.6-3.2,12.6-3.2L743.6,829.7z"/>
<path class="st0" d="M768.4,942.2l13.7,1.5c0,0,3.8,5.3,2.3,9.1s-0.8,0.8-0.8,0.8l-2.1,1.5h-25.7c-0.6-1.8,0.2-3.7,1.9-4.5
	C760.8,949.1,767.7,946,768.4,942.2z"/>
<path class="st0" d="M916.7,942.2l9.9-6.1c0,0,4.6,0,6.1,6.1l-10.7,9.9c0,0-7.6,2.3-10.6,2.3s-1.5-3.8,0-4.6
	S916.7,944.5,916.7,942.2z"/>
<path class="st0" d="M809,744.2c0,0-4.6,3.1-8.2-3s-0.4-8.7-0.4-8.7c2-1.1,4.2-1.8,6.5-2.1c3.8-0.5,6,1.3,8.2,0.5s1-1.9,5.3-0.9
	s5.5-0.2,7.2,2.5s1.9,3.4,3.3,7.7s0.9,5.3,1.4,9.2s-2.4,2.4-1.7,7s0.3,6-1.6,4.8s-2.5,2.1-3.4-0.8l-3.5-10.8
	c-0.9-2.9-0.4-11.1-3.6-6s0.2,7.9-2.2,7.9s-1.9-1-3.1-2.2S811.9,743.2,809,744.2z"/>
<path class="st3" d="M807.2,785.6c0,0,6.1-17.5,23-17c11.1,0.3,20.9,3.4,21.8,24.1s-1.9,31.6,2.9,37.8s8.8,19,8.8,19
	s-24.6,21.1-52.8,14.5c0,0,0.7-33.2-5.9-54.1"/>
<path class="st3" d="M826.2,801.6c-19.6,29.6-80.3,38.9-80.3,38.9l-2.7-12.7c42.7-11.3,70.5-50.5,70.5-50.5s9.2-7.9,16.3-0.6"/>
<path class="st1" d="M1921.1,408.1c0,0-181.2-17.7-283.6,64.1"/>
<path class="st1" d="M1921.1,341.5c0,0-163.1,2.5-219.9-60.3"/>
<path class="st1" d="M1865.6,338.8c0,0-55.1-49.9-57.7-80.9"/>
<path class="st1" d="M1771.3,416.2c0,0-110.5-22.3-127.7-60.2"/>
<path class="st1" d="M1844,316.2c0,0,25-36.7-39.5-81.5C1804.5,234.7,1766.4,290.9,1844,316.2z"/>
<path class="st21" d="M1762,318c0,0-0.5-51.4-78-57.5C1684,260.5,1686.8,347.9,1762,318z"/>
<path class="st1" d="M1707.4,398c0,0-9.7-53.2-88.8-54.9C1618.6,343.1,1635.3,425.4,1707.4,398z"/>
<path class="st21" d="M1701.2,436.2c0,0-6.9,50.7-75.7,54.1C1625.5,490.3,1620.3,423.3,1701.2,436.2z"/>
<path class="st20" d="M1639.5,471.6c23.1-24.9,61.3-36.3,61.7-36.4l0.9,1.7c-0.4,0.1-38.5,11.4-61.3,35.9L1639.5,471.6z"/>
<path class="st20" d="M1703.2,280.9l1.3-1.1c22,24.5,58.4,37.5,58.7,37.6l-0.9,1.7C1762,318.9,1725.4,305.7,1703.2,280.9z"/>
<polyline class="st2" points="1750.4,544.9 1707.5,544.9 1707.5,590.5 1664.6,590.5 1664.6,636.2 1621.8,636.2 1621.8,681.8 
	1578.9,681.8 1578.9,722.3 1536.4,722.3 1536.4,800 1451.7,800 "/>
<path class="st3" d="M684.9,468.1l-9.6-1.3c0,0-3.2-5.7-5.7-7s-3.2-1.9-2.5-3.2s12.8,0,12.8,0l6.4,2.5
	C686.2,459.2,689.4,463,684.9,468.1z"/>
<path class="st22" d="M925.3,781.4c0,0,37.5,79,81.1,17.7c0,0,5.4,107,53.8,104.2c48.4-2.8,60.2,3.1,60.2,3.1s20.7,49.7,85.8,49.7"
	/>
<path class="st22" d="M1016.4,880.7c0,0,38.9-1.6,47.2-102.7c0,0,39,24.3,78.1,7.1c0,0,56.8,32.5,101.2-43.8c0,0,58,13,75.7,7.1
	c0,0,36.4,207.4,135.6,207.4s96.3,0.2,96.3,0.2"/>
<path class="st22" d="M972.9,756c0,0,58.5-9.1,72.8-92.7c0,0,138.4,6.3,222.3-140.4c0,0,63,180.5,145.8,183.4l55.1,2
	c0,0,35.4,58.4,57.9,58.4"/>
<path class="st6" d="M1436.6,786.2l-19.8-35.5c-0.2-0.4-0.4-0.8-0.5-1.2l-8.1-30.1l8.3-5.3l8.5,27.7c0.3,0.8,0.7,1.6,1.3,2.2
	l15.7,16.2h23l1.2,1.5c0.6,0.8,1.8,0.9,2.5,0.3c0.2-0.2,0.4-0.4,0.5-0.6l4.1-7.8c0.8-1.4,1-3.1,0.8-4.7l-4.4-30.6h8.9l7.2,33.9
	c0.3,1.4,0.2,2.9-0.3,4.2l-11.1,31c0,0,0.6,44.4,2.4,46.7c0,0-32.5,8.9-40.8,4.7s-7.1-4.2-7.1-4.7s5.3-52,5.3-52"/>
<polyline class="st1" points="1445.9,760.2 1448.5,756 1460.3,756 1463.4,760.2 "/>
<path class="st1" d="M1476.9,834.1c0,0,1.8,20.1,0,26.6s-5.9,33.1-5.9,33.1l15.4,51.5l-16.6,1.2l-17.2-45l-3-30.2"/>
<polyline class="st1" points="1454.4,861.3 1435.4,899.2 1434.3,941.8 1420.1,941.8 1416.5,893.3 1429.4,835.2 "/>
<path class="st1" d="M1451.4,732.4l-3.2,12.3c-0.6,2.1,0.6,4.3,2.6,5.2l2.3,0.9"/>
<line class="st1" x1="1450.8" y1="749.5" x2="1450.7" y2="756"/>
<line class="st1" x1="1459.8" y1="756" x2="1462.1" y2="751.3"/>
<path class="st6" d="M1450.2,728.8c0.9,3.6,0.6,4.7,3,5.9s4.1,1.8,3.6,3.5c-0.5,1.3-0.9,2.7-1.2,4.1v0.6c0,0,3-3,3-2.4
	s1.8,0,0.6,2.4s-1.2,1.2-1.2,2.4s-0.6,3-0.6,4.1s-1.2,0.6,0,1.2c1.4,0.6,2.9,1,4.4,1.2c0.9,0,2.1,1.2,3.3,0s2.4-5.3,2.4-5.3
	s-2.4,1.2,0-1.2s3-2.4,2.4-4.7s1.2-1.2-0.6-4.7s0-3-3-5.3s-3-3-5.3-3.5s-4.7-1.8-6.5-1.8S1449.7,726.5,1450.2,728.8z"/>
<path class="st5" d="M1416.5,714c0,0,3-8.9,0-7.7c-1.2,0.5-2.1,1.4-2.7,2.5c-0.2,0.4-0.7,0.5-1,0.3c-0.2-0.1-0.3-0.3-0.4-0.5
	c-1.2-4.6-3.7-14-4.1-11.8c-0.6,2.9-1.8,4.1-1.8,7.6c0,2.9,2.8,9.1,3.8,11.1c0.2,0.4,0.6,0.5,1,0.3l5.2-2.6"/>
<path class="st5" d="M1469.8,716.4c-1.1-0.9-2.3-1.6-3.6-2.4c-1.2-0.6,1.2-0.6,2.4-0.6s0.6-4.7-0.6-8.3s5.3,5.9,6.5,8.9l1.2,3h-5.9
	V716.4z"/>
<path class="st6" d="M1414.2,956c0,0-1.8-3.5,1.2-3.5c1.9-0.1,3.8-0.7,5.3-1.8l2.3-7.7c0,0,7.1-3.5,10.1,0c0,0,0.6,11.8-3.6,13
	S1414.2,956,1414.2,956z"/>
<path class="st6" d="M1475.9,956.6c0,0-3.1-9.4,1.6-10s6.5-0.1,11.6,10H1475.9z"/>
<polyline class="st2" points="886.7,903.3 1112.7,903.3 1112.7,951.9 "/>
<path class="st2" d="M1016.4,903.3c0,0-6.7-144.8,64.2-202.3"/>
<path class="st2" d="M1001.8,903.3c0,0-5.5-163.7,54.6-344.8"/>
<path class="st2" d="M1025.9,802.4c37.2-26.7,88.6-47.9,155.5-42.4"/>
<path class="st2" d="M1164.1,757.1c0,0-3.7-17.2,15.1-19.6C1179.3,737.5,1183.3,754.7,1164.1,757.1z"/>
<path class="st2" d="M1121.7,760c0,0-7.9-15.7,9.6-22.8C1131.3,737.2,1139.6,752.7,1121.7,760z"/>
<path class="st0" d="M1076,772.5c0,0-10.9-13.7,4.8-24.3C1080.8,748.2,1092,761.7,1076,772.5z"/>
<path class="st2" d="M1100.6,769.9c0,0,17.4-2.5,18.5,16.4C1119.1,786.3,1101.8,789.2,1100.6,769.9z"/>
<path class="st0" d="M1143.9,762.2c0,0,17.5,0.4,15.6,19.2C1159.5,781.4,1141.9,781.4,1143.9,762.2z"/>
<path class="st2" d="M1021.3,695.3c24.7-38.5,64.2-76.6,128.3-96.2"/>
<path class="st2" d="M1132.5,602.7c0,0-9.8-14.6,6.8-23.8C1139.3,578.9,1149.4,593.3,1132.5,602.7z"/>
<path class="st2" d="M1094.1,621c0,0-13.2-11.6,0.5-24.7C1094.6,596.3,1108,607.7,1094.1,621z"/>
<path class="st0" d="M1056.3,649.6c0,0-15.2-8.7-4.5-24.3C1051.7,625.2,1067.2,633.6,1056.3,649.6z"/>
<path class="st2" d="M1078.2,638c0,0,15.2-8.8,23.3,8.4C1101.4,646.4,1086.4,655.5,1078.2,638z"/>
<path class="st0" d="M1115.6,614.9c0,0,16.4-6.1,21.6,12.1C1137.1,627,1120.8,633.5,1115.6,614.9z"/>
<path class="st2" d="M1015.9,727.3c-4.8-45.5-23-97.2-71.6-143.5"/>
<path class="st2" d="M958,594.6c0,0,15.3-8.7,4.6-24.3C962.5,570.3,947.1,578.7,958,594.6z"/>
<path class="st2" d="M984,628.3c0,0,17-4.5,10.7-22.3C994.7,605.9,977.6,610,984,628.3z"/>
<path class="st0" d="M1005,670.7c0,0,17.5-1,15-19.7C1020,651,1002.4,651.6,1005,670.7z"/>
<path class="st2" d="M990.6,650.6c0,0-9.6-14.6-24.6-2.9C966.1,647.7,975.5,662.5,990.6,650.6z"/>
<path class="st0" d="M967.6,613.1c0,0-12-12.8-24.7,1.1C942.9,614.3,954.6,627.4,967.6,613.1z"/>
<path class="st2" d="M987.1,903.3c-0.4-156-27.4-204.2-76-250.5"/>
<path class="st2" d="M924.8,663.7c0,0,15.3-8.7,4.6-24.3C929.4,639.4,913.9,647.8,924.8,663.7z"/>
<path class="st2" d="M950.9,697.3c0,0,17-4.5,10.7-22.3C961.5,675,944.4,679.1,950.9,697.3z"/>
<path class="st0" d="M971.9,739.8c0,0,17.5-1,15-19.7C986.8,720.1,969.3,720.7,971.9,739.8z"/>
<path class="st2" d="M957.5,719.7c0,0-9.7-14.6-24.6-2.9C932.9,716.8,942.3,731.6,957.5,719.7z"/>
<path class="st0" d="M934.5,682.2c0,0-12-12.8-24.7,1.1C909.8,683.3,921.4,696.5,934.5,682.2z"/>
<path class="st2" d="M1076.3,701.4c0,0-15.3-8.7-4.6-24.3C1071.7,677.1,1087.2,685.5,1076.3,701.4z"/>
<path class="st2" d="M1034.4,620c0,0-17-4.3-10.9-22.2C1023.5,597.8,1040.7,601.7,1034.4,620z"/>
<path class="st0" d="M1045.7,601c0,0,16.6,5.8,21.3-12.5C1067.1,588.4,1050.6,582.3,1045.7,601z"/>
<path class="st2" d="M1049,573.2c0,0-17-4.3-10.9-22.2C1038.1,551,1055.3,554.9,1049,573.2z"/>
<path class="st2" d="M1050.2,733.3c0,0-17-4.5-10.7-22.3C1039.6,711,1056.7,715.1,1050.2,733.3z"/>
<path class="st0" d="M1031,775.7c0,0-17.5-1-15-19.7C1016,756,1033.6,756.6,1031,775.7z"/>
<path class="st2" d="M1043.6,755.6c0,0,9.7-14.6,24.6-2.9C1068.2,752.7,1058.8,767.6,1043.6,755.6z"/>
<path class="st0" d="M1066.6,718.2c0,0,12-12.8,24.7,1.1C1091.3,719.3,1079.7,732.4,1066.6,718.2z"/>
<path class="st2" d="M970.9,903.6c0,0,6.7-144.8-64.2-202.3"/>
<path class="st2" d="M961.4,802.8c-19.9-14.4-42.1-25.5-65.5-32.9"/>
<path class="st0" d="M911.3,772.8c0,0,10.9-13.7-4.8-24.3C906.5,748.5,895.2,762,911.3,772.8z"/>
<path class="st3" d="M1137.3,901.6c0,0-6.6,0.5-12.6,1l5.7-21.8h6.2c4.5,0,8.9,1.5,12.5,4.3l0,0c5.2,4.1,8,10.5,7.6,17.1l-2.7,45.7
	h-11.6L1137.3,901.6z"/>
<path class="st0" d="M920.6,718.5c0,0-12-12.8-24.7,1.1C895.9,719.6,907.6,732.7,920.6,718.5z"/>
<path class="st23" d="M1140.4,878.6H1074c0,0-4.9,25,20.3,25s18.3-0.3,18.3-0.3l20.9,3c1.1,0.2,2.2-0.6,2.4-1.7l5.8-24.4
	c0.2-0.7-0.3-1.5-1-1.6C1140.6,878.6,1140.5,878.6,1140.4,878.6z"/>
<path class="st23" d="M1153.9,947.9h-11.6c0,0-2.1,4.7-1,9.1h24.4c0,0,0.4-4.1-3.4-5.3S1155.2,949.8,1153.9,947.9z"/>
<path class="st2" d="M1097.8,831.5c15-12.8,38-42.1,38-42.1l6.8,6.2c0,0-15.3,28.5-35.8,49.7"/>
<path class="st2" d="M1111.4,840.3c-1.6,8-1.4,37.8-1.4,37.8l-28.9,0.5h-7.1c0,0-7.1-17.6-5-36.6c0.3-6.7-9.7-53.6-9.7-53.6l8.9-3.5
	l12.4,39.2"/>
<path class="st2" d="M1101.6,828.1c0,0-8.5-7.3-23.2-3.8"/>
<path class="st2" d="M1082.6,823.5l1-3.3c0,0,6.6-1.1,12.3,0.6l2.3,5.2"/>
<line class="st2" x1="1095.1" y1="820.5" x2="1094.5" y2="816"/>
<path class="st2" d="M1090.6,816.9l4.6-1.1c2-0.5,3.2-2.4,2.9-4.3l-2.2-12.4"/>
<path class="st0" d="M1097.5,795.2c-0.4,2.4,0.1,3.8-3.6,5.2s-2.1,7.6-2.1,7.6l-1.2,1.3c0,0-1.5-5.5-3.3-4.7s-0.9,6.2,0.7,7.4
	s1.3,5.6,0.7,6.2s-5-0.2-5.8,0s-1.7-0.5-2.2-2.3s-1.4-4.5-1.7-5.7c-0.6-1.4-1.4-2.7-2.4-3.9c0,0-3-6,0.5-8.7s6.7-4.1,8.4-4.2
	c1.7-0.1,3.4-0.1,5.1,0c1.9,0.1,3.3,1,4.5,0s1.2-2,2-1.4S1097.5,795.2,1097.5,795.2z"/>
<line class="st2" x1="1086.7" y1="819.9" x2="1085.7" y2="818.2"/>
<path class="st3" d="M1137.4,790.8c0,0-0.1-4.2,0.4-4.4s4.9-4.1,4-2.8s-1.6,2.4-0.8,2.9s0.8,0.9,1.6,0.9s1.1,0.3,1.1-2s-1-3.6,0-3.4
	s1.9,2.3,1.9,2.3l0.2,1.3c0,0,1.4,2.9-0.2,4.4s-4.1,4.5-4.1,4.5L1137.4,790.8z"/>
<path class="st3" d="M1315.3,756.5c0,0-1.8-3.8-1.4-4.2s2.8-5.7,2.6-4.1s-0.5,2.8,0.4,3s1.1,0.5,1.8,0.2s1.1-0.2,0.2-2.3
	s-2.4-2.9-1.3-3.1s2.6,1.3,2.6,1.3l0.7,1.1c0,0,2.4,2.1,1.6,4.1s-2,5.7-2,5.7L1315.3,756.5z"/>
<path class="st3" d="M1066.8,785.4c0.1-1.5,0.1-3.1,0-4.6c-0.2-0.1-2.6-2.8-3.5-2.7s-1.1,0.6,0.3,2.2s1,3.1-0.3,3s-2.5-0.6-2.3-4.2
	s-1.3-2.6-1.7-0.5s-1,2.7-0.6,4c0.8,1.7,1.7,3.3,2.7,4.9L1066.8,785.4z"/>
<path class="st3" d="M1246.1,748.7c0,0,1-4.4,0.8-4.5s-2-3.2-3-3.3s-1.2,0.4,0,2.2s0.4,3.2-0.9,2.9s-2.4-1-1.5-4.5s-0.9-2.8-1.6-0.8
	s-1.5,2.5-1.3,3.9c0.5,1.8,1,3.6,1.8,5.3L1246.1,748.7z"/>
<path class="st3" d="M1084.6,836.1c0,0-2.6,16,0,31.7"/>
<polyline class="st23" points="1282.2,869.3 1276.8,907.1 1261.9,943.6 1252.3,943.6 1257.6,906.4 1259.3,854.7 1305,854.7 
	1307.1,908.8 1296.6,943.6 1286.1,943.6 1289.3,906.5 1281.5,874.1 "/>
<path class="st3" d="M1260.3,945.2h-8c-1.5,1-2.4,2.5-2.6,4.3l2,2.3c1.5,1.8,3.7,2.9,6,3.1c3.3,0.4,8.1,0.9,10.4,0.9
	c0.5-2.4-0.9-4.8-3.3-5.3C1262.4,949.8,1260.6,947.7,1260.3,945.2z"/>
<path class="st3" d="M1295.3,945.2h-8c-1.5,1-2.4,2.5-2.6,4.3l2,2.3c1.5,1.8,3.7,2.9,6,3.1c3.3,0.4,8.1,0.9,10.4,0.9
	c0.5-2.4-0.9-4.8-3.3-5.3C1297.4,949.8,1295.7,947.7,1295.3,945.2z"/>
<path class="st3" d="M1286.3,791.8l-4.1,10.5c0,0-3.6-7-5.6-9s-7-2-9.1-2.8s-5.1-5.6-6.4-6.8s-13.2-29-13.4-35.2l-8.8,1.9
	c0,0,5.2,29.9,15.7,51.8s2.7,41.5,2.4,43.6s-2.9,12,8.3,11.8s18.1-2.4,22.8-2.2s9.2,2.4,13.5,2.2s5.6-2.2,3.4-9s-5.2-22.1-2.4-35
	s18.5-55,18.5-55l-8.4-2.9c0,0-12.6,31.4-16.3,33.3S1290.2,789.7,1286.3,791.8z"/>
<line class="st2" x1="1286.3" y1="791.8" x2="1285.7" y2="785.6"/>
<path class="st3" d="M1281.1,787.1l5.2-1.4c1.5-0.4,2.4-1.8,2.3-3.3l-1.2-10.9"/>
<path class="st0" d="M1284.9,772.7c0,0,4.1,0.3,4.7-1.2s1.1-2.9,0.1-4.4s-0.4-2-2.6-2.1s-0.8,0.6-3.4,0c-2.3-0.5-3.3,0.9-3.7,1
	c-2.3,0.5-3.5,1.3-4.5,0.8c-1.3-0.7-2.4,3.3-3,4.6s-1.3,1.9-1.6,4s1.6,5.3,1.8,6.1c0.4,1,0.9,1.9,1.5,2.7c0.6,0.8,0.5,1.7,1.1,1.8
	s4.4,3.4,3.2-0.5s-2.3-4.7-1.4-5.8s0.5-2.7,1.6-1.4s1.7,2.6,2,2.3s0.4-0.5,0-2.3s-0.1-1.8,0.4-3.4S1283.1,772.7,1284.9,772.7z"/>
<line class="st2" x1="1277.7" y1="787.5" x2="1276.6" y2="793.4"/>
<path class="st0" d="M1508.8,948.7l67.8-0.1c3,0,5.5,2.4,5.5,5.4l0,0c0,3-2.4,5.5-5.4,5.5l-67.8,0.1c-3,0-5.5-2.4-5.5-5.4l0,0
	C1503.3,951.1,1505.8,948.7,1508.8,948.7z"/>
<path class="st0" d="M1508.7,878.7l67.8-0.1c3,0,5.5,2.4,5.5,5.4l0,0c0,3-2.4,5.5-5.4,5.5l-67.8,0.1c-3,0-5.5-2.4-5.5-5.4l0,0
	C1503.2,881.2,1505.7,878.7,1508.7,878.7z"/>
<path class="st1" d="M1576.5,889.5c0,0-12.8,20.5,0.1,59.1"/>
<path class="st1" d="M1509,889.6c0,0,12.8,20.4,0.1,59.1"/>
<line class="st1" x1="1568.6" y1="892.8" x2="1537.9" y2="945.6"/>
<line class="st1" x1="1558.8" y1="892.8" x2="1537.9" y2="928.6"/>
<path class="st1" d="M1508.7,878.7c0,0,33.9-15,67.8-0.1"/>
<path class="st0" d="M1178.8,220.7l67.8-0.1c3,0,5.5,2.4,5.5,5.4l0,0c0,3-2.4,5.5-5.4,5.5l-67.8,0.1c-3,0-5.5-2.4-5.5-5.4l0,0
	C1173.3,223.1,1175.8,220.7,1178.8,220.7z"/>
<path class="st0" d="M1178.7,150.7l67.8-0.1c3,0,5.5,2.4,5.5,5.4l0,0c0,3-2.4,5.5-5.4,5.5l-67.8,0.1c-3,0-5.5-2.4-5.5-5.4l0,0
	C1173.2,153.2,1175.7,150.7,1178.7,150.7z"/>
<path class="st1" d="M1246.5,161.5c0,0-12.8,20.4,0.1,59.1"/>
<path class="st1" d="M1179,161.6c0,0,12.8,20.4,0.1,59.1"/>
<line class="st1" x1="1238.6" y1="164.8" x2="1207.9" y2="217.6"/>
<line class="st1" x1="1228.8" y1="164.8" x2="1207.9" y2="200.6"/>
<path class="st1" d="M1178.7,150.7c0,0,33.9-15,67.8-0.1"/>
<path class="st17" d="M607.2,171.9c0,1.1-2,1.8-2.3,2.8s1.1,2.7,0.5,3.6s-2.6,0.6-3.4,1.3s-0.4,2.9-1.3,3.4s-2.6-0.8-3.6-0.6
	s-1.8,2.3-2.8,2.3s-1.8-2-2.8-2.3s-2.7,1.1-3.6,0.6s-0.6-2.6-1.3-3.4s-2.8-0.4-3.4-1.3s0.8-2.6,0.5-3.6s-2.3-1.8-2.3-2.8
	s2-1.8,2.3-2.8s-1.1-2.7-0.5-3.6s2.6-0.6,3.4-1.3s0.4-2.9,1.3-3.4s2.6,0.8,3.6,0.6s1.8-2.3,2.8-2.3s1.8,2,2.8,2.3s2.7-1.1,3.6-0.6
	s0.6,2.6,1.3,3.4s2.8,0.4,3.4,1.3s-0.8,2.6-0.5,3.6S607.2,170.8,607.2,171.9z"/>
<path class="st19" d="M607.2,171.9c0,1.1-2,1.8-2.3,2.8s1.1,2.7,0.5,3.6s-2.6,0.6-3.4,1.3s-0.4,2.9-1.3,3.4s-2.6-0.8-3.6-0.6
	s-1.8,2.3-2.8,2.3s-1.8-2-2.8-2.3s-2.7,1.1-3.6,0.6s-0.6-2.6-1.3-3.4s-2.8-0.4-3.4-1.3s0.8-2.6,0.5-3.6s-2.3-1.8-2.3-2.8
	s2-1.8,2.3-2.8s-1.1-2.7-0.5-3.6s2.6-0.6,3.4-1.3s0.4-2.9,1.3-3.4s2.6,0.8,3.6,0.6s1.8-2.3,2.8-2.3s1.8,2,2.8,2.3s2.7-1.1,3.6-0.6
	s0.6,2.6,1.3,3.4s2.8,0.4,3.4,1.3s-0.8,2.6-0.5,3.6S607.2,170.8,607.2,171.9z"/>
<rect x="481.6" y="-202.6" class="st2" width="221.2" height="316"/>
<rect x="475.3" y="113.5" class="st21" width="233.7" height="13.1"/>
<path class="st2" d="M481.6,126.6c0,0,106.3,37.5,221.2,0"/>
<rect x="588" y="143.8" class="st2" width="12.8" height="28.1"/>
<rect x="555.8" y="165.4" class="st2" width="77.1" height="12.8"/>
<line class="st19" x1="529.4" y1="56" x2="529.4" y2="-108.6"/>
<line class="st2" x1="1730" y1="7.9" x2="1556.7" y2="7.9"/>
<path class="st2" d="M1594.8,93h-13.1c-0.1-35.4,28.5-64.2,63.9-64.3c35-0.1,63.7,27.9,64.3,63c0,0.4,0,0.9,0,1.3s0,0.9,0,1.3
	c-0.7,28.7-24.6,51.3-53.3,50.6c-23.1-0.6-43-16.4-48.9-38.7"/>
<path class="st2" d="M1607.7,106.2c-1.1-4.3-1.7-8.8-1.7-13.2"/>
<polygon class="st0" points="1618.7,81.8 1678,81.8 1688.1,7.9 1608.6,7.9 "/>
<circle class="st3" cx="1648.3" cy="53.8" r="13.4"/>
<path class="st2" d="M1180.5,264.9c0,0-4.6,4-2.2,19.2c0,0,0.7,7.7,0.1,10.4"/>
<line class="st2" x1="1191.9" y1="290.3" x2="1189.6" y2="300.6"/>
<path class="st2" d="M1191.9,301.9l-16.3-9.6l-2.5,6c0,0,10.5,8.4,20.8,12.4C1193.9,310.8,1192.1,304.4,1191.9,301.9z"/>
<path class="st19" d="M1202.8,336.9c-1.3-10.1-4-19.7-8.8-26.1"/>
<path class="st19" d="M1174.4,299.4c0,0-12.8,20.9-6.8,51.8c5,26.2,2.2,46,2.2,46l41.3-4.5c0,0-6.8-24.1-7.2-40.6"/>
<path class="st19" d="M1205,393.7l25.6,114.5H1209l-31.4-86.9c0,0-4.5-12.5-5-24.3"/>
<line class="st19" x1="1219.3" y1="505.9" x2="1194.6" y2="420.5"/>
<path class="st19" d="M1206.1,393.1l27.4,39c1.1,1.7,0.8,4-0.8,5.3l-15.1,12.9"/>
<polyline class="st2" points="1193.9,466.6 1179,477.5 1179,448.7 1185.6,443.6 "/>
<path class="st2" d="M1174.9,450.4v16.8l-4.9,14.8c-0.5,1.5-1.9,2.5-3.4,2.5h-2v-34C1167.9,449,1171.6,449,1174.9,450.4z"/>
<path class="st2" d="M1212.2,512.1h16.8l14.8,4.9c1.5,0.5,2.5,1.9,2.5,3.4v2h-34C1210.8,519.1,1210.8,515.4,1212.2,512.1z"/>
<polygon class="st0" points="1174.9,451.5 1179,450.4 1179,462.6 1174.9,465 "/>
<polygon class="st0" points="1212.4,508.2 1213.1,512.1 1226.7,512.1 1225.7,508.2 "/>
<path class="st19" d="M1195.6,333.8l-19.9,9.2l-4.9-18.8c-1.5-5.8,1.9-11.7,7.7-13.2c0,0,0,0,0,0l0,0c5.8-1.5,11.7,1.9,13.2,7.7
	L1195.6,333.8z"/>
<path class="st19" d="M1193.9,334.6c0.5,2.2,0.7,4.5,0.7,6.7"/>
<path class="st19" d="M1190.8,345.4c0,0,8.9-6,18.3-11.3c3.8-1.4,4,0.6,4,0.6s2.5,5.2,1.6,6.7s-15,16-23.9,19.4
	s-13.7-18.4-13.7-18.4"/>
<path class="st2" d="M1183,281.1l1.3,4.5c0.5,1.7,1.8,3,3.5,3.5l10.7,3.1c1.4,0.4,2.8-0.4,3.2-1.7c0,0,0-0.1,0-0.1l4.5-18.3"/>
<path class="st17" d="M1180.5,265.6l25,7.2l-4.1,16.8c0,0-0.3,2.6-2.7,2l-6.6-1.6l-2.8,9.8l-10.3-6.1c0,0-0.5-10-0.6-11.2
	S1176.7,270.7,1180.5,265.6z"/>
<path class="st19" d="M1211.1,333.5c0,0,2.3-5.9,6.4-3s5,16.1-4.2,12.5"/>
<polygon class="st17" points="1177.4,343 1193.5,335.3 1194.3,339.1 1194.3,341.9 1205.8,336.6 1210.8,333.5 1214.9,329.4 
	1219.7,332.5 1220.9,339 1218.6,343.3 1213,343.6 1203.9,352.8 1191.4,360.9 1186.9,361.1 1183,356.7 1178.8,349.6 "/>
<path class="st3" d="M1201.7,274.7c-4.1,0.7-6.2,0-7.6-0.7s-1.4-2.8-2.8-1.4c-1.3,1.6-2,3.5-2.1,5.5c0,1.4,0,2.1-0.7,1.4
	s-0.7-2.8-1.4-4.1s0.7-1.4-0.7-1.4s-2.1,0-2.8,2.1c-0.5,1.1-0.7,2.3-0.7,3.4c0,1.4,0,2.8-1.4,3.4s-0.7-0.7-2.1,0.7s-1.4,2.1-2.1,0
	s0-2.1-0.7-4.1s0-2.8-0.7-5.5c-0.5-1.8-0.8-3.6-0.7-5.5c0-2.1,1.4-5.5,2.1-5.5s4.1-2.1,5.5-2.1s4.8,0,5.5-0.7s0,0,3.4,0
	s4.1,0.7,6.9,1.4s4.1,0.7,4.8,1.4l2.8,2.8c0.8,0.7,1.4,1.7,1.4,2.8v4.1l-2.4,2.4L1201.7,274.7z"/>
<polyline class="st2" points="1877.8,975.6 1877.8,1057 1920.4,1057 "/>
<polyline class="st2" points="1877.8,839.2 1754.4,839.2 1754.4,981.7 1877.8,981.7 "/>
<polyline class="st2" points="1877.8,937.1 1877.8,829.4 1877.8,767.6 1630,767.6 "/>
<polygon class="st3" points="1772.3,839.2 1772.3,910.5 1772.3,981.7 1800.2,994.9 1800.2,910.5 1800.2,826 "/>
<g>
	<defs>
		<polygon id="SVGID_1_" points="1772.3,839.2 1772.3,910.5 1772.3,981.7 1800.2,994.9 1800.2,910.5 1800.2,826 		"/>
	</defs>
	<clipPath id="SVGID_2_">
		<use xlink:href="#SVGID_1_"  style="overflow:visible;"/>
	</clipPath>
	<g class="st24">
		<line class="st25" x1="1766.5" y1="969.9" x2="1810.2" y2="981.7"/>
		<line class="st25" x1="1766.5" y1="955" x2="1810.2" y2="963.9"/>
		<line class="st25" x1="1766.5" y1="940.2" x2="1810.2" y2="946.1"/>
		<line class="st25" x1="1766.5" y1="925.3" x2="1810.2" y2="928.3"/>
		<line class="st25" x1="1766.5" y1="910.5" x2="1810.2" y2="910.5"/>
		<line class="st25" x1="1766.5" y1="895.6" x2="1810.2" y2="892.7"/>
		<line class="st25" x1="1766.5" y1="880.8" x2="1810.2" y2="874.8"/>
		<line class="st25" x1="1766.5" y1="865.9" x2="1810.2" y2="857"/>
		<line class="st25" x1="1766.5" y1="851.1" x2="1810.2" y2="839.2"/>
	</g>
</g>
<polyline class="st3" points="1839.8,839.2 1839.8,922 1877.8,922 "/>
<rect x="1833.8" y="839.2" class="st0" width="6.1" height="87.4"/>
<path class="st26" d="M442.2,945.5h98.9c48.7,0,88.1,39.4,88.1,88.1l0,0c0,48.7-39.4,88.1-88.1,88.1H32.8
	c-48.7,0-88.1-39.4-88.1-88.1l0,0c0-48.7,39.4-88.1,88.1-88.1H442.2z"/>
<path class="st2" d="M148.7,834.4v231.7c0,1.7-1.4,3.2-3.2,3.2l0,0c-1.7,0-3.2-1.4-3.2-3.2l0,0V865.4"/>
</svg>
