<svg xmlns="http://www.w3.org/2000/svg" viewBox="0 0 2343.4 1196.77"><title>pipe</title><polyline points="932.01 600.98 932.01 616.28 843.15 616.28" fill="none" stroke="#2e2d75" stroke-miterlimit="10" stroke-width="2"/><polyline points="272.69 458.7 272.69 288.76 932.01 288.76 932.01 600.98" fill="none" stroke="#2e2d75" stroke-miterlimit="10" stroke-width="2"/><polyline points="385.87 506.61 385.87 328.18 619.92 328.18 619.92 616.28 385.87 616.28 385.87 518.23" fill="none" stroke="#2e2d75" stroke-miterlimit="10" stroke-width="2"/><polyline points="385.87 519.29 425.71 519.29 425.71 500.14 385.87 500.14 385.87 507.77" fill="none" stroke="#2e2d75" stroke-miterlimit="10" stroke-width="2"/><text transform="translate(467.34 438.59)" font-size="15" fill="#302d77" font-family="AvenirLTStd-Medium, Avenir LT Std" font-weight="500">life<tspan x="0" y="19">th</tspan><tspan x="13.89" y="19" letter-spacing="-0.02em">r</tspan><tspan x="19.17" y="19" letter-spacing="0em">ough</tspan><tspan x="0" y="38">design</tspan></text><path d="M797.25,616.28S810.36,348.81,562.5,234.16" fill="none" stroke="#2e2d75" stroke-miterlimit="10" stroke-width="2"/><path d="M829.67,244.21s-1.21,29.64,30.76,28.33C860.43,272.54,862.3,242.87,829.67,244.21Z" fill="none" stroke="#2e2d75" stroke-miterlimit="10" stroke-width="2"/><path d="M812,616.28S810.9,349.9,902.62,185" fill="none" stroke="#2e2d75" stroke-miterlimit="10" stroke-width="2"/><path d="M855.28,185s-5.63,29.13,26.17,32.62C881.45,217.64,887.74,188.58,855.28,185Z" fill="none" stroke="#2e2d75" stroke-miterlimit="10" stroke-width="2"/><path d="M807.58,312.75s2.75,29.54,34.26,24C841.84,336.72,839.74,307.07,807.58,312.75Z" fill="#302d77" stroke="#2e2d75" stroke-miterlimit="10" stroke-width="2"/><path d="M858.31,307.9s21.05,20.91,41.66-3.56C900,304.34,879.35,282.92,858.31,307.9Z" fill="none" stroke="#2e2d75" stroke-miterlimit="10" stroke-width="2"/><path d="M880.14,244.14s21.05,20.91,41.66-3.56C921.8,240.58,901.18,219.17,880.14,244.14Z" fill="#302d77" stroke="#2e2d75" stroke-miterlimit="10" stroke-width="2"/><path d="M590.32,244.16S610,222,584.39,202.77C584.39,202.77,564.19,224.58,590.32,244.16Z" fill="#302d77" stroke="#2e2d75" stroke-miterlimit="10" stroke-width="2"/><path d="M650.36,283.74s24.7-16.43,4.86-41.53C655.22,242.21,630.11,258.12,650.36,283.74Z" fill="none" stroke="#2e2d75" stroke-miterlimit="10" stroke-width="2"/><path d="M707.19,340.18s27.51-11.08,13.17-39.68C720.36,300.5,692.55,311,707.19,340.18Z" fill="none" stroke="#2e2d75" stroke-miterlimit="10" stroke-width="2"/><path d="M673.15,315.88s-23.47-18.14-40.89,8.69C632.26,324.57,655.37,343.26,673.15,315.88Z" fill="#302d77" stroke="#2e2d75" stroke-miterlimit="10" stroke-width="2"/><path d="M379.54,1139s-7.81,1.15-5.89,9.44C373.65,1148.42,381.5,1147.45,379.54,1139Z" fill="#302d77" stroke="#2e2d75" stroke-miterlimit="10" stroke-width="2"/><path d="M364,1139.42s-1.87,7.67,6.54,9C370.56,1148.42,372.6,1140.78,364,1139.42Z" fill="none" stroke="#2e2d75" stroke-miterlimit="10" stroke-width="2"/><path d="M891.79,603.91s-7.81,1.14-5.89,9.44C885.9,613.35,893.75,612.38,891.79,603.91Z" fill="#302d77" stroke="#2e2d75" stroke-miterlimit="10" stroke-width="2"/><path d="M876.26,604.35s-1.87,7.67,6.54,9C882.8,613.35,884.84,605.71,876.26,604.35Z" fill="none" stroke="#2e2d75" stroke-miterlimit="10" stroke-width="2"/><path d="M1450.86,746.14s-7.81,1.15-5.89,9.44C1445,755.58,1452.82,754.61,1450.86,746.14Z" fill="#302d77" stroke="#2e2d75" stroke-miterlimit="10" stroke-width="2"/><path d="M1435.34,746.58s-1.87,7.67,6.54,9C1441.88,755.58,1443.92,747.94,1435.34,746.58Z" fill="none" stroke="#2e2d75" stroke-miterlimit="10" stroke-width="2"/><path d="M1556.51,1066.77s-7.81,1.15-5.89,9.44C1550.62,1076.21,1558.47,1075.24,1556.51,1066.77Z" fill="#302d77" stroke="#2e2d75" stroke-miterlimit="10" stroke-width="2"/><path d="M1541,1067.21s-1.87,7.67,6.54,9C1547.53,1076.21,1549.57,1068.57,1541,1067.21Z" fill="none" stroke="#2e2d75" stroke-miterlimit="10" stroke-width="2"/><path d="M502.51,861s-7.82,1.15-5.9,9.44C496.61,870.4,504.47,869.43,502.51,861Z" fill="#302d77" stroke="#2e2d75" stroke-miterlimit="10" stroke-width="2"/><path d="M487,861.4s-1.87,7.67,6.54,9C493.52,870.4,495.56,862.76,487,861.4Z" fill="none" stroke="#2e2d75" stroke-miterlimit="10" stroke-width="2"/><path d="M615.86,268.48s-26.14-14-38.92,15.3C576.94,283.78,602.82,298.41,615.86,268.48Z" fill="none" stroke="#2e2d75" stroke-miterlimit="10" stroke-width="2"/><path d="M93.25,267.74C155,221,240.82,182.84,354.09,189.1" fill="none" stroke="#2e2d75" stroke-miterlimit="10" stroke-width="2"/><path d="M324.82,184.87s-6.95-28.84,24.66-33.76C349.48,151.11,357.09,179.84,324.82,184.87Z" fill="none" stroke="#2e2d75" stroke-miterlimit="10" stroke-width="2"/><path d="M253.23,191.64s-14.1-26.1,15.2-38.95C268.43,152.69,283.14,178.52,253.23,191.64Z" fill="none" stroke="#2e2d75" stroke-miterlimit="10" stroke-width="2"/><path d="M176.56,214.82s-19.09-22.7,7-41.22C183.55,173.6,203.19,195.92,176.56,214.82Z" fill="#302d77" stroke="#2e2d75" stroke-miterlimit="10" stroke-width="2"/><path d="M218,209.33s29.25-5,32,26.87C250.06,236.2,220.87,241.86,218,209.33Z" fill="none" stroke="#2e2d75" stroke-miterlimit="10" stroke-width="2"/><path d="M290.86,194.36s29.67-.12,27.19,31.77C318.05,226.13,288.33,226.92,290.86,194.36Z" fill="#302d77" stroke="#2e2d75" stroke-miterlimit="10" stroke-width="2"/><line x1="419.13" y1="152.69" x2="803.71" y2="152.69" fill="none" stroke="#2e2d75" stroke-miterlimit="10" stroke-width="2"/><line x1="350.57" y1="234.16" x2="517.49" y2="234.16" fill="none" stroke="#2e2d75" stroke-miterlimit="10" stroke-width="2"/><line x1="272.38" y1="953.53" x2="272.38" y2="485.71" fill="none" stroke="#2e2d75" stroke-miterlimit="10" stroke-width="2"/><rect x="607.07" y="328.18" width="12.85" height="288.1" fill="#302d77" stroke="#2e2d75" stroke-miterlimit="10" stroke-width="2"/><path d="M295.54,499.57s-6.67,5.81-3.23,28c0,0,1.08,11.19.22,15.06" fill="none" stroke="#2e2d75" stroke-miterlimit="10" stroke-width="2"/><line x1="312.14" y1="536.46" x2="308.88" y2="551.42" fill="none" stroke="#2e2d75" stroke-miterlimit="10" stroke-width="2"/><path d="M312.14,553.36l-23.7-14-3.66,8.8s15.28,12.26,30.34,18.07C315.12,566.27,312.39,557,312.14,553.36Z" fill="none" stroke="#2e2d75" stroke-miterlimit="10" stroke-width="2"/><path d="M328,604.28c-1.92-14.7-5.75-28.67-12.86-38" fill="none" stroke="#2e2d75" stroke-linejoin="round" stroke-width="2"/><path d="M286.7,549.68s-18.55,30.42-10,75.29c7.29,38.1,3.19,66.9,3.19,66.9l60.16-6.56s-9.86-35.07-10.53-59" fill="none" stroke="#2e2d75" stroke-linejoin="round" stroke-width="2"/><path d="M331.22,686.94l37.2,166.69H337L291.32,727.22s-6.52-18.12-7.3-35.35" fill="none" stroke="#2e2d75" stroke-linejoin="round" stroke-width="2"/><line x1="352.1" y1="850.28" x2="316.12" y2="725.96" fill="none" stroke="#2e2d75" stroke-linejoin="round" stroke-width="2"/><path d="M332.84,686.1l39.91,56.82a6,6,0,0,1-1.18,7.77L349.62,769.4" fill="none" stroke="#2e2d75" stroke-linejoin="round" stroke-width="2"/><polyline points="315.12 793.04 293.43 808.84 293.43 766.99 303.03 759.6" fill="none" stroke="#2e2d75" stroke-miterlimit="10" stroke-width="2"/><path d="M287.45,769.4v24.37l-7.17,21.53a5.26,5.26,0,0,1-5,3.59h-2.91V769.4A19.39,19.39,0,0,1,287.45,769.4Z" fill="none" stroke="#2e2d75" stroke-miterlimit="10" stroke-width="2"/><path d="M341.65,859.2H366l21.52,7.17a5.26,5.26,0,0,1,3.6,5v2.91h-49.5A19.39,19.39,0,0,1,341.65,859.2Z" fill="none" stroke="#2e2d75" stroke-miterlimit="10" stroke-width="2"/><polygon points="287.45 770.99 293.43 769.39 293.43 787.2 287.45 790.72 287.45 770.99" fill="#302d77" stroke="#2e2d75" stroke-miterlimit="10" stroke-width="2"/><polygon points="341.98 853.63 343.05 859.2 362.79 859.2 361.36 853.63 341.98 853.63" fill="#302d77" stroke="#2e2d75" stroke-miterlimit="10" stroke-width="2"/><path d="M317.59,599.8l-29,13.34-7.15-27.29a15.7,15.7,0,0,1,11.2-19.18h0a15.71,15.71,0,0,1,19.18,11.21Z" fill="none" stroke="#2e2d75" stroke-linejoin="round" stroke-width="2"/><path d="M315.12,600.93a40.7,40.7,0,0,1,1,9.82" fill="none" stroke="#2e2d75" stroke-linejoin="round" stroke-width="2"/><path d="M310.51,616.62s12.89-8.78,26.58-16.51c5.5-2,5.87.82,5.87.82s3.67,7.62,2.38,9.82-21.78,23.3-34.83,28.25-20-26.73-20-26.73" fill="none" stroke="#2e2d75" stroke-linejoin="round" stroke-width="2"/><path d="M299.26,523.1l1.87,6.55a7.44,7.44,0,0,0,5.06,5.08l15.55,4.52a3.75,3.75,0,0,0,4.68-2.7L333,510" fill="none" stroke="#2e2d75" stroke-miterlimit="10" stroke-width="2"/><path d="M295.54,500.51l36.36,10.54-6,24.5s-.42,3.82-3.94,2.92-9.55-2.38-9.55-2.38l-4.06,14.2-14.95-8.89s-.75-14.51-.93-16.3S290,508,295.54,500.51Z" fill="#302d77"/><path d="M340.08,599.38s3.3-8.53,9.37-4.37,7.21,23.41-6.11,18.13" fill="none" stroke="#2e2d75" stroke-linejoin="round" stroke-width="2"/><polygon points="291.12 613.14 314.52 601.98 315.65 607.56 315.65 611.5 332.4 603.84 339.62 599.38 345.62 593.43 352.61 597.94 354.3 607.3 351 613.6 342.93 614.05 329.58 627.39 311.45 639.18 304.84 639.53 299.26 633.13 293.06 622.8 291.12 613.14" fill="#302d77"/><path d="M326.4,513.84c-6,1-9,0-11-1s-2-4-4-2-3,6-3,8,0,3-1,2-1-4-2-6,1-2-1-2-3,0-4,3-1,3-1,5,0,4-2,5-1-1-3,1-2,3-3,0,0-3-1-6,0-4-1-8a24.85,24.85,0,0,1-1-8c0-3,2-8,3-8s6-3,8-3,7,0,8-1,0,0,5,0,6,1,10,2,6,1,7,2l4,4a5.2,5.2,0,0,1,2,4v6l-3.5,3.53Z" fill="#fff" stroke="#2e2d75" stroke-miterlimit="10" stroke-width="2"/><path d="M779,508.63h-77.9l-.3-.4a80.15,80.15,0,0,1,26.11-119.1l1.22,1.6a78.56,78.56,0,0,0-41.6,69.09A77.45,77.45,0,0,0,702,506.63H778.4Z" fill="#2e2d75"/><path d="M764.59,539.94a79.38,79.38,0,0,1-58.14-25l-1.6-1.69h75.63l.65,2H709.55a77.34,77.34,0,0,0,55,22.69,78.44,78.44,0,0,0,19.93-2.57l.51,1.93A80.14,80.14,0,0,1,764.59,539.94Z" fill="#2e2d75"/><polygon points="770.96 474.25 752.8 456.08 761.32 447.56 762.18 449.53 755.63 456.08 769.24 469.7 770.96 474.25" fill="#2e2d75"/><line x1="885.58" y1="863.86" x2="935.92" y2="863.86" fill="none" stroke="#2e2d75" stroke-miterlimit="10" stroke-width="2"/><path d="M1263.27,863.86h61.44a54.74,54.74,0,0,1,54.74,54.75h0a54.74,54.74,0,0,1-54.74,54.74H836.13a54.74,54.74,0,0,1-54.75-54.74h0a54.75,54.75,0,0,1,54.75-54.75h23.49" fill="none" stroke="#2e2d75" stroke-miterlimit="10" stroke-width="2"/><line x1="1025.85" y1="863.86" x2="1128.4" y2="863.86" fill="none" stroke="#2e2d75" stroke-miterlimit="10" stroke-width="2"/><polyline points="857.88 951.54 857.88 973.35 842.55 988.69 833.64 988.65 848.94 973.35 848.94 910.89" fill="none" stroke="#2e2d75" stroke-miterlimit="10" stroke-width="2"/><polyline points="1306.46 951.54 1306.46 973.35 1321.68 988.58 1330.59 988.55 1315.4 973.35" fill="none" stroke="#2e2d75" stroke-miterlimit="10" stroke-width="2"/><polyline points="374.92 874.27 584.94 874.27 782.39 988.69 913.85 988.69 1516.05 988.69 1516.05 1079.42" fill="none" stroke="#2e2d75" stroke-miterlimit="10" stroke-width="2"/><polyline points="297.13 1151.45 233.34 1151.45 0 1150.49" fill="none" stroke="#2e2d75" stroke-miterlimit="10" stroke-width="2"/><line x1="444.79" y1="1151.45" x2="297.13" y2="1151.45" fill="none" stroke="#2e2d75" stroke-miterlimit="10" stroke-width="2"/><line x1="599.11" y1="616.28" x2="643.1" y2="616.28" fill="none" stroke="#2e2d75" stroke-miterlimit="10" stroke-width="2"/><line x1="926.36" y1="616.28" x2="959.99" y2="616.28" fill="none" stroke="#2e2d75" stroke-miterlimit="10" stroke-width="2"/><line x1="1623.4" y1="615.84" x2="1726.5" y2="616.28" fill="none" stroke="#2e2d75" stroke-miterlimit="10" stroke-width="2"/><polyline points="1463.45 101.82 1463.45 422.23 1674.38 422.23 1674.38 444.4 1700.02 444.4 1700.02 465.38 1725.22 465.38 1725.22 998.03" fill="none" stroke="#2e2d75" stroke-miterlimit="10" stroke-width="2"/><line x1="1316.21" y1="758.17" x2="1484.14" y2="758.17" fill="none" stroke="#2e2d75" stroke-miterlimit="10" stroke-width="2"/><line x1="1475.31" y1="740.71" x2="1707.93" y2="740.71" fill="none" stroke="#2e2d75" stroke-miterlimit="10" stroke-width="2"/><line x1="373.68" y1="616.28" x2="417.67" y2="616.28" fill="none" stroke="#2e2d75" stroke-miterlimit="10" stroke-width="2"/><path d="M910.6,707.56h29.1a0,0,0,0,1,0,0V722.1a14.55,14.55,0,0,1-14.55,14.55h0A14.55,14.55,0,0,1,910.6,722.1V707.56A0,0,0,0,1,910.6,707.56Z" transform="translate(-156.73 267.28) rotate(-15.17)" fill="none" stroke="#2e2d75" stroke-miterlimit="10" stroke-width="2"/><path d="M904.72,693.15h29.1a0,0,0,0,1,0,0v0a14.55,14.55,0,0,1-14.55,14.55h0a14.55,14.55,0,0,1-14.55-14.55v0A0,0,0,0,1,904.72,693.15Z" transform="translate(1989.8 1135.85) rotate(164.83)" fill="#302d77" stroke="#2e2d75" stroke-miterlimit="10" stroke-width="2"/><path d="M910.81,710a11.76,11.76,0,0,1,.55-7.51" fill="none" stroke="#fff" stroke-miterlimit="10"/><line x1="908.44" y1="708.32" x2="916.87" y2="706.19" fill="none" stroke="#fff" stroke-miterlimit="10"/><path d="M914.32,705.29a9.7,9.7,0,0,0,0,3.68" fill="none" stroke="#fff" stroke-miterlimit="10"/><path d="M974.69,789l3.77,2.87a6.39,6.39,0,0,1,2.31,3.54l7.05,29,11.53,4.24-2.18-45.42a9.1,9.1,0,0,0-2.24-5.55l-25.29-28.87a10.78,10.78,0,0,0-6.23-3.5l-23.5-4.09-3.65,4a6.22,6.22,0,0,1-6.25,6.2h0a6.25,6.25,0,0,1-6.21-6.26L920,740.76l-19,.93a10,10,0,0,0-5.24,1.78l-32.88,22.9a8.83,8.83,0,0,0-2.45,12c4.71,7.31,14.91,17.4,35.7,18.89,0,0-1-2.55,6-6.22s8-.52,8-.52a3.84,3.84,0,0,1-1.57,3.8" fill="none" stroke="#2e2d75" stroke-miterlimit="10" stroke-width="2"/><path d="M995.34,840.39c11.58,6.17,51.8,30.27,38.42,61,0,0-52.66,26.33-96.84-39.38-41.43-61.6-79.23-71.89-80.21-58a8.25,8.25,0,0,0,1.14,4.56l.46.81" fill="#fff" stroke="#2e2d75" stroke-miterlimit="10" stroke-width="2"/><path d="M973.78,773.6s1.6,21.29,1.14,39.15c-.24,9.4,4.6,16.14,9.23,20.41" fill="none" stroke="#2e2d75" stroke-miterlimit="10" stroke-width="2"/><path d="M903.78,765.86s0,1.8.26,4.55c.46,4.94,1.75,13,5.37,19.28L880.72,773.6" fill="none" stroke="#2e2d75" stroke-linejoin="round" stroke-width="2"/><line x1="888.98" y1="777.78" x2="903.26" y2="771.36" fill="none" stroke="#2e2d75" stroke-linejoin="round" stroke-width="2"/><path d="M856.93,802.66s-.33-6.81,17.79-11.2" fill="none" stroke="#2e2d75" stroke-miterlimit="10" stroke-width="2"/><polyline points="904.66 790.41 911.64 797.94 914.35 811.96" fill="none" stroke="#2e2d75" stroke-miterlimit="10" stroke-width="2"/><line x1="909.41" y1="800.21" x2="911.43" y2="814.24" fill="none" stroke="#2e2d75" stroke-miterlimit="10" stroke-width="2"/><line x1="906.87" y1="802.03" x2="908.44" y2="816.59" fill="none" stroke="#2e2d75" stroke-miterlimit="10" stroke-width="2"/><line x1="904.38" y1="802.03" x2="904.95" y2="812.75" fill="none" stroke="#2e2d75" stroke-miterlimit="10" stroke-width="2"/><path d="M900.75,805.91v-4.56c-3.07-1.92-3.49-4.29-3.49-4.29v-2.35" fill="none" stroke="#2e2d75" stroke-miterlimit="10" stroke-width="2"/><polygon points="905.59 790.41 908.22 789.93 909.5 790.77 909.41 792.66 908.43 793.24 905.59 790.41" fill="#302d77" stroke="#2e2d75" stroke-miterlimit="10" stroke-width="2"/><line x1="921.58" y1="736.21" x2="921.58" y2="742.6" fill="none" stroke="#2e2d75" stroke-miterlimit="10" stroke-width="2"/><path d="M935.46,731.7s.76,6.81,4.45,9.55" fill="none" stroke="#2e2d75" stroke-miterlimit="10" stroke-width="2"/><path d="M997.52,828v8.55a3.54,3.54,0,0,1-2,3.2l-3.31,1.57L988.78,848" fill="none" stroke="#2e2d75" stroke-miterlimit="10" stroke-width="2"/><line x1="991.32" y1="837.83" x2="985.64" y2="847.97" fill="none" stroke="#2e2d75" stroke-miterlimit="10" stroke-width="2"/><line x1="989.22" y1="836.59" x2="982.4" y2="847.32" fill="none" stroke="#2e2d75" stroke-miterlimit="10" stroke-width="2"/><line x1="987.4" y1="835.2" x2="982.4" y2="842.05" fill="none" stroke="#2e2d75" stroke-miterlimit="10" stroke-width="2"/><path d="M988.78,825.26l-1.38,6.84s-3.81,1.06-4.51,3.66" fill="none" stroke="#2e2d75" stroke-miterlimit="10" stroke-width="2"/><path d="M1028.21,903.47s-16.05,34.28-25,45.8l-19.1-4.78L989.22,904" fill="none" stroke="#2e2d75" stroke-miterlimit="10" stroke-width="2"/><path d="M859.52,799.43s-5.8,41.82,3.32,79.21l17.88,3.47s11.68-40.3,11.47-49" fill="none" stroke="#2e2d75" stroke-miterlimit="10" stroke-width="2"/><path d="M888.86,851.58S915,862,938.38,864.11" fill="none" stroke="#2e2d75" stroke-miterlimit="10" stroke-width="2"/><path d="M866.05,879.26l.48,5.25-3,12.14A4.49,4.49,0,0,0,869,902.1l1.45-.34a8,8,0,0,0,6.12-6.81l1.22-9.63v-3.78" fill="none" stroke="#2e2d75" stroke-miterlimit="10" stroke-width="2"/><path d="M987.54,945.18l-.36,5.26L982.29,962a4.5,4.5,0,0,0,4.46,6.25l1.49-.11a8,8,0,0,0,7.13-5.74l2.75-9.32.79-4.84" fill="none" stroke="#2e2d75" stroke-miterlimit="10" stroke-width="2"/><polygon points="860.3 799.84 863.6 798.87 872.92 801.18 881.53 805.15 894.55 814.24 908.43 827.58 920.37 840.45 929.78 852.53 937.1 863.04 932.19 863.04 913.05 859.99 888.86 852.53 881.21 882.11 862.6 877.63 858.98 859.51 857.7 817.37 860.3 799.84" fill="#302d77"/><polygon points="989.22 904.63 984.9 943.97 1002.62 948.6 1011.59 937.35 1027.02 904.63 1012.98 906.27 998.21 906.27 989.22 904.63" fill="#302d77"/><path d="M1751.25,630.14V707.8s17.53,73.37,61.06,134.57a9.4,9.4,0,0,0,3.35,2.88l9,4.6a9.34,9.34,0,0,0,9.92-.89l15.38-11.75a9.35,9.35,0,0,0,3.51-5.68c2.24-11.94,8.91-52,4.9-86.53a17.67,17.67,0,0,0-6.92-12c-10.26-7.73-33.82-23.3-70.21-34.73,0,0-10-22.45-5.41-47.82s71.54-35.36,81.1-27.45S1888,647.08,1888,647.08s12.85-21.21,0-29.11-53.61-39.1-53.61-39.1l-2.18-.7a10.23,10.23,0,0,0-9.79,2c-9.82,8.46-35.57,29.11-64.66,40.46A10.24,10.24,0,0,0,1751.25,630.14Z" fill="none" stroke="#2e2d75" stroke-miterlimit="10" stroke-width="2"/><path d="M1779.1,714.27s25.42,81.57,49.49,128.08" fill="none" stroke="#2e2d75" stroke-miterlimit="10" stroke-width="2"/><path d="M1726.08,801.78a39.31,39.31,0,0,1,39.27-39.28,4.86,4.86,0,0,1,.54,0l1,1.92-1.53,0a37.39,37.39,0,1,0,31,58.29l1,1.86c-7.32,10.84-18.94,16.51-32,16.51A39.31,39.31,0,0,1,1726.08,801.78Z" fill="#2e2d75"/><path d="M1741.24,801.78a24.14,24.14,0,0,1,24.11-24.11c3.25,0,4.85,0,7.82,1.29l.82,2.34a22,22,0,0,0-8.64-1.75,22.23,22.23,0,1,0,21.38,28.31L1788,810c-2.93,10.31-11.93,15.85-22.66,15.85A24.14,24.14,0,0,1,1741.24,801.78Z" fill="#2e2d75"/><path d="M1777.33,585.23a23.16,23.16,0,1,1,10-12.38" fill="none" stroke="#2e2d75" stroke-miterlimit="10" stroke-width="2"/><path d="M1789.3,595.33a38.21,38.21,0,1,1,10.07-12.24" fill="none" stroke="#2e2d75" stroke-miterlimit="10" stroke-width="2"/><path d="M1794.94,596.33l-32.71-27a5.33,5.33,0,0,1-.72-7.52h0a5.34,5.34,0,0,1,7.52-.72l34.15,28.15" fill="none" stroke="#2e2d75" stroke-miterlimit="10" stroke-width="2"/><path d="M1898.49,626.57c0-2,.08-4.21.27-6.59l0-.3.19-.23c.3-.35,7.29-8.6,18.6-9.84l.9-.1.14.89c.06.44,2,9.25-1.46,23.12l-2.19,1a69.49,69.49,0,0,0,1.89-22.95c-9.06,1.35-15.1,7.58-16.24,8.83-1.76,23.82,6.74,27.94,9.11,28.62.32-.66.63-1.32.92-2l1.72.78c-.4.89-.83,1.78-1.27,2.68l-.29.57-.63,0C1909.65,651,1898.49,649.83,1898.49,626.57Z" fill="#2e2d75"/><path d="M1955.43,770.34l-34-43.89-16.34-50.82c4.06-6.77,11.84-8.46,18.1-9.49a10.4,10.4,0,0,0,8.1-5.91l9,58.16,28.19,44.1s6.21,8.43,0,17.24" fill="none" stroke="#2e2d75" stroke-miterlimit="10" stroke-width="2"/><path d="M1941.66,752.57l-1.41,1.62a12.66,12.66,0,0,1-9,2.12c-9.07-.88-47.41-14.19-47.41-14.19-3.54,9.17-5.32,17.74,0,36.19a102.75,102.75,0,0,1,3.3,36c13-8,49-12.71,68.25-16.26s18.86-18.27,18.86-18.27.6-6.91-4.89-15.62" fill="none" stroke="#2e2d75" stroke-miterlimit="10" stroke-width="2"/><path d="M1972.67,771.45l11.54-1.11-2.45-10.17a2.47,2.47,0,0,1,2-3l19.56-2.86" fill="none" stroke="#2e2d75" stroke-miterlimit="10" stroke-width="2"/><path d="M2011.74,752s-14.16-4.52-20.83,30.27-28.12,45.92-28.12,45.92l-2.79,1.29a24.92,24.92,0,0,0-11.56,34.31h0a24.92,24.92,0,0,0,34.51,9.88l3.1-1.79s19-12.48,22.74-43.89,12.92-45.52,12.92-45.52,4.3-7.14,5.4-9.34C2029.84,767.7,2027.83,756.37,2011.74,752Z" fill="#302d77" stroke="#2e2d75" stroke-miterlimit="10" stroke-width="2"/><line x1="1990.91" y1="782.31" x2="1974.31" y2="782.99" fill="none" stroke="#2e2d75" stroke-miterlimit="10" stroke-width="2"/><polyline points="1887.29 798.15 1882.17 798.15 1880.54 759.45" fill="none" stroke="#2e2d75" stroke-miterlimit="10" stroke-width="2"/><path d="M1882.17,798.15s-21.76,5.3-21.07-7.63c.57-10.59,2.62-62.55,3.35-81,.16-4.08.25-6.52.25-6.52" fill="none" stroke="#2e2d75" stroke-miterlimit="10" stroke-width="2"/><path d="M1864.57,706.36l-70.39-12.9s-1.8-30.9,0-36.71L1875,684.81s5.12,1.22,5.58,9.58,2.38,50.37,2.38,50.37" fill="none" stroke="#2e2d75" stroke-miterlimit="10" stroke-width="2"/><path d="M1790.58,670.8l1,18.33-8.87,3a3.2,3.2,0,0,1-3.63-2.8c-.45-3.2-1.61-39.87-1.61-39.87s3.2-5.53,5.24,0Z" fill="#302d77" stroke="#2e2d75" stroke-miterlimit="10" stroke-width="2"/><polyline points="1929.69 662.67 1927.41 645.5 1923.19 633.52 1913.04 638.38 1910.62 644.14" fill="none" stroke="#2e2d75" stroke-miterlimit="10" stroke-width="2"/><polyline points="1920.15 638.98 1915.74 640.76 1913.27 646.07" fill="none" stroke="#2e2d75" stroke-miterlimit="10" stroke-width="2"/><polyline points="1920.15 642.62 1918.06 643.84 1916.98 647.48" fill="none" stroke="#2e2d75" stroke-miterlimit="10" stroke-width="2"/><line x1="1919.19" y1="666.89" x2="1920.16" y2="649.14" fill="none" stroke="#2e2d75" stroke-miterlimit="10" stroke-width="2"/><path d="M1863.52,733s-4.91-5.38-10.53,0,.76,96.77.76,96.77,6.31,4.52,7.34-5.31,0-36.5,0-36.5Z" fill="#302d77" stroke="#2e2d75" stroke-miterlimit="10" stroke-width="2"/><path d="M1918,616.39s-14.2,5-18.49,10.55v-6.25l4.16-4.3,6.91-4.3,6.09-1H1918Z" fill="#302d77"/><path d="M1726.08,862.17V811.05a89.58,89.58,0,0,0,9.29,22.21c6.34,10.32,8,20.86-2.53,19,0,0,13.94,20.51,5.91,21.35s-12.67-6.55-12.67-6.55Z" fill="#302d77" stroke="#2e2d75" stroke-miterlimit="10" stroke-width="2"/><path d="M1726.08,623.56V572.43a89.58,89.58,0,0,0,9.29,22.21c6.34,10.32,8,20.86-2.53,19,0,0,13.94,20.51,5.91,21.35s-12.67-6.54-12.67-6.54Z" fill="#302d77" stroke="#2e2d75" stroke-miterlimit="10" stroke-width="2"/><path d="M667.11,1164.89H584.77S507,1146.3,442.1,1100.15a9.82,9.82,0,0,1-3.05-3.54l-4.88-9.51a9.89,9.89,0,0,1,.94-10.51l12.46-16.31a9.85,9.85,0,0,1,6-3.71c12.66-2.38,55.09-9.45,91.73-5.2a18.73,18.73,0,0,1,12.77,7.34c8.2,10.87,24.7,35.85,36.82,74.43,0,0,23.81,10.58,50.71,5.73s37.47-75.84,29.1-86-25.58-33-25.58-33,22.49-13.63,30.87,0,41.44,56.83,41.44,56.83l.75,2.32a10.81,10.81,0,0,1-2.08,10.37c-9,10.42-30.86,37.71-42.89,68.55A10.88,10.88,0,0,1,667.11,1164.89Z" fill="none" stroke="#2e2d75" stroke-miterlimit="10" stroke-width="2"/><path d="M577.91,1135.37s-86.48-27-135.79-52.47" fill="none" stroke="#2e2d75" stroke-miterlimit="10" stroke-width="2"/><path d="M485.14,1191.58a41.68,41.68,0,0,0,41.63-41.64,3.62,3.62,0,0,0,0-.57l-2-1q0,.81,0,1.62a39.64,39.64,0,1,1-61.8-32.87l-2-1.06c-11.49,7.76-17.5,20.08-17.5,33.93A41.69,41.69,0,0,0,485.14,1191.58Z" fill="#2e2d75"/><path d="M485.14,1175.5a25.59,25.59,0,0,0,25.55-25.56c0-3.44,0-5.14-1.37-8.29l-2.47-.87a23.56,23.56,0,1,1-28.16-13.51l-2.32-1.35c-10.93,3.11-16.79,12.64-16.79,24A25.59,25.59,0,0,0,485.14,1175.5Z" fill="#2e2d75"/><path d="M714.71,1137.24a24.54,24.54,0,1,0,13.13-10.56" fill="none" stroke="#2e2d75" stroke-miterlimit="10" stroke-width="2"/><path d="M704,1124.56a40.61,40.61,0,1,0,13-10.68" fill="none" stroke="#2e2d75" stroke-miterlimit="10" stroke-width="2"/><path d="M703,1118.57l28.59,34.68a5.66,5.66,0,0,0,8,.77h0a5.68,5.68,0,0,0,.77-8l-29.85-36.2" fill="none" stroke="#2e2d75" stroke-miterlimit="10" stroke-width="2"/><path d="M670.88,1008.79c2.15,0,4.47-.09,7-.28l.32,0,.24-.2c.38-.31,9.12-7.73,10.44-19.72l.1-.95-.94-.15c-.46-.07-9.81-2.08-24.51,1.55l-1.11,2.31a74.39,74.39,0,0,1,24.34-2c-1.43,9.61-8,16-9.37,17.22-25.25,1.87-29.62-7.14-30.34-9.65a134.06,134.06,0,0,1,15.37-5.57l1.11-2.31a143.6,143.6,0,0,0-18.06,6.43l-.6.3,0,.67C645,997,646.22,1008.79,670.88,1008.79Z" fill="#2e2d75"/><path d="M558.07,1045.86s5.69,5.21,0,11.17-102.6-.81-102.6-.81-4.79-6.69,5.63-7.78,38.69,0,38.69,0Z" fill="#302d77" stroke="#2e2d75" stroke-miterlimit="10" stroke-width="2"/><path d="M681.68,988.06s-5.25,15.05-11.19,19.61h6.63l4.56-4.42,4.55-7.32,1.11-6.46v-1.41Z" fill="#302d77"/><polygon points="1377.3 757.07 1326.69 757.07 1326.69 747.58 1377.3 750.18 1377.3 757.07" fill="#302d77" stroke="#2e2d75" stroke-miterlimit="10" stroke-width="2"/><polygon points="1371.88 749.75 1332.11 747.58 1332.11 738.1 1371.88 739.4 1371.88 749.75" fill="none" stroke="#2e2d75" stroke-miterlimit="10" stroke-width="2"/><polygon points="1366.89 738.97 1337.1 738.1 1337.1 732.08 1366.89 728.61 1366.89 738.97" fill="#302d77" stroke="#2e2d75" stroke-miterlimit="10" stroke-width="2"/><polygon points="1362.44 728.61 1341.55 731.22 1341.55 720.86 1362.44 722.6 1362.44 728.61" fill="none" stroke="#2e2d75" stroke-miterlimit="10" stroke-width="2"/><line x1="1371.88" y1="744.8" x2="1355.83" y2="743.52" fill="none" stroke="#2e2d75" stroke-miterlimit="10" stroke-width="2"/><line x1="1341.55" y1="728.08" x2="1349.91" y2="727.2" fill="none" stroke="#2e2d75" stroke-miterlimit="10" stroke-width="2"/><line x1="946.88" y1="658.46" x2="1429.3" y2="658.46" fill="none" stroke="#2e2d75" stroke-miterlimit="10" stroke-width="2"/><path d="M1083.59,538.54h51.18s5.39,14.83,30.71,24.23l-25.32,29.87-38.59-18.86L1064.73,600l-36.64-16Z" fill="none" stroke="#2e2d75" stroke-miterlimit="10" stroke-width="2"/><line x1="1117.96" y1="562.61" x2="1101.57" y2="573.78" fill="none" stroke="#2e2d75" stroke-miterlimit="10" stroke-width="2"/><path d="M1167.08,453.61l-5,17.47c-1.33,4.64-5.65,7.46-9.65,6.32h0c-4-1.15-6.16-5.84-4.82-10.48l4.9-17-6.71-.65s-15.08,35.75-31.56,26.93L1085,534.88l52.46-1.4s5.1-1.62,3.71-6.73l22-43.16a45.62,45.62,0,0,0,3.63-9.71l4.34-17.45Z" fill="#302d77" stroke="#2e2d75" stroke-miterlimit="10" stroke-width="2"/><path d="M1163.33,565.31l24.77,10.85s15.81,4.55,7.9,17.24-29.72,47.34-29.72,47.34-2.71,5,2.32,8.14,19.63,6.23,19.63,6.23,3.84,3.35-1.43,3.35h-38.55s-10.78.48-1.68-11.25,23-48.13,23-48.13" fill="none" stroke="#2e2d75" stroke-miterlimit="10" stroke-width="2"/><line x1="1143.64" y1="588.53" x2="1175.88" y2="600.54" fill="none" stroke="#2e2d75" stroke-miterlimit="10" stroke-width="2"/><line x1="1139.79" y1="656.52" x2="1191.26" y2="656.52" fill="none" stroke="#2e2d75" stroke-miterlimit="10" stroke-width="2"/><line x1="1171.59" y1="650.34" x2="1166.28" y2="656.52" fill="none" stroke="#2e2d75" stroke-miterlimit="10" stroke-width="2"/><polyline points="927.24 649.49 956.61 656.52 980.05 656.52" fill="none" stroke="#2e2d75" stroke-miterlimit="10" stroke-width="2"/><line x1="967.19" y1="647.74" x2="952.8" y2="655.61" fill="none" stroke="#2e2d75" stroke-miterlimit="10" stroke-width="2"/><path d="M1060.17,598l-27.06,16.92a7.86,7.86,0,0,1-2.23,1l-61.59,15.21s-7.14,2-6.15,7.39,5.17,13.92,6.15,15,6.16,3.09,6.16,3.09-.25,1.94-6.4,1.94-10.34-1.15-11.82-5-10.83-23.09-10.83-23.09-4.92-12.55,4.18-13.54,19.7-.24,22.65-2S1024,593.42,1024,593.42l9.82-6.93" fill="none" stroke="#2e2d75" stroke-miterlimit="10" stroke-width="2"/><line x1="1134.66" y1="533.61" x2="1131.51" y2="538.54" fill="#302d77" stroke="#2e2d75" stroke-miterlimit="10" stroke-width="2"/><line x1="1088.12" y1="533.61" x2="1084.97" y2="538.54" fill="#302d77" stroke="#2e2d75" stroke-miterlimit="10" stroke-width="2"/><line x1="1145.48" y1="449.92" x2="1077.85" y2="435.81" fill="none" stroke="#2e2d75" stroke-miterlimit="10" stroke-width="2"/><path d="M1114.22,476.16s.32-2.53-4.87-5.76c-4.17-2.58-35.42-20.39-47.7-27.38a8.53,8.53,0,0,1-4.24-8.45h0A15.86,15.86,0,0,1,1069,421.19l66.34-17.89s7-8.27,7.51-8.27h9.2l3.84,3.84" fill="none" stroke="#2e2d75" stroke-miterlimit="10" stroke-width="2"/><polyline points="1080.42 436.34 1140.04 410.93 1145.48 413.43 1149.62 412.85" fill="none" stroke="#2e2d75" stroke-miterlimit="10" stroke-width="2"/><circle cx="1147.42" cy="404.03" r="6.28" fill="#302d77" stroke="#2e2d75" stroke-miterlimit="10" stroke-width="2"/><line x1="1150.74" y1="399.56" x2="1156.53" y2="402.67" fill="none" stroke="#2e2d75" stroke-miterlimit="10" stroke-width="2"/><line x1="1152.63" y1="405.19" x2="1156.53" y2="405.84" fill="none" stroke="#2e2d75" stroke-miterlimit="10" stroke-width="2"/><polyline points="1161.42 488.23 1254.89 528.71 1265.09 535.07 1276.46 540.09" fill="none" stroke="#2e2d75" stroke-miterlimit="10" stroke-width="2"/><polyline points="1171.74 458.26 1212.59 495.94 1258.15 523.05 1270.06 523.05 1277.36 525.54" fill="none" stroke="#2e2d75" stroke-miterlimit="10" stroke-width="2"/><line x1="1266.59" y1="532.24" x2="1278.22" y2="537.29" fill="none" stroke="#2e2d75" stroke-miterlimit="10" stroke-width="2"/><line x1="1267.79" y1="529.69" x2="1280.78" y2="535.25" fill="none" stroke="#2e2d75" stroke-miterlimit="10" stroke-width="2"/><line x1="1268.86" y1="526.69" x2="1280.3" y2="530.94" fill="none" stroke="#2e2d75" stroke-miterlimit="10" stroke-width="2"/><line x1="1166.22" y1="454.47" x2="1166.22" y2="444.62" fill="none" stroke="#2e2d75" stroke-miterlimit="10" stroke-width="2"/><path d="M1184.07,426.65l-5,15.62a5.9,5.9,0,0,1-7.18,3.89l-8.19-2.25" fill="none" stroke="#2e2d75" stroke-miterlimit="10" stroke-width="2"/><polyline points="1160.89 438.52 1154.42 450.4 1153.09 450.4" fill="none" stroke="#2e2d75" stroke-miterlimit="10" stroke-width="2"/><path d="M1158.44,437.81s5.39,4.68,7.23-.71c.64-1.9,1.32-3.88,1.94-5.66a7.78,7.78,0,0,1,8.16-5.2l9.53,1s4.68.31,3.66-4.88-14-8.55-18.51-7.43-10,3.76-10.38,10S1156,435.16,1158.44,437.81Z" fill="#302d77" stroke="#2e2d75" stroke-miterlimit="10" stroke-width="2"/><line x1="424.72" y1="670.09" x2="556.18" y2="670.09" fill="none" stroke="#2e2d75" stroke-miterlimit="10" stroke-width="2"/><line x1="453.48" y1="691.87" x2="584.94" y2="691.87" fill="none" stroke="#2e2d75" stroke-miterlimit="10" stroke-width="2"/><line x1="481.53" y1="642.98" x2="481.53" y2="707.59" fill="none" stroke="#2e2d75" stroke-miterlimit="10" stroke-width="2"/><line x1="502.9" y1="660.85" x2="502.9" y2="714.69" fill="none" stroke="#2e2d75" stroke-miterlimit="10" stroke-width="2"/><line x1="526.37" y1="642.98" x2="526.37" y2="680.67" fill="none" stroke="#2e2d75" stroke-miterlimit="10" stroke-width="2"/><line x1="1651.07" y1="1130.68" x2="1782.53" y2="1130.68" fill="none" stroke="#2e2d75" stroke-miterlimit="10" stroke-width="2"/><line x1="1679.83" y1="1152.46" x2="1811.28" y2="1152.46" fill="none" stroke="#2e2d75" stroke-miterlimit="10" stroke-width="2"/><line x1="1707.87" y1="1103.57" x2="1707.87" y2="1168.18" fill="none" stroke="#2e2d75" stroke-miterlimit="10" stroke-width="2"/><line x1="1729.24" y1="1121.44" x2="1729.24" y2="1175.28" fill="none" stroke="#2e2d75" stroke-miterlimit="10" stroke-width="2"/><line x1="1752.71" y1="1103.57" x2="1752.71" y2="1141.26" fill="none" stroke="#2e2d75" stroke-miterlimit="10" stroke-width="2"/><line x1="77.36" y1="960.05" x2="1.47" y2="960.05" fill="none" stroke="#2e2d75" stroke-miterlimit="10" stroke-width="2"/><path d="M305.37,946.08,147.72,904.31a56,56,0,0,0-70.36,54.15h0A56,56,0,0,0,147,1012.8l158.22-39.54C319.25,969.75,319.39,949.8,305.37,946.08Z" fill="#302d77" stroke="#2e2d75" stroke-miterlimit="10" stroke-width="2"/><circle cx="1197.03" cy="184.65" r="183.65" fill="none" stroke="#2e2d75" stroke-miterlimit="10" stroke-width="2"/><line x1="1668.44" y1="421.72" x2="1470.63" y2="421.72" fill="none" stroke="#2e2d75" stroke-miterlimit="10" stroke-width="2"/><rect x="1502.16" y="182.63" width="57.79" height="239.09" fill="none" stroke="#2e2d75" stroke-miterlimit="10" stroke-width="2"/><polygon points="1572.62 266.94 1489.51 266.94 1492.59 284.41 1569.53 284.41 1572.62 266.94" fill="#302d77" stroke="#2e2d75" stroke-miterlimit="10" stroke-width="2"/><path d="M1481.13,396.85l-6.1,3.55c-2.82,1.65-4.4,3.84-4.4,6.12v15.2h21v-15.2c0-2.28-1.57-4.47-4.4-6.12Z" fill="#302d77" stroke="#2e2d75" stroke-miterlimit="10" stroke-width="2"/><path d="M1510.6,396.85l-6.1,3.55c-2.83,1.65-4.4,3.84-4.4,6.12v15.2h21v-15.2c0-2.28-1.57-4.47-4.4-6.12Z" fill="#fff" stroke="#2e2d75" stroke-miterlimit="10" stroke-width="2"/><path d="M1540.06,396.85,1534,400.4c-2.83,1.65-4.4,3.84-4.4,6.12v15.2h21v-15.2c0-2.28-1.57-4.47-4.4-6.12Z" fill="#302d77" stroke="#2e2d75" stroke-miterlimit="10" stroke-width="2"/><path d="M1569.53,396.85l-6.09,3.55c-2.83,1.65-4.4,3.84-4.4,6.12v15.2h21v-15.2c0-2.28-1.57-4.47-4.4-6.12Z" fill="#fff" stroke="#2e2d75" stroke-miterlimit="10" stroke-width="2"/><path d="M1599,396.85l-6.09,3.55c-2.83,1.65-4.41,3.84-4.41,6.12v15.2h21v-15.2c0-2.28-1.58-4.47-4.4-6.12Z" fill="#302d77" stroke="#2e2d75" stroke-miterlimit="10" stroke-width="2"/><path d="M1628.47,396.85l-6.09,3.55c-2.83,1.65-4.41,3.84-4.41,6.12v15.2h21v-15.2c0-2.28-1.58-4.47-4.4-6.12Z" fill="none" stroke="#2e2d75" stroke-miterlimit="10" stroke-width="2"/><path d="M1657.94,396.85l-6.09,3.55c-2.83,1.65-4.41,3.84-4.41,6.12v15.2h21v-15.2c0-2.28-1.58-4.47-4.4-6.12Z" fill="#302d77" stroke="#2e2d75" stroke-miterlimit="10" stroke-width="2"/><path d="M1542,143.14c-9.11-3.61-11-15.4-11-15.4s-1.83,11.79-11,15.4-20.91,8.19-20.91,22.93,8.79,16.56,8.79,16.56h46.15s8.78-1.82,8.78-16.56S1551.13,146.74,1542,143.14Z" fill="#302d77" stroke="#2e2d75" stroke-miterlimit="10" stroke-width="2"/><line x1="1521.92" y1="260.8" x2="1521.92" y2="197.05" fill="#fff" stroke="#2e2d75" stroke-miterlimit="10" stroke-width="2"/><line x1="1521.92" y1="340.36" x2="1521.92" y2="295.18" fill="#fff" stroke="#2e2d75" stroke-miterlimit="10" stroke-width="2"/><polyline points="1375.81 1190.95 1487.34 1079.42 1874.2 1079.42 1874.2 1196.77" fill="none" stroke="#2e2d75" stroke-miterlimit="10" stroke-width="2"/><line x1="1850.68" y1="1025.98" x2="2343.4" y2="1025.98" fill="none" stroke="#2e2d75" stroke-miterlimit="10" stroke-width="2"/><path d="M1650.77,1059.56h-42.44a19.86,19.86,0,0,0-19.86,19.86h51.74c28.22,0,33.21-27.86,33.21-27.86" fill="none" stroke="#2e2d75" stroke-miterlimit="10" stroke-width="2"/><path d="M1766.86,1059.56a39.3,39.3,0,0,1,11.86-52.54" fill="none" stroke="#2e2d75" stroke-miterlimit="10" stroke-width="2"/><line x1="1640.21" y1="1059.56" x2="1661.45" y2="1019.92" fill="none" stroke="#2e2d75" stroke-miterlimit="10" stroke-width="2"/><path d="M1651.51,1038.46l-8.76-13.84a29.05,29.05,0,0,0-24.55-13.51h-18.43a3,3,0,0,1-3-3V997.48a7,7,0,0,1,5.79-6.9l17.8-3.12a5.8,5.8,0,0,0,4.54-4c1.73-5.49,7.14-15.87,23.36-15.87,9.22,0,16,2.63,20.74,5.69a29.15,29.15,0,0,1,10.43,12.2c2.43,5.14,9.44,15.34,26.71,14.8,16.84-.52,33.34-3.94,41-5.74a67.64,67.64,0,0,0,7.08-2.11c10.25-3.65,47.94-15.13,73.14,3.31,39.64,29,18.55,69.39,18.55,69.39s-6,14.27-35.5,14.27c-29.1,0-25-8.15-38.7-9.93,0,0,5.12-9.45,20.79-7.54s32.3,8,40.61-6.39" fill="none" stroke="#2e2d75" stroke-miterlimit="10" stroke-width="2"/><path d="M1667.82,982.74l15.34,19s-18.31,9.06-29.47-7.85" fill="none" stroke="#2e2d75" stroke-miterlimit="10" stroke-width="2"/><circle cx="1632.07" cy="984.91" r="3.43" fill="#302d77"/><line x1="1596.78" y1="1004.17" x2="1608.64" y2="1004.17" fill="none" stroke="#2e2d75" stroke-miterlimit="10" stroke-width="2"/><path d="M1669.35,1062.31s8.09,17.11,23.37,17.11h0a19.86,19.86,0,0,1,19.86-19.86H1767" fill="none" stroke="#2e2d75" stroke-miterlimit="10" stroke-width="2"/><line x1="1692.72" y1="1079.42" x2="1810.41" y2="1079.42" fill="none" stroke="#2e2d75" stroke-miterlimit="10" stroke-width="2"/><line x1="1605.59" y1="1079.42" x2="1605.59" y2="1068.07" fill="none" stroke="#2e2d75" stroke-miterlimit="10" stroke-width="2"/><line x1="1708.96" y1="1079.42" x2="1708.96" y2="1068.07" fill="none" stroke="#2e2d75" stroke-miterlimit="10" stroke-width="2"/><path d="M1604.09,990.32s-.68,7.48-7.31,9A8.37,8.37,0,0,1,1604.09,990.32Z" fill="#302d77"/><path d="M1791.71,1061.87s2.16,9.31-3.14,14.72l-8.87-5.31-6.93-2,4.09-5.42S1786.69,1061.18,1791.71,1061.87Z" fill="#302d77"/><path d="M1240.65,356.3c-.07-.13-6.66-11.36-6.66-11.36l-53.39,4.35-2.46.2a49.13,49.13,0,0,0-5.06,17.26s35.55,4.62,65.2-3.11Z" fill="#302d77" stroke="#2e2d75" stroke-miterlimit="10" stroke-width="0.5"/><path d="M1181.9,336.3s1.94,5-1.3,13" fill="none" stroke="#2e2d75" stroke-miterlimit="10" stroke-width="2"/><path d="M1230.54,329.72a38.78,38.78,0,0,0,.72,15.22" fill="none" stroke="#2e2d75" stroke-miterlimit="10" stroke-width="2"/><path d="M1172.4,302.05c3.33,8.12,4.6,34.25,4.6,34.25l56.91-7s-2.84-21-1.22-28.95" fill="none" stroke="#2e2d75" stroke-miterlimit="10" stroke-width="2"/><path d="M1228.63,291.16l9.39,21.23s1.61-30.54,11.1-26.4c4.49,2.24.8,22,.8,22" fill="none" stroke="#2e2d75" stroke-linejoin="bevel" stroke-width="2"/><path d="M1207,264.54c8.86-.2,16.88-.26,20.69-.28a8.46,8.46,0,0,1,6,2.41l16.26,19.93" fill="none" stroke="#2e2d75" stroke-miterlimit="10" stroke-width="2"/><path d="M1157.87,292.26l10.89-22.59a8.5,8.5,0,0,1,5.4-3.23,199.9,199.9,0,0,1,20.25-1.51" fill="none" stroke="#2e2d75" stroke-miterlimit="10" stroke-width="2"/><path d="M1158.24,314.75s-4.47-23.34,1.82-24.39c9.16-1.53,9,25.71,9,25.71l5.58-23.81" fill="none" stroke="#2e2d75" stroke-miterlimit="10" stroke-width="2"/><path d="M1206.7,263.65l2.1,9.32a5.26,5.26,0,0,1-5,5.49l-3.43.1a5.25,5.25,0,0,1-5.48-5l.23-9.45" fill="none" stroke="#2e2d75" stroke-miterlimit="10" stroke-width="2"/><line x1="1195.4" y1="264.84" x2="1195.1" y2="256.23" fill="none" stroke="#2e2d75" stroke-miterlimit="10" stroke-width="2"/><polyline points="1161.95 291.16 1157.52 317.43 1159.14 356.6 1154.93 360.97 1154.23 363.28" fill="none" stroke="#2e2d75" stroke-miterlimit="10" stroke-width="2"/><polyline points="1169.11 316.07 1169.11 318.24 1166.75 357.41 1167.93 361.62 1169.11 365.02" fill="none" stroke="#2e2d75" stroke-miterlimit="10" stroke-width="2"/><polyline points="1245.26 286.31 1250.59 312.23 1248.97 351.4 1253.18 355.77 1253.88 358.08" fill="none" stroke="#2e2d75" stroke-miterlimit="10" stroke-width="2"/><polyline points="1241.09 357.06 1239.51 363.64 1241.09 357.06 1241.47 353.53 1238.21 313.86 1238.21 309.9" fill="none" stroke="#2e2d75" stroke-miterlimit="10" stroke-width="2"/><path d="M1188.4,232.84s-2-1,6,4,11,3,12,7-1,9,1,11,3,6,3,6v3.42l18-.42s-10-27-13-36-24-20-34-10-10,15-7,21,5,9,6,14,0,12,0,12h14v-7l-12-20c1-4,5-5,5-6Z" fill="#302d77" stroke="#2e2d75" stroke-miterlimit="10" stroke-width="2"/><path d="M1182.51,236.82l6.13,15.24a6.62,6.62,0,0,0,8.95,3.71l5.46-2.19" fill="#fff" stroke="#2e2d75" stroke-miterlimit="10" stroke-width="2"/><line x1="932.01" y1="288.76" x2="932.01" y2="101.82" fill="none" stroke="#2e2d75" stroke-miterlimit="10" stroke-width="2"/><path d="M1365.63,658.46s24.91-111.34,16.4-215.6" fill="none" stroke="#2e2d75" stroke-miterlimit="10" stroke-width="2"/><path d="M1371.62,361s-51,13-29.9,53.7-5.13,77.35-5.13,77.35-37,53.38,0,87.68,125.52,15.62,105.72-50.91-27.8-73.76-20.08-109.29S1402.78,351.06,1371.62,361Z" fill="none" stroke="#2e2d75" stroke-miterlimit="10" stroke-width="2"/><line x1="2272.97" y1="502.5" x2="1727.02" y2="502.5" fill="none" stroke="#2e2d75" stroke-miterlimit="10" stroke-width="2"/><rect x="1859.4" y="357.38" width="8.24" height="144.94" fill="none" stroke="#2e2d75" stroke-miterlimit="10" stroke-width="2"/><path d="M1863.52,326.16H1846c8.08,47.3,17.56,39.57,17.56,39.57s9.48,7.73,17.56-39.57Z" fill="#302d77" stroke="#2e2d75" stroke-miterlimit="10" stroke-width="2"/><path d="M1863.52,314.5s-21.59-.41-33.17,11.17h66.34C1885.11,314.09,1863.52,314.5,1863.52,314.5Z" fill="none" stroke="#2e2d75" stroke-miterlimit="10" stroke-width="2"/><path d="M1210.91,732.49l3.47-19.53,19.79-2.72,4.47,6.61v11l3.74,15.25s-5.35-1.83-14.36,9.83-15.09-14.54-15.09-14.54Z" fill="#fff" stroke="#2e2d75" stroke-miterlimit="10" stroke-width="2"/><path d="M1249,746.94s-9.15-8-13.34-1a14.7,14.7,0,0,0-1.73,5.52c-1.89,13.23-4.69,35.09-8.4,53.34-.69,3.43-1.42,6.73-2.18,9.83-4.81,19.55-19.56,81.43-19.56,100.35h58.35V864.29s14.11-3.85,14.11-24S1265.62,761.05,1249,746.94Z" fill="#2e2d75" stroke="#2e2d75" stroke-miterlimit="10" stroke-width="2"/><path d="M1225.48,804.77l-50.3-21.46V760.44l44,22s7.41-33.38,17.74-38.08" fill="none" stroke="#2e2d75" stroke-miterlimit="10" stroke-width="2"/><path d="M1223.2,811.66,1174,843.83a43.22,43.22,0,0,0-14,35.55l7.65,90.68H1205s-7.17-64.13-17.14-91.64c0,0,15.76-6.6,22.52-11.1" fill="none" stroke="#2e2d75" stroke-miterlimit="10" stroke-width="2"/><line x1="1177.91" y1="799.4" x2="1196.65" y2="829.01" fill="none" stroke="#2e2d75" stroke-miterlimit="10" stroke-width="2"/><line x1="1182.11" y1="807.4" x2="1176.19" y2="842.38" fill="none" stroke="#2e2d75" stroke-miterlimit="10" stroke-width="2"/><path d="M1174.63,768.07s-7.07-5.65-12.19,5.63-16.11,42.84-17.55,71.42h27.67" fill="none" stroke="#2e2d75" stroke-miterlimit="10" stroke-width="2"/><path d="M1174.63,763s-10.92-7.85-14.22,5.07c0,0-.84,8.24-.46,12" fill="none" stroke="#2e2d75" stroke-miterlimit="10" stroke-width="2"/><path d="M1161.39,864.08h-33s-.69-4,11.77-7.39,15.12-11.57,15.12-11.57" fill="none" stroke="#2e2d75" stroke-miterlimit="10" stroke-width="2"/><path d="M1192.47,970.44s2.63,11.56,2.7,18.27h-35.9s.21-3.57,10.54-5.45,11.43-12.82,11.43-12.82Z" fill="#fff" stroke="#2e2d75" stroke-miterlimit="10" stroke-width="2"/><path d="M1246.79,745.36s-7.9-4.58-5.78-16,4.36-21.58-7.71-25.82-19.68,6.7-19.68,6.7-5.59,8.39-5.7,15.21-.78,20.46-9.73,23.59-19.94,7.24-19.08,13.34" fill="none" stroke="#2e2d75" stroke-miterlimit="10" stroke-width="2"/><path d="M1241.65,738.81l-11.76-12.48s8.42-4.72,3.7-9.44-8.29,5.53-8.29,5.53l-10.92-6.13V730s-.06,8.69,4.59,9.3,10.51-1.55,10.51-1.55v14.46" fill="none" stroke="#2e2d75" stroke-miterlimit="10" stroke-width="2"/><path d="M1240.61,737.12l-10-10.75,4.48-4.54-.57-4.54-3.91-1.86-4.16,3.33-1.76,3.33-10.78-6.44.45,17.44,2.5,5.95,5.63.83,6.65-1.79-.06,5.57v9l-3.2,6.46-3.39,9.34-2.18,7.81-1.47,5.31-39.42-19.45.64-4.16,7.55-5.18,10.37-4.26,3.52-.8,3.2-5.5,3-11.47.1-8.24L1212,712.1l4.16-5.12,5.24-3.39s9.22-3.52,16.39,1.6,3.91,18.11,3.91,18.11l-1.36,9.19Z" fill="#2e2d75"/><path d="M1251.4,894.33h0a11.23,11.23,0,0,1-11.23,11.23h-17" fill="none" stroke="#2e2d75" stroke-miterlimit="10" stroke-width="2"/><line x1="993.4" y1="1191.84" x2="993.4" y2="1079.84" fill="none" stroke="#2d2f75" stroke-miterlimit="10" stroke-width="2"/><path d="M1588.9,497.62s64.08,12.3,85.17,63.72l-9,10.85s-31.39-38.72-56.72-38.63" fill="#fff" stroke="#2e2d75" stroke-miterlimit="10" stroke-width="2"/><path d="M1575.31,637l40.09,47.35a23.25,23.25,0,0,0,8.57,7.82l65,31.36L1706,713l-60.9-46.81a23.44,23.44,0,0,1-5.88-7.63l-14.57-30.33a10,10,0,0,1-1-4.79c.2-4.53-.31-3.21-5.3-17.64" fill="none" stroke="#2e2d75" stroke-miterlimit="10" stroke-width="2"/><path d="M1554.4,618.84l-33.62,22.9a26.92,26.92,0,0,0-5.84,16.76l-20,62.34,23.1,2.64s26.32-55.76,29.19-57.14,34.84-19.05,34.84-19.05" fill="none" stroke="#2e2d75" stroke-miterlimit="10" stroke-width="2"/><line x1="1577.91" y1="494.87" x2="1577.21" y2="483.48" fill="#302d77" stroke="#2e2d75" stroke-miterlimit="10" stroke-width="2"/><line x1="1562.54" y1="500.47" x2="1558.51" y2="489.02" fill="#302d77" stroke="#2e2d75" stroke-miterlimit="10" stroke-width="2"/><path d="M1565.8,487.18l-8.76,2.25a6.73,6.73,0,0,1-8.25-5.09l-4.93-22.63" fill="none" stroke="#2d2f75" stroke-miterlimit="10" stroke-width="2"/><path d="M1677.58,575.32s-5.09-.25-.7,2.13,10.19.5,6.53,3.07-2.53,3.41-4.66,2.71-3,.44-5.24-1.24-4.25-1.39-4.54-3.37-3.2-6.52-3.2-6.52l8.91-9.49,9.53,9.7s4.84,5.35,5,6.34a10,10,0,0,1-.54,3.11l-5.83-5.2s-2.94-2.06-2.61-1.87S1677.58,575.32,1677.58,575.32Z" fill="#fff" stroke="#2e2d75" stroke-miterlimit="10" stroke-width="2"/><path d="M1465.71,575.83c-1.62-.25-11.68-5.61-11-1.55s2,4.56,2,4.56a17.43,17.43,0,0,1-5,1.13c-3.15.31-9.25-3.53-6.8,1.94s2.25,10,6.72,10.14,16.55-4.18,16.55-4.18Z" fill="#fff" stroke="#2e2d75" stroke-miterlimit="10" stroke-width="2"/><path d="M1498.4,723.84l18,2s5,7,3,12-1,1-1,1l-2.74,1.91h-33.78a4.72,4.72,0,0,1,2.52-5.91C1488.4,732.84,1497.4,728.84,1498.4,723.84Z" fill="#302d77" stroke="#2e2d75" stroke-miterlimit="10" stroke-width="2"/><path d="M1693.4,723.84l13-8s6,0,8,8l-14,13s-10,3-14,3-2-5,0-6S1693.4,726.84,1693.4,723.84Z" fill="#302d77" stroke="#2e2d75" stroke-miterlimit="10" stroke-width="2"/><path d="M1551.76,463.35s-6,4.06-10.73-3.88-.54-11.39-.54-11.39a22.75,22.75,0,0,1,8.56-2.78c5.07-.59,7.9,1.65,10.75.72s1.28-2.52,7-1.21,7.27-.26,9.46,3.24,2.49,4.45,4.34,10.15,1.21,7,1.81,12-3.19,3.13-2.29,9.15.46,7.91-2.16,6.31-3.29,2.82-4.52-1l-4.63-14.27c-1.24-3.8-.52-14.55-4.68-7.94s.23,10.44-2.93,10.41-2.52-1.28-4.09-2.88S1555.56,462.12,1551.76,463.35Z" fill="#302d77" stroke="#2e2d75" stroke-miterlimit="10" stroke-width="2"/><path d="M1549.4,517.84s8-23,30.21-22.34c14.6.44,27.54,4.53,28.61,31.73s-2.49,41.58,3.85,49.67,11.6,25,11.6,25-32.35,27.72-69.4,19.09c0,0,.93-43.73-7.76-71.21" fill="#fff" stroke="#2e2d75" stroke-miterlimit="10" stroke-width="2"/><path d="M1574.37,538.9c-25.74,39-105.6,51.2-105.6,51.2l-3.58-16.69C1521.4,558.48,1558,507,1558,507s12.1-10.39,21.42-.85" fill="#fff" stroke="#2e2d75" stroke-miterlimit="10" stroke-width="2"/></svg>