<svg xmlns="http://www.w3.org/2000/svg" viewBox="0 0 1956.47 1124.4"><title>tale</title><path d="M.85,980.12s94-148.6,99.84-364.82" fill="none" stroke="#2e2d75" stroke-miterlimit="10" stroke-width="2"/><path d="M140.27,621.69s-7.14,25.86-34.32,15.9C106,637.59,112.54,611.52,140.27,621.69Z" fill="none" stroke="#2e2d75" stroke-miterlimit="10" stroke-width="2"/><path d="M137.23,679.94s-10.93,24.51-36.31,10.59C100.92,690.53,111.33,665.74,137.23,679.94Z" fill="none" stroke="#2e2d75" stroke-miterlimit="10" stroke-width="2"/><path d="M127.58,744.36s-14.11,22.83-37.4,5.65C90.18,750,103.8,726.83,127.58,744.36Z" fill="#302d77" stroke="#2e2d75" stroke-miterlimit="10" stroke-width="2"/><path d="M86.73,719.43s-25.31,8.91-32.65-19.08C54.08,700.35,79.24,690.86,86.73,719.43Z" fill="none" stroke="#2e2d75" stroke-miterlimit="10" stroke-width="2"/><path d="M93.64,658.87S68.33,667.78,61,639.79C61,639.79,86.15,630.3,93.64,658.87Z" fill="#302d77" stroke="#2e2d75" stroke-miterlimit="10" stroke-width="2"/><path d="M1931,1084a811.83,811.83,0,0,1-41.52-233.6" fill="none" stroke="#2e2d75" stroke-miterlimit="10" stroke-width="2"/><path d="M1850,856.83s7.14,25.86,34.31,15.9C1884.26,872.73,1877.68,846.66,1850,856.83Z" fill="none" stroke="#2e2d75" stroke-miterlimit="10" stroke-width="2"/><path d="M1853,915.08s10.93,24.5,36.3,10.59C1889.29,925.67,1878.89,900.88,1853,915.08Z" fill="none" stroke="#2e2d75" stroke-miterlimit="10" stroke-width="2"/><path d="M1862.64,979.5s14.1,22.83,37.4,5.65C1900,985.15,1886.42,962,1862.64,979.5Z" fill="#302d77" stroke="#2e2d75" stroke-miterlimit="10" stroke-width="2"/><path d="M1903.48,954.57s25.31,8.91,32.66-19.08C1936.14,935.49,1911,926,1903.48,954.57Z" fill="none" stroke="#2e2d75" stroke-miterlimit="10" stroke-width="2"/><path d="M1896.57,894s25.32,8.91,32.66-19.08C1929.23,874.93,1904.07,865.44,1896.57,894Z" fill="#302d77" stroke="#2e2d75" stroke-miterlimit="10" stroke-width="2"/><line x1="1932.08" y1="1084.04" x2="1799.84" y2="1083.49" fill="none" stroke="#2e2d75" stroke-miterlimit="10" stroke-width="2"/><rect x="155.13" y="552.04" width="255.42" height="422.36" rx="27.43" fill="none" stroke="#2e2d75" stroke-miterlimit="10" stroke-width="2"/><path d="M475.15,889h-64.6V902.8h59.89v39.48h14v-44A9.32,9.32,0,0,0,475.15,889Z" fill="#302d77" stroke="#2e2d75" stroke-miterlimit="10" stroke-width="2"/><path d="M311.34,684.81a43.67,43.67,0,1,1,11.74-50.09" fill="none" stroke="#2e2d75" stroke-miterlimit="10" stroke-width="2"/><path d="M228.31,671a4,4,0,1,1,5.3,5.35,4,4,0,0,1-4.38-.71" fill="none" stroke="#2e2d75" stroke-miterlimit="10" stroke-width="2"/><line x1="176.22" y1="888.98" x2="349.23" y2="888.98" fill="none" stroke="#2e2d75" stroke-miterlimit="10" stroke-width="2"/><line x1="236.58" y1="902.8" x2="409.58" y2="902.8" fill="none" stroke="#2e2d75" stroke-miterlimit="10" stroke-width="2"/><polyline points="1015.51 746.89 998.17 746.89 998.17 684.99 980.84 684.99 980.84 623.08 963.51 623.08 963.51 561.17 946.18 561.17 946.18 499.26 630.79 499.26 630.79 561.17 613.45 561.17 613.45 623.08 596.12 623.08 596.12 684.99 578.79 684.99 578.79 746.89 561.46 746.89" fill="none" stroke="#2e2d75" stroke-miterlimit="10" stroke-width="2"/><line x1="630.79" y1="561.17" x2="769.77" y2="561.17" fill="none" stroke="#2e2d75" stroke-miterlimit="10" stroke-width="2"/><line x1="909.72" y1="561.17" x2="946.42" y2="561.17" fill="none" stroke="#2e2d75" stroke-miterlimit="10" stroke-width="2"/><line x1="961.85" y1="684.98" x2="980.19" y2="684.98" fill="none" stroke="#2e2d75" stroke-miterlimit="10" stroke-width="2"/><line x1="595.15" y1="684.98" x2="788.48" y2="684.98" fill="none" stroke="#2e2d75" stroke-miterlimit="10" stroke-width="2"/><line x1="726.96" y1="623.08" x2="979.61" y2="623.08" fill="none" stroke="#2e2d75" stroke-miterlimit="10" stroke-width="2"/><line x1="583.46" y1="746.89" x2="1048.17" y2="746.89" fill="none" stroke="#2e2d75" stroke-miterlimit="10" stroke-width="2"/><polyline points="630.79 499.26 575.05 499.26 575.05 439.94 519.32 439.94 519.32 380.61 463.58 380.61 463.58 321.29 407.84 321.29 407.84 261.97 224.47 261.97" fill="none" stroke="#2e2d75" stroke-miterlimit="10" stroke-width="2"/><polyline points="946.75 499.26 1052.49 499.26 1052.49 439.94 1108.23 439.94 1108.23 380.61 1163.96 380.61 1163.96 321.29 1219.7 321.29" fill="none" stroke="#2e2d75" stroke-miterlimit="10" stroke-width="2"/><polyline points="1221.2 655.51 1276.94 655.51 1276.94 596.18 1332.67 596.18 1332.67 502.05 1388.41 502.05 1388.41 416.52 1444.14 416.52 1444.14 212.5 1499.88 212.5 1499.88 127.42 1555.62 127.42 1555.62 35.78" fill="none" stroke="#2e2d75" stroke-miterlimit="10" stroke-width="2"/><polyline points="1071.28 924.86 1015.55 924.86 1015.55 865.54 959.81 865.54 959.81 806.22 904.08 806.22 904.08 746.89 848.34 746.89" fill="none" stroke="#2e2d75" stroke-miterlimit="10" stroke-width="2"/><polyline points="1444 414.18 1444 669.94 1444 725.68 1503.32 725.68 1503.32 781.41 1562.64 781.41 1562.64 837.15 1621.97 837.15 1621.97 892.88 1621.87 837.82 1621.87 893.55 1681.2 893.55 1681.2 949.29 1740.52 949.29 1740.52 1005.02 1799.84 1005.02 1799.84 1124.4" fill="none" stroke="#2e2d75" stroke-miterlimit="10" stroke-width="2"/><path d="M1058.42,351.56s2.49,10.59,2.93,11.38S1047,420.89,1047,420.89l1,8.88h7.32l24.13-60.28a6.39,6.39,0,0,0,.42-1.71l8.83-32.61S1069.65,350.84,1058.42,351.56Z" fill="#302d77" stroke="#2e2d75" stroke-miterlimit="10" stroke-width="2"/><polyline points="1059.77 268.7 1046.78 258.18 1079.1 205.18" fill="none" stroke="#2e2d75" stroke-miterlimit="10" stroke-width="2"/><path d="M1086.29,324.16l27.8-2.54c3.14.33,6.29,1.9,6,5.23l-.9,42.62s4.63,6.3,11.5,1.26l10.35-48.39L1126.34,308l-20.64,3.1-16.77,9.09Z" fill="#302d77" stroke="#2e2d75" stroke-miterlimit="10" stroke-width="2"/><polygon points="1048.98 259.96 1034.82 286.54 1041.9 291.45 1060.79 270.12 1048.98 259.96" fill="#302d77" stroke="#2e2d75" stroke-miterlimit="10" stroke-width="2"/><path d="M1036.25,347.18l41.62-138.83a20.22,20.22,0,0,1,13-13.46h0c6.11-2.06,13.54-2.09,18.81,1.63l2.22,1.73c4.84,4.67,7.58,10.13,7.94,16.29l3.7,64.46a14.67,14.67,0,0,0,9.72,13l2.68,1a13.61,13.61,0,0,1,9,12.8v17.12s-31.06-5-41.93,1.28C1080.84,337,1067.11,362.29,1036.25,347.18Z" fill="#fff" stroke="#2e2d75" stroke-miterlimit="10" stroke-width="2"/><path d="M1090.57,220.71l8.08,60.53,30-23.06-15.43-47a14.49,14.49,0,0,0-10.3-8.27" fill="#fff" stroke="#2e2d75" stroke-miterlimit="10" stroke-width="2"/><path d="M1115.94,379s-2.37-4.28,1.4-9.56c0,0,8.16,4.78,13.39,1.26,0,0,16,1.86,16.55,7.85v1.63h-30.82Z" fill="#fff" stroke="#2e2d75" stroke-miterlimit="10" stroke-width="2"/><path d="M1046.48,419.81s3.27,8.65,10.75,7.37c0,0,5.85,5,6.79,5.38s6.43,1.14,9.08,3.39a2.27,2.27,0,0,1,0,3.77h-19.49l-14-8.8S1036.3,424.6,1046.48,419.81Z" fill="#fff" stroke="#2e2d75" stroke-miterlimit="10" stroke-width="2"/><polygon points="1121.52 263.69 1150.38 271.27 1147.82 278.7 1105.7 275.83 1121.52 263.69" fill="#302d77" stroke="#2e2d75" stroke-miterlimit="10" stroke-width="2"/><polygon points="1108.1 195.58 1109.52 189.88 1101.19 185.82 1097.99 190.7 1100.55 193.54 1108.1 195.58" fill="#302d77" stroke="#2e2d75" stroke-miterlimit="10" stroke-width="2"/><path d="M1125.13,171.47l-9.72-4L1107,179.58,1105.7,188l2.85,1.12a6.49,6.49,0,0,0,8-2.8l8.58-14.87" fill="#302d77" stroke="#2e2d75" stroke-miterlimit="10" stroke-width="2"/><path d="M1128,172.64l-10-4.53S1104.4,186.8,1103,196.67c0,0-13.5,5.93-22.23-1.09s-1.64-22.42-1.64-22.42,13.26-32.56,43-17.75C1128.59,158.24,1131.42,166.74,1128,172.64Z" fill="#fff" stroke="#2e2d75" stroke-miterlimit="10" stroke-width="2"/><polyline points="1150.38 271.27 1156.98 270.01 1160.99 270.01" fill="#fff" stroke="#2e2d75" stroke-miterlimit="10" stroke-width="2"/><line x1="1155.69" y1="272.67" x2="1166.76" y2="273.49" fill="#fff" stroke="#2e2d75" stroke-miterlimit="10" stroke-width="2"/><line x1="1154.72" y1="275.71" x2="1167.61" y2="277.5" fill="#fff" stroke="#2e2d75" stroke-miterlimit="10" stroke-width="2"/><line x1="1153.85" y1="278.5" x2="1163.78" y2="281.07" fill="#fff" stroke="#2e2d75" stroke-miterlimit="10" stroke-width="2"/><polyline points="1147.82 278.7 1153.85 281.24 1160.99 282.96" fill="#fff" stroke="#2e2d75" stroke-miterlimit="10" stroke-width="2"/><polyline points="1040.57 292.58 1038.22 298.88 1036.14 302.3" fill="#fff" stroke="#2e2d75" stroke-miterlimit="10" stroke-width="2"/><line x1="1036.62" y1="296.39" x2="1030.16" y2="305.42" fill="#fff" stroke="#2e2d75" stroke-miterlimit="10" stroke-width="2"/><line x1="1034.53" y1="293.98" x2="1026.3" y2="304.06" fill="#fff" stroke="#2e2d75" stroke-miterlimit="10" stroke-width="2"/><line x1="1032.6" y1="291.79" x2="1025.24" y2="298.93" fill="#fff" stroke="#2e2d75" stroke-miterlimit="10" stroke-width="2"/><polyline points="1035.56 286.54 1030.25 290.36 1025.07 295.57" fill="#fff" stroke="#2e2d75" stroke-miterlimit="10" stroke-width="2"/><path d="M762.8,589.3s-.51,13.67-32.72,15.19H716.14l.84,65.67s-20.31-.11-26,0l-5.7.11,5.93-79.68a15.56,15.56,0,0,1,10.06-13.37l33.43-12.52,51.24-4.53s7.21,18.05,8.73,37.92,13.56,125.18,16.71,128.13c0,0-34.24,6-42.89,6L757.36,595.67" fill="#302d77" stroke="#2e2d75" stroke-miterlimit="10" stroke-width="2"/><path d="M782.09,546.71s1.6,9.23,2.84,11.94l-46.26,6.52Z" fill="#fff" stroke="#2e2d75" stroke-miterlimit="10" stroke-width="2"/><path d="M729.87,493.17l-10.58,25.36-14.16-19.88,8.52-21a29.89,29.89,0,0,1,22.84-18.33,112.65,112.65,0,0,1,25.31-1.19,30.15,30.15,0,0,1,24.68,15.86l13.14,24.71-14.15,8.4-4.25-17.91s7.09,34.16,10.09,50.42a4.08,4.08,0,0,1-2.55,4.55c-10.5,4-44.39,17.33-57.79,25.08a3.15,3.15,0,0,1-4.74-2.73V501.09" fill="#fff" stroke="#2e2d75" stroke-miterlimit="10" stroke-width="2"/><path d="M725.14,432.23h0a19.56,19.56,0,0,1,18.17-19.52l1.54-.11a19.55,19.55,0,0,1,20.3,14.47c2.52,9.48,5.24,22.6,12.92,30.76a44.74,44.74,0,0,1,11.6,36.79l-56.39,13.44S724.33,465.91,725.14,432.23Z" fill="#302d77" stroke="#2e2d75" stroke-miterlimit="10" stroke-width="2"/><path d="M689.18,685s-1.34-11.6,10.28-11.6S710.84,685,710.84,685Z" fill="#302d77" stroke="#2e2d75" stroke-miterlimit="10" stroke-width="2"/><path d="M782,746.89s-1.34-11.6,10.27-11.6,11.39,11.6,11.39,11.6Z" fill="#302d77" stroke="#2e2d75" stroke-miterlimit="10" stroke-width="2"/><line x1="692.61" y1="671.08" x2="692.61" y2="675.46" fill="none" stroke="#2e2d75" stroke-miterlimit="10" stroke-width="2"/><line x1="706.96" y1="671.08" x2="706.96" y2="675.46" fill="none" stroke="#2e2d75" stroke-miterlimit="10" stroke-width="2"/><line x1="783.09" y1="731.48" x2="785.2" y2="736.78" fill="none" stroke="#2e2d75" stroke-miterlimit="10" stroke-width="2"/><line x1="797.79" y1="728.49" x2="798.38" y2="736.78" fill="none" stroke="#2e2d75" stroke-miterlimit="10" stroke-width="2"/><path d="M797,500.19l6.31,16.67a4.78,4.78,0,0,1,.18,2.82l-9.86,41.49a45.64,45.64,0,0,1,0,6.26c-.28,1.26-3,7.66-3,7.66" fill="#fff" stroke="#2e2d75" stroke-miterlimit="10" stroke-width="2"/><line x1="787.65" y1="544.54" x2="784.93" y2="558.65" fill="#fff" stroke="#2e2d75" stroke-miterlimit="10" stroke-width="2"/><polyline points="789.95 532.37 790.66 522.79 785.9 512.02" fill="#fff" stroke="#2e2d75" stroke-miterlimit="10" stroke-width="2"/><path d="M678,584.4l6.76-9.6,2.87-6.42,21.19-34.1a6.09,6.09,0,0,0,.42-.8L717,515.29l-9.43-13.24-7.07,19.14-18.35,44-3.39,5-4.15,2.29" fill="#fff" stroke="#2e2d75" stroke-miterlimit="10" stroke-width="2"/><line x1="675.35" y1="582.74" x2="682.14" y2="574.8" fill="#fff" stroke="#2e2d75" stroke-miterlimit="10" stroke-width="2"/><line x1="671.47" y1="582.78" x2="681.4" y2="572.99" fill="#fff" stroke="#2e2d75" stroke-miterlimit="10" stroke-width="2"/><line x1="671.96" y1="578.13" x2="680.35" y2="571.3" fill="#fff" stroke="#2e2d75" stroke-miterlimit="10" stroke-width="2"/><path d="M1424.18,928c-2.38-5-4.74-10.4-4.74-10.4-6.15-10.24-13-7.85-13-7.85s-32.55,14.39-35.45-4.68,7-26.11,24-24.86,20.72,1.65,11.19,21.55" fill="none" stroke="#2e2d75" stroke-miterlimit="10" stroke-width="2"/><path d="M1514,1031.47l-6.63-7.88a70.35,70.35,0,0,0-7-10.36c-3.52-4.23-36-33.14-53-51.1" fill="none" stroke="#2e2d75" stroke-miterlimit="10" stroke-width="2"/><path d="M1408.52,896.77s13-.88,18.86-9.53" fill="none" stroke="#2e2d75" stroke-miterlimit="10" stroke-width="2"/><polyline points="1521.97 1016.03 1510.68 1011.99 1503.64 1006.18 1468.12 951.64" fill="none" stroke="#2e2d75" stroke-miterlimit="10" stroke-width="2"/><line x1="1509.83" y1="1021.18" x2="1517.66" y2="1030.37" fill="none" stroke="#2e2d75" stroke-miterlimit="10" stroke-width="2"/><line x1="1511.77" y1="1018.83" x2="1522.48" y2="1028.13" fill="none" stroke="#2e2d75" stroke-miterlimit="10" stroke-width="2"/><line x1="1512.95" y1="1016.03" x2="1525.09" y2="1022.83" fill="none" stroke="#2e2d75" stroke-miterlimit="10" stroke-width="2"/><path d="M1459.75,878.18l55.62-.63-.76,18.9-2.9,55.54v.31l-49.1-9.11,5.51,8.45-20.75,10.49,0,0c-3-3.16-6.26-6.74-8-9A135.88,135.88,0,0,1,1424.18,928s14.81-21.27,3.2-40.75l.53-1.08c.47-.69-.91,1.91-.53,1.08,4.3-9.24,13.26-16.58,25.28-23.62l18.09-9.43,11.14,17.7-11.14,6" fill="#302d77" stroke="#2e2d75" stroke-linejoin="round" stroke-width="2"/><polyline points="1470.75 854.19 1484.85 846.87 1520.82 821.51 1522.18 816.14 1528.25 809.8" fill="none" stroke="#2e2d75" stroke-miterlimit="10" stroke-width="2"/><polyline points="1481.89 871.89 1490.86 864.92 1525.09 832 1535.61 825.41 1542.82 816.63" fill="none" stroke="#2e2d75" stroke-miterlimit="10" stroke-width="2"/><line x1="1542.02" y1="812.65" x2="1532.83" y2="821.76" fill="none" stroke="#2e2d75" stroke-miterlimit="10" stroke-width="2"/><line x1="1539.54" y1="809.14" x2="1529.31" y2="819.68" fill="none" stroke="#2e2d75" stroke-miterlimit="10" stroke-width="2"/><line x1="1534.43" y1="809.14" x2="1527.62" y2="817.21" fill="none" stroke="#2e2d75" stroke-miterlimit="10" stroke-width="2"/><path d="M1542,906.44l61,5.92L1661.47,934l-1.36,17.67-61.66-8.53L1549,951.64s-26,4-37.25.66l3.66-74.75L1526,844.4a10,10,0,0,1,11.85-6.24l69.68,21.51.34,18.31-52.1,2.56-7.07,25.9" fill="none" stroke="#2e2d75" stroke-miterlimit="10" stroke-width="2"/><path d="M1667.52,937.3s-1.47,9.55-6,11.2,0,5.12,0,5.12a27.72,27.72,0,0,0,6,2.77c2.76.74,4,0,4,0l8.63-14.13v-16s-2.79-6.77-6.09,0S1670.64,936.57,1667.52,937.3Z" fill="#302d77" stroke="#2e2d75" stroke-miterlimit="10" stroke-width="2"/><path d="M1609.17,863.3s3,7.8,0,11.8c0,0,3.84,5,7.83,4.34s3.55-3.22,3.69-6.42,0-21.89,0-21.89-.32-12-4.24-3.68S1612.37,859.18,1609.17,863.3Z" fill="#302d77" stroke="#2e2d75" stroke-miterlimit="10" stroke-width="2"/><line x1="1661.47" y1="935.59" x2="1667.37" y2="938.12" fill="none" stroke="#2e2d75" stroke-miterlimit="10" stroke-width="2"/><path d="M1380.21,901.77s2.26-7.3,0-11.81-1.39-4,0-5.73,1.83-2.79,1-4.17-1-2.78-4-3.65-3.41,2.26-6.74-.34-4.2-7-8.54-1.57-6.6,1.39-4.69,6.43,4,4.51,4.69,8,1.21,5.55.34,8.68-3.64,5-.69,6.43,2.43-.25,4.86,4.13,2.61,5.94,5.56,7.32,4,1.22,7.47,1.91,5,.35,6.94,1.22.7,2.95,3.48,1,.52-1.91,5-3.64,3.13-.7,4.52-1.74,4.68-2.43,0-2.78-3.3-1.74-7.12-.87-6.6,0-7.64-1-2.26-2.08-2.09-3.13-.35-2.77,2.95-1.56,4,1.91,4.52,1.39,2.08-1.56.52-2.25a4.88,4.88,0,0,0-3.13-.7,27.08,27.08,0,0,1-4.68-.7Z" fill="#302d77" stroke="#2e2d75" stroke-linejoin="round" stroke-width="2"/><circle cx="664.08" cy="151.55" r="144.59" fill="none" stroke="#2e2d75" stroke-miterlimit="10" stroke-width="2"/><circle cx="1796.39" cy="685.79" r="125.98" fill="#302d77" stroke="#2e2d75" stroke-miterlimit="10" stroke-width="2"/><line x1="341.17" y1="22.84" x2="341.17" y2="186.54" fill="none" stroke="#2e2d75" stroke-miterlimit="10" stroke-width="2"/><line x1="371.96" y1="154.44" x2="371.96" y2="222.18" fill="none" stroke="#2e2d75" stroke-miterlimit="10" stroke-width="2"/><polyline points="35.47 1010.49 372.45 1010.49 372.45 1124.4" fill="none" stroke="#2e2d75" stroke-miterlimit="10" stroke-width="2"/><polygon points="182.46 1010.49 171.49 1010.49 190.14 974.4 201.11 974.4 182.46 1010.49" fill="#302d77" stroke="#2e2d75" stroke-miterlimit="10" stroke-width="2"/><polygon points="316.86 1010.49 327.83 1010.49 309.18 974.4 298.21 974.4 316.86 1010.49" fill="#302d77" stroke="#2e2d75" stroke-miterlimit="10" stroke-width="2"/><polygon points="963.12 499.26 888.35 499.26 876.13 390.2 975.33 390.2 963.12 499.26" fill="none" stroke="#2d2f75" stroke-miterlimit="10" stroke-width="2"/><rect x="870.28" y="377.88" width="110.9" height="12.32" fill="#302f77" stroke="#2d2f75" stroke-miterlimit="10" stroke-width="2"/><line x1="960.45" y1="413" x2="953.67" y2="482.01" fill="#302f77" stroke="#2d2f75" stroke-miterlimit="10" stroke-width="2"/><path d="M867.5,185.15s52.71,105.74,52.71,196.33" fill="none" stroke="#2d2f75" stroke-miterlimit="10" stroke-width="2"/><path d="M932.86,384s-1.66-83.77,48.33-133.76" fill="none" stroke="#2d2f75" stroke-miterlimit="10" stroke-width="2"/><path d="M939.43,330.81s-46.65-93.73,82.71-114.87C1022.14,215.94,1009.34,306.75,939.43,330.81Z" fill="none" stroke="#2d2f75" stroke-miterlimit="10" stroke-width="2"/><path d="M857.21,167.45S845,282.31,909.89,303.5C909.89,303.5,965.68,227.15,857.21,167.45Z" fill="none" stroke="#2d2f75" stroke-miterlimit="10" stroke-width="2"/><polygon points="1221.09 563.69 1221.09 604.73 1161.24 611.43 1161.24 556.99 1221.09 563.69" fill="none" stroke="#2d2f75" stroke-miterlimit="10" stroke-width="2"/><rect x="1127.42" y="580.82" width="60.86" height="6.76" transform="translate(573.65 1742.06) rotate(-90)" fill="#302f77" stroke="#2d2f75" stroke-miterlimit="10" stroke-width="2"/><path d="M1048.7,548.45c5.35,2.66,52.68,28.92,107.75,28.92" fill="none" stroke="#2d2f75" stroke-miterlimit="10" stroke-width="2"/><path d="M1157.86,584.31s-46,.09-73.41,27.53" fill="none" stroke="#2d2f75" stroke-miterlimit="10" stroke-width="2"/><path d="M1128.64,588.92s-51.44-25.6-63,45.39C1065.6,634.31,1115.44,627.29,1128.64,588.92Z" fill="none" stroke="#2d2f75" stroke-miterlimit="10" stroke-width="2"/><path d="M1039,542.8s63-5.71,74.66,29.91C1113.65,572.71,1071.76,602.33,1039,542.8Z" fill="none" stroke="#2d2f75" stroke-miterlimit="10" stroke-width="2"/><path d="M981.68,924.86h98.87a88.1,88.1,0,0,1,88.1,88.11h0a88.1,88.1,0,0,1-88.1,88.1H572.24a88.11,88.11,0,0,1-88.1-88.1h0a88.11,88.11,0,0,1,88.1-88.11H981.68Z" fill="#302d77" stroke="#2e2d75" stroke-linejoin="round" stroke-width="2"/><polyline points="607.25 1065.96 607.25 1101.07 582.58 1125.74 568.24 1125.69 592.86 1101.07 592.86 1000.56" fill="#302d77" stroke="#2e2d75" stroke-linejoin="round" stroke-width="2"/><polyline points="1051.18 1065.96 1051.18 1101.07 1075.69 1125.57 1090.02 1125.52 1065.57 1101.07" fill="#302d77" stroke="#2e2d75" stroke-linejoin="round" stroke-width="2"/><line x1="1163.96" y1="380.61" x2="1163.96" y2="500.19" fill="none" stroke="#2d2f75" stroke-miterlimit="10" stroke-width="2"/><rect x="78.7" y="45.4" width="208.87" height="437.61" fill="#302d77" stroke="#2e2d75" stroke-miterlimit="10" stroke-width="2"/><rect x="70.46" y="483.01" width="225.35" height="19.83" fill="none" stroke="#2d2f75" stroke-miterlimit="10" stroke-width="2"/><line x1="250.91" y1="83.77" x2="250.91" y2="287.53" fill="none" stroke="#fff" stroke-miterlimit="10" stroke-width="2"/><polygon points="607.25 897.96 593.88 880.52 593.88 924.86 607.25 924.86 607.25 897.96" fill="none" stroke="#2e2d75" stroke-miterlimit="10" stroke-width="2"/><polygon points="1221.2 443.79 1189.57 424.46 1189.57 410.28 1221.2 429.61 1221.2 443.79" fill="none" stroke="#2d2f75" stroke-miterlimit="10" stroke-width="2"/><polyline points="1030.47 655.51 1221.2 655.51 1221.2 262.4 1444.14 262.4" fill="none" stroke="#2d2f75" stroke-miterlimit="10" stroke-width="2"/><line x1="1332.67" y1="596.18" x2="1332.67" y2="787.19" fill="none" stroke="#2e2d75" stroke-linejoin="round" stroke-width="2"/><line x1="1681.2" y1="893.55" x2="1872.45" y2="893.55" fill="none" stroke="#2e2d75" stroke-linejoin="round" stroke-width="2"/><rect x="1252.42" y="761.44" width="10.79" height="380.49" rx="5.39" fill="#302d77" stroke="#2e2d75" stroke-linejoin="round" stroke-width="2"/><rect x="1222.61" y="774.61" width="10.79" height="150.1" rx="5.39" stroke-width="2" fill="#302d77" stroke="#2e2d75" stroke-linejoin="round" transform="translate(2077.66 -378.35) rotate(90)"/><path d="M1153,655.51h10.79a0,0,0,0,1,0,0V848.8a5.39,5.39,0,0,1-5.39,5.39h0a5.39,5.39,0,0,1-5.39-5.39V655.51a0,0,0,0,1,0,0Z" fill="#302d77" stroke="#2e2d75" stroke-linejoin="round" stroke-width="2"/><polygon points="1163.71 786.66 1056.68 786.66 1056.68 774.29 1045.89 774.29 1045.89 786.66 1013.62 786.66 1013.62 797.44 1045.89 797.44 1045.89 924.39 1056.68 924.39 1056.68 797.44 1152.96 797.44 1163.71 786.66" fill="#fff" stroke="#2d2f75" stroke-linejoin="bevel" stroke-width="2"/><path d="M1068,852.46c0,1.35-2.56,2.35-2.89,3.6s1.36,3.43.7,4.56-3.37.74-4.31,1.67-.52,3.65-1.66,4.31-3.28-1.05-4.57-.7-2.25,2.89-3.6,2.89-2.36-2.56-3.61-2.89-3.43,1.36-4.56.7-.74-3.38-1.67-4.31-3.65-.52-4.31-1.67,1-3.27.71-4.56-2.9-2.25-2.9-3.6,2.56-2.36,2.9-3.61-1.36-3.43-.71-4.56,3.38-.74,4.31-1.67.52-3.65,1.67-4.31,3.27,1.05,4.56.7,2.25-2.89,3.61-2.89,2.35,2.56,3.6,2.89,3.43-1.35,4.57-.7.73,3.38,1.67,4.31,3.64.52,4.3,1.67-1,3.27-.7,4.56S1068,851.1,1068,852.46Z" fill="#fff"/><path d="M1068,852.46c0,1.35-2.56,2.35-2.89,3.6s1.36,3.43.7,4.56-3.37.74-4.31,1.67-.52,3.65-1.66,4.31-3.28-1.05-4.57-.7-2.25,2.89-3.6,2.89-2.36-2.56-3.61-2.89-3.43,1.36-4.56.7-.74-3.38-1.67-4.31-3.65-.52-4.31-1.67,1-3.27.71-4.56-2.9-2.25-2.9-3.6,2.56-2.36,2.9-3.61-1.36-3.43-.71-4.56,3.38-.74,4.31-1.67.52-3.65,1.67-4.31,3.27,1.05,4.56.7,2.25-2.89,3.61-2.89,2.35,2.56,3.6,2.89,3.43-1.35,4.57-.7.73,3.38,1.67,4.31,3.64.52,4.3,1.67-1,3.27-.7,4.56S1068,851.1,1068,852.46Z" fill="none" stroke="#2d2f75" stroke-miterlimit="10" stroke-width="2"/><path d="M1174.68,686.3c0,1.36-2.56,2.36-2.89,3.6s1.36,3.44.7,4.57-3.37.74-4.3,1.67-.53,3.64-1.67,4.31-3.28-1.05-4.57-.71-2.25,2.89-3.6,2.89-2.36-2.55-3.6-2.89-3.44,1.36-4.57.71-.74-3.38-1.67-4.31-3.64-.52-4.31-1.67,1-3.27.71-4.57-2.89-2.24-2.89-3.6,2.55-2.35,2.89-3.6-1.36-3.44-.71-4.57,3.38-.74,4.31-1.67.52-3.64,1.67-4.3,3.27,1,4.57.7,2.24-2.89,3.6-2.89,2.35,2.56,3.6,2.89,3.44-1.36,4.57-.7.74,3.37,1.67,4.3,3.64.53,4.3,1.67-1,3.28-.7,4.57S1174.68,685,1174.68,686.3Z" fill="#fff"/><path d="M1174.68,686.3c0,1.36-2.56,2.36-2.89,3.6s1.36,3.44.7,4.57-3.37.74-4.3,1.67-.53,3.64-1.67,4.31-3.28-1.05-4.57-.71-2.25,2.89-3.6,2.89-2.36-2.55-3.6-2.89-3.44,1.36-4.57.71-.74-3.38-1.67-4.31-3.64-.52-4.31-1.67,1-3.27.71-4.57-2.89-2.24-2.89-3.6,2.55-2.35,2.89-3.6-1.36-3.44-.71-4.57,3.38-.74,4.31-1.67.52-3.64,1.67-4.3,3.27,1,4.57.7,2.24-2.89,3.6-2.89,2.35,2.56,3.6,2.89,3.44-1.36,4.57-.7.74,3.37,1.67,4.3,3.64.53,4.3,1.67-1,3.28-.7,4.57S1174.68,685,1174.68,686.3Z" fill="none" stroke="#2d2f75" stroke-miterlimit="10" stroke-width="2"/><path d="M1929.67,400.25c0,1.05-2,1.84-2.26,2.81s1.06,2.69.55,3.57-2.64.58-3.37,1.31-.41,2.85-1.3,3.37-2.56-.82-3.57-.55S1918,413,1916.9,413s-1.84-2-2.82-2.26-2.68,1.06-3.57.55-.57-2.64-1.3-3.37-2.85-.41-3.37-1.31.82-2.56.55-3.57-2.26-1.76-2.26-2.81,2-1.84,2.26-2.82-1.06-2.69-.55-3.57,2.64-.58,3.37-1.31.41-2.85,1.3-3.36,2.56.82,3.57.55,1.76-2.26,2.82-2.26,1.84,2,2.82,2.26,2.68-1.07,3.57-.55.57,2.64,1.3,3.36,2.85.41,3.37,1.31-.82,2.56-.55,3.57S1929.67,399.19,1929.67,400.25Z" fill="#302d77"/><path d="M1929.67,400.25c0,1.05-2,1.84-2.26,2.81s1.06,2.69.55,3.57-2.64.58-3.37,1.31-.41,2.85-1.3,3.37-2.56-.82-3.57-.55S1918,413,1916.9,413s-1.84-2-2.82-2.26-2.68,1.06-3.57.55-.57-2.64-1.3-3.37-2.85-.41-3.37-1.31.82-2.56.55-3.57-2.26-1.76-2.26-2.81,2-1.84,2.26-2.82-1.06-2.69-.55-3.57,2.64-.58,3.37-1.31.41-2.85,1.3-3.36,2.56.82,3.57.55,1.76-2.26,2.82-2.26,1.84,2,2.82,2.26,2.68-1.07,3.57-.55.57,2.64,1.3,3.36,2.85.41,3.37,1.31-.82,2.56-.55,3.57S1929.67,399.19,1929.67,400.25Z" fill="none" stroke="#2e2d75" stroke-linejoin="round" stroke-width="2"/><polygon points="1608.39 238.98 1608.39 42.4 1593.92 42.4 1593.92 301.61 1608.39 316.08 1608.39 254.2 1694.27 254.2 1694.27 370.55 1708.74 385.02 1708.74 254.2 1708.74 245.39 1708.74 238.98 1608.39 238.98" fill="#fff" stroke="#2d2f75" stroke-miterlimit="10" stroke-width="2"/><polyline points="637.75 60.92 637.75 230.42 652.8 230.42 652.8 167.45 755.57 167.45" fill="none" stroke="#2e2d75" stroke-miterlimit="10" stroke-width="2"/><polyline points="726.11 151.44 652.8 151.44 652.8 31.39" fill="none" stroke="#2e2d75" stroke-miterlimit="10" stroke-width="2"/><rect x="633.52" y="213.42" width="23" height="7.91" fill="#302d77" stroke="#2e2d75" stroke-miterlimit="10" stroke-width="2"/><rect x="1804.03" y="25.85" width="151.44" height="316.02" fill="none" stroke="#2e2d75" stroke-miterlimit="10" stroke-width="2"/><path d="M1804,355s66.67,23.51,151.44,14.67" fill="none" stroke="#2e2d75" stroke-miterlimit="10" stroke-width="2"/><polygon points="1753.91 25.72 1804.03 82.26 1804.03 100.96 1753.91 44.43 1753.91 25.72" fill="none" stroke="#2e2d75" stroke-miterlimit="10" stroke-width="2"/><rect x="1910.49" y="372.15" width="12.83" height="28.1" fill="none" stroke="#2e2d75" stroke-miterlimit="10" stroke-width="2"/><rect x="1910.49" y="361.65" width="12.83" height="77.15" transform="translate(2317.12 -1516.68) rotate(90)" fill="none" stroke="#2e2d75" stroke-miterlimit="10" stroke-width="2"/><line x1="1851.85" y1="284.38" x2="1851.85" y2="119.84" fill="none" stroke="#2e2d75" stroke-linejoin="round" stroke-width="2"/><rect x="1375.01" y="504.79" width="160.16" height="22.19" rx="7.97" transform="translate(1970.97 -939.21) rotate(90)" fill="#302d77" stroke="#2e2d75" stroke-miterlimit="10" stroke-width="2"/><rect x="1517.44" y="504.79" width="160.16" height="22.19" rx="7.97" transform="translate(2113.41 -1081.65) rotate(90)" fill="#302d77" stroke="#2e2d75" stroke-miterlimit="10" stroke-width="2"/><path d="M1586.43,584.87s-41.58-26.1-120.25,0" fill="none" stroke="#2d2f75" stroke-miterlimit="10" stroke-width="2"/><path d="M1586.43,447.4s-41.58,26.09-120.25,0" fill="none" stroke="#2d2f75" stroke-miterlimit="10" stroke-width="2"/><line x1="1579.76" y1="568.89" x2="1472.36" y2="506.16" fill="none" stroke="#2d2f75" stroke-miterlimit="10" stroke-width="2"/><line x1="1579.76" y1="548.93" x2="1507.05" y2="506.16" fill="none" stroke="#2d2f75" stroke-miterlimit="10" stroke-width="2"/><path d="M1608.62,446.89s30.54,69,0,138" fill="none" stroke="#2d2f75" stroke-miterlimit="10" stroke-width="2"/><line x1="586.47" y1="1085.4" x2="586.47" y2="992.4" fill="none" stroke="#fff" stroke-linejoin="round" stroke-width="2"/><line x1="600.47" y1="1059.4" x2="600.47" y2="966.4" fill="none" stroke="#fff" stroke-linejoin="round" stroke-width="2"/><line x1="1048.47" y1="1081.4" x2="1048.47" y2="988.4" fill="none" stroke="#fff" stroke-linejoin="round" stroke-width="2"/><text transform="translate(139.99 417.4) rotate(-90)" font-size="33.3" fill="#fff" font-family="Poppins-Light, Poppins Light" font-weight="300">the design village</text><line x1="1955.47" y1="355.01" x2="1955.47" y2="341.87" fill="none" stroke="#2e2d75" stroke-miterlimit="10" stroke-width="2"/><polyline points="1955.47 369.68 1955.47 393.81 1955.47 406.64 1955.47 607.63 1955.47 893.6 1955.47 1084.14 1955.47 1277.4" fill="none" stroke="#2e2d75" stroke-miterlimit="10" stroke-width="2"/><line x1="1955.47" y1="25.85" x2="1955.47" y2="-21.44" fill="none" stroke="#2e2d75" stroke-miterlimit="10" stroke-width="2"/><rect x="1799.03" y="341.87" width="159.7" height="13.14" fill="#2e2d75"/><polygon points="725.09 372.69 671.47 435.8 607.25 544.54 624.9 623.08 630.79 754.85 726.96 801.72 815.82 774.29 890.27 717.48 848.34 634.31 870.28 571.3 856.3 512.02 815.82 435.8 799.62 384.04 725.09 372.69" fill="lime" opacity="0"/><path d="M674.74,442.31c-14.79,1.16-23.19-2.68-27.9-6.88a59.83,59.83,0,0,1-33.12,9.94H428a60.13,60.13,0,0,1-60.13-60.14V357.47A60.14,60.14,0,0,1,428,297.33h185.7a60.15,60.15,0,0,1,60.14,60.14v27.76a59.91,59.91,0,0,1-16.51,41.39A56.57,56.57,0,0,0,674.74,442.31Z" fill="#fff" stroke="#2e2d75" stroke-linejoin="round" stroke-width="2"/><path d="M428.12,332.17h-8.49v22h-4.07v-22H407V328.6h21.09Z" fill="#302f77"/><path d="M447.92,354.16h-4V343.74A6.27,6.27,0,0,0,443,340a3.11,3.11,0,0,0-2.63-1.25,4.71,4.71,0,0,0-2.16.57,6.51,6.51,0,0,0-2,1.54,5.91,5.91,0,0,0-1.26,2.24v11.09h-4V327.88h4v11.38a8,8,0,0,1,2.95-3,7.84,7.84,0,0,1,4-1.09,6.17,6.17,0,0,1,2.92.61,4.71,4.71,0,0,1,1.82,1.66,7.1,7.1,0,0,1,.93,2.42,15.13,15.13,0,0,1,.27,2.91Z" fill="#302f77"/><path d="M461.06,354.52a10,10,0,0,1-4-.76A9.73,9.73,0,0,1,456,336.53a9.71,9.71,0,0,1,5.15-1.34,9.23,9.23,0,0,1,8.42,4.85,9.62,9.62,0,0,1,1.19,4.67,6.69,6.69,0,0,1,0,.8c0,.25,0,.46-.07.63H455.52a5.77,5.77,0,0,0,.92,2.86,6,6,0,0,0,2.07,1.92,5.53,5.53,0,0,0,2.7.69,6.17,6.17,0,0,0,3-.79,4.13,4.13,0,0,0,1.93-2.09l3.38,1a7.32,7.32,0,0,1-1.85,2.47,9.3,9.3,0,0,1-2.94,1.72A10.4,10.4,0,0,1,461.06,354.52Zm-5.65-11h11.38a5.75,5.75,0,0,0-.92-2.81,5.91,5.91,0,0,0-2.05-1.9,5.6,5.6,0,0,0-2.76-.69,5.53,5.53,0,0,0-2.72.69,5.7,5.7,0,0,0-2.93,4.71Z" fill="#302f77"/><path d="M501,332.17h-8.49v22h-4.07v-22h-8.53V328.6H501Z" fill="#302f77"/><path d="M499.19,348.71a5,5,0,0,1,1-3.12,6.68,6.68,0,0,1,2.83-2.07,11,11,0,0,1,4.17-.73,19.09,19.09,0,0,1,2.58.18,10.37,10.37,0,0,1,2.32.57v-1.18a4,4,0,0,0-1.19-3.05,4.86,4.86,0,0,0-3.42-1.09,8.1,8.1,0,0,0-3,.55,18.83,18.83,0,0,0-3,1.57l-1.34-2.66A15.25,15.25,0,0,1,504,335.8a13,13,0,0,1,4-.61,8.53,8.53,0,0,1,6,2,7.17,7.17,0,0,1,2.18,5.6v6.94a1.59,1.59,0,0,0,.23,1,1.13,1.13,0,0,0,.81.32v3.16a8.27,8.27,0,0,1-1,.15l-.72,0a2.69,2.69,0,0,1-1.91-.61,2.36,2.36,0,0,1-.75-1.44l-.11-1.08a8.16,8.16,0,0,1-3.13,2.45,9.2,9.2,0,0,1-3.85.86,7.16,7.16,0,0,1-3.35-.76,5.85,5.85,0,0,1-2.31-2.09A5.47,5.47,0,0,1,499.19,348.71Zm12,1.13a4.9,4.9,0,0,0,.69-.92,1.73,1.73,0,0,0,.25-.82V346a11.23,11.23,0,0,0-2.12-.59,13.91,13.91,0,0,0-2.2-.19,6.47,6.47,0,0,0-3.51.85,2.64,2.64,0,0,0-1.35,2.34,2.93,2.93,0,0,0,.45,1.55,3.31,3.31,0,0,0,1.3,1.21,4.29,4.29,0,0,0,2.1.46,6.44,6.44,0,0,0,2.49-.5A5.32,5.32,0,0,0,511.17,349.84Z" fill="#302f77"/><path d="M520.89,327.88h4v20.91a2.6,2.6,0,0,0,.44,1.84,1.49,1.49,0,0,0,1.08.4,6.5,6.5,0,0,0,1.35-.14,6.33,6.33,0,0,0,1.09-.36l.58,3.13a12,12,0,0,1-2,.61,10.2,10.2,0,0,1-2.13.25,4,4,0,0,1-4.32-4.29Z" fill="#302f77"/><path d="M540.23,354.52a10,10,0,0,1-4-.76,9.54,9.54,0,0,1-3.08-2.11,9.62,9.62,0,0,1-2.7-6.77,9.79,9.79,0,0,1,1.22-4.83,9.54,9.54,0,0,1,3.42-3.52,9.73,9.73,0,0,1,5.15-1.34,9.23,9.23,0,0,1,8.43,4.85,9.61,9.61,0,0,1,1.18,4.67c0,.29,0,.55,0,.8s-.05.46-.07.63H534.68a5.77,5.77,0,0,0,.92,2.86,6,6,0,0,0,2.07,1.92,5.53,5.53,0,0,0,2.7.69,6.21,6.21,0,0,0,3-.79,4.15,4.15,0,0,0,1.92-2.09l3.39,1a7.36,7.36,0,0,1-1.86,2.47,9.25,9.25,0,0,1-2.93,1.72A10.48,10.48,0,0,1,540.23,354.52Zm-5.66-11H546a5.65,5.65,0,0,0-.92-2.81,5.82,5.82,0,0,0-2-1.9,5.59,5.59,0,0,0-2.75-.69,5.47,5.47,0,0,0-2.72.69,5.71,5.71,0,0,0-2,1.9A6,6,0,0,0,534.57,343.51Z" fill="#302f77"/><path d="M570.46,354.52a9.93,9.93,0,0,1-4-.76,9.1,9.1,0,0,1-3-2.12,9.86,9.86,0,0,1-2-3.09,10,10,0,0,1-.68-3.69,10.18,10.18,0,0,1,.68-3.71,9.53,9.53,0,0,1,2-3.09,9.17,9.17,0,0,1,3.06-2.1,10.65,10.65,0,0,1,8,0,9.17,9.17,0,0,1,3.06,2.1,9.34,9.34,0,0,1,2,3.09,10,10,0,0,1,.69,3.71,9.84,9.84,0,0,1-.69,3.69,9.66,9.66,0,0,1-2,3.09,9.08,9.08,0,0,1-3.06,2.12A10,10,0,0,1,570.46,354.52Zm-5.61-9.63a6.75,6.75,0,0,0,.75,3.2,6,6,0,0,0,2,2.23,5.28,5.28,0,0,0,5.67,0,6.09,6.09,0,0,0,2-2.28,7.14,7.14,0,0,0,0-6.37,6.16,6.16,0,0,0-2-2.25,5,5,0,0,0-2.83-.83,4.94,4.94,0,0,0-2.84.85,6.36,6.36,0,0,0-2,2.25A6.73,6.73,0,0,0,564.85,344.89Z" fill="#302f77"/><path d="M584.5,354.16v-15.3H582V335.8h2.52v-.75a10,10,0,0,1,.74-4,5.89,5.89,0,0,1,2.09-2.61,5.54,5.54,0,0,1,3.19-.92,8.81,8.81,0,0,1,2.27.31,10,10,0,0,1,2.12.85l-.87,2.95a4.22,4.22,0,0,0-1.27-.56,5.66,5.66,0,0,0-1.43-.2,2.46,2.46,0,0,0-2.12,1.05,5.11,5.11,0,0,0-.76,3v.86h4.83v3.06h-4.83v15.3Z" fill="#302f77"/><path d="M603,348.71a5,5,0,0,1,1-3.12,6.68,6.68,0,0,1,2.83-2.07,11,11,0,0,1,4.18-.73,18.94,18.94,0,0,1,2.57.18,10.23,10.23,0,0,1,2.32.57v-1.18a3.93,3.93,0,0,0-1.19-3.05,4.86,4.86,0,0,0-3.42-1.09,8,8,0,0,0-3,.55,18.48,18.48,0,0,0-3,1.57L604,337.68a15,15,0,0,1,3.76-1.88,13,13,0,0,1,4-.61,8.5,8.5,0,0,1,6,2,7.13,7.13,0,0,1,2.18,5.6v6.94a1.51,1.51,0,0,0,.24,1,1.09,1.09,0,0,0,.81.32v3.16a8.42,8.42,0,0,1-1,.15l-.72,0a2.65,2.65,0,0,1-1.9-.61,2.32,2.32,0,0,1-.76-1.44l-.11-1.08a8.08,8.08,0,0,1-3.13,2.45,9.2,9.2,0,0,1-3.85.86,7.16,7.16,0,0,1-3.35-.76,5.82,5.82,0,0,1-2.3-2.09A5.4,5.4,0,0,1,603,348.71Zm12,1.13a5.29,5.29,0,0,0,.68-.92,1.73,1.73,0,0,0,.25-.82V346a11.23,11.23,0,0,0-2.12-.59,13.91,13.91,0,0,0-2.2-.19,6.47,6.47,0,0,0-3.51.85,2.64,2.64,0,0,0-1.35,2.34,2.93,2.93,0,0,0,.45,1.55,3.31,3.31,0,0,0,1.3,1.21,4.29,4.29,0,0,0,2.1.46,6.4,6.4,0,0,0,2.49-.5A5.37,5.37,0,0,0,615,349.84Z" fill="#302f77"/><path d="M411,371.8l7.7,20.63,7.67-20.63h4.28l-10,25.56h-3.82L406.7,371.8Z" fill="#302f77"/><path d="M433.27,375.44v-4.36h4v4.36Zm0,21.92V378.54h4v18.82Z" fill="#302f77"/><path d="M442,371.08h4V392a2.66,2.66,0,0,0,.43,1.85,1.56,1.56,0,0,0,1.08.39,6.43,6.43,0,0,0,1.35-.14,6.17,6.17,0,0,0,1.1-.36l.58,3.13a11.84,11.84,0,0,1-2.06.61,10.18,10.18,0,0,1-2.12.25,4.32,4.32,0,0,1-3.17-1.13,4.23,4.23,0,0,1-1.15-3.16Z" fill="#302f77"/><path d="M452.86,371.08h4V392a2.66,2.66,0,0,0,.43,1.85,1.56,1.56,0,0,0,1.08.39,5.92,5.92,0,0,0,2.45-.5l.57,3.13a11.72,11.72,0,0,1-2.05.61,10.18,10.18,0,0,1-2.12.25,4.3,4.3,0,0,1-3.17-1.13,4.23,4.23,0,0,1-1.15-3.16Z" fill="#302f77"/><path d="M462.29,391.91a5,5,0,0,1,1-3.12,6.68,6.68,0,0,1,2.83-2.07,11,11,0,0,1,4.18-.73,18.94,18.94,0,0,1,2.57.18,10.37,10.37,0,0,1,2.32.57v-1.18a3.93,3.93,0,0,0-1.19-3.05,4.86,4.86,0,0,0-3.42-1.09,8,8,0,0,0-3,.55,18.48,18.48,0,0,0-3,1.57l-1.34-2.66a15.25,15.25,0,0,1,3.77-1.88,13,13,0,0,1,4-.61,8.5,8.5,0,0,1,5.95,2,7.15,7.15,0,0,1,2.18,5.6v6.95a1.5,1.5,0,0,0,.24,1,1.08,1.08,0,0,0,.8.32v3.16a8,8,0,0,1-1,.15l-.72,0a2.65,2.65,0,0,1-1.9-.61,2.32,2.32,0,0,1-.76-1.44l-.11-1.08a8.08,8.08,0,0,1-3.13,2.45,9.2,9.2,0,0,1-3.85.86,7.16,7.16,0,0,1-3.35-.76,5.76,5.76,0,0,1-2.3-2.09A5.4,5.4,0,0,1,462.29,391.91Zm12,1.13a5.29,5.29,0,0,0,.68-.92,1.73,1.73,0,0,0,.25-.82v-2.12a11.23,11.23,0,0,0-2.12-.59,13.91,13.91,0,0,0-2.2-.19,6.47,6.47,0,0,0-3.51.85,2.64,2.64,0,0,0-1.35,2.34,2.93,2.93,0,0,0,.45,1.55,3.31,3.31,0,0,0,1.3,1.21,4.29,4.29,0,0,0,2.1.46,6.4,6.4,0,0,0,2.49-.5A5.46,5.46,0,0,0,474.28,393Z" fill="#302f77"/><path d="M491.41,397.72a7.77,7.77,0,0,1-3.49-.77,8.38,8.38,0,0,1-2.72-2.11,9.84,9.84,0,0,1-1.76-3.06,10.5,10.5,0,0,1-.63-3.63,10.65,10.65,0,0,1,.65-3.78,9.87,9.87,0,0,1,1.81-3.12,8.31,8.31,0,0,1,2.76-2.1,8,8,0,0,1,3.52-.76,7.44,7.44,0,0,1,4,1.06,9,9,0,0,1,2.83,2.79v-3.56h3.49v18.19a8,8,0,0,1-1.31,4.62,8.43,8.43,0,0,1-3.58,2.9,12.54,12.54,0,0,1-5.12,1,11,11,0,0,1-5.18-1.08,10.52,10.52,0,0,1-3.49-2.95l2.23-2.09a7,7,0,0,0,2.79,2.31,8.71,8.71,0,0,0,3.65.79,7.87,7.87,0,0,0,3-.57,4.88,4.88,0,0,0,2.21-1.77,5.16,5.16,0,0,0,.83-3v-2.88a7.13,7.13,0,0,1-2.77,2.65A7.65,7.65,0,0,1,491.41,397.72Zm1.3-3.2a4.76,4.76,0,0,0,1.72-.31,5.92,5.92,0,0,0,1.53-.82,6.21,6.21,0,0,0,1.21-1.19,4.24,4.24,0,0,0,.72-1.42v-4.94a6.47,6.47,0,0,0-3.27-3.56,5.14,5.14,0,0,0-2.2-.5,4.76,4.76,0,0,0-2.32.55,5.68,5.68,0,0,0-1.75,1.48,6.87,6.87,0,0,0-1.11,2.07,7.12,7.12,0,0,0-.4,2.38,6.42,6.42,0,0,0,.45,2.41,6.78,6.78,0,0,0,1.24,2A5.59,5.59,0,0,0,490.4,394,5.47,5.47,0,0,0,492.71,394.52Z" fill="#302f77"/><path d="M515.13,397.72a9.93,9.93,0,0,1-4-.76,9.48,9.48,0,0,1-5.08-5.18,10.15,10.15,0,0,1,.52-8.53,9.54,9.54,0,0,1,3.42-3.52,9.73,9.73,0,0,1,5.15-1.34,9.23,9.23,0,0,1,8.42,4.85,9.52,9.52,0,0,1,1.19,4.67c0,.29,0,.55,0,.8s0,.46-.08.63H509.59a5.77,5.77,0,0,0,.92,2.86,6,6,0,0,0,2.07,1.92,5.53,5.53,0,0,0,2.7.69,6.14,6.14,0,0,0,3-.79,4.13,4.13,0,0,0,1.93-2.09l3.38,1a7.19,7.19,0,0,1-1.85,2.47,9.36,9.36,0,0,1-2.93,1.72A10.5,10.5,0,0,1,515.13,397.72Zm-5.65-11h11.38a5.65,5.65,0,0,0-.92-2.81,5.82,5.82,0,0,0-2.05-1.9,5.6,5.6,0,0,0-2.76-.69,5.46,5.46,0,0,0-2.71.69,5.68,5.68,0,0,0-2.94,4.71Z" fill="#302f77"/><path d="M538.61,382a8.42,8.42,0,0,0-4.09,1,5.7,5.7,0,0,0-2.54,2.84v11.52h-4V378.68h3.67v4.07a8.51,8.51,0,0,1,2.56-3.12,6.18,6.18,0,0,1,3.35-1.27h.59a2.58,2.58,0,0,1,.42,0Z" fill="#302f77"/></svg>