<svg xmlns="http://www.w3.org/2000/svg" viewBox="0 0 1538.29 567.66"><title>header</title><circle cx="674.23" cy="283.27" r="282.27" fill="none" stroke="#2e2d75" stroke-miterlimit="10" stroke-width="2"/><line y1="565.32" x2="934.44" y2="566.42" fill="none" stroke="#2e2d75" stroke-miterlimit="10" stroke-width="2"/><path d="M288.63,364.11c9.94,10.56,47.61,30.12,59.78,30.5s49.11-18.29,49.11-18.29l0-14.72c-8.31,6-49.11,9.58-49.11,9.58S317.3,337,302.14,323.35s-31.34,9-31.34,9-28.26,45.5-41.88,52.65-14.18,11.67-14.18,11.67,17.56,22,40.47,20.63,27.84,9.5,27.84,9.5l32.2-45.7" fill="none" stroke="#2e2d75" stroke-miterlimit="10" stroke-width="2"/><path d="M316.1,337.47l30,4.75,34.81-43L389,312.86s-27.89,49-31.69,51.33-12.05,3.92-12.05,3.92" fill="none" stroke="#2e2d75" stroke-miterlimit="10" stroke-width="2"/><path d="M217.55,398.81c-4.31,6.27-6.61,17.5-6.61,17.5-9.38,46.95,72.43,67.85,72.43,67.85l-18.12,57.38,27.36,7.73L317.77,479A15,15,0,0,0,315,464.15l-33.49-38.94" fill="none" stroke="#2e2d75" stroke-miterlimit="10" stroke-width="2"/><path d="M243.92,468l-25.66,38.7-57.44,42.41-18.7-15.74L193,486.19s12.37-75.45,24.09-86.18" fill="none" stroke="#2e2d75" stroke-miterlimit="10" stroke-width="2"/><path d="M266.9,546.77s8.07,5.3,16.4,4.2l14.61,9.24s8.37.11,7.53,3.81-15.68,1.2-15.68,1.2-22.95-2.94-24.32-2.94S259.88,555.41,266.9,546.77Z" fill="none" stroke="#2e2d75" stroke-miterlimit="10" stroke-width="2"/><path d="M269,542.6l-1.06,4.17s8.49,4.52,14.67,4.09l1.42-4Z" fill="#302d77" stroke="#2e2d75" stroke-miterlimit="10" stroke-width="2"/><path d="M139.07,543a14.92,14.92,0,0,0,11.09,9.63s5.15,6.16,6.74,7.25,6.84.11,6.64,4.17-21.46-.62-21.46-.62l-12.44-10.62S128.36,542.89,139.07,543Z" fill="none" stroke="#2e2d75" stroke-miterlimit="10" stroke-width="2"/><path d="M139.73,543.51l6.83-6.33,9.44,8.58L149.24,552S139.85,548.43,139.73,543.51Z" fill="#302d77" stroke="#2e2d75" stroke-miterlimit="10" stroke-width="2"/><path d="M311.29,331l7.07-8-5.19-4.1s9.88,11,14.9,4.39A81.86,81.86,0,0,0,336.75,308l-15.83-12.6s-14.46,13.17-13.24,17.81l-9.05,7.6Z" fill="#302d77" stroke="#2e2d75" stroke-miterlimit="10" stroke-width="2"/><path d="M344.49,301.11a10.72,10.72,0,0,1-1.47,2.42c-2.21,2.79-7.91,8-18,4.46-10.65-3.7-22.91,5.06-27.51,8.82a12.69,12.69,0,0,0-2.81,3.21c-4,6.51-20.3,30.54-40.41,25.1-23.2-6.28-5.29-38.25,13-49.78s49.66-24.22,63.24-15.93C343.55,287.34,347.17,294.7,344.49,301.11Z" fill="#fff" stroke="#2e2d75" stroke-miterlimit="10" stroke-width="2"/><polyline points="397.53 366.34 400.94 358.85 400.96 349.01" fill="none" stroke="#2e2d75" stroke-miterlimit="10" stroke-width="2"/><polyline points="398.14 372.21 404.72 367.46 405.71 360.77" fill="none" stroke="#2e2d75" stroke-miterlimit="10" stroke-width="2"/><polyline points="398.15 369.22 401.93 363.31 404.28 356.32" fill="none" stroke="#2e2d75" stroke-miterlimit="10" stroke-width="2"/><polyline points="397.52 374.27 403.11 372.21 405.7 369.23" fill="none" stroke="#2e2d75" stroke-miterlimit="10" stroke-width="2"/><polyline points="383.02 302.24 386.13 297.59 390.4 290.84 391.08 285.12" fill="none" stroke="#2e2d75" stroke-miterlimit="10" stroke-width="2"/><polyline points="385.37 304.94 389.88 298.98 392.94 287.98" fill="none" stroke="#2e2d75" stroke-miterlimit="10" stroke-width="2"/><polyline points="386.18 307.31 392.04 301.69 393.72 297.26" fill="none" stroke="#2e2d75" stroke-miterlimit="10" stroke-width="2"/><polyline points="386.4 309.38 392.95 303.62 394.91 299.85" fill="none" stroke="#2e2d75" stroke-miterlimit="10" stroke-width="2"/><polyline points="1022.8 566.06 1536.97 566.66 1537.29 297.8 1299.23 297.52 1299.14 373.75 1094.25 373.51 1094.18 438.38 934.59 438.19" fill="none" stroke="#2e2d75" stroke-miterlimit="10" stroke-width="2"/><path d="M1086.26,329.35a10.34,10.34,0,0,1,11.43,2.3c8.76,8.26,20.86,23.63,25.89,29.15s-2.25,10.36-8.42,11.54-20.91,1.17-20.91,1.17-16.87,20-34,16.1l0-21.14,41.66-9.13" fill="none" stroke="#2e2d75" stroke-miterlimit="10" stroke-width="2"/><path d="M1106.45,339.91s-2-14.73-17.63-14.74c-7.43,0-21.08,18.79-21.86,20.34s-7.22,8-5.68,13.78-3.39,27.46-15.26,37c-7.22,5.41-21.39-6.24-21.39-6.24s-6.2,8.79,5.12,32c6.69,13.72,22.3,15.6,34,14.84a29,29,0,0,0,25.71-19.6c2.69-8,4.8-19.58,4.82-36.16" fill="none" stroke="#2e2d75" stroke-miterlimit="10" stroke-width="2"/><polyline points="1060.32 370.79 1053.36 372.29 1047.82 380.19 1047.81 387.43" fill="none" stroke="#2e2d75" stroke-miterlimit="10" stroke-width="2"/><polyline points="1054.74 376.98 1051.73 382.26 1051.72 389.28" fill="none" stroke="#2e2d75" stroke-miterlimit="10" stroke-width="2"/><polyline points="1055.89 379.11 1054.73 385.38 1055.88 390.11" fill="none" stroke="#2e2d75" stroke-miterlimit="10" stroke-width="2"/><path d="M1022.94,392.38l-38.15-15.47a9.68,9.68,0,0,0-9.57,1.34L930,413.47l0,20.91,47.41-30.83a3.85,3.85,0,0,1,4-.09c9.13,5.32,46.49,26.79,59.78,29.91C1041.18,433.37,1024.86,427.82,1022.94,392.38Z" fill="#302d77" stroke="#2e2d75" stroke-miterlimit="10" stroke-width="2"/><path d="M922.48,419a10.12,10.12,0,0,0-.14,4.09,13.31,13.31,0,0,0,5.19,8.4s-.79,8-8.4,6.73l-4.4-8.12Z" fill="none" stroke="#2e2d75" stroke-miterlimit="10" stroke-width="2"/><path d="M929.06,417.73l-6.72,5.38s1.85,6.13,4.74,7.41,7.53-4.17,7.53-4.17Z" fill="none" stroke="#2e2d75" stroke-miterlimit="10" stroke-width="2"/><path d="M1086.65,315.48h-6.54a6.28,6.28,0,0,1-6.27-6.28l0-18.47" fill="none" stroke="#2e2d75" stroke-miterlimit="10" stroke-width="2"/><path d="M1081.4,316.23l2.93,10.54s6.68-3.73,10.11-1.6l1.32-10.61" fill="none" stroke="#2e2d75" stroke-miterlimit="10" stroke-width="2"/><path d="M1087.76,290.73l-18.77,0s-2-20.27,22.26-20.24,22.34,35.67,16.19,50.22C1107.44,320.69,1088.32,323.71,1087.76,290.73Z" fill="#302d77" stroke="#2e2d75" stroke-miterlimit="10" stroke-width="2"/><path d="M1086.61,350.83a12,12,0,0,0,9.89,9.71" fill="none" stroke="#2e2d75" stroke-miterlimit="10" stroke-width="2"/><path d="M1245.79,285.31S1278,297.49,1321,297.54c22.92,0,27.16-16.54,25-28.48s-101.66-15.79-111-3.69-24.94,62-25.4,85.16l17.21,4.13s24.55-52.38,31.29-65.55" fill="none" stroke="#2e2d75" stroke-miterlimit="10" stroke-width="2"/><path d="M1269.61,291.93l-15.71,5.54s25.13,49.58,25.69,50-17.44,9.1-17.44,9.1l-21.55-31.24" fill="none" stroke="#2e2d75" stroke-linejoin="bevel" stroke-width="2"/><path d="M1209.54,356.47s9,3.82,15.45,1.75c0,0,5.08,4.74,3.92,11.66-.47,2.55-1.16,2.55-1.16,2.55l-33.69,0s-11.53-1.81-6.91-5.24S1205.87,360.67,1209.54,356.47Z" fill="none" stroke="#2e2d75" stroke-linejoin="bevel" stroke-width="2"/><path d="M1267.46,357.69s8.61-1.33,12.14-6.13c0,0,7,1.35,7.65,7.83,0,1.57-1.35,3.47-2.69,4.59s-11.86,8.5-11.86,8.5-14.44.64-16.45-.6,2.35-3.8,4.59-5.14S1268.54,362.1,1267.46,357.69Z" fill="none" stroke="#2e2d75" stroke-linejoin="bevel" stroke-width="2"/><line x1="1213.51" y1="351.48" x2="1212.05" y2="356.47" fill="none" stroke="#2e2d75" stroke-linejoin="bevel" stroke-width="2"/><line x1="1223.84" y1="354.66" x2="1223.62" y2="357.46" fill="none" stroke="#2e2d75" stroke-linejoin="bevel" stroke-width="2"/><line x1="1267.69" y1="354.04" x2="1269.7" y2="356.54" fill="none" stroke="#2e2d75" stroke-linejoin="bevel" stroke-width="2"/><line x1="1276.49" y1="350.08" x2="1279.6" y2="352.02" fill="none" stroke="#2e2d75" stroke-linejoin="bevel" stroke-width="2"/><path d="M1290.33,230.91s4.22,15.51,3.4,27.08" fill="none" stroke="#2e2d75" stroke-linejoin="bevel" stroke-width="2"/><path d="M1300.88,177.36l5-6.73,25,0v6.74l-11.71,2.77a25.34,25.34,0,0,0-23,0c-12.1,6.25-29.81,47.79-29.81,47.79L1220.42,251l0,16.28,51.5-16.68a12,12,0,0,0,5.72-3.91l31.75-39.41" fill="none" stroke="#2e2d75" stroke-miterlimit="10" stroke-width="2"/><path d="M1344,266.55S1339.5,249,1339.52,236s3.76-39.49-8.71-58.57" fill="none" stroke="#2e2d75" stroke-linejoin="bevel" stroke-width="2"/><line x1="1311.43" y1="169.85" x2="1310.67" y2="163.32" fill="none" stroke="#2e2d75" stroke-linejoin="bevel" stroke-width="2"/><path d="M1299.56,140.39l3.34,20.27a3.85,3.85,0,0,0,4.29,3.19l10.65-1.4" fill="none" stroke="#2e2d75" stroke-linejoin="bevel" stroke-width="2"/><path d="M1307.05,137.71s-8.37,5.58-12.94.83,1.87-8.81,2.38-8.81-.27-7.76,3.94-7.69,9.47-6.32,15.48,0,14.08-4,14.95,7,4.41,12,3,18.65,2.1,9.83,0,12-5.33-.18-5.32-2.38.31-3.89-2.61-6.28.42-6.27-3.82-7.46-5.59-3.74-5.93.33,2,8.65-.69,5.08-1.18-3-2.87-5.93S1309.57,136.35,1307.05,137.71Z" fill="#302d77" stroke="#2e2d75" stroke-miterlimit="10" stroke-width="2"/><line x1="1328.99" y1="158.94" x2="1328.98" y2="169.87" fill="none" stroke="#2e2d75" stroke-linejoin="bevel" stroke-width="2"/><path d="M1214.05,261.3c-.07,1.83-2.35,7.6-2.35,7.6h4.39V266.4" fill="none" stroke="#2e2d75" stroke-miterlimit="10" stroke-width="2"/><polyline points="1220.4 265.11 1218.2 270.62 1214.04 272.44 1207.68 270.61 1212.17 257.9 1220.41 253.4" fill="none" stroke="#2e2d75" stroke-miterlimit="10" stroke-width="2"/></svg>