<svg xmlns="http://www.w3.org/2000/svg" xmlns:xlink="http://www.w3.org/1999/xlink" viewBox="0 0 1117.58 1100.68"><defs><clipPath id="a"><circle cx="367.88" cy="165.62" r="164.62" fill="none"/></clipPath></defs><title>metabaskets</title><circle cx="133.42" cy="713.23" r="131.11" fill="none" stroke="#2e2d75" stroke-miterlimit="10" stroke-width="2"/><g clip-path="url(#a)"><path d="M439.4,109.32a9.15,9.15,0,0,0-6.11,2.33,13,13,0,0,0-3.32-2.41,15.56,15.56,0,0,0,.2-2.48,14.88,14.88,0,0,0-29.73-1,11.84,11.84,0,1,0,11.75,20.11,13,13,0,0,0,23.37,1,9.22,9.22,0,1,0,3.84-17.61Z" fill="none" stroke="#2e2d75" stroke-miterlimit="10" stroke-width="2"/><rect x="194.89" y="329.72" width="157.73" height="149.19" fill="none" stroke="#2e2d75" stroke-miterlimit="10" stroke-width="2"/><rect x="220.04" y="180.54" width="46.08" height="149.19" fill="none" stroke="#2e2d75" stroke-miterlimit="10" stroke-width="2"/><polygon points="276.21 232.62 209.94 232.62 212.4 246.55 273.76 246.55 276.21 232.62" fill="#302d77" stroke="#2e2d75" stroke-miterlimit="10" stroke-width="2"/><path d="M273.76,385.5l-13.92,13.35a31.82,31.82,0,0,0-10.06,23V479h48V421.83a31.83,31.83,0,0,0-10.07-23Z" fill="none" stroke="#2e2d75" stroke-miterlimit="10" stroke-width="2"/><path d="M203.26,309.89l-4.86,2.83c-2.25,1.32-3.51,3.06-3.51,4.88v12.12h16.74V317.6c0-1.82-1.26-3.56-3.51-4.88Z" fill="#302d77" stroke="#2e2d75" stroke-miterlimit="10" stroke-width="2"/><path d="M226.76,309.89l-4.86,2.83c-2.25,1.32-3.51,3.06-3.51,4.88v12.12h16.74V317.6c0-1.82-1.26-3.56-3.51-4.88Z" fill="#fff" stroke="#2e2d75" stroke-miterlimit="10" stroke-width="2"/><path d="M250.26,309.89l-4.86,2.83c-2.26,1.32-3.51,3.06-3.51,4.88v12.12h16.74V317.6c0-1.82-1.26-3.56-3.51-4.88Z" fill="#302d77" stroke="#2e2d75" stroke-miterlimit="10" stroke-width="2"/><path d="M273.76,309.89l-4.86,2.83c-2.26,1.32-3.52,3.06-3.52,4.88v12.12h16.75V317.6c0-1.82-1.26-3.56-3.51-4.88Z" fill="#fff" stroke="#2e2d75" stroke-miterlimit="10" stroke-width="2"/><path d="M297.25,309.89l-4.85,2.83c-2.26,1.32-3.52,3.06-3.52,4.88v12.12h16.75V317.6c0-1.82-1.26-3.56-3.52-4.88Z" fill="#302d77" stroke="#2e2d75" stroke-miterlimit="10" stroke-width="2"/><path d="M320.75,309.89l-4.86,2.83c-2.25,1.32-3.51,3.06-3.51,4.88v12.12h16.74V317.6c0-1.82-1.25-3.56-3.51-4.88Z" fill="none" stroke="#2e2d75" stroke-miterlimit="10" stroke-width="2"/><path d="M344.25,309.89l-4.86,2.83c-2.25,1.32-3.51,3.06-3.51,4.88v12.12h16.74V317.6c0-1.82-1.25-3.56-3.51-4.88Z" fill="#302d77" stroke="#2e2d75" stroke-miterlimit="10" stroke-width="2"/><path d="M251.81,149.05c-7.27-2.88-8.73-12.28-8.73-12.28s-1.46,9.4-8.73,12.28-16.68,6.53-16.68,18.28,7,13.21,7,13.21h36.8s7-1.45,7-13.21S259.08,151.92,251.81,149.05Z" fill="#302d77" stroke="#2e2d75" stroke-miterlimit="10" stroke-width="2"/><line x1="235.79" y1="227.72" x2="235.79" y2="192.04" fill="#fff" stroke="#2e2d75" stroke-miterlimit="10" stroke-width="2"/><line x1="235.79" y1="280.8" x2="235.79" y2="255.13" fill="#fff" stroke="#2e2d75" stroke-miterlimit="10" stroke-width="2"/><polyline points="420.64 329.72 420.64 377.2 509.98 377.2 509.98 123.65 420.64 123.65 420.64 303.96" fill="#fff" stroke="#2e2d75" stroke-miterlimit="10" stroke-width="2"/><rect x="425.87" y="128.87" width="78.86" height="39.9" fill="#fff" stroke="#2e2d75" stroke-miterlimit="10" stroke-width="2"/><rect x="425.87" y="174.04" width="78.86" height="39.9" fill="#fff" stroke="#2e2d75" stroke-miterlimit="10" stroke-width="2"/><rect x="425.87" y="219.21" width="78.86" height="39.9" fill="#fff" stroke="#2e2d75" stroke-miterlimit="10" stroke-width="2"/><line x1="447.59" y1="128.87" x2="447.59" y2="168.76" fill="#fff" stroke="#2e2d75" stroke-miterlimit="10" stroke-width="2"/><line x1="483.26" y1="128.87" x2="483.26" y2="168.76" fill="#fff" stroke="#2e2d75" stroke-miterlimit="10" stroke-width="2"/><line x1="447.59" y1="174.04" x2="447.59" y2="213.94" fill="#fff" stroke="#2e2d75" stroke-miterlimit="10" stroke-width="2"/><line x1="483.26" y1="174.04" x2="483.26" y2="213.94" fill="#fff" stroke="#2e2d75" stroke-miterlimit="10" stroke-width="2"/><line x1="447.59" y1="219.21" x2="447.59" y2="259.11" fill="#fff" stroke="#2e2d75" stroke-miterlimit="10" stroke-width="2"/><line x1="483.26" y1="219.21" x2="483.26" y2="259.11" fill="#fff" stroke="#2e2d75" stroke-miterlimit="10" stroke-width="2"/><path d="M315.2,20.46a11.61,11.61,0,0,0-7.72,2.94,16.46,16.46,0,0,0-4.2-3A18.81,18.81,0,1,0,266,16a15,15,0,1,0,14.85,25.4,16.39,16.39,0,0,0,29.53,1.28,11.65,11.65,0,1,0,4.85-22.25Z" fill="#302d77" stroke="#2e2d75" stroke-miterlimit="10" stroke-width="2"/><path d="M492.43,47.83a9.25,9.25,0,0,0-6.17,2.35,13.05,13.05,0,0,0-3.36-2.43,14.8,14.8,0,0,0,.21-2.5,15,15,0,0,0-30-1A12,12,0,1,0,465,64.59a13.1,13.1,0,0,0,23.6,1,9.31,9.31,0,1,0,3.88-17.78Z" fill="#302d77" stroke="#2e2d75" stroke-miterlimit="10" stroke-width="2"/><polyline points="294.96 299.33 314.43 148.81 347.81 148.81 358 246.55 314.9 246.55 312.38 261.78 383.96 261.78 378.4 246.55 361.25 246.55" fill="none" stroke="#2e2d75" stroke-miterlimit="10" stroke-width="2"/><polyline points="371.39 239.16 371.39 207.67 417.19 207.67" fill="none" stroke="#2e2d75" stroke-miterlimit="10" stroke-width="2"/><line x1="405.53" y1="315.07" x2="405.53" y2="224.07" fill="none" stroke="#2e2d75" stroke-miterlimit="10" stroke-width="2"/><line x1="339.46" y1="148.81" x2="339.46" y2="91.49" fill="none" stroke="#2e2d75" stroke-miterlimit="10" stroke-width="2"/><polyline points="386.82 189.09 394.29 133.43 402.07 133.43 410.96 202.47" fill="none" stroke="#2e2d75" stroke-miterlimit="10" stroke-width="2"/><line x1="386.82" y1="159.65" x2="409.69" y2="159.65" fill="none" stroke="#2e2d75" stroke-miterlimit="10" stroke-width="2"/></g><circle cx="367.88" cy="165.62" r="164.62" fill="none" stroke="#2e2d75" stroke-miterlimit="10" stroke-width="2"/><circle cx="951.96" cy="413.84" r="164.62" fill="none" stroke="#2e2d75" stroke-miterlimit="10" stroke-width="2"/><polyline points="825.27 324.78 988.31 324.78 988.31 336 841.2 336" fill="none" stroke="#2e2d75" stroke-miterlimit="10" stroke-width="2"/><line x1="1106.15" y1="425.04" x2="1044.45" y2="425.04" fill="none" stroke="#2e2d75" stroke-miterlimit="10" stroke-width="2"/><path d="M177.54,910.32s5.18,3,5.85,21.86-.22,56.32,0,62.48S196,1075.47,196,1075.47l-27.67,8.63S143.77,1004.89,142,970.51v5.8s-8.58,81.39-12.49,94.18-3.45,11.15-3.45,11.15l-26.88-4.81v-68.67s-7-53-2.23-90.81S177.54,910.32,177.54,910.32Z" fill="none" stroke="#2e2d75" stroke-miterlimit="10" stroke-width="2"/><path d="M158.52,786s51.25-10.24,56.18-18.55,4.46-4.92,9-4.06,26-32.78,27.11-45.23c0,0,9.63,2.88,14.76,3.43a8.06,8.06,0,0,0,2.44,0c3.29-.74-18.3,52.84-28.27,63.23s-5.74,9-14.16,16-34.7,19.54-41.12,27.66-6.87,12.1-5.4,31.5,11,30.26,3.11,36.18-59.53,36.17-78.27,25.32S75.44,904.68,80,886.91s6.13-48.75,0-57.72-41.64-29.41-44.36-30.62-9-8.59-13-15.26S6.35,748.43,4.82,738.85l13.59-7.67s23.3,35.25,27.24,39.24S51.57,772,53.22,776s42.82,13.4,54.14,14S158.52,786,158.52,786Z" fill="#fff" stroke="#2e2d75" stroke-miterlimit="10" stroke-width="2"/><path d="M106.7,784.78s-1.6-15.33,23-10.68,30.05,2,28.94,7.38,2.44,13,.14,19.29-10.58,24.34-22.93,23.08S107.9,821,109,809.28,106.33,788.13,106.7,784.78Z" fill="#fff" stroke="#2e2d75" stroke-miterlimit="10" stroke-width="2"/><path d="M174.91,900.79l2.63,9.53L126,922.23S169.72,904,174.91,900.79Z" fill="#302d77" stroke="#2e2d75" stroke-miterlimit="10" stroke-width="2"/><path d="M174.91,1085.9s.5-10.91,6.56-11.26,9,4.44,10.54,10.54,5.4,6.44,5.4,11.63v2.83l-26.29,0v-3.61A26,26,0,0,1,174.91,1085.9Z" fill="#302d77" stroke="#2e2d75" stroke-miterlimit="10" stroke-width="2"/><path d="M105.29,1085.9s.5-10.91,6.56-11.26,9,4.44,10.54,10.54,5.4,6.44,5.4,11.63v2.83l-26.29,0v-3.61A26,26,0,0,1,105.29,1085.9Z" fill="#302d77" stroke="#2e2d75" stroke-miterlimit="10" stroke-width="2"/><path d="M136.57,730.47s-29.94-4.27-25.28,25c2.72,14.18-.49,17.7-.49,17.7s41.28,12.13,43.8-2.11S162.48,733.17,136.57,730.47Z" fill="#302d77" stroke="#2e2d75" stroke-miterlimit="10" stroke-width="2"/><polyline points="6.25 738.04 1.03 731.5 1.16 726.7" fill="none" stroke="#2e2d75" stroke-miterlimit="10" stroke-width="2"/><polyline points="6.93 736.32 1.03 727.87 2.31 715.89" fill="none" stroke="#2e2d75" stroke-miterlimit="10" stroke-width="2"/><line x1="10.16" y1="735.83" x2="3.21" y2="726.1" fill="none" stroke="#2e2d75" stroke-miterlimit="10" stroke-width="2"/><polyline points="13.63 733.88 12.35 725.27 9.44 720.54" fill="none" stroke="#2e2d75" stroke-miterlimit="10" stroke-width="2"/><polyline points="12.35 733.88 4.82 723.89 3.33 717.36" fill="none" stroke="#2e2d75" stroke-miterlimit="10" stroke-width="2"/><polyline points="262.68 721.4 267.6 712.34 264.99 700.58" fill="none" stroke="#2e2d75" stroke-miterlimit="10" stroke-width="2"/><line x1="259.42" y1="721.28" x2="265.24" y2="710.83" fill="none" stroke="#2e2d75" stroke-miterlimit="10" stroke-width="2"/><polyline points="255.76 719.72 256.07 711.03 258.43 706" fill="none" stroke="#2e2d75" stroke-miterlimit="10" stroke-width="2"/><polyline points="257.03 719.58 263.39 708.82 264.15 702.15" fill="none" stroke="#2e2d75" stroke-miterlimit="10" stroke-width="2"/><path d="M952.5,708.79s-.78-18.19,11.66-18.19,11.1,18.19,11.1,18.19Z" fill="#302d77" stroke="#2e2d75" stroke-miterlimit="10" stroke-width="2"/><path d="M998.17,708.79s-.78-18.19,11.65-18.19,11.11,18.19,11.11,18.19Z" fill="#302d77" stroke="#2e2d75" stroke-miterlimit="10" stroke-width="2"/><polyline points="1116.94 708.79 803.47 708.79 803.47 808.32 477.23 808.32" fill="none" stroke="#2e2d75" stroke-miterlimit="10" stroke-width="2"/><polyline points="805.1 488.26 284.24 488.26 284.24 451.15 242.54 451.15 242.54 414.31 203.26 414.31 203.26 374.79 156.01 374.79 156.01 213.98" fill="none" stroke="#2e2d75" stroke-miterlimit="10" stroke-width="2"/><path d="M352.9,247c3.4,3.19,11.68,8.71,22-.13a4.38,4.38,0,0,1,4.2-.89l15.86,5.1a6.48,6.48,0,0,1,3,2c6.41,7.41,36.88,43.33,53,43.07v30s-21.37,2.28-51.25-44.82c-1.32-2.07-2.65-4.23-4-6.5,0,0-1.25,90.2,14.92,138.15,0,0-48.53,20.12-74.41,9.87,0,0,9.26-111.73,4.46-148,0,0-26.15,51.29-48.22,50.09V300.78s31.59-27.71,41.05-47.54a6.64,6.64,0,0,1,3.88-3.47l11.22-3.69A4.29,4.29,0,0,1,352.9,247Z" fill="#fff" stroke="#2e2d75" stroke-miterlimit="10" stroke-width="2"/><path d="M351,425.77l4.59,52.07h9.11s3.92-38.58,5-53.37" fill="none" stroke="#2e2d75" stroke-miterlimit="10" stroke-width="2"/><path d="M380,422.51l5,56.07h9.24s1.24-49.77,1.44-60.29" fill="none" stroke="#2e2d75" stroke-miterlimit="10" stroke-width="2"/><path d="M367.42,488.11s2.12-10.16-7.1-10.16h-.5c-9.23,0-7.11,10.16-7.11,10.16" fill="#302d77" stroke="#2e2d75" stroke-miterlimit="10" stroke-width="2"/><path d="M396.88,488.11S399,478,389.78,478h-.51c-9.22,0-7.1,10.16-7.1,10.16" fill="#302d77" stroke="#2e2d75" stroke-miterlimit="10" stroke-width="2"/><polyline points="450.94 300.88 458.54 299.79 465.53 296.52 467.53 294.89" fill="none" stroke="#2e2d75" stroke-miterlimit="10" stroke-width="2"/><polyline points="456.99 301.79 462.25 300.88 467.53 299.25" fill="none" stroke="#2e2d75" stroke-miterlimit="10" stroke-width="2"/><polyline points="455.81 303.7 460.99 303.34 463.35 302.79" fill="none" stroke="#2e2d75" stroke-miterlimit="10" stroke-width="2"/><line x1="452.09" y1="306.42" x2="459.24" y2="305.24" fill="none" stroke="#2e2d75" stroke-miterlimit="10" stroke-width="2"/><polyline points="452.57 307.33 454.63 309.42 454.63 310.51" fill="none" stroke="#2e2d75" stroke-miterlimit="10" stroke-width="2"/><polyline points="293.38 305.8 285.79 304.71 278.79 301.44 276.8 299.8" fill="none" stroke="#2e2d75" stroke-miterlimit="10" stroke-width="2"/><polyline points="287.33 306.71 282.08 305.8 276.8 304.16" fill="none" stroke="#2e2d75" stroke-miterlimit="10" stroke-width="2"/><polyline points="288.51 308.61 283.33 308.25 280.97 307.7" fill="none" stroke="#2e2d75" stroke-miterlimit="10" stroke-width="2"/><line x1="292.24" y1="311.34" x2="285.09" y2="310.16" fill="none" stroke="#2e2d75" stroke-miterlimit="10" stroke-width="2"/><polyline points="291.76 312.25 289.69 314.34 289.69 315.43" fill="none" stroke="#2e2d75" stroke-miterlimit="10" stroke-width="2"/><path d="M353.77,243.58a34.2,34.2,0,0,0-.43-9.74c-1.39-6.79-2.3-19,8.81-19.82,15.46-1.16,18.72,23.66,15.46,49.35,0,0-1.53,8.5-8.71,7.84C362.31,270.61,352.21,262,353.77,243.58Z" fill="#302d77" stroke="#2e2d75" stroke-miterlimit="10" stroke-width="2"/><polyline points="899.61 459.6 902.15 454.63 902.15 453.95" fill="none" stroke="#2e2d75" stroke-miterlimit="10" stroke-width="2"/><polyline points="897.61 459.6 898.21 453.05 900.44 444.88" fill="none" stroke="#2e2d75" stroke-miterlimit="10" stroke-width="2"/><polyline points="896.04 460.89 894.94 453.67 896.25 444.29" fill="none" stroke="#2e2d75" stroke-miterlimit="10" stroke-width="2"/><polyline points="895.12 462.17 891.68 454.23 891.37 447.24" fill="none" stroke="#2e2d75" stroke-miterlimit="10" stroke-width="2"/><polyline points="893.87 464.72 889.83 458.34 889.96 453.67" fill="none" stroke="#2e2d75" stroke-miterlimit="10" stroke-width="2"/><path d="M901.79,487.54,899.3,460.3c-7.29-4.45-9.88,8.7-9.88,8.7s-7.48,36.26-5.26,41.88,8.76,4.39,8.76,4.39l16.24-9.52-.34-12.53-2.05,59.34c37.22,24.29,77.15,1.28,77.22-6.3s4.9-34.7,6.24-58.2-4.83-35.43-4.83-35.43c-33.32-25.05-66-2.42-66-2.42s-11.42,9.06-18.59,27" fill="#fff" stroke="#2e2d75" stroke-miterlimit="10" stroke-width="2"/><path d="M921.47,473l-10.34-19.41c-7.29-4.45-9.88,8.7-9.88,8.7s7.5,46.6,9.71,52.22,8.76,4.4,8.76,4.4l25.69-24.33-11.62,11,1.26,47c37.23,24.29,77.16,1.28,77.23-6.3s4.89-34.7,6.24-58.2-10.79-35.34-10.79-35.34c-33.32-25.05-75,.89-75,.89a151,151,0,0,0-16.07,30.13" fill="#fff" stroke="#2e2d75" stroke-miterlimit="10" stroke-width="2"/><path d="M958.84,414.85s-3.49,16.75,3.46,20.28l4.59,2.33-.18,3.91s14.39-.77,17.88.87c1.62.76.3-6.16.3-6.16S967.36,403,963.13,408.36,958.84,414.85,958.84,414.85Z" fill="#fff" stroke="#2e2d75" stroke-miterlimit="10" stroke-width="2"/><path d="M956.51,392.93s1.77,3.24,14.06,2.71,26.44,1.17,24.66,19.89-13.66,24.37-22.54,21.2-9.35-19.35-9.35-19.35-2.89-8.17-4.45-3.68S950.69,401.53,956.51,392.93Z" fill="#302d77" stroke="#2e2d75" stroke-miterlimit="10" stroke-width="2"/><path d="M1009.67,551.59s11.3-.27,5.54,44.63c-2.79,17.53-.66,28.11-.66,28.11s-16.7,12.64-34.45,6.08l2.48-33.86-2.69,38.1s-25.72,10.27-38.78-8.25c0,0-7.39-51.49-4-70.85C937.1,555.55,977.85,576.75,1009.67,551.59Z" fill="#302d77" stroke="#2e2d75" stroke-miterlimit="10" stroke-width="2"/><path d="M947.37,629.27a20.72,20.72,0,0,0-1.74,8.22c.19,4,9.36,60.5,9.36,60.5h16.88s7.4-42.94,4.66-64.48S947.37,629.27,947.37,629.27Z" fill="none" stroke="#2e2d75" stroke-miterlimit="10" stroke-width="2"/><path d="M984,625.55a20.67,20.67,0,0,0-.59,8.38c.74,3.93,17.51,63.07,17.51,63.07l16.72-2.32s2.46-49.54-6.28-68.32C1002.21,606.69,984,625.55,984,625.55Z" fill="none" stroke="#2e2d75" stroke-miterlimit="10" stroke-width="2"/><path d="M1014,476.23s-33.71-5.9-70.93,3.73" fill="none" stroke="#2e2d75" stroke-miterlimit="10" stroke-width="2"/><polyline points="908.83 453.03 911.38 448.06 911.38 447.38" fill="none" stroke="#2e2d75" stroke-miterlimit="10" stroke-width="2"/><polyline points="906.84 453.03 907.44 446.48 905.98 438.31" fill="none" stroke="#2e2d75" stroke-miterlimit="10" stroke-width="2"/><polyline points="905.27 454.32 904.17 447.1 901.79 437.72" fill="none" stroke="#2e2d75" stroke-miterlimit="10" stroke-width="2"/><polyline points="904.35 455.6 900.9 447.66 896.91 440.67" fill="none" stroke="#2e2d75" stroke-miterlimit="10" stroke-width="2"/><polyline points="903.1 458.15 899.06 451.77 895.5 447.1" fill="none" stroke="#2e2d75" stroke-miterlimit="10" stroke-width="2"/><path d="M923.36,393.56s.36,19.27,16,17.3S958,417.7,958,417.7s5.89-18.29-2.91-21.77S930.94,398.8,923.36,393.56Z" fill="#302d77" stroke="#2e2d75" stroke-miterlimit="10" stroke-width="2"/><path d="M936.07,411.84s-3.67,20.81,8.84,21.36c0,0,6.12.68,9.25-1.09" fill="none" stroke="#2e2d75" stroke-miterlimit="10" stroke-width="2"/><polyline points="944.86 433.88 944.91 433.2 945.73 440.67 957.96 441.22" fill="none" stroke="#2e2d75" stroke-miterlimit="10" stroke-width="2"/><line x1="960.85" y1="434.07" x2="958.71" y2="441.22" fill="none" stroke="#2e2d75" stroke-miterlimit="10" stroke-width="2"/><path d="M954.16,392.93s-3.16,7.22-2.2,13.41" fill="none" stroke="#fff" stroke-miterlimit="10"/><path d="M907.91,553.29s-2.51,15.59,0,19.2,29.17,5.3,29.17,5.3l-.73-14.7S916,559.52,907.91,553.29Z" fill="#302d77" stroke="#2e2d75" stroke-miterlimit="10" stroke-width="0.75"/><rect x="600.67" y="784.55" width="171.6" height="23.77" rx="7.97" fill="none" stroke="#2e2d75" stroke-miterlimit="10" stroke-width="2"/><rect x="600.67" y="631.94" width="171.6" height="23.77" rx="7.97" fill="none" stroke="#2e2d75" stroke-miterlimit="10" stroke-width="2"/><path d="M760.38,655.71s-28,44.56,0,128.84" fill="none" stroke="#2e2d75" stroke-miterlimit="10" stroke-width="2"/><path d="M613.1,655.71s27.95,44.56,0,128.84" fill="none" stroke="#2e2d75" stroke-miterlimit="10" stroke-width="2"/><line x1="743.27" y1="662.86" x2="676.06" y2="777.92" fill="none" stroke="#2e2d75" stroke-miterlimit="10" stroke-width="2"/><line x1="721.88" y1="662.86" x2="676.06" y2="740.76" fill="none" stroke="#2e2d75" stroke-miterlimit="10" stroke-width="2"/><path d="M612.56,631.94s73.94-32.71,147.82,0" fill="none" stroke="#2e2d75" stroke-miterlimit="10" stroke-width="2"/><path d="M646.94,1V346.41a4.71,4.71,0,0,1-4.71,4.71h0a4.71,4.71,0,0,1-4.71-4.71V47.19" fill="none" stroke="#2e2d75" stroke-miterlimit="10" stroke-width="2"/><path d="M646.94,299.58h52.38a4.28,4.28,0,0,1,4.28,4.28h0a4.28,4.28,0,0,1-4.28,4.28H646.94" fill="none" stroke="#2e2d75" stroke-miterlimit="10" stroke-width="2"/><polyline points="902.95 1099.68 1012.21 1099.68 1012.21 1055.1 1064.75 1055.1 1064.75 1011.48 1116.17 1011.48 1116.17 969.89" fill="none" stroke="#2e2d75" stroke-miterlimit="10" stroke-width="2"/><polyline points="976.53 1099.68 976.53 874.57 853.63 874.57 853.63 1064.62" fill="none" stroke="#2e2d75" stroke-miterlimit="10" stroke-width="2"/><circle cx="963.88" cy="987.12" r="4.79" fill="#302d77"/><polyline points="29.73 1099.68 264.53 1099.68 463.1 1099.68 679.4 1099.68 679.4 808.32" fill="none" stroke="#2e2d75" stroke-miterlimit="10" stroke-width="2"/><polygon points="426.45 1099.68 330 1099.68 314.25 959.01 442.2 959.01 426.45 1099.68" fill="none" stroke="#2e2d75" stroke-miterlimit="10" stroke-width="2"/><rect x="306.7" y="943.12" width="143.05" height="15.89" fill="#302d77" stroke="#2e2d75" stroke-miterlimit="10" stroke-width="2"/><line x1="423" y1="988.41" x2="414.25" y2="1077.42" fill="#302d77" stroke="#2e2d75" stroke-miterlimit="10" stroke-width="2"/><path d="M303.11,694.51s68,136.4,68,253.24" fill="none" stroke="#2e2d75" stroke-miterlimit="10" stroke-width="2"/><path d="M387.41,951.06s-2.14-108,62.34-172.53" fill="none" stroke="#2e2d75" stroke-miterlimit="10" stroke-width="2"/><path d="M395.89,882.4S335.71,761.51,502.57,734.23C502.57,734.23,486.06,851.36,395.89,882.4Z" fill="none" stroke="#2e2d75" stroke-miterlimit="10" stroke-width="2"/><path d="M289.84,671.69s-15.77,148.15,68,175.48C357.79,847.17,429.75,748.7,289.84,671.69Z" fill="none" stroke="#2e2d75" stroke-miterlimit="10" stroke-width="2"/></svg>