<svg xmlns="http://www.w3.org/2000/svg" viewBox="0 0 595.28 454.62"><title>portals</title><circle cx="116.81" cy="115.66" r="114.66" fill="none" stroke="#2d2f75" stroke-miterlimit="10" stroke-width="2"/><path d="M155.39,288s4.53,2.61,5.12,19.12-.2,49.26,0,54.64,11,70.67,11,70.67L147.34,440s-21.48-69.26-23-99.33v5.07s-7.51,71.18-10.93,82.37-3,9.75-3,9.75l-23.5-4.22V373.58s-6.15-46.38-2-79.41S155.39,288,155.39,288Z" fill="none" stroke="#2d2f75" stroke-miterlimit="10" stroke-width="2"/><path d="M138.76,179.27s44.82-9,49.13-16.22,3.9-4.3,7.85-3.55,22.75-28.67,23.7-39.55c0,0,8.42,2.52,12.91,3a7.15,7.15,0,0,0,2.14,0c2.87-.65-16,46.2-24.73,55.3s-5,7.88-12.38,14-30.35,17.08-36,24.19-6,10.57-4.72,27.54,9.62,26.46,2.72,31.64S107.36,307.23,91,297.74,66.1,283.09,70.05,267.55s5.35-42.64,0-50.48-36.42-25.72-38.8-26.78S23.36,182.78,19.89,177,5.68,146.45,4.34,138.06l11.89-6.7s20.37,30.83,23.83,34.32,5.17,1.35,6.61,4.87S84.12,182.26,94,182.76,138.76,179.27,138.76,179.27Z" fill="#fff" stroke="#2d2f75" stroke-miterlimit="10" stroke-width="2"/><path d="M93.44,178.24s-1.4-13.41,20.11-9.35,26.27,1.8,25.31,6.46,2.13,11.41.11,16.87-9.24,21.29-20,20.18-24.43-2.52-23.48-12.74S93.12,181.17,93.44,178.24Z" fill="#fff" stroke="#2d2f75" stroke-miterlimit="10" stroke-width="2"/><path d="M153.1,279.68l2.29,8.34-45,10.42S148.56,282.53,153.1,279.68Z" fill="#303078" stroke="#2d2f75" stroke-miterlimit="10" stroke-width="2"/><path d="M153.1,441.57s.43-9.54,5.73-9.85,7.83,3.89,9.22,9.22,4.72,5.63,4.72,10.17v2.48l-23,0v-3.15A22.8,22.8,0,0,1,153.1,441.57Z" fill="#303078" stroke="#2d2f75" stroke-miterlimit="10" stroke-width="2"/><path d="M92.21,441.57s.43-9.54,5.73-9.85,7.84,3.89,9.22,9.22,4.72,5.63,4.72,10.17v2.48l-23,0v-3.15A22.8,22.8,0,0,1,92.21,441.57Z" fill="#303078" stroke="#2d2f75" stroke-miterlimit="10" stroke-width="2"/><path d="M119.56,130.74S93.38,127,97.46,152.65c2.38,12.4-.43,15.48-.43,15.48s36.09,10.6,38.3-1.85S142.23,133.1,119.56,130.74Z" fill="#303078" stroke="#2d2f75" stroke-miterlimit="10" stroke-width="2"/><polyline points="5.59 137.36 1.03 131.64 1.14 127.44" fill="none" stroke="#2d2f75" stroke-miterlimit="10" stroke-width="2"/><polyline points="6.2 135.85 1.03 128.46 2.15 117.99" fill="none" stroke="#2d2f75" stroke-miterlimit="10" stroke-width="2"/><line x1="9.02" y1="135.43" x2="2.94" y2="126.92" fill="none" stroke="#2d2f75" stroke-miterlimit="10" stroke-width="2"/><polyline points="12.05 133.72 10.93 126.19 8.39 122.05" fill="none" stroke="#2d2f75" stroke-miterlimit="10" stroke-width="2"/><polyline points="10.93 133.72 4.34 124.99 3.04 119.27" fill="none" stroke="#2d2f75" stroke-miterlimit="10" stroke-width="2"/><polyline points="229.85 122.81 234.15 114.89 231.87 104.6" fill="none" stroke="#2d2f75" stroke-miterlimit="10" stroke-width="2"/><line x1="227" y1="122.7" x2="232.09" y2="113.56" fill="none" stroke="#2d2f75" stroke-miterlimit="10" stroke-width="2"/><polyline points="223.8 121.34 224.07 113.74 226.13 109.34" fill="none" stroke="#2d2f75" stroke-miterlimit="10" stroke-width="2"/><polyline points="224.91 121.22 230.47 111.8 231.13 105.98" fill="none" stroke="#2d2f75" stroke-miterlimit="10" stroke-width="2"/><polyline points="26.13 453.62 231.47 453.62 405.13 453.62 594.28 453.62 594.28 198.82" fill="none" stroke="#2d2f75" stroke-miterlimit="10" stroke-width="2"/><polygon points="373.07 453.62 288.72 453.62 274.95 330.6 386.84 330.6 373.07 453.62" fill="none" stroke="#2d2f75" stroke-miterlimit="10" stroke-width="2"/><rect x="268.34" y="316.7" width="125.1" height="13.9" fill="#303078" stroke="#2d2f75" stroke-miterlimit="10" stroke-width="2"/><line x1="370.05" y1="356.32" x2="362.41" y2="434.16" fill="#303078" stroke="#2d2f75" stroke-miterlimit="10" stroke-width="2"/><path d="M265.21,99.29s59.45,119.28,59.45,221.47" fill="none" stroke="#2d2f75" stroke-miterlimit="10" stroke-width="2"/><path d="M338.93,323.65s-1.87-94.5,54.51-150.88" fill="none" stroke="#2d2f75" stroke-miterlimit="10" stroke-width="2"/><path d="M346.34,263.6S293.72,157.88,439.64,134C439.64,134,425.2,236.46,346.34,263.6Z" fill="none" stroke="#2d2f75" stroke-miterlimit="10" stroke-width="2"/><path d="M253.6,79.33S239.81,208.89,313,232.79C313,232.79,376,146.68,253.6,79.33Z" fill="none" stroke="#2d2f75" stroke-miterlimit="10" stroke-width="2"/></svg>