<svg xmlns="http://www.w3.org/2000/svg" xmlns:xlink="http://www.w3.org/1999/xlink" viewBox="0 0 436.44 328.88"><defs><clipPath id="a"><circle cx="143.13" cy="111.43" r="110.43" fill="none"/></clipPath></defs><title>portals</title><path d="M131.79,286l3.07,34.92H141s2.64-25.88,3.38-35.8" fill="none" stroke="#2d2f75" stroke-miterlimit="10" stroke-width="2"/><path d="M151.25,283.77l3.33,37.61h6.2s.83-33.39,1-40.44" fill="none" stroke="#2d2f75" stroke-miterlimit="10" stroke-width="2"/><path d="M142.83,327.77s1.42-6.81-4.77-6.81h-.34c-6.18,0-4.76,6.81-4.76,6.81" fill="#303078" stroke="#2d2f75" stroke-miterlimit="10" stroke-width="2"/><path d="M162.59,327.77S164,321,157.82,321h-.33c-6.19,0-4.77,6.81-4.77,6.81" fill="#303078" stroke="#2d2f75" stroke-miterlimit="10" stroke-width="2"/><g clip-path="url(#a)"><path d="M191.11,73.67A6.13,6.13,0,0,0,187,75.23a8.78,8.78,0,0,0-2.24-1.62,10,10,0,1,0-19.8-2.3,7.94,7.94,0,1,0,7.88,13.49,8.71,8.71,0,0,0,15.68.68,6.11,6.11,0,0,0,2.57.56,6.19,6.19,0,1,0,0-12.37Z" fill="none" stroke="#2d2f75" stroke-miterlimit="10" stroke-width="2"/><rect x="27.08" y="221.52" width="105.82" height="100.08" fill="none" stroke="#2d2f75" stroke-miterlimit="10" stroke-width="2"/><rect x="43.95" y="121.44" width="30.92" height="100.08" fill="none" stroke="#2d2f75" stroke-miterlimit="10" stroke-width="2"/><polygon points="81.64 156.38 37.18 156.38 38.83 165.73 79.99 165.73 81.64 156.38" fill="#303078" stroke="#2d2f75" stroke-miterlimit="10" stroke-width="2"/><path d="M80,258.94l-9.34,8.95a21.39,21.39,0,0,0-6.75,15.42v38.33H96.08V283.31a21.39,21.39,0,0,0-6.75-15.42Z" fill="none" stroke="#2d2f75" stroke-miterlimit="10" stroke-width="2"/><path d="M32.7,208.22l-3.26,1.9c-1.51.88-2.36,2-2.36,3.27v8.13H38.32v-8.13c0-1.22-.85-2.39-2.36-3.27Z" fill="#303078" stroke="#2d2f75" stroke-miterlimit="10" stroke-width="2"/><path d="M48.46,208.22l-3.26,1.9a4,4,0,0,0-2.35,3.27v8.13H54.08v-8.13c0-1.22-.84-2.39-2.36-3.27Z" fill="#fff" stroke="#2d2f75" stroke-miterlimit="10" stroke-width="2"/><path d="M64.23,208.22,61,210.12c-1.52.88-2.36,2-2.36,3.27v8.13H69.84v-8.13a4,4,0,0,0-2.35-3.27Z" fill="#303078" stroke="#2d2f75" stroke-miterlimit="10" stroke-width="2"/><path d="M80,208.22l-3.26,1.9c-1.51.88-2.36,2-2.36,3.27v8.13H85.61v-8.13c0-1.22-.85-2.39-2.36-3.27Z" fill="#fff" stroke="#2d2f75" stroke-miterlimit="10" stroke-width="2"/><path d="M95.75,208.22l-3.25,1.9c-1.52.88-2.36,2-2.36,3.27v8.13h11.23v-8.13c0-1.22-.84-2.39-2.36-3.27Z" fill="#303078" stroke="#2d2f75" stroke-miterlimit="10" stroke-width="2"/><path d="M111.52,208.22l-3.26,1.9c-1.51.88-2.36,2-2.36,3.27v8.13h11.23v-8.13a4,4,0,0,0-2.35-3.27Z" fill="none" stroke="#2d2f75" stroke-miterlimit="10" stroke-width="2"/><path d="M127.28,208.22l-3.26,1.9a4,4,0,0,0-2.35,3.27v8.13H132.9v-8.13c0-1.22-.85-2.39-2.36-3.27Z" fill="#303078" stroke="#2d2f75" stroke-miterlimit="10" stroke-width="2"/><path d="M65.27,100.32c-4.88-1.93-5.86-8.24-5.86-8.24s-1,6.31-5.86,8.24-11.18,4.38-11.18,12.26,4.7,8.86,4.7,8.86H71.75s4.7-1,4.7-8.86S70.15,102.25,65.27,100.32Z" fill="#303078" stroke="#2d2f75" stroke-miterlimit="10" stroke-width="2"/><line x1="54.52" y1="153.09" x2="54.52" y2="129.16" fill="#fff" stroke="#2d2f75" stroke-miterlimit="10" stroke-width="2"/><line x1="54.52" y1="188.7" x2="54.52" y2="171.48" fill="#fff" stroke="#2d2f75" stroke-miterlimit="10" stroke-width="2"/><polyline points="178.53 221.52 178.53 253.37 238.46 253.37 238.46 83.28 178.53 83.28 178.53 204.24" fill="#fff" stroke="#2d2f75" stroke-miterlimit="10" stroke-width="2"/><rect x="182.04" y="86.78" width="52.91" height="26.77" fill="#fff" stroke="#2d2f75" stroke-miterlimit="10" stroke-width="2"/><rect x="182.04" y="117.08" width="52.91" height="26.77" fill="#fff" stroke="#2d2f75" stroke-miterlimit="10" stroke-width="2"/><rect x="182.04" y="147.39" width="52.91" height="26.77" fill="#fff" stroke="#2d2f75" stroke-miterlimit="10" stroke-width="2"/><line x1="196.61" y1="86.78" x2="196.61" y2="113.54" fill="#fff" stroke="#2d2f75" stroke-miterlimit="10" stroke-width="2"/><line x1="220.53" y1="86.78" x2="220.53" y2="113.54" fill="#fff" stroke="#2d2f75" stroke-miterlimit="10" stroke-width="2"/><line x1="196.61" y1="117.08" x2="196.61" y2="143.85" fill="#fff" stroke="#2d2f75" stroke-miterlimit="10" stroke-width="2"/><line x1="220.53" y1="117.08" x2="220.53" y2="143.85" fill="#fff" stroke="#2d2f75" stroke-miterlimit="10" stroke-width="2"/><line x1="196.61" y1="147.39" x2="196.61" y2="174.15" fill="#fff" stroke="#2d2f75" stroke-miterlimit="10" stroke-width="2"/><line x1="220.53" y1="147.39" x2="220.53" y2="174.15" fill="#fff" stroke="#2d2f75" stroke-miterlimit="10" stroke-width="2"/><path d="M107.79,14.06a7.8,7.8,0,0,0-5.18,2,11,11,0,0,0-2.82-2,12.15,12.15,0,0,0,.18-2.1,12.61,12.61,0,0,0-25.2-.81,10,10,0,1,0,10,17,11,11,0,0,0,19.81.85,7.82,7.82,0,1,0,3.25-14.92Z" fill="#303078" stroke="#2d2f75" stroke-miterlimit="10" stroke-width="2"/><path d="M226.68,32.42A6.19,6.19,0,0,0,222.55,34a8.68,8.68,0,0,0-2.26-1.63,9.21,9.21,0,0,0,.15-1.68A10.09,10.09,0,0,0,200.29,30a8,8,0,1,0,8,13.62,8.79,8.79,0,0,0,15.84.68,6.1,6.1,0,0,0,2.59.58,6.25,6.25,0,0,0,0-12.5Z" fill="#303078" stroke="#2d2f75" stroke-miterlimit="10" stroke-width="2"/><polyline points="94.22 201.13 107.28 100.16 129.67 100.16 136.51 165.73 107.59 165.73 105.9 175.95 153.92 175.95 150.19 165.73 138.68 165.73" fill="none" stroke="#2d2f75" stroke-miterlimit="10" stroke-width="2"/><polyline points="145.49 160.77 145.49 139.65 176.21 139.65" fill="none" stroke="#2d2f75" stroke-miterlimit="10" stroke-width="2"/><line x1="168.39" y1="211.7" x2="168.39" y2="150.65" fill="none" stroke="#2d2f75" stroke-miterlimit="10" stroke-width="2"/><line x1="124.07" y1="100.16" x2="124.07" y2="61.71" fill="none" stroke="#2d2f75" stroke-miterlimit="10" stroke-width="2"/><polyline points="155.84 127.18 160.85 89.84 166.07 89.84 172.03 136.15" fill="none" stroke="#2d2f75" stroke-miterlimit="10" stroke-width="2"/><line x1="155.84" y1="107.43" x2="171.18" y2="107.43" fill="none" stroke="#2d2f75" stroke-miterlimit="10" stroke-width="2"/></g><polyline points="436.44 327.88 87.02 327.88 87.02 302.98 59.05 302.98 59.05 278.27 32.7 278.27 32.7 251.76 1 251.76 1 143.88" fill="none" stroke="#2d2f75" stroke-miterlimit="10" stroke-width="2"/><circle cx="143.35" cy="111.43" r="110.43" fill="none" stroke="#2d2f75" stroke-miterlimit="10" stroke-width="2"/><polyline points="198.86 202.18 203.95 201.44 208.64 199.25 209.98 198.15" fill="none" stroke="#2d2f75" stroke-miterlimit="10" stroke-width="2"/><polyline points="202.91 202.78 206.44 202.18 209.98 201.08" fill="none" stroke="#2d2f75" stroke-miterlimit="10" stroke-width="2"/><polyline points="202.12 204.06 205.6 203.82 207.18 203.46" fill="none" stroke="#2d2f75" stroke-miterlimit="10" stroke-width="2"/><line x1="199.62" y1="205.89" x2="204.42" y2="205.1" fill="none" stroke="#2d2f75" stroke-miterlimit="10" stroke-width="2"/><polyline points="199.95 206.5 201.33 207.9 201.33 208.63" fill="none" stroke="#2d2f75" stroke-miterlimit="10" stroke-width="2"/><polyline points="93.16 205.47 88.06 204.74 83.37 202.55 82.03 201.45" fill="none" stroke="#2d2f75" stroke-miterlimit="10" stroke-width="2"/><polyline points="89.1 206.08 85.57 205.47 82.03 204.38" fill="none" stroke="#2d2f75" stroke-miterlimit="10" stroke-width="2"/><polyline points="89.89 207.36 86.42 207.12 84.83 206.75" fill="none" stroke="#2d2f75" stroke-miterlimit="10" stroke-width="2"/><line x1="92.39" y1="209.19" x2="87.59" y2="208.4" fill="none" stroke="#2d2f75" stroke-miterlimit="10" stroke-width="2"/><polyline points="92.07 209.8 90.68 211.2 90.68 211.93" fill="none" stroke="#2d2f75" stroke-miterlimit="10" stroke-width="2"/><path d="M133.67,163.74a22.75,22.75,0,0,0-.29-6.54c-.94-4.56-1.55-12.73,5.91-13.3,10.37-.78,12.56,15.87,10.37,33.11,0,0-1,5.7-5.84,5.26C139.4,181.87,132.62,176.06,133.67,163.74Z" fill="#303078" stroke="#2d2f75" stroke-miterlimit="10" stroke-width="2"/><path d="M330.34,1V232.72a3.17,3.17,0,0,1-3.16,3.16h0a3.16,3.16,0,0,1-3.16-3.16V32" fill="none" stroke="#2d2f75" stroke-miterlimit="10" stroke-width="2"/><path d="M330.34,201.3h35.14a2.87,2.87,0,0,1,2.87,2.87h0a2.87,2.87,0,0,1-2.87,2.88H330.34" fill="none" stroke="#2d2f75" stroke-miterlimit="10" stroke-width="2"/><path d="M133.09,166c2.28,2.14,7.83,5.84,14.74-.09a3,3,0,0,1,2.83-.6l10.63,3.42a4.47,4.47,0,0,1,2,1.33c4.29,5,24.73,29.07,35.56,28.89v20.14s-14.34,1.53-34.38-30.06q-1.32-2.08-2.68-4.36s-.83,60.5,10,92.67c0,0-32.55,13.5-49.91,6.62,0,0,6.21-74.95,3-99.29,0,0-17.55,34.4-32.35,33.6V202.1s21.19-18.58,27.54-31.88a4.44,4.44,0,0,1,2.6-2.34l7.53-2.47A2.88,2.88,0,0,1,133.09,166Z" fill="#fff" stroke="#2d2f75" stroke-miterlimit="10" stroke-width="2"/></svg>