<svg xmlns="http://www.w3.org/2000/svg" viewBox="0 0 429.91 572.53"><title>portals</title><circle cx="318.48" cy="111.43" r="110.43" fill="none" stroke="#2d2f75" stroke-miterlimit="10" stroke-width="2"/><polyline points="233.49 51.69 342.86 51.69 342.86 59.22 244.17 59.22" fill="none" stroke="#2d2f75" stroke-miterlimit="10" stroke-width="2"/><line x1="421.91" y1="118.95" x2="380.52" y2="118.95" fill="none" stroke="#2d2f75" stroke-miterlimit="10" stroke-width="2"/><path d="M318.84,309.3s-.52-12.2,7.82-12.2,7.45,12.2,7.45,12.2Z" fill="#303078" stroke="#2d2f75" stroke-miterlimit="10" stroke-width="2"/><path d="M349.47,309.3s-.52-12.2,7.82-12.2,7.45,12.2,7.45,12.2Z" fill="#303078" stroke="#2d2f75" stroke-miterlimit="10" stroke-width="2"/><polyline points="429.15 309.3 218.86 309.3 218.86 376.07 0 376.07" fill="none" stroke="#2d2f75" stroke-miterlimit="10" stroke-width="2"/><polyline points="283.35 142.13 285.06 138.8 285.06 138.34" fill="none" stroke="#2d2f75" stroke-miterlimit="10" stroke-width="2"/><polyline points="282.02 142.13 282.42 137.74 283.91 132.26" fill="none" stroke="#2d2f75" stroke-miterlimit="10" stroke-width="2"/><polyline points="280.96 143 280.23 138.16 281.1 131.86" fill="none" stroke="#2d2f75" stroke-miterlimit="10" stroke-width="2"/><polyline points="280.35 143.85 278.04 138.53 277.82 133.84" fill="none" stroke="#2d2f75" stroke-miterlimit="10" stroke-width="2"/><polyline points="279.51 145.57 276.8 141.29 276.88 138.16" fill="none" stroke="#2d2f75" stroke-miterlimit="10" stroke-width="2"/><path d="M284.82,160.88l-1.67-18.28c-4.89-3-6.63,5.84-6.63,5.84s-5,24.32-3.53,28.09,5.88,2.95,5.88,2.95l10.89-6.39-.23-8.4-1.37,39.8c25,16.3,51.76.87,51.8-4.22s3.29-23.28,4.19-39.05-3.24-23.77-3.24-23.77c-22.36-16.8-44.26-1.62-44.26-1.62s-7.66,6.08-12.47,18.11" fill="#fff" stroke="#2d2f75" stroke-miterlimit="10" stroke-width="2"/><path d="M298,151.1l-6.93-13c-4.89-3-6.63,5.83-6.63,5.83s5,31.26,6.51,35,5.88,2.95,5.88,2.95l17.23-16.32-7.8,7.39.85,31.53c25,16.3,51.76.87,51.81-4.22s3.28-23.28,4.18-39.05-7.23-23.7-7.23-23.7c-22.35-16.81-50.3.6-50.3.6a101.19,101.19,0,0,0-10.78,20.21" fill="#fff" stroke="#2d2f75" stroke-miterlimit="10" stroke-width="2"/><path d="M323.09,112.12s-2.34,11.23,2.32,13.6l3.08,1.56-.12,2.63s9.66-.52,12,.58c1.08.51.2-4.14.2-4.14S328.8,104.18,326,107.76,323.09,112.12,323.09,112.12Z" fill="#fff" stroke="#2d2f75" stroke-miterlimit="10" stroke-width="2"/><path d="M321.52,97.4s1.19,2.18,9.44,1.83,17.74.78,16.54,13.34-9.16,16.35-15.12,14.22-6.27-13-6.27-13-1.94-5.48-3-2.47S317.62,103.18,321.52,97.4Z" fill="#303078" stroke="#2d2f75" stroke-miterlimit="10" stroke-width="2"/><path d="M357.19,203.84s7.58-.18,3.72,29.94c-1.87,11.77-.45,18.86-.45,18.86s-11.2,8.48-23.11,4.08L339,234l-1.8,25.56s-17.25,6.89-26-5.54c0,0-5-34.54-2.7-47.53C308.5,206.5,335.84,220.72,357.19,203.84Z" fill="#303078" stroke="#2d2f75" stroke-miterlimit="10" stroke-width="2"/><path d="M315.39,256a13.93,13.93,0,0,0-1.16,5.52c.13,2.68,6.27,40.59,6.27,40.59h11.33s5-28.81,3.13-43.26S315.39,256,315.39,256Z" fill="none" stroke="#2d2f75" stroke-miterlimit="10" stroke-width="2"/><path d="M340,253.46a13.85,13.85,0,0,0-.39,5.62c.49,2.64,11.74,42.32,11.74,42.32l11.22-1.56s1.65-33.24-4.21-45.83C352.19,240.81,340,253.46,340,253.46Z" fill="none" stroke="#2d2f75" stroke-miterlimit="10" stroke-width="2"/><path d="M360.1,153.29a125.22,125.22,0,0,0-47.58,2.5" fill="none" stroke="#2d2f75" stroke-miterlimit="10" stroke-width="2"/><polyline points="289.54 137.72 291.25 134.39 291.25 133.94" fill="none" stroke="#2d2f75" stroke-miterlimit="10" stroke-width="2"/><polyline points="288.21 137.72 288.61 133.33 287.63 127.85" fill="none" stroke="#2d2f75" stroke-miterlimit="10" stroke-width="2"/><polyline points="287.15 138.59 286.42 133.75 284.82 127.45" fill="none" stroke="#2d2f75" stroke-miterlimit="10" stroke-width="2"/><polyline points="286.54 139.45 284.23 134.13 281.54 129.43" fill="none" stroke="#2d2f75" stroke-miterlimit="10" stroke-width="2"/><polyline points="285.7 141.16 282.99 136.88 280.6 133.75" fill="none" stroke="#2d2f75" stroke-miterlimit="10" stroke-width="2"/><path d="M299.29,97.83s.24,12.93,10.77,11.61S322.5,114,322.5,114s3.95-12.28-1.95-14.61S304.37,101.35,299.29,97.83Z" fill="#303078" stroke="#2d2f75" stroke-miterlimit="10" stroke-width="2"/><path d="M307.81,110.09s-2.46,14,5.94,14.33c0,0,4.1.46,6.2-.73" fill="none" stroke="#2d2f75" stroke-miterlimit="10" stroke-width="2"/><polyline points="313.71 124.88 313.75 124.42 314.29 129.43 322.5 129.8" fill="none" stroke="#2d2f75" stroke-miterlimit="10" stroke-width="2"/><line x1="324.44" y1="125.01" x2="323" y2="129.8" fill="none" stroke="#2d2f75" stroke-miterlimit="10" stroke-width="2"/><path d="M320,97.4s-2.12,4.85-1.47,9" fill="none" stroke="#fff" stroke-miterlimit="10"/><path d="M288.92,205s-1.68,10.47,0,12.88,19.58,3.56,19.58,3.56l-.5-9.86S294.33,209.17,288.92,205Z" fill="#303078" stroke="#2d2f75" stroke-miterlimit="10" stroke-width="0.75"/><rect x="82.81" y="360.12" width="115.12" height="15.95" rx="7.97" fill="none" stroke="#2d2f75" stroke-miterlimit="10" stroke-width="2"/><rect x="82.81" y="257.75" width="115.12" height="15.95" rx="7.97" fill="none" stroke="#2d2f75" stroke-miterlimit="10" stroke-width="2"/><path d="M190,273.69s-18.75,29.9,0,86.43" fill="none" stroke="#2d2f75" stroke-miterlimit="10" stroke-width="2"/><path d="M91.15,273.69s18.75,29.9,0,86.43" fill="none" stroke="#2d2f75" stroke-miterlimit="10" stroke-width="2"/><line x1="178.47" y1="278.49" x2="133.39" y2="355.68" fill="none" stroke="#2d2f75" stroke-miterlimit="10" stroke-width="2"/><line x1="164.13" y1="278.49" x2="133.39" y2="330.75" fill="none" stroke="#2d2f75" stroke-miterlimit="10" stroke-width="2"/><path d="M90.79,257.75s49.6-21.95,99.16,0" fill="none" stroke="#2d2f75" stroke-miterlimit="10" stroke-width="2"/><polyline points="285.6 571.53 358.89 571.53 358.89 541.63 394.14 541.63 394.14 512.36 428.64 512.36 428.64 484.46" fill="none" stroke="#2d2f75" stroke-miterlimit="10" stroke-width="2"/><polyline points="334.96 571.53 334.96 420.52 252.51 420.52 252.51 548.01" fill="none" stroke="#2d2f75" stroke-miterlimit="10" stroke-width="2"/><circle cx="326.47" cy="496.02" r="3.22" fill="#303078"/></svg>