<svg xmlns="http://www.w3.org/2000/svg" viewBox="0 0 791.03 741.93"><title>pipe-header</title><polyline points="791.03 740.93 773.7 740.93 773.7 679.02 756.37 679.02 756.37 617.11 739.03 617.11 739.03 555.2 721.7 555.2 721.7 493.3 406.31 493.3 406.31 555.2 388.98 555.2 388.98 617.11 371.65 617.11 371.65 679.02 354.31 679.02 354.31 740.93 336.98 740.93" fill="none" stroke="#2e2d75" stroke-miterlimit="10" stroke-width="2"/><line x1="406.31" y1="555.2" x2="545.29" y2="555.2" fill="none" stroke="#2e2d75" stroke-miterlimit="10" stroke-width="2"/><line x1="685.25" y1="555.2" x2="721.95" y2="555.2" fill="none" stroke="#2e2d75" stroke-miterlimit="10" stroke-width="2"/><line x1="737.37" y1="679.02" x2="755.72" y2="679.02" fill="none" stroke="#2e2d75" stroke-miterlimit="10" stroke-width="2"/><line x1="370.67" y1="679.02" x2="564.01" y2="679.02" fill="none" stroke="#2e2d75" stroke-miterlimit="10" stroke-width="2"/><line x1="502.49" y1="617.11" x2="755.13" y2="617.11" fill="none" stroke="#2e2d75" stroke-miterlimit="10" stroke-width="2"/><polyline points="406.31 493.3 350.58 493.3 350.58 433.97 294.84 433.97 294.84 374.65 239.11 374.65 239.11 315.32 183.37 315.32 183.37 256 0 256" fill="none" stroke="#2e2d75" stroke-miterlimit="10" stroke-width="2"/><path d="M538.33,583.34s-.51,13.66-32.73,15.19H491.67l.84,65.66s-20.31-.11-26,0l-5.7.11,5.93-79.68a15.56,15.56,0,0,1,10-13.36l33.43-12.53,51.25-4.52s7.21,18,8.73,37.91,13.56,125.19,16.71,128.13c0,0-34.24,6-42.89,6L532.88,589.71" fill="#302d77" stroke="#2e2d75" stroke-miterlimit="10" stroke-width="2"/><path d="M557.62,540.74s1.59,9.23,2.84,11.94l-46.27,6.52Z" fill="#fff" stroke="#2e2d75" stroke-miterlimit="10" stroke-width="2"/><path d="M505.4,487.2l-10.58,25.37-14.17-19.88,8.53-21.05A29.89,29.89,0,0,1,512,453.31a112.52,112.52,0,0,1,25.31-1.2A30.13,30.13,0,0,1,562,468l13.15,24.71L561,501.08l-4.25-17.91s7.09,34.16,10.09,50.42a4.09,4.09,0,0,1-2.55,4.55c-10.5,4.05-44.39,17.33-57.79,25.08a3.16,3.16,0,0,1-4.75-2.72V495.12" fill="#fff" stroke="#2e2d75" stroke-miterlimit="10" stroke-width="2"/><path d="M500.67,426.26h0a19.58,19.58,0,0,1,18.17-19.52l1.53-.11a19.57,19.57,0,0,1,20.31,14.47c2.52,9.48,5.24,22.61,12.92,30.77a44.71,44.71,0,0,1,11.59,36.79l-56.38,13.43S499.85,460,500.67,426.26Z" fill="#302d77" stroke="#2e2d75" stroke-miterlimit="10" stroke-width="2"/><path d="M464.71,679s-1.35-11.6,10.27-11.6S486.36,679,486.36,679Z" fill="#302d77" stroke="#2e2d75" stroke-miterlimit="10" stroke-width="2"/><path d="M557.48,740.93s-1.35-11.6,10.27-11.6,11.38,11.6,11.38,11.6Z" fill="#302d77" stroke="#2e2d75" stroke-miterlimit="10" stroke-width="2"/><line x1="468.14" y1="665.11" x2="468.14" y2="669.49" fill="none" stroke="#2e2d75" stroke-miterlimit="10" stroke-width="2"/><line x1="482.49" y1="665.11" x2="482.49" y2="669.49" fill="none" stroke="#2e2d75" stroke-miterlimit="10" stroke-width="2"/><line x1="558.62" y1="725.51" x2="560.73" y2="730.81" fill="none" stroke="#2e2d75" stroke-miterlimit="10" stroke-width="2"/><line x1="573.32" y1="722.53" x2="573.9" y2="730.81" fill="none" stroke="#2e2d75" stroke-miterlimit="10" stroke-width="2"/><path d="M572.56,494.22l6.31,16.68a4.85,4.85,0,0,1,.18,2.82l-9.86,41.48a47.48,47.48,0,0,1,0,6.27c-.28,1.25-3,7.65-3,7.65" fill="#fff" stroke="#2e2d75" stroke-miterlimit="10" stroke-width="2"/><line x1="563.18" y1="538.57" x2="560.46" y2="552.68" fill="#fff" stroke="#2e2d75" stroke-miterlimit="10" stroke-width="2"/><polyline points="565.47 526.41 566.18 516.82 561.43 506.06" fill="#fff" stroke="#2e2d75" stroke-miterlimit="10" stroke-width="2"/><path d="M453.54,578.43l6.76-9.59,2.87-6.42,21.2-34.11a5.52,5.52,0,0,0,.42-.8l7.72-18.19-9.44-13.24L476,515.22l-18.35,44-3.39,5-4.15,2.29" fill="#fff" stroke="#2e2d75" stroke-miterlimit="10" stroke-width="2"/><line x1="450.88" y1="576.77" x2="457.67" y2="568.84" fill="#fff" stroke="#2e2d75" stroke-miterlimit="10" stroke-width="2"/><line x1="447" y1="576.81" x2="456.93" y2="567.03" fill="#fff" stroke="#2e2d75" stroke-miterlimit="10" stroke-width="2"/><line x1="447.49" y1="572.16" x2="455.88" y2="565.34" fill="#fff" stroke="#2e2d75" stroke-miterlimit="10" stroke-width="2"/><circle cx="389.61" cy="145.59" r="144.59" fill="none" stroke="#2e2d75" stroke-miterlimit="10" stroke-width="2"/><polygon points="688.65 493.3 613.87 493.3 601.66 384.24 700.86 384.24 688.65 493.3" fill="none" stroke="#2d2f75" stroke-miterlimit="10" stroke-width="2"/><rect x="595.81" y="371.92" width="110.9" height="12.32" fill="#302f77" stroke="#2d2f75" stroke-miterlimit="10" stroke-width="2"/><line x1="685.97" y1="407.04" x2="679.2" y2="476.04" fill="#302f77" stroke="#2d2f75" stroke-miterlimit="10" stroke-width="2"/><path d="M593,179.18s52.7,105.74,52.7,196.33" fill="none" stroke="#2d2f75" stroke-miterlimit="10" stroke-width="2"/><path d="M658.39,378.08s-1.66-83.78,48.32-133.76" fill="none" stroke="#2d2f75" stroke-miterlimit="10" stroke-width="2"/><path d="M665,324.84S618.31,231.12,747.67,210C747.67,210,734.87,300.78,665,324.84Z" fill="none" stroke="#2d2f75" stroke-miterlimit="10" stroke-width="2"/><path d="M582.74,161.49s-12.23,114.85,52.68,136C635.42,297.53,691.21,221.19,582.74,161.49Z" fill="none" stroke="#2d2f75" stroke-miterlimit="10" stroke-width="2"/></svg>