<?xml version="1.0" encoding="utf-8"?>
<!-- Generator: Adobe Illustrator 23.0.2, SVG Export Plug-In . SVG Version: 6.00 Build 0)  -->
<svg version="1.1" id="Layer_1" xmlns="http://www.w3.org/2000/svg" xmlns:xlink="http://www.w3.org/1999/xlink" x="0px" y="0px"
	 viewBox="0 0 1539.1 2505" style="enable-background:new 0 0 1539.1 2505;" xml:space="preserve">
<style type="text/css">
	.st0{fill:none;stroke:#2E2D75;stroke-width:2;stroke-miterlimit:10;}
	.st1{fill:#FFFFFF;stroke:#2E2D75;stroke-width:2;stroke-miterlimit:10;}
	.st2{fill:#2E2D75;stroke:#2E2D75;stroke-width:2;stroke-miterlimit:10;}
	.st3{fill:none;stroke:#FFFFFF;stroke-miterlimit:10;}
	.st4{fill:#302D77;stroke:#2E2D75;stroke-width:2;stroke-miterlimit:10;}
	.st5{fill:#FFFFFF;stroke:#2D2F75;stroke-width:2;stroke-miterlimit:10;}
	.st6{fill:none;stroke:#2D2F75;stroke-width:2;stroke-miterlimit:10;}
	.st7{fill:#2E2D75;}
	.st8{fill:none;stroke:#FFFFFF;stroke-width:2;stroke-miterlimit:10;}
	.st9{fill:#302D77;stroke:#2E2D75;stroke-width:0.5;stroke-miterlimit:10;}
	.st10{fill:none;stroke:#2E2D75;stroke-width:2;stroke-linejoin:bevel;}
	.st11{fill:#302D77;}
	.st12{fill:#FFFFFF;stroke:#2E2D75;stroke-width:2;stroke-linejoin:round;}
	.st13{fill:#FFFFFF;stroke:#2E2D75;stroke-width:2;stroke-linejoin:bevel;}
	.st14{fill:none;stroke:#2E2D75;stroke-width:2;stroke-linejoin:round;}
	.st15{fill:#2D2F75;stroke:#2D2F75;stroke-width:2;stroke-miterlimit:10;}
	.st16{fill:#2D2F75;stroke:#2D2F75;stroke-width:2;stroke-linejoin:bevel;stroke-miterlimit:10;}
	.st17{fill:#FFFFFF;stroke:#2D2F75;stroke-width:2;stroke-linejoin:bevel;stroke-miterlimit:10;}
</style>
<title>s1-s5</title>
<circle class="st0" cx="2007.3" cy="529" r="173.5"/>
<circle class="st0" cx="456.5" cy="1286" r="119"/>
<line class="st0" x1="907.5" y1="1101" x2="1385.5" y2="1101"/>
<polyline class="st0" points="907.5,1101 547.5,1461 235.5,1461 235.5,1212 382.5,1065 "/>
<path class="st1" d="M2156.8,541.5c0,0-9,11-27,10c0,0-8.8,8.1-10.4,16c0,0-4.6,37,13.4,86l3,14h15l43.2-47
	C2194,620.5,2184.8,560.5,2156.8,541.5z"/>
<polyline class="st1" points="2138.8,591.5 2115.1,608.1 2099.8,587.1 2130.8,558.5 "/>
<line class="st0" x1="2134" y1="551.6" x2="2130.8" y2="538.5"/>
<path class="st1" d="M2101.9,514.6l15.1,24.6c2.5,4.1,7.9,5.4,12,2.9c0.2-0.1,0.3-0.2,0.5-0.3l11.4-8.1"/>
<path class="st2" d="M2087.3,505c0,0,6.4,15.8,21.8,8.4s15,10.5,15,10.5l2.7-1.3c0,0-3.4-11.7,2-9.8c5.4,1.9,8.3,12.7,8.7,13.6
	s9.7,6.4,9.7,6.4l4.1-5.3c0,0-8.5-1.5-9.2-12.2c-0.7-10.8-1.7-33.6-18.8-27.6c-17.1,6-22.6,13-25.3,14.3
	C2095.4,503.3,2087.3,505,2087.3,505z"/>
<line class="st0" x1="2146.8" y1="532.5" x2="2154.7" y2="543.6"/>
<polyline class="st0" points="2101.8,585.5 2102.4,567 2129.8,551.5 "/>
<rect x="2022.8" y="556.5" class="st2" width="28" height="28"/>
<path class="st3" d="M2047.3,561.4c0,0-0.7,5.6-8.4,10.5s-9.1,9.8-9.8,10.5"/>
<path class="st3" d="M2044.2,560.3c0,0-6.3,9.1-11.9,7.7s-4.2-7.7-4.2-7.7"/>
<path class="st3" d="M2026,568.8c1.5,1.4,3.1,2.6,4.9,3.5c2.8,1.4-4.9,8.4-4.9,8.4"/>
<path class="st3" d="M2033.7,581.3c0,0,5.6-7,11.2-5.6"/>
<path class="st0" d="M2051.8,575.5c0,0,3,1,3,5c0,2.4,0.3,4.7,1,7l26,17l19-15"/>
<path class="st0" d="M2033.7,584.5c0,0,1.2,3,4.2,3s11,4,11,4l28.5,30.3c1.7,1.1,3.6,1.7,5.6,1.7l0,0c1.9,0,3.8-0.6,5.4-1.6
	l25.5-15.4"/>
<path class="st2" d="M2135.8,667.5c0,0-7,41.8-6.5,46.4l28.5-0.4l2-46H2135.8z"/>
<path class="st1" d="M1843.8,651.5c0,0-4-100,36-100s51,162,51,162"/>
<line class="st0" x1="1889.6" y1="555" x2="1889.8" y2="542.5"/>
<path class="st0" d="M1882.5,542l4.8,0.9c5.1,1,10-2.2,11.2-7.3l4.5-19.6"/>
<path class="st2" d="M1908.4,506.4c-0.2,4.6-3,8.7-7.1,10.8c-8.1,4-21.1,12.5-23.9,26.6l-6.7,26.2c-1.7,6.8-8.7,10.9-15.5,9.2
	c-0.3-0.1-0.7-0.2-1-0.3l-7.8-2.7c-6.7-2.3-10.2-9.5-7.9-16.1c0.2-0.5,0.4-1,0.6-1.4l29.2-60.1c2.3-4.8,7.5-7.7,12.8-7.1l16,1.7
	C1903.8,493.8,1908.8,499.6,1908.4,506.4L1908.4,506.4z"/>
<path class="st1" d="M1911.8,648.5c0,0,1,21-13,26"/>
<line class="st0" x1="1800.3" y1="714" x2="2314.3" y2="714"/>
<polyline class="st0" points="2247.7,902.5 2247.7,804 2314,737.7 "/>
<line class="st0" x1="1609" y1="945.3" x2="1609" y2="890.3"/>
<circle class="st0" cx="2194.8" cy="833.5" r="21"/>
<circle class="st0" cx="2134.8" cy="833.5" r="21"/>
<line class="st0" x1="2230.8" y1="733.5" x2="2043.8" y2="733.5"/>
<line class="st0" x1="1804.8" y1="737.5" x2="1852.3" y2="785"/>
<rect x="2150.8" y="635.5" class="st1" width="12" height="60"/>
<polygon class="st2" points="2305.4,713.9 2305.4,553.5 2268.8,538.5 2207.8,620.5 2157.8,620.5 2157.8,713.5 "/>
<circle class="st1" cx="2182.8" cy="645.5" r="8"/>
<circle class="st1" cx="2182.8" cy="667.5" r="8"/>
<rect x="1837.8" y="667.5" class="st1" width="26" height="32"/>
<polygon class="st1" points="1863.8,687.5 1901.8,687.5 1906.8,683.5 1901.8,679.5 1863.8,679.5 "/>
<polygon class="st2" points="1808.6,714 1808.6,652.5 1845.8,652.5 1869.6,714 "/>
<polyline class="st0" points="765,2272 765,1855.5 862,1855.5 863,1855.5 863,1758.5 960,1758.5 961,1758.5 961,1661.5 1058,1661.5 
	1059,1661.5 1059,1564.5 1156,1564.5 1157,1564.5 1157,1467.5 1254,1467.5 1397.5,1467.5 1397.5,1952 993.5,1952 "/>
<line class="st0" x1="1059" y1="1659" x2="1059" y2="1733"/>
<path class="st0" d="M1345.5,1867c0,9-14,44-14,44c4,5,0,0,8,11s42,2,42,2c1.9-13.8,5.6-27.2,11-40c9-21,5.1-50.5-4-56
	c-10-6-20-2-26,2s-28,17-28,17l-3,24c0,0,19-5,24-5s9-7,9-7"/>
<path class="st2" d="M1381.5,1924c0,0-2,28-36,28s-55-52-55-52l-19,36h-23l22.1-49c3.6-7.9,11.5-13,20.2-13l0,0
	c5.6,0,11,2.1,15.1,5.9l34.6,34.1C1340.5,1914,1368.5,1923,1381.5,1924z"/>
<path class="st0" d="M1231.5,1952c0,0-1-6,3-7s18-8,18-8h16c0,0,5,2,4,7c-0.6,2.6-0.6,5.4,0,8H1231.5z"/>
<line class="st0" x1="1265.5" y1="1799" x2="1277.5" y2="1836"/>
<path class="st0" d="M1268.5,1800l3.4-1.1c1.4-0.5,2.9,0.3,3.4,1.7c0,0,0,0,0,0l8.2,26.4"/>
<path class="st1" d="M1334.3,1848.8l-29.8,7.2l-22-19c0,0,5-9,3-11s-3-1-4,2s-7-4-11-11s-2,3-2,3s0,12,6,20l22.2,30.5
	c1.1,1.6,3,2.5,4.9,2.5h3c0.6,0,1.2-0.1,1.7-0.3l25.2-3.8L1334.3,1848.8z"/>
<line class="st0" x1="1368.1" y1="1827" x2="1366.5" y2="1819"/>
<path class="st0" d="M1355.5,1798l3.4,15.6c0.8,3.9,4.6,6.3,8.5,5.5c0.1,0,0.3-0.1,0.4-0.1l10.7-3"/>
<path class="st2" d="M1368.5,1798c-2.7,0-5.4,0.3-8,1c-3,1-8,0-8,0l-2-1c0,0-2-4-1-6s-2-4,1-4c1.9,0.2,3.8-0.6,5-2c1-1,0-2,3-2
	s9-1,10-1s2.9,0.8,6,0c4.2-1.1,10.6,4.3,7,9c0,0-2-2,0,2s3,6,3,8s1,6,0,7s-2,2-2,3s1,4-1,0s-1,0-3-6s-1-6-3-7c-1.6-0.8-3.3-1.4-5-2
	c0,0,3,5,2,7s5,5,0,2s-4-3-5-5C1366.9,1799.9,1367.3,1798.6,1368.5,1798C1368.4,1798,1368.5,1798,1368.5,1798z"/>
<line class="st0" x1="1381.5" y1="1810" x2="1382.5" y2="1825"/>
<rect x="1133.5" y="1949" class="st2" width="84" height="3"/>
<path class="st0" d="M1224.3,1909h-58.3c-0.8,0-1.6,0.6-1.8,1.4l-8.7,38.6h62l8.5-37.8c0.2-1-0.4-1.9-1.4-2.1
	C1224.5,1909,1224.4,1909,1224.3,1909z"/>
<line class="st0" x1="1213.5" y1="1913" x2="1166.5" y2="1930"/>
<line class="st0" x1="1216.5" y1="1919" x2="1189.5" y2="1942"/>
<path class="st0" d="M779.5,502h-632c-112.9,0-112.9-304,0-304h632C883.4,198,883.4,502,779.5,502z"/>
<path class="st4" d="M187,522.4h144.2c4.4,0,8,3.6,8,8v6.3c0,4.4-3.6,8-8,8H187c-4.4,0-8-3.6-8-8v-6.3
	C179,526,182.6,522.4,187,522.4z"/>
<path class="st4" d="M187,380h144.2c4.4,0,8,3.6,8,8v6.3c0,4.4-3.6,8-8,8H187c-4.4,0-8-3.6-8-8v-6.3C179,383.5,182.6,380,187,380z"
	/>
<path class="st5" d="M190.6,522.4c26.1-78.7,0-120.3,0-120.3h137.5c0,0-26.1,41.6,0,120.3"/>
<line class="st6" x1="312.1" y1="408.8" x2="249.4" y2="516.2"/>
<line class="st6" x1="292.2" y1="408.8" x2="249.4" y2="481.5"/>
<path class="st6" d="M190.1,380c0,0,69-30.5,138,0"/>
<line class="st6" x1="230.7" y1="544.6" x2="396.5" y2="544.6"/>
<line class="st6" x1="530.5" y1="545" x2="569.5" y2="545"/>
<line class="st6" x1="609.5" y1="545" x2="710.5" y2="545"/>
<line class="st6" x1="646.5" y1="544" x2="646.5" y2="173"/>
<line class="st6" x1="557.5" y1="544" x2="557.5" y2="173"/>
<line class="st0" x1="557.1" y1="482.9" x2="637.5" y2="482.9"/>
<line class="st0" x1="557.1" y1="416" x2="636.1" y2="415.9"/>
<line class="st0" x1="557.1" y1="349" x2="637.1" y2="348.9"/>
<line class="st0" x1="557.1" y1="282" x2="636.1" y2="281.9"/>
<line class="st0" x1="557.1" y1="215" x2="636.1" y2="214.9"/>
<polyline class="st0" points="719.5,173 214.5,173 214.5,0 "/>
<path class="st1" d="M360.8,40.7l-3.5-19.5l-19.8-2.7L333,25v11l-3.7,15.3c0,0,5.4-1.8,14.4,9.8s15.1-14.5,15.1-14.5L360.8,40.7z"/>
<path class="st2" d="M322.7,55.1c0,0,9.1-8,13.3-1c0.9,1.7,1.5,3.6,1.7,5.5c1.9,13.2,4.7,35.1,8.4,53.3c0.7,3.4,1.4,6.7,2.2,9.8
	c4.8,19.5,19.6,81.4,19.6,100.3h-58.4v-50.7c0,0-14.1-3.9-14.1-24S306.1,69.2,322.7,55.1z"/>
<path class="st0" d="M346.2,112.9l50.3-21.5V68.6l-44,22c0,0-7.4-33.4-17.7-38.1"/>
<path class="st1" d="M348.5,119.8l49.2,32.2c9.9,9,15.1,22.2,14,35.6l-7.6,90.7h-37.3c0,0,7.2-64.1,17.1-91.6
	c0,0-15.8-6.6-22.5-11.1L348.5,119.8z"/>
<line class="st0" x1="393.8" y1="107.6" x2="375" y2="137.2"/>
<line class="st0" x1="389.6" y1="115.6" x2="395.5" y2="150.5"/>
<path class="st0" d="M399.1,153.3h27.7c-1.4-28.6-12.4-60.2-17.5-71.4s-12.2-5.6-12.2-5.6"/>
<path class="st0" d="M397.1,71.1c0,0,10.9-7.8,14.2,5.1c0,0,0.8,8.2,0.5,12"/>
<path class="st2" d="M410.3,172.2h33c0,0,0.7-4-11.8-7.4s-15.1-11.6-15.1-11.6l-15.9,0.7C400.5,154,409.1,163.5,410.3,172.2z"/>
<path class="st2" d="M379.2,278.6c0,0-2.6,11.6-2.7,18.3h35.9c0,0-0.2-3.6-10.5-5.5s-11.4-12.8-11.4-12.8L379.2,278.6z"/>
<path class="st0" d="M324.9,53.5c0,0,7.9-4.6,5.8-16s-4.4-21.5,7.7-25.8s19.7,6.7,19.7,6.7s5.6,8.4,5.7,15.2s0.8,20.5,9.7,23.6
	s19.9,7.2,19.1,13.3"/>
<path class="st0" d="M330,47l11.8-12.5c0,0-8.4-4.7-3.7-9.4s8.3,5.5,8.3,5.5l10.9-6.1v13.7c0,0,0.1,8.7-4.6,9.3s-10.5-1.5-10.5-1.5
	v14.5"/>
<path class="st7" d="M331.1,45.3l10-10.8l-4.5-4.5l0.6-4.5l3.9-1.9l4.2,3.3l1.8,3.3l10.8-6.4l-0.5,17.4l-2.5,6l-5.6,0.8l-6.6-1.8
	l0.1,5.6v9l3.2,6.5l3.4,9.3l2.2,7.8l1.5,5.3l39.4-19.5l-0.6-4.2l-7.5-5.2l-10.4-4.3l-3.5-0.8l-3.2-5.6l-3-11.5l-0.1-8.2l-4.2-10.4
	l-4.2-5.1l-5.2-3.4c0,0-9.2-3.5-16.4,1.6s-4,18.1-4,18.1l1.4,9.2L331.1,45.3z"/>
<path class="st8" d="M320.3,202.5L320.3,202.5c0,6.2,5,11.2,11.2,11.2l0,0h17"/>
<polyline class="st5" points="200.5,326 200.5,256 266.5,256 "/>
<polyline class="st5" points="211,304 211,266.5 244.5,266.5 "/>
<polyline class="st0" points="962.5,629 962.5,569 875.1,569 875.1,502 875.5,502 779.5,502 "/>
<path class="st9" d="M494.8,1390.5c-0.1-0.1-6.7-11.4-6.7-11.4l-53.4,4.3l-2.5,0.2c-2.7,5.4-4.5,11.2-5.1,17.3
	c0,0,35.4,10.3,65.8-2.4L494.8,1390.5z"/>
<path class="st0" d="M436,1370.5c0,0,1.9,5-1.3,13"/>
<path class="st0" d="M484.6,1363.9c-0.8,5.1-0.5,10.2,0.7,15.2"/>
<path class="st0" d="M426.5,1336.2c3.3,8.1,4.6,34.3,4.6,34.3l56.9-7c0,0-2.9-21-1.2-29"/>
<path class="st10" d="M482.7,1325.3l9.4,21.2c0,0,1.6-30.6,11.1-26.4c4.5,2.3,0.8,22,0.8,22"/>
<path class="st0" d="M461.1,1298.7c8.9-0.2,16.9-0.3,20.7-0.3c2.2,0,4.4,0.9,6,2.4l16.2,19.9"/>
<path class="st0" d="M412,1326.4l10.9-22.6c1.3-1.7,3.3-2.9,5.4-3.2c6.7-0.8,13.5-1.4,20.3-1.5"/>
<path class="st0" d="M412.3,1348.9c0,0-4.5-23.3,1.8-24.4c9.2-1.5,9.1,25.7,9.1,25.7l5.6-23.8"/>
<path class="st0" d="M460.8,1297.8l2.1,9.3c0.1,2.9-2.1,5.3-5,5.5l-3.4,0.1c-2.9,0.1-5.3-2.1-5.5-5l0.2-9.4"/>
<line class="st0" x1="449.2" y1="1299" x2="449.2" y2="1290.4"/>
<path class="st0" d="M443.5,1267.8v16.4c-0.1,3.6,2.8,6.7,6.4,6.8c0.2,0,0.3,0,0.5,0h5.9"/>
<path class="st0" d="M464.4,1273.6c0,0,0,15.3-4.9,16.8l1.5,8.1"/>
<path class="st0" d="M440.9,1268.4c0,0,5.1,1.4,9-1.9c0,0,2.9,7.5,20.8,8.3"/>
<path class="st0" d="M436.9,1299l-0.4-31.8c-0.2-10.9,8.5-19.8,19.4-20c0.1,0,0.2,0,0.3,0l0,0c10,0,18.5,7.5,19.6,17.5l3.2,33.8"/>
<polyline class="st0" points="416,1325.3 411.6,1351.6 413.2,1390.8 409,1395.1 "/>
<polyline class="st0" points="423.2,1350.2 423.2,1352.4 420.9,1391.6 422,1395.8 423.5,1400 "/>
<polyline class="st0" points="499.4,1320.5 504.7,1346.4 503.1,1385.6 507.3,1389.9 508,1392.2 "/>
<polygon class="st11" points="448.5,1298.4 448.5,1291.7 445.1,1289.8 443,1286.1 443,1268.1 447.6,1267.4 449.9,1265.6 
	451.6,1268.1 455.9,1271.3 461.9,1273.1 465.1,1273.9 464.6,1278.1 463.6,1284.7 461.9,1289.1 460.1,1291 461.5,1297.8 
	478.3,1297.8 475.4,1264.8 472,1254.1 464.4,1248.4 455.8,1246.7 445.4,1250 438.8,1258.7 436.9,1266.6 437.4,1299.1 "/>
<polyline class="st0" points="495.2,1391.2 493.6,1397.8 495.2,1391.2 495.6,1387.7 492.3,1348 492.3,1344.1 "/>
<path class="st0" d="M2284.8,545c0,0,12-91.5,68-94.5s72-15,72-15"/>
<path class="st0" d="M2276.1,541.5c0,0,21.7-67,86.7-70s78-12,78-12"/>
<path class="st0" d="M2044.8,555.5c0,0,4-3,7-2s3,5,4,7c0.8,1.9,1.5,3.9,2,6l24,13l20-9"/>
<path class="st0" d="M2096.8,592.5l-13.2,2.8c-0.5,0.1-1.1,0.2-1.6,0.2h-1.1c-2,0-3.8-0.9-5-2.5l-22.1-21.5h-2"/>
<path class="st1" d="M1877.8,561.5l111,12v31c0,0-59,9-103-19"/>
<path class="st2" d="M2016.8,576.5l-26.2-0.9l12.2-0.1c0,0,0-8-5-4s-7.2,4.1-7.2,4.1l-1.8-0.1V590c0,0,10-1.5,11-1.5s3-1,3-2
	c0.2-1.8,0.9-3.5,2-5c1-1,6-1,10-2S2016.8,576.5,2016.8,576.5z"/>
<path class="st0" d="M1914.8,598.5c0,0,17,57,19,73l-6.9,3.2"/>
<path class="st2" d="M428,2115.1l16-2l-4.3-60.1c-0.4-6.4-5.8-11.3-12.2-11l0,0c-6.5,0.3-11.5,5.7-11.2,12.2c0,0.5,0.1,1.1,0.2,1.6
	L428,2115.1z"/>
<path class="st2" d="M468.1,2114.3l16.1,1.1l7.9-65c0.8-6.3-3.5-12.2-9.9-13.1l0,0c-6.4-1-12.4,3.4-13.3,9.8
	c-0.1,0.6-0.1,1.1-0.1,1.7L468.1,2114.3z"/>
<path class="st0" d="M466.6,2128c0,0,0.9-10,8.9-10s9.3,10,9.3,10H466.6z"/>
<path class="st0" d="M427.6,2128c0,0,0.9-10,8.9-10s9.3,10,9.3,10H427.6z"/>
<path class="st0" d="M464.5,1974l-7-2c0,0-1,6-8,5s-7-5-7-5l-3.2-0.6"/>
<path class="st0" d="M437.1,2038.7c0,0,8.4,6.3,16.4,11.3s16.6-6.7,16.6-6.7"/>
<path class="st0" d="M478,2018.4c0,0,4.8,17.7,8.2,20.1"/>
<path class="st0" d="M455.5,1968c0,0,13,0,20,8s14,34,14,34l-6,3"/>
<path class="st1" d="M488.5,2011l4,15l10,28c0,0,8,3,9,6h-11c-2,0-5.8-5.1-5.8-5.1"/>
<path class="st0" d="M479.5,2002c2.4,8.2,5.4,16.2,9,24c6,13,6.5,35,6.5,35c0.5-14-8.8-29.8-14.5-38c-9-13-17-52-17-52"/>
<path class="st10" d="M429.5,2019c0,0-16,19-17,31s0,8,0,8c-0.1-5.1,2.3-9.9,6.5-12.9c2.6-1.8,5.5-2.9,8.6-3.2
	c2.8-0.3,8.1-1.7,14.9-7c14-11-4-65-4-65s-8,7-18-7c-2.2-2.9-4.2-5.9-6-9l-8,18c0,0,7,12,17,14C423.5,1986,433.7,2011.5,429.5,2019z
	"/>
<line class="st0" x1="443.5" y1="1974" x2="444.9" y2="1962.7"/>
<line class="st0" x1="455.5" y1="1975" x2="455" y2="1965.5"/>
<path class="st0" d="M443.5,1941l-2.8,13.3c-0.7,3.8,1.6,7.5,5.3,8.7l0,0c3.7,1.1,7.7-0.7,9.2-4.3l0.3-0.7"/>
<path class="st2" d="M447.5,1940c1.8,4,4.2,7.7,7,11c5,6-2,32-2,33s-2,9,6,8s15-8,16-12s1-44-21-47c-12-1-14,12-14,12s-1,5,1,9l3-13
	C444.9,1940.9,446.2,1940.6,447.5,1940z"/>
<path class="st7" d="M440.3,2060.5c8.6-0.1,18,0.9,26.5-0.2c5.5-0.7,6.8-5.6,6.1-10.4c-0.2-1.7-2.4-2.1-3.7-1.5l-8,4.1l3,3.9l5.8-5
	c2.1-1.8-0.7-5.6-3-3.9c-3.8,2.7-7.2,4.6-11.8,3c-2.8-0.9-5.4-2.1-7.9-3.6c-3.2-1.9-9.5-9.9-14.1-6.8c-4.1,2.8-0.5,7.3,2.6,8.7
	c3.6,1.7,7.1,2,10.3,4.5c2.5,2,5.4,3.4,8.4,4.1l0.7-4.9c-4.6,0.5-11.3,1.9-15.8,0.4l1.8,1.8c0.4-0.8,0.7-1.6,0.9-2.5l-3.7,1.5
	c3.7,1.7,7.6,3.2,11.5,4.3c3.2,0.9,4.2-3.6,1.3-4.8s-5.9-2.3-9-3.3s-4.4,3.8-1.3,4.8s6,2.1,9,3.3l1.3-4.8c-3.5-1-7-2.3-10.3-3.8
	c-1.2-0.7-2.8-0.2-3.5,1c-0.1,0.2-0.2,0.3-0.2,0.5c-0.9,2.6-2.1,5.3,0.9,6.9c1.8,1,4.5,0.5,6.4,0.5c3.6,0,7.2-0.3,10.7-0.7
	c2.7-0.3,3.6-4.1,0.7-4.9c-5.2-1.5-8.8-5.3-14-7.1c-1.2-0.4-2.6-1.4-3.7-0.4s0.8,1.8,1.9,2.7c1.9,1.6,4,2.9,6.1,4.1
	c2.2,1.2,4.6,1.8,6.8,3.1c1.3,0.8,2.2,1.5,3.8,1.6c4.4,0.3,9.3-2.5,12.8-4.9l-3-3.9l-5.8,5c-2.2,1.9,0.6,5.2,3,3.9l8-4.1l-3.7-1.5
	c0.9,6.1-9.2,4.2-13.2,4.2l-14.6,0.1C437,2055.5,437,2060.5,440.3,2060.5L440.3,2060.5z"/>
<rect x="666.5" y="1876" class="st0" width="11" height="185"/>
<rect x="235.5" y="1876" class="st0" width="11" height="185"/>
<line class="st0" x1="115.5" y1="2061" x2="814.5" y2="2061"/>
<polyline class="st0" points="0.5,2200 246.5,2061 246.5,2117 235.5,2128 235.5,2180 224.5,2195 224.5,2252 213.5,2269 213.5,2325 
	"/>
<polyline class="st0" points="765.5,2117 666.5,2061 666.5,2117 677.5,2128 677.5,2180 688.5,2195 688.5,2252 "/>
<line class="st0" x1="224.5" y1="2195" x2="468.5" y2="2195"/>
<line class="st0" x1="677.5" y1="2128" x2="629.5" y2="2128"/>
<line class="st0" x1="687.5" y1="2195" x2="663.5" y2="2195"/>
<line class="st0" x1="246.5" y1="2117" x2="281.5" y2="2117"/>
<line class="st0" x1="235.5" y1="2128" x2="309.5" y2="2128"/>
<line class="st0" x1="429.5" y1="2180" x2="568.5" y2="2180"/>
<line class="st0" x1="383.5" y1="2128" x2="522.5" y2="2128"/>
<line class="st0" x1="777.5" y1="2088" x2="831.5" y2="2088"/>
<rect x="246.5" y="1876" class="st0" width="420" height="9"/>
<line class="st0" x1="213.5" y1="2269" x2="357.5" y2="2269"/>
<line class="st0" x1="246.5" y1="2325" x2="457.5" y2="2325"/>
<polygon class="st12" points="600.9,1995.4 612.8,1999.2 574.8,1965.9 591,1992.2 597.2,1994.2 "/>
<polyline class="st1" points="574.8,1965.9 558.8,1980.2 585.6,1990.1 "/>
<polygon class="st13" points="574.8,1965.9 585.6,1990.1 586.3,2002.7 591,1992.2 "/>
<line class="st0" x1="586.2" y1="2002.4" x2="582" y2="1988.8"/>
<polygon class="st12" points="345,1789.4 335.9,1783.6 379.3,1790.6 352.7,1794.3 347.9,1791.2 "/>
<polyline class="st1" points="379.3,1790.6 378.6,1809.2 357.1,1796.8 "/>
<polygon class="st13" points="379.3,1790.6 357.1,1796.8 348.2,1803.3 352.7,1794.3 "/>
<line class="st0" x1="348.5" y1="1803.2" x2="360" y2="1798.5"/>
<polygon class="st12" points="156,1951.5 146.3,1959.8 195.5,1944.5 164,1944.6 159,1948.9 "/>
<polyline class="st1" points="195.5,1944.5 191.5,1923 168.6,1941 "/>
<polygon class="st13" points="195.5,1944.5 168.6,1941 157.3,1934.9 164,1944.6 "/>
<line class="st0" x1="157.6" y1="1935" x2="171.7" y2="1938.5"/>
<polygon class="st12" points="615.3,2204.9 632.1,2202.6 573.5,2238.3 601.3,2206.9 610.1,2205.7 "/>
<polyline class="st1" points="573.5,2238.3 555.5,2215.4 593.6,2208.4 "/>
<polygon class="st13" points="573.5,2238.3 593.6,2208.4 597.4,2191.7 601.3,2206.9 "/>
<line class="st0" x1="597.3" y1="2192.1" x2="588.4" y2="2209.3"/>
<line class="st0" x1="213.5" y1="2504" x2="424.5" y2="2504"/>
<path class="st2" d="M311,2370.5l18.6,47.1c0.2,0.6,0.4,1.2,0.4,1.9v69h18l9.9-75.1c0.1-0.6,0-1.2-0.1-1.8l-15.4-66.3
	c-0.3-1.2-0.8-2.3-1.6-3.2l-6.1-6.9c-0.4-0.5-0.9-0.9-1.4-1.2c-21.8-14.3-47.2-5.5-47.2-5.5s-4.5,26.5-3.5,45.5
	c0.9,16.7,0.2,31.9,0,35.3c0,0.5-0.1,0.9-0.2,1.4l-17.8,69.3l18,5l24.8-65.4c0.2-0.4,0.3-0.8,0.4-1.3l6.9-40.3"/>
<path class="st2" d="M333.5,2491h11c0,0,8,7,11,8s7,2,7,3v2h-33C329.5,2504,329.5,2491,333.5,2491z"/>
<path class="st1" d="M269.5,2255l-6,46c0,0,9,48,10,50s9,0,9,0l-0.5-39.3"/>
<path class="st2" d="M265.5,2483l14,4l4,9c0,0,10,4,10,6s-16,1-16,1l-13-8C264.5,2495,260.5,2488,265.5,2483z"/>
<path class="st1" d="M315.5,2259l1-6l31.6-30.6c0.9-0.9,1.6-2,1.9-3.3l0.8-3.1c0.5-1.9,0.1-3.9-1-5.5l-27.3-39.5l-12,4l18,37l-27,19
	l-23-1c0,0-15,19-7,49s14,38,15,49c0,0,39-12,54,13c1.1,1.9-16-80-21-91"/>
<path class="st14" d="M301.5,2229l-5-6h-18c-2,0,0,7,0,7h23.9L301.5,2229z"/>
<polyline class="st1" points="287.5,2168 293.7,2164.6 333.5,2143 304.5,2172 293.5,2165 "/>
<path class="st1" d="M312.5,2172c0,0-14,2-14-1c0-1.7,0.3-3.4,1-5c0,0,2-4,4-4s6-4,6-3c-0.2,1.4-0.5,2.7-1,4c0,0-1,1,1,1h6
	c1,0,3,3,3,3l1,3L312.5,2172z"/>
<path class="st1" d="M275.5,2352c0,0,0,5,2,7l3,3c1,1,2-11,2-11L275.5,2352z"/>
<line class="st0" x1="295.5" y1="2223" x2="292.5" y2="2215"/>
<path class="st1" d="M293.5,2182l5.4,21c0.9,3.6-0.6,7.3-3.7,9.3l-7.7,4.7l-6-8l-2-11l7-7L293.5,2182z"/>
<path class="st2" d="M295.5,2178c-1.3,10.7-5,10-7,15s-3,4-3,11s5,7,5,11s-5.5,4-9,4s-8-4-8-4s-10-11-10-12v-13c0-4,9-14,14-16
	S296.5,2170,295.5,2178z"/>
<line class="st0" x1="280.5" y1="2223" x2="280.5" y2="2217"/>
<polygon class="st10" points="368.5,1918 415.5,1918 406.5,1919 406.5,1929 "/>
<path class="st13" d="M406.5,1972l-9-42c0-1,1-2,1.9-3.1s-1.9-2.9-2.9-3.9s-4-1-5-2s2-1,4-1s11,1,14,2s0,1,0,4s-4,4-4,4l8,26.2
	L406.5,1972z"/>
<g>
	<circle class="st6" cx="1059.5" cy="757.9" r="160"/>
	<g>
		<line class="st6" x1="873.6" y1="928.5" x2="1347.5" y2="928.5"/>
		<polyline class="st6" points="1286.1,1102.3 1286.1,1011.5 1347.2,950.3 		"/>
		<line class="st6" x1="933" y1="1102.3" x2="933" y2="1051.6"/>
		<circle class="st6" cx="1237.3" cy="1038.7" r="19.4"/>
		<circle class="st6" cx="1182" cy="1038.7" r="19.4"/>
		<line class="st6" x1="1270.5" y1="946.5" x2="1098.1" y2="946.5"/>
		<line class="st15" x1="877.8" y1="950.2" x2="921.5" y2="993.9"/>
		<g>
			<rect x="1196.8" y="856.1" class="st5" width="11.1" height="55.3"/>
			<polygon class="st15" points="1339.3,928.4 1339.3,780.5 1305.6,766.7 1249.3,842.3 1203.2,842.3 1203.2,928 			"/>
			<circle class="st5" cx="1226.3" cy="865.3" r="7.4"/>
			<circle class="st5" cx="1226.3" cy="885.6" r="7.4"/>
		</g>
		<g>
			<rect x="908.2" y="885.6" class="st5" width="24" height="29.5"/>
			<polygon class="st5" points="932.2,904.1 967.2,904.1 971.8,900.4 967.2,896.7 932.2,896.7 			"/>
			<polygon class="st15" points="881.3,928.5 881.3,871.8 915.6,871.8 937.5,928.5 			"/>
		</g>
	</g>
	<path class="st6" d="M1320.3,772.7c0,0,11.1-84.4,62.7-87.2c51.6-2.8,69.2-147.6,69.2-147.6"/>
	<path class="st6" d="M1312.3,769.4c0,0,20-61.8,79.9-64.5s180.9-167,180.9-167"/>
	<g>
		<path class="st16" d="M1156,898.9c0,0,7.2,19,7.2,29l-64,0.6l3-22.6l16-12L1156,898.9z"/>
		<path class="st17" d="M1123.2,797.9l-5.5,2.6c-4.1,1.9-8.9,0-10.7-4.1l-7.8-18.4l17-7l6,2l2,8l-1,3l9,21c0,0-7,23-16,1l3-6"/>
		<path class="st17" d="M1115.7,805.4c0,0,1,10,9,9s7-9,7-9s15.5,2.5,17.5,2.5s37-21-18-42l6-12c0,0,51,15,43,47
			c-2.9,11.8-6.2,21-15.7,28.5c-1.8,1.4-4.3,7.2-5.3,9.5c-5.9,14.4-4.6,37.2-2,58c0,0-10,18-25,18s-27-5-30-9s-7-55-7-55l-8,27
			h-19.9c0,0,16.9-45,19.9-55S1108.2,806.9,1115.7,805.4z"/>
		<line class="st17" x1="1123.2" y1="783.9" x2="1132.2" y2="805.9"/>
		<path class="st16" d="M1106.2,777.9c-0.2,0.1-6.1,2-7,2c-1,0-4,1-5-2s-3-7,2-11s3-7,11-6s15,4,18,7s5,10,6,10s-3,10-3,12s1,4,1,4
			s-2-3-4-6s-5-14-6-13s-2,2-2,5s-1,6-2,3s-1-4-4-5H1106.2z"/>
		<path class="st17" d="M1136.2,754.9h-9l-9,7l2,1l8.4-2.8l0.6-0.2c0,0-1,3-2,3s-1,0-1,0s-1,0,1,1s5,0,5,0L1136.2,754.9z"/>
	</g>
	<g>
		<path class="st16" d="M1004.4,910.1c0,0,3.6,8,4.7,18.4h-62.8c0,0-0.5-15.9,3.2-20.7c3.7-4.8,16.7-7.8,16.7-7.8l34.8,3.1
			L1004.4,910.1z"/>
		<path class="st17" d="M946.3,855.4l2.9-22.5l18-2l26,11c0,0,5,8,3,18s10,41,10,41s5,8-6,11s-39,3-44,0s-8-5-8-5
			S948.3,873.9,946.3,855.4"/>
		<path class="st17" d="M965.2,846.9l5,27l16,30l-10,7l-24-34l-11-37c0,0-3-28,25-30s40,17,40,17l16,30l28.8,20l-9,10l-32.8-19
			l-13-13"/>
		<path class="st17" d="M977.5,810.3c0,0,8.7,8.7,0.7,10.7s-12.8-10.7-12.8-10.7S967.8,809.6,977.5,810.3z"/>
		<path class="st17" d="M984.9,904.8c0,0,7.3,1.1,7.3,2.1s-4,2-4,2s-2-1,1,2s10,8,4,8s-6,1-9-1s-6.5-8-6.5-8L984.9,904.8z"/>
		<line class="st17" x1="995.4" y1="846.9" x2="997.2" y2="856.9"/>
		<path class="st17" d="M979.2,803.9v8c0,0,6,8-1,9s-14-11-14-12s0-10,0-10l5-10l9-6l7-2l6,1l0.6,2.3l0.4-1"/>
		<path class="st17" d="M971.2,802.9l8.4,1.2c3.2,0.5,6.3-1.5,7.3-4.6l5.3-16.6"/>
		<line class="st17" x1="965.2" y1="809.9" x2="967.2" y2="801.9"/>
		<path class="st16" d="M985.2,781.9c0,0-3,4-9,8s-6,5-7,9s-6,11-6,11l-12.7,5.5c0,0,8.7-24.5,8.7-32.5s7.4-25.2,26-19
			c24,8,5,24,5,24S994.2,780.9,985.2,781.9z"/>
	</g>
	<g>
		<rect x="1043.6" y="877.9" class="st15" width="50.2" height="50.2"/>
		<path class="st3" d="M1087.5,886.7c0,0-1.3,10-15.1,18.8s-16.3,17.6-17.6,18.8"/>
		<path class="st3" d="M1081.8,884.8c0,0-11.3,16.3-21.3,13.8c-10-2.5-7.5-13.8-7.5-13.8"/>
		<path class="st3" d="M1049.2,899.9c0,0,3.8,3.8,8.8,6.3c5,2.5-8.8,15.1-8.8,15.1"/>
		<path class="st3" d="M1063,922.4c0,0,10-12.5,20.1-10"/>
	</g>
</g>
</svg>
