<svg xmlns="http://www.w3.org/2000/svg" viewBox="0 0 1250.9 1171"><title>s1-s2</title><path d="M717.69,502h-632c-112.92,0-112.92-304,0-304h632C821.61,198,821.61,502,717.69,502Z" fill="none" stroke="#2e2d75" stroke-miterlimit="10" stroke-width="2"/><rect x="117.23" y="522.39" width="160.16" height="22.19" rx="7.97" fill="#302d77" stroke="#2e2d75" stroke-miterlimit="10" stroke-width="2"/><rect x="117.23" y="379.96" width="160.16" height="22.19" rx="7.97" fill="#302d77" stroke="#2e2d75" stroke-miterlimit="10" stroke-width="2"/><path d="M128.83,522.39c26.09-78.66,0-120.25,0-120.25H266.3s-26.1,41.59,0,120.25" fill="#fff" stroke="#2d2f75" stroke-miterlimit="10" stroke-width="2"/><line x1="250.32" y1="408.82" x2="187.59" y2="516.21" fill="none" stroke="#2d2f75" stroke-miterlimit="10" stroke-width="2"/><line x1="230.36" y1="408.82" x2="187.59" y2="481.52" fill="none" stroke="#2d2f75" stroke-miterlimit="10" stroke-width="2"/><path d="M128.32,380s69-30.54,138,0" fill="none" stroke="#2d2f75" stroke-miterlimit="10" stroke-width="2"/><line x1="168.86" y1="544.58" x2="334.69" y2="544.58" fill="#fff" stroke="#2d2f75" stroke-miterlimit="10" stroke-width="2"/><line x1="468.69" y1="545" x2="507.69" y2="545" fill="#fff" stroke="#2d2f75" stroke-miterlimit="10" stroke-width="2"/><line x1="547.69" y1="545" x2="648.69" y2="545" fill="#fff" stroke="#2d2f75" stroke-miterlimit="10" stroke-width="2"/><line x1="584.69" y1="544" x2="584.69" y2="173" fill="#fff" stroke="#2d2f75" stroke-miterlimit="10" stroke-width="2"/><line x1="495.69" y1="544" x2="495.69" y2="173" fill="#fff" stroke="#2d2f75" stroke-miterlimit="10" stroke-width="2"/><line x1="495.29" y1="482.85" x2="575.69" y2="482.85" fill="none" stroke="#2e2d75" stroke-miterlimit="10" stroke-width="2"/><line x1="495.29" y1="416" x2="574.29" y2="415.85" fill="none" stroke="#2e2d75" stroke-miterlimit="10" stroke-width="2"/><line x1="495.29" y1="349" x2="575.29" y2="348.85" fill="none" stroke="#2e2d75" stroke-miterlimit="10" stroke-width="2"/><line x1="495.29" y1="282" x2="574.29" y2="281.85" fill="none" stroke="#2e2d75" stroke-miterlimit="10" stroke-width="2"/><line x1="495.29" y1="215" x2="574.29" y2="214.85" fill="none" stroke="#2e2d75" stroke-miterlimit="10" stroke-width="2"/><polyline points="657.69 173 152.69 173 152.69 0" fill="none" stroke="#2e2d75" stroke-miterlimit="10" stroke-width="2"/><path d="M299,40.65,295.5,21.11,275.72,18.4,271.24,25V36L267.5,51.22s5.35-1.84,14.37,9.82S297,46.51,297,46.51Z" fill="#fff" stroke="#2e2d75" stroke-miterlimit="10" stroke-width="2"/><path d="M260.94,55.1s9.15-8,13.34-1A14.82,14.82,0,0,1,276,59.59c1.89,13.22,4.69,35.09,8.39,53.34.7,3.43,1.43,6.73,2.19,9.82,4.81,19.56,19.56,81.44,19.56,100.36H247.79V172.45s-14.1-3.85-14.1-24S244.27,69.21,260.94,55.1Z" fill="#2e2d75" stroke="#2e2d75" stroke-miterlimit="10" stroke-width="2"/><path d="M284.4,112.93l50.31-21.46V68.59l-44,22S283.33,57.2,273,52.5" fill="none" stroke="#2e2d75" stroke-miterlimit="10" stroke-width="2"/><path d="M286.69,119.81,335.92,152a43.22,43.22,0,0,1,14,35.55l-7.65,90.67H304.94s7.17-64.13,17.14-91.64c0,0-15.76-6.59-22.52-11.1Z" fill="#fff" stroke="#2e2d75" stroke-miterlimit="10" stroke-width="2"/><line x1="331.97" y1="107.56" x2="313.23" y2="137.16" fill="none" stroke="#2e2d75" stroke-miterlimit="10" stroke-width="2"/><line x1="327.78" y1="115.55" x2="333.7" y2="150.54" fill="none" stroke="#2e2d75" stroke-miterlimit="10" stroke-width="2"/><path d="M337.33,153.28H365c-1.45-28.58-12.44-60.15-17.56-71.42s-12.19-5.63-12.19-5.63" fill="none" stroke="#2e2d75" stroke-miterlimit="10" stroke-width="2"/><path d="M335.25,71.1s10.92-7.84,14.23,5.08c0,0,.84,8.24.46,12" fill="none" stroke="#2e2d75" stroke-miterlimit="10" stroke-width="2"/><path d="M348.5,172.23h33s.68-4-11.77-7.39-15.12-11.56-15.12-11.56l-15.91.72S347.31,163.47,348.5,172.23Z" fill="#2e2d75" stroke="#2e2d75" stroke-miterlimit="10" stroke-width="2"/><path d="M317.42,278.6s-2.63,11.56-2.7,18.27h35.89s-.2-3.58-10.53-5.45-11.43-12.82-11.43-12.82Z" fill="#2e2d75" stroke="#2e2d75" stroke-miterlimit="10" stroke-width="2"/><path d="M263.1,53.51s7.9-4.57,5.78-16S264.52,16,276.59,11.71s19.68,6.71,19.68,6.71,5.59,8.38,5.7,15.2.78,20.46,9.72,23.59,19.95,7.24,19.09,13.35" fill="none" stroke="#2e2d75" stroke-miterlimit="10" stroke-width="2"/><path d="M268.24,47,280,34.49s-8.42-4.72-3.71-9.44,8.3,5.53,8.3,5.53l10.91-6.14V38.13s.07,8.69-4.58,9.3-10.51-1.55-10.51-1.55V60.34" fill="none" stroke="#2e2d75" stroke-miterlimit="10" stroke-width="2"/><path d="M269.27,45.28l10-10.75L274.78,30l.57-4.55,3.9-1.85,4.16,3.32,1.77,3.33L296,23.81l-.46,17.44-2.49,6-5.63.83-6.65-1.79.06,5.57v8.95l3.2,6.47,3.39,9.34,2.18,7.81L291,89.69l39.42-19.46-.64-4.15-7.56-5.19-10.36-4.25-3.52-.8-3.2-5.51-3-11.47-.1-8.23-4.16-10.37-4.16-5.12-5.25-3.39s-9.21-3.52-16.38,1.6-3.91,18.11-3.91,18.11l1.35,9.19Z" fill="#2e2d75"/><path d="M258.49,202.49h0a11.23,11.23,0,0,0,11.23,11.23h17" fill="none" stroke="#fff" stroke-miterlimit="10" stroke-width="2"/><polyline points="138.69 326 138.69 256 204.69 256" fill="#fff" stroke="#2d2f75" stroke-miterlimit="10" stroke-width="2"/><polyline points="149.19 304 149.19 266.5 182.69 266.5" fill="#fff" stroke="#2d2f75" stroke-miterlimit="10" stroke-width="2"/><polyline points="900.69 629 900.69 569 813.32 569 813.32 502 813.69 502 717.69 502" fill="none" stroke="#2e2d75" stroke-miterlimit="10" stroke-width="2"/><circle cx="943.5" cy="797.5" r="173.5" fill="none" stroke="#2e2d75" stroke-miterlimit="10" stroke-width="2"/><path d="M1093,810s-9,11-27,10c0,0-8.8,8.08-10.4,16,0,0-4.6,37,13.4,86l3,14,15,0,43.23-47S1121,829,1093,810Z" fill="#fff" stroke="#2e2d75" stroke-miterlimit="10" stroke-width="2"/><polyline points="1075 860 1051.3 876.57 1036.02 855.62 1067 827" fill="#fff" stroke="#2e2d75" stroke-miterlimit="10" stroke-width="2"/><line x1="1070.18" y1="820.1" x2="1067" y2="807" fill="#fff" stroke="#2e2d75" stroke-miterlimit="10" stroke-width="2"/><path d="M1038.08,783.11l15.12,24.59a8.75,8.75,0,0,0,12.51,2.54l11.41-8.12" fill="#fff" stroke="#2e2d75" stroke-miterlimit="10" stroke-width="2"/><path d="M1023.48,773.47s6.44,15.77,21.78,8.42,15,10.55,15,10.55l2.7-1.3s-3.38-11.69,2-9.81,8.28,12.67,8.71,13.57,9.73,6.43,9.73,6.43l4.12-5.3s-8.48-1.48-9.19-12.23-1.66-33.58-18.76-27.61-22.58,13-25.29,14.33S1023.48,773.47,1023.48,773.47Z" fill="#2e2d75" stroke="#2e2d75" stroke-miterlimit="10" stroke-width="2"/><line x1="1083" y1="801" x2="1090.87" y2="812.09" fill="#2e2d75" stroke="#2e2d75" stroke-miterlimit="10" stroke-width="2"/><polyline points="1038 854 1038.56 835.55 1066 820" fill="none" stroke="#2e2d75" stroke-miterlimit="10" stroke-width="2"/><rect x="959" y="825" width="28" height="28" fill="#2e2d75" stroke="#2e2d75" stroke-miterlimit="10" stroke-width="2"/><path d="M983.5,829.9s-.7,5.6-8.4,10.5-9.1,9.8-9.8,10.5" fill="none" stroke="#fff" stroke-miterlimit="10"/><path d="M980.35,828.85s-6.3,9.1-11.9,7.7-4.2-7.7-4.2-7.7" fill="none" stroke="#fff" stroke-miterlimit="10"/><path d="M962.15,837.25a21.21,21.21,0,0,0,4.9,3.5c2.8,1.4-4.9,8.4-4.9,8.4" fill="none" stroke="#fff" stroke-miterlimit="10"/><path d="M969.85,849.85s5.6-7,11.2-5.6" fill="none" stroke="#fff" stroke-miterlimit="10"/><path d="M988,844s3,1,3,5a24.42,24.42,0,0,0,1,7l26,17,19-15" fill="none" stroke="#2e2d75" stroke-miterlimit="10" stroke-width="2"/><path d="M969.85,853s1.15,3,4.15,3,11,4,11,4l28.46,30.26a10,10,0,0,0,5.62,1.74h0a9.92,9.92,0,0,0,5.38-1.59L1050,875" fill="none" stroke="#2e2d75" stroke-miterlimit="10" stroke-width="2"/><path d="M1072,936s-7,41.82-6.47,46.41L1094,982l2-46Z" fill="#2e2d75" stroke="#2e2d75" stroke-miterlimit="10" stroke-width="2"/><path d="M780,920s-4-100,36-100,51,162,51,162" fill="#fff" stroke="#2e2d75" stroke-miterlimit="10" stroke-width="2"/><line x1="825.84" y1="823.5" x2="826" y2="811" fill="none" stroke="#2e2d75" stroke-miterlimit="10" stroke-width="2"/><path d="M818.67,810.51l4.74.94a9.58,9.58,0,0,0,11.2-7.28l4.47-19.61" fill="none" stroke="#2e2d75" stroke-miterlimit="10" stroke-width="2"/><path d="M844.6,774.91a12.78,12.78,0,0,1-7.14,10.76c-8.14,4-21.11,12.52-23.89,26.57l-6.69,26.16a12.72,12.72,0,0,1-16.46,8.87l-7.81-2.69a12.72,12.72,0,0,1-7.3-17.58l29.18-60.07a12.72,12.72,0,0,1,12.8-7.08l16,1.71a12.73,12.73,0,0,1,11.34,13.33Z" fill="#2e2d75" stroke="#2e2d75" stroke-miterlimit="10" stroke-width="2"/><path d="M848,917s1,21-13,26" fill="#fff" stroke="#2e2d75" stroke-miterlimit="10" stroke-width="2"/><line x1="736.5" y1="982.5" x2="1250.5" y2="982.5" fill="none" stroke="#2e2d75" stroke-miterlimit="10" stroke-width="2"/><polyline points="1183.89 1171 1183.89 1072.5 1250.2 1006.2" fill="none" stroke="#2e2d75" stroke-miterlimit="10" stroke-width="2"/><line x1="800.97" y1="1171" x2="800.97" y2="1116" fill="none" stroke="#2e2d75" stroke-miterlimit="10" stroke-width="2"/><circle cx="1131" cy="1102" r="21" fill="none" stroke="#2e2d75" stroke-miterlimit="10" stroke-width="2"/><circle cx="1071" cy="1102" r="21" fill="none" stroke="#2e2d75" stroke-miterlimit="10" stroke-width="2"/><line x1="1167" y1="1002" x2="980" y2="1002" fill="none" stroke="#2e2d75" stroke-miterlimit="10" stroke-width="2"/><line x1="741" y1="1006" x2="788.5" y2="1053.5" fill="#2e2d75" stroke="#2e2d75" stroke-miterlimit="10" stroke-width="2"/><rect x="1087" y="904" width="12" height="60" fill="#fff" stroke="#2e2d75" stroke-miterlimit="10" stroke-width="2"/><polygon points="1241.6 982.41 1241.6 822 1205 807 1144 889 1094 889 1094 982 1241.6 982.41" fill="#2e2d75" stroke="#2e2d75" stroke-miterlimit="10" stroke-width="2"/><circle cx="1119" cy="914" r="8" fill="#fff" stroke="#2e2d75" stroke-miterlimit="10" stroke-width="2"/><circle cx="1119" cy="936" r="8" fill="#fff" stroke="#2e2d75" stroke-miterlimit="10" stroke-width="2"/><rect x="774" y="936" width="26" height="32" fill="#fff" stroke="#2e2d75" stroke-miterlimit="10" stroke-width="2"/><polygon points="800 956 838 956 843 952 838 948 800 948 800 956" fill="#fff" stroke="#2e2d75" stroke-miterlimit="10" stroke-width="2"/><polygon points="744.81 982.5 744.81 921 782 921 805.84 982.5 744.81 982.5" fill="#2e2d75" stroke="#2e2d75" stroke-miterlimit="10" stroke-width="2"/><path d="M981,824s4-3,7-2,3,5,4,7a39.33,39.33,0,0,1,2,6l24,13,20-9" fill="none" stroke="#2e2d75" stroke-miterlimit="10" stroke-width="2"/><path d="M1033,861l-13.21,2.79a6.22,6.22,0,0,1-1.6.21h-1.1a6.3,6.3,0,0,1-5-2.45L990,840h-2" fill="none" stroke="#2e2d75" stroke-miterlimit="10" stroke-width="2"/><path d="M814,830l111,12v31s-59,9-103-19" fill="#fff" stroke="#2e2d75" stroke-miterlimit="10" stroke-width="2"/><path d="M953,845l-26.18-.94L939,844s0-8-5-4-7.18,4.06-7.18,4.06L925,844v14.5s10-1.5,11-1.5,3-1,3-2a10.56,10.56,0,0,1,2-5c1-1,6-1,10-2S953,845,953,845Z" fill="#2e2d75" stroke="#2e2d75" stroke-miterlimit="10" stroke-width="2"/><path d="M851,867s17,57,19,73l-6.93,3.2" fill="none" stroke="#2e2d75" stroke-miterlimit="10" stroke-width="2"/></svg>