<svg xmlns="http://www.w3.org/2000/svg" viewBox="0 0 1539.06 2505"><title>s1-s5-08-01</title><circle cx="456.49" cy="1286" r="119" fill="none" stroke="#2e2d75" stroke-miterlimit="10" stroke-width="2"/><line x1="907.49" y1="1101" x2="1385.49" y2="1101" fill="none" stroke="#2e2d75" stroke-miterlimit="10" stroke-width="2"/><polyline points="907.49 1101 547.49 1461 235.49 1461 235.49 1212 382.49 1065" fill="none" stroke="#2e2d75" stroke-miterlimit="10" stroke-width="2"/><polyline points="764.99 2272 764.99 1855.5 861.99 1855.5 862.99 1855.5 862.99 1758.5 959.99 1758.5 960.99 1758.5 960.99 1661.5 1057.99 1661.5 1058.99 1661.5 1058.99 1564.5 1155.99 1564.5 1156.99 1564.5 1156.99 1467.5 1253.99 1467.5 1397.49 1467.5 1397.49 1952 993.49 1952" fill="none" stroke="#2e2d75" stroke-miterlimit="10" stroke-width="2"/><line x1="1058.99" y1="1659.01" x2="1058.99" y2="1733" fill="none" stroke="#2e2d75" stroke-miterlimit="10" stroke-width="2"/><path d="M1345.49,1867c0,9-14,44-14,44,4,5,0,0,8,11s42,2,42,2a154.35,154.35,0,0,1,11-40c9-21,5.12-50.53-4-56-10-6-20-2-26,2s-28,17-28,17l-3,24s19-5,24-5,9-7,9-7" fill="none" stroke="#2e2d75" stroke-miterlimit="10" stroke-width="2"/><path d="M1381.49,1924s-2,28-36,28-55-52-55-52l-19,36h-23l22.11-49a22.18,22.18,0,0,1,20.21-13h0a22.2,22.2,0,0,1,15.06,5.9l34.62,34.1S1368.49,1923,1381.49,1924Z" fill="#2e2d75" stroke="#2e2d75" stroke-miterlimit="10" stroke-width="2"/><path d="M1231.52,1952s-1-6,3-7,18-8,18-8h16s5,2,4,7a16.91,16.91,0,0,0,0,8Z" fill="none" stroke="#2e2d75" stroke-miterlimit="10" stroke-width="2"/><line x1="1265.49" y1="1799" x2="1277.49" y2="1836" fill="none" stroke="#2e2d75" stroke-miterlimit="10" stroke-width="2"/><path d="M1268.49,1800l3.42-1.14a2.68,2.68,0,0,1,3.39,1.7v0l8.18,26.41" fill="none" stroke="#2e2d75" stroke-miterlimit="10" stroke-width="2"/><path d="M1334.27,1848.77l-29.78,7.23-22-19s5-9,3-11-3-1-4,2-7-4-11-11-2,3-2,3,0,12,6,20l22.18,30.5a6.09,6.09,0,0,0,4.92,2.5h3a5.8,5.8,0,0,0,1.71-.25l25.16-3.75Z" fill="#fff" stroke="#2e2d75" stroke-miterlimit="10" stroke-width="2"/><line x1="1368.07" y1="1827" x2="1366.49" y2="1819" fill="none" stroke="#2e2d75" stroke-miterlimit="10" stroke-width="2"/><path d="M1355.49,1798l3.4,15.61a7.15,7.15,0,0,0,8.49,5.47l.39-.1,10.72-3" fill="none" stroke="#2e2d75" stroke-miterlimit="10" stroke-width="2"/><path d="M1368.49,1798a32.18,32.18,0,0,0-8,1c-3,1-8,0-8,0l-2-1s-2-4-1-6-2-4,1-4a5.88,5.88,0,0,0,5-2c1-1,0-2,3-2s9-1,10-1,2.94.8,6,0c4.18-1.09,10.61,4.35,7,9,0,0-2-2,0,2s3,6,3,8,1,6,0,7-2,2-2,3,1,4-1,0-1,0-3-6-1-6-3-7a47.8,47.8,0,0,0-5-2s3,5,2,7,5,5,0,2-4-3-5-5a2.2,2.2,0,0,1,.92-3Z" fill="#2e2d75" stroke="#2e2d75" stroke-miterlimit="10" stroke-width="2"/><line x1="1381.49" y1="1810" x2="1382.49" y2="1825" fill="none" stroke="#2e2d75" stroke-miterlimit="10" stroke-width="2"/><rect x="1133.49" y="1949" width="84" height="3" fill="#2e2d75" stroke="#2e2d75" stroke-miterlimit="10" stroke-width="2"/><path d="M1224.25,1909h-58.32a1.79,1.79,0,0,0-1.75,1.4l-8.69,38.6h62l8.51-37.81a1.8,1.8,0,0,0-1.37-2.15A1.58,1.58,0,0,0,1224.25,1909Z" fill="none" stroke="#2e2d75" stroke-miterlimit="10" stroke-width="2"/><line x1="1213.49" y1="1913" x2="1166.49" y2="1930" fill="none" stroke="#2e2d75" stroke-miterlimit="10" stroke-width="2"/><line x1="1216.49" y1="1919" x2="1189.49" y2="1942" fill="none" stroke="#2e2d75" stroke-miterlimit="10" stroke-width="2"/><path d="M779.49,502h-632c-112.92,0-112.92-304,0-304h632C883.42,198,883.42,502,779.49,502Z" fill="none" stroke="#2e2d75" stroke-miterlimit="10" stroke-width="2"/><rect x="179.03" y="522.39" width="160.16" height="22.19" rx="7.97" fill="#302d77" stroke="#2e2d75" stroke-miterlimit="10" stroke-width="2"/><rect x="179.03" y="379.96" width="160.16" height="22.19" rx="7.97" fill="#302d77" stroke="#2e2d75" stroke-miterlimit="10" stroke-width="2"/><path d="M190.63,522.39c26.09-78.66,0-120.25,0-120.25H328.1s-26.09,41.59,0,120.25" fill="#fff" stroke="#2d2f75" stroke-miterlimit="10" stroke-width="2"/><line x1="312.13" y1="408.82" x2="249.4" y2="516.21" fill="none" stroke="#2d2f75" stroke-miterlimit="10" stroke-width="2"/><line x1="292.17" y1="408.82" x2="249.4" y2="481.52" fill="none" stroke="#2d2f75" stroke-miterlimit="10" stroke-width="2"/><path d="M190.12,380s69-30.54,138,0" fill="none" stroke="#2d2f75" stroke-miterlimit="10" stroke-width="2"/><line x1="230.67" y1="544.58" x2="396.49" y2="544.58" fill="none" stroke="#2d2f75" stroke-miterlimit="10" stroke-width="2"/><line x1="530.49" y1="545" x2="569.49" y2="545" fill="none" stroke="#2d2f75" stroke-miterlimit="10" stroke-width="2"/><line x1="609.49" y1="545" x2="710.49" y2="545" fill="none" stroke="#2d2f75" stroke-miterlimit="10" stroke-width="2"/><line x1="646.49" y1="544" x2="646.49" y2="173" fill="none" stroke="#2d2f75" stroke-miterlimit="10" stroke-width="2"/><line x1="557.49" y1="544" x2="557.49" y2="173" fill="none" stroke="#2d2f75" stroke-miterlimit="10" stroke-width="2"/><line x1="557.1" y1="482.85" x2="637.49" y2="482.85" fill="none" stroke="#2e2d75" stroke-miterlimit="10" stroke-width="2"/><line x1="557.1" y1="416" x2="636.1" y2="415.85" fill="none" stroke="#2e2d75" stroke-miterlimit="10" stroke-width="2"/><line x1="557.1" y1="349" x2="637.1" y2="348.85" fill="none" stroke="#2e2d75" stroke-miterlimit="10" stroke-width="2"/><line x1="557.1" y1="282" x2="636.1" y2="281.85" fill="none" stroke="#2e2d75" stroke-miterlimit="10" stroke-width="2"/><line x1="557.1" y1="215" x2="636.1" y2="214.85" fill="none" stroke="#2e2d75" stroke-miterlimit="10" stroke-width="2"/><polyline points="719.49 173 214.49 173 214.49 0" fill="none" stroke="#2e2d75" stroke-miterlimit="10" stroke-width="2"/><path d="M360.78,40.65l-3.47-19.54L337.52,18.4,333.05,25V36l-3.74,15.25s5.35-1.84,14.37,9.82,15.08-14.53,15.08-14.53Z" fill="#fff" stroke="#2e2d75" stroke-miterlimit="10" stroke-width="2"/><path d="M322.74,55.1s9.15-8,13.34-1a14.54,14.54,0,0,1,1.73,5.52c1.89,13.22,4.69,35.09,8.4,53.34.69,3.43,1.42,6.73,2.18,9.82C353.2,142.31,368,204.19,368,223.11H309.6V172.45s-14.11-3.85-14.11-24S306.07,69.21,322.74,55.1Z" fill="#2e2d75" stroke="#2e2d75" stroke-miterlimit="10" stroke-width="2"/><path d="M346.21,112.93l50.3-21.46V68.59l-44,22S345.13,57.2,334.8,52.5" fill="none" stroke="#2e2d75" stroke-miterlimit="10" stroke-width="2"/><path d="M348.49,119.81,397.72,152a43.2,43.2,0,0,1,14,35.55l-7.65,90.67H366.74s7.17-64.13,17.14-91.64c0,0-15.76-6.59-22.52-11.1Z" fill="#fff" stroke="#2e2d75" stroke-miterlimit="10" stroke-width="2"/><line x1="393.78" y1="107.56" x2="375.04" y2="137.16" fill="none" stroke="#2e2d75" stroke-miterlimit="10" stroke-width="2"/><line x1="389.58" y1="115.55" x2="395.5" y2="150.54" fill="none" stroke="#2e2d75" stroke-miterlimit="10" stroke-width="2"/><path d="M399.13,153.28H426.8c-1.44-28.58-12.44-60.15-17.55-71.42s-12.19-5.63-12.19-5.63" fill="none" stroke="#2e2d75" stroke-miterlimit="10" stroke-width="2"/><path d="M397.06,71.1s10.92-7.84,14.22,5.08c0,0,.84,8.24.46,12" fill="none" stroke="#2e2d75" stroke-miterlimit="10" stroke-width="2"/><path d="M410.3,172.23h33s.69-4-11.77-7.39-15.12-11.56-15.12-11.56L400.5,154S409.11,163.47,410.3,172.23Z" fill="#2e2d75" stroke="#2e2d75" stroke-miterlimit="10" stroke-width="2"/><path d="M379.22,278.6s-2.63,11.56-2.7,18.27h35.9s-.21-3.58-10.54-5.45-11.43-12.82-11.43-12.82Z" fill="#2e2d75" stroke="#2e2d75" stroke-miterlimit="10" stroke-width="2"/><path d="M324.9,53.51s7.9-4.57,5.78-16-4.36-21.51,7.71-25.8,19.68,6.71,19.68,6.71,5.59,8.38,5.7,15.2.78,20.46,9.73,23.59,19.94,7.24,19.08,13.35" fill="none" stroke="#2e2d75" stroke-miterlimit="10" stroke-width="2"/><path d="M330,47l11.77-12.48s-8.43-4.72-3.71-9.44,8.29,5.53,8.29,5.53l10.92-6.14V38.13s.07,8.69-4.59,9.3-10.51-1.55-10.51-1.55V60.34" fill="none" stroke="#2e2d75" stroke-miterlimit="10" stroke-width="2"/><path d="M331.08,45.28l10-10.75L336.58,30l.57-4.55,3.91-1.85,4.16,3.32L347,30.24l10.78-6.43-.45,17.44-2.49,6-5.64.83-6.65-1.79.06,5.57v9l3.2,6.47,3.39,9.34,2.18,7.81,1.47,5.31,39.42-19.46-.64-4.15-7.55-5.19-10.37-4.25-3.52-.8L367,50.33l-3-11.47-.1-8.23-4.16-10.37-4.16-5.12-5.24-3.39s-9.22-3.52-16.39,1.6S330,31.46,330,31.46l1.36,9.19Z" fill="#2e2d75"/><path d="M320.29,202.49h0a11.23,11.23,0,0,0,11.23,11.23h17" fill="none" stroke="#fff" stroke-miterlimit="10" stroke-width="2"/><polyline points="200.49 326 200.49 256 266.49 256" fill="#fff" stroke="#2d2f75" stroke-miterlimit="10" stroke-width="2"/><polyline points="210.99 304 210.99 266.5 244.49 266.5" fill="#fff" stroke="#2d2f75" stroke-miterlimit="10" stroke-width="2"/><polyline points="962.49 629 962.49 569 875.12 569 875.12 502 875.49 502 779.49 502" fill="none" stroke="#2e2d75" stroke-miterlimit="10" stroke-width="2"/><path d="M494.75,1390.46c-.07-.13-6.66-11.36-6.66-11.36l-53.4,4.35-2.45.2a49,49,0,0,0-5.06,17.25s35.42,10.3,65.81-2.4Z" fill="#302d77" stroke="#2e2d75" stroke-miterlimit="10" stroke-width="0.5"/><path d="M436,1370.46s1.94,5-1.31,13" fill="none" stroke="#2e2d75" stroke-miterlimit="10" stroke-width="2"/><path d="M484.63,1363.88a38.65,38.65,0,0,0,.73,15.22" fill="none" stroke="#2e2d75" stroke-miterlimit="10" stroke-width="2"/><path d="M426.49,1336.2c3.34,8.13,4.6,34.26,4.6,34.26l56.92-7s-2.85-21-1.22-29" fill="none" stroke="#2e2d75" stroke-miterlimit="10" stroke-width="2"/><path d="M482.72,1325.31l9.4,21.24s1.6-30.55,11.1-26.41c4.48,2.25.79,22,.79,22" fill="none" stroke="#2e2d75" stroke-linejoin="bevel" stroke-width="2"/><path d="M461.12,1298.7c8.86-.2,16.87-.26,20.69-.28a8.47,8.47,0,0,1,5.95,2.4L504,1320.75" fill="none" stroke="#2e2d75" stroke-miterlimit="10" stroke-width="2"/><path d="M412,1326.41l10.88-22.59a8.48,8.48,0,0,1,5.4-3.22,201.93,201.93,0,0,1,20.26-1.52" fill="none" stroke="#2e2d75" stroke-miterlimit="10" stroke-width="2"/><path d="M412.33,1348.91s-4.47-23.34,1.82-24.39c9.17-1.54,9.06,25.71,9.06,25.71l5.58-23.82" fill="none" stroke="#2e2d75" stroke-miterlimit="10" stroke-width="2"/><path d="M460.8,1297.81l2.1,9.32a5.26,5.26,0,0,1-5,5.48l-3.43.11a5.25,5.25,0,0,1-5.48-5l.22-9.45" fill="none" stroke="#2e2d75" stroke-miterlimit="10" stroke-width="2"/><line x1="449.19" y1="1298.97" x2="449.19" y2="1290.39" fill="none" stroke="#2e2d75" stroke-miterlimit="10" stroke-width="2"/><path d="M443.47,1267.75v16.43a6.61,6.61,0,0,0,6.42,6.78h6.38" fill="none" stroke="#2e2d75" stroke-miterlimit="10" stroke-width="2"/><path d="M464.39,1273.64s0,15.29-4.93,16.77l1.47,8.12" fill="none" stroke="#2e2d75" stroke-miterlimit="10" stroke-width="2"/><path d="M440.87,1268.45s5.15,1.36,9-1.88c0,0,2.91,7.53,20.79,8.26" fill="none" stroke="#2e2d75" stroke-miterlimit="10" stroke-width="2"/><path d="M436.94,1299l-.43-31.76a19.69,19.69,0,0,1,19.38-20h.31a19.69,19.69,0,0,1,19.58,17.52l3.18,33.77" fill="none" stroke="#2e2d75" stroke-miterlimit="10" stroke-width="2"/><polyline points="416.05 1325.31 411.62 1351.59 413.24 1390.76 409.03 1395.13" fill="none" stroke="#2e2d75" stroke-miterlimit="10" stroke-width="2"/><polyline points="423.21 1350.23 423.21 1352.4 420.85 1391.57 422.03 1395.78 423.49 1400" fill="none" stroke="#2e2d75" stroke-miterlimit="10" stroke-width="2"/><polyline points="499.36 1320.47 504.69 1346.38 503.07 1385.56 507.27 1389.93 507.98 1392.23" fill="none" stroke="#2e2d75" stroke-miterlimit="10" stroke-width="2"/><polygon points="448.5 1298.42 448.5 1291.69 445.11 1289.83 442.99 1286.09 442.99 1268.13 447.65 1267.38 449.88 1265.64 451.62 1268.13 455.94 1271.25 461.93 1273.1 465.07 1273.95 464.64 1278.13 463.59 1284.7 461.93 1289.09 460.14 1290.96 461.47 1297.81 478.3 1297.81 475.44 1264.84 471.95 1254.1 464.39 1248.38 455.77 1246.74 445.43 1249.97 438.75 1258.7 436.9 1266.57 437.43 1299.08 448.5 1298.42" fill="#302d77"/><polyline points="495.18 1391.22 493.61 1397.8 495.18 1391.22 495.57 1387.69 492.3 1348.01 492.3 1344.06" fill="none" stroke="#2e2d75" stroke-miterlimit="10" stroke-width="2"/><path d="M428,2115.12l16-2L439.66,2053a11.71,11.71,0,0,0-12.16-11h0a11.71,11.71,0,0,0-11.19,12.19,12.87,12.87,0,0,0,.19,1.64Z" fill="#2e2d75" stroke="#2e2d75" stroke-miterlimit="10" stroke-width="2"/><path d="M468.11,2114.27l16.09,1.06,7.86-65a11.72,11.72,0,0,0-9.86-13.12h0a11.69,11.69,0,0,0-13.45,11.5Z" fill="#2e2d75" stroke="#2e2d75" stroke-miterlimit="10" stroke-width="2"/><path d="M466.56,2128s.93-10,8.93-10,9.31,10,9.31,10Z" fill="none" stroke="#2e2d75" stroke-miterlimit="10" stroke-width="2"/><path d="M427.56,2128s.93-10,8.93-10,9.31,10,9.31,10Z" fill="none" stroke="#2e2d75" stroke-miterlimit="10" stroke-width="2"/><path d="M464.49,1974l-7-2s-1,6-8,5-7-5-7-5l-3.23-.56" fill="none" stroke="#2e2d75" stroke-miterlimit="10" stroke-width="2"/><path d="M437.06,2038.65s8.43,6.35,16.43,11.35,16.59-6.67,16.59-6.67" fill="none" stroke="#2e2d75" stroke-miterlimit="10" stroke-width="2"/><path d="M478,2018.44s4.82,17.65,8.17,20.11" fill="none" stroke="#2e2d75" stroke-miterlimit="10" stroke-width="2"/><path d="M455.49,1968s13,0,20,8,14,34,14,34l-6,3" fill="none" stroke="#2e2d75" stroke-miterlimit="10" stroke-width="2"/><path d="M488.49,2011l4,15,10,28s8,3,9,6h-11c-2,0-5.84-5.14-5.84-5.14" fill="#fff" stroke="#2e2d75" stroke-miterlimit="10" stroke-width="2"/><path d="M479.49,2002a172.38,172.38,0,0,0,9,24c6,13,6.52,35,6.52,35,.51-14-8.83-29.78-14.52-38-9-13-17-52-17-52" fill="none" stroke="#2e2d75" stroke-miterlimit="10" stroke-width="2"/><path d="M429.49,2019s-16,19-17,31,0,8,0,8a15.28,15.28,0,0,1,6.5-12.87,17.78,17.78,0,0,1,8.65-3.18c2.79-.31,8.12-1.66,14.85-7,14-11-4-65-4-65s-8,7-18-7a90.22,90.22,0,0,1-6-9l-8,18s7,12,17,14C423.49,1986,433.71,2011.48,429.49,2019Z" fill="none" stroke="#2e2d75" stroke-linejoin="bevel" stroke-width="2"/><line x1="443.49" y1="1974" x2="444.92" y2="1962.68" fill="none" stroke="#2e2d75" stroke-miterlimit="10" stroke-width="2"/><line x1="455.49" y1="1975" x2="454.97" y2="1965.47" fill="none" stroke="#2e2d75" stroke-miterlimit="10" stroke-width="2"/><path d="M443.49,1941l-2.75,13.34A7.58,7.58,0,0,0,446,1963h0a7.6,7.6,0,0,0,9.21-4.26l.31-.73" fill="none" stroke="#2e2d75" stroke-miterlimit="10" stroke-width="2"/><path d="M447.49,1940a45.73,45.73,0,0,0,7,11c5,6-2,32-2,33s-2,9,6,8,15-8,16-12,1-44-21-47c-12-1-14,12-14,12s-1,5,1,9l3-13A9.93,9.93,0,0,0,447.49,1940Z" fill="#2e2d75" stroke="#2e2d75" stroke-miterlimit="10" stroke-width="2"/><path d="M440.27,2060.52c8.6-.05,18,.95,26.5-.2,5.52-.74,6.76-5.56,6.07-10.43-.24-1.71-2.41-2.14-3.67-1.5l-8,4.09,3,3.93,5.79-5c2.12-1.83-.71-5.59-3-3.93-3.75,2.69-7.21,4.6-11.82,3a44.11,44.11,0,0,1-7.91-3.61c-3.24-1.92-9.53-9.93-14.1-6.85-4.08,2.76-.45,7.32,2.6,8.72,3.59,1.66,7.06,2,10.27,4.53a22.63,22.63,0,0,0,8.43,4.15l.66-4.91c-4.61.52-11.26,1.86-15.77.38l1.75,1.75a16.49,16.49,0,0,0,.88-2.47l-3.67,1.49a78.56,78.56,0,0,0,11.52,4.3c3.19.91,4.22-3.63,1.33-4.82s-5.93-2.31-9-3.3-4.38,3.82-1.33,4.82,6,2.09,9,3.3l1.33-4.82a71.67,71.67,0,0,1-10.32-3.79,2.56,2.56,0,0,0-3.47,1,2.41,2.41,0,0,0-.21.5c-.89,2.63-2.06,5.27.87,6.87,1.75,1,4.45.48,6.37.47a98.55,98.55,0,0,0,10.72-.67c2.66-.3,3.57-4.09.67-4.91-5.19-1.47-8.83-5.31-14-7.07-1.24-.42-2.64-1.38-3.7-.37s.82,1.84,1.94,2.72a42,42,0,0,0,6.11,4.14c2.22,1.17,4.62,1.79,6.78,3.07,1.3.78,2.18,1.48,3.8,1.58,4.38.29,9.32-2.47,12.75-4.92l-3-3.92-5.79,5c-2.24,1.94.61,5.16,3,3.93l8-4.09-3.67-1.49c.86,6.11-9.19,4.19-13.17,4.21l-14.58.09c-3.21,0-3.22,5,0,5Z" fill="#2e2d75"/><rect x="666.49" y="1876" width="11" height="185" fill="none" stroke="#2e2d75" stroke-miterlimit="10" stroke-width="2"/><rect x="235.49" y="1876" width="11" height="185" fill="none" stroke="#2e2d75" stroke-miterlimit="10" stroke-width="2"/><line x1="115.49" y1="2061" x2="814.49" y2="2061" fill="none" stroke="#2e2d75" stroke-miterlimit="10" stroke-width="2"/><polyline points="0.49 2200 246.49 2061 246.49 2117 235.49 2128 235.49 2180 224.49 2195 224.49 2252 213.49 2269 213.49 2325" fill="none" stroke="#2e2d75" stroke-miterlimit="10" stroke-width="2"/><polyline points="765.49 2117 666.49 2061 666.49 2117 677.49 2128 677.49 2180 688.49 2195 688.49 2252" fill="none" stroke="#2e2d75" stroke-miterlimit="10" stroke-width="2"/><line x1="224.49" y1="2195" x2="468.49" y2="2195" fill="none" stroke="#2e2d75" stroke-miterlimit="10" stroke-width="2"/><line x1="677.49" y1="2128" x2="629.49" y2="2128" fill="none" stroke="#2e2d75" stroke-miterlimit="10" stroke-width="2"/><line x1="687.49" y1="2195" x2="663.49" y2="2195" fill="none" stroke="#2e2d75" stroke-miterlimit="10" stroke-width="2"/><line x1="246.49" y1="2117" x2="281.49" y2="2117" fill="none" stroke="#2e2d75" stroke-miterlimit="10" stroke-width="2"/><line x1="235.49" y1="2128" x2="309.49" y2="2128" fill="none" stroke="#2e2d75" stroke-miterlimit="10" stroke-width="2"/><line x1="429.49" y1="2180" x2="568.49" y2="2180" fill="none" stroke="#2e2d75" stroke-miterlimit="10" stroke-width="2"/><line x1="383.49" y1="2128" x2="522.49" y2="2128" fill="none" stroke="#2e2d75" stroke-miterlimit="10" stroke-width="2"/><line x1="777.49" y1="2088" x2="831.49" y2="2088" fill="none" stroke="#2e2d75" stroke-miterlimit="10" stroke-width="2"/><rect x="246.49" y="1876" width="420" height="9" fill="none" stroke="#2e2d75" stroke-miterlimit="10" stroke-width="2"/><line x1="213.49" y1="2269" x2="357.49" y2="2269" fill="none" stroke="#2e2d75" stroke-miterlimit="10" stroke-width="2"/><line x1="246.49" y1="2325" x2="457.49" y2="2325" fill="none" stroke="#2e2d75" stroke-miterlimit="10" stroke-width="2"/><polygon points="600.88 1995.36 612.76 1999.2 574.82 1965.87 590.97 1992.16 597.19 1994.17 600.88 1995.36" fill="#fff" stroke="#2e2d75" stroke-linejoin="round" stroke-width="2"/><polyline points="574.82 1965.87 558.85 1980.16 585.56 1990.14" fill="#fff" stroke="#2e2d75" stroke-miterlimit="10" stroke-width="2"/><polygon points="574.82 1965.87 585.56 1990.14 586.25 2002.72 590.97 1992.16 574.82 1965.87" fill="#fff" stroke="#2e2d75" stroke-linejoin="bevel" stroke-width="2"/><line x1="586.23" y1="2002.38" x2="581.95" y2="1988.79" fill="none" stroke="#2e2d75" stroke-miterlimit="10" stroke-width="2"/><polygon points="345.04 1789.41 335.86 1783.55 379.33 1790.55 352.7 1794.29 347.89 1791.23 345.04 1789.41" fill="#fff" stroke="#2e2d75" stroke-linejoin="round" stroke-width="2"/><polyline points="379.33 1790.55 378.59 1809.21 357.06 1796.81" fill="#fff" stroke="#2e2d75" stroke-miterlimit="10" stroke-width="2"/><polygon points="379.33 1790.55 357.06 1796.81 348.22 1803.33 352.7 1794.29 379.33 1790.55" fill="#fff" stroke="#2e2d75" stroke-linejoin="bevel" stroke-width="2"/><line x1="348.46" y1="1803.15" x2="359.97" y2="1798.48" fill="none" stroke="#2e2d75" stroke-miterlimit="10" stroke-width="2"/><polygon points="155.97 1951.52 146.31 1959.82 195.48 1944.51 164.02 1944.59 158.96 1948.94 155.97 1951.52" fill="#fff" stroke="#2e2d75" stroke-linejoin="round" stroke-width="2"/><polyline points="195.48 1944.51 191.52 1923.02 168.65 1940.96" fill="#fff" stroke="#2e2d75" stroke-miterlimit="10" stroke-width="2"/><polygon points="195.48 1944.51 168.65 1940.96 157.33 1934.88 164.02 1944.59 195.48 1944.51" fill="#fff" stroke="#2e2d75" stroke-linejoin="bevel" stroke-width="2"/><line x1="157.64" y1="1935.04" x2="171.74" y2="1938.54" fill="none" stroke="#2e2d75" stroke-miterlimit="10" stroke-width="2"/><polygon points="615.31 2204.95 632.13 2202.6 573.48 2238.34 601.28 2206.91 610.09 2205.68 615.31 2204.95" fill="#fff" stroke="#2e2d75" stroke-linejoin="round" stroke-width="2"/><polyline points="573.48 2238.34 555.45 2215.45 593.56 2208.35" fill="#fff" stroke="#2e2d75" stroke-miterlimit="10" stroke-width="2"/><polygon points="573.48 2238.34 593.56 2208.35 597.44 2191.66 601.28 2206.91 573.48 2238.34" fill="#fff" stroke="#2e2d75" stroke-linejoin="bevel" stroke-width="2"/><line x1="597.34" y1="2192.12" x2="588.42" y2="2209.31" fill="none" stroke="#2e2d75" stroke-miterlimit="10" stroke-width="2"/><line x1="213.49" y1="2504" x2="424.49" y2="2504" fill="none" stroke="#2e2d75" stroke-miterlimit="10" stroke-width="2"/><path d="M311,2370.5l18.64,47.09a5.08,5.08,0,0,1,.36,1.89v69h18l9.88-75.08a5.07,5.07,0,0,0-.09-1.82l-15.37-66.31a7.32,7.32,0,0,0-1.64-3.16l-6.15-6.92a7.62,7.62,0,0,0-1.42-1.24c-21.83-14.26-47.21-5.47-47.21-5.47s-4.5,26.5-3.5,45.5a350.7,350.7,0,0,1,0,35.3,6.4,6.4,0,0,1-.21,1.37L264.49,2480l18,5,24.76-65.37a7.27,7.27,0,0,0,.36-1.29l6.88-40.34" fill="#2e2d75" stroke="#2e2d75" stroke-miterlimit="10" stroke-width="2"/><path d="M333.49,2491h11s8,7,11,8,7,2,7,3v2h-33S329.49,2491,333.49,2491Z" fill="#2e2d75" stroke="#2e2d75" stroke-miterlimit="10" stroke-width="2"/><path d="M269.49,2255l-6,46s9,48,10,50,9,0,9,0l-.46-39.25" fill="#fff" stroke="#2e2d75" stroke-miterlimit="10" stroke-width="2"/><path d="M265.49,2483l14,4,4,9s10,4,10,6-16,1-16,1l-13-8S260.49,2488,265.49,2483Z" fill="#2e2d75" stroke="#2e2d75" stroke-miterlimit="10" stroke-width="2"/><path d="M315.49,2259l1-6,31.6-30.64a6.72,6.72,0,0,0,1.87-3.25l.78-3.11a6.85,6.85,0,0,0-1-5.54L322.49,2171l-12,4,18,37-27,19-23-1s-15,19-7,49,14,38,15,49c0,0,39-12,54,13,1.15,1.92-16-80-21-91" fill="#fff" stroke="#2e2d75" stroke-miterlimit="10" stroke-width="2"/><path d="M301.49,2229l-5-6h-18c-2,0,0,7,0,7h23.9Z" fill="none" stroke="#2e2d75" stroke-linejoin="round" stroke-width="2"/><polyline points="287.49 2168 293.68 2164.64 333.49 2143 304.49 2172 293.49 2165" fill="#fff" stroke="#2e2d75" stroke-miterlimit="10" stroke-width="2"/><path d="M312.49,2172s-14,2-14-1a12.27,12.27,0,0,1,1-5s2-4,4-4,6-4,6-3a23,23,0,0,1-1,4s-1,1,1,1h6c1,0,3,3,3,3l1,3Z" fill="#fff" stroke="#2e2d75" stroke-miterlimit="10" stroke-width="2"/><path d="M275.49,2352s0,5,2,7l3,3c1,1,2-11,2-11Z" fill="#fff" stroke="#2e2d75" stroke-miterlimit="10" stroke-width="2"/><line x1="295.49" y1="2223" x2="292.49" y2="2215" fill="none" stroke="#2e2d75" stroke-miterlimit="10" stroke-width="2"/><path d="M293.49,2182l5.44,21a8.39,8.39,0,0,1-3.73,9.27l-7.71,4.74-6-8-2-11,7-7Z" fill="#fff" stroke="#2e2d75" stroke-miterlimit="10" stroke-width="2"/><path d="M295.49,2178c-1.33,10.69-5,10-7,15s-3,4-3,11,5,7,5,11-5.46,4-9,4-8-4-8-4-10-11-10-12v-13c0-4,9-14,14-16S296.49,2170,295.49,2178Z" fill="#2e2d75" stroke="#2e2d75" stroke-miterlimit="10" stroke-width="2"/><line x1="280.45" y1="2223" x2="280.49" y2="2217" fill="none" stroke="#2e2d75" stroke-miterlimit="10" stroke-width="2"/><polygon points="368.49 1918 415.49 1918 406.49 1919 406.49 1929 368.49 1918" fill="none" stroke="#2e2d75" stroke-linejoin="bevel" stroke-width="2"/><path d="M406.49,1972l-9-42c0-1,1-2,1.87-3.06s-1.87-2.94-2.87-3.94-4-1-5-2,2-1,4-1,11,1,14,2,0,1,0,4-4,4-4,4l8,26.17Z" fill="#fff" stroke="#2e2d75" stroke-linejoin="bevel" stroke-width="2"/><circle cx="1059.46" cy="757.91" r="159.97" fill="none" stroke="#2d2f75" stroke-miterlimit="10" stroke-width="2"/><line x1="873.6" y1="928.48" x2="1347.53" y2="928.48" fill="none" stroke="#2d2f75" stroke-miterlimit="10" stroke-width="2"/><polyline points="1286.11 1102.29 1286.11 1011.47 1347.25 950.33" fill="none" stroke="#2d2f75" stroke-miterlimit="10" stroke-width="2"/><line x1="933.05" y1="1102.29" x2="933.05" y2="1051.58" fill="none" stroke="#2d2f75" stroke-miterlimit="10" stroke-width="2"/><circle cx="1237.35" cy="1038.67" r="19.36" fill="none" stroke="#2d2f75" stroke-miterlimit="10" stroke-width="2"/><circle cx="1182.02" cy="1038.67" r="19.36" fill="none" stroke="#2d2f75" stroke-miterlimit="10" stroke-width="2"/><line x1="1270.54" y1="946.46" x2="1098.12" y2="946.46" fill="none" stroke="#2d2f75" stroke-miterlimit="10" stroke-width="2"/><line x1="877.75" y1="950.15" x2="921.55" y2="993.95" fill="#2d2f75" stroke="#2d2f75" stroke-miterlimit="10" stroke-width="2"/><rect x="1196.78" y="856.1" width="11.06" height="55.32" fill="#fff" stroke="#2d2f75" stroke-miterlimit="10" stroke-width="2"/><polygon points="1339.33 928.4 1339.33 780.5 1305.58 766.67 1249.33 842.27 1203.23 842.27 1203.23 928.02 1339.33 928.4" fill="#2d2f75" stroke="#2d2f75" stroke-miterlimit="10" stroke-width="2"/><circle cx="1226.28" cy="865.33" r="7.38" fill="#fff" stroke="#2d2f75" stroke-miterlimit="10" stroke-width="2"/><circle cx="1226.28" cy="885.61" r="7.38" fill="#fff" stroke="#2d2f75" stroke-miterlimit="10" stroke-width="2"/><rect x="908.18" y="885.61" width="23.97" height="29.51" fill="#fff" stroke="#2d2f75" stroke-miterlimit="10" stroke-width="2"/><polygon points="932.15 904.05 967.19 904.05 971.8 900.36 967.19 896.67 932.15 896.67 932.15 904.05" fill="#fff" stroke="#2d2f75" stroke-miterlimit="10" stroke-width="2"/><polygon points="881.26 928.49 881.26 871.78 915.55 871.78 937.53 928.49 881.26 928.49" fill="#2d2f75" stroke="#2d2f75" stroke-miterlimit="10" stroke-width="2"/><path d="M1320.31,772.7s11.08-84.41,62.72-87.17,69.17-147.62,69.17-147.62" fill="none" stroke="#2d2f75" stroke-miterlimit="10" stroke-width="2"/><path d="M1312.33,769.43s20-61.77,79.92-64.54,181-167,181-167" fill="none" stroke="#2d2f75" stroke-miterlimit="10" stroke-width="2"/><path d="M1156,898.87s7.22,19,7.22,29l-64,.57,3-22.57,16-12Z" fill="#2d2f75" stroke="#2d2f75" stroke-linejoin="bevel" stroke-width="2"/><path d="M1123.2,797.91l-5.54,2.56a8,8,0,0,1-10.67-4.13l-7.79-18.43,17-7,6,2,2,8-1,3,9,21s-7,23-16,1l3-6" fill="#fff" stroke="#2d2f75" stroke-linejoin="bevel" stroke-width="2"/><path d="M1115.7,805.41s1,10,9,9,7-9,7-9,15.5,2.5,17.5,2.5,37-21-18-42l6-12s51,15,43,47c-3,11.76-6.24,21-15.73,28.54-1.77,1.41-4.35,7.2-5.27,9.46-5.9,14.38-4.6,37.21-2,58,0,0-10,18-25,18s-27-5-30-9-7-55-7-55l-8,27h-19.93s16.93-45,19.93-55S1108.2,806.91,1115.7,805.41Z" fill="#fff" stroke="#2d2f75" stroke-linejoin="bevel" stroke-width="2"/><line x1="1123.2" y1="783.91" x2="1132.2" y2="805.91" fill="#fff" stroke="#2d2f75" stroke-linejoin="bevel" stroke-width="2"/><path d="M1106.2,777.91a59.93,59.93,0,0,1-7,2c-1,0-4,1-5-2s-3-7,2-11,3-7,11-6,15,4,18,7,5,10,6,10-3,10-3,12a10.34,10.34,0,0,0,1,4l-4-6c-2-3-5-14-6-13a5.88,5.88,0,0,0-2,5c0,3-1,6-2,3s-1-4-4-5Z" fill="#2d2f75" stroke="#2d2f75" stroke-linejoin="bevel" stroke-width="2"/><path d="M1136.2,754.91h-9l-9,7,2,1,8.35-2.78.65-.22s-1,3-2,3h-1s-1,0,1,1,5,0,5,0Z" fill="#fff" stroke="#2d2f75" stroke-linejoin="bevel" stroke-width="2"/><path d="M1004.38,910.1a66,66,0,0,1,4.71,18.38H946.27s-.48-15.88,3.22-20.72,16.71-7.85,16.71-7.85L1001,903Z" fill="#2d2f75" stroke="#2d2f75" stroke-linejoin="bevel" stroke-width="2"/><path d="M946.27,855.4l2.93-22.49,18-2,26,11a26.89,26.89,0,0,1,3,18c-2,10,10,41,10,41s5,8-6,11-39,3-44,0-8-5-8-5,.15-33-1.93-51.51" fill="#fff" stroke="#2d2f75" stroke-linejoin="bevel" stroke-width="2"/><path d="M965.2,846.91l5,27,16,30-10,7-24-34-11-37s-3-28,25-30,40,17,40,17l16,30,28.78,20-9,10-32.78-19-13-13" fill="#fff" stroke="#2d2f75" stroke-linejoin="bevel" stroke-width="2"/><path d="M977.48,810.26s8.72,8.65.72,10.65-12.81-10.65-12.81-10.65S967.77,809.61,977.48,810.26Z" fill="#fff" stroke="#2d2f75" stroke-linejoin="bevel" stroke-width="2"/><path d="M984.94,904.79s7.26,1.12,7.26,2.12-4,2-4,2-2-1,1,2,10,8,4,8-6,1-9-1-6.53-8-6.53-8Z" fill="#fff" stroke="#2d2f75" stroke-linejoin="bevel" stroke-width="2"/><line x1="995.36" y1="846.91" x2="997.2" y2="856.91" fill="#fff" stroke="#2d2f75" stroke-linejoin="bevel" stroke-width="2"/><path d="M979.2,803.91v8s6,8-1,9-14-11-14-12v-10l5-10,9-6,7-2,6,1,.55,2.29.45-1" fill="#fff" stroke="#2d2f75" stroke-linejoin="bevel" stroke-width="2"/><path d="M971.2,802.91l8.41,1.2a6.67,6.67,0,0,0,7.3-4.58l5.29-16.62" fill="#fff" stroke="#2d2f75" stroke-linejoin="bevel" stroke-width="2"/><line x1="965.2" y1="809.91" x2="967.2" y2="801.91" fill="#fff" stroke="#2d2f75" stroke-linejoin="bevel" stroke-width="2"/><path d="M985.2,781.91a39.18,39.18,0,0,1-9,8c-6,4-6,5-7,9s-6,11-6,11l-12.72,5.53s8.72-24.53,8.72-32.53,7.36-25.21,26-19c24,8,5,24,5,24S994.2,780.91,985.2,781.91Z" fill="#2d2f75" stroke="#2d2f75" stroke-linejoin="bevel" stroke-width="2"/><rect x="1043.58" y="877.91" width="50.17" height="50.17" fill="#2d2f75" stroke="#2d2f75" stroke-miterlimit="10" stroke-width="2"/><path d="M1087.48,886.69s-1.26,10-15,18.81-16.31,17.56-17.56,18.82" fill="none" stroke="#fff" stroke-miterlimit="10"/><path d="M1081.83,884.81s-11.28,16.3-21.32,13.8-7.52-13.8-7.52-13.8" fill="none" stroke="#fff" stroke-miterlimit="10"/><path d="M1049.22,899.86a38.26,38.26,0,0,0,8.78,6.27c5,2.51-8.78,15-8.78,15" fill="none" stroke="#fff" stroke-miterlimit="10"/><path d="M1063,922.44s10-12.55,20.07-10" fill="none" stroke="#fff" stroke-miterlimit="10"/></svg>