<svg xmlns="http://www.w3.org/2000/svg" viewBox="0 0 1323.19 1187.71"><title>s6 - s8</title><polyline points="954.53 377.49 784.28 377.49 784.28 439.4 766.95 439.4 766.95 501.31 749.61 501.31 749.61 563.22 732.28 563.22 732.28 625.12 714.95 625.12" fill="none" stroke="#2d2f75" stroke-miterlimit="10" stroke-width="2"/><polyline points="1169 625.12 1151.67 625.12 1151.67 563.22 1134.34 563.22 1134.34 501.31 1117 501.31 1117 439.4 1099.67 439.4 1099.67 377.49 979.53 377.49" fill="none" stroke="#2d2f75" stroke-miterlimit="10" stroke-width="2"/><line x1="784.28" y1="439.4" x2="898.53" y2="439" fill="none" stroke="#2d2f75" stroke-miterlimit="10" stroke-width="2"/><line x1="1063.22" y1="439.4" x2="1099.92" y2="439.4" fill="none" stroke="#2d2f75" stroke-miterlimit="10" stroke-width="2"/><line x1="748.64" y1="563.22" x2="1015.53" y2="563.22" fill="none" stroke="#2d2f75" stroke-miterlimit="10" stroke-width="2"/><line x1="880.45" y1="501.31" x2="1133.1" y2="501.31" fill="none" stroke="#2d2f75" stroke-miterlimit="10" stroke-width="2"/><path d="M784.28,377.49H728.54V318.17H672.81V258.85H617.07V199.52H561.34V140.2H378c-.32-.32,0-140.2,0-140.2" fill="none" stroke="#2d2f75" stroke-miterlimit="10" stroke-width="2"/><polyline points="1100.25 377.49 1155.98 377.49 1155.98 318.17 1211.72 318.17 1211.72 258.85 1267.45 258.85 1267.45 199.52 1323.19 199.52" fill="none" stroke="#2d2f75" stroke-miterlimit="10" stroke-width="2"/><path d="M726.76,229.79s-2.49,10.59-2.93,11.38,14.37,58,14.37,58l-1,8.88h-7.32l-24.12-60.28a6.31,6.31,0,0,1-.43-1.71l-8.82-32.61S715.53,229.07,726.76,229.79Z" fill="#303078" stroke="#2d2f75" stroke-miterlimit="10" stroke-width="2"/><polyline points="725.4 146.93 738.39 136.41 706.08 83.41" fill="none" stroke="#2d2f75" stroke-miterlimit="10" stroke-width="2"/><path d="M698.88,202.39l-27.8-2.54c-3.13.33-6.29,1.9-6,5.23L666,247.7s-4.63,6.31-11.5,1.26l-10.36-48.39,14.74-14.3,20.65,3.1,16.77,9.09Z" fill="#303078" stroke="#2d2f75" stroke-miterlimit="10" stroke-width="2"/><polygon points="736.19 138.2 750.36 164.77 743.27 169.68 724.39 148.35 736.19 138.2" fill="#303078" stroke="#2d2f75" stroke-miterlimit="10" stroke-width="2"/><path d="M748.93,225.41,707.31,86.58a20.24,20.24,0,0,0-12.95-13.46h0c-6.12-2.06-13.55-2.09-18.82,1.63l-2.21,1.73c-4.84,4.67-7.59,10.13-7.94,16.29l-3.7,64.47a14.7,14.7,0,0,1-9.72,13l-2.68,1a13.57,13.57,0,0,0-9,12.79v17.12s31.05-5,41.93,1.28C704.34,215.21,718.06,240.52,748.93,225.41Z" fill="#fff" stroke="#2d2f75" stroke-miterlimit="10" stroke-width="2"/><path d="M694.6,98.94l-8.07,60.53-30-23.05,15.43-47a14.49,14.49,0,0,1,10.3-8.27" fill="#fff" stroke="#2d2f75" stroke-miterlimit="10" stroke-width="2"/><path d="M669.24,257.26s2.37-4.27-1.41-9.56c0,0-8.15,4.78-13.38,1.26,0,0-16.05,1.86-16.55,7.85v1.63h30.81Z" fill="#fff" stroke="#2d2f75" stroke-miterlimit="10" stroke-width="2"/><path d="M738.7,298s-3.27,8.65-10.76,7.37c0,0-5.85,5-6.78,5.38s-6.43,1.14-9.08,3.39a2.27,2.27,0,0,0,0,3.77h19.49l14-8.8S748.87,302.83,738.7,298Z" fill="#fff" stroke="#2d2f75" stroke-miterlimit="10" stroke-width="2"/><polygon points="663.65 141.92 634.8 149.5 637.36 156.93 679.48 154.06 663.65 141.92" fill="#303078" stroke="#2d2f75" stroke-miterlimit="10" stroke-width="2"/><polygon points="677.08 73.81 675.66 68.11 683.98 64.06 687.18 68.94 684.63 71.77 677.08 73.81" fill="#303078" stroke="#2d2f75" stroke-miterlimit="10" stroke-width="2"/><path d="M660.05,49.7l9.71-4,8.38,12.14,1.34,8.43-2.85,1.12a6.49,6.49,0,0,1-8-2.8L660.05,49.7" fill="#303078" stroke="#2d2f75" stroke-miterlimit="10" stroke-width="2"/><path d="M657.14,50.88l10-4.54S680.78,65,682.21,74.9c0,0,13.49,5.93,22.22-1.09s1.65-22.42,1.65-22.42-13.26-32.56-43-17.75C656.59,36.47,653.75,45,657.14,50.88Z" fill="#fff" stroke="#2d2f75" stroke-miterlimit="10" stroke-width="2"/><polyline points="634.8 149.5 628.19 148.24 624.18 148.24" fill="#fff" stroke="#2d2f75" stroke-miterlimit="10" stroke-width="2"/><line x1="629.49" y1="150.9" x2="618.41" y2="151.72" fill="#fff" stroke="#2d2f75" stroke-miterlimit="10" stroke-width="2"/><line x1="630.46" y1="153.94" x2="617.57" y2="155.73" fill="#fff" stroke="#2d2f75" stroke-miterlimit="10" stroke-width="2"/><line x1="631.33" y1="156.73" x2="621.4" y2="159.3" fill="#fff" stroke="#2d2f75" stroke-miterlimit="10" stroke-width="2"/><polyline points="637.36 156.93 631.33 159.47 624.18 161.19" fill="#fff" stroke="#2d2f75" stroke-miterlimit="10" stroke-width="2"/><polyline points="744.61 170.81 746.96 177.11 749.04 180.53" fill="#fff" stroke="#2d2f75" stroke-miterlimit="10" stroke-width="2"/><line x1="748.56" y1="174.62" x2="755.02" y2="183.66" fill="#fff" stroke="#2d2f75" stroke-miterlimit="10" stroke-width="2"/><line x1="750.65" y1="172.22" x2="758.88" y2="182.3" fill="#fff" stroke="#2d2f75" stroke-miterlimit="10" stroke-width="2"/><line x1="752.58" y1="170.02" x2="759.94" y2="177.16" fill="#fff" stroke="#2d2f75" stroke-miterlimit="10" stroke-width="2"/><polyline points="749.62 164.77 754.92 168.59 760.1 173.8" fill="#fff" stroke="#2d2f75" stroke-miterlimit="10" stroke-width="2"/><line x1="1267.46" y1="258.85" x2="1267.46" y2="378.42" fill="none" stroke="#2b3176" stroke-miterlimit="10" stroke-width="2"/><path d="M894.87,376.79l-6.31,16.68a4.85,4.85,0,0,0-.19,2.82l9.87,41.48a45.79,45.79,0,0,0,0,6.27c.28,1.25,3,7.65,3,7.65l2.29-2.69,2-6L904,439.4l1.52-13.4-4.29-26.61L908.53,386Z" fill="#fff" stroke="#2d2f75" stroke-miterlimit="10" stroke-width="2"/><path d="M927.53,471s2.08,8.57,34.29,10.1h13.94l6.77,66.9s12.7-1.35,18.4-1.24,1.6.24,1.6.24l-1.84-79.81a15.52,15.52,0,0,0-10.05-13.36L957.21,441.3,906,436.78s-7.21,18-8.73,37.91S893.68,602.06,890.53,605c0,0,14.36,4,23,4l21-136.72" fill="#303078" stroke="#2d2f75" stroke-miterlimit="10" stroke-width="2"/><path d="M909.81,423.31s-1.6,9.23-2.84,11.94l46.26,6.52Z" fill="#fff" stroke="#2d2f75" stroke-miterlimit="10" stroke-width="2"/><path d="M965.53,378l4,19,17-14-8.28-28.79a29.89,29.89,0,0,0-22.84-18.33,112.59,112.59,0,0,0-25.31-1.2,30.17,30.17,0,0,0-24.68,15.87l-13.14,24.71L908.53,386l2.15-20.26s-4.65,59-7.15,73.26c0,0,54.53-2.51,62,5l.14-66.31" fill="#fff" stroke="#2d2f75" stroke-miterlimit="10" stroke-width="2"/><path d="M966.76,308.83h0a19.58,19.58,0,0,0-18.17-19.52l-1.54-.11a19.56,19.56,0,0,0-20.3,14.47c-2.52,9.48.46,24.17-7.22,32.33-8.28,8.81-6.07,15.31-2.18,19.48a18.81,18.81,0,0,0,12.9,5.75l24.28.77c10.58.79,17.69-8.3,15.76-18.72A218.15,218.15,0,0,1,966.76,308.83Z" fill="#303078" stroke="#2d2f75" stroke-miterlimit="10" stroke-width="2"/><path d="M1002.72,561.59s1.34-11.6-10.28-11.6-11.38,11.6-11.38,11.6Z" fill="#303078" stroke="#2d2f75" stroke-miterlimit="10" stroke-width="2"/><path d="M910,623.5s1.34-11.6-10.27-11.6-11.39,11.6-11.39,11.6Z" fill="#303078" stroke="#2d2f75" stroke-miterlimit="10" stroke-width="2"/><line x1="999.29" y1="547.68" x2="999.29" y2="552.06" fill="none" stroke="#2d2f75" stroke-miterlimit="10" stroke-width="2"/><line x1="984.94" y1="547.68" x2="984.94" y2="552.06" fill="none" stroke="#2d2f75" stroke-miterlimit="10" stroke-width="2"/><line x1="908.81" y1="608.08" x2="906.7" y2="613.38" fill="none" stroke="#2d2f75" stroke-miterlimit="10" stroke-width="2"/><line x1="894.11" y1="605.1" x2="893.52" y2="613.38" fill="none" stroke="#2d2f75" stroke-miterlimit="10" stroke-width="2"/><path d="M970.61,396.12l1.92,8.88,17,41,1.57,4.71a.41.41,0,0,0,.78,0c.45-1.41,1.33-3.36,2.65-2.7,2,1,3,1,5,2,.9.45,5,2,5,1s-1.21-5.1-3-6c-2-1-5-2-5-3s-11-40-11-40l-3.41-15.36Z" fill="#fff" stroke="#2d2f75" stroke-miterlimit="10" stroke-width="2"/><path d="M915.53,374a123,123,0,0,1,44,1" fill="none" stroke="#2d2f75" stroke-miterlimit="10" stroke-width="2"/><path d="M57.72,924s56.14,118.15,121.35,26.43c0,0,8.15,160.15,80.49,155.91s90,4.61,90,4.61,31,74.34,128.33,74.34" fill="none" stroke="#2d2f75" stroke-linejoin="bevel" stroke-width="2"/><path d="M194.07,1072.62s58.17-2.38,70.56-153.72c0,0,58.42,36.29,116.83,10.62,0,0,85,48.68,151.34-65.49,0,0,86.74,19.47,113.29,10.62,0,0,54.44,310.29,202.9,310.29s144,.36,144,.36" fill="none" stroke="#2d2f75" stroke-linejoin="bevel" stroke-width="2"/><path d="M129,886S216.51,872.4,237.92,747.4c0,0,190,68,315.47-151.55,0,0,111.29,211.53,235.19,216L871,814.75s53,87.33,86.67,87.33" fill="none" stroke="#2d2f75" stroke-linejoin="bevel" stroke-width="2"/><path d="M822.79,931.18l-29.6-53.1a7.88,7.88,0,0,1-.75-1.86l-12.13-45.05,12.39-8,12.7,41.49a8.2,8.2,0,0,0,1.93,3.28l23.42,24.26h34.52l1.84,2.21a2.7,2.7,0,0,0,4.46-.47l6.12-11.69a11.6,11.6,0,0,0,1.21-7l-6.55-45.85h13.28l10.82,50.76a11.6,11.6,0,0,1-.43,6.34L879.43,933s.89,66.38,3.54,69.92c0,0-48.67,13.28-61.07,7.08s-10.62-6.19-10.62-7.08,8-77.88,8-77.88" fill="#2b3176" stroke="#2b3176" stroke-miterlimit="10" stroke-width="2"/><polyline points="836.68 892.24 840.49 886.05 858.19 886.05 862.78 892.24" fill="none" stroke="#2b3176" stroke-miterlimit="10" stroke-width="2"/><path d="M883,1002.87s2.66,30.1,0,39.83-8.85,49.56-8.85,49.56l23,77L872.35,1171l-25.66-67.26-4.43-45.14" fill="none" stroke="#2b3176" stroke-miterlimit="10" stroke-width="2"/><polyline points="849.34 1043.59 821.02 1100.23 819.25 1163.95 798.01 1163.95 792.7 1091.38 812.02 1004.48" fill="none" stroke="#2b3176" stroke-miterlimit="10" stroke-width="2"/><path d="M844.92,850.64,840.16,869a6.54,6.54,0,0,0,3.9,7.71l3.51,1.4" fill="none" stroke="#2b3176" stroke-miterlimit="10" stroke-width="2"/><line x1="844.03" y1="876.31" x2="843.76" y2="886.05" fill="none" stroke="#2b3176" stroke-miterlimit="10" stroke-width="2"/><line x1="857.37" y1="886.05" x2="860.85" y2="878.97" fill="none" stroke="#2b3176" stroke-miterlimit="10" stroke-width="2"/><path d="M843.15,845.33c1.35,5.43.88,7.08,4.42,8.85s6.2,2.66,5.31,5.31a36.83,36.83,0,0,0-1.77,6.2v.89s4.43-4.43,4.43-3.54,2.65,0,.88,3.54-1.77,1.77-1.77,3.54-.88,4.42-.88,6.19-1.77.89,0,1.77a21,21,0,0,0,6.63,1.79c1.33,0,3.1,1.75,4.87,0s3.54-8,3.54-8-3.54,1.77,0-1.77,4.43-3.54,3.54-7.08,1.77-1.78-.88-7.09,0-4.42-4.43-8-4.42-4.43-8-5.31S852,840,849.34,840,842.26,841.79,843.15,845.33Z" fill="#2b3176" stroke="#2b3176" stroke-miterlimit="10" stroke-width="2"/><path d="M792.7,823.21s4.42-13.28,0-11.51a8.26,8.26,0,0,0-4.09,3.78,1.14,1.14,0,0,1-2.11-.25c-1.75-6.85-5.52-20.92-6.19-17.61-.89,4.35-2.66,6.12-2.66,11.43,0,4.37,4.21,13.57,5.69,16.66a1.14,1.14,0,0,0,1.54.52l7.82-3.91" fill="#fff" stroke="#2b3176" stroke-miterlimit="10" stroke-width="2"/><path d="M872.35,826.75a51.55,51.55,0,0,0-5.31-3.54c-1.77-.89,1.77-.89,3.54-.89s.89-7.08-.88-12.39,8,8.85,9.73,13.28l1.77,4.42h-8.85Z" fill="#fff" stroke="#2b3176" stroke-miterlimit="10" stroke-width="2"/><path d="M789.16,1185.2s-2.66-5.31,1.77-5.31a14.75,14.75,0,0,0,8-2.66l3.54-11.51s10.62-5.31,15.05,0c0,0,.88,17.71-5.31,19.48S789.16,1185.2,789.16,1185.2Z" fill="#2b3176" stroke="#2b3176" stroke-miterlimit="10" stroke-width="2"/><path d="M881.47,1186.08s-4.69-14.06,2.39-14.95,9.75-.19,17.27,14.95Z" fill="#2b3176" stroke="#2b3176" stroke-miterlimit="10" stroke-width="2"/><polyline points="0 1106.35 338.13 1106.35 338.09 1179.11" fill="none" stroke="#2d2f75" stroke-miterlimit="10" stroke-width="2"/><path d="M194,1106.35s-10-216.67,96-302.71" fill="none" stroke="#2d2f75" stroke-miterlimit="10" stroke-width="2"/><path d="M172.14,1106.35s-8.17-245,81.74-515.89" fill="none" stroke="#2d2f75" stroke-miterlimit="10" stroke-width="2"/><path d="M208.23,955.47c55.7-39.89,132.58-71.61,232.64-63.37" fill="none" stroke="#2d2f75" stroke-miterlimit="10" stroke-width="2"/><path d="M415.08,887.66S409.62,862,437.7,858.37C437.7,858.37,443.75,884,415.08,887.66Z" fill="none" stroke="#2d2f75" stroke-miterlimit="10" stroke-width="2"/><path d="M351.58,892s-11.85-23.43,14.37-34.1C366,857.85,378.35,881.05,351.58,892Z" fill="none" stroke="#2d2f75" stroke-miterlimit="10" stroke-width="2"/><path d="M283.2,910.64s-16.36-20.54,7.16-36.31C290.36,874.33,307.21,894.54,283.2,910.64Z" fill="#303078" stroke="#2d2f75" stroke-miterlimit="10" stroke-width="2"/><path d="M320,906.76s26-3.73,27.7,24.54C347.71,931.3,321.76,935.61,320,906.76Z" fill="none" stroke="#2d2f75" stroke-miterlimit="10" stroke-width="2"/><path d="M384.81,895.25s26.25.59,23.3,28.76C408.11,924,381.79,924,384.81,895.25Z" fill="#303078" stroke="#2d2f75" stroke-miterlimit="10" stroke-width="2"/><path d="M201.31,795.1c37-57.67,96-114.55,192-143.92" fill="none" stroke="#2d2f75" stroke-miterlimit="10" stroke-width="2"/><path d="M367.73,656.6S353.15,634.76,377.91,621C377.91,621,393,642.57,367.73,656.6Z" fill="none" stroke="#2d2f75" stroke-miterlimit="10" stroke-width="2"/><path d="M310.32,684.08s-19.68-17.38.74-37C311.06,647.08,331.16,664.05,310.32,684.08Z" fill="none" stroke="#2d2f75" stroke-miterlimit="10" stroke-width="2"/><path d="M253.71,726.74s-22.8-13-6.78-36.39C246.93,690.35,270.06,702.9,253.71,726.74Z" fill="#303078" stroke="#2d2f75" stroke-miterlimit="10" stroke-width="2"/><path d="M286.47,709.52s22.77-13.08,34.82,12.54C321.29,722.06,298.77,735.67,286.47,709.52Z" fill="none" stroke="#2d2f75" stroke-miterlimit="10" stroke-width="2"/><path d="M342.42,674.85S367,665.69,374.7,693C374.7,693,350.25,702.67,342.42,674.85Z" fill="#303078" stroke="#2d2f75" stroke-miterlimit="10" stroke-width="2"/><path d="M193.26,843c-7.2-68.13-34.45-145.44-107.09-214.75" fill="none" stroke="#2d2f75" stroke-miterlimit="10" stroke-width="2"/><path d="M106.62,644.58s22.83-13,6.86-36.37C113.48,608.21,90.33,620.71,106.62,644.58Z" fill="none" stroke="#2d2f75" stroke-miterlimit="10" stroke-width="2"/><path d="M145.61,694.88s25.39-6.7,15.94-33.4C161.55,661.48,136,667.64,145.61,694.88Z" fill="none" stroke="#2d2f75" stroke-miterlimit="10" stroke-width="2"/><path d="M177.08,758.4s26.22-1.42,22.38-29.48C199.46,728.92,173.16,729.77,177.08,758.4Z" fill="#303078" stroke="#2d2f75" stroke-miterlimit="10" stroke-width="2"/><path d="M155.52,728.32s-14.48-21.9-36.75-4.4C118.77,723.92,132.8,746.18,155.52,728.32Z" fill="none" stroke="#2d2f75" stroke-miterlimit="10" stroke-width="2"/><path d="M121.07,672.24s-17.89-19.22-37,1.7C84.1,673.94,101.59,693.59,121.07,672.24Z" fill="#303078" stroke="#2d2f75" stroke-miterlimit="10" stroke-width="2"/><path d="M150.24,1106.35c-.61-233.33-41-305.44-113.67-374.75" fill="none" stroke="#2d2f75" stroke-miterlimit="10" stroke-width="2"/><path d="M57,747.94s22.83-13,6.86-36.37C63.88,711.57,40.73,724.06,57,747.94Z" fill="none" stroke="#2d2f75" stroke-miterlimit="10" stroke-width="2"/><path d="M96,798.24s25.39-6.71,15.94-33.4C112,764.84,86.37,771,96,798.24Z" fill="none" stroke="#2d2f75" stroke-miterlimit="10" stroke-width="2"/><path d="M127.48,861.76s26.22-1.43,22.37-29.48C149.85,832.28,123.56,833.12,127.48,861.76Z" fill="#303078" stroke="#2d2f75" stroke-miterlimit="10" stroke-width="2"/><path d="M105.92,831.67s-14.49-21.9-36.75-4.4C69.17,827.27,83.2,849.53,105.92,831.67Z" fill="none" stroke="#2d2f75" stroke-miterlimit="10" stroke-width="2"/><path d="M71.47,775.6s-17.89-19.23-37,1.7C34.5,777.3,52,797,71.47,775.6Z" fill="#303078" stroke="#2d2f75" stroke-miterlimit="10" stroke-width="2"/><path d="M283.66,804.36s-22.82-13-6.85-36.37C276.81,768,300,780.49,283.66,804.36Z" fill="none" stroke="#2d2f75" stroke-miterlimit="10" stroke-width="2"/><path d="M221.06,682.51s-25.46-6.38-16.36-33.19C204.7,649.32,230.36,655.14,221.06,682.51Z" fill="none" stroke="#2d2f75" stroke-miterlimit="10" stroke-width="2"/><path d="M237.92,654s24.77,8.69,31.93-18.71C269.85,635.3,245.22,626.05,237.92,654Z" fill="#303078" stroke="#2d2f75" stroke-miterlimit="10" stroke-width="2"/><path d="M242.9,612.48s-25.47-6.38-16.36-33.19C226.54,579.29,252.2,585.11,242.9,612.48Z" fill="none" stroke="#2d2f75" stroke-miterlimit="10" stroke-width="2"/><path d="M244.67,852s-25.39-6.71-15.94-33.4C228.73,818.6,254.31,824.76,244.67,852Z" fill="none" stroke="#2d2f75" stroke-miterlimit="10" stroke-width="2"/><path d="M215.84,915.52s-26.22-1.43-22.37-29.48C193.47,886,219.77,886.88,215.84,915.52Z" fill="#303078" stroke="#2d2f75" stroke-miterlimit="10" stroke-width="2"/><path d="M234.75,885.43s14.49-21.9,36.75-4.39C271.5,881,257.47,903.3,234.75,885.43Z" fill="none" stroke="#2d2f75" stroke-miterlimit="10" stroke-width="2"/><path d="M269.21,829.36s17.89-19.22,37,1.7C306.18,831.06,288.69,850.72,269.21,829.36Z" fill="#303078" stroke="#2d2f75" stroke-miterlimit="10" stroke-width="2"/><path d="M125.94,1106.83s10-216.67-96-302.71" fill="none" stroke="#2d2f75" stroke-miterlimit="10" stroke-width="2"/><path d="M111.74,956a345.17,345.17,0,0,0-98-49.22" fill="none" stroke="#2d2f75" stroke-miterlimit="10" stroke-width="2"/><path d="M36.77,911.12s16.36-20.54-7.16-36.31C29.61,874.81,12.76,895,36.77,911.12Z" fill="#303078" stroke="#2d2f75" stroke-miterlimit="10" stroke-width="2"/><path d="M374.92,1103.77s-9.92.7-18.9,1.46l8.47-32.61h9.32a30.19,30.19,0,0,1,18.7,6.51h0a30.12,30.12,0,0,1,11.37,25.56l-4.09,68.41H382.41Z" fill="#fff" stroke="#2d2f75" stroke-miterlimit="10" stroke-width="2"/><path d="M50.76,829.84s-17.89-19.22-37,1.71C13.79,831.55,31.28,851.2,50.76,829.84Z" fill="#303078" stroke="#2d2f75" stroke-miterlimit="10" stroke-width="2"/><path d="M379.61,1069.46H280.3s-7.35,37.37,30.37,37.37,27.46-.48,27.46-.48l31.22,4.52a3.23,3.23,0,0,0,3.61-2.46L381.6,1072A2,2,0,0,0,379.61,1069.46Z" fill="#2f3178" stroke="#2d2f75" stroke-miterlimit="10" stroke-width="2"/><path d="M399.79,1173.1H382.41s-3.18,7-1.45,13.61H417.5s.57-6.14-5.09-7.88S401.7,1175.9,399.79,1173.1Z" fill="#2f3178" stroke="#2d2f75" stroke-miterlimit="10" stroke-width="2"/><path d="M315.85,999c22.45-19.12,56.87-63,56.87-63l10.18,9.3s-22.84,42.63-53.58,74.41" fill="none" stroke="#2d2f75" stroke-miterlimit="10" stroke-width="2"/><path d="M336.26,1012.13c-2.37,11.89-2,56.59-2,56.59l-43.31.74H280.3s-10.69-26.32-7.59-54.74c.52-10.08-14.47-80.24-14.47-80.24l13.26-5.28L290,987.85" fill="none" stroke="#2d2f75" stroke-miterlimit="10" stroke-width="2"/><path d="M321.55,993.84s-12.74-10.9-34.66-5.73" fill="none" stroke="#2d2f75" stroke-miterlimit="10" stroke-width="2"/><path d="M293.17,987l1.57-4.9s9.9-1.58,18.33.86l3.41,7.74" fill="none" stroke="#2d2f75" stroke-miterlimit="10" stroke-width="2"/><line x1="311.75" y1="982.49" x2="310.91" y2="975.69" fill="none" stroke="#2d2f75" stroke-miterlimit="10" stroke-width="2"/><path d="M305,977.13l6.85-1.61a5.69,5.69,0,0,0,4.32-6.51L313,950.44" fill="none" stroke="#2d2f75" stroke-miterlimit="10" stroke-width="2"/><path d="M315.34,944.68c-.64,3.55.16,5.65-5.32,7.74s-3.16,11.36-3.16,11.36l-1.82,2s-2.23-8.23-5-7.1-1.32,9.22,1.1,11.06,1.86,8.39,1.09,9.31-7.54-.28-8.67.08-2.59-.71-3.23-3.48-2.13-6.81-2.6-8.58-3.56-5.81-3.56-5.81-4.49-9,.67-13.07,10-6.13,12.59-6.3a60.33,60.33,0,0,1,7.61,0c2.88.17,4.89,1.46,6.71,0s1.82-3.06,2.95-2.09S315.34,944.68,315.34,944.68Z" fill="#303078" stroke="#2d2f75" stroke-miterlimit="10" stroke-width="2"/><line x1="299.26" y1="981.62" x2="297.71" y2="979.09" fill="#303078" stroke="#2d2f75" stroke-miterlimit="10" stroke-width="2"/><path d="M375.15,938.14s-.17-6.31.55-6.61,7.26-6.18,6-4.12-2.34,3.56-1.24,4.39,1.26,1.34,2.42,1.39,1.64.41,1.67-3-1.55-5.39,0-5,2.79,3.38,2.79,3.38l.27,1.93s2.06,4.31-.27,6.55-6.18,6.66-6.18,6.66Z" fill="#fff" stroke="#2d2f75" stroke-miterlimit="10" stroke-width="2"/><path d="M641.33,886.69s-2.65-5.72-2.12-6.29,4.22-8.55,3.9-6.16-.73,4.19.61,4.52,1.69.73,2.76.31,1.67-.27.34-3.44-3.56-4.33-2-4.62,3.89,2,3.89,2l1,1.66s3.6,3.15,2.34,6.13-3,8.56-3,8.56Z" fill="#fff" stroke="#2d2f75" stroke-miterlimit="10" stroke-width="2"/><path d="M269.47,930s.32-6.77,0-6.88-3.82-4.2-5.2-4.07-1.67.9.52,3.27,1.5,4.66-.52,4.53-3.8-.89-3.42-6.26-2-3.84-2.61-.77-1.5,4-.85,6,4,7.36,4,7.36Z" fill="#fff" stroke="#2d2f75" stroke-miterlimit="10" stroke-width="2"/><path d="M537.72,875s1.49-6.61,1.2-6.77-3-4.8-4.41-4.91-1.8.59,0,3.3.65,4.86-1.31,4.38-3.59-1.55-2.27-6.77-1.33-4.13-2.44-1.21-2.19,3.73-1.9,5.81,2.62,7.93,2.62,7.93Z" fill="#fff" stroke="#2d2f75" stroke-miterlimit="10" stroke-width="2"/><path d="M296.11,1005.85s-4,23.86,0,47.37" fill="#fff" stroke="#2d2f75" stroke-miterlimit="10" stroke-width="2"/><polyline points="591.74 1055.43 583.59 1112.11 561.35 1166.62 546.96 1166.62 554.89 1111.02 557.43 1033.71 625.88 1033.71 629.02 1114.66 613.34 1166.62 597.54 1166.62 602.34 1111.24 590.69 1062.74" fill="#2f3178" stroke="#2d2f75" stroke-miterlimit="10" stroke-width="2"/><path d="M559,1169.08H547a8.69,8.69,0,0,0-3.84,6.41l3.06,3.47a14.2,14.2,0,0,0,9,4.71c5,.55,12.07,1.27,15.58,1.27a6.64,6.64,0,0,0-4.95-7.93A9.5,9.5,0,0,1,559,1169.08Z" fill="#fff" stroke="#2d2f75" stroke-miterlimit="10" stroke-width="2"/><path d="M611.39,1169.08h-12a8.72,8.72,0,0,0-3.85,6.41l3.06,3.47a14.2,14.2,0,0,0,9,4.71c5,.55,12.06,1.27,15.57,1.27a6.62,6.62,0,0,0-4.94-7.93A9.5,9.5,0,0,1,611.39,1169.08Z" fill="#fff" stroke="#2d2f75" stroke-miterlimit="10" stroke-width="2"/><path d="M597.87,939.58l-6.13,15.75s-5.44-10.5-8.33-13.45-10.45-3-13.58-4.11-7.63-8.31-9.56-10.16-19.71-43.31-20-52.63l-13.12,2.89s7.71,44.68,23.46,77.46,4.08,62,3.64,65.24-4.37,18,12.39,17.68,27-3.53,34.11-3.21,13.82,3.54,20.24,3.22,8.36-3.22,5.15-13.51-7.72-33.06-3.54-52.36,27.64-82.21,27.64-82.21l-12.53-4.29s-18.89,46.94-24.39,49.83S603.66,936.37,597.87,939.58Z" fill="#fff" stroke="#2d2f75" stroke-miterlimit="10" stroke-width="2"/><line x1="597.87" y1="939.58" x2="596.97" y2="930.32" fill="#fff" stroke="#2d2f75" stroke-miterlimit="10" stroke-width="2"/><path d="M590.09,932.57l7.83-2.08a4.62,4.62,0,0,0,3.41-5l-1.82-16.33" fill="#fff" stroke="#2d2f75" stroke-miterlimit="10" stroke-width="2"/><path d="M595.72,911s6.11.47,7.08-1.82,1.69-4.35.12-6.53-.6-3-3.87-3.14-1.14.9-5.08,0c-3.45-.8-5,1.39-5.55,1.52-3.4.76-5.25,2-6.7,1.22-1.93-1-3.64,4.88-4.49,6.94s-2,2.89-2.43,6,2.44,8,2.76,9.17a16,16,0,0,0,2.26,4.1c.85,1.21.73,2.54,1.69,2.66s6.53,5.13,4.72-.76-3.51-7-2.18-8.67.73-4,2.42-2.06,2.54,3.87,3,3.39.6-.73,0-3.51-.15-2.66.59-5.08S593,911,595.72,911Z" fill="#303078" stroke="#2d2f75" stroke-miterlimit="10" stroke-width="2"/><line x1="585.02" y1="933.18" x2="583.41" y2="941.88" fill="#fff" stroke="#2d2f75" stroke-miterlimit="10" stroke-width="2"/></svg>