<svg xmlns="http://www.w3.org/2000/svg" viewBox="0 0 634.5 655.5"><title>Semester</title><polyline points="1 655.5 1 389 98 389 99 389 99 292 196 292 197 292 197 195 294 195 295 195 295 98 392 98 393 98 393 1 490 1 633.5 1 633.5 485.5 229.5 485.5" fill="none" stroke="#2e2d75" stroke-miterlimit="10" stroke-width="2"/><line x1="295" y1="192.51" x2="295" y2="266.5" fill="none" stroke="#2e2d75" stroke-miterlimit="10" stroke-width="2"/><path d="M581.5,400.5c0,9-14,44-14,44,4,5,0,0,8,11s42,2,42,2a154.41,154.41,0,0,1,11-40c9-21,5.12-50.53-4-56-10-6-20-2-26,2s-28,17-28,17l-3,24s19-5,24-5,9-7,9-7" fill="none" stroke="#2e2d75" stroke-miterlimit="10" stroke-width="2"/><path d="M617.5,457.5s-2,28-36,28-55-52-55-52l-19,36h-23l22.11-48.95a22.17,22.17,0,0,1,20.21-13.05h0a22.15,22.15,0,0,1,15,5.9l34.63,34.1S604.5,456.5,617.5,457.5Z" fill="#2e2d75" stroke="#2e2d75" stroke-miterlimit="10" stroke-width="2"/><path d="M467.52,485.5s-1-6,3-7,18-8,18-8h16s5,2,4,7a16.94,16.94,0,0,0,0,8Z" fill="none" stroke="#2e2d75" stroke-miterlimit="10" stroke-width="2"/><line x1="501.5" y1="332.5" x2="513.5" y2="369.5" fill="none" stroke="#2e2d75" stroke-miterlimit="10" stroke-width="2"/><path d="M504.5,333.5l3.42-1.14a2.68,2.68,0,0,1,3.4,1.73l8.18,26.41" fill="none" stroke="#2e2d75" stroke-miterlimit="10" stroke-width="2"/><path d="M570.28,382.27,540.5,389.5l-22-19s5-9,3-11-3-1-4,2-7-4-11-11-2,3-2,3,0,12,6,20L532.68,404a6.08,6.08,0,0,0,4.92,2.5h3a5.87,5.87,0,0,0,1.72-.25l25.16-3.75Z" fill="#fff" stroke="#2e2d75" stroke-miterlimit="10" stroke-width="2"/><line x1="604.07" y1="360.5" x2="602.5" y2="352.5" fill="#2e2d75" stroke="#2e2d75" stroke-miterlimit="10" stroke-width="2"/><path d="M591.5,331.5l3.39,15.61a7.15,7.15,0,0,0,8.89,5.37l10.72-3" fill="none" stroke="#2e2d75" stroke-miterlimit="10" stroke-width="2"/><path d="M604.5,331.5a32.17,32.17,0,0,0-8,1c-3,1-8,0-8,0l-2-1s-2-4-1-6-2-4,1-4a5.88,5.88,0,0,0,5-2c1-1,0-2,3-2s9-1,10-1,2.94.8,6,0c4.18-1.09,10.61,4.35,7,9,0,0-2-2,0,2s3,6,3,8,1,6,0,7-2,2-2,3,1,4-1,0-1,0-3-6-1-6-3-7a47.09,47.09,0,0,0-5-2s3,5,2,7,5,5,0,2-4-3-5-5A2.19,2.19,0,0,1,604.5,331.5Z" fill="#2e2d75" stroke="#2e2d75" stroke-miterlimit="10" stroke-width="2"/><line x1="617.5" y1="343.5" x2="618.5" y2="358.5" fill="#2e2d75" stroke="#2e2d75" stroke-miterlimit="10" stroke-width="2"/><rect x="369.5" y="482.5" width="84" height="3" fill="#2e2d75" stroke="#2e2d75" stroke-miterlimit="10" stroke-width="2"/><path d="M460.25,442.5H401.94a1.81,1.81,0,0,0-1.76,1.4l-8.68,38.6h62L462,444.69A1.8,1.8,0,0,0,460.25,442.5Z" fill="none" stroke="#2e2d75" stroke-miterlimit="10" stroke-width="2"/><line x1="449.5" y1="446.5" x2="402.5" y2="463.5" fill="none" stroke="#2e2d75" stroke-miterlimit="10" stroke-width="2"/><line x1="452.5" y1="452.5" x2="425.5" y2="475.5" fill="none" stroke="#2e2d75" stroke-miterlimit="10" stroke-width="2"/></svg>