<svg xmlns="http://www.w3.org/2000/svg" viewBox="0 0 673.71 397.71"><title>Semester</title><circle cx="190" cy="221.71" r="119" fill="none" stroke="#2e2d75" stroke-miterlimit="10" stroke-width="2"/><polyline points="673 36.71 313 396.71 1 396.71 1 147.71 148 0.71" fill="none" stroke="#2e2d75" stroke-miterlimit="10" stroke-width="2"/><path d="M228.26,326.16c-.07-.13-6.67-11.36-6.67-11.36l-53.39,4.35-2.45.2a49.25,49.25,0,0,0-5.07,17.26s35.43,10.3,65.82-2.4Z" fill="#302d77" stroke="#2e2d75" stroke-miterlimit="10" stroke-width="0.5"/><path d="M169.5,306.17s1.95,5-1.3,13" fill="none" stroke="#2e2d75" stroke-miterlimit="10" stroke-width="2"/><path d="M218.14,299.58a38.78,38.78,0,0,0,.72,15.22" fill="none" stroke="#2e2d75" stroke-miterlimit="10" stroke-width="2"/><path d="M160,271.91c3.33,8.13,4.6,34.26,4.6,34.26l56.92-7s-2.85-21-1.22-29" fill="none" stroke="#2e2d75" stroke-miterlimit="10" stroke-width="2"/><path d="M216.23,261l9.4,21.24s1.6-30.55,11.09-26.41c4.49,2.24.8,22,.8,22" fill="none" stroke="#2e2d75" stroke-linejoin="bevel" stroke-width="2"/><path d="M194.62,234.41c8.87-.2,16.88-.27,20.7-.28a8.49,8.49,0,0,1,6,2.4l16.25,19.93" fill="none" stroke="#2e2d75" stroke-miterlimit="10" stroke-width="2"/><path d="M145.47,262.12l10.89-22.59a8.5,8.5,0,0,1,5.4-3.23A199.9,199.9,0,0,1,182,234.79" fill="none" stroke="#2e2d75" stroke-miterlimit="10" stroke-width="2"/><path d="M145.84,284.61s-4.47-23.34,1.82-24.39c9.17-1.53,9.06,25.72,9.06,25.72l5.58-23.82" fill="none" stroke="#2e2d75" stroke-miterlimit="10" stroke-width="2"/><path d="M194.3,233.51l2.11,9.33a5.27,5.27,0,0,1-5,5.48l-3.43.1a5.25,5.25,0,0,1-5.49-5l.23-9.45" fill="none" stroke="#2e2d75" stroke-miterlimit="10" stroke-width="2"/><line x1="182.7" y1="234.67" x2="182.7" y2="226.09" fill="none" stroke="#2e2d75" stroke-miterlimit="10" stroke-width="2"/><path d="M177,203.45v16.44a6.63,6.63,0,0,0,6.92,6.77h5.89" fill="none" stroke="#2e2d75" stroke-miterlimit="10" stroke-width="2"/><path d="M197.9,209.35s0,15.29-4.93,16.77l1.47,8.12" fill="none" stroke="#2e2d75" stroke-miterlimit="10" stroke-width="2"/><path d="M174.38,204.16s5.14,1.36,9-1.88c0,0,2.92,7.52,20.8,8.26" fill="none" stroke="#2e2d75" stroke-miterlimit="10" stroke-width="2"/><path d="M170.45,234.67,170,202.91a19.7,19.7,0,0,1,19.7-20h0a19.7,19.7,0,0,1,19.58,17.53l3.18,33.77" fill="none" stroke="#2e2d75" stroke-miterlimit="10" stroke-width="2"/><polyline points="149.56 261.02 145.13 287.29 146.75 326.47 142.54 330.84" fill="none" stroke="#2e2d75" stroke-miterlimit="10" stroke-width="2"/><polyline points="156.72 285.94 156.72 288.1 154.35 327.28 155.53 331.49 157 335.71" fill="none" stroke="#2e2d75" stroke-miterlimit="10" stroke-width="2"/><polyline points="232.87 256.18 238.19 282.09 236.57 321.26 240.78 325.63 241.49 327.94" fill="none" stroke="#2e2d75" stroke-miterlimit="10" stroke-width="2"/><polygon points="182.01 234.13 182.01 227.39 178.62 225.54 176.5 221.79 176.5 203.83 181.16 203.09 183.38 201.34 185.13 203.83 189.44 206.96 195.44 208.81 198.58 209.66 198.15 213.84 197.09 220.4 195.44 224.8 193.65 226.67 194.98 233.51 211.81 233.51 208.95 200.55 205.46 189.8 197.9 184.09 189.28 182.44 178.93 185.67 172.26 194.41 170.41 202.28 170.94 234.79 182.01 234.13" fill="#302d77"/><polyline points="228.69 326.93 227.12 333.51 228.69 326.93 229.07 323.4 225.81 283.72 225.81 279.77" fill="none" stroke="#2e2d75" stroke-miterlimit="10" stroke-width="2"/><line x1="394.9" y1="314.8" x2="394.9" y2="203.21" fill="none" stroke="#2e2d75" stroke-miterlimit="10" stroke-width="2"/></svg>