<svg xmlns="http://www.w3.org/2000/svg" viewBox="0 0 831.49 722.45"><title>Semester</title><path d="M428,332.56l16-2-4.36-60.13a11.7,11.7,0,0,0-12.16-11h0a11.7,11.7,0,0,0-11,13.83Z" fill="#2e2d75" stroke="#2e2d75" stroke-miterlimit="10" stroke-width="2"/><path d="M468.11,331.72l16.09,1.06,7.86-65a11.71,11.71,0,0,0-9.86-13.12h0a11.7,11.7,0,0,0-13.45,11.5Z" fill="#2e2d75" stroke="#2e2d75" stroke-miterlimit="10" stroke-width="2"/><path d="M466.56,345.45s.93-10,8.93-10,9.31,10,9.31,10Z" fill="none" stroke="#2e2d75" stroke-miterlimit="10" stroke-width="2"/><path d="M427.56,345.45s.93-10,8.93-10,9.31,10,9.31,10Z" fill="none" stroke="#2e2d75" stroke-miterlimit="10" stroke-width="2"/><path d="M464.49,191.45l-7-2s-1,6-8,5-7-5-7-5l-3.23-.56" fill="none" stroke="#2e2d75" stroke-miterlimit="10" stroke-width="2"/><path d="M437.06,256.09s8.43,6.36,16.43,11.36,16.59-6.68,16.59-6.68" fill="none" stroke="#2e2d75" stroke-miterlimit="10" stroke-width="2"/><path d="M478,235.88s4.82,17.66,8.17,20.11" fill="none" stroke="#2e2d75" stroke-miterlimit="10" stroke-width="2"/><path d="M455.49,185.45s13,0,20,8,14,34,14,34l-6,3" fill="none" stroke="#2e2d75" stroke-miterlimit="10" stroke-width="2"/><path d="M488.49,228.45l4,15,10,28s8,3,9,6h-11c-2,0-5.84-5.15-5.84-5.15" fill="#fff" stroke="#2e2d75" stroke-miterlimit="10" stroke-width="2"/><path d="M479.49,219.45a171.89,171.89,0,0,0,9,24c6,13,6.52,35,6.52,35,.51-14-8.83-29.78-14.52-38-9-13-17-52-17-52" fill="none" stroke="#2e2d75" stroke-miterlimit="10" stroke-width="2"/><path d="M429.49,236.45s-16,19-17,31,0,8,0,8a15.3,15.3,0,0,1,6.5-12.88,18,18,0,0,1,8.65-3.18c2.79-.31,8.12-1.65,14.85-6.94,14-11-4-65-4-65s-8,7-18-7a90.75,90.75,0,0,1-6-9l-8,18s7,12,17,14C423.49,203.45,433.71,228.92,429.49,236.45Z" fill="none" stroke="#2e2d75" stroke-linejoin="bevel" stroke-width="2"/><line x1="443.49" y1="191.45" x2="444.92" y2="180.12" fill="none" stroke="#2e2d75" stroke-miterlimit="10" stroke-width="2"/><line x1="455.49" y1="192.45" x2="454.97" y2="182.92" fill="none" stroke="#2e2d75" stroke-miterlimit="10" stroke-width="2"/><path d="M443.49,158.45l-2.75,13.33a7.6,7.6,0,0,0,5.23,8.66h0a7.59,7.59,0,0,0,9.21-4.27l.31-.72" fill="none" stroke="#2e2d75" stroke-miterlimit="10" stroke-width="2"/><path d="M447.49,157.45a45.83,45.83,0,0,0,7,11c5,6-2,32-2,33s-2,9,6,8,15-8,16-12,1-44-21-47c-12-1-14,12-14,12s-1,5,1,9l3-13A10,10,0,0,0,447.49,157.45Z" fill="#2e2d75" stroke="#2e2d75" stroke-miterlimit="10" stroke-width="2"/><path d="M440.27,278c8.6-.05,18,.94,26.5-.2,5.52-.75,6.76-5.57,6.07-10.44-.24-1.7-2.41-2.13-3.67-1.49l-8,4.09,3,3.92,5.79-5c2.12-1.84-.71-5.59-3-3.93-3.75,2.69-7.21,4.59-11.82,3a43.44,43.44,0,0,1-7.91-3.6c-3.24-1.92-9.53-9.94-14.1-6.85-4.08,2.76-.45,7.31,2.6,8.72,3.59,1.66,7.06,2,10.27,4.52a22.41,22.41,0,0,0,8.43,4.15l.66-4.91c-4.61.52-11.26,1.87-15.77.39l1.75,1.74a16,16,0,0,0,.88-2.47l-3.67,1.5a80.6,80.6,0,0,0,11.52,4.3c3.19.91,4.22-3.64,1.33-4.82s-5.93-2.31-9-3.31-4.38,3.83-1.33,4.82,6,2.1,9,3.31l1.33-4.82a71.71,71.71,0,0,1-10.32-3.8,2.56,2.56,0,0,0-3.68,1.5c-.89,2.63-2.06,5.26.87,6.87,1.75,1,4.45.48,6.37.47a101.15,101.15,0,0,0,10.72-.68c2.66-.3,3.57-4.09.67-4.91-5.19-1.46-8.83-5.3-14-7.06-1.24-.43-2.64-1.38-3.7-.37s.82,1.84,1.94,2.71a41.33,41.33,0,0,0,6.11,4.15c2.22,1.17,4.62,1.79,6.78,3.07,1.3.77,2.18,1.48,3.8,1.58,4.38.28,9.32-2.48,12.75-4.92l-3-3.93-5.79,5c-2.24,1.94.61,5.15,3,3.92l8-4.08-3.67-1.5c.86,6.11-9.19,4.19-13.17,4.22l-14.58.09c-3.21,0-3.22,5,0,5Z" fill="#2e2d75"/><rect x="666.49" y="93.45" width="11" height="185" fill="none" stroke="#2e2d75" stroke-miterlimit="10" stroke-width="2"/><rect x="235.49" y="93.45" width="11" height="185" fill="none" stroke="#2e2d75" stroke-miterlimit="10" stroke-width="2"/><line x1="115.49" y1="278.45" x2="814.49" y2="278.45" fill="none" stroke="#2e2d75" stroke-miterlimit="10" stroke-width="2"/><polyline points="0.49 417.45 246.49 278.45 246.49 334.45 235.49 345.45 235.49 397.45 224.49 412.45 224.49 469.45 213.49 486.45 213.49 542.45" fill="none" stroke="#2e2d75" stroke-miterlimit="10" stroke-width="2"/><polyline points="765.49 334.45 666.49 278.45 666.49 334.45 677.49 345.45 677.49 397.45 688.49 412.45 688.49 469.45" fill="none" stroke="#2e2d75" stroke-miterlimit="10" stroke-width="2"/><line x1="224.49" y1="412.45" x2="468.49" y2="412.45" fill="none" stroke="#2e2d75" stroke-miterlimit="10" stroke-width="2"/><line x1="677.49" y1="345.45" x2="629.49" y2="345.45" fill="none" stroke="#2e2d75" stroke-miterlimit="10" stroke-width="2"/><line x1="687.49" y1="412.45" x2="663.49" y2="412.45" fill="none" stroke="#2e2d75" stroke-miterlimit="10" stroke-width="2"/><line x1="246.49" y1="334.45" x2="281.49" y2="334.45" fill="none" stroke="#2e2d75" stroke-miterlimit="10" stroke-width="2"/><line x1="235.49" y1="345.45" x2="309.49" y2="345.45" fill="none" stroke="#2e2d75" stroke-miterlimit="10" stroke-width="2"/><line x1="429.49" y1="397.45" x2="568.49" y2="397.45" fill="none" stroke="#2e2d75" stroke-miterlimit="10" stroke-width="2"/><line x1="383.49" y1="345.45" x2="522.49" y2="345.45" fill="none" stroke="#2e2d75" stroke-miterlimit="10" stroke-width="2"/><line x1="777.49" y1="305.45" x2="831.49" y2="305.45" fill="#fcee21" stroke="#2e2d75" stroke-miterlimit="10" stroke-width="2"/><rect x="246.49" y="93.45" width="420" height="9" fill="none" stroke="#2e2d75" stroke-miterlimit="10" stroke-width="2"/><line x1="213.49" y1="486.45" x2="357.49" y2="486.45" fill="none" stroke="#2e2d75" stroke-miterlimit="10" stroke-width="2"/><line x1="246.49" y1="542.45" x2="457.49" y2="542.45" fill="none" stroke="#2e2d75" stroke-miterlimit="10" stroke-width="2"/><polygon points="600.88 212.81 612.76 216.65 574.82 183.31 590.97 209.6 597.19 211.62 600.88 212.81" fill="#fff" stroke="#2e2d75" stroke-linejoin="round" stroke-width="2"/><polyline points="574.82 183.31 558.85 197.6 585.56 207.58" fill="#fff" stroke="#2e2d75" stroke-miterlimit="10" stroke-width="2"/><polygon points="574.82 183.31 585.56 207.58 586.25 220.17 590.97 209.6 574.82 183.31" fill="#fff" stroke="#2e2d75" stroke-linejoin="bevel" stroke-width="2"/><line x1="586.23" y1="219.82" x2="581.95" y2="206.24" fill="#fff" stroke="#2e2d75" stroke-miterlimit="10" stroke-width="2"/><polygon points="345.04 6.86 335.86 1 379.33 7.99 352.7 11.74 347.89 8.67 345.04 6.86" fill="#fff" stroke="#2e2d75" stroke-linejoin="round" stroke-width="2"/><polyline points="379.33 7.99 378.59 26.66 357.06 14.25" fill="#fff" stroke="#2e2d75" stroke-miterlimit="10" stroke-width="2"/><polygon points="379.33 7.99 357.06 14.25 348.22 20.77 352.7 11.74 379.33 7.99" fill="#fff" stroke="#2e2d75" stroke-linejoin="bevel" stroke-width="2"/><line x1="348.46" y1="20.59" x2="359.97" y2="15.93" fill="#fff" stroke="#2e2d75" stroke-miterlimit="10" stroke-width="2"/><polygon points="155.97 168.96 146.31 177.26 195.48 161.95 164.02 162.04 158.96 166.38 155.97 168.96" fill="#fff" stroke="#2e2d75" stroke-linejoin="round" stroke-width="2"/><polyline points="195.48 161.95 191.52 140.46 168.65 158.41" fill="#fff" stroke="#2e2d75" stroke-miterlimit="10" stroke-width="2"/><polygon points="195.48 161.95 168.65 158.41 157.33 152.32 164.02 162.04 195.48 161.95" fill="#fff" stroke="#2e2d75" stroke-linejoin="bevel" stroke-width="2"/><line x1="157.64" y1="152.49" x2="171.74" y2="155.98" fill="#fff" stroke="#2e2d75" stroke-miterlimit="10" stroke-width="2"/><polygon points="651.44 496.17 668.26 493.81 609.61 529.55 637.41 498.13 646.22 496.9 651.44 496.17" fill="#fff" stroke="#2e2d75" stroke-linejoin="round" stroke-width="2"/><polyline points="609.61 529.55 591.58 506.66 629.69 499.57" fill="#fff" stroke="#2e2d75" stroke-miterlimit="10" stroke-width="2"/><polygon points="609.61 529.55 629.69 499.57 633.57 482.88 637.41 498.13 609.61 529.55" fill="#fff" stroke="#2e2d75" stroke-linejoin="bevel" stroke-width="2"/><line x1="633.47" y1="483.33" x2="624.55" y2="500.53" fill="#fff" stroke="#2e2d75" stroke-miterlimit="10" stroke-width="2"/><line x1="213.49" y1="721.45" x2="424.49" y2="721.45" fill="none" stroke="#2e2d75" stroke-miterlimit="10" stroke-width="2"/><path d="M311,588,329.63,635a5.07,5.07,0,0,1,.36,1.88v69h18l9.88-75.08a5.12,5.12,0,0,0-.09-1.83l-15.37-66.31a7.23,7.23,0,0,0-1.64-3.15l-6.15-6.92a6.7,6.7,0,0,0-1.42-1.24C311.37,537.16,286,546,286,546s-4.5,26.5-3.5,45.5c.88,16.73.21,31.9,0,35.29a6.3,6.3,0,0,1-.21,1.37l-17.83,69.34,18,5,24.76-65.38a7,7,0,0,0,.36-1.29l6.88-40.33" fill="#2e2d75" stroke="#2e2d75" stroke-miterlimit="10" stroke-width="2"/><path d="M333.49,708.45h11s8,7,11,8,7,2,7,3v2h-33S329.49,708.45,333.49,708.45Z" fill="#2e2d75" stroke="#2e2d75" stroke-miterlimit="10" stroke-width="2"/><path d="M269.49,472.45l-6,46s9,48,10,50,9,0,9,0L282,529.19" fill="#fff" stroke="#2e2d75" stroke-miterlimit="10" stroke-width="2"/><path d="M265.49,700.45l14,4,4,9s10,4,10,6-16,1-16,1l-13-8S260.49,705.45,265.49,700.45Z" fill="#2e2d75" stroke="#2e2d75" stroke-miterlimit="10" stroke-width="2"/><path d="M315.49,476.45l1-6,31.6-30.65a6.67,6.67,0,0,0,1.87-3.25l.78-3.11a6.85,6.85,0,0,0-1-5.54l-27.25-39.45-12,4,18,37-27,19-23-1s-15,19-7,49,14,38,15,49c0,0,39-12,54,13,1.15,1.91-16-80-21-91" fill="#fff" stroke="#2e2d75" stroke-miterlimit="10" stroke-width="2"/><path d="M301.49,446.45l-5-6h-18c-2,0,0,7,0,7h23.9Z" fill="none" stroke="#2e2d75" stroke-linejoin="round" stroke-width="2"/><polyline points="287.49 385.45 293.68 382.08 333.49 360.45 304.49 389.45 293.49 382.45" fill="#fff" stroke="#2e2d75" stroke-miterlimit="10" stroke-width="2"/><path d="M312.49,389.45s-14,2-14-1a12.13,12.13,0,0,1,1-5s2-4,4-4,6-4,6-3a22.69,22.69,0,0,1-1,4s-1,1,1,1h6c1,0,3,3,3,3l1,3Z" fill="#fff" stroke="#2e2d75" stroke-miterlimit="10" stroke-width="2"/><path d="M275.49,569.45s0,5,2,7l3,3c1,1,2-11,2-11Z" fill="#fff" stroke="#2e2d75" stroke-miterlimit="10" stroke-width="2"/><line x1="295.49" y1="440.45" x2="292.49" y2="432.45" fill="#fff" stroke="#2e2d75" stroke-miterlimit="10" stroke-width="2"/><path d="M293.49,399.45l5.44,21a8.39,8.39,0,0,1-3.73,9.27l-7.71,4.75-6-8-2-11,7-7Z" fill="#fff" stroke="#2e2d75" stroke-miterlimit="10" stroke-width="2"/><path d="M295.49,395.45c-1.33,10.68-5,10-7,15s-3,4-3,11,5,7,5,11-5.46,4-9,4-8-4-8-4-10-11-10-12v-13c0-4,9-14,14-16S296.49,387.45,295.49,395.45Z" fill="#2e2d75" stroke="#2e2d75" stroke-miterlimit="10" stroke-width="2"/><line x1="280.45" y1="440.45" x2="280.49" y2="434.45" fill="#2e2d75" stroke="#2e2d75" stroke-miterlimit="10" stroke-width="2"/><polygon points="368.49 135.45 415.49 135.45 406.49 136.45 406.49 146.45 368.49 135.45" fill="none" stroke="#2e2d75" stroke-linejoin="bevel" stroke-width="2"/><path d="M406.49,189.45l-9-42c0-1,1-2,1.87-3.07s-1.87-2.93-2.87-3.93-4-1-5-2,2-1,4-1,11,1,14,2,0,1,0,4-4,4-4,4l8,26.16Z" fill="#fff" stroke="#2e2d75" stroke-linejoin="bevel" stroke-width="2"/></svg>