<svg xmlns="http://www.w3.org/2000/svg" viewBox="0 0 641.07 548"><title>Semester</title><circle cx="207" cy="174.5" r="173.5" fill="none" stroke="#2e2d75" stroke-miterlimit="10" stroke-width="2"/><path d="M356.5,187s-9,11-27,10c0,0-8.8,8.08-10.4,16,0,0-4.6,37,13.4,86l3,14,15,0,43.23-47S384.5,206,356.5,187Z" fill="#fff" stroke="#2e2d75" stroke-miterlimit="10" stroke-width="2"/><polyline points="338.5 237 314.8 253.57 299.52 232.62 330.5 204" fill="#fff" stroke="#2e2d75" stroke-miterlimit="10" stroke-width="2"/><line x1="333.68" y1="197.1" x2="330.5" y2="184" fill="#fff" stroke="#2e2d75" stroke-miterlimit="10" stroke-width="2"/><path d="M301.58,160.11,316.7,184.7a8.75,8.75,0,0,0,12.51,2.54l11.41-8.12" fill="#fff" stroke="#2e2d75" stroke-miterlimit="10" stroke-width="2"/><path d="M287,150.47s6.44,15.77,21.78,8.42,15,10.55,15,10.55l2.7-1.3s-3.38-11.69,2-9.81,8.28,12.67,8.71,13.57,9.73,6.43,9.73,6.43L351,173s-8.48-1.48-9.19-12.23-1.66-33.58-18.76-27.61-22.58,13-25.29,14.33S287,150.47,287,150.47Z" fill="#2e2d75" stroke="#2e2d75" stroke-miterlimit="10" stroke-width="2"/><line x1="346.5" y1="178" x2="354.37" y2="189.09" fill="#2e2d75" stroke="#2e2d75" stroke-miterlimit="10" stroke-width="2"/><polyline points="301.5 231 302.06 212.55 329.5 197" fill="none" stroke="#2e2d75" stroke-miterlimit="10" stroke-width="2"/><rect x="222.5" y="202" width="28" height="28" fill="#2e2d75" stroke="#2e2d75" stroke-miterlimit="10" stroke-width="2"/><path d="M247,206.9s-.7,5.6-8.4,10.5-9.1,9.8-9.8,10.5" fill="none" stroke="#fff" stroke-miterlimit="10"/><path d="M243.85,205.85s-6.3,9.1-11.9,7.7-4.2-7.7-4.2-7.7" fill="none" stroke="#fff" stroke-miterlimit="10"/><path d="M225.65,214.25a21.21,21.21,0,0,0,4.9,3.5c2.8,1.4-4.9,8.4-4.9,8.4" fill="none" stroke="#fff" stroke-miterlimit="10"/><path d="M233.35,226.85s5.6-7,11.2-5.6" fill="none" stroke="#fff" stroke-miterlimit="10"/><path d="M251.5,221s3,1,3,5a24.42,24.42,0,0,0,1,7l26,17,19-15" fill="none" stroke="#2e2d75" stroke-miterlimit="10" stroke-width="2"/><path d="M233.35,230s1.15,3,4.15,3,11,4,11,4L277,267.26a10,10,0,0,0,5.62,1.74h0a9.92,9.92,0,0,0,5.38-1.59L313.5,252" fill="none" stroke="#2e2d75" stroke-miterlimit="10" stroke-width="2"/><path d="M335.5,313s-6.95,41.82-6.47,46.41L357.5,359l2-46Z" fill="#2e2d75" stroke="#2e2d75" stroke-miterlimit="10" stroke-width="2"/><path d="M43.5,297s-4-100,36-100,51,162,51,162" fill="#fff" stroke="#2e2d75" stroke-miterlimit="10" stroke-width="2"/><line x1="89.34" y1="200.5" x2="89.5" y2="188" fill="none" stroke="#2e2d75" stroke-miterlimit="10" stroke-width="2"/><path d="M82.17,187.51l4.74.94a9.58,9.58,0,0,0,11.2-7.28l4.47-19.61" fill="none" stroke="#2e2d75" stroke-miterlimit="10" stroke-width="2"/><path d="M108.1,151.91A12.78,12.78,0,0,1,101,162.67c-8.14,4-21.11,12.52-23.89,26.57L70.38,215.4a12.72,12.72,0,0,1-16.46,8.87l-7.81-2.69A12.72,12.72,0,0,1,38.81,204L68,143.93a12.72,12.72,0,0,1,12.8-7.08l16,1.71a12.73,12.73,0,0,1,11.34,13.33Z" fill="#2e2d75" stroke="#2e2d75" stroke-miterlimit="10" stroke-width="2"/><path d="M111.5,294s1,21-13,26" fill="#fff" stroke="#2e2d75" stroke-miterlimit="10" stroke-width="2"/><line y1="359.5" x2="514" y2="359.5" fill="none" stroke="#2e2d75" stroke-miterlimit="10" stroke-width="2"/><polyline points="447.39 548 447.39 449.5 513.7 383.2" fill="none" stroke="#2e2d75" stroke-miterlimit="10" stroke-width="2"/><line x1="64.47" y1="548" x2="64.47" y2="493" fill="none" stroke="#2e2d75" stroke-miterlimit="10" stroke-width="2"/><circle cx="394.5" cy="479" r="21" fill="none" stroke="#2e2d75" stroke-miterlimit="10" stroke-width="2"/><circle cx="334.5" cy="479" r="21" fill="none" stroke="#2e2d75" stroke-miterlimit="10" stroke-width="2"/><line x1="430.5" y1="379" x2="243.5" y2="379" fill="none" stroke="#2e2d75" stroke-miterlimit="10" stroke-width="2"/><line x1="4.5" y1="383" x2="52" y2="430.5" fill="#2e2d75" stroke="#2e2d75" stroke-miterlimit="10" stroke-width="2"/><rect x="350.5" y="281" width="12" height="60" fill="#fff" stroke="#2e2d75" stroke-miterlimit="10" stroke-width="2"/><polygon points="505.1 359.41 505.1 199 468.5 184 407.5 266 357.5 266 357.5 359 505.1 359.41" fill="#2e2d75" stroke="#2e2d75" stroke-miterlimit="10" stroke-width="2"/><circle cx="382.5" cy="291" r="8" fill="#fff" stroke="#2e2d75" stroke-miterlimit="10" stroke-width="2"/><circle cx="382.5" cy="313" r="8" fill="#fff" stroke="#2e2d75" stroke-miterlimit="10" stroke-width="2"/><rect x="37.5" y="313" width="26" height="32" fill="#fff" stroke="#2e2d75" stroke-miterlimit="10" stroke-width="2"/><polygon points="63.5 333 101.5 333 106.5 329 101.5 325 63.5 325 63.5 333" fill="#fff" stroke="#2e2d75" stroke-miterlimit="10" stroke-width="2"/><polygon points="8.31 359.5 8.31 298 45.5 298 69.34 359.5 8.31 359.5" fill="#2e2d75" stroke="#2e2d75" stroke-miterlimit="10" stroke-width="2"/><path d="M484.48,190.55S496.5,99,552.5,96s72-15,72-15" fill="none" stroke="#2e2d75" stroke-miterlimit="10" stroke-width="2"/><path d="M475.82,187s21.68-67,86.68-70,78-12,78-12" fill="none" stroke="#2e2d75" stroke-miterlimit="10" stroke-width="2"/><path d="M244.5,201s4-3,7-2,3,5,4,7a39.33,39.33,0,0,1,2,6l24,13,20-9" fill="none" stroke="#2e2d75" stroke-miterlimit="10" stroke-width="2"/><path d="M296.5,238l-13.21,2.79a6.22,6.22,0,0,1-1.6.21h-1.1a6.3,6.3,0,0,1-5-2.45L253.5,217h-2" fill="none" stroke="#2e2d75" stroke-miterlimit="10" stroke-width="2"/><path d="M77.5,207l111,12v31s-59,9-103-19" fill="#fff" stroke="#2e2d75" stroke-miterlimit="10" stroke-width="2"/><path d="M216.5,222l-26.18-.94L202.5,221s0-8-5-4-7.18,4.06-7.18,4.06L188.5,221v14.5s10-1.5,11-1.5,3-1,3-2a10.56,10.56,0,0,1,2-5c1-1,6-1,10-2S216.5,222,216.5,222Z" fill="#2e2d75" stroke="#2e2d75" stroke-miterlimit="10" stroke-width="2"/><path d="M114.5,244s17,57,19,73l-6.93,3.2" fill="none" stroke="#2e2d75" stroke-miterlimit="10" stroke-width="2"/></svg>