<svg xmlns="http://www.w3.org/2000/svg" viewBox="0 0 522 629.89"><title>header</title><path d="M126,516.38l-2,23,4,72s5,5,14,0l6-63,7-29Z" fill="#fff" stroke="#2d2f75" stroke-miterlimit="10" stroke-width="2"/><path d="M174,516.38l7,28,30,61s12-1,16-7l-21-54-4-41Z" fill="#fff" stroke="#2d2f75" stroke-miterlimit="10" stroke-width="2"/><path d="M152,349.38s-41,19-77-24l-9,21s23,42,96,33c0,0,7-1,10,3" fill="none" stroke="#2d2f75" stroke-miterlimit="10" stroke-width="2"/><path d="M111,350.38l5.58-7.67a10.84,10.84,0,0,1,6.58-4.25c7.46-1.55,22.88-4.32,28.84-2.08,7.89,3,34.25,25.36,40.74,88.31a39.65,39.65,0,0,0,.91,5.55C199,451.38,206,454.38,206,454.38s-24,17-46,10-24-8-31-6a13.58,13.58,0,0,0-9,8s7-23-5-53-12-23-10-38" fill="none" stroke="#2d2f75" stroke-miterlimit="10" stroke-width="2"/><path d="M101.67,373.73S85,405.38,53,368.38l-12,11s18.56,46.06,71.78,28.53" fill="none" stroke="#2d2f75" stroke-miterlimit="10" stroke-width="2"/><path d="M122,462.38s-2,28-7,50c0,0,36,14,61,6s25-12,30-11a51,51,0,0,0,9,1,358.56,358.56,0,0,0-11.1-52.64s-23.11,18.15-52.5,5.89C129,452.38,122,462.38,122,462.38Z" fill="#2c3075" stroke="#2d2f75" stroke-miterlimit="10" stroke-width="2"/><path d="M128,611.38s-10,10-13,10-5,3-5,7h36s2-13-4-17C142,611.38,136,616.38,128,611.38Z" fill="#2c3075" stroke="#2d2f75" stroke-miterlimit="10" stroke-width="2"/><path d="M211,605.38s-1,10-5,15-5,1-5,8l21-1,10-16s2-9-5-13A15.28,15.28,0,0,1,211,605.38Z" fill="#2c3075" stroke="#2d2f75" stroke-miterlimit="10" stroke-width="2"/><line x1="126.48" y1="337.8" x2="125" y2="328.38" fill="#2c3075" stroke="#2d2f75" stroke-miterlimit="10" stroke-width="2"/><line x1="143" y1="335.38" x2="140" y2="325.38" fill="#2c3075" stroke="#2d2f75" stroke-miterlimit="10" stroke-width="2"/><path d="M108,300.38l8,21.78a10.07,10.07,0,0,0,11.57,6.38l5.44-1.16" fill="none" stroke="#2d2f75" stroke-miterlimit="10" stroke-width="2"/><path d="M113,297.38s0,8,17,7c5,2-3,5,10,15s2,20,5,24,5,6,12,7,21,0,20-11-18-22-15-35c1.64-7.1-5-23-10-27-12.12-9.7-15-6-28-5s-19,4-19,9-6,9-4,12,1,7,4,13,10,14,10,14l-6-19S112,302.38,113,297.38Z" fill="#2c3075" stroke="#2d2f75" stroke-miterlimit="10" stroke-width="2"/><polygon points="26 364.38 61 364.38 43 324.38 26 364.38" fill="#2c3075" stroke="#2d2f75" stroke-miterlimit="10" stroke-width="2"/><path d="M51.32,369.92S51,357.38,49,358.38s-1,6-3,7-14-1-14-1-3-1,2,4a94,94,0,0,0,9,8Z" fill="#fff" stroke="#2d2f75" stroke-miterlimit="10" stroke-width="2"/><path d="M68,341.67l-9-1.29s-4-6-3-7,3,1,5,2,7-7,3-8-6,4-8,4-1-3,1-5,4-5,7-4,7.43,5,9.71,6Z" fill="#fff" stroke="#2d2f75" stroke-miterlimit="10" stroke-width="2"/><line x1="52" y1="335.38" x2="80" y2="314.38" fill="#fff" stroke="#2d2f75" stroke-linecap="round" stroke-linejoin="round" stroke-width="4"/><circle cx="247" cy="332.38" r="245" fill="none" stroke="#2d2f75" stroke-miterlimit="10" stroke-width="2"/><path d="M259.09,6.19,318.57,37c6.84,3.32,9.12,12.53,5.05,20.41h0a18.32,18.32,0,0,1-4.89,5.95,18.7,18.7,0,0,1-21.81.66L246,30.72Z" fill="none" stroke="#2d2f75" stroke-miterlimit="10" stroke-width="2"/><path d="M219.91,4.69,159,39.42a15.82,15.82,0,0,0-6.21,21.74h0a17,17,0,0,0,11.41,8.06A21.27,21.27,0,0,0,181,65.56L234,28.07Z" fill="none" stroke="#2d2f75" stroke-miterlimit="10" stroke-width="2"/><path d="M193.86,59.44a91.88,91.88,0,0,0,20.92,0c11.76-1.3,13.07-3.92,26.14-7.84s32.68,6.54,32.68,6.54S254,122.19,302.36,165.33s-37.91,62.74-37.91,62.74v-18.3s40.52-10.46,17-27.45-24.83-24.84-47.05-22.22-40.53-11.77-40.53-11.77S146.8,123.5,144.19,71.21L152,64.39a2,2,0,0,1,3.27,1.08c2.17,10.47,11.32,42.18,43.84,54.1C199.09,119.57,205,82.35,193.86,59.44Z" fill="#2c3075" stroke="#2d2f75" stroke-miterlimit="10" stroke-width="2"/><path d="M166.9,35.62S193.86,1.93,220,3.23s45.1-.47,81,24.84" fill="none" stroke="#2d2f75" stroke-miterlimit="10" stroke-width="2"/><path d="M237,59.44s-6.54,34-3.92,62.75" fill="none" stroke="#2d2f75" stroke-miterlimit="10" stroke-width="2"/><path d="M243.54,154.87s-3.93-10.46-14.38-10.46-14.38,9.15-14.38,9.15" fill="none" stroke="#2d2f75" stroke-miterlimit="10" stroke-width="2"/><path d="M241.27,150.9s-1.66,15.73-.35,22.27" fill="none" stroke="#2d2f75" stroke-miterlimit="10" stroke-width="2"/><path d="M221.63,149.59A57.67,57.67,0,0,1,220,174.48" fill="none" stroke="#2d2f75" stroke-miterlimit="10" stroke-width="2"/><path d="M229.16,171.86l-13,3.61a11.38,11.38,0,0,0-8.05,13.58L214.78,215" fill="none" stroke="#2d2f75" stroke-miterlimit="10" stroke-width="2"/><path d="M272.29,58.14a54.68,54.68,0,0,1,4.31-7.42" fill="#2c3075" stroke="#2d2f75" stroke-miterlimit="10" stroke-width="2"/><path d="M237,191.47l-2.61-7.84-1.31,3.92s1.31,10.45,1.31,11.76-2.62,3.92-10.46,9.15-14.38,9.15-14.38,10.46-2.62,3.92,6.54,5.23,7.84,2.61,14.37,3.92,9.15,2.61,15.69-1.31,10.46-9.15,11.76-10.45,2.62-1.31,2.62-6.54-6.54-14.38-7.84-17A102.58,102.58,0,0,1,247.46,181c-1.31-3.92-2.62-5.23-2.62-7.84s0-2.62-1.3-5.23a3.71,3.71,0,0,0-6.54,0c-1.31,2.61,0,10.46,1.31,14.38S243.54,188.85,237,191.47Z" fill="#2c3075" stroke="#2d2f75" stroke-miterlimit="10" stroke-width="2"/><path d="M263.14,226.76l-10.45,1.31s-9.15-3.92-10.46-6.54,5.23-1.3,5.23-1.3l7.84,1.3s3.92-3.92,0-5.22-2.61-2.62-2.61-2.62h10.45Z" fill="#fff" stroke="#2d2f75" stroke-linecap="round" stroke-linejoin="round" stroke-width="2"/><path d="M144.19,69.9V58.14s0-9.15,2.61-10.46S152,43.76,152,45.06s-2.61,5.23-2.61,7.85,0,3.92,1.31,6.53,1.3,2.62,1.3,3.92S144.19,69.9,144.19,69.9Z" fill="none" stroke="#2d2f75" stroke-miterlimit="10" stroke-width="2"/><path d="M247.29,20.18s-12.41,7.4-18.43-2.25,6.7-16.55,6.7-16.55Z" fill="#2c3075" stroke="#2d2f75" stroke-miterlimit="10" stroke-width="2"/><path d="M245,1.38s12.38,7.44,6.72,17.3S234,20.6,234,20.6Z" fill="#2c3075" stroke="#2d2f75" stroke-miterlimit="10" stroke-width="2"/><polyline points="0 3.89 521 3.89 521 122.38" fill="none" stroke="#2d2f75" stroke-miterlimit="10" stroke-width="2"/><polyline points="461 300.38 466 294.38 466 288.38 463 292.38 462 293.38 459 289.38 463 287.38 458 285.38 454 288.38 454 296.38" fill="#fff" stroke="#2d2f75" stroke-linecap="round" stroke-linejoin="round" stroke-width="2"/><path d="M312,376.38s-5.5,31.5.5,78.5c0,0,42,13,61,0,0,0,7-55,11-68" fill="none" stroke="#2d2f75" stroke-miterlimit="10" stroke-width="2"/><path d="M376,391.38l61.8-36.13a11.12,11.12,0,0,0,4.64-5.29L463,301.38l-11-6-26,36.25a11.14,11.14,0,0,1-5.14,3.94L384,349.38l-7.91-4.75a10.17,10.17,0,0,0-4.52-1.42l-40.75-2.71a10,10,0,0,0-3.57.4l-5.33,1.6a10,10,0,0,0-4.92,3.29c-5.77,7.07-22.24,28.34-26.51,45.38a10.86,10.86,0,0,0-.2,4.21l7.71,54,13-2" fill="none" stroke="#2d2f75" stroke-miterlimit="10" stroke-width="2"/><polyline points="336.98 340.91 341 335.38 363 336.38 367.23 342.93" fill="none" stroke="#2d2f75" stroke-miterlimit="10" stroke-width="2"/><path d="M341.3,505.27l-14.94,38.19a7.26,7.26,0,0,1-.95,1.7L280,605.38l-17-8,36.37-64.88a7,7,0,0,0,.83-2.39L312,454.38s41,15,62,0l12.75,84.33a8.17,8.17,0,0,1-.19,3.3L368,611.38H347l6.82-73a8.14,8.14,0,0,0-.57-3.81L334,487.38" fill="#2c3075" stroke="#2d2f75" stroke-miterlimit="10" stroke-width="2"/><path d="M349,613.38h15s9,8,15,9a10.67,10.67,0,0,1,8,6l-39.75.5S345,623.38,349,613.38Z" fill="none" stroke="#2d2f75" stroke-miterlimit="10" stroke-width="2"/><path d="M264,601.38l13,6s1,10,5,13,8,5,9,8c0,0-17,1-24-2s-14-14-14-14S256,602.38,264,601.38Z" fill="none" stroke="#2d2f75" stroke-miterlimit="10" stroke-width="2"/><line x1="345" y1="335.38" x2="345" y2="329.38" fill="none" stroke="#2d2f75" stroke-miterlimit="10" stroke-width="2"/><path d="M362.43,336.33l1.33-9.43h-8.3s15.41,7.12,20.15-22.51" fill="none" stroke="#2d2f75" stroke-miterlimit="10" stroke-width="2"/><path d="M380.35,303.2s-7.11,3.56-11.85,2.37-5.93,8.3-5.93,8.3H360.2s2.37-8.3,0-7.11-4.74,5.92-4.74,11.85,4.74,9.48,0,10.67-3.55,3.55-5.92,2.37-7.11,1.18-9.48-4.75-5.93-21.33-1.19-27.26,9.48-14.22,23.7-11.85S383.91,293.72,380.35,303.2Z" fill="#2c3075" stroke="#2d2f75" stroke-miterlimit="10" stroke-width="2"/><polyline points="301 449.38 302 457.38 303 465.38 309 465.38 310 453.38 312.26 452.97" fill="none" stroke="#2d2f75" stroke-miterlimit="10" stroke-width="2"/><line x1="469" y1="294.38" x2="449" y2="281.38" fill="none" stroke="#2d2f75" stroke-linecap="round" stroke-miterlimit="10" stroke-width="4"/><path d="M319,251.38s48,5,69,42c0,0,33-21,82,2" fill="none" stroke="#2d2f75" stroke-linecap="round" stroke-linejoin="round" stroke-width="4"/></svg>