<svg xmlns="http://www.w3.org/2000/svg" viewBox="0 0 1352.87 1345.05"><title>pitv</title><path d="M322.56,1032.79l-131,109-44.84-53.86a43.25,43.25,0,0,1-9.16-18.14,52.72,52.72,0,0,1-.74-19.83,57,57,0,0,1,6.33-18.85A51.62,51.62,0,0,1,155.56,1016a56.49,56.49,0,0,1,23.75-11.8,53.86,53.86,0,0,1,26,.25q12.75,3.29,22.1,14.55l37.93,45.56,49.43-41.15Zm-65.93,39L219,1026.55a31.87,31.87,0,0,0-17-11.1,38.59,38.59,0,0,0-20,.39,49,49,0,0,0-18.44,9.73,43.3,43.3,0,0,0-15.62,37.51,32.94,32.94,0,0,0,7.62,18.16l36.7,44.09Z" fill="#fbb03b"/><path d="M176.79,809.23,187,805l43.25,105L72.7,974.9l-42.43-103,10.21-4.21,37.76,91.64,61.91-25.51-33-80.1,9.77-4,33,80.1,65.46-27Z" fill="#fbb03b"/><path d="M158.55,655.15l11-1,10,113.08-169.73,15L0,671.37l11-1,8.75,98.74,66.69-5.92-7.64-86.3L89.32,676,97,762.28,167.49,756Z" fill="#fbb03b"/><path d="M173.38,615.79,6.83,579.8l14.8-68.5a43.34,43.34,0,0,1,8.63-18.39,52.77,52.77,0,0,1,15.17-12.8,56.88,56.88,0,0,1,18.74-6.63,51.42,51.42,0,0,1,19.56.42,56.29,56.29,0,0,1,23.92,11.43,53.82,53.82,0,0,1,15.81,20.6q5.25,12.06,2.16,26.37L113.1,590.24,176,603.83Zm-71.31-27.93,12.42-57.47a31.91,31.91,0,0,0-1.76-20.27,38.7,38.7,0,0,0-12.61-15.5,49.24,49.24,0,0,0-19-8.53,43.33,43.33,0,0,0-39.17,10.82,32.89,32.89,0,0,0-9.6,17.19L20.2,570.17Z" fill="#fbb03b"/><path d="M248.18,406.91,104.47,315.35,111.05,305l143.71,91.56Z" fill="#fbb03b"/><path d="M189.65,235.64,290.33,343.57l-8.95,8.35L165.14,227.32l7.37-6.88L361.7,249.09,259.38,139.41l9-8.35,116.23,124.6-8.78,8.19Z" fill="#fbb03b"/><path d="M471.32,38l-57.09,25.2,64.35,145.79-11.2,4.94L403,68.09,346,93.28l-4.46-10.1L466.86,27.85Z" fill="#fbb03b"/><path d="M627.06,172.42a71.5,71.5,0,0,1-32.95-4.2,80.57,80.57,0,0,1-27-17.07A91.8,91.8,0,0,1,539.51,94a89.5,89.5,0,0,1,17.08-62,82.87,82.87,0,0,1,23.49-21.54A71,71,0,0,1,610.83.38a70.27,70.27,0,0,1,33.08,4.31,81,81,0,0,1,26.86,17.43,94,94,0,0,1,18.9,26.16,88.3,88.3,0,0,1,8.71,30.51,89.57,89.57,0,0,1-17.06,62.27,81.12,81.12,0,0,1-23.51,21.42A72.14,72.14,0,0,1,627.06,172.42ZM551.69,92.84a80.42,80.42,0,0,0,24,50,68,68,0,0,0,22.86,14.69,62.33,62.33,0,0,0,54.57-5.47,67.75,67.75,0,0,0,19.62-19.24,78.67,78.67,0,0,0,11.19-25.3,82,82,0,0,0-5.51-55,76.94,76.94,0,0,0-16.26-22.56,69.82,69.82,0,0,0-23-14.67,58.4,58.4,0,0,0-27.23-3.66,59.41,59.41,0,0,0-27.09,9.1,66.57,66.57,0,0,0-19.5,19.23A84.37,84.37,0,0,0,554,65.25,78.15,78.15,0,0,0,551.69,92.84Z" fill="#fbb03b"/><path d="M976.54,77.81,918.28,55.47l-57,148.8-11.43-4.38,57.05-148.8L848.58,28.75l3.95-10.31,128,49.06Z" fill="#fbb03b"/><path d="M1156.27,195.93,1047.37,327l-9.41-7.83,52.15-62.76-82.7-68.71-52.15,62.76-9.41-7.83,108.9-131,9.41,7.82-49.7,59.81,82.7,68.71,49.7-59.81Z" fill="#fbb03b"/><path d="M1146.19,456.3l-9.41,5.77-59.39-96.74,145.23-89.14,58.26,94.9-9.42,5.78-51.85-84.48-57.06,35,45.32,73.84-9,5.52L1153.55,333l-60.34,37Z" fill="#fbb03b"/><path d="M1338.17,536.84l-147.54,80.44,160.9,48.47,1.34,12.89L1176,624.83l-1.22-11.7L1336.83,524Z" fill="#fbb03b"/><path d="M1174.74,729.89l169,21.68-1.55,12.14-169-21.68Z" fill="#fbb03b"/><path d="M1165.22,794.43l160.63,56.86-4.08,11.53-150.23-53.17-34,95.93-10.41-3.69Z" fill="#fbb03b"/><path d="M1110.22,928.12l137.85,100.17-7.19,9.9L1112,944.51l-59.82,82.33-8.93-6.49Z" fill="#fbb03b"/><path d="M1078.93,1210.07l-8.5,6.27L911.33,1122l10.43-7.7,52,31.4,66.25-48.88-14.58-59,10.62-7.83Zm-95.8-58.76,82.72,49.92-23.19-93.85Z" fill="#fbb03b"/><path d="M791.31,1238.6l36.82-11.72,3,9.38-46.89,14.92-25.1-78.9,10.06-3.21Zm32.18-88.06a69.42,69.42,0,0,1,32.67-2.59,84,84,0,0,1,30.25,11.16,90.81,90.81,0,0,1,24.33,21.47,88,88,0,0,1,15.17,28.29,91.73,91.73,0,0,1,4.3,32.51,88.71,88.71,0,0,1-7.18,31.25,79.08,79.08,0,0,1-18,25.86,70.23,70.23,0,0,1-27.81,16.28q-24.24,7.71-42.39,2.53A68.61,68.61,0,0,1,804,1299l7.79-8.77q13.32,13.38,29.23,16.26t33-2.58a58.56,58.56,0,0,0,24.14-14.36A65.36,65.36,0,0,0,912.93,1267a77.69,77.69,0,0,0,5.27-27,85.42,85.42,0,0,0-4-27.69,77.51,77.51,0,0,0-13.69-25.61,79.65,79.65,0,0,0-21.23-18.43,68.53,68.53,0,0,0-25.83-9.16,60.6,60.6,0,0,0-27.21,2.36,63.69,63.69,0,0,0-27.29,17.12q-11.52,12.09-19.08,32.64l-4.15-13Q790.55,1161,823.49,1150.54Z" fill="#fbb03b"/><path d="M605.29,1183.87l.18-11,113.5,1.84-2.76,170.38-111.34-1.81.17-11,99.11,1.61,1.09-67-86.63-1.41.17-10.56,86.63,1.41,1.15-70.79Z" fill="#fbb03b"/></svg>